<?xml version="1.0" encoding="UTF-8" standalone="no"?>
<svg
   viewBox="0 0 22 22"
   width="22"
   height="22"
   version="1.1"
   id="svg4"
   sodipodi:docname="audio-volume-muted.svg"
   inkscape:version="1.3.2 (091e20ef0f, 2023-11-25)"
   xmlns:inkscape="http://www.inkscape.org/namespaces/inkscape"
   xmlns:sodipodi="http://sodipodi.sourceforge.net/DTD/sodipodi-0.dtd"
   xmlns="http://www.w3.org/2000/svg"
   xmlns:svg="http://www.w3.org/2000/svg">
  <defs
     id="defs4" />
  <sodipodi:namedview
     id="namedview4"
     pagecolor="#6c6c6c"
     bordercolor="#999999"
     borderopacity="1"
     inkscape:showpageshadow="2"
     inkscape:pageopacity="0"
     inkscape:pagecheckerboard="0"
     inkscape:deskcolor="#d1d1d1"
     inkscape:zoom="7.9374999"
     inkscape:cx="6.9291339"
     inkscape:cy="9.8267718"
     inkscape:window-width="1920"
     inkscape:window-height="996"
     inkscape:window-x="0"
     inkscape:window-y="0"
     inkscape:window-maximized="1"
     inkscape:current-layer="22-22-audio-volume-low"
     showgrid="true">
    <inkscape:grid
       id="grid1"
       units="px"
       originx="0"
       originy="0"
       spacingx="1"
       spacingy="1"
       empcolor="#0099e5"
       empopacity="0.30196078"
       color="#0099e5"
       opacity="0.14902"
       empspacing="5"
       dotted="false"
       gridanglex="30"
       gridanglez="30"
       visible="true" />
  </sodipodi:namedview>
  <style
     id="current-color-scheme"
     type="text/css">.ColorScheme-Text { color: #fcfcfc; }
</style>
  <g
     id="22-22-audio-volume-low"
     style="fill:#bac8df;fill-opacity:1">
    <path
       style="opacity:0.00100002;fill:#bac8df;fill-opacity:1"
       d="M 0,0 H 22 V 22 H 0 Z"
       id="path19" />
    <path
       d="m 13.999994,4.0370168 c 0,-0.958748 -1.176456,-1.367133 -1.920462,-0.730102 L 8.9854961,6.0710079 9.828367,6.882 7.5,7 4.076919,7.0239858 c -1.1470268,0.00804 -2.076925,0.896246 -2.076925,2.000785 v 3.9980352 c 0,1.104503 0.92987,2.001116 2.076925,2.001116 h 3.396512 c 0.169603,0 0.333301,0.05871 0.46004,0.167239 l 4.145971,3.54986 c 0.744095,0.637173 1.920555,0.282996 1.920555,-0.717004 L 13.999995,16 13,11 13.999995,12 Z M 9.8012509,6.882 12.999997,4.0240168 V 11 L 14,16 12.999997,15 v 3.024017 l -4.146475,-3.529 c -0.380217,-0.325592 -0.87131,-0.471 -1.380091,-0.471 L 7.472994,7.9999998 v 0 0 0.02402 h 4.84e-4 c 0,0 0.00446,-0.04264 6.499e-4,-0.01467 -0.00206,0.015112 0.00502,-0.6471445 0.00502,-0.6471445 L 7.5,7 Z"
       id="path2057-3-12"
       style="fill:currentColor;fill-opacity:1;stroke-width:0.905853"
       sodipodi:nodetypes="sccccsssssccscccscccccccscccccsccc"
       class="ColorScheme-Text" />
    <path
       d="m 17.375039,5.8163918 c 0.301444,-0.21035 0.726895,-0.150642 0.950255,0.133346 1.11502,1.418092 1.7747,3.174157 1.7747,5.0734712 0,1.899316 -0.65968,3.65538 -1.7747,5.073491 -0.22337,0.284028 -0.648811,0.34367 -0.950255,0.133348 -0.301535,-0.210312 -0.364851,-0.611062 -0.141567,-0.895089 0.947622,-1.205154 1.507852,-2.695867 1.507852,-4.31175 0,-1.6157982 -0.56022,-3.1065482 -1.507852,-4.3117392 -0.223284,-0.283989 -0.159968,-0.684731 0.141567,-0.895078 z"
       id="path2059-6-7"
       style="stroke-width:0.879133;fill-opacity:0.5;fill:currentColor;"
       class="ColorScheme-Text" />
    <path
       d="m 15.749454,7.9272888 c 0.323713,-0.168241 0.7283,-0.0527 0.90357,0.258103 0.476589,0.845191 0.74697,1.8130252 0.74697,2.8395992 0,1.026573 -0.27038,1.994448 -0.74697,2.839633 -0.17527,0.310737 -0.579857,0.426345 -0.90357,0.258094 -0.323789,-0.168252 -0.444221,-0.556631 -0.268954,-0.867369 0.373747,-0.662766 0.586267,-1.421779 0.586267,-2.230358 0,-0.80858 -0.212519,-1.5675932 -0.586267,-2.2303362 -0.175267,-0.310785 -0.05486,-0.699121 0.268954,-0.867366 z"
       id="path2061-7-0"
       style="stroke-width:0.87086;fill-opacity:0.5;fill:currentColor;"
       class="ColorScheme-Text" />
    <path
       d="M 3.499995,10.999991 C 3.499995,11.828825 2.828821,12.5 1.999997,12.5 1.171871,12.500001 0.5,11.828825 0.5,10.999991 c 0,-0.828126 0.671871,-1.4999912 1.499997,-1.4999912 0.828824,0 1.499998,0.6718652 1.499998,1.4999912 z"
       id="path72-3-7-3-9"
       style="stroke-width:0.0178575;fill-opacity:1;fill:currentColor;"
       class="ColorScheme-Text" />
    <path
       d="M 3.6597871,2.7480314 C 3.2280382,2.3321233 2.5434915,2.8544418 2.9527559,3.4550624 l 15.3535161,15.3535156 0.353516,0.353515 c 0.530805,0.323562 1.094711,-0.05398 0.707031,-0.707031 L 19.013304,18.101546 4.0133039,3.1015464 Z"
       stroke-linecap="square"
       stroke-miterlimit="0"
       id="path2"
       style="color:#da4453;fill:#c83771;fill-opacity:1"
       sodipodi:nodetypes="cccccccc" />
  </g>
</svg>
