<?xml version="1.0" encoding="UTF-8" standalone="no"?>
<svg
   width="45.999886"
   height="45.999989"
   version="1.1"
   viewBox="0 0 12.170564 12.170591"
   id="svg12"
   sodipodi:docname="kmymoney.svg"
   inkscape:version="1.3.2 (091e20ef0f, 2023-11-25)"
   xmlns:inkscape="http://www.inkscape.org/namespaces/inkscape"
   xmlns:sodipodi="http://sodipodi.sourceforge.net/DTD/sodipodi-0.dtd"
   xmlns:xlink="http://www.w3.org/1999/xlink"
   xmlns="http://www.w3.org/2000/svg"
   xmlns:svg="http://www.w3.org/2000/svg">
  <defs
     id="defs16">
    <linearGradient
       id="linearGradient7"
       inkscape:collect="always">
      <stop
         style="stop-color:#ffb380;stop-opacity:1"
         offset="0"
         id="stop6" />
      <stop
         style="stop-color:#ff9955;stop-opacity:1"
         offset="1"
         id="stop7" />
    </linearGradient>
    <linearGradient
       id="c"
       y1="523.79999"
       x1="403.57001"
       y2="536.79999"
       x2="416.57001"
       gradientUnits="userSpaceOnUse"
       gradientTransform="matrix(0.34526714,0,0,0.34526706,-134.80427,-174.63325)">
      <stop
         stop-color="#292c2f"
         id="stop1568" />
      <stop
         offset="1"
         stop-opacity="0"
         id="stop1570" />
    </linearGradient>
    <linearGradient
       xlink:href="#b-2"
       id="linearGradient4189"
       x1="14.369"
       y1="22.521999"
       x2="26.521999"
       y2="22.521999"
       gradientUnits="userSpaceOnUse" />
    <linearGradient
       x1="36"
       gradientUnits="userSpaceOnUse"
       x2="14"
       y2="12"
       y1="44"
       id="b-2">
      <stop
         style="stop-color:#bfc9c9;stop-opacity:1"
         stop-color="#536161"
         id="stop1579" />
      <stop
         style="stop-color:#fbfbfb;stop-opacity:1"
         stop-color="#f4f5f5"
         offset="1"
         id="stop1581" />
    </linearGradient>
    <linearGradient
       xlink:href="#b-2"
       id="linearGradient4428"
       gradientUnits="userSpaceOnUse"
       x1="31.586"
       y1="36.345001"
       x2="1.2029999"
       y2="6.723" />
    <linearGradient
       xlink:href="#b-2"
       id="linearGradient4189-3"
       x1="14.369"
       y1="22.521999"
       x2="26.521999"
       y2="22.521999"
       gradientUnits="userSpaceOnUse"
       gradientTransform="translate(20.841982,61.553822)" />
    <linearGradient
       xlink:href="#b-2"
       id="linearGradient4428-5"
       gradientUnits="userSpaceOnUse"
       x1="31.586"
       y1="36.345001"
       x2="1.2029999"
       y2="6.723"
       gradientTransform="translate(20.841982,61.553822)" />
    <linearGradient
       xlink:href="#b-2"
       id="linearGradient4189-3-3"
       x1="14.369"
       y1="22.521999"
       x2="26.521999"
       y2="22.521999"
       gradientUnits="userSpaceOnUse"
       gradientTransform="translate(4.376802,4.4211693)" />
    <linearGradient
       xlink:href="#b-2"
       id="linearGradient4428-5-5"
       gradientUnits="userSpaceOnUse"
       x1="31.586"
       y1="36.345001"
       x2="1.2029999"
       y2="6.723"
       gradientTransform="translate(4.376802,4.4211693)" />
    <linearGradient
       inkscape:collect="always"
       xlink:href="#linearGradient14"
       id="linearGradient15"
       x1="-9.6850061"
       y1="45.161198"
       x2="11.98815"
       y2="21.735205"
       gradientUnits="userSpaceOnUse"
       gradientTransform="scale(0.26457813)" />
    <linearGradient
       id="linearGradient14"
       inkscape:collect="always">
      <stop
         style="stop-color:#ffb380;stop-opacity:1"
         offset="0"
         id="stop12" />
      <stop
         style="stop-color:#ffe680;stop-opacity:1"
         offset="1"
         id="stop13" />
    </linearGradient>
    <filter
       id="filter2917-3"
       x="-0.96181147"
       y="-0.66745996"
       width="2.9236229"
       height="2.3349199"
       color-interpolation-filters="sRGB">
      <feGaussianBlur
         stdDeviation="0.2871969"
         id="feGaussianBlur732-5" />
    </filter>
    <filter
       id="filter1"
       x="-0.96181148"
       y="-0.66745996"
       width="2.9236228"
       height="2.3349199"
       color-interpolation-filters="sRGB">
      <feGaussianBlur
         stdDeviation="0.2871969"
         id="feGaussianBlur1" />
    </filter>
    <filter
       id="filter2"
       x="-0.96181148"
       y="-0.66745996"
       width="2.9236228"
       height="2.3349199"
       color-interpolation-filters="sRGB">
      <feGaussianBlur
         stdDeviation="0.2871969"
         id="feGaussianBlur2" />
    </filter>
    <linearGradient
       id="_lgradient_20"
       x1="-0.29991642"
       y1="-0.26140401"
       x2="0.96725708"
       y2="0.86616999"
       gradientTransform="matrix(15.137397,0,0,16.82717,0.89780187,0.05291536)"
       gradientUnits="userSpaceOnUse">
      <stop
         offset="34.94098066785295%"
         stop-opacity="1"
         style="stop-color:rgb(178,229,107)"
         id="stop1" />
      <stop
         offset="53.84922244785295%"
         stop-opacity="1"
         style="stop-color:rgb(194,233,100)"
         id="stop2" />
      <stop
         offset="90.40515655585295%"
         stop-opacity="1"
         style="stop-color:rgb(236,244,81)"
         id="stop3" />
      <stop
         offset="100%"
         stop-opacity="1"
         style="stop-color:rgb(250,247,75)"
         id="stop4" />
    </linearGradient>
    <linearGradient
       inkscape:collect="always"
       xlink:href="#linearGradient7"
       id="linearGradient6"
       x1="-12.120221"
       y1="6.1170783"
       x2="0.0093933269"
       y2="6.1170783"
       gradientUnits="userSpaceOnUse" />
    <linearGradient
       id="paint0_linear_41_132"
       x1="9.04953"
       y1="23"
       x2="9.04953"
       y2="1"
       gradientUnits="userSpaceOnUse"
       gradientTransform="scale(0.26457813)">
      <stop
         stop-color="#FD5900"
         id="stop2-7" />
      <stop
         offset="1"
         stop-color="#FFDE00"
         id="stop3-5" />
    </linearGradient>
    <linearGradient
       id="paint1_linear_41_132"
       x1="19.6236"
       y1="21.062599"
       x2="19.6236"
       y2="2.9365201"
       gradientUnits="userSpaceOnUse"
       gradientTransform="scale(0.26457813)">
      <stop
         stop-color="#FD5900"
         id="stop4-3" />
      <stop
         offset="1"
         stop-color="#FFDE00"
         id="stop5-5" />
    </linearGradient>
    <linearGradient
       id="a"
       x1="15"
       x2="33"
       y1="15"
       y2="33"
       gradientUnits="userSpaceOnUse"
       gradientTransform="matrix(1.0499999,0,0,1.0243901,-61.606779,-28.624307)">
      <stop
         id="stop894"
         stop-color="#fceaca"
         offset="0"
         style="stop-color:#ffffff;stop-opacity:1;" />
      <stop
         id="stop896"
         stop-color="#fdcf7e"
         offset="1"
         style="stop-color:#feebc9;stop-opacity:1;" />
    </linearGradient>
  </defs>
  <sodipodi:namedview
     id="namedview14"
     pagecolor="#000000"
     bordercolor="#666666"
     borderopacity="1.0"
     inkscape:showpageshadow="2"
     inkscape:pageopacity="0.0"
     inkscape:pagecheckerboard="0"
     inkscape:deskcolor="#d1d1d1"
     showgrid="false"
     inkscape:zoom="5.2149125"
     inkscape:cx="23.20269"
     inkscape:cy="53.692176"
     inkscape:window-width="1920"
     inkscape:window-height="996"
     inkscape:window-x="0"
     inkscape:window-y="0"
     inkscape:window-maximized="1"
     inkscape:current-layer="svg12">
    <inkscape:grid
       type="xygrid"
       id="grid244"
       originx="9.7893915"
       originy="-31.749373"
       spacingy="1"
       spacingx="1"
       units="px"
       visible="false" />
  </sodipodi:namedview>
  <rect
     x="-12.025727"
     y="0.1490714"
     width="11.940627"
     height="11.936014"
     rx="1.6121091"
     stroke="url(#paint4_linear_77:23)"
     shape-rendering="crispEdges"
     id="rect5-6-7-3"
     ry="1.7735944"
     transform="matrix(0.00523883,-0.99998628,0.999988,0.00489859,0,0)"
     style="fill:#ffb380;fill-opacity:0.15;stroke:url(#linearGradient6);stroke-width:0.188987;stroke-opacity:1" />
  <rect
     x="-3.7266586"
     y="4.6446943"
     width="7.912631"
     height="7.912384"
     rx="1.612043"
     shape-rendering="crispEdges"
     id="rect5-6-6-6-6"
     style="fill:#80b3ff;fill-opacity:0.122146;stroke:url(#linearGradient15);stroke-width:0.188987;stroke-opacity:1"
     ry="1.7735215"
     transform="matrix(0.72612649,-0.68756114,0.6879775,0.72573202,0,0)" />
  <path
     id="path60-9"
     d="M 5.69223,4.2729243 5.1026093,4.369218 V 5.7173382 H 4.3164481 V 5.9099269 H 5.1026093 V 6.2951063 H 4.3164481 v 0.1925885 h 0.7861612 v 1.348121 L 5.69223,7.7395198 V 6.4876948 L 7.0699316,7.8358158 7.4334555,7.4698222 6.5451849,6.6069348 6.4234994,6.4876948 H 7.8541757 V 6.2951063 H 6.226959 L 6.0292667,6.1017647 6.2250382,5.9099269 H 7.8541757 V 5.7173382 H 6.4215807 L 7.4334555,4.7254337 7.0699316,4.3692181 5.69223,5.7173382 Z"
     style="fill:#e9c6af;stroke-width:0.274397;fill-opacity:1" />
  <path
     id="path62-2"
     d="m 4.1279696,3.254312 c -0.1162523,0.00719 -0.2257225,0.058441 -0.304025,0.1429365 -0.039055,0.042135 -0.070536,0.092625 -0.090983,0.149708 -0.020465,0.057081 -0.027799,0.1154626 -0.02419,0.1722761 0.00386,0.0614 0.020697,0.1210808 0.049141,0.1749104 0.012507,0.023681 0.027401,0.04616 0.044138,0.06733 0.018823,0.019419 0.039404,0.03696 0.061425,0.052669 0.050006,0.03567 0.1071789,0.06144 0.1685187,0.074477 0.056785,0.01207 0.1170591,0.01345 0.1777318,0.0023 C 4.2704201,4.079731 4.3260002,4.056931 4.3744076,4.025465 4.4714826,3.962364 4.5401245,3.8639002 4.5648093,3.7523738 4.5267583,3.7189968 4.4737773,3.7029198 4.419708,3.7128818 L 4.007051,3.7888638 4.1460109,3.4006783 c 0.018225,-0.050878 0.00987,-0.1044226 -0.018038,-0.1463228 z m 3.9146843,0 c -0.027929,0.041898 -0.03626,0.09545 -0.018045,0.1463219 L 8.163574,3.7888193 7.7509158,3.7128363 c -0.054087,-0.00997 -0.1070326,0.0061 -0.1451011,0.039492 0.0247,0.1115266 0.093348,0.2099916 0.1903971,0.2730838 0.048408,0.03147 0.1040078,0.054251 0.164679,0.065446 0.060693,0.01118 0.1209697,0.00982 0.1777318,-0.0023 0.061363,-0.013049 0.1185178,-0.038816 0.1685185,-0.074474 0.022016,-0.015699 0.042592,-0.03325 0.061425,-0.052668 0.016744,-0.02117 0.031632,-0.043649 0.044141,-0.06733 0.028434,-0.053821 0.045242,-0.1135126 0.049138,-0.174909 C 8.4654751,3.6623661 8.4580751,3.6039883 8.4376571,3.546905 8.4172133,3.4898308 8.3857085,3.4393442 8.3466777,3.3972065 8.2683773,3.312754 8.1589073,3.261396 8.0426546,3.254311 Z M 3.3283722,3.9825369 C 3.2200316,4.0244309 3.1320959,4.1064471 3.0842324,4.210484 c -0.023873,0.0519 -0.037683,0.1095278 -0.039149,0.1700191 -0.00142,0.06047 0.00942,0.118205 0.030713,0.1711494 0.023047,0.05722 0.058128,0.1086099 0.102109,0.151212 0.01937,0.01875 0.040738,0.03608 0.06334,0.051149 0.024018,0.01277 0.04897,0.02331 0.074848,0.031584 0.058803,0.018802 0.1214136,0.0257 0.1838733,0.01956 0.057801,-0.00561 0.1154642,-0.02255 0.169668,-0.05154 0.054193,-0.028999 0.099746,-0.067519 0.1358907,-0.112092 0.07244,-0.08936 0.1068348,-0.203544 0.095196,-0.3170936 -0.046721,-0.02024 -0.1021864,-0.0198 -0.1504754,0.00603 l -0.3685163,0.197113 0.00997,-0.4111323 c 0.00121,-0.0539 -0.023573,-0.1024986 -0.063339,-0.1339102 z m 5.5138786,0 c -0.039757,0.03141 -0.064639,0.080001 -0.063339,0.13391 l 0.00998,0.4111317 -0.368514,-0.1971025 c -0.04829,-0.025827 -0.1037575,-0.026267 -0.1504754,-0.00603 -0.011644,0.1135502 0.02273,0.2277328 0.095195,0.317094 0.036122,0.044562 0.081703,0.083081 0.1358904,0.1120934 0.054192,0.028981 0.111866,0.045849 0.1696688,0.051539 0.062463,0.0061 0.1250871,-7.819e-4 0.1838729,-0.01956 0.025891,-0.00821 0.051195,-0.018824 0.075237,-0.031591 0.022585,-0.015077 0.043571,-0.032419 0.062957,-0.051152 0.043983,-0.042608 0.079074,-0.09401 0.1021091,-0.1512268 0.021325,-0.052952 0.032182,-0.110682 0.030714,-0.1711553 C 9.1241325,4.319994 9.1102757,4.2623675 9.0863915,4.2104663 9.0385305,4.1064221 8.9505838,4.0244009 8.8422508,3.9825131 Z M 2.794796,4.9214058 c -0.089818,0.072669 -0.1473782,0.1773104 -0.1600731,0.2907653 -0.00632,0.056589 -0.00152,0.1154357 0.016117,0.1734048 0.017677,0.057967 0.046702,0.109579 0.083684,0.1534672 0.039967,0.047451 0.089451,0.085659 0.1447179,0.1128471 0.024331,0.011969 0.049764,0.021849 0.076007,0.029349 0.026874,0.0049 0.054164,0.00759 0.081378,0.00759 0.06185,5.86e-5 0.1233373,-0.012471 0.1808009,-0.03724 0.053172,-0.022924 0.1027055,-0.056447 0.1451026,-0.1004369 0.042375,-0.04398 0.073741,-0.094497 0.094053,-0.1478259 0.040699,-0.1069287 0.0373,-0.2258045 -0.00961,-0.3302641 -0.050803,-0.00518 -0.1034929,0.01235 -0.1412614,0.05154 L 3.0178228,5.4231896 2.8972886,5.0293617 C 2.8815319,4.9777076 2.8425185,4.9392445 2.794796,4.9214058 Z m 6.5810307,0 c -0.047716,0.017849 -0.08675,0.0563 -0.102492,0.1079568 L 9.1528003,5.4231903 8.8648991,5.1245279 c -0.037762,-0.0392 -0.090457,-0.056638 -0.141262,-0.051538 -0.04692,0.1044593 -0.050318,0.2233347 -0.00962,0.33026 0.020298,0.053336 0.051651,0.1038389 0.094053,0.1478267 0.042391,0.04398 0.091911,0.077519 0.1451005,0.1004317 0.057451,0.024756 0.1189503,0.037298 0.1808019,0.037239 0.027229,-3.78e-5 0.054486,-0.0027 0.081378,-0.00759 0.026236,-0.00759 0.051673,-0.01738 0.076006,-0.029349 0.055272,-0.027181 0.104762,-0.065386 0.1447178,-0.112833 0.036985,-0.043886 0.065997,-0.095496 0.083685,-0.1534646 0.017702,-0.057942 0.02246,-0.1167944 0.016139,-0.1733765 C 9.5232123,5.0987159 9.4656597,4.9940706 9.3758371,4.9214056 Z M 3.2519832,5.9166983 c -0.04995,0.010434 -0.094564,0.042737 -0.1182313,0.091404 L 2.9533336,6.3793639 2.7153356,6.0404512 c -0.031187,-0.04442 -0.080274,-0.069221 -0.1312827,-0.071836 -0.062716,0.09618 -0.08489,0.2132145 -0.061422,0.3249916 0.011703,0.055763 0.034873,0.1103998 0.069863,0.1602415 0.034989,0.049835 0.078499,0.090095 0.1274446,0.120743 0.0529,0.033124 0.112004,0.054721 0.1731239,0.063941 0.026899,0.004 0.054051,0.00561 0.081379,0.0049 0.027104,-0.00331 0.053931,-0.0092 0.079839,-0.017301 0.058873,-0.018549 0.113915,-0.04903 0.1608404,-0.089891 0.043429,-0.037803 0.079778,-0.084561 0.1063338,-0.1391789 0.026557,-0.05462 0.040765,-0.1120386 0.043378,-0.168891 0.00528,-0.113991 -0.035486,-0.2261142 -0.1128524,-0.3114318 z m 5.6666581,0 c -0.077362,0.085311 -0.1180859,0.1974407 -0.1128586,0.3114526 0.00264,0.056856 0.016816,0.1142736 0.043378,0.1688903 0.026554,0.054619 0.06292,0.1013704 0.1063328,0.1391755 0.046938,0.040861 0.1019752,0.071359 0.1608407,0.089891 0.025928,0.00811 0.052716,0.01386 0.079842,0.017301 0.027318,7.809e-4 0.054486,-7.82e-4 0.081377,-0.0049 0.061127,-0.00927 0.1202363,-0.03082 0.1731255,-0.063941 0.048956,-0.030649 0.092821,-0.070909 0.1278271,-0.1207429 0.03498,-0.049838 0.057782,-0.1044863 0.069485,-0.1602415 0.023462,-0.1117757 0.00113,-0.2288108 -0.061427,-0.324989 -0.050999,0.0027 -0.100092,0.027412 -0.131283,0.071842 L 9.2172882,6.3793506 9.0368705,6.0080907 C 9.0132047,5.9594153 8.9685988,5.9271218 8.9186394,5.9166798 Z M 3.3322105,6.7840997 c -0.044209,0.02505 -0.076534,0.069559 -0.083684,0.123001 L 3.1940185,7.3148481 2.8608209,7.0647075 c -0.04367,-0.0328 -0.098076,-0.041926 -0.1474049,-0.028964 -0.029298,0.1104683 -0.013446,0.2288009 0.04414,0.3280021 0.028725,0.04948 0.06769,0.094075 0.1166966,0.1309007 0.049,0.036809 0.1034641,0.06205 0.1596884,0.07636 0.060763,0.015497 0.1236006,0.018371 0.1846408,0.0086 0.026863,-0.0043 0.053335,-0.010921 0.079077,-0.019931 0.024689,-0.01148 0.048174,-0.025403 0.070243,-0.041008 0.050158,-0.035479 0.093012,-0.080852 0.1247559,-0.13391 0.029367,-0.049135 0.049179,-0.1047601 0.0572,-0.1647522 0.008,-0.059966 0.00352,-0.1189093 -0.011903,-0.1737781 C 3.506969,6.9362267 3.4326973,6.8417569 3.3322089,6.7840566 Z m 5.5062022,0 C 8.7379211,6.8417947 8.6636335,6.9362688 8.6326595,7.046277 c -0.015462,0.054876 -0.019939,0.1138086 -0.011907,0.1737797 0.00795,0.059991 0.027832,0.1156254 0.057198,0.1647551 0.03174,0.05306 0.074615,0.098434 0.1247568,0.1339091 0.022069,0.0156 0.045542,0.02953 0.070244,0.041009 0.025728,0.009 0.052218,0.01566 0.079077,0.019931 0.061035,0.00975 0.1238889,0.0068 0.1846384,-0.0086 0.056224,-0.01431 0.1106731,-0.03955 0.1596905,-0.07636 0.048994,-0.036829 0.087977,-0.08143 0.1166952,-0.1309009 0.057589,-0.099204 0.073433,-0.2175363 0.044142,-0.3280052 -0.049334,-0.01295 -0.1037336,-0.00382 -0.1474045,0.028963 l -0.333186,0.2501306 -0.05451,-0.4077466 c -0.00714,-0.053442 -0.039482,-0.097944 -0.083684,-0.123001 z M 3.6788452,7.5796571 c -0.034223,0.03715 -0.051041,0.088782 -0.041076,0.1418091 L 3.7137756,8.1262015 3.3180092,7.9881554 c -0.05183,-0.01807 -0.1064457,-0.00989 -0.1493251,0.017301 0.00677,0.113936 0.058816,0.2215893 0.1447182,0.2986643 0.042838,0.038441 0.094223,0.069241 0.152396,0.08952 0.058155,0.02028 0.1178121,0.02811 0.175812,0.02482 0.062678,-0.00351 0.1234673,-0.020151 0.1784986,-0.04778 0.024228,-0.012169 0.047029,-0.026551 0.068707,-0.04288 0.019887,-0.018374 0.038005,-0.03829 0.054127,-0.05981 0.036621,-0.04884 0.063195,-0.1050825 0.076774,-0.1651301 0.012574,-0.055571 0.01424,-0.1146464 0.00313,-0.1741573 C 4.0116338,7.8692206 3.9886704,7.8149148 3.9567711,7.7673454 3.8927967,7.6719756 3.792568,7.6043173 3.6788506,7.5796471 Z m 4.8129331,0 c -0.1137168,0.02467 -0.2139457,0.092328 -0.27792,0.1876983 -0.031893,0.04757 -0.054475,0.1018774 -0.065636,0.1613672 -0.011161,0.059509 -0.00986,0.1185771 0.00272,0.1741581 0.013558,0.06005 0.040164,0.1162898 0.076774,0.1651299 0.016096,0.02151 0.034241,0.041439 0.054125,0.05981 0.021679,0.016339 0.044481,0.030703 0.068709,0.04288 0.055035,0.027613 0.1158426,0.0442 0.178499,0.04778 0.057995,0.0033 0.1176351,-0.0046 0.175811,-0.02482 0.058159,-0.02028 0.1095388,-0.051089 0.1523828,-0.08952 C 8.9431171,8.2270656 8.9952082,8.1194105 9.001948,8.0054744 8.959058,7.9782744 8.904446,7.9701094 8.8526184,7.9881674 L 8.456839,8.1262068 8.5328443,7.7214712 C 8.5427843,7.6684502 8.5259743,7.6168113 8.4917673,7.579662 Z M 4.2623246,8.2360374 c -0.020836,0.045702 -0.020426,0.1000357 0.0057,0.1474522 L 4.4676704,8.7453429 4.0484865,8.7340669 c -0.054992,-0.00141 -0.1048291,0.02249 -0.1370395,0.061311 0.042359,0.1063282 0.1258606,0.1930594 0.2318558,0.2403595 0.052875,0.02357 0.111409,0.03744 0.173123,0.03911 0.061709,0.00161 0.1209363,-0.009 0.1750455,-0.02972 0.058488,-0.022361 0.1110655,-0.056379 0.1546964,-0.099305 0.019201,-0.01891 0.036756,-0.0396 0.052211,-0.061689 0.013147,-0.0235 0.0241,-0.048029 0.032628,-0.073356 0.019412,-0.057531 0.026377,-0.1189474 0.020344,-0.1801713 -0.0056,-0.056644 -0.022436,-0.113406 -0.051818,-0.1666186 -0.029375,-0.053218 -0.068275,-0.097964 -0.1136166,-0.1335363 -0.09092,-0.071335 -0.2076807,-0.1053908 -0.3236,-0.094413 z m 3.5592217,0 c -0.085942,0.00821 -0.1686718,0.04091 -0.236846,0.094416 -0.045364,0.035561 -0.084237,0.08032 -0.1136245,0.1335326 -0.029408,0.05321 -0.046243,0.109976 -0.051817,0.1666339 -0.00599,0.061229 8.986e-4,0.1226298 0.020344,0.1801761 0.00854,0.02533 0.019499,0.049851 0.032628,0.073356 0.015462,0.022096 0.032996,0.042783 0.052212,0.061689 0.043635,0.04293 0.096229,0.076941 0.1546956,0.099304 0.054131,0.02069 0.1133132,0.031365 0.1750458,0.02972 0.06171,-0.00161 0.1202547,-0.015551 0.173123,-0.03911 C 8.1333159,8.988443 8.2168229,8.901711 8.2591565,8.7953822 8.2269665,8.7565522 8.1774945,8.7325652 8.122502,8.7340682 L 7.7029315,8.7453365 7.9025422,8.3834808 c 0.02618,-0.047416 0.026596,-0.1017497 0.00569,-0.1474518 -0.028988,-0.0027 -0.058114,-0.00279 -0.086754,0 z"
     fill="#000000"
     opacity="0.25"
     style="opacity:1;fill:#e9c6af;fill-opacity:1;stroke-width:0.274397" />
</svg>
