<?xml version="1.0" encoding="UTF-8" standalone="no"?>
<svg
   width="45.999886"
   height="45.999989"
   version="1.1"
   viewBox="0 0 12.170564 12.170591"
   id="svg12"
   sodipodi:docname="libreoffice-impress.svg"
   inkscape:version="1.3.2 (091e20ef0f, 2023-11-25)"
   xmlns:inkscape="http://www.inkscape.org/namespaces/inkscape"
   xmlns:sodipodi="http://sodipodi.sourceforge.net/DTD/sodipodi-0.dtd"
   xmlns:xlink="http://www.w3.org/1999/xlink"
   xmlns="http://www.w3.org/2000/svg"
   xmlns:svg="http://www.w3.org/2000/svg">
  <defs
     id="defs16">
    <linearGradient
       id="linearGradient7"
       inkscape:collect="always">
      <stop
         style="stop-color:#ffb380;stop-opacity:1"
         offset="0"
         id="stop6" />
      <stop
         style="stop-color:#ff9955;stop-opacity:1"
         offset="1"
         id="stop7" />
    </linearGradient>
    <linearGradient
       id="c"
       y1="523.79999"
       x1="403.57001"
       y2="536.79999"
       x2="416.57001"
       gradientUnits="userSpaceOnUse"
       gradientTransform="matrix(0.34526714,0,0,0.34526706,-134.80427,-174.63325)">
      <stop
         stop-color="#292c2f"
         id="stop1568" />
      <stop
         offset="1"
         stop-opacity="0"
         id="stop1570" />
    </linearGradient>
    <linearGradient
       xlink:href="#b-2"
       id="linearGradient4189"
       x1="14.369"
       y1="22.521999"
       x2="26.521999"
       y2="22.521999"
       gradientUnits="userSpaceOnUse" />
    <linearGradient
       x1="36"
       gradientUnits="userSpaceOnUse"
       x2="14"
       y2="12"
       y1="44"
       id="b-2">
      <stop
         style="stop-color:#bfc9c9;stop-opacity:1"
         stop-color="#536161"
         id="stop1579" />
      <stop
         style="stop-color:#fbfbfb;stop-opacity:1"
         stop-color="#f4f5f5"
         offset="1"
         id="stop1581" />
    </linearGradient>
    <linearGradient
       xlink:href="#b-2"
       id="linearGradient4428"
       gradientUnits="userSpaceOnUse"
       x1="31.586"
       y1="36.345001"
       x2="1.2029999"
       y2="6.723" />
    <linearGradient
       xlink:href="#b-2"
       id="linearGradient4189-3"
       x1="14.369"
       y1="22.521999"
       x2="26.521999"
       y2="22.521999"
       gradientUnits="userSpaceOnUse"
       gradientTransform="translate(20.841982,61.553822)" />
    <linearGradient
       xlink:href="#b-2"
       id="linearGradient4428-5"
       gradientUnits="userSpaceOnUse"
       x1="31.586"
       y1="36.345001"
       x2="1.2029999"
       y2="6.723"
       gradientTransform="translate(20.841982,61.553822)" />
    <linearGradient
       xlink:href="#b-2"
       id="linearGradient4189-3-3"
       x1="14.369"
       y1="22.521999"
       x2="26.521999"
       y2="22.521999"
       gradientUnits="userSpaceOnUse"
       gradientTransform="translate(4.376802,4.4211693)" />
    <linearGradient
       xlink:href="#b-2"
       id="linearGradient4428-5-5"
       gradientUnits="userSpaceOnUse"
       x1="31.586"
       y1="36.345001"
       x2="1.2029999"
       y2="6.723"
       gradientTransform="translate(4.376802,4.4211693)" />
    <linearGradient
       inkscape:collect="always"
       xlink:href="#linearGradient14"
       id="linearGradient15"
       x1="-9.6850061"
       y1="45.161198"
       x2="11.98815"
       y2="21.735205"
       gradientUnits="userSpaceOnUse"
       gradientTransform="scale(0.26457813)" />
    <linearGradient
       id="linearGradient14"
       inkscape:collect="always">
      <stop
         style="stop-color:#ffb380;stop-opacity:1"
         offset="0"
         id="stop12" />
      <stop
         style="stop-color:#ffe680;stop-opacity:1"
         offset="1"
         id="stop13" />
    </linearGradient>
    <filter
       id="filter2917-3"
       x="-0.96181147"
       y="-0.66745996"
       width="2.9236229"
       height="2.3349199"
       color-interpolation-filters="sRGB">
      <feGaussianBlur
         stdDeviation="0.2871969"
         id="feGaussianBlur732-5" />
    </filter>
    <filter
       id="filter1"
       x="-0.96181148"
       y="-0.66745996"
       width="2.9236228"
       height="2.3349199"
       color-interpolation-filters="sRGB">
      <feGaussianBlur
         stdDeviation="0.2871969"
         id="feGaussianBlur1" />
    </filter>
    <filter
       id="filter2"
       x="-0.96181148"
       y="-0.66745996"
       width="2.9236228"
       height="2.3349199"
       color-interpolation-filters="sRGB">
      <feGaussianBlur
         stdDeviation="0.2871969"
         id="feGaussianBlur2" />
    </filter>
    <linearGradient
       id="_lgradient_20"
       x1="-0.29991642"
       y1="-0.26140401"
       x2="0.96725708"
       y2="0.86616999"
       gradientTransform="matrix(15.137397,0,0,16.82717,0.89780187,0.05291536)"
       gradientUnits="userSpaceOnUse">
      <stop
         offset="34.94098066785295%"
         stop-opacity="1"
         style="stop-color:rgb(178,229,107)"
         id="stop1" />
      <stop
         offset="53.84922244785295%"
         stop-opacity="1"
         style="stop-color:rgb(194,233,100)"
         id="stop2" />
      <stop
         offset="90.40515655585295%"
         stop-opacity="1"
         style="stop-color:rgb(236,244,81)"
         id="stop3" />
      <stop
         offset="100%"
         stop-opacity="1"
         style="stop-color:rgb(250,247,75)"
         id="stop4" />
    </linearGradient>
    <linearGradient
       inkscape:collect="always"
       xlink:href="#linearGradient7"
       id="linearGradient6"
       x1="-12.120221"
       y1="6.1170783"
       x2="0.0093933269"
       y2="6.1170783"
       gradientUnits="userSpaceOnUse" />
    <linearGradient
       id="paint0_linear_41_132"
       x1="9.04953"
       y1="23"
       x2="9.04953"
       y2="1"
       gradientUnits="userSpaceOnUse"
       gradientTransform="scale(0.26457813)">
      <stop
         stop-color="#FD5900"
         id="stop2-7" />
      <stop
         offset="1"
         stop-color="#FFDE00"
         id="stop3-5" />
    </linearGradient>
    <linearGradient
       id="paint1_linear_41_132"
       x1="19.6236"
       y1="21.062599"
       x2="19.6236"
       y2="2.9365201"
       gradientUnits="userSpaceOnUse"
       gradientTransform="scale(0.26457813)">
      <stop
         stop-color="#FD5900"
         id="stop4-3" />
      <stop
         offset="1"
         stop-color="#FFDE00"
         id="stop5-5" />
    </linearGradient>
    <linearGradient
       inkscape:collect="always"
       xlink:href="#linearGradient7"
       id="linearGradient8"
       x1="4.5447803"
       y1="8.9264584"
       x2="5.5245552"
       y2="3.4978223"
       gradientUnits="userSpaceOnUse" />
    <linearGradient
       inkscape:collect="always"
       xlink:href="#linearGradient7"
       id="linearGradient10"
       x1="8.4030561"
       y1="8.5204554"
       x2="8.0824289"
       y2="3.903578"
       gradientUnits="userSpaceOnUse" />
  </defs>
  <sodipodi:namedview
     id="namedview14"
     pagecolor="#000000"
     bordercolor="#666666"
     borderopacity="1.0"
     inkscape:showpageshadow="2"
     inkscape:pageopacity="0.0"
     inkscape:pagecheckerboard="0"
     inkscape:deskcolor="#d1d1d1"
     showgrid="false"
     inkscape:zoom="5.2149125"
     inkscape:cx="23.20269"
     inkscape:cy="53.692176"
     inkscape:window-width="1920"
     inkscape:window-height="996"
     inkscape:window-x="0"
     inkscape:window-y="0"
     inkscape:window-maximized="1"
     inkscape:current-layer="svg12">
    <inkscape:grid
       type="xygrid"
       id="grid244"
       originx="9.7893915"
       originy="-31.749373"
       spacingy="1"
       spacingx="1"
       units="px"
       visible="false" />
  </sodipodi:namedview>
  <rect
     x="-12.025727"
     y="0.1490714"
     width="11.940627"
     height="11.936014"
     rx="1.6121091"
     stroke="url(#paint4_linear_77:23)"
     shape-rendering="crispEdges"
     id="rect5-6-7-3"
     ry="1.7735944"
     transform="matrix(0.00523883,-0.99998628,0.999988,0.00489859,0,0)"
     style="fill:#ffb380;fill-opacity:0.15;stroke:url(#linearGradient6);stroke-width:0.188987;stroke-opacity:1" />
  <rect
     x="-3.7266586"
     y="4.6446943"
     width="7.912631"
     height="7.912384"
     rx="1.612043"
     shape-rendering="crispEdges"
     id="rect5-6-6-6-6"
     style="fill:#80b3ff;fill-opacity:0.122146;stroke:url(#linearGradient15);stroke-width:0.188987;stroke-opacity:1"
     ry="1.7735215"
     transform="matrix(0.72612649,-0.68756114,0.6879775,0.72573202,0,0)" />
  <path
     fill-rule="evenodd"
     clip-rule="evenodd"
     d="m 7.0833684,3.1762867 -3.6581496,0.478511 c -0.069369,0.009 -0.133144,0.04071 -0.1790682,0.08916 -0.045929,0.04845 -0.071213,0.110454 -0.071213,0.174606 v 4.333496 c 0,0.06416 0.025286,0.126151 0.071213,0.174622 0.045929,0.04844 0.1094057,0.08011 0.1787793,0.08916 l 3.6587275,0.478489 c 0.020611,0.0027 0.041613,0.0013 0.061587,-0.0041 0.020001,-0.0054 0.038468,-0.01468 0.054182,-0.02717 0.015716,-0.01252 0.028327,-0.02797 0.036989,-0.04532 0.00865,-0.01733 0.013092,-0.03619 0.013127,-0.05524 v -5.554296 c 0,-0.0191 -0.00447,-0.03797 -0.013153,-0.05534 -0.00868,-0.01737 -0.021302,-0.03283 -0.037043,-0.04534 -0.015785,-0.01251 -0.034279,-0.02177 -0.054306,-0.02715 -0.020001,-0.0054 -0.041037,-0.0068 -0.061667,-0.0041 z m -2.4056416,3.27942 c -0.063839,0 -0.1155986,0.04739 -0.1155986,0.105831 v 0.740819 c 0,0.05844 -0.051752,0.105831 -0.1155993,0.105831 H 4.157532 c -0.063839,0 -0.115599,-0.04739 -0.115599,-0.105831 v -2.434119 c 0,-0.05845 0.051752,-0.105831 0.115599,-0.105831 h 1.127089 c 0.4421657,0 0.6213439,0.07673 0.8091921,0.232829 0.1878483,0.164038 0.2600975,0.365117 0.2600975,0.621758 0,0.26987 -0.075143,0.476241 -0.2600975,0.621759 -0.1849582,0.142872 -0.3756963,0.216954 -0.8091921,0.216954 z M 4.5621253,5.9794657 c 0,0.05845 0.05175,0.105832 0.1155987,0.105832 h 0.5837744 c 0.1965179,0 0.3063398,-0.05027 0.3988191,-0.13229 0.092474,-0.08202 0.1444985,-0.185204 0.1444985,-0.333368 0,-0.137575 -0.049124,-0.235467 -0.1444985,-0.328072 -0.095369,-0.0926 -0.2427607,-0.158746 -0.433499,-0.158746 H 4.677724 c -0.063842,0 -0.1155987,0.04738 -0.1155987,0.105831 z"
     fill="url(#paint0_linear_41_132)"
     id="path1"
     style="fill:url(#linearGradient8);stroke-width:0.26458;fill-opacity:1" />
  <path
     opacity="0.4"
     d="M 8.7046429,3.6872987 H 7.5405621 v 4.795764 h 1.1640808 c 0.077193,0 0.1512032,-0.02807 0.2057946,-0.07805 0.054562,-0.04995 0.085219,-0.117711 0.085219,-0.18838 v -4.262901 c 0,-0.07066 -0.030657,-0.13843 -0.085219,-0.188396 -0.054589,-0.04996 -0.1286037,-0.07804 -0.2057946,-0.07804 z"
     fill="url(#paint1_linear_41_132)"
     id="path2"
     style="fill:url(#linearGradient10);stroke-width:0.26458;fill-opacity:1;opacity:0.63907285" />
</svg>
