<?xml version="1.0" encoding="UTF-8" standalone="no"?>
<svg
   width="45.999886"
   height="45.999989"
   version="1.1"
   viewBox="0 0 12.170564 12.170591"
   id="svg12"
   sodipodi:docname="libreoffice-calc.svg"
   inkscape:version="1.3.2 (091e20ef0f, 2023-11-25)"
   xmlns:inkscape="http://www.inkscape.org/namespaces/inkscape"
   xmlns:sodipodi="http://sodipodi.sourceforge.net/DTD/sodipodi-0.dtd"
   xmlns:xlink="http://www.w3.org/1999/xlink"
   xmlns="http://www.w3.org/2000/svg"
   xmlns:svg="http://www.w3.org/2000/svg">
  <defs
     id="defs16">
    <linearGradient
       id="c"
       y1="523.79999"
       x1="403.57001"
       y2="536.79999"
       x2="416.57001"
       gradientUnits="userSpaceOnUse"
       gradientTransform="matrix(0.34526714,0,0,0.34526706,-134.80427,-174.63325)">
      <stop
         stop-color="#292c2f"
         id="stop1568" />
      <stop
         offset="1"
         stop-opacity="0"
         id="stop1570" />
    </linearGradient>
    <linearGradient
       xlink:href="#b-2"
       id="linearGradient4189"
       x1="14.369"
       y1="22.521999"
       x2="26.521999"
       y2="22.521999"
       gradientUnits="userSpaceOnUse" />
    <linearGradient
       x1="36"
       gradientUnits="userSpaceOnUse"
       x2="14"
       y2="12"
       y1="44"
       id="b-2">
      <stop
         style="stop-color:#bfc9c9;stop-opacity:1"
         stop-color="#536161"
         id="stop1579" />
      <stop
         style="stop-color:#fbfbfb;stop-opacity:1"
         stop-color="#f4f5f5"
         offset="1"
         id="stop1581" />
    </linearGradient>
    <linearGradient
       xlink:href="#b-2"
       id="linearGradient4428"
       gradientUnits="userSpaceOnUse"
       x1="31.586"
       y1="36.345001"
       x2="1.2029999"
       y2="6.723" />
    <linearGradient
       xlink:href="#b-2"
       id="linearGradient4189-3"
       x1="14.369"
       y1="22.521999"
       x2="26.521999"
       y2="22.521999"
       gradientUnits="userSpaceOnUse"
       gradientTransform="translate(20.841982,61.553822)" />
    <linearGradient
       xlink:href="#b-2"
       id="linearGradient4428-5"
       gradientUnits="userSpaceOnUse"
       x1="31.586"
       y1="36.345001"
       x2="1.2029999"
       y2="6.723"
       gradientTransform="translate(20.841982,61.553822)" />
    <linearGradient
       xlink:href="#b-2"
       id="linearGradient4189-3-3"
       x1="14.369"
       y1="22.521999"
       x2="26.521999"
       y2="22.521999"
       gradientUnits="userSpaceOnUse"
       gradientTransform="translate(4.376802,4.4211693)" />
    <linearGradient
       xlink:href="#b-2"
       id="linearGradient4428-5-5"
       gradientUnits="userSpaceOnUse"
       x1="31.586"
       y1="36.345001"
       x2="1.2029999"
       y2="6.723"
       gradientTransform="translate(4.376802,4.4211693)" />
    <linearGradient
       inkscape:collect="always"
       xlink:href="#linearGradient11"
       id="linearGradient13"
       x1="-43.819283"
       y1="23.120178"
       x2="-1.9547797"
       y2="23.120178"
       gradientUnits="userSpaceOnUse"
       gradientTransform="scale(0.26457813)" />
    <linearGradient
       id="linearGradient11"
       inkscape:collect="always">
      <stop
         style="stop-color:#00ba4b;stop-opacity:0.7044335;"
         offset="0"
         id="stop4-3" />
      <stop
         style="stop-color:#00aa44;stop-opacity:1"
         offset="1"
         id="stop11" />
    </linearGradient>
    <filter
       id="filter2917-3"
       x="-0.96181147"
       y="-0.66745996"
       width="2.9236229"
       height="2.3349199"
       color-interpolation-filters="sRGB">
      <feGaussianBlur
         stdDeviation="0.2871969"
         id="feGaussianBlur732-5" />
    </filter>
    <filter
       id="filter1"
       x="-0.96181148"
       y="-0.66745996"
       width="2.9236228"
       height="2.3349199"
       color-interpolation-filters="sRGB">
      <feGaussianBlur
         stdDeviation="0.2871969"
         id="feGaussianBlur1" />
    </filter>
    <filter
       id="filter2"
       x="-0.96181148"
       y="-0.66745996"
       width="2.9236228"
       height="2.3349199"
       color-interpolation-filters="sRGB">
      <feGaussianBlur
         stdDeviation="0.2871969"
         id="feGaussianBlur2" />
    </filter>
    <linearGradient
       id="paint0_linear_41_119"
       x1="18.44566"
       y1="34.313705"
       x2="23.814877"
       y2="13.464253"
       gradientUnits="userSpaceOnUse"
       gradientTransform="scale(0.26457817)">
      <stop
         stop-color="#02AA93"
         id="stop2" />
      <stop
         offset="1"
         stop-color="#67FF80"
         id="stop3" />
    </linearGradient>
    <linearGradient
       id="paint1_linear_41_119"
       x1="19.6236"
       y1="21.062599"
       x2="19.6236"
       y2="2.9365201"
       gradientUnits="userSpaceOnUse"
       gradientTransform="scale(0.26457817)">
      <stop
         stop-color="#02AA93"
         id="stop4" />
      <stop
         offset="1"
         stop-color="#67FF80"
         id="stop5" />
    </linearGradient>
    <linearGradient
       inkscape:collect="always"
       xlink:href="#paint1_linear_41_119"
       id="linearGradient6"
       x1="-3.8211522"
       y1="8.6008863"
       x2="4.2804661"
       y2="8.6008863"
       gradientUnits="userSpaceOnUse" />
    <linearGradient
       inkscape:collect="always"
       xlink:href="#paint1_linear_41_119"
       id="linearGradient7"
       gradientUnits="userSpaceOnUse"
       gradientTransform="scale(0.26457817)"
       x1="30.74555"
       y1="32.759823"
       x2="31.320822"
       y2="14.441985" />
  </defs>
  <sodipodi:namedview
     id="namedview14"
     pagecolor="#000000"
     bordercolor="#666666"
     borderopacity="1.0"
     inkscape:showpageshadow="2"
     inkscape:pageopacity="0.0"
     inkscape:pagecheckerboard="0"
     inkscape:deskcolor="#d1d1d1"
     showgrid="false"
     inkscape:zoom="5.2149125"
     inkscape:cx="23.20269"
     inkscape:cy="53.692176"
     inkscape:window-width="1920"
     inkscape:window-height="996"
     inkscape:window-x="0"
     inkscape:window-y="0"
     inkscape:window-maximized="1"
     inkscape:current-layer="svg12">
    <inkscape:grid
       type="xygrid"
       id="grid244"
       originx="9.7893915"
       originy="-31.749373"
       spacingy="1"
       spacingx="1"
       units="px"
       visible="false" />
  </sodipodi:namedview>
  <rect
     x="-12.025727"
     y="0.1490714"
     width="11.940627"
     height="11.936014"
     rx="1.6121091"
     stroke="url(#paint4_linear_77:23)"
     shape-rendering="crispEdges"
     id="rect5-6-7-3"
     ry="1.7735944"
     transform="matrix(0.00523883,-0.99998628,0.999988,0.00489859,0,0)"
     style="fill:#80b3ff;fill-opacity:0.15;stroke:url(#linearGradient13);stroke-width:0.188987;stroke-opacity:1" />
  <rect
     x="-3.7266586"
     y="4.6446943"
     width="7.912631"
     height="7.912384"
     rx="1.612043"
     shape-rendering="crispEdges"
     id="rect5-6-6-6-6"
     style="fill:#80b3ff;fill-opacity:0.122146;stroke:url(#linearGradient6);stroke-width:0.188987;stroke-opacity:1"
     ry="1.7735215"
     transform="matrix(0.72612649,-0.68756114,0.6879775,0.72573202,0,0)" />
  <path
     d="m 3.4252194,3.6547857 3.6581483,-0.478511 c 0.020639,-0.0027 0.041667,-0.0013 0.061668,0.0041 0.020027,0.0054 0.038521,0.01464 0.054306,0.02715 0.015754,0.01251 0.02838,0.02797 0.037045,0.04534 0.00868,0.01737 0.013154,0.03624 0.013154,0.05534 v 5.554296 c -2.9e-5,0.01905 -0.00447,0.03791 -0.013126,0.05524 -0.00868,0.01736 -0.021274,0.03281 -0.036989,0.04532 -0.015717,0.01249 -0.034183,0.02175 -0.054183,0.02717 -0.019974,0.0054 -0.040977,0.0068 -0.061587,0.0041 L 3.4249289,8.5158327 c -0.06937,-0.009 -0.132855,-0.04072 -0.1787793,-0.08916 -0.045929,-0.04847 -0.071212,-0.110462 -0.071212,-0.174622 v -4.333496 c 0,-0.06415 0.025286,-0.126151 0.071212,-0.174606 0.045928,-0.04846 0.1096947,-0.08011 0.1790682,-0.08916 z m 2.1827895,2.491088 c -0.027863,-0.03646 -0.027863,-0.08496 0,-0.121388 l 0.6411399,-0.838517 c 0.053642,-0.07014 -0.00125,-0.166523 -0.094699,-0.166523 H 5.738203 c -0.037711,0 -0.073057,0.01685 -0.094704,0.04515 l -0.3364095,0.440036 c -0.046016,0.06021 -0.1433917,0.06021 -0.1894115,0 L 4.781262,5.0645927 C 4.759634,5.0363027 4.724278,5.0194427 4.686557,5.0194427 H 4.2703226 c -0.093521,0 -0.1483336,0.09638 -0.094701,0.166523 l 0.6411321,0.83852 c 0.027866,0.03643 0.027866,0.08493 0,0.121388 l -0.6411323,0.838501 c -0.053633,0.07014 0.00125,0.166525 0.094701,0.166525 h 0.4162338 c 0.037722,0 0.073073,-0.01685 0.094708,-0.04516 l 0.3364129,-0.44002 c 0.046016,-0.06019 0.1433917,-0.06019 0.1894114,0 l 0.3364101,0.44002 c 0.021641,0.02831 0.05699,0.04516 0.094701,0.04516 H 6.154441 c 0.093518,0 0.148342,-0.09638 0.094704,-0.166525 z"
     fill="url(#paint0_linear_41_119)"
     id="path1"
     style="fill:url(#paint0_linear_41_119);stroke-width:0.264579" />
  <path
     opacity="0.4"
     d="M 8.7046413,3.6872867 H 7.540561 v 4.795764 h 1.1640803 c 0.077194,0 0.1512033,-0.02807 0.2057948,-0.07805 0.054562,-0.04995 0.08522,-0.117711 0.08522,-0.18838 v -4.262901 c 0,-0.07066 -0.030658,-0.13843 -0.08522,-0.188396 -0.054589,-0.04996 -0.1286037,-0.07804 -0.2057948,-0.07804 z"
     fill="url(#paint1_linear_41_119)"
     id="path2"
     style="fill:url(#linearGradient7);stroke-width:0.264579;opacity:0.68653422" />
</svg>
