<?xml version="1.0" encoding="UTF-8" standalone="no"?>
<svg
   viewBox="0 0 22 22"
   version="1.1"
   id="svg1"
   sodipodi:docname="configure.svg"
   width="22"
   height="22"
   inkscape:version="1.3.2 (091e20ef0f, 2023-11-25)"
   xmlns:inkscape="http://www.inkscape.org/namespaces/inkscape"
   xmlns:sodipodi="http://sodipodi.sourceforge.net/DTD/sodipodi-0.dtd"
   xmlns="http://www.w3.org/2000/svg"
   xmlns:svg="http://www.w3.org/2000/svg">
  <sodipodi:namedview
     id="namedview1"
     pagecolor="#ffffff"
     bordercolor="#999999"
     borderopacity="1"
     inkscape:showpageshadow="2"
     inkscape:pageopacity="0"
     inkscape:pagecheckerboard="0"
     inkscape:deskcolor="#d1d1d1"
     inkscape:zoom="17.318182"
     inkscape:cx="10.913386"
     inkscape:cy="6.6404199"
     inkscape:window-width="1920"
     inkscape:window-height="994"
     inkscape:window-x="0"
     inkscape:window-y="0"
     inkscape:window-maximized="1"
     inkscape:current-layer="svg1" />
  <defs
     id="defs3051">
    <style
       type="text/css"
       id="current-color-scheme">
      .ColorScheme-Text {
        color:#d8d8d8;
      }
      </style>
  </defs>
  <g
     id="22-22-configure">
    <rect
       id="rect5384"
       fill="none"
       height="22"
       width="22"
       y="0"
       x="0" />
    <path
       id="path1458-8"
       d="M 11.000001,8.5 C 9.6266923,8.5 8.5,9.6266907 8.5,11.000001 8.5,12.373314 9.6266923,13.5 11.000001,13.5 12.373308,13.5 13.5,12.373314 13.5,11.000001 13.5,9.6266907 12.373308,8.5 11.000001,8.5 Z m 0,1.2500007 -10e-7,1e-6 v 0 0 z"
       style="color:#333333;fill:#d3dae3;fill-opacity:1;stroke-width:0.625011"
       sodipodi:nodetypes="sssssccccc" />
    <path
       d="m 10.50347,3.0027372 c -0.5991801,-1.1e-5 -1.1732383,0.230478 -1.5959343,0.639056 -0.422693,0.408537 -0.659844,0.963059 -0.656974,1.539427 v -0.01414 c -0.0068,0.400774 -0.3294079,0.706911 -0.7455499,0.708647 -0.118576,-0.0025 -0.234297,-0.03252 -0.336614,-0.09085 l -0.0065,-0.0031 -0.0046,-0.0032 c -1.07387,-0.591783 -2.465044,-0.230417 -3.082816,0.800959 l -0.521155,0.823674 -0.0048,0.008 c -0.617037,1.030114 -0.246019,2.367446 0.822325,2.9652248 h 0.0021 v 0.002 c 0.232648,0.129188 0.374985,0.364932 0.374985,0.623434 0,0.258383 -0.14234,0.494244 -0.374985,0.623435 -1.068638,0.594653 -1.440801,1.930941 -0.823809,2.959549 l 0.0021,0.002 0.488675,0.812311 c 0.291384,0.505782 0.781451,0.87866 1.359708,1.036695 0.578265,0.158151 1.198544,0.08823 1.722903,-0.194555 l 0.0065,-0.0032 0.0065,-0.0032 c 0.169328,-0.09507 0.369976,-0.121209 0.559534,-0.07248 0.189458,0.04876 0.349932,0.168515 0.447335,0.332316 l 0.0031,0.0046 0.0032,0.0065 c 0.06155,0.09966 0.09469,0.212118 0.09597,0.328055 v -0.008 C 8.2450217,18.018018 9.2658127,19 10.505306,19 h 0.986203 c 1.235463,1.08e-4 2.25589,-0.975962 2.261763,-2.164278 v -0.0032 -0.0046 c -0.0012,-0.190927 0.07687,-0.372189 0.217023,-0.506986 0.138928,-0.133637 0.32611,-0.207002 0.522622,-0.207338 0.124034,0.0057 0.244947,0.03729 0.352849,0.09659 l -0.002,-0.002 c 1.070226,0.593117 2.45912,0.236657 3.08114,-0.789588 l 0.516719,-0.827938 0.0032,-0.0046 c 0.301701,-0.498181 0.383353,-1.091536 0.228832,-1.648769 h 0.002 c -0.15444,-0.55711 -0.534593,-1.033123 -1.054071,-1.320631 -0.171308,-0.09481 -0.295959,-0.250686 -0.346941,-0.43456 -0.05097,-0.183641 -0.02414,-0.378292 0.07527,-0.542489 l 0.002,-0.0032 0.002,-0.0031 c 0.06367,-0.106867 0.155977,-0.194319 0.267222,-0.255622 l 0.0032,-0.002 0.0031,-0.0032 c 1.062017,-0.5975348 1.432246,-1.9259468 0.822328,-2.9538668 l 0.09892,0.360712 v -0.2015 l -0.100183,-0.169085 -0.490145,-0.816577 c -0.617782,-1.031333 -2.008951,-1.392721 -3.082615,-0.800951 l -0.0032,0.0019 -0.0046,0.0032 c -0.170003,0.09627 -0.371696,0.122947 -0.562613,0.07529 -0.190932,-0.04762 -0.353454,-0.165762 -0.45327,-0.329475 l -0.002,-0.002 -0.002,-0.002 c -0.06155,-0.09966 -0.09318,-0.2135 -0.09453,-0.329473 l -0.002,0.02834 c 0.01759,-0.587186 -0.212104,-1.156613 -0.637723,-1.577768 -0.425678,-0.421438 -1.011961,-0.659483 -1.622564,-0.659237 z m 0,1.45421 h 0.987673 c 0.202618,-8.5e-5 0.396109,0.07897 0.537393,0.218698 0.141271,0.139794 0.216954,0.327803 0.211117,0.522608 v 0.01414 0.01415 c 0.0044,0.371306 0.110278,0.734224 0.307076,1.053731 2.54e-4,4e-4 -2.39e-4,0.0014 0,0.002 0.302751,0.494385 0.796953,0.854108 1.374482,0.998353 0.578898,0.144574 1.195782,0.06192 1.711084,-0.230056 l -0.0083,0.0046 c 0.365915,-0.201683 0.811081,-0.0859 1.021631,0.265568 l 0.388279,0.646156 v 0.008 l 0.09892,0.167573 c 0.207715,0.350065 0.08999,0.774971 -0.271648,0.978468 l 0.0065,-0.0032 c -0.343058,0.189038 -0.626536,0.463969 -0.823798,0.793851 -0.300538,0.4977058 -0.384553,1.0911328 -0.230311,1.6473518 0.154452,0.557078 0.532936,1.033157 1.052637,1.320718 0.17137,0.09487 0.295997,0.249384 0.346947,0.433139 v 0.002 c 0.05086,0.183088 0.02351,0.376938 -0.07527,0.541067 -2.54e-4,4.21e-4 2.58e-4,0.0014 0,0.002 l -0.516718,0.826516 -0.0031,0.0046 c -0.211739,0.35014 -0.65521,0.464977 -1.020154,0.262724 l -0.002,-0.002 h -0.002 c -0.327772,-0.180364 -0.695712,-0.280096 -1.07323,-0.289864 h -0.0083 -0.0083 c -0.600949,-0.0032 -1.178214,0.22589 -1.603314,0.634799 -0.424912,0.40885 -0.66265,0.964239 -0.659926,1.542259 v -0.008 c -0.0024,0.40483 -0.327631,0.717231 -0.748505,0.717194 h -0.9876 c -0.422508,0 -0.7485083,-0.313681 -0.7485083,-0.720007 v -0.0046 -0.0032 c -0.0044,-0.369429 -0.110783,-0.731228 -0.305608,-1.049464 -0.297586,-0.497634 -0.787515,-0.862744 -1.3641429,-1.01114 -0.578286,-0.148824 -1.195363,-0.07016 -1.712562,0.220121 l 0.01186,-0.0065 c -0.174024,0.09381 -0.379496,0.117794 -0.571346,0.06527 v -0.002 c -0.191822,-0.05239 -0.353558,-0.174411 -0.45025,-0.342253 l -0.0032,-0.0079 -0.500492,-0.827883 v -0.002 c -0.207896,-0.348149 -0.08977,-0.771634 0.271648,-0.972753 0.697865,-0.38795 1.129404,-1.107786 1.129404,-1.883092 0,-0.774653 -0.431166,-1.4934748 -1.127927,-1.8816668 -0.36354,-0.20342 -0.482264,-0.630575 -0.273125,-0.98131 2.69e-4,-4.46e-4 -2.66e-4,-0.0013 0,-0.002 l 0.52115,-0.823673 0.0047,-0.008 c 0.210526,-0.351472 0.655761,-0.467228 1.021633,-0.265566 l -0.0104,-0.0065 c 0.332382,0.189757 0.71157,0.29304 1.098405,0.296808 h 0.0031 0.0046 c 1.2272929,1.21e-4 2.2426809,-0.963938 2.2602879,-2.144389 v -0.0065 -0.0079 c -0.0013,-0.189997 0.07614,-0.372224 0.2154842,-0.506929 0.1393281,-0.134679 0.3280481,-0.210186 0.5255771,-0.210183 z"
       id="path1715-9"
       style="color:#333333;fill:#d3dae3;fill-opacity:1;stroke-width:0.741367" />
  </g>
</svg>
