<?xml version="1.0" encoding="UTF-8" standalone="no"?>
<svg
   width="45.999886"
   height="45.999989"
   version="1.1"
   viewBox="0 0 12.170564 12.170591"
   id="svg12"
   sodipodi:docname="claws-mail.svg"
   inkscape:version="1.3.2 (091e20ef0f, 2023-11-25)"
   xmlns:inkscape="http://www.inkscape.org/namespaces/inkscape"
   xmlns:sodipodi="http://sodipodi.sourceforge.net/DTD/sodipodi-0.dtd"
   xmlns:xlink="http://www.w3.org/1999/xlink"
   xmlns="http://www.w3.org/2000/svg"
   xmlns:svg="http://www.w3.org/2000/svg">
  <defs
     id="defs16">
    <linearGradient
       id="linearGradient38"
       y1="511.79999"
       x1="414.57001"
       y2="519.79999"
       x2="422.57001"
       gradientUnits="userSpaceOnUse">
      <stop
         stop-color="#292c2f"
         id="stop37"
         offset="0"
         style="stop-color:#e3e5e7;stop-opacity:1;" />
      <stop
         offset="1"
         stop-opacity="0"
         id="stop38" />
    </linearGradient>
    <linearGradient
       id="linearGradient36">
      <stop
         offset="0"
         style="stop-color:#05ff05;stop-opacity:1;"
         id="stop35" />
      <stop
         offset="1"
         style="stop-color:#006400;stop-opacity:1"
         id="stop36" />
    </linearGradient>
    <linearGradient
       id="linearGradient33"
       inkscape:collect="always">
      <stop
         style="stop-color:#00b700;stop-opacity:1;"
         offset="0"
         id="stop33" />
      <stop
         style="stop-color:#00b700;stop-opacity:0;"
         offset="1"
         id="stop34" />
    </linearGradient>
    <linearGradient
       id="linearGradient31"
       inkscape:collect="always">
      <stop
         style="stop-color:#00b700;stop-opacity:1;"
         offset="0"
         id="stop31" />
      <stop
         style="stop-color:#00b700;stop-opacity:0;"
         offset="1"
         id="stop32" />
    </linearGradient>
    <linearGradient
       id="linearGradient29"
       inkscape:collect="always">
      <stop
         style="stop-color:#00ab00;stop-opacity:1;"
         offset="0"
         id="stop29" />
      <stop
         style="stop-color:#00ab00;stop-opacity:0;"
         offset="1"
         id="stop30" />
    </linearGradient>
    <linearGradient
       id="linearGradient27"
       inkscape:collect="always">
      <stop
         style="stop-color:#40d800;stop-opacity:1;"
         offset="0"
         id="stop27" />
      <stop
         style="stop-color:#40d800;stop-opacity:0;"
         offset="1"
         id="stop28" />
    </linearGradient>
    <linearGradient
       id="linearGradient25"
       inkscape:collect="always">
      <stop
         style="stop-color:#006400;stop-opacity:1;"
         offset="0"
         id="stop25" />
      <stop
         style="stop-color:#006400;stop-opacity:0;"
         offset="1"
         id="stop26" />
    </linearGradient>
    <linearGradient
       id="linearGradient23"
       inkscape:collect="always">
      <stop
         style="stop-color:#006400;stop-opacity:1;"
         offset="0"
         id="stop23" />
      <stop
         style="stop-color:#006400;stop-opacity:0;"
         offset="1"
         id="stop24" />
    </linearGradient>
    <linearGradient
       id="linearGradient21"
       inkscape:collect="always">
      <stop
         style="stop-color:#006400;stop-opacity:1;"
         offset="0"
         id="stop21" />
      <stop
         style="stop-color:#006400;stop-opacity:0;"
         offset="1"
         id="stop22" />
    </linearGradient>
    <linearGradient
       id="linearGradient19"
       inkscape:collect="always">
      <stop
         style="stop-color:#006400;stop-opacity:1;"
         offset="0"
         id="stop19" />
      <stop
         style="stop-color:#006400;stop-opacity:0;"
         offset="1"
         id="stop20" />
    </linearGradient>
    <linearGradient
       id="linearGradient17"
       inkscape:collect="always">
      <stop
         style="stop-color:#006400;stop-opacity:1;"
         offset="0"
         id="stop17" />
      <stop
         style="stop-color:#006400;stop-opacity:0;"
         offset="1"
         id="stop18" />
    </linearGradient>
    <linearGradient
       id="linearGradient12"
       inkscape:collect="always">
      <stop
         style="stop-color:#006400;stop-opacity:1;"
         offset="0"
         id="stop15" />
      <stop
         style="stop-color:#006400;stop-opacity:0;"
         offset="1"
         id="stop16" />
    </linearGradient>
    <linearGradient
       id="linearGradient8"
       inkscape:collect="always">
      <stop
         style="stop-color:#006400;stop-opacity:1;"
         offset="0"
         id="stop8" />
      <stop
         style="stop-color:#006400;stop-opacity:0;"
         offset="1"
         id="stop9" />
    </linearGradient>
    <linearGradient
       id="linearGradient5"
       inkscape:collect="always">
      <stop
         style="stop-color:#00a800;stop-opacity:1;"
         offset="0"
         id="stop5" />
      <stop
         style="stop-color:#00a800;stop-opacity:0;"
         offset="1"
         id="stop6" />
    </linearGradient>
    <linearGradient
       id="linearGradient3"
       inkscape:collect="always">
      <stop
         style="stop-color:#c299ff;stop-opacity:1;"
         offset="0"
         id="stop2" />
      <stop
         style="stop-color:#00ccff;stop-opacity:1"
         offset="1"
         id="stop3" />
    </linearGradient>
    <linearGradient
       id="c"
       y1="523.79999"
       x1="403.57001"
       y2="536.79999"
       x2="416.57001"
       gradientUnits="userSpaceOnUse"
       gradientTransform="matrix(0.34526714,0,0,0.34526706,-134.80427,-174.63325)">
      <stop
         stop-color="#292c2f"
         id="stop1568" />
      <stop
         offset="1"
         stop-opacity="0"
         id="stop1570" />
    </linearGradient>
    <linearGradient
       xlink:href="#b-2"
       id="linearGradient4189"
       x1="14.369"
       y1="22.521999"
       x2="26.521999"
       y2="22.521999"
       gradientUnits="userSpaceOnUse" />
    <linearGradient
       x1="36"
       gradientUnits="userSpaceOnUse"
       x2="14"
       y2="12"
       y1="44"
       id="b-2">
      <stop
         style="stop-color:#bfc9c9;stop-opacity:1"
         stop-color="#536161"
         id="stop1579" />
      <stop
         style="stop-color:#fbfbfb;stop-opacity:1"
         stop-color="#f4f5f5"
         offset="1"
         id="stop1581" />
    </linearGradient>
    <linearGradient
       xlink:href="#b-2"
       id="linearGradient4428"
       gradientUnits="userSpaceOnUse"
       x1="31.586"
       y1="36.345001"
       x2="1.2029999"
       y2="6.723" />
    <linearGradient
       xlink:href="#b-2"
       id="linearGradient4189-3"
       x1="14.369"
       y1="22.521999"
       x2="26.521999"
       y2="22.521999"
       gradientUnits="userSpaceOnUse"
       gradientTransform="translate(20.841982,61.553822)" />
    <linearGradient
       xlink:href="#b-2"
       id="linearGradient4428-5"
       gradientUnits="userSpaceOnUse"
       x1="31.586"
       y1="36.345001"
       x2="1.2029999"
       y2="6.723"
       gradientTransform="translate(20.841982,61.553822)" />
    <linearGradient
       xlink:href="#b-2"
       id="linearGradient4189-3-3"
       x1="14.369"
       y1="22.521999"
       x2="26.521999"
       y2="22.521999"
       gradientUnits="userSpaceOnUse"
       gradientTransform="translate(4.376802,4.4211693)" />
    <linearGradient
       xlink:href="#b-2"
       id="linearGradient4428-5-5"
       gradientUnits="userSpaceOnUse"
       x1="31.586"
       y1="36.345001"
       x2="1.2029999"
       y2="6.723"
       gradientTransform="translate(4.376802,4.4211693)" />
    <linearGradient
       inkscape:collect="always"
       xlink:href="#linearGradient11"
       id="linearGradient13"
       x1="-43.819283"
       y1="23.120178"
       x2="-1.9547797"
       y2="23.120178"
       gradientUnits="userSpaceOnUse"
       gradientTransform="scale(0.26457813)" />
    <linearGradient
       id="linearGradient11"
       inkscape:collect="always">
      <stop
         style="stop-color:#9955ff;stop-opacity:0.65640396;"
         offset="0"
         id="stop4-3" />
      <stop
         style="stop-color:#00ccff;stop-opacity:1"
         offset="1"
         id="stop11" />
    </linearGradient>
    <linearGradient
       inkscape:collect="always"
       xlink:href="#linearGradient14"
       id="linearGradient15"
       x1="-9.6850061"
       y1="45.161198"
       x2="11.98815"
       y2="21.735205"
       gradientUnits="userSpaceOnUse"
       gradientTransform="scale(0.26457813)" />
    <linearGradient
       id="linearGradient14"
       inkscape:collect="always">
      <stop
         style="stop-color:#9955ff;stop-opacity:0.45197046;"
         offset="0"
         id="stop12" />
      <stop
         style="stop-color:#00ccff;stop-opacity:1"
         offset="1"
         id="stop13" />
    </linearGradient>
    <filter
       id="filter2917-3"
       x="-0.96181147"
       y="-0.66745996"
       width="2.9236229"
       height="2.3349199"
       color-interpolation-filters="sRGB">
      <feGaussianBlur
         stdDeviation="0.2871969"
         id="feGaussianBlur732-5" />
    </filter>
    <filter
       id="filter1"
       x="-0.96181148"
       y="-0.66745996"
       width="2.9236228"
       height="2.3349199"
       color-interpolation-filters="sRGB">
      <feGaussianBlur
         stdDeviation="0.2871969"
         id="feGaussianBlur1" />
    </filter>
    <filter
       id="filter2"
       x="-0.96181148"
       y="-0.66745996"
       width="2.9236228"
       height="2.3349199"
       color-interpolation-filters="sRGB">
      <feGaussianBlur
         stdDeviation="0.2871969"
         id="feGaussianBlur2" />
    </filter>
    <linearGradient
       inkscape:collect="always"
       xlink:href="#linearGradient3"
       id="linearGradient2"
       x1="2.9103594"
       y1="6.0852971"
       x2="9.2602339"
       y2="6.0852971"
       gradientUnits="userSpaceOnUse" />
    <linearGradient
       xlink:href="#linearGradient4992"
       id="linearGradient4355"
       x1="19"
       y1="10"
       x2="25"
       y2="36"
       gradientUnits="userSpaceOnUse"
       gradientTransform="scale(0.2645781)" />
    <linearGradient
       id="linearGradient4992">
      <stop
         offset="0"
         style="stop-color:#009200;stop-opacity:1"
         id="stop1-3" />
      <stop
         offset="1"
         style="stop-color:#006400;stop-opacity:1"
         id="stop2-6" />
    </linearGradient>
    <radialGradient
       xlink:href="#linearGradient4986"
       id="radialGradient4984"
       cx="36.651001"
       cy="12.791"
       fx="36.651001"
       fy="12.791"
       r="5.8540001"
       gradientTransform="matrix(0.06097748,-0.01831527,0.09830175,0.32727863,5.7679435,-0.43929287)"
       gradientUnits="userSpaceOnUse" />
    <linearGradient
       gradientUnits="userSpaceOnUse"
       x2="422.57001"
       y2="519.79999"
       x1="414.57001"
       y1="511.79999"
       id="linearGradient4986">
      <stop
         stop-color="#292c2f"
         style="stop-opacity:0.466"
         id="stop10258" />
      <stop
         stop-opacity="0"
         offset="1"
         id="stop10260" />
    </linearGradient>
    <radialGradient
       xlink:href="#g"
       id="radialGradient4974"
       cx="18.992001"
       cy="-11.809"
       fx="18.992001"
       fy="-11.809"
       r="8.4259996"
       gradientTransform="matrix(0.07457739,0.12560411,-0.03140102,0.01864434,2.8429739,2.0680024)"
       gradientUnits="userSpaceOnUse" />
    <linearGradient
       id="g"
       y1="511.79999"
       x1="414.57001"
       y2="519.79999"
       x2="422.57001"
       gradientUnits="userSpaceOnUse">
      <stop
         stop-color="#292c2f"
         id="stop10308" />
      <stop
         offset="1"
         stop-opacity="0"
         id="stop10310" />
    </linearGradient>
    <radialGradient
       xlink:href="#linearGradient4978"
       id="radialGradient4976"
       cx="28.299999"
       cy="10.776"
       fx="28.299999"
       fy="10.776"
       r="9.4639997"
       gradientTransform="matrix(0.053762,-0.01536057,0.05591331,0.1956966,5.0196251,1.2362348)"
       gradientUnits="userSpaceOnUse" />
    <linearGradient
       gradientUnits="userSpaceOnUse"
       x2="422.57001"
       y2="519.79999"
       x1="414.57001"
       y1="511.79999"
       id="linearGradient4978">
      <stop
         stop-color="#292c2f"
         style="stop-opacity:0.572"
         id="stop10263" />
      <stop
         stop-opacity="0"
         offset="1"
         id="stop10265" />
    </linearGradient>
    <linearGradient
       xlink:href="#linearGradient4357"
       id="linearGradient4363"
       x1="24"
       y1="21"
       x2="32"
       y2="32"
       gradientUnits="userSpaceOnUse"
       gradientTransform="scale(0.2645781)" />
    <linearGradient
       id="linearGradient4357">
      <stop
         style="stop-color:#009600;stop-opacity:1;"
         offset="0"
         id="stop13-3" />
      <stop
         style="stop-color:#007900;stop-opacity:1"
         offset="1"
         id="stop14" />
    </linearGradient>
    <linearGradient
       xlink:href="#linearGradient4574"
       id="linearGradient4580"
       x1="7"
       y1="13"
       x2="6"
       y2="10"
       gradientUnits="userSpaceOnUse"
       gradientTransform="scale(0.2645781)" />
    <linearGradient
       id="linearGradient4574">
      <stop
         style="stop-color:#f4be00;stop-opacity:1;"
         offset="0"
         id="stop10278" />
      <stop
         style="stop-color:#fff4ca;stop-opacity:1"
         offset="1"
         id="stop10280" />
    </linearGradient>
    <linearGradient
       xlink:href="#linearGradient4574"
       id="linearGradient4588"
       x1="16"
       y1="8"
       x2="13"
       y2="4"
       gradientUnits="userSpaceOnUse"
       gradientTransform="scale(0.2645781)" />
    <linearGradient
       xlink:href="#linearGradient4574"
       id="linearGradient4654"
       x1="27"
       y1="6"
       x2="25.660999"
       y2="2"
       gradientUnits="userSpaceOnUse"
       gradientTransform="scale(0.2645781)" />
    <linearGradient
       xlink:href="#linearGradient4574"
       id="linearGradient4796"
       x1="26.43"
       y1="24"
       x2="21.454"
       y2="21.636999"
       gradientUnits="userSpaceOnUse"
       gradientTransform="scale(0.2645781)" />
    <linearGradient
       xlink:href="#linearGradient4838"
       id="linearGradient4858"
       x1="33.5"
       y1="7"
       x2="27.568001"
       y2="5"
       gradientUnits="userSpaceOnUse"
       gradientTransform="scale(0.2645781)" />
    <linearGradient
       id="linearGradient4838">
      <stop
         offset="0"
         style="stop-color:#2e9000;stop-opacity:1"
         id="stop10268" />
      <stop
         offset="1"
         style="stop-color:#00ba00;stop-opacity:1"
         id="stop10270" />
    </linearGradient>
    <linearGradient
       inkscape:collect="always"
       xlink:href="#linearGradient36"
       id="linearGradient1"
       gradientUnits="userSpaceOnUse"
       gradientTransform="scale(0.2645781)"
       x1="19"
       y1="10"
       x2="25"
       y2="36" />
    <linearGradient
       inkscape:collect="always"
       xlink:href="#linearGradient4986"
       id="linearGradient4"
       x1="6.4182184"
       y1="3.7195209"
       x2="7.9353069"
       y2="3.7195209"
       gradientUnits="userSpaceOnUse" />
    <linearGradient
       inkscape:collect="always"
       xlink:href="#linearGradient5"
       id="linearGradient6"
       x1="4.9929876"
       y1="5.182486"
       x2="7.9639037"
       y2="5.182486"
       gradientUnits="userSpaceOnUse" />
    <linearGradient
       inkscape:collect="always"
       xlink:href="#linearGradient38"
       id="linearGradient7"
       x1="3.6973236"
       y1="4.3975761"
       x2="5.8807217"
       y2="4.3975761"
       gradientUnits="userSpaceOnUse" />
    <linearGradient
       inkscape:collect="always"
       xlink:href="#linearGradient8"
       id="linearGradient9"
       x1="4.9929477"
       y1="5.5210929"
       x2="7.9704806"
       y2="5.5210929"
       gradientUnits="userSpaceOnUse" />
    <linearGradient
       inkscape:collect="always"
       xlink:href="#linearGradient4978"
       id="linearGradient10"
       x1="4.6042881"
       y1="3.9844532"
       x2="7.0566859"
       y2="3.9844532"
       gradientUnits="userSpaceOnUse" />
    <linearGradient
       inkscape:collect="always"
       xlink:href="#linearGradient12"
       id="linearGradient16"
       x1="4.4084205"
       y1="4.0534609"
       x2="4.6836367"
       y2="4.0534609"
       gradientUnits="userSpaceOnUse" />
    <linearGradient
       inkscape:collect="always"
       xlink:href="#linearGradient17"
       id="linearGradient18"
       x1="5.437863"
       y1="3.3371611"
       x2="7.3640234"
       y2="3.3371611"
       gradientUnits="userSpaceOnUse" />
    <linearGradient
       inkscape:collect="always"
       xlink:href="#linearGradient19"
       id="linearGradient20"
       x1="7.1009719"
       y1="3.9427033"
       x2="7.7139835"
       y2="3.9427033"
       gradientUnits="userSpaceOnUse" />
    <linearGradient
       inkscape:collect="always"
       xlink:href="#linearGradient21"
       id="linearGradient22"
       x1="5.8976743"
       y1="4.0548166"
       x2="6.4182184"
       y2="4.0548166"
       gradientUnits="userSpaceOnUse" />
    <linearGradient
       inkscape:collect="always"
       xlink:href="#linearGradient23"
       id="linearGradient24"
       x1="4.8667107"
       y1="4.5618683"
       x2="5.5112527"
       y2="4.5618683"
       gradientUnits="userSpaceOnUse" />
    <linearGradient
       inkscape:collect="always"
       xlink:href="#linearGradient25"
       id="linearGradient26"
       x1="6.6950614"
       y1="5.2141762"
       x2="6.8892032"
       y2="5.2141762"
       gradientUnits="userSpaceOnUse" />
    <linearGradient
       inkscape:collect="always"
       xlink:href="#linearGradient27"
       id="linearGradient28"
       x1="6.7517476"
       y1="5.2229744"
       x2="6.9209945"
       y2="5.2229744"
       gradientUnits="userSpaceOnUse" />
    <linearGradient
       inkscape:collect="always"
       xlink:href="#linearGradient29"
       id="linearGradient30"
       x1="4.8750599"
       y1="4.5816887"
       x2="5.5112527"
       y2="4.5816887"
       gradientUnits="userSpaceOnUse" />
    <linearGradient
       inkscape:collect="always"
       xlink:href="#linearGradient31"
       id="linearGradient32"
       x1="5.9032406"
       y1="4.0891861"
       x2="6.4166424"
       y2="4.0891861"
       gradientUnits="userSpaceOnUse" />
    <linearGradient
       inkscape:collect="always"
       xlink:href="#linearGradient33"
       id="linearGradient34"
       x1="7.1017365"
       y1="3.9762873"
       x2="7.7138878"
       y2="3.9762873"
       gradientUnits="userSpaceOnUse" />
  </defs>
  <sodipodi:namedview
     id="namedview14"
     pagecolor="#000000"
     bordercolor="#666666"
     borderopacity="1.0"
     inkscape:showpageshadow="2"
     inkscape:pageopacity="0.0"
     inkscape:pagecheckerboard="0"
     inkscape:deskcolor="#d1d1d1"
     showgrid="false"
     inkscape:zoom="14.75"
     inkscape:cx="23.050848"
     inkscape:cy="32.677966"
     inkscape:window-width="1920"
     inkscape:window-height="996"
     inkscape:window-x="0"
     inkscape:window-y="0"
     inkscape:window-maximized="1"
     inkscape:current-layer="svg12">
    <inkscape:grid
       type="xygrid"
       id="grid244"
       originx="9.7893915"
       originy="-31.749373"
       spacingy="1"
       spacingx="1"
       units="px"
       visible="false" />
  </sodipodi:namedview>
  <rect
     x="-12.025727"
     y="0.1490714"
     width="11.940627"
     height="11.936014"
     rx="1.6121091"
     stroke="url(#paint4_linear_77:23)"
     shape-rendering="crispEdges"
     id="rect5-6-7-3"
     ry="1.7735944"
     transform="matrix(0.00523883,-0.99998628,0.999988,0.00489859,0,0)"
     style="fill:#80b3ff;fill-opacity:0.15;stroke:url(#linearGradient13);stroke-width:0.188987;stroke-opacity:1" />
  <rect
     x="-3.7266586"
     y="4.6446943"
     width="7.912631"
     height="7.912384"
     rx="1.612043"
     shape-rendering="crispEdges"
     id="rect5-6-6-6-6"
     style="fill:#80b3ff;fill-opacity:0.122146;stroke:url(#linearGradient15);stroke-width:0.188987;stroke-opacity:1"
     ry="1.7735215"
     transform="matrix(0.72612649,-0.68756114,0.6879775,0.72573202,0,0)" />
  <path
     d="m 3.7040938,3.7040939 c -0.4397286,0 -0.7937343,0.354004 -0.7937343,0.793731 v 3.174942 c 0,0.439728 0.3540057,0.793733 0.7937343,0.793733 h 4.7624059 c 0.4397285,0 0.793734,-0.354005 0.793734,-0.793733 v -3.174942 c 0,-0.439727 -0.3540055,-0.793731 -0.793734,-0.793731 z m 0,0.396867 h 4.7624059 c 0.1940203,0 0.3470522,0.140517 0.3821394,0.324008 l -2.5493952,2.030055 c -0.121283,0.09661 -0.306596,0.09661 -0.427863,0 L 3.3219857,4.4249689 c 0.03509,-0.183493 0.1881192,-0.324008 0.3821394,-0.324008 z m -0.3968675,0.813102 1.4704329,1.171236 -1.4704329,1.171233 v -2.342431 z m 5.5561405,0 v 2.342427 l -1.4704325,-1.171235 1.4704325,-1.17123 z m -3.7710316,1.422372 0.4642947,0.369736 c 0.2900582,0.230984 0.7672239,0.230984 1.0572939,0 l 0.4642949,-0.369736 1.7703847,1.409198 c -0.03509,0.183489 -0.1881189,0.324004 -0.3821394,0.324004 H 3.7040579 c -0.1940201,0 -0.3470526,-0.14051 -0.3821395,-0.324004 l 1.7703851,-1.409198 z"
     style="color:#dedede;fill:url(#linearGradient2);stroke-width:0.264578"
     class="ColorScheme-Text"
     id="path1" />
  <path
     style="fill:url(#linearGradient1);fill-opacity:1;fill-rule:evenodd;stroke:none;stroke-width:0.264574px;stroke-linecap:butt;stroke-linejoin:miter;stroke-opacity:1;opacity:1"
     d="M 8.0004093,5.0785405 C 7.7672218,5.2321324 7.079046,5.8805716 7.079046,5.8805716 6.6277193,6.0539755 6.3233384,6.7965861 5.7638212,6.4126619 L 5.0198939,5.7740255 C 4.7366819,5.5308976 4.8634218,4.2196098 3.6973236,3.9942673 4.8634218,3.5435806 5.6624982,4.1377162 5.8821899,4.8130998 6.0295208,3.8815963 5.8247876,3.3420116 4.6042882,3.3182381 6.0295208,2.8675525 6.8069163,3.4309095 7.0567318,4.5715532 7.1956177,3.7689233 7.0660484,3.3182381 6.4182184,2.8675525 7.9730133,2.980224 7.9984862,3.6191401 8.0004093,5.0785405 Z"
     id="path28"
     sodipodi:nodetypes="cccscccccc" />
  <path
     style="fill:url(#linearGradient4);fill-opacity:1;fill-rule:evenodd;stroke:none;stroke-width:0.264574px;stroke-linecap:butt;stroke-linejoin:miter;stroke-opacity:1;opacity:1"
     d="M 7.0566854,4.5714893 C 7.4280051,4.4823377 7.7159481,4.442124 7.9353069,4.4258078 7.8455148,3.553413 7.531893,2.9482572 6.4182184,2.8675525 7.0660485,3.3182381 7.195571,3.7688582 7.0566854,4.5714893 Z"
     id="path29" />
  <path
     style="fill:url(#linearGradient6);fill-opacity:1;fill-rule:evenodd;stroke:none;stroke-width:0.264574px;stroke-linecap:butt;stroke-linejoin:miter;stroke-opacity:1;opacity:1"
     d="M 7.0916089,4.5950331 C 6.491839,4.595647 5.7822725,4.767571 5.3639728,5.1333058 5.1336579,5.3346762 5.0339659,5.6951722 4.9929876,5.7250495 v 0.02289 c 0.019476,0.014258 0.0706,0.022 0.0706,0.022 C 5.1427398,5.3464012 5.5639132,4.9586056 6.0522945,4.813996 6.7066116,4.620249 7.231999,4.5958811 7.9639037,4.8481069 7.9628545,4.8231227 7.9621296,4.7977265 7.9611471,4.7730659 7.7668533,4.6559411 7.4490579,4.5948218 7.0916311,4.5950331 Z"
     id="path30" />
  <path
     style="opacity:1;fill:url(#linearGradient7);fill-opacity:1;fill-rule:evenodd;stroke:none;stroke-width:0.264574px;stroke-linecap:butt;stroke-linejoin:miter;stroke-opacity:1"
     d="M 4.4997751,3.8371425 C 4.2574464,3.8342431 3.9888481,3.8816005 3.6973236,3.9942673 4.5621543,4.1613925 4.8564305,4.3912899 4.9509789,4.9581348 5.1867866,4.9233849 5.5080303,4.8742032 5.8807217,4.8089329 5.7146106,4.3040482 5.2247522,3.8457439 4.4997751,3.8371425 Z"
     id="path31" />
  <path
     style="fill:url(#linearGradient9);fill-opacity:1;stroke:none;stroke-width:0.291036;stroke-linecap:square;stroke-linejoin:miter;stroke-miterlimit:4;stroke-dasharray:none;stroke-dashoffset:0;stroke-opacity:1;opacity:1"
     d="m 7.0660485,4.5576235 -0.00759,3.717e-4 c -8.821e-4,0.0047 -0.00109,0.00889 -0.0018,0.013645 -0.00114,-0.00466 -0.00252,-0.00883 -0.00358,-0.013427 -0.416829,0.0016 -0.8232072,0.078139 -1.1660978,0.2198413 -0.0018,0.011913 -0.00294,0.02316 -0.00483,0.035208 -0.00313,-0.00947 -0.00756,-0.018714 -0.010857,-0.028164 C 5.3209425,5.017123 4.993391,5.394529 4.9929477,5.7971542 c 5.696e-4,0.0218 0.00172,0.0436 0.00403,0.06536 0.042495,-0.6650126 0.8364249,-1.2528743 2.0244733,-1.2448873 0.3106138,9.927e-4 0.6614789,0.096228 0.9408763,0.1773688 -0.0017,-0.039431 -0.00463,-0.07716 -0.00685,-0.115753 C 7.6777766,4.599759 7.3739167,4.5582622 7.0660053,4.5577666 Z M 7.8973494,5.0886316 C 7.5057472,5.084241 7.0853888,5.1686266 6.6950629,5.3300377 5.8480016,5.6814603 5.4303653,5.9045849 5.4799498,6.4845622 l 0.013818,-0.0022 C 5.5136048,5.9266161 5.9594633,5.7604824 6.7507376,5.4316687 7.1472887,5.2682957 7.574366,5.1051967 7.9704806,5.1129724 c -5.48e-4,-0.032912 -4.385e-4,0.011613 -8.429e-4,-0.020861 -0.023948,-0.0016 -0.048079,-0.00264 -0.072373,-0.00349 z"
     id="path32"
     sodipodi:nodetypes="ccccccccccccccccccccccc" />
  <path
     style="fill:url(#linearGradient10);fill-opacity:1;fill-rule:evenodd;stroke:none;stroke-width:0.264574px;stroke-linecap:butt;stroke-linejoin:miter;stroke-opacity:1;opacity:1"
     d="m 5.8847688,4.7763627 0.010121,0.029713 C 6.2783131,4.7387468 6.6919869,4.6590541 7.0566859,4.5714935 6.8068689,3.4308476 6.0295207,2.8675566 4.6042881,3.3182428 5.8069574,3.3416685 6.0196645,3.869783 5.8847689,4.7763667 Z"
     id="path33" />
  <path
     style="fill:url(#linearGradient4363);fill-opacity:1;fill-rule:evenodd;stroke:none;stroke-width:0.264574px;stroke-linecap:butt;stroke-linejoin:miter;stroke-opacity:1;opacity:1"
     d="m 5.8999504,5.1209801 c 0,0 2.8660925,-0.517445 1.7656719,0.2712663 -0.5585417,0.4003271 -1.2503359,0.9875008 -1.2503359,0.9875008 0,0 1.6872947,-1.0334253 -0.515336,-1.2587671 z"
     id="path34"
     sodipodi:nodetypes="cscc" />
  <path
     style="fill:#ffcc00;fill-opacity:1;stroke:none;stroke-width:0.291036;stroke-linecap:square;stroke-linejoin:miter;stroke-miterlimit:4;stroke-dasharray:none;stroke-dashoffset:0;stroke-opacity:1;opacity:1"
     d="m 4.4997751,3.8371425 c -0.2423287,-0.0029 -0.510927,0.044458 -0.8024515,0.1571248 0.3469636,0.067048 0.6004503,0.144741 0.787774,0.2495468 A 0.90696467,0.61969251 0 0 0 4.6042882,3.937931 0.90696467,0.61969251 0 0 0 4.5929017,3.843084 c -0.031021,-0.00209 -0.061182,-0.00555 -0.093126,-0.00599 z"
     id="path35" />
  <path
     style="fill:#ffcc00;fill-opacity:1;stroke:none;stroke-width:0.291036;stroke-linecap:square;stroke-linejoin:miter;stroke-miterlimit:4;stroke-dasharray:none;stroke-dashoffset:0;stroke-opacity:1;opacity:1"
     d="m 5.5535136,3.163535 c -0.2772053,-0.0072 -0.5929162,0.04203 -0.9492254,0.1547031 0.3906946,0.0076 0.6763551,0.06877 0.8806462,0.1780301 0.095251,-0.096568 0.1502684,-0.2134821 0.1558841,-0.3298727 -0.028711,-0.00208 -0.057713,-0.00208 -0.087304,-0.0028 z"
     id="path36" />
  <path
     style="fill:#ffcc00;fill-opacity:1;stroke:none;stroke-width:0.291036;stroke-linecap:square;stroke-linejoin:miter;stroke-miterlimit:4;stroke-dasharray:none;stroke-dashoffset:0;stroke-opacity:1;opacity:1"
     d="M 6.4182184,2.8675525 C 6.6663565,3.0401769 6.8377639,3.2129801 6.94787,3.4053821 A 0.58304873,0.39434976 0 0 0 7.3087318,3.1274456 C 7.0911121,2.985609 6.8023341,2.8953886 6.4182184,2.8675525 Z"
     id="path37" />
  <path
     style="fill:#ffcc00;fill-opacity:1;stroke:none;stroke-width:0.291036;stroke-linecap:square;stroke-linejoin:miter;stroke-miterlimit:4;stroke-dasharray:none;stroke-dashoffset:0;stroke-opacity:1;opacity:1"
     d="m 6.555882,5.0496807 c -0.3644081,0.00797 -0.6559316,0.0713 -0.6559316,0.0713 0.3853813,0.03943 0.6375059,0.1139261 0.7951125,0.2090574 A 0.51826541,0.33801419 0 0 0 6.8069163,5.1209796 0.51826541,0.33801419 0 0 0 6.7962718,5.054743 C 6.7143608,5.050243 6.6332924,5.048043 6.555866,5.049673 Z"
     id="path38" />
  <path
     style="fill:url(#linearGradient16);fill-opacity:1;fill-rule:evenodd;stroke:none;stroke-width:0.264574px;stroke-linecap:butt;stroke-linejoin:miter;stroke-opacity:1;opacity:1"
     d="m 4.5686067,3.8415443 c 0.00651,0.1809599 -0.044526,0.2847371 -0.1601862,0.3622222 0.041015,0.019516 0.079593,0.039927 0.1151417,0.061611 0.1753776,-0.086121 0.2204811,-0.2448102 0.065542,-0.4225158 -0.00685,-7.007e-4 -0.013621,-10e-4 -0.020495,-0.0013 z"
     id="path43" />
  <path
     style="fill:url(#linearGradient18);fill-opacity:1;fill-rule:evenodd;stroke:none;stroke-width:0.264574px;stroke-linecap:butt;stroke-linejoin:miter;stroke-opacity:1;opacity:1"
     d="M 7.3044337,3.1248042 C 7.2066957,3.276007 7.1094328,3.3442919 6.9316775,3.378094 c 0.00966,0.01588 0.018522,0.03205 0.027328,0.04819 0.264757,0.020899 0.4516855,-0.084105 0.3947751,-0.2673742 -0.01614,-0.01162 -0.032349,-0.023128 -0.049344,-0.03411 z M 5.6408185,3.1663949 C 5.6019093,3.324348 5.5371584,3.4180664 5.437863,3.4733804 5.486782,3.4964494 5.5324,3.5214914 5.5730015,3.5495224 5.6944322,3.4792534 5.7345082,3.342306 5.6408185,3.1663949 Z"
     id="path44" />
  <path
     style="fill:url(#linearGradient20);fill-opacity:1;fill-rule:evenodd;stroke:none;stroke-width:0.264574px;stroke-linecap:butt;stroke-linejoin:miter;stroke-opacity:1;opacity:1"
     d="M 7.7138795,3.891056 C 7.4404191,3.970803 7.2991928,3.966819 7.1009719,3.917907 c 7.014e-4,0.0051 6.575e-4,0.01051 8.614e-4,0.01562 0.1655395,0.06474 0.3111615,0.111591 0.6121502,-0.04247 z"
     id="path45" />
  <path
     style="fill:url(#linearGradient22);fill-opacity:1;fill-rule:evenodd;stroke:none;stroke-width:0.264574px;stroke-linecap:butt;stroke-linejoin:miter;stroke-opacity:1;opacity:1"
     d="m 6.4182184,4.0037293 c -0.2241614,0.053888 -0.3731957,0.06948 -0.5205441,0.05942 0.00242,0.01206 0.00356,0.0251 0.00555,0.03741 0.1328716,0.016052 0.2866168,-6.792e-4 0.5149743,-0.096826 z"
     id="path46" />
  <path
     style="fill:url(#linearGradient24);fill-opacity:1;fill-rule:evenodd;stroke:none;stroke-width:0.264574px;stroke-linecap:butt;stroke-linejoin:miter;stroke-opacity:1;opacity:1"
     d="m 5.5112527,4.4449519 c -0.2686594,0.1495659 -0.4267758,0.1953406 -0.644542,0.2132398 0.00278,0.00651 0.00562,0.013071 0.00834,0.019806 0.1901486,0.0057 0.3671754,-0.014446 0.6361925,-0.2330461 z"
     id="path47" />
  <path
     style="fill:url(#linearGradient26);fill-opacity:1;fill-rule:evenodd;stroke:none;stroke-width:0.264574px;stroke-linecap:butt;stroke-linejoin:miter;stroke-opacity:1;opacity:1"
     d="m 6.7811034,5.0536437 c -0.00344,0.1170396 -0.028219,0.1993551 -0.086042,0.276394 0.023928,0.01443 0.045714,0.0293 0.065289,0.044671 0.1176902,-0.088363 0.1643486,-0.2095555 0.099452,-0.3155664 -0.026306,-0.00209 -0.052598,-0.0042 -0.078702,-0.00544 z"
     id="path48" />
  <path
     style="fill:url(#linearGradient4858);fill-opacity:1;fill-rule:evenodd;stroke:none;stroke-width:0.264574px;stroke-linecap:butt;stroke-linejoin:miter;stroke-opacity:1;opacity:1"
     d="m 7.3279679,3.1404277 c -0.00873,0.1248652 -0.1505808,0.3162037 -0.396547,0.2370065 0.011033,0.01808 0.020969,0.03658 0.030877,0.05502 0.2038392,0.070582 0.4961675,-0.0024 0.3945175,-0.2711153 -0.00962,-0.00694 -0.018911,-0.014158 -0.028848,-0.020908 z M 5.6408185,3.166397 c 0.0521,0.092988 0.018122,0.2673448 -0.1328529,0.3437364 0.022199,0.0127 0.044606,0.02525 0.064782,0.03917 0.1645655,-0.065538 0.2189524,-0.2310668 0.088825,-0.3802702 -0.010183,-8.11e-4 -0.010493,-0.0021 -0.020751,-0.00265 z M 4.5777169,3.842206 c 0.1091481,0.117519 0.1147156,0.2716492 -0.09768,0.398973 0.024609,0.01361 0.048007,0.027868 0.070347,0.04247 0.162091,-0.09214 0.2686416,-0.2971617 0.090596,-0.4374822 -0.020747,-0.00199 -0.042092,-0.0027 -0.063263,-0.00399 z"
     id="path49" />
  <path
     style="fill:url(#linearGradient28);fill-opacity:1;fill-rule:evenodd;stroke:none;stroke-width:0.264574px;stroke-linecap:butt;stroke-linejoin:miter;stroke-opacity:1;opacity:1"
     d="m 6.8279186,5.0569416 c 0.017841,0.05797 0.025533,0.1656616 -0.076171,0.3107278 0.00934,0.007 0.01838,0.01413 0.026823,0.02135 0.1971634,-0.1544242 0.1498994,-0.267817 0.092115,-0.32899 -0.014325,-0.00109 -0.028505,-0.00216 -0.042771,-0.0031 z"
     id="path50" />
  <path
     style="fill:url(#linearGradient30);fill-opacity:1;fill-rule:evenodd;stroke:none;stroke-width:0.264574px;stroke-linecap:butt;stroke-linejoin:miter;stroke-opacity:1;opacity:1"
     d="m 5.5112527,4.4449519 c -0.2400285,0.1943803 -0.373378,0.2253445 -0.6361928,0.2330459 0.00278,0.00652 0.00562,0.01308 0.00833,0.019807 0.1858548,0.03311 0.4246735,0.067828 0.6278424,-0.2528496 z"
     id="path51" />
  <path
     style="fill:url(#linearGradient32);fill-opacity:1;fill-rule:evenodd;stroke:none;stroke-width:0.264574px;stroke-linecap:butt;stroke-linejoin:miter;stroke-opacity:1;opacity:1"
     d="M 6.4166053,4.0049336 C 6.0827556,4.1258142 6.070276,4.106936 5.9032406,4.1005552 c 0.00356,0.01182 0.00483,0.02698 0.00601,0.040426 0.1076092,0.04281 0.2633754,0.07864 0.5073918,-0.1360429 z"
     id="path52" />
  <path
     style="fill:url(#linearGradient34);fill-opacity:1;fill-rule:evenodd;stroke:none;stroke-width:0.264574px;stroke-linecap:butt;stroke-linejoin:miter;stroke-opacity:1;opacity:1"
     d="M 7.7138795,3.891056 C 7.44708,4.0148634 7.3116394,4.0280761 7.1017365,3.9335268 c 0.093882,0.078429 0.223444,0.2647098 0.6121513,-0.042471 z"
     id="path53" />
</svg>
