<?xml version="1.0" encoding="UTF-8" standalone="no"?>
<svg
   width="22"
   height="22"
   version="1.1"
   id="svg12"
   sodipodi:docname="konversation-symbolic.svg"
   inkscape:version="1.3.2 (091e20ef0f, 2023-11-25)"
   xmlns:inkscape="http://www.inkscape.org/namespaces/inkscape"
   xmlns:sodipodi="http://sodipodi.sourceforge.net/DTD/sodipodi-0.dtd"
   xmlns="http://www.w3.org/2000/svg"
   xmlns:svg="http://www.w3.org/2000/svg"
   xmlns:rdf="http://www.w3.org/1999/02/22-rdf-syntax-ns#"
   xmlns:cc="http://creativecommons.org/ns#"
   xmlns:dc="http://purl.org/dc/elements/1.1/">
  <style
     id="current-color-scheme"
     type="text/css">.ColorScheme-Text { color:#d6dbf1; }
</style>
  <metadata
     id="metadata18">
    <rdf:RDF>
      <cc:Work
         rdf:about="">
        <dc:format>image/svg+xml</dc:format>
        <dc:type
           rdf:resource="http://purl.org/dc/dcmitype/StillImage" />
      </cc:Work>
    </rdf:RDF>
  </metadata>
  <defs
     id="defs16" />
  <sodipodi:namedview
     pagecolor="#201933"
     bordercolor="#000000"
     borderopacity="1"
     objecttolerance="10"
     gridtolerance="10"
     guidetolerance="10"
     inkscape:pageopacity="0"
     inkscape:pageshadow="2"
     inkscape:window-width="1920"
     inkscape:window-height="994"
     id="namedview14"
     showgrid="true"
     inkscape:zoom="9.8125005"
     inkscape:cx="33.732482"
     inkscape:cy="14.87898"
     inkscape:window-x="0"
     inkscape:window-y="0"
     inkscape:window-maximized="1"
     inkscape:current-layer="svg12"
     inkscape:document-rotation="0"
     inkscape:pagecheckerboard="true"
     inkscape:showpageshadow="true"
     inkscape:lockguides="true"
     inkscape:deskcolor="#201933">
    <inkscape:grid
       type="xygrid"
       id="grid10976"
       originx="-1"
       originy="-6.999991"
       spacingy="1"
       spacingx="1"
       units="px"
       visible="true" />
  </sodipodi:namedview>
  <g
     id="22-22-konversation-3"
     style="fill:#d3dae3;fill-opacity:1"
     transform="translate(-32,-10)">
    <rect
       style="opacity:0.00100002;fill:#d3dae3;fill-opacity:1"
       width="22"
       height="22"
       x="32"
       y="10"
       id="rect2-3-6" />
    <path
       d="m 37,16 h 12 v 1 H 37 Z"
       id="path1550-6-5"
       style="color:#d6dbf1;fill:#d3dae3;fill-opacity:1;stroke-width:0.03996"
       sodipodi:nodetypes="ccccc"
       class="ColorScheme-Text" />
    <path
       d="m 37,19 h 12 v 1 H 37 Z"
       id="path1552-7-6"
       style="color:#d6dbf1;fill:#d3dae3;fill-opacity:1;stroke-width:0.03996"
       sodipodi:nodetypes="ccccc"
       class="ColorScheme-Text" />
    <path
       d="m 37,22 h 8 v 1 h -8 z"
       id="path1554-5-2"
       style="color:#d6dbf1;fill:#d3dae3;fill-opacity:1;stroke-width:0.03996"
       sodipodi:nodetypes="ccccc"
       class="ColorScheme-Text" />
    <path
       d="M 51,25.571432 V 14.428586 C 51,13.642872 50.4,13 49.666668,13 H 36.333335 C 35.6,13 35,13.642872 35,14.428586 V 25.571432 C 35,26.357149 35.6,27 36.333335,27 H 40 l 3,3 3,-3 h 3.666668 C 50.4,27 51,26.357149 51,25.571432 Z M 37,26 c -1,0 -1,0 -1,-1 V 15 c 0,-1 0,-1 1,-1 h 12 c 1,0 1,0 1,1 v 10 c 0,1 0,1 -1,1 z"
       id="path2-3-3-3-0-6"
       style="color:#d6dbf1;fill:#d3dae3;fill-opacity:1;stroke-width:0.345031"
       sodipodi:nodetypes="ssssssscccsscscccsscc"
       class="ColorScheme-Text" />
  </g>
</svg>
