<?xml version="1.0" encoding="UTF-8" standalone="no"?>
<svg
   width="45.999886"
   height="45.999989"
   version="1.1"
   viewBox="0 0 12.170564 12.170591"
   id="svg12"
   sodipodi:docname="applications-education-language.svg"
   inkscape:version="1.3.2 (091e20ef0f, 2023-11-25)"
   xmlns:inkscape="http://www.inkscape.org/namespaces/inkscape"
   xmlns:sodipodi="http://sodipodi.sourceforge.net/DTD/sodipodi-0.dtd"
   xmlns:xlink="http://www.w3.org/1999/xlink"
   xmlns="http://www.w3.org/2000/svg"
   xmlns:svg="http://www.w3.org/2000/svg">
  <defs
     id="defs16">
    <linearGradient
       id="c"
       y1="523.79999"
       x1="403.57001"
       y2="536.79999"
       x2="416.57001"
       gradientUnits="userSpaceOnUse"
       gradientTransform="matrix(0.34526714,0,0,0.34526706,-134.80427,-174.63325)">
      <stop
         stop-color="#292c2f"
         id="stop1568" />
      <stop
         offset="1"
         stop-opacity="0"
         id="stop1570" />
    </linearGradient>
    <linearGradient
       xlink:href="#b-2"
       id="linearGradient4189"
       x1="14.369"
       y1="22.521999"
       x2="26.521999"
       y2="22.521999"
       gradientUnits="userSpaceOnUse" />
    <linearGradient
       x1="36"
       gradientUnits="userSpaceOnUse"
       x2="14"
       y2="12"
       y1="44"
       id="b-2">
      <stop
         style="stop-color:#bfc9c9;stop-opacity:1"
         stop-color="#536161"
         id="stop1579" />
      <stop
         style="stop-color:#fbfbfb;stop-opacity:1"
         stop-color="#f4f5f5"
         offset="1"
         id="stop1581" />
    </linearGradient>
    <linearGradient
       xlink:href="#b-2"
       id="linearGradient4428"
       gradientUnits="userSpaceOnUse"
       x1="31.586"
       y1="36.345001"
       x2="1.2029999"
       y2="6.723" />
    <linearGradient
       xlink:href="#b-2"
       id="linearGradient4189-3"
       x1="14.369"
       y1="22.521999"
       x2="26.521999"
       y2="22.521999"
       gradientUnits="userSpaceOnUse"
       gradientTransform="translate(20.841982,61.553822)" />
    <linearGradient
       xlink:href="#b-2"
       id="linearGradient4428-5"
       gradientUnits="userSpaceOnUse"
       x1="31.586"
       y1="36.345001"
       x2="1.2029999"
       y2="6.723"
       gradientTransform="translate(20.841982,61.553822)" />
    <linearGradient
       xlink:href="#b-2"
       id="linearGradient4189-3-3"
       x1="14.369"
       y1="22.521999"
       x2="26.521999"
       y2="22.521999"
       gradientUnits="userSpaceOnUse"
       gradientTransform="translate(4.376802,4.4211693)" />
    <linearGradient
       xlink:href="#b-2"
       id="linearGradient4428-5-5"
       gradientUnits="userSpaceOnUse"
       x1="31.586"
       y1="36.345001"
       x2="1.2029999"
       y2="6.723"
       gradientTransform="translate(4.376802,4.4211693)" />
    <linearGradient
       inkscape:collect="always"
       xlink:href="#linearGradient11"
       id="linearGradient13"
       x1="-43.819283"
       y1="23.120178"
       x2="-1.9547797"
       y2="23.120178"
       gradientUnits="userSpaceOnUse"
       gradientTransform="scale(0.26457813)" />
    <linearGradient
       id="linearGradient11"
       inkscape:collect="always">
      <stop
         style="stop-color:#9955ff;stop-opacity:0.65640396;"
         offset="0"
         id="stop4-3" />
      <stop
         style="stop-color:#00ccff;stop-opacity:1"
         offset="1"
         id="stop11" />
    </linearGradient>
    <linearGradient
       inkscape:collect="always"
       xlink:href="#linearGradient14"
       id="linearGradient15"
       x1="-9.6850061"
       y1="45.161198"
       x2="11.98815"
       y2="21.735205"
       gradientUnits="userSpaceOnUse"
       gradientTransform="scale(0.26457813)" />
    <linearGradient
       id="linearGradient14"
       inkscape:collect="always">
      <stop
         style="stop-color:#9955ff;stop-opacity:0.45197046;"
         offset="0"
         id="stop12" />
      <stop
         style="stop-color:#00ccff;stop-opacity:1"
         offset="1"
         id="stop13" />
    </linearGradient>
  </defs>
  <sodipodi:namedview
     id="namedview14"
     pagecolor="#000000"
     bordercolor="#666666"
     borderopacity="1.0"
     inkscape:showpageshadow="2"
     inkscape:pageopacity="0.0"
     inkscape:pagecheckerboard="0"
     inkscape:deskcolor="#d1d1d1"
     showgrid="false"
     inkscape:zoom="5.2149125"
     inkscape:cx="23.20269"
     inkscape:cy="53.692176"
     inkscape:window-width="1920"
     inkscape:window-height="996"
     inkscape:window-x="0"
     inkscape:window-y="0"
     inkscape:window-maximized="1"
     inkscape:current-layer="svg12">
    <inkscape:grid
       type="xygrid"
       id="grid244"
       originx="9.7893915"
       originy="-31.749373"
       spacingy="1"
       spacingx="1"
       units="px"
       visible="false" />
  </sodipodi:namedview>
  <rect
     x="-12.025727"
     y="0.1490714"
     width="11.940627"
     height="11.936014"
     rx="1.6121091"
     stroke="url(#paint4_linear_77:23)"
     shape-rendering="crispEdges"
     id="rect5-6-7-3"
     ry="1.7735944"
     transform="matrix(0.00523883,-0.99998628,0.999988,0.00489859,0,0)"
     style="fill:#80b3ff;fill-opacity:0.15;stroke:url(#linearGradient13);stroke-width:0.188987;stroke-opacity:1" />
  <rect
     x="-3.7266586"
     y="4.6446943"
     width="7.912631"
     height="7.912384"
     rx="1.612043"
     shape-rendering="crispEdges"
     id="rect5-6-6-6-6"
     style="fill:#80b3ff;fill-opacity:0.122146;stroke:url(#linearGradient15);stroke-width:0.188987;stroke-opacity:1"
     ry="1.7735215"
     transform="matrix(0.72612649,-0.68756114,0.6879775,0.72573202,0,0)" />
  <path
     d="m 7.0111335,8.8690146 c -0.039744,0.04527 -0.091173,0.08762 -0.139661,0.126642 -0.313253,-0.322846 -0.6810372,-0.680649 -1.0305989,-0.680649 -0.2167329,0 -0.3728285,0.164519 -0.5549354,0.280603 -0.2527177,0.161091 -0.5993884,0.251813 -0.8964714,0.133577 -0.1597844,-0.06051 -0.3145954,-0.149615 -0.4302947,-0.29439 0.2338173,0.160813 0.5839708,0.182426 0.847931,0.07322 0.2917714,-0.120709 0.5887361,-0.280984 0.9212426,-0.280984 0.4901523,0 0.9559886,0.330626 1.2827864,0.641983 z M 3.3884819,7.8536126 c 0.3245248,0.368384 0.8538182,0.249871 1.28702,0.34187 0.060303,0.01276 0.1169491,0.03273 0.1816791,0.02292 -0.05151,-0.03255 -0.1197738,-0.03625 -0.1792747,-0.05855 -0.3361352,-0.126282 -0.388541,-0.48503 -0.5724917,-0.73194 0.2349539,0.155765 0.4296167,0.369028 0.6493298,0.569448 0.1529238,0.139483 0.3434396,0.199154 0.5410224,0.239247 -0.047481,0.01727 -0.1095881,0.01323 -0.1607275,0.02585 -0.3549172,0.08774 -0.7484165,0.226346 -1.1260699,0.102062 C 3.7652504,8.2843016 3.5116327,8.0943676 3.3884672,7.8536066 Z M 2.8682926,7.0009996 c 0.2024225,0.457027 0.7110014,0.492826 1.0491587,0.773192 0.064301,0.05335 0.1280375,0.102377 0.1986742,0.13523 l 0.00361,-0.0039 C 4.0417386,7.8353126 3.9572865,7.7513956 3.896855,7.6638226 3.70358,7.3837786 3.7678979,7.0009906 3.6188782,6.7040836 c 0.1353904,0.161664 0.2623824,0.328144 0.340341,0.51323 0.1254581,0.297865 0.1680759,0.637689 0.449446,0.864032 C 4.1041353,7.9811706 3.7528323,8.0011126 3.4786022,7.8219896 3.1903432,7.6337086 2.9231953,7.3365346 2.8682959,7.0009776 Z m -0.2168368,-0.92465 c 0.029269,0.402665 0.4591532,0.617754 0.6641279,0.948749 0.043782,0.07069 0.08883,0.143675 0.1524068,0.200759 -0.00991,-0.04291 -0.045284,-0.08086 -0.064754,-0.12292 -0.065745,-0.142015 -0.095498,-0.306379 -0.07909,-0.475372 0.019966,-0.205614 0.1059219,-0.396558 0.072934,-0.612868 0.1766753,0.3803 0.1196863,0.855731 0.2217932,1.26693 0.022596,0.09097 0.078141,0.170569 0.1123706,0.256726 C 3.557649,7.4066666 3.3301599,7.2897626 3.1396152,7.1399866 2.9553406,6.9951366 2.7953942,6.8253666 2.7122409,6.6044656 2.6523299,6.4452866 2.6367497,6.2554166 2.6514544,6.0763306 Z m 0.012014,-0.7419 c 0.020738,-0.08986 0.036605,-0.182878 0.075812,-0.26532 -0.074234,0.379846 0.1791711,0.65423 0.2656723,0.982855 0.0326,0.123843 0.043759,0.255431 0.093977,0.370988 0.00473,0.0029 0.00873,-0.0027 0.011637,-0.0062 -0.1250219,-0.34974 0.058248,-0.672967 0.2367829,-0.948643 0.046928,-0.07246 0.069519,-0.156842 0.091434,-0.242148 0.019301,0.158329 -0.014492,0.341593 -0.043859,0.504979 -0.037815,0.210337 -0.1099044,0.407476 -0.1672051,0.610409 -0.037722,0.126781 -0.027779,0.269864 -0.00842,0.402691 l -0.018195,-0.01441 C 3.0681909,6.4849716 2.8059477,6.2938086 2.7267488,6.0267406 2.6634509,5.8132836 2.619664,5.5666806 2.6634818,5.3344496 Z m 0.140198,-0.408605 c 0,-0.287449 0.1122311,-0.521925 0.2805873,-0.735998 0.00492,-0.0028 0.00836,-0.0073 0.014668,-0.0062 -0.1853381,0.281135 -0.016652,0.63601 -0.040468,0.954883 l -0.02444,0.327275 c 0.00359,0.0027 0.00359,0.0122 0.012242,0.0084 0.010938,-0.03645 0.014266,-0.0753 0.02064,-0.112977 0.044622,-0.263847 0.276944,-0.447479 0.4739659,-0.63376 0.046609,-0.04407 0.08073,-0.09616 0.1027075,-0.152146 -0.01639,0.131438 -0.053149,0.266171 -0.1123105,0.385597 C 3.3796109,5.2671206 3.0867031,5.5142696 3.0340168,5.8622296 3.0084743,5.5288706 2.803668,5.2809716 2.803668,4.9259196 Z m 0.488513,-0.969625 c 0.093196,-0.103046 0.197643,-0.183309 0.3219872,-0.215063 -0.2414605,0.165582 -0.2283595,0.461488 -0.3022764,0.708915 -0.027031,0.09048 -0.066758,0.175234 -0.087881,0.268734 l 0.00606,0.0054 c 0.040175,-0.10573 0.1090969,-0.207345 0.1988926,-0.291826 0.1698321,-0.159796 0.4251763,-0.256505 0.5092129,-0.490246 -0.00383,0.324815 -0.281487,0.571713 -0.5350606,0.762731 -0.1137341,0.08567 -0.2103901,0.2007 -0.2693756,0.321284 0.00986,-0.08975 0.014332,-0.164399 0.00624,-0.252001 -0.026014,-0.283761 -0.042898,-0.601857 0.1520956,-0.817445 z m 0.9800675,-0.546083 c -0.1792001,0.156803 -0.2987808,0.358639 -0.4364476,0.540078 -0.1144993,0.150907 -0.2716033,0.244408 -0.4067199,0.371047 0.072934,-0.150898 0.086399,-0.323806 0.1790231,-0.469783 0.1583832,-0.249624 0.4201448,-0.346517 0.6641444,-0.441342 z"
     id="path1315-3-5"
     style="opacity:0.9;fill:#ffffff;fill-opacity:1;stroke-width:0.0240756" />
  <path
     d="m 5.1595315,8.8690126 c 0.039747,0.04525 0.091173,0.08761 0.1396615,0.126643 0.3132528,-0.322847 0.6810372,-0.68065 1.0305987,-0.68065 0.2167328,0 0.3728287,0.16452 0.5549357,0.280602 0.2527174,0.161093 0.5993884,0.251815 0.8964712,0.13358 0.1597841,-0.06051 0.3145955,-0.149617 0.4302946,-0.294391 -0.2338174,0.160811 -0.5839707,0.182425 -0.8479312,0.073224 -0.2917711,-0.120709 -0.5887359,-0.280985 -0.9212425,-0.280985 -0.490152,0 -0.9559885,0.330627 -1.2827865,0.641984 z m 3.6226517,-1.015402 c -0.3245237,0.368384 -0.8538181,0.249871 -1.2870197,0.34187 -0.060303,0.01276 -0.1169491,0.03273 -0.1816786,0.02292 0.051508,-0.03252 0.1197732,-0.03625 0.1792739,-0.05854 0.3361355,-0.126281 0.3885415,-0.485029 0.5724918,-0.73194 -0.2349539,0.155765 -0.4296167,0.369028 -0.6493297,0.569448 -0.1529239,0.139481 -0.3434395,0.199156 -0.5410226,0.239248 0.047481,0.01727 0.1095884,0.01323 0.1607279,0.02585 0.354917,0.0878 0.7484162,0.226402 1.1260696,0.102117 0.2437194,-0.08021 0.4973372,-0.270148 0.6205023,-0.510911 z m 0.5201897,-0.852613 c -0.202423,0.457027 -0.7110012,0.492825 -1.0491586,0.773192 -0.064303,0.05335 -0.1280379,0.102378 -0.1986745,0.13523 l -0.00361,-0.0039 c 0.078024,-0.07038 0.1624772,-0.154291 0.222909,-0.241862 0.1932742,-0.280048 0.128957,-0.662836 0.2779766,-0.959741 -0.135393,0.161678 -0.2623851,0.328153 -0.3403437,0.513241 -0.1254603,0.297876 -0.168078,0.637704 -0.4494483,0.864044 0.3045332,-0.100191 0.6558361,-0.08025 0.9300651,-0.259373 0.2882599,-0.188279 0.5554073,-0.485455 0.6103087,-0.821011 z M 9.51921,6.0763486 c -0.029284,0.402665 -0.4591527,0.617752 -0.6641293,0.948748 -0.043765,0.0707 -0.088828,0.143676 -0.1524053,0.200759 0.00988,-0.04288 0.045272,-0.08086 0.064753,-0.12292 0.065744,-0.142015 0.095496,-0.306378 0.07909,-0.475372 -0.019971,-0.205613 -0.1059225,-0.396557 -0.072934,-0.612868 -0.1766769,0.380299 -0.1196861,0.855732 -0.221793,1.26693 -0.022602,0.09097 -0.078141,0.17057 -0.1123712,0.256725 0.173594,-0.131686 0.4010853,-0.24859 0.5916297,-0.398365 0.1842749,-0.14485 0.344221,-0.31462 0.4273722,-0.535522 0.05995,-0.159179 0.075491,-0.349049 0.060775,-0.528134 z m -0.012069,-0.7419 c -0.020787,-0.08986 -0.036551,-0.182879 -0.07581,-0.265321 0.074232,0.379847 -0.1791698,0.654231 -0.2656729,0.982856 -0.032588,0.123843 -0.043717,0.255432 -0.093975,0.370987 -0.00495,0.0029 -0.00873,-0.0027 -0.011642,-0.0062 0.1250255,-0.349715 -0.058261,-0.67294 -0.2367777,-0.948618 -0.046931,-0.07246 -0.069517,-0.156842 -0.091433,-0.242147 -0.019297,0.158329 0.01448,0.341593 0.043849,0.504979 0.03783,0.210336 0.1099039,0.407475 0.1672046,0.61041 0.037744,0.12678 0.027758,0.269864 0.00841,0.402689 l 0.018199,-0.01442 c 0.1329224,-0.244706 0.3951662,-0.43587 0.4743649,-0.702937 0.063287,-0.213457 0.107087,-0.460062 0.063251,-0.69229 z M 9.3669554,4.9258436 c 0,-0.287448 -0.1122318,-0.521924 -0.2805881,-0.735999 -0.00522,-0.0028 -0.00834,-0.0073 -0.01465,-0.0062 0.1853399,0.281134 0.016629,0.636009 0.040484,0.954884 l 0.024467,0.327274 c -0.00379,0.0027 -0.00379,0.01217 -0.012224,0.0084 -0.010933,-0.03643 -0.014278,-0.0753 -0.020673,-0.112978 -0.044643,-0.263847 -0.2769446,-0.447478 -0.4739672,-0.633759 -0.046613,-0.044073 -0.080729,-0.09616 -0.1027058,-0.152145 0.01641,0.131425 0.053152,0.266158 0.1123101,0.385581 0.1516518,0.306175 0.4445605,0.553322 0.4972468,0.901284 0.02552,-0.333469 0.2303521,-0.581365 0.2303521,-0.936419 z M 8.8784737,3.9562166 c -0.093197,-0.103044 -0.197643,-0.183308 -0.3219874,-0.215063 0.2414599,0.165584 0.2283598,0.46149 0.3022764,0.708915 0.027033,0.09048 0.066758,0.175236 0.087881,0.268736 l -0.00604,0.0054 C 8.9002972,4.6182326 8.83139,4.5166166 8.7415945,4.4321346 8.5717613,4.2723416 8.316417,4.1756316 8.2323801,3.9418876 c 0.00383,0.324818 0.281488,0.571713 0.5350603,0.76273 0.1137339,0.08567 0.2103921,0.200704 0.2693747,0.321288 -0.00986,-0.08975 -0.014315,-0.164401 -0.00617,-0.252006 0.026022,-0.283733 0.042934,-0.601829 -0.1520822,-0.817417 z m -0.980056,-0.546081 c 0.1791996,0.156803 0.2987804,0.358638 0.4364474,0.540078 0.1144987,0.150906 0.2716033,0.244408 0.4067196,0.371047 C 8.6686507,4.1703626 8.6551859,3.9974546 8.5625616,3.8514776 8.4041788,3.6018536 8.142417,3.5049596 7.8984177,3.4101356 Z"
     id="path4982"
     style="opacity:0.81;fill:#ffffff;fill-opacity:1;stroke-width:0.0240756" />
  <path
     d="M 8.2737842,6.6569236 8.2208559,6.6280856 C 8.1086327,6.8588976 7.9600363,7.0689266 7.7822823,7.2505826 L 7.4730562,6.9422276 c 0.1514925,-0.155679 0.2736397,-0.332379 0.3636225,-0.523352 l -0.052683,-0.02875 c -0.088957,0.189387 -0.2086377,0.36169 -0.3529732,0.510146 L 7.1509036,6.6209376 c 0.1202523,-0.124663 0.2156715,-0.266906 0.2845421,-0.420627 l -0.052273,-0.02843 c -0.067446,0.151497 -0.1604931,0.289271 -0.2741868,0.407355 L 6.7994206,6.2705216 c 0.086089,-0.09098 0.1525545,-0.195656 0.1977906,-0.30893 l -0.052288,-0.028426 c -0.043221,0.110451 -0.1071158,0.210731 -0.187153,0.295788 L 6.4767994,5.9487856 c 0.080041,-0.08907 0.12646,-0.200832 0.1330286,-0.320224 h 0.3977048 c -0.00331,0.107163 -0.0254,0.209672 -0.062604,0.304599 l 0.052288,0.02843 c 0.041854,-0.10495 0.065489,-0.217207 0.068873,-0.333055 h 0.438409 c -0.00391,0.193018 -0.047098,0.376562 -0.1213413,0.543332 l 0.052273,0.02843 c 0.079719,-0.178027 0.1237713,-0.371502 0.1276704,-0.571786 h 0.396951 c -0.00415,0.27182 -0.067054,0.529561 -0.1760866,0.761629 l 0.052685,0.02875 c 0.1152584,-0.244599 0.1779017,-0.512681 0.182033,-0.790359 h 0.4383805 c -0.0044,0.357801 -0.088896,0.696583 -0.2362374,0.999596 l 0.052954,0.02882 c 0.1585006,-0.325554 0.2426428,-0.685065 0.2426428,-1.057609 0,-0.316813 -0.060856,-0.624168 -0.176515,-0.909305 l -0.054325,0.02326 c 0.1089218,0.269071 0.1679573,0.558432 0.1715869,0.856793 h -0.438435 c -0.00352,-0.238019 -0.050459,-0.468834 -0.1362594,-0.683999 l -0.053923,0.02308 c 0.082766,0.208012 0.128072,0.431002 0.1315691,0.660961 H 7.5631291 c -0.00334,-0.175312 -0.03767,-0.345394 -0.099535,-0.504529 l -0.053925,0.02312 c 0.058842,0.151862 0.091475,0.314163 0.094903,0.481403 H 7.0661208 c -0.00315,-0.106881 -0.023408,-0.210809 -0.059406,-0.308709 l -0.053912,0.02308 c 0.033063,0.09068 0.051658,0.186778 0.054764,0.285635 H 6.609862 C 6.603292,5.4507156 6.556872,5.3389756 6.4768338,5.2499006 l 0.2812523,-0.280449 c 0.08685,0.09211 0.1525397,0.199083 0.1947358,0.315036 l 0.053912,-0.02307 C 6.9615731,5.1387546 6.8916894,5.0255956 6.7994675,4.9281206 l 0.3100232,-0.309129 c 0.1322923,0.137313 0.2332725,0.296747 0.3001963,0.469695 l 0.053924,-0.02308 C 7.3937324,4.8859286 7.2885511,4.7202906 7.1509279,4.5776576 l 0.2807057,-0.27997 c 0.1738446,0.178793 0.3074113,0.38626 0.3969217,0.61144 l 0.053925,-0.02307 C 7.7899902,4.6541706 7.6522422,4.4404986 7.4730717,4.2564196 l 0.3099774,-0.309173 c 0.2192281,0.223962 0.388335,0.483833 0.5025298,0.766045 l 0.054325,-0.02324 C 8.2192368,4.3922416 8.03885,4.1187396 7.8042496,3.8848026 7.5687932,3.6499726 7.2933246,3.4696756 6.9934237,3.3493236 l -0.021596,0.05481 c 0.2836125,0.113922 0.5447836,0.282762 0.7697809,0.501786 l -0.309981,0.309183 C 7.2501542,4.0397306 7.0399131,3.9037836 6.811672,3.8116846 l -0.021393,0.05435 c 0.2207019,0.08929 0.4241427,0.220781 0.5999347,0.390831 l -0.280692,0.279943 C 6.9730644,4.4059056 6.8157136,4.3042446 6.6451443,4.2346466 l -0.021433,0.05434 c 0.1632068,0.06672 0.3137246,0.16398 0.4443841,0.289129 l -0.3099737,0.30914 C 6.670929,4.8052986 6.571223,4.7409776 6.4634899,4.6961126 l -0.021444,0.05439 c 0.1003981,0.04198 0.1932457,0.10182 0.2746431,0.178072 l -0.2812047,0.280441 c -0.089379,-0.07983 -0.2014036,-0.126107 -0.321174,-0.132626 v -0.396582 c 0.1142917,0.0039 0.22495,0.02767 0.3277397,0.07073 l 0.021444,-0.05439 C 6.3539579,4.6504926 6.2360149,4.6249356 6.1143104,4.6213696 v -0.437208 c 0.1775185,0.0039 0.3495177,0.03952 0.5094203,0.104881 l 0.021433,-0.05435 C 6.4785293,4.1666696 6.2992421,4.1293156 6.1143023,4.1257556 v -0.39607 c 0.2354113,0.0039 0.4636691,0.05037 0.6759607,0.136226 l 0.021393,-0.05435 C 6.5926056,3.7230636 6.3571945,3.6748636 6.1142881,3.6712756 v -0.437261 c 0.2986168,0.0039 0.5882493,0.06231 0.8575649,0.170444 l 0.021596,-0.05482 C 6.7084944,3.2352276 6.4014384,3.1749376 6.0850269,3.1749376 c -0.3909018,0 -0.7602487,0.09301 -1.0877828,0.257134 l 0.026722,0.05103 c 0.3169411,-0.1584 0.6675955,-0.24468 1.0317788,-0.249062 v 0.437273 c -0.2970099,0.0049 -0.5776572,0.07627 -0.8279411,0.200212 l 0.026622,0.05089 c 0.2465826,-0.121739 0.5187763,-0.188425 0.8013121,-0.192722 v 0.395912 c -0.2208494,0.0048 -0.4298227,0.05732 -0.6168569,0.148334 l 0.026792,0.05113 c 0.1820749,-0.08817 0.3822844,-0.13688 0.590077,-0.141055 v 0.437253 c -0.1377902,0.0044 -0.268474,0.03657 -0.3864754,0.09183 l 0.026929,0.05131 c 0.1116245,-0.05172 0.2334052,-0.08083 0.3595492,-0.08472 v 0.396644 c -0.061691,0.0038 -0.1205389,0.01744 -0.1747734,0.0403 l 0.026876,0.05128 c 0.055475,-0.02267 0.1154087,-0.03457 0.1771783,-0.03457 0.1249213,0 0.2423454,0.04852 0.3306921,0.136584 0.088334,0.08809 0.1369746,0.205227 0.1369746,0.329819 0,0.257153 -0.2097546,0.466428 -0.4676667,0.466428 -0.1249541,0 -0.242406,-0.04855 -0.3307361,-0.136618 -0.088332,-0.08815 -0.1369862,-0.205238 -0.1369862,-0.329827 0,-0.12459 0.04865,-0.241734 0.1369864,-0.329823 0.044679,-0.04455 0.096799,-0.07883 0.1535432,-0.101998 l -0.026876,-0.05129 c -0.0539,0.02272 -0.1032163,0.05401 -0.1462102,0.09247 L 5.4533815,4.9283976 c 0.072691,-0.06812 0.1545471,-0.123197 0.242788,-0.164096 l -0.026926,-0.05131 c -0.094902,0.04446 -0.1815753,0.103472 -0.2570126,0.17439 L 5.1019292,4.5779286 c 0.1088178,-0.10424 0.2315471,-0.188946 0.3637259,-0.252976 l -0.026792,-0.05111 C 5.2992684,4.3417646 5.1718357,4.4308156 5.0610038,4.5370736 L 4.7797994,4.2566746 c 0.1419315,-0.137327 0.3020981,-0.249217 0.4746002,-0.334346 l -0.026624,-0.05088 c -0.1805733,0.08946 -0.345492,0.205859 -0.488795,0.344549 L 4.4283522,3.9062196 C 4.6064319,3.7328586 4.8073645,3.5912766 5.023935,3.4830326 l -0.026724,-0.05104 c -0.4734045,0.237255 -0.858818,0.623883 -1.0935079,1.097842 l 0.050936,0.02744 c 0.1094533,-0.222008 0.254212,-0.427828 0.43229,-0.609798 l 0.3106577,0.309796 C 4.5530807,4.4057536 4.4323437,4.5772776 4.341416,4.7657036 l 0.050746,0.02737 c 0.086607,-0.180428 0.2027328,-0.347537 0.3461833,-0.495065 l 0.2812237,0.280421 c -0.1133477,0.117575 -0.2071275,0.253907 -0.2766483,0.403656 l 0.050856,0.02739 c 0.065481,-0.142368 0.1549621,-0.274192 0.266736,-0.390219 l 0.3103019,0.309459 c -0.079316,0.0839 -0.1439194,0.181768 -0.1897781,0.28944 l 0.051278,0.02763 c 0.042144,-0.10098 0.1025508,-0.194374 0.1795996,-0.276104 l 0.2813684,0.28056 c -0.077244,0.0861 -0.1262869,0.197415 -0.1330951,0.320088 H 5.162395 c 0.00348,-0.113102 0.027449,-0.222692 0.069918,-0.324551 L 5.181036,5.2181686 C 5.134709,5.3269326 5.107541,5.4457616 5.103825,5.5703616 H 4.6654179 c 0.00389,-0.196756 0.048192,-0.386741 0.1283475,-0.560913 l -0.050859,-0.02742 c -0.083423,0.179637 -0.1319017,0.378614 -0.1359955,0.588315 H 4.209841 c 0.00414,-0.273423 0.067066,-0.537196 0.1823275,-0.777314 l -0.050745,-0.027344 c -0.11794,0.244254 -0.1857663,0.51687 -0.1900745,0.804654 H 3.7128513 c 0.00431,-0.357097 0.087987,-0.701189 0.2417699,-1.013057 l -0.050936,-0.02745 c -0.1598589,0.322893 -0.2501073,0.685904 -0.2501073,1.069691 0,0.234759 0.033624,0.464207 0.097844,0.683386 l 0.05743,-0.01437 c -0.06039,-0.205402 -0.093344,-0.420107 -0.095999,-0.639756 h 0.4384258 c 0.00276,0.183145 0.030999,0.362101 0.082938,0.532945 l 0.056851,-0.0143 C 4.24022,5.9812296 4.2125797,5.8070436 4.2098327,5.6287816 h 0.3969966 c 0.00289,0.145197 0.026874,0.286872 0.070114,0.4217 l 0.05695,-0.01432 c -0.04216,-0.130155 -0.065611,-0.267064 -0.068462,-0.407366 h 0.4384113 c 0.00312,0.103836 0.022319,0.204876 0.056414,0.300319 l 0.056979,-0.01434 c -0.033042,-0.09078 -0.051744,-0.187036 -0.054837,-0.285981 H 5.560148 c 0.00657,0.119401 0.052955,0.231156 0.1329924,0.320226 L 5.411915,6.2294796 C 5.3251578,6.1374106 5.2594779,6.0305846 5.2172232,5.9147676 l -0.056982,0.01432 c 0.045008,0.125847 0.1159377,0.241981 0.2102427,0.341663 L 5.0605081,6.5799176 C 4.9097247,6.4233696 4.799366,6.2378406 4.7340058,6.0362736 l -0.056948,0.01432 c 0.06787,0.211658 0.1835957,0.406369 0.3421559,0.570711 L 4.7384656,6.9012956 C 4.5285199,6.6853976 4.3768798,6.4278526 4.2912037,6.1475266 l -0.05685,0.01428 c 0.088287,0.290388 0.2451635,0.557282 0.4626795,0.780769 L 4.3870405,7.2517396 C 4.1126767,6.9713986 3.9167167,6.6349296 3.8089849,6.2686376 l -0.057431,0.0144 c 0.1130041,0.385637 0.321486,0.739134 0.6143193,1.031096 0.1983064,0.197802 0.42497,0.357009 0.6706944,0.474331 l 0.029097,-0.0515 C 4.8331048,7.6264746 4.6179786,7.4775376 4.4284669,7.2930056 l 0.3099777,-0.309103 c 0.1611104,0.155943 0.3448258,0.280294 0.5434708,0.370883 l 0.02893,-0.05119 C 5.1167259,7.2157766 4.9372016,7.0946736 4.7799114,6.9426146 l 0.28072,-0.279959 c 0.131569,0.126228 0.2826399,0.225183 0.4462292,0.294496 l 0.028905,-0.05112 C 5.3768659,6.8395696 5.2299182,6.7439376 5.1021514,6.6215256 l 0.3100213,-0.309149 c 0.099617,0.09372 0.2155837,0.1643 0.3412994,0.209205 l 0.029293,-0.05172 C 5.6614244,6.4279376 5.5495097,6.3609366 5.453609,6.2710836 l 0.2812232,-0.280475 c 0.089323,0.07989 0.2013301,0.126136 0.3211166,0.132684 v 0.39665 c -0.094337,-0.0034 -0.1861929,-0.02014 -0.2731807,-0.05004 l -0.029294,0.05172 c 0.096099,0.03433 0.19782,0.0537 0.3024841,0.0567 v 0.437168 C 5.874544,7.0115906 5.6987671,6.9744106 5.535899,6.9062546 l -0.028905,0.05111 c 0.1717496,0.0728 0.3572633,0.112875 0.5489607,0.116565 v 0.395907 C 5.7947233,7.4654366 5.542432,7.4085966 5.3109756,7.3038356 l -0.02893,0.0512 c 0.2402655,0.109482 0.5024566,0.169213 0.7739106,0.17326 v 0.437152 C 5.7077381,7.9612476 5.371676,7.8825376 5.0658151,7.7372326 l -0.029095,0.05153 c 0.3232404,0.154295 0.67956,0.235864 1.0485393,0.235864 0.3870509,0 0.7599686,-0.09019 1.0956027,-0.259535 l -0.027714,-0.05366 C 6.8401426,7.8694936 6.487777,7.9608606 6.114521,7.9654356 v -0.437165 c 0.2959464,-0.0047 0.5808285,-0.0751 0.8382237,-0.204215 l -0.027365,-0.05291 c -0.2446654,0.12287 -0.5196606,0.194146 -0.8108564,0.198665 v -0.395913 c 0.2220447,-0.0047 0.4357537,-0.05743 0.629353,-0.153687 l -0.027204,-0.05263 c -0.1821359,0.09059 -0.3861816,0.143506 -0.6021477,0.147904 v -0.437167 c 0.1414139,-0.0045 0.2775487,-0.03809 0.401452,-0.09855 l -0.027019,-0.0523 c -0.1137986,0.05539 -0.2405017,0.08823 -0.3744522,0.09246 v -0.396597 c 0.1197664,-0.0068 0.2317964,-0.05279 0.3211758,-0.132687 l 0.2809282,0.280178 c -0.067262,0.06292 -0.1439453,0.115877 -0.2276515,0.156643 l 0.027019,0.0523 c 0.087769,-0.04286 0.1694904,-0.09886 0.2423449,-0.167391 l 0.3095055,0.308663 c -0.1033309,0.099 -0.2217344,0.18219 -0.3511697,0.246529 l 0.027204,0.05263 c 0.1327523,-0.06599 0.2561546,-0.152111 0.3658789,-0.257352 l 0.2801168,0.279312 c -0.1364575,0.131971 -0.2930847,0.243027 -0.464481,0.328996 l 0.027365,0.05291 c 0.1740502,-0.08727 0.3356194,-0.200975 0.4791443,-0.339954 l 0.3092256,0.30837 c -0.1725173,0.167918 -0.3708678,0.309325 -0.5879554,0.41892 l 0.027714,0.05366 c 0.2274904,-0.114809 0.438086,-0.265616 0.623645,-0.450676 0.1950748,-0.19449 0.3524835,-0.41645 0.4695396,-0.656855 z"
     id="path1322-2"
     style="opacity:1;fill:#2ad4ff;fill-opacity:1;stroke-width:0.0240756" />
  <polygon
     transform="matrix(0.01155873,0,0,0.0116984,0.1670048,2.5034636)"
     points="522.77,216.72 522.83,218.22 524.11,218.16 524.04,216.67 "
     id="polygon1324-9"
     style="opacity:1;fill:#2ad4ff;fill-opacity:1;stroke-width:1.63409" />
  <rect
     x="6.1880331"
     y="5.0148115"
     width="0.01959159"
     height="0.014892427"
     id="rect1326-1"
     style="opacity:1;fill:#2ad4ff;fill-opacity:1;stroke-width:0.0240756" />
  <polygon
     transform="matrix(0.01155873,0,0,0.0116984,0.1670048,2.5034636)"
     points="519.34,214.45 519.52,213.19 518.03,212.98 517.85,214.23 "
     id="polygon1328-2"
     style="opacity:1;fill:#2ad4ff;fill-opacity:1;stroke-width:1.63409" />
  <rect
     transform="matrix(-0.98977001,-0.14267213,0.13934825,-0.99024344,0,0)"
     x="-6.7757072"
     y="-4.0776958"
     width="0.017296325"
     height="0.014912409"
     id="rect1330-7"
     style="opacity:1;fill:#2ad4ff;fill-opacity:1;stroke-width:0.0240757" />
  <rect
     x="5.9968276"
     y="4.984952"
     width="0.01959159"
     height="0.014904198"
     id="rect1332-0"
     style="opacity:1;fill:#2ad4ff;fill-opacity:1;stroke-width:0.0240756" />
  <polygon
     transform="matrix(0.01155873,0,0,0.0116984,0.1670048,2.5034636)"
     points="502.15,214.87 502.33,213.61 500.85,213.4 500.67,214.66 "
     id="polygon1334-9"
     style="opacity:1;fill:#2ad4ff;fill-opacity:1;stroke-width:1.63409" />
  <rect
     transform="matrix(-0.9693538,-0.2456689,0.24017825,-0.9707288,0,0)"
     x="-6.9914594"
     y="-3.4196329"
     width="0.020275697"
     height="0.014881501"
     id="rect1336-3"
     style="opacity:1;fill:#2ad4ff;fill-opacity:1;stroke-width:0.0240756" />
  <rect
     transform="matrix(-0.161495,-0.98687353,0.98624122,-0.16531262,0,0)"
     x="-5.9647293"
     y="5.0266409"
     width="0.015098107"
     height="0.014731212"
     id="rect1338-6"
     style="opacity:1;fill:#2ad4ff;fill-opacity:1;stroke-width:0.0240757" />
  <polygon
     transform="matrix(0.01155873,0,0,0.0116984,0.1670048,2.5034636)"
     points="330.58,346.22 329.52,346.22 329.52,348.34 331.22,348.34 331.22,351.1 332.5,351.1 332.28,347.92 330.58,347.28 "
     id="polygon1340-0"
     style="opacity:1;fill:#2ad4ff;fill-opacity:1;stroke-width:1.63409" />
  <polygon
     transform="matrix(0.01155873,0,0,0.0116984,0.1670048,2.5034636)"
     points="344.38,360.43 345.86,361.5 347.35,364.68 346.5,366.16 344.17,364.04 342.47,361.71 341.62,359.8 340.13,355.98 343.31,357.46 "
     id="polygon1342-6"
     style="opacity:1;fill:#2ad4ff;fill-opacity:1;stroke-width:1.63409" />
  <polygon
     transform="matrix(0.01155873,0,0,0.0116984,0.1670048,2.5034636)"
     points="390.21,421.12 388.51,418.57 391.06,419 393.81,421.33 394.88,424.09 393.39,424.94 392.54,423.67 390.42,423.03 "
     id="polygon1344-2"
     style="opacity:1;fill:#2ad4ff;fill-opacity:1;stroke-width:1.63409" />
  <path
     d="m 6.0090742,5.1984316 h -0.026972 l -0.00496,-0.05455 0.01472,-0.01 v -0.02733 h -0.085788 l -0.00249,-0.02734 0.012302,-0.0075 -0.019651,-0.0075 -0.014721,0.01985 -0.00491,0.02238 -0.024543,0.0055 v 0.01234 h -0.017144 v 0.03223 l -0.068693,0.05707 -0.1373296,-0.0055 c -0.00984,0.02237 -0.034381,-0.0029 -0.034381,-0.0029 -0.00491,-0.01485 -0.039179,0 -0.039179,0 0,0.02738 -0.046607,-0.01234 -0.046607,-0.01234 l -0.085826,-0.06188 c -0.049046,-0.04471 -0.1226143,0.01239 -0.1250523,0.02484 0.00248,0.03471 -0.056405,0.0075 -0.056405,0.0075 0,0 -0.049046,-0.01483 -0.056415,0.0055 -0.00734,0.01985 -0.039276,0.01487 -0.039276,0.01487 l -0.00496,0.0099 -0.02454,0.0055 -0.0049,0.01483 -0.029451,0.0055 0.073559,-0.0029 c 0.01964,-0.0028 -0.00738,0.04225 -0.019597,0.03975 l -0.034308,0.0028 -0.012303,0.01234 h -0.031859 l -0.014702,0.01991 -0.046574,-0.0029 c 0,0 -0.027018,0.02237 -0.024533,0.02975 0.00249,0.0075 -0.00496,0.02978 -0.012288,0.02978 -0.00736,0 -0.022078,0.02236 -0.017158,0.02975 0.00498,0.0075 -0.014702,0.03225 -0.014702,0.03225 l -0.00494,0.02487 -0.014702,0.0055 v 0.06705 l -0.029454,0.01987 v 0.02975 l -0.04418,0.04721 0.00498,0.03971 -0.036766,0.03975 0.00491,0.03974 -0.022067,0.0075 -0.00492,0.01733 -0.00982,0.05208 0.024519,0.0029 c 0.01223,-0.0055 0.00982,0.03223 0,0.03716 -0.00984,0.0055 -0.036822,0.01485 -0.022078,0.02483 0.01472,0.0099 -0.039253,0.0075 -0.039253,-0.0075 0,-0.01485 -0.029441,-0.02734 -0.036764,-0.02236 -0.00738,0.0055 -0.019652,-0.02238 -0.019652,-0.02238 -0.02697,-0.02734 -0.1103616,0.0028 -0.1103616,0.0028 l -0.012303,0.03974 c -0.026949,0.0055 -0.044105,0.04964 -0.044105,0.04964 -0.022081,0.0075 -0.039239,0.0347 -0.031882,0.04224 0.00734,0.0075 -0.012302,0.0099 -0.012302,0.0099 v 0.05459 l -0.012243,0.01733 0.00248,0.05958 c 0.014735,0 0.012302,0.02737 0.012302,0.02737 -0.024542,0.0028 -0.019665,0.03471 -0.019665,0.03471 l -0.051488,0.01732 -0.00981,0.01484 -0.063756,-0.0029 -0.017158,0.01736 -0.017212,-0.01736 H 4.1671479 l -0.0049,-0.01236 -0.024544,-0.0055 -0.00253,-0.02733 -0.036763,0.0028 -0.00734,0.01485 -0.039264,0.0028 c 0.00249,0.02485 -0.039238,0.06211 -0.044105,0.05216 -0.00498,-0.0099 -0.031923,-0.03726 -0.01964,-0.04223 0.01227,-0.0055 0.04418,-0.0099 0.04418,-0.0099 v -0.01732 l -0.090782,-0.0028 -0.00978,0.01489 -0.036836,0.0028 v 0.03975 l -0.017139,0.0055 c -0.012288,0.0074 0.00248,0.03471 0.00248,0.03471 0.017161,0.01731 -0.00248,0.04466 -0.00248,0.04466 -0.014735,0.01488 0.012229,0.04229 0.012229,0.04229 0.019652,0.0055 -0.012229,0.01984 -0.012229,0.01984 0.00491,0.02484 0.019598,0.03223 0.019598,0.03223 -0.014735,0.02485 0.00984,0.03717 0.00984,0.03717 l 0.00248,0.04229 0.017158,0.0099 v 0.0273 l 0.00982,0.01736 h 0.039238 l -0.00249,-0.06209 c -0.034351,-0.03975 0.029408,-0.04964 0.031898,-0.03475 0.00251,0.01488 0.029442,0.02239 0.029442,0.02239 0.00496,0.03723 0.046618,0.05958 0.058843,0.02241 0.01227,-0.03726 0.022081,-0.01487 0.029443,0.0028 0.00736,0.01736 0.053914,0.05964 0.053914,0.05964 h 0.036809 l 0.00498,0.03471 c 0.041678,-0.0029 0.053914,0.0029 0.071075,0.05958 0.017211,0.05704 0.063783,0.07197 0.063783,0.07197 l 0.034349,-0.0028 c 0,-0.02973 0.034337,0.0055 0.034337,0.01994 0,0.0148 0.066209,0.07193 0.066209,0.07193 l 0.066199,0.01483 0.061389,0.04966 0.04656,-0.0055 h 0.019652 c 0.012228,-0.04229 0.071122,0.0028 0.075986,0.01731 0.00497,0.01489 0.04418,0.03975 0.049046,0.02734 0.00497,-0.01234 0.031897,-0.0055 0.036822,0.03223 0.00494,0.03726 0.022028,0.02977 0.022028,0.02977 l 0.139825,-0.0028 0.049046,-0.04229 0.1250982,-0.0028 c 0.063756,-0.0028 0.024521,-0.08938 0.012288,-0.08938 -0.022078,-0.01731 0.00733,-0.08934 0.00733,-0.08934 L 5.0206884,6.5438906 c -0.041678,0 -0.00496,-0.05964 -0.00496,-0.05964 0.031879,-0.01988 -0.00738,-0.05207 -0.00738,-0.05207 0.00497,-0.02977 -0.017158,-0.06461 -0.017158,-0.06461 -0.044105,-0.02976 -0.031877,-0.08689 -0.031877,-0.08689 v -0.03975 c -0.036764,-0.03466 0.01472,-0.03975 0.01472,-0.03975 0.017139,-0.02967 -0.012288,-0.05205 -0.012288,-0.05205 l -0.00248,-0.03225 -0.039251,-0.0055 -0.0049,-0.116666 -0.088287,-0.126579 c -0.017209,-0.0055 -0.00497,-0.03471 -0.00497,-0.03471 0.022081,-0.01237 -0.00497,-0.04221 -0.00497,-0.04221 l -0.00248,-0.05459 0.051486,-0.0055 0.012288,-0.01984 h 0.024525 l -0.00248,-0.06459 c 0.012243,-0.03223 0.041665,-0.01489 0.041665,-0.01489 l 0.034337,0.0029 0.01964,-0.03721 0.00491,-0.02975 -0.026949,-0.0028 c -0.02941,-0.01724 -0.01469,-0.08179 -0.01469,-0.08179 0.046607,-0.06952 0.100525,-0.02978 0.100525,-0.02978 l 0.03437,-0.0028 c 0.051487,0.0347 0.0049,0.09928 0.0049,0.09928 -0.00981,0.01488 -0.0049,0.06209 -0.0049,0.06209 l 0.01224,0.07939 -0.031877,0.0274 c -0.02697,0.01489 -0.02697,0.04959 0.00253,0.05707 0.019599,0.0028 0.012242,0.0496 -0.017197,0.01732 -0.044106,0 0.02458,0.03974 0.00498,0.02974 0.044168,0.02239 0.034305,-0.01985 0.034305,-0.01985 l 0.058918,-0.04718 c 0.022078,-0.01732 0.061329,0.03723 0.061329,0.04474 0,0.0075 0.098085,0.0028 0.098085,0.0028 0.02697,0.01733 0.036763,0.06211 0.036763,0.06211 0.027016,-0.03474 0.083397,-0.0029 0.041717,0.01732 0.039205,0.02484 0.039205,0.04717 0.039205,0.04717 0.031923,-0.0099 0.031923,0.01489 0.031923,0.02238 0,0.0075 0.00982,-0.0372 0.00982,-0.0372 -0.036788,-0.02738 0.049046,-0.03721 0.024541,0.01237 l -0.014735,0.02239 0.024541,0.01985 0.00248,0.05709 c 0.053974,-0.0055 0.039251,-0.07201 0.039251,-0.07201 l 0.024531,-0.0055 c 0,-0.02239 0.017138,-0.0099 0.017138,-0.0099 -0.017138,-0.08442 0.039264,-0.09927 0.039264,-0.09927 0.031879,-0.0075 0.034316,-0.07451 0.034316,-0.07451 -0.022027,-0.0099 -0.00982,-0.04468 0.014719,-0.01482 0.024508,0.02974 -0.014719,-0.05965 -0.014719,-0.05965 l -0.019598,-0.01732 -0.02697,-0.0028 -0.00253,-0.02733 h -0.044089 l -0.00738,0.03472 -0.017162,0.0055 -0.00497,-0.0099 -0.00734,0.02734 h -0.044124 l -0.00248,-0.02976 0.02697,-0.0075 0.00982,-0.01485 0.00734,-0.03975 h 0.031898 l 0.041685,-0.01233 c 0.00248,-0.04225 0.024531,-0.03223 0.024531,-0.03223 l 0.014702,0.01236 0.022078,0.01733 0.00251,0.01484 -0.014734,0.0075 -0.00248,0.0199 0.00736,0.02733 h 0.019607 c 0.00734,-0.03974 0.058889,-0.03974 0.073594,-0.01488 l 0.014721,-0.03471 c -0.034325,-0.01733 -6.49e-4,-0.04473 0.00916,-0.03225 0.00981,0.01237 0.03252,-0.03223 0.03252,-0.03223 0,0 0.017161,0.02238 0,-0.0075 -0.017158,-0.02978 0.012244,-0.0447 0.012244,-0.0447 -0.00492,-0.02976 0.031897,-0.02484 0.031897,-0.02484 l 0.00253,-0.03971 -0.03437,-0.0029 c -0.00732,0.03472 -0.036751,0.0055 -0.022039,-0.0028 0.014734,-0.0075 0.029408,-0.02239 0.029408,-0.02239 v -0.02484 l 0.01472,-0.0055 0.00248,-0.02485 h 0.03681 l 0.031877,-0.01485 0.00738,-0.01237 0.034307,-0.0028 0.049046,-0.04473 -0.00491,-0.01985 c -0.029443,0 0,-0.02239 0,-0.02239 l 0.00489,-0.03712 z"
     id="path1346-6"
     style="opacity:1;fill:#2ad4ff;fill-opacity:1;stroke-width:0.0240756" />
  <path
     d="m 5.0207149,5.6898406 -0.044158,-0.0055 0.00253,0.01732 h 0.012242 c 0.019599,0.03472 0.00251,0.119151 0.00251,0.119151 0,0 -0.029409,0.0028 -0.034338,-0.01236 -0.0049,-0.01486 -0.017159,0.03224 -0.00736,0.03975 0.00981,0.0074 0.04417,0 0.046607,0.02737 0.00248,0.02733 0.022081,-0.01736 0.022081,-0.01736 v -0.168743 z"
     id="path1348-6-1"
     style="opacity:1;fill:#2ad4ff;fill-opacity:1;stroke-width:0.0240756" />
  <polygon
     transform="matrix(0.01155873,0,0,0.0116984,0.1670048,2.5034636)"
     points="419.7,293.6 419.91,290.42 421.19,290.2 421.4,288.71 418.21,290.84 416.09,289.57 416.09,294.66 419.49,299.11 420.76,296.14 421.19,294.23 "
     id="polygon1350-8"
     style="opacity:1;fill:#2ad4ff;fill-opacity:1;stroke-width:1.63409" />
  <polygon
     transform="matrix(0.01155873,0,0,0.0116984,0.1670048,2.5034636)"
     points="421.61,301.66 420.13,301.87 419.91,303.57 421.61,303.78 "
     id="polygon1352-7"
     style="opacity:1;fill:#2ad4ff;fill-opacity:1;stroke-width:1.63409" />
  <polygon
     transform="matrix(0.01155873,0,0,0.0116984,0.1670048,2.5034636)"
     points="419.7,312.48 417.9,312.69 417.9,314.18 419.7,313.97 "
     id="polygon1354-9"
     style="opacity:1;fill:#2ad4ff;fill-opacity:1;stroke-width:1.63409" />
  <path
     d="m 5.0471256,6.1000406 c 0.00568,0 0.01036,-0.0052 0.01036,-0.01045 0,-0.006 -0.00465,-0.01051 -0.01036,-0.01051 -0.00568,0 -0.010414,0.0052 -0.010414,0.01051 0,0.0059 0.00469,0.01045 0.010414,0.01045 z"
     id="path1356-2"
     style="opacity:1;fill:#2ad4ff;fill-opacity:1;stroke-width:0.0240756" />
  <ellipse
     cx="5.0642042"
     cy="6.141675"
     id="circle1358-0"
     style="opacity:1;fill:#2ad4ff;fill-opacity:1;stroke-width:0.0190016"
     rx="0.010402856"
     ry="0.010528556" />
  <ellipse
     cx="5.064784"
     cy="5.8580942"
     id="circle1360-2"
     style="opacity:1;fill:#2ad4ff;fill-opacity:1;stroke-width:0.0190016"
     rx="0.010402856"
     ry="0.010528556" />
  <polygon
     transform="matrix(0.01155873,0,0,0.0116984,0.1670048,2.5034636)"
     points="483.57,278.11 484.84,277.47 485.06,275.35 485.9,273.86 487.18,272.38 487.6,270.68 489.72,269.41 492.27,268.98 493.33,267.71 493.76,265.17 493.91,263.26 494.82,261.98 497.36,260.92 497.36,256.89 496.09,256.89 495.88,255.4 493.54,255.19 493.12,256.25 492.06,256.25 491.84,257.95 493.12,257.95 493.33,259.22 492.48,260.07 492.06,261.13 490.36,261.56 486.54,265.17 486.33,266.86 485.27,268.35 484,271.53 479.54,271.74 478.69,275.56 479.32,278.74 483.14,280.23 "
     id="polygon1362-3"
     style="opacity:1;fill:#2ad4ff;fill-opacity:1;stroke-width:1.63409" />
  <path
     d="m 5.9673206,5.6601216 v -0.03471 l -0.00497,-0.03225 -0.036742,-0.01732 -0.026969,0.02485 -0.00498,0.03471 v 0.02237 l -0.024521,0.0055 -0.00497,0.06703 -0.019586,0.0075 0.00249,0.02484 -0.026969,0.0075 -0.026973,0.0075 -0.00496,0.03223 -0.019588,0.01236 -0.00987,0.02977 -0.012244,0.07198 c 0,0 0.022103,0.04224 0.034337,0.02237 0.012269,-0.01985 0.031879,-0.02237 0.031879,-0.02237 l 0.00736,-0.01734 0.066221,0.0028 c 0.00496,-0.02736 0.036789,-0.01732 0.036789,-0.0055 0,0.01238 0.024542,0.0028 0.024542,0.0028 l 0.01715,-0.02734 h 0.026959 l 0.00249,-0.02975 0.012287,-0.0075 v -0.04473 c 0.039252,-0.01236 0.034305,-0.04958 0.034305,-0.04958 l 0.00988,-0.01234 -0.00497,-0.01732 c -0.019652,-0.0075 -0.00986,-0.0249 0.00248,-0.01991 0.012303,0.0055 -0.017162,-0.02239 -0.017162,-0.02239 -0.014702,0.01239 -0.026947,-0.01484 -0.026947,-0.01484 h -0.036808 z"
     id="path1364-7"
     style="opacity:1;fill:#2ad4ff;fill-opacity:1;stroke-width:0.0240756" />
  <path
     d="m 6.0065658,5.9604126 c -0.00248,0.02974 -0.039251,0.03974 -0.039251,0.03974 l -0.026971,-0.0075 -0.014701,-0.01237 -0.00251,-0.03473 0.022053,-0.0028 0.00496,0.01488 0.056416,0.0028 z"
     id="path1366-7-5"
     style="opacity:1;fill:#2ad4ff;fill-opacity:1;stroke-width:0.0240756" />
  <path
     d="m 6.139054,5.8016606 c 0.00535,0.02161 0.0049,-0.03475 0.014673,-0.03224 0.00982,0.0028 0.00253,-0.0347 0.00253,-0.0347 l -0.04416,0.03218 c 0.022067,0.0029 0.024508,0.0249 0.027008,0.03475 z"
     id="path1368-9"
     style="opacity:1;fill:#2ad4ff;fill-opacity:1;stroke-width:0.0240756" />
  <path
     d="m 6.269036,5.6724796 c 0.00982,0.02239 0.00738,0.0546 0.044106,0.07946 0.012423,0.0083 -0.00734,0.02484 -0.019639,0.01732 -0.012242,-0.0075 -0.046547,-0.06211 -0.046547,-0.06211 v -0.03223 c 0.00734,-0.01985 0.017821,-0.0121 0.022081,-0.0028 z"
     id="path1370-2"
     style="opacity:1;fill:#2ad4ff;fill-opacity:1;stroke-width:0.0240756" />
  <polygon
     transform="matrix(0.01155873,0,0,0.0116984,0.1670048,2.5034636)"
     points="527.92,335.4 528.55,336.03 529.18,337.09 530.67,334.76 529.4,334.33 "
     id="polygon1372-2"
     style="opacity:1;fill:#2ad4ff;fill-opacity:1;stroke-width:1.63409" />
  <line
     x1="6.2076569"
     x2="6.2076569"
     y1="6.3873758"
     y2="6.4172525"
     id="line1374-8"
     style="opacity:1;fill:#2ad4ff;fill-opacity:1;stroke-width:0.0240756" />
  <polygon
     transform="matrix(0.01155873,0,0,0.0116984,0.1670048,2.5034636)"
     points="554.99,327.87 554.31,326.8 552.62,327.85 553.29,328.93 "
     id="polygon1376-9"
     style="opacity:1;fill:#2ad4ff;fill-opacity:1;stroke-width:1.63409" />
  <path
     d="m 7.2721479,6.8689386 0.022102,0.0099 0.00248,0.04224 c 0.029452,0.02976 0.1250999,0.0055 0.1250999,-0.0028 0,-0.0075 -0.00497,-0.09183 -0.00497,-0.09183 l -0.012288,-0.01238 -0.00248,-0.06212 c 0.00982,-0.03223 -0.046618,-0.07943 -0.051508,-0.06945 -0.00496,0.0099 -0.036791,0.0028 -0.036791,0.01234 0,0.0099 -0.019587,0.05957 -0.00982,0.07695 0.00982,0.01735 -0.00738,0.01735 -0.00981,0.03471 -0.00249,0.01733 -0.026993,0.04725 -0.022081,0.06211 z"
     id="path1378-5-7"
     style="opacity:1;fill:#2ad4ff;fill-opacity:1;stroke-width:0.0240756" />
  <path
     d="m 7.2181483,6.7696226 c -0.00469,0.0188 -0.022025,0.02978 -0.031835,0.02237 -0.00987,-0.0075 0.012195,0.01234 0.017139,0.0224 0.00494,0.0099 0.019586,0.0099 0.02453,0 0.0049,-0.01 0.00248,-0.03223 0.00738,-0.04223 0.00491,-0.01 -0.014735,-0.01237 -0.017212,-0.0029 z"
     id="path1380-3"
     style="opacity:1;fill:#2ad4ff;fill-opacity:1;stroke-width:0.0240756" />
  <rect
     x="7.1040998"
     y="6.3142614"
     width="0.017140988"
     height="0.047179956"
     id="rect1382-6"
     style="opacity:1;fill:#2ad4ff;fill-opacity:1;stroke-width:0.0240756" />
  <path
     d="m 7.3580157,5.8363796 c -0.010702,-0.01439 0.049046,-0.03974 0.058842,-0.0099 0.00982,0.02972 0,0.02485 -0.00981,0.02239 -0.00984,-0.0029 -0.034314,0.0074 -0.049046,-0.01238 z"
     id="path1384-3-1"
     style="opacity:1;fill:#2ad4ff;fill-opacity:1;stroke-width:0.0240756" />
  <polygon
     transform="matrix(0.01155873,0,0,0.0116984,0.1670048,2.5034636)"
     points="626.47,257.73 628.8,258.15 629.03,256.9 626.69,256.48 "
     id="polygon1386-2"
     style="opacity:1;fill:#2ad4ff;fill-opacity:1;stroke-width:1.63409" />
  <polygon
     transform="matrix(0.01155873,0,0,0.0116984,0.1670048,2.5034636)"
     points="620.75,258.67 619.17,259.55 617.79,258.69 617.12,259.76 618.82,260.82 619.14,261.02 619.46,260.84 620.74,260.13 620.9,260.52 622.08,260.05 621.65,258.99 621.38,258.32 "
     id="polygon1388-9"
     style="opacity:1;fill:#2ad4ff;fill-opacity:1;stroke-width:1.63409" />
  <path
     d="m 7.4339978,4.9427196 h -0.036809 c 0,0 0.012269,0.0055 -0.022027,-0.02736 -0.034382,-0.03223 -0.056416,0.0075 -0.056416,0.0075 l -0.039238,0.0055 v 0.03974 l -0.019652,0.0075 0.00253,0.02486 0.02697,-0.0028 c 0,0 0,0.02977 0.00736,0.01733 0.00738,-0.01237 0.068695,0.0028 0.063769,0.03223 -0.00196,0.01219 0.061345,0.04468 0.053976,0.08436 0.031881,0.0055 0.024533,0.03724 0.024533,0.03724 l 0.041665,0.0055 0.012288,-0.02484 0.012244,0.0029 v -0.01487 l -0.027016,-0.0075 -0.00491,-0.07945 -0.017159,-0.01238 0.00492,-0.01987 -0.019598,-0.0075 0.00981,-0.03223 -0.017184,-0.0347 z"
     id="path1390-5-3"
     style="opacity:1;fill:#2ad4ff;fill-opacity:1;stroke-width:0.0240756" />
  <path
     d="m 7.5418475,5.1959306 -0.019598,-0.0028 -0.044214,0.0075 -0.024467,0.04718 c 0,0 0.01224,0.0075 0.022024,0.02485 0.00982,0.01736 0.01472,0.119139 -0.014702,0.136535 -0.029406,0.01734 0.00253,0.0074 0.00253,0.0074 l -0.00498,0.05459 c 0.00738,0.02484 0.019599,0.0124 0.02697,0 0.00742,-0.01232 0.014788,-0.01485 0.024591,-0.02733 0.00981,-0.01239 0.024506,-0.03471 0.02697,-0.05213 0.00248,-0.01733 0.014701,-0.04468 0.00734,-0.05208 -0.00734,-0.0075 0.00738,-0.04222 0.00738,-0.04222 0,0 0.00981,-0.0199 0,-0.03975 -0.00981,-0.01988 0.00248,-0.04225 0.00981,-0.05213 l -0.019612,-0.0099 z"
     id="path1392-1"
     style="opacity:1;fill:#2ad4ff;fill-opacity:1;stroke-width:0.0240756" />
  <rect
     transform="matrix(0.12521192,-0.99213002,0.99174706,0.12820984,0,0)"
     x="-4.2827692"
     y="8.1752291"
     width="0.020023633"
     height="0.014751051"
     id="rect1394-9"
     style="opacity:1;fill:#2ad4ff;fill-opacity:1;stroke-width:0.0240757" />
  <rect
     transform="matrix(-0.89195659,-0.45212105,0.44351966,-0.89626464,0,0)"
     x="-9.1655254"
     y="-1.3632832"
     width="0.014714763"
     height="0.016606648"
     id="rect1396-4"
     style="opacity:1;fill:#2ad4ff;fill-opacity:1;stroke-width:0.0240752" />
  <path
     d="m 7.5492249,5.1687116 -0.00984,-0.02239 c 0,0 0,-0.01984 0.00496,-0.02975 0.00498,-0.0099 -0.00982,-0.01984 -0.017139,-0.02237 -0.00736,-0.0029 -0.00494,-0.02238 -0.00736,-0.03224 -0.00248,-0.0099 -0.019589,-0.01732 -0.019589,-0.01732 0,0 -0.00497,-0.03721 -0.00497,-0.04471 0,-0.0075 -0.022066,-0.01733 -0.014701,-0.02485 0.00738,-0.0075 0.012288,-0.01732 0.019652,-0.02238 0.00736,-0.0055 -0.00738,-0.03974 0.00491,-0.03225 0.012288,0.0075 0.012288,0.01988 0.017201,0.02978 0.00492,0.0099 -0.00253,0.04471 0.00982,0.05212 0.012228,0.0074 -0.00253,0.0322 0.01715,0.0322 0.0196,0 0.00738,0.04722 0.00738,0.04722 0,0 -0.00497,0.0347 0.0073,0.03721 0.012288,0.0028 0.00497,0.06209 0.00497,0.06209 l -0.019608,-0.01237 z"
     id="path1398-7"
     style="opacity:1;fill:#2ad4ff;fill-opacity:1;stroke-width:0.0240756" />
  <path
     d="m 7.3898834,4.7664596 c 0.00734,0.0099 0.022053,0.01732 0.022053,0.02736 0,0.0099 -0.00492,0.01732 0.00984,0.01985 0.014672,0.0028 0.024521,-0.0029 0.029406,0.0099 0.00496,0.01236 0.00496,0.03223 0.00253,0.04223 -0.00253,0.0099 0.00248,0.02484 0.014672,0.02484 0.012288,0 0.014718,0.0029 0.014718,0.0099 0,0.0074 0.014721,-0.02736 0.014721,-0.02736 -0.012303,-0.0099 -0.022103,-0.03224 -0.022103,-0.03224 0,0 -0.012241,-0.03471 -0.012241,-0.03972 0,-0.0055 -0.017151,-0.01 -0.024508,-0.01238 -0.00738,-0.0029 -0.019665,-0.02482 -0.019665,-0.02482 l -0.029408,0.0028 z"
     id="path1400-8"
     style="opacity:1;fill:#2ad4ff;fill-opacity:1;stroke-width:0.0240756" />
  <path
     d="m 7.4143739,4.7442456 c -0.00738,-0.01 -0.014734,-0.01737 -0.024542,-0.02238 -0.00978,-0.0055 -0.017138,-0.0099 -0.026993,-0.0099 -0.00982,0 -0.019587,-0.0099 -0.014719,-0.02238 0.00497,-0.01238 -0.00738,-0.01734 -0.00738,-0.02737 0,-0.0099 0.00738,-0.0099 0.019652,-0.0028 0.012288,0.0075 0.00981,0.0099 0.019665,0.02239 0.00978,0.01236 0.014673,0.02483 0.024456,0.02237 0.00986,-0.0029 0.017209,0.02237 0.027017,0.01486 0.00981,-0.0075 0.00738,0.01733 0.00738,0.01733 l -0.02453,0.0075 z"
     id="path1402-6-4"
     style="opacity:1;fill:#2ad4ff;fill-opacity:1;stroke-width:0.0240756" />
  <path
     d="m 7.1274135,5.0246706 c 0.013524,0.01375 -0.07356,0.0099 -0.07356,0 0,-0.0099 0.00738,-0.04468 0.029406,-0.03723 0.022081,0.0075 0.024508,-0.04468 0.024508,-0.04468 0,0 -0.019586,0.0028 -0.00248,-0.0075 0.017159,-0.0099 0,-0.02484 -0.00738,-0.03223 -0.00734,-0.0075 -0.014702,-0.01987 -0.014702,-0.01987 h 0.034362 c 0.014719,-0.0099 0.019589,-0.05707 0.019589,-0.05707 0.029407,0.0099 0.044131,-0.0099 0.044131,-0.0099 0,0 0.00498,0.01488 0.014769,0.02738 0.0098,0.01234 -0.024579,0.01732 -0.012303,0.02485 0.012303,0.0075 0.017159,0.02974 0.012303,0.03716 -0.00497,0.0075 -0.031943,0.0029 -0.031943,-0.0074 0,-0.0099 -0.00982,0.01238 0,0.02485 0.00981,0.01237 -0.012242,0.02974 -0.017161,0.02974 -0.00496,0 -0.03674,0.0055 -0.0098,0.01987 0.02697,0.01483 0.056448,0.0075 0.056448,0.0075 0,0 0.022053,-0.0029 0.029406,0.0099 0.00738,0.01236 -0.00248,0.01485 -0.014702,0.01485 -0.012242,0 -0.071143,-0.0055 -0.071143,-0.0055 0,0 -0.01715,0.01735 -0.00981,0.02486 z"
     id="path1404-5"
     style="opacity:1;fill:#2ad4ff;fill-opacity:1;stroke-width:0.0240756" />
  <path
     d="m 6.9704328,5.0470346 c 0.012302,-0.0028 0.041665,-0.0055 0.046607,0.0028 0.00498,0.0075 -0.017161,0.01732 -0.017161,0.01732 l -0.029444,0.0055 c -0.00981,-0.01238 -0.012242,-0.02238 0,-0.02483 z"
     id="path1406-0"
     style="opacity:1;fill:#2ad4ff;fill-opacity:1;stroke-width:0.0240756" />
  <path
     d="m 7.2869024,4.8385506 c 0.019597,-0.0099 0.061281,-0.0099 0.058843,-0.02485 -0.00248,-0.01486 0.024519,-0.01986 0.024519,-0.01986 l 0.00736,0.02976 0.022079,0.01487 0.00251,0.02733 c 0,0 0.00734,-0.0055 -0.019598,0.0029 -0.027017,0.0075 -0.00981,0.01985 -0.00981,0.01985 l -0.058889,0.0028 -0.00736,-0.02485 -0.019597,-0.02732 z"
     id="path1408-2-3"
     style="opacity:1;fill:#2ad4ff;fill-opacity:1;stroke-width:0.0240756" />
  <path
     d="m 7.1911493,4.7045176 c 0.014911,0 -0.00491,0.05706 0.034313,0.0521 0.039251,-0.0055 0.00254,0.01733 0.031896,0.01985 0.029439,0.0029 0.022081,-0.02238 0.031879,-0.03971 0.00984,-0.01733 0.00497,-0.02736 -0.012246,-0.03225 -0.017212,-0.0055 -0.017212,-0.0055 -0.022081,-0.02487 -0.00492,-0.01985 -0.024531,-0.02485 -0.024531,-0.02485 l -0.00738,-0.02972 -0.031883,0.01985 -0.031875,0.04223 c 0,0.03227 0.017149,0.01736 0.031875,0.01736 z"
     id="path1410-6"
     style="opacity:1;fill:#2ad4ff;fill-opacity:1;stroke-width:0.0240756" />
  <rect
     transform="matrix(0.44347952,-0.89628451,0.89197677,0.45208124,0,0)"
     x="-1.1031302"
     y="8.6832819"
     width="0.016619889"
     height="0.014785249"
     id="rect1412-1"
     style="opacity:1;fill:#2ad4ff;fill-opacity:1;stroke-width:0.0240752" />
  <rect
     x="7.230392"
     y="4.8906355"
     width="0.014725785"
     height="0.017371556"
     id="rect1414-0"
     style="opacity:1;fill:#2ad4ff;fill-opacity:1;stroke-width:0.0240756" />
  <rect
     transform="matrix(0.11008097,0.99392262,-0.99362557,0.11273077,0,0)"
     x="5.3473401"
     y="-6.6968164"
     width="0.022458661"
     height="0.014716703"
     id="rect1416-6"
     style="opacity:1;fill:#2ad4ff;fill-opacity:1;stroke-width:0.0240757" />
  <rect
     x="7.2010317"
     y="4.7913275"
     width="0.014725785"
     height="0.012435368"
     id="rect1418-3"
     style="opacity:1;fill:#2ad4ff;fill-opacity:1;stroke-width:0.0240756" />
  <rect
     transform="matrix(-0.09693674,-0.99529054,0.99506032,-0.0992721,0,0)"
     x="-5.4784575"
     y="6.664269"
     width="0.014903164"
     height="0.024646971"
     id="rect1420-2"
     style="opacity:1;fill:#2ad4ff;fill-opacity:1;stroke-width:0.0240757" />
  <rect
     transform="matrix(-0.91703444,-0.39880801,0.39079666,-0.92047703,0,0)"
     x="-8.3725262"
     y="-1.8368214"
     width="0.014696135"
     height="0.018870028"
     id="rect1422-0"
     style="opacity:1;fill:#2ad4ff;fill-opacity:1;stroke-width:0.0240754" />
  <rect
     transform="matrix(-0.09713246,-0.99527146,0.99504031,-0.09947253,0,0)"
     x="-5.6445727"
     y="6.3664055"
     width="0.014867841"
     height="0.024682388"
     id="rect1424-6"
     style="opacity:1;fill:#2ad4ff;fill-opacity:1;stroke-width:0.0240757" />
  <polygon
     transform="matrix(0.01155873,0,0,0.0116984,0.1670048,2.5034636)"
     points="539.56,211.91 539.62,213.18 544.28,212.97 544.22,211.7 "
     id="polygon1426-1"
     style="opacity:1;fill:#2ad4ff;fill-opacity:1;stroke-width:1.63409" />
  <rect
     transform="matrix(-0.21384597,-0.97686739,0.97576948,-0.21880108,0,0)"
     x="-6.273674"
     y="5.1507173"
     width="0.022844685"
     height="0.014745369"
     id="rect1428-5"
     style="opacity:1;fill:#2ad4ff;fill-opacity:1;stroke-width:0.0240756" />
  <rect
     transform="matrix(-0.31270173,-0.94985137,0.9475715,-0.31954383,0,0)"
     x="-6.7855015"
     y="4.4697042"
     width="0.014874405"
     height="0.0077535659"
     id="rect1430-5"
     style="opacity:1;fill:#2ad4ff;fill-opacity:1;stroke-width:0.0240754" />
  <path
     d="m 6.4798687,4.9750886 -0.00249,0.01733 0.026948,0.0029 c 0,0 0.012243,0.0099 0.012243,0.01732 0,0.0075 0.017209,0.01484 0.027016,0.01484 0.00981,0 0.036763,-0.01987 0.036763,-0.01987 0,0 0.012288,-0.03471 0.00253,-0.03225 -0.00984,0.0028 -0.029456,0.01733 -0.031879,0.0028 -0.00253,-0.01487 -0.031879,-0.0075 -0.031879,-0.0075 l -0.039252,0.0055 z"
     id="path1432-9-4"
     style="opacity:1;fill:#2ad4ff;fill-opacity:1;stroke-width:0.0240756" />
  <path
     d="m 6.6024714,4.9477216 c 0,0.0074 -0.00491,0.01732 0.00981,0.01987 0.014787,0.0028 0.041753,-0.0099 0.04418,0.0055 0.00253,0.01485 0.00253,0.02487 0.022078,0.03227 0.019589,0.0075 0.031897,0.0099 0.046606,0.0099 0.014674,0 0.046618,-0.0055 0.046618,-0.0055 0,0 0.034703,0.0056 0.041665,0.0124 0.026972,0.02734 0.044134,0.03471 0.051487,0.02238 0.00736,-0.01237 -0.00248,-0.03972 -0.00492,-0.04958 -0.00253,-0.0099 -0.036809,-0.05709 -0.049082,-0.04724 -0.012244,0.0099 -0.014685,0 -0.036777,0.0075 -0.022081,0.0075 -0.068683,0.0029 -0.071108,-0.0075 -0.00248,-0.0099 -0.036777,-0.01485 -0.036777,-0.02485 0,-0.0099 -0.024506,-0.02238 -0.022081,-0.0075 0.00249,0.01484 -0.01715,0.02238 -0.022138,0.01736 -0.00491,-0.0055 -0.019587,0.01484 -0.019587,0.01484 z"
     id="path1434-7"
     style="opacity:1;fill:#2ad4ff;fill-opacity:1;stroke-width:0.0240756" />
  <path
     d="m 7.1666585,4.6299256 0.017197,-0.05453 c -0.024506,-0.0055 -0.019637,-0.03223 -0.019637,-0.03223 -0.00249,-0.02239 -0.036765,-0.04721 -0.049047,-0.03974 -0.012243,0.0074 -0.00738,-0.05213 -0.00738,-0.05213 0,0 0.022103,-0.01485 0.031899,-0.0074 0.00981,0.0074 -0.083373,-0.124109 -0.1030102,-0.111703 -0.019598,0.01238 -0.06372,-0.01237 -0.06128,-0.03472 0.00248,-0.02236 -0.088298,-0.0968 -0.088298,-0.0968 0,0 -0.029443,-0.01984 -0.034323,-0.0055 -0.00496,0.01485 -0.01472,0.02484 0,0.0322 0.014685,0.0075 0.012245,-0.01236 0.029396,0.0055 0.017161,0.01733 0.04909,0.03975 0.036811,0.05459 -0.01227,0.01487 -0.027006,0.01988 -0.027006,0.01988 l 0.017197,0.01988 h 0.026972 l 0.00496,0.04222 c 0,0 0.029407,0.01489 0.036777,0.03225 0.00736,0.01732 0.00736,0.02735 0,0.03722 -0.00738,0.0099 -0.022025,0.02735 -0.019597,0.04468 0.00248,0.01733 0.022078,0.02484 0.022078,0.02484 l 0.019588,0.0029 0.014735,0.0075 v 0.03226 c 0.019588,-0.0055 0.051473,0.02233 0.049046,0.03971 -0.00248,0.01733 0.00491,0.0075 0.029396,0.02485 0.024569,0.01733 0.017212,0.01987 0.034362,0.03224 0.017171,0.01232 0.031897,0.0055 0.039206,-0.0174 z"
     id="path1436-6"
     style="opacity:1;fill:#2ad4ff;fill-opacity:1;stroke-width:0.0240756" />
  <path
     d="m 6.7619604,4.2924086 c -0.00248,-0.0099 -0.00738,-0.04474 0.00736,-0.04226 0.014702,0.0029 0.00496,0 0.022081,0.0075 0.017162,0.0075 0.0196,-0.01236 0.0196,-0.01236 h 0.027006 l 0.034316,0.02733 -0.00496,0.02239 -0.02453,0.0028 c -0.012244,-0.01984 -0.036777,-0.01234 -0.031882,0.0055 0.00496,0.01732 -0.012241,0.04961 -0.022025,0.05208 -0.00981,0.0029 -0.041755,0.0029 -0.039252,-0.01234 0.00248,-0.01486 0.012246,-0.0496 0.012246,-0.0496 z"
     id="path1438-1-5"
     style="opacity:1;fill:#2ad4ff;fill-opacity:1;stroke-width:0.0240756" />
  <path
     d="m 6.7423389,4.2253176 v -0.01985 c 0,0 -0.00254,-0.01985 -0.01472,-0.01985 -0.012229,0 -0.034316,-0.01485 -0.029455,-0.02484 0.00497,-0.0099 -0.041665,-0.01987 -0.041665,-0.01987 0,0 -0.041665,-0.03974 -0.02697,-0.0347 0.01472,0.0055 0.00738,-0.01736 0.00738,-0.01736 0,0 -0.029455,0.0055 -0.03681,0.0029 -0.00738,-0.0029 -0.00497,-0.02484 -0.00497,-0.02484 0,0 -0.029384,-0.0075 -0.029384,0 0,0.0075 0.00981,0.0075 0.01467,0.02236 0.00497,0.01485 0.00253,0.03975 0.024592,0.0447 0.022079,0.0055 0.026948,0.0099 0.029442,0.01988 0.00248,0.0099 0.029408,0.01238 0.029408,0.01238 l 0.019637,0.0099 0.058831,0.04961 z"
     id="path1440-6"
     style="opacity:1;fill:#2ad4ff;fill-opacity:1;stroke-width:0.0240756" />
  <polygon
     transform="matrix(0.01155873,0,0,0.0116984,0.1670048,2.5034636)"
     points="545.32,123.85 543.62,123.43 543.62,125.34 545.95,125.55 "
     id="polygon1442-9"
     style="opacity:1;fill:#2ad4ff;fill-opacity:1;stroke-width:1.63409" />
  <path
     d="m 6.4701308,3.8679406 c -0.025642,-0.01938 0.034305,0.01487 0.034305,0.01487 0.019599,0 0.031879,0.01486 0.031879,0.02239 0,0.0075 0.026978,0.0055 0.026978,0.0055 l 0.00254,-0.01736 -0.019665,-0.02484 -0.017139,-0.01232 c 0,0 -0.02697,-0.0029 -0.02697,-0.01 -1.14e-5,-0.0074 -0.022094,0.02978 -0.03189,0.02237 z"
     id="path1444-2-3"
     style="opacity:1;fill:#2ad4ff;fill-opacity:1;stroke-width:0.0240756" />
  <path
     d="m 6.921302,3.8827996 c -0.00717,0.02168 -0.00981,0.05212 -0.022081,0.05212 -0.012241,0 -0.00736,0.03227 -0.00736,0.03227 0,0 0.031934,0 0.041743,0.0028 0.00978,0.0028 0.00978,0.02733 0.00978,0.02733 0.036811,-0.0028 0.051535,0.04724 0.046608,0.05962 -0.00496,0.01236 0.01472,0.01236 0.01472,0.01236 0,0 0,0.03975 -0.00497,0.04961 -0.0049,0.0099 0.031897,0.01736 0.041703,0.03225 0.00982,0.01488 -0.00497,0.06457 -0.012253,0.06703 -0.00734,0.0029 0.019588,0.0099 0.017162,0.02236 -0.00253,0.0124 0.00736,0 0.00982,0.01988 0.00248,0.01985 0.00738,0.06208 0.00738,0.06208 l 0.034305,0.0029 c 0.00497,-0.03223 0.068161,-0.03355 0.078496,-0.02976 0.04169,0.01485 0.073617,0.07943 0.073617,0.09431 0,0.01485 -0.027017,0.01736 -0.027017,0.01736 l 0.00497,0.07196 c 0.041665,0.01237 0.076009,0.07201 0.071119,0.08194 -0.00496,0.0099 0.029396,0.0075 0.029396,0.0075 0.00498,-0.04474 0.046619,-0.0298 0.049046,-0.01488 0.00257,0.01488 0.00981,0.04719 0.00981,0.04719 l 0.01227,0.02236 0.017158,0.01734 0.026972,-0.0028 0.00738,0.01489 0.03188,0.0055 c 0,0 0.027018,0.02975 0.029441,0.0372 0.00253,0.0074 0.039251,0.0055 0.049046,0.0074 0.00982,0.0029 0.02454,0.0099 0.02697,0.02238 0.00253,0.01238 0.017212,0.03225 0.017212,0.03225 0,0 0.029408,0.0075 0.031879,0.01733 0.00248,0.0099 0.01472,0.03223 0.01472,0.03223 l 0.024467,0.01987 0.00251,0.02239 0.026971,0.0028 0.00738,0.02974 0.044105,-0.0028 0.024579,-0.01733 c 0.031879,-0.01732 0.053953,-0.03974 0.056417,-0.04962 0.00248,-0.0099 0.00734,-0.04717 0.031881,-0.03971 0.024506,0.0075 0.00736,-0.05459 0.00736,-0.05459 0,0 -0.034325,-0.02484 -0.031897,-0.03723 0.00251,-0.01234 -0.034309,-0.03717 -0.03188,-0.04719 0.00249,-0.0099 -0.031878,-0.02974 -0.029443,-0.03972 0.00248,-0.0099 -0.017162,-0.03723 -0.017162,-0.03723 l -0.036809,-0.0347 -0.00496,-0.0224 -0.029406,-0.0028 -0.058844,-0.07199 0.00248,-0.01988 -0.01716,-0.0028 v -0.02734 l -0.017139,-0.0099 -0.027016,-0.0028 -0.053938,-0.05957 -0.00496,-0.02733 H 7.492788 l 0.00494,-0.05212 c 0.017184,-0.02238 0.00734,-0.06457 0.00734,-0.06457 0,0 -0.034361,0.01733 -0.051486,0.0099 -0.017197,-0.0074 0.00734,-0.02485 0.00734,-0.02485 v -0.01985 l -0.014687,-0.01483 c 0,0 -0.041733,0.0055 -0.044159,-0.0028 -0.00251,-0.0075 -0.00981,-0.03975 -0.00981,-0.03975 l -0.00251,-0.04225 -0.017137,-0.0074 -0.00254,-0.0149 -0.026949,0.0028 v -0.02975 l -0.014735,-0.0055 -0.014702,-0.0075 -0.00249,-0.02978 -0.053952,-0.0028 -0.017162,-0.02484 -0.019596,-0.02977 -0.061316,-0.0055 -0.014721,-0.01484 -0.024521,-0.0055 -0.017162,-0.0075 -0.00736,0.01239 -0.046618,0.0028 -0.00248,0.01487 c -0.024521,0.01237 -0.1226141,0.0028 -0.1251112,0.0099 z"
     id="path1446-7"
     style="opacity:1;fill:#2ad4ff;fill-opacity:1;stroke-width:0.0240756" />
  <path
     d="m 7.1789031,3.8183556 c -0.00384,-0.01956 0.049091,-0.03721 0.061331,-0.02239 0.012287,0.01487 0.046606,0.01739 0.051518,0.09188 0.00169,0.0267 -0.04416,-0.02735 -0.04416,-0.02735 l -0.036809,-0.01236 c -0.019599,-0.0055 -0.029442,-0.01733 -0.031878,-0.02977 z"
     id="path1448-4"
     style="opacity:1;fill:#2ad4ff;fill-opacity:1;stroke-width:0.0240756" />
  <rect
     transform="matrix(-0.91154903,-0.41119139,0.40302619,-0.91518844,0,0)"
     x="-7.463129"
     y="-0.85218209"
     width="0.014709266"
     height="0.024413837"
     id="rect1450-5"
     style="opacity:1;fill:#2ad4ff;fill-opacity:1;stroke-width:0.0240753" />
  <path
     d="m 6.3327719,3.6048736 -0.031944,-0.03224 v -0.02732 l -0.00981,-0.0099 -0.00981,-0.03469 -0.031877,-0.0099 -0.031881,0.01234 -0.034337,0.02238 -0.036764,0.0055 -0.019652,0.02236 0.078496,0.0074 0.014687,0.02488 0.056461,0.0055 0.036742,0.0372 c 0.031944,0.0099 0.039276,-0.0055 0.019677,-0.02236 z"
     id="path1452-2"
     style="opacity:1;fill:#2ad4ff;fill-opacity:1;stroke-width:0.0240756" />
  <path
     d="m 6.3279043,3.4831996 c -0.00546,-0.02179 -0.03681,0.02733 -0.0049,0.03716 0.031879,0.0099 0.063709,0 0.063709,0 l 0.00738,-0.01485 0.1225915,0.0029 c 0.00987,-0.0099 0.014721,-0.02484 0.014721,-0.02484 0,0 0.029454,-0.0099 0.041679,-0.0055 0.012288,0.0055 0.00254,-0.03469 -0.00981,-0.02975 -0.012245,0.0055 -0.036748,0.0028 -0.036748,0.0028 h -0.044171 c -0.00248,-0.01732 -0.041679,-0.0099 -0.044134,0 -0.00253,0.0099 -0.017139,0.01236 -0.017139,0.01236 l -0.056415,0.0055 c -0.00498,0.01489 -0.034316,0.02484 -0.0368,0.01489 z"
     id="path1454-5"
     style="opacity:1;fill:#2ad4ff;fill-opacity:1;stroke-width:0.0240756" />
  <path
     d="m 6.0850565,3.9020776 c 0.037714,0.01197 0.051486,0.0036 0.053976,-0.007 0.00248,-0.0099 0.00491,-0.0124 0.019597,-0.01485 0.014701,-0.0029 -0.00251,-0.03225 -0.017161,-0.02979 -0.014734,0.0028 -0.029455,-0.0055 -0.03188,-0.01733 -0.00257,-0.01236 -0.027017,-0.04471 -0.02945,-0.01985 -0.00249,0.02484 -0.017162,0.02484 -0.014719,0.04224 0.00253,0.0173 0.00984,0.04338 0.01964,0.04657 z"
     id="path1456-7-4"
     style="opacity:1;fill:#2ad4ff;fill-opacity:1;stroke-width:0.0240756" />
  <path
     d="m 5.8031102,3.9300286 c -0.00172,-0.0088 0.049046,-0.0099 0.056416,-0.0029 0.00738,0.0075 0.00248,0.01987 0.024521,0.01987 0.022039,0 0.012252,0.01487 0.00981,0.02239 -0.00248,0.0075 -0.026947,0.0055 -0.02945,-0.0028 -0.00248,-0.0075 -0.03924,-0.01 -0.03924,-0.01 0,0 -0.019597,-0.01488 -0.022037,-0.02733 z"
     id="path1458-7"
     style="opacity:1;fill:#2ad4ff;fill-opacity:1;stroke-width:0.0240756" />
  <polygon
     transform="matrix(0.01155873,0,0,0.0116984,0.1670048,2.5034636)"
     points="558.09,77.802 557.01,76.721 556.11,77.62 557.59,79.105 558,79.51 558.44,79.154 560.57,77.455 559.77,76.462 "
     id="polygon1460-4"
     style="opacity:1;fill:#2ad4ff;fill-opacity:1;stroke-width:1.63409" />
  <polygon
     transform="matrix(0.01155873,0,0,0.0116984,0.1670048,2.5034636)"
     points="546.71,71.752 546.04,72.832 547.74,73.89 548.07,74.105 548.41,73.89 550.75,72.403 550.07,71.33 548.07,72.599 "
     id="polygon1462-4"
     style="opacity:1;fill:#2ad4ff;fill-opacity:1;stroke-width:1.63409" />
  <polygon
     transform="matrix(0.01155873,0,0,0.0116984,0.1670048,2.5034636)"
     points="540.92,116.22 538.8,116 538.67,117.27 540.49,117.45 541.81,119.52 542.88,118.84 541.4,116.51 541.23,116.25 "
     id="polygon1464-3"
     style="opacity:1;fill:#2ad4ff;fill-opacity:1;stroke-width:1.63409" />
  <path
     d="m 5.6117533,4.5554776 0.00257,0.02736 h 0.036741 c 0.01472,0 -0.012242,-0.01733 -0.012242,-0.01733 0,0 -0.02944,0.0029 -0.027017,-0.0099 z"
     id="path1466-0"
     style="opacity:1;fill:#2ad4ff;fill-opacity:1;stroke-width:0.0240756" />
  <rect
     transform="matrix(0.6339603,-0.77336559,0.7658247,0.6430494,0,0)"
     x="0.14940698"
     y="7.2651143"
     width="0.014831008"
     height="0.019224377"
     id="rect1468-7"
     style="opacity:1;fill:#2ad4ff;fill-opacity:1;stroke-width:0.0240752" />
  <rect
     transform="matrix(0.7034485,-0.71074623,0.70224115,0.71193916,0,0)"
     x="0.83696073"
     y="6.5830808"
     width="0.014814117"
     height="0.020931168"
     id="rect1470-8"
     style="opacity:1;fill:#2ad4ff;fill-opacity:1;stroke-width:0.0240751" />
  <polygon
     transform="matrix(0.01155873,0,0,0.0116984,0.1670048,2.5034636)"
     points="495.95,407.82 495.38,408.96 496.71,409.62 496.27,410.06 497.18,410.96 498.24,409.9 498.86,409.28 498.07,408.88 "
     id="polygon1472-6"
     style="opacity:1;fill:#2ad4ff;fill-opacity:1;stroke-width:1.63409" />
  <polygon
     transform="matrix(0.01155873,0,0,0.0116984,0.1670048,2.5034636)"
     points="480.83,392.62 479.55,393.68 478.92,394.21 479.59,394.69 481.08,395.75 481.82,394.72 481,394.13 481.64,393.6 "
     id="polygon1474-8"
     style="opacity:1;fill:#2ad4ff;fill-opacity:1;stroke-width:1.63409" />
  <path
     d="m 7.5579297,6.6370616 c -0.00329,-0.01261 -0.017544,-0.01788 -0.01916,-0.0184 l -0.00473,0.01419 v -8.6e-5 c 0.0011,4.82e-4 0.00289,0.0015 0.0046,0.0028 l 0.00304,0.01283 c -0.0011,0.0019 -0.00232,0.0037 -0.00331,0.0047 l 0.010796,0.01005 c 0.00786,-0.0087 0.010776,-0.01718 0.00871,-0.02538 z"
     id="path1476-8"
     style="opacity:1;fill:#2ad4ff;fill-opacity:1;stroke-width:0.0240756" />
  <polygon
     transform="matrix(0.01155873,0,0,0.0116984,0.1670048,2.5034636)"
     points="639.31,349.19 639.47,347.28 641.54,347.6 641.38,349.34 "
     id="polygon1478-4"
     style="opacity:1;fill:#2ad4ff;fill-opacity:1;stroke-width:1.63409" />
  <path
     d="m 8.1489665,6.3966506 c 0.010488,-0.0068 0.023894,-0.01864 0.022081,0.0094 -0.00182,0.02788 -0.012895,0.01864 -0.022081,0.02788 -0.0092,0.0094 -0.014702,-0.02788 0,-0.03721 z"
     id="path1480-0-3"
     style="opacity:1;fill:#2ad4ff;fill-opacity:1;stroke-width:0.0240756" />
  <path
     d="m 8.2737842,6.2913086 c -1.618e-4,-4.87e-4 -3.242e-4,-0.0026 -4.862e-4,-0.0038 -3.243e-4,-0.0045 -8.541e-4,-0.0097 -0.00374,-0.01556 l -0.013145,0.0069 c 0.00163,0.0038 0.00191,0.007 0.00225,0.01017 3.244e-4,0.0048 8.54e-4,0.0094 0.00503,0.01243 0.00269,0.0024 0.00594,0.003 0.00992,0.0021 l -0.00282,-0.01436 c 0.0011,1.62e-4 0.00267,0.0014 0.00301,0.0027 z"
     id="path1482-1"
     style="opacity:1;fill:#2ad4ff;fill-opacity:1;stroke-width:0.0240756" />
  <path
     d="m 8.241031,6.3035186 c 0.0037,0.01504 0.0092,0.02991 0.00944,0.03054 l 0.013794,-0.0056 c -1.036e-4,-1.33e-4 -0.0055,-0.01467 -0.00898,-0.02903 z"
     id="path1484-4"
     style="opacity:1;fill:#2ad4ff;fill-opacity:1;stroke-width:0.0240756" />
  <path
     d="m 8.1874744,6.3620756 -0.014663,-0.0017 c -0.0011,0.01174 0.00165,0.02614 0.013248,0.02852 l 0.00292,-0.01456 c 1.021e-4,0 1.622e-4,8.8e-5 3.244e-4,8.8e-5 -0.0011,-0.0014 -0.0023,-0.0071 -0.00171,-0.01252 z"
     id="path1486-9-9"
     style="opacity:1;fill:#2ad4ff;fill-opacity:1;stroke-width:0.0240756" />
  <path
     d="m 8.1230003,6.0659076 c -8.54e-4,-0.0052 -0.00359,-0.0084 -0.00804,-0.0104 -0.010882,-0.0052 -0.029241,0.0036 -0.038238,0.0092 l 0.00813,0.01236 c 0.00933,-0.0063 0.021541,-0.0093 0.024272,-0.0079 -1.623e-4,-8.8e-5 -6.49e-4,-4.83e-4 -6.49e-4,-9.17e-4 l 0.014541,-0.0028 z"
     id="path1488-2"
     style="opacity:1;fill:#2ad4ff;fill-opacity:1;stroke-width:0.0240756" />
  <path
     d="m 7.4437353,5.2728756 c -0.00981,0.01 -0.031881,0.01488 -0.031881,0.01488 l -0.00738,0.02734 -0.01223,0.0099 c 0,0 0.00248,0.0075 0,0.02484 -0.00251,0.01732 -0.024541,0.02735 -0.024541,0.02735 l -0.00981,0.01237 c 0,0 -0.05912,0.0037 -0.066221,0 -0.022081,-0.0099 -0.00734,-0.03974 0.00738,-0.03721 0.014686,0.0029 -0.00253,-0.04225 -0.00253,-0.04225 l 0.019652,-0.0028 c 0,0 0.00248,-0.04473 0.00982,-0.04473 0.00736,0 -0.00248,-0.01483 -0.012288,-0.02237 -0.0098,-0.0074 -0.022053,-0.0322 -0.031896,-0.02977 -0.00981,0.0028 -0.049046,0 -0.049046,0 l -0.00736,0.01488 -0.026993,0.0055 c 0,0 0.00234,0.01917 -0.00244,0.02485 -0.014769,0.01732 -0.071142,0.05455 -0.046655,-0.0075 l 0.00734,-0.01485 v -0.02239 l -0.044092,-0.0028 c 0,0 -0.022078,-0.0075 -0.022078,-0.01736 0,-0.0099 -0.00251,-0.02237 -0.00251,-0.02237 l -0.051516,-0.05706 -0.06128,-0.0075 -0.00497,-0.01239 -0.036742,-0.0055 c -0.044179,-0.02237 -0.08343,-0.0028 -0.076057,0.03471 0.00734,0.03723 0.019586,0.05212 -0.00492,0.05212 -0.024565,0 -0.029456,-0.01986 -0.029456,-0.01986 0,0 -0.019589,-0.0075 -0.019589,0.0028 0,0.0099 -0.00738,0.02977 0,0.03974 0.00734,0.0099 -0.00984,0.02485 -0.017211,0.01733 -0.00732,-0.0075 -0.026949,-0.02971 -0.022027,-0.03716 0.00494,-0.0075 -0.03437,-0.05459 0.00494,-0.06211 0.039251,-0.0075 -0.00249,-0.02976 0.012288,-0.0347 l 0.019586,-0.0099 h 0.019598 l 0.012269,-0.0099 -0.031879,-0.0055 -0.019586,-0.0029 -0.036808,-0.0028 c -0.036763,0.02485 -0.044106,0.05458 -0.044106,0.05458 -0.019665,0.0372 -0.066221,-0.01486 -0.049046,-0.03471 0.017139,-0.01987 -0.053974,-0.0029 -0.066255,0.0075 -0.012288,0.0099 -0.049072,0.0055 -0.049072,0.0055 -0.00734,0.0224 -0.041665,-0.0028 -0.031878,-0.01733 0.00982,-0.01486 0.00982,-0.02484 0.00982,-0.02484 l -0.012242,-0.0029 -0.014701,0.02735 c -0.034337,0 -0.04418,0.01985 -0.036821,0.03223 0.00734,0.01234 -0.00981,-0.0028 -0.014718,0.01488 -0.0049,0.01733 0.00253,0.01733 0.017208,0.02486 0.01472,0.0075 -0.00738,0.0075 0.00248,0.01985 0.00982,0.0124 0.03924,0 0.022094,0.01736 -0.017162,0.01732 -0.051535,0.0099 -0.051535,0.0099 -0.00248,0.02234 -0.049046,0.01732 -0.053912,0.0099 -0.00497,-0.0075 -0.041692,-0.05212 -0.041692,-0.05212 l -0.046662,-0.0028 c -0.00491,-0.0347 0.022104,-0.01733 0.031897,-0.04471 0.00986,-0.02735 0.014751,-0.07197 0.014751,-0.07197 0,0 -0.03929,-0.0028 -0.04173,0.0099 -0.00248,0.01237 -0.026971,0.01988 -0.026971,0.01988 0,0 -0.019639,0.0074 -0.01227,0.01733 0.00736,0.0099 -0.01472,0.01484 -0.01472,0.01484 0,0 0.00381,0.01607 -0.00248,0.02238 -0.019589,0.0199 -0.068683,0.0028 -0.07601,-0.0055 l -0.029456,-0.01237 -0.029443,-0.01985 -0.034314,0.01484 -0.00981,0.0099 h -0.036802 l -0.00248,0.02972 0.066223,0.0075 0.00496,0.06142 -0.027016,-0.0093 H 6.04078 l -0.00734,-0.01488 -0.01472,-0.0029 v 0.05456 l 0.01472,0.0124 0.012287,0.01232 0.02453,0.0029 0.00496,0.02974 0.061281,0.0029 0.00736,0.01234 0.036808,0.0029 0.071121,0.07196 -0.00496,0.02239 -0.012288,0.0075 c 0.00497,0.01733 -0.031847,0.0075 -0.031847,0.0075 v 0.01484 l 0.017114,0.0028 0.017212,0.0099 0.024506,-0.04222 c 0.02697,-0.01733 0.039205,0.0075 0.041703,0.02238 0.00248,0.01485 -0.012303,0.01236 -0.012303,0.01236 v 0.03474 l 0.01472,0.0055 c 0.024565,0.02974 -0.00981,0.0472 -0.00981,0.0472 l -0.00738,0.02482 c -0.00736,0.02238 -0.034325,0.01733 -0.034325,0.01733 l -0.00978,0.01486 -0.029469,0.0075 0.058231,0.0075 c 0.0055,-0.01988 0.020213,-0.02484 0.02758,-0.01486 0.00738,0.0099 0.00738,0.02733 0.00738,0.02733 l 0.014769,0.0028 -0.00254,0.02734 0.014721,0.0055 v 0.07941 l 0.017159,0.01985 c 0.029439,-0.01232 0.029439,0.0075 0.014701,0.01733 -0.014701,0.0099 -0.00496,0.05459 -0.00496,0.05459 l -0.012255,0.01234 v 0.01997 l -0.014702,0.0099 v 0.02733 c -0.024542,-0.01236 -0.053974,-0.0075 -0.061356,0 -0.022026,-0.01489 -0.068637,-0.0099 -0.068637,0.0029 0.014687,0.01986 -0.017139,0.02485 -0.017139,0.02485 l -0.017209,0.01985 c 0.012288,0.02485 -0.012228,0.02734 -0.012228,0.02734 v 0.04723 l -0.029452,0.02735 0.00253,0.06457 c 0,0.01733 0.036763,0.01985 0.044093,0.0099 0.00738,-0.0099 0.036824,0.01988 0.036824,0.01988 h 0.022024 l 0.00497,-0.04472 -0.014734,-0.0075 v -0.07201 l 0.024541,-0.02737 c 0.029439,-0.0099 0.01964,0.06461 0.01964,0.07202 0.00248,0.02734 0.014672,0.02484 0.026969,0.01985 0.024521,-0.0099 0.00491,0.02739 -0.014721,0.02484 -0.019598,-0.0028 -0.00738,0.02484 -0.00738,0.02484 l 0.012302,0.0055 -0.022102,0.01733 -0.019568,0.02239 -0.024591,-0.0075 -0.029395,-0.0028 -0.00982,-0.01739 -0.0172,-0.0028 -0.00248,0.03471 -0.012242,0.01485 -0.029443,0.02979 c 0.039253,0 -0.00497,0.0273 -0.01472,0.0273 0.022066,0.0075 -0.00248,0.02977 -0.058843,0.01241 v 0.01731 l -0.019651,0.0029 0.017212,0.01984 0.019586,0.0029 -0.00736,0.04223 c 0,0.03223 -0.080921,0.0099 -0.088296,0.0028 l -0.00248,0.04471 -0.014719,0.0028 0.00248,0.02977 -0.00248,0.04226 0.02697,-0.0055 v 0.01734 l 0.066258,0.0029 0.095648,-0.1018 0.05639,-0.01234 c 0.00494,-0.02488 0.029399,0.0055 0.029399,0.0055 0.024542,-0.003 0.029451,0.01485 0.029451,0.01485 l 0.031898,0.0055 c 0.026949,0.0075 0.010655,0.01003 0.012242,0.0199 0.00248,0.01485 0.014702,0.0099 0.014702,0.0099 l 0.00497,-0.03223 0.01472,0.0028 -0.01472,-0.01735 -0.027014,-0.0124 -0.029408,-0.01234 c -0.019639,-0.02734 0.00494,-0.02236 0.024542,-0.01984 h 0.03188 c 0,0 0.036809,0.04957 0.036809,0.06207 0,0.01239 0.017162,0.0149 0.017162,0.0149 l 0.022026,-0.0029 0.00738,0.01731 h 0.022065 l 0.00738,0.01483 h 0.044159 l 0.00249,-0.02236 -0.041743,-0.0074 -0.00248,-0.02488 -0.029402,-0.0076 c -0.00984,-0.04219 0.00733,-0.05456 0.019586,-0.03467 l 0.014702,0.0028 -0.00496,-0.03721 0.017148,-0.0055 -0.00494,-0.05212 -0.014702,-0.0055 v -0.01741 l 0.061281,0.0029 c -0.0049,-0.03228 0.00253,-0.04721 0.00253,-0.04721 h 0.017161 l 0.00248,0.01241 0.07504,0.0071 0.053053,-0.06064 c -0.00273,-0.0051 0.00539,-0.0075 -4.866e-4,-0.01346 -0.00738,-0.0075 -0.017211,0 -0.029517,-0.0075 -0.012229,-0.0074 0,-0.04961 -0.00248,-0.05957 -0.00248,-0.0099 0.041743,-0.02488 0.03437,-0.0028 -0.00736,0.02239 0,0.03225 0,0.03225 0.031881,-0.02978 0.058853,0.0028 0.056416,0.0099 -0.00257,0.0075 0.017139,0.01485 0.029386,0.0075 0.012288,-0.0075 0.027006,0.02239 0.022094,0.03718 -0.00497,0.01487 -0.049034,0.0124 -0.051473,-0.0028 -0.00257,-0.01487 -0.00988,-0.0099 -0.01472,-0.0028 -0.00497,0.0075 -0.026972,0.01234 -0.039253,0.0055 -0.00253,-0.0017 -0.00365,-0.0032 -0.00436,-0.0043 l -0.053056,0.06064 0.00339,3.29e-4 c 0.029408,0.01736 0.01472,0.03975 0.00498,0.04472 -0.00984,0.0055 -0.027018,0.0055 -0.027018,0.0055 l -0.0049,0.0099 -0.063783,0.0055 -0.00497,0.02487 c -0.031881,-0.0055 -0.044106,0.02974 -0.036751,0.04716 0.00738,0.01731 0,0.03223 0,0.03223 l 0.026979,0.01239 0.034305,-0.0099 c 0.00497,-0.02488 0.026971,-0.02979 0.046619,-0.04471 0.019586,-0.01488 0.051517,0.02729 0.041665,0.04716 -0.00981,0.01984 -0.00981,0.02735 -0.00981,0.02735 l 0.00248,0.02239 -0.024506,0.0099 -0.019598,0.0099 -0.00254,0.01237 h -0.066046 l -0.01224,0.01234 -0.031898,0.003 -0.00984,0.01485 -0.022024,0.0029 c 0,0 -0.036809,0.01735 -0.022081,0.03721 0.01472,0.01988 -0.061292,0.01734 -0.078507,-0.0099 -0.00496,0.02481 -0.031878,0.0028 -0.031878,0.0028 l -0.026972,-0.0075 -0.00248,-0.03716 c -0.00496,-0.02487 -0.051517,-0.02487 -0.049046,-0.0075 0.00248,0.01734 -0.088331,0.0075 -0.088331,0.0075 l -0.029408,0.01424 -0.027014,0.01556 -0.00248,0.01234 -0.044179,0.0055 -0.019589,0.0099 -0.00734,-0.01487 h -0.019576 l -0.01964,0.02737 c -0.051497,0.0029 -0.1005362,0.03224 -0.095647,0.04471 0.00496,0.01234 -0.019587,0.02488 -0.019587,0.02488 l -0.022103,0.0074 -0.014672,0.0224 -0.029445,0.01 -0.00497,0.05213 -0.014672,0.0099 v 0.02239 l -0.0172,0.0055 v 0.01215 l -0.024521,0.0028 0.014672,0.03723 0.019689,0.0099 c 0.034323,0.0055 0.019586,0.04722 0.019586,0.04722 l 0.019599,0.0028 0.00984,0.02734 0.019587,0.03974 c 0.00738,0.02978 0.029455,0.02241 0.039252,0.0199 0.00981,-0.0028 0.019587,0.02975 0.019587,0.02975 l 0.098086,0.0029 c 0,0 -0.00491,0.0099 0.012302,0.01487 0.017139,0.0055 0.1299672,0.0099 0.1349024,0.0029 -0.00497,-0.02241 0.06127,-0.02738 0.088285,-0.0075 0.026949,0.01984 0.063756,0.0075 0.063756,0.0075 l 0.036777,0.04464 0.024582,0.05458 0.041665,0.01234 0.029407,0.0075 0.00984,0.04223 0.022026,0.0029 0.00738,0.02737 c 0.027006,0.01985 -0.00738,0.06209 -0.00738,0.06209 v 0.05454 l 0.01964,0.0099 -0.00251,0.0199 0.031921,0.03217 0.036764,0.0029 0.093221,0.09927 0.073548,0.02236 0.012241,0.03975 0.019665,-0.0029 0.014702,-0.01234 0.058843,-0.0028 0.02945,-0.02737 0.031882,-0.0055 0.2722375,-0.23086 -0.024565,-0.01487 v -0.05455 c 0.044158,-0.03223 0.046606,-0.08938 0.00496,-0.09435 -0.031629,-0.0041 -0.017139,-0.03721 0.012302,-0.04223 l 0.01714,-0.0074 v -0.02241 l 0.056403,-0.05207 v -0.04033 L 7.0611441,6.7922586 c -0.053976,-0.01984 0,-0.138996 0.036742,-0.136507 0.036811,0.0028 -0.00248,-0.183676 -0.00248,-0.183676 l -0.019652,-0.0099 0.00497,-0.05964 h -0.026967 l -0.044169,0.05711 -0.01224,0.03969 c -0.00496,0.05216 -0.1569808,0.04224 -0.164358,0.0347 -0.00736,-0.0075 -0.058843,-0.02975 -0.058843,-0.02975 0,0 -0.039238,-0.03223 -0.046608,-0.02237 -0.00736,0.0099 -0.041665,-0.01239 -0.041665,-0.0055 0,0.0075 -0.031878,-0.01731 -0.031878,-0.01731 l -0.049046,-0.01736 0.036809,-0.0075 -0.00738,-0.02976 0.063709,0.03223 c 0.00738,0.0099 0.039251,0.0075 0.039251,0.0075 l 0.00982,0.01237 c 0,0 0.019652,-0.0029 0.031944,0.01234 0.012242,0.01488 0.075986,0.0029 0.075986,0.0029 l 0.017159,0.01485 0.026972,0.0099 0.076055,0.0029 0.00248,-0.04716 0.014721,-0.01485 -0.00251,-0.02978 0.017161,-0.01484 v -0.02482 l 0.014721,-0.0055 0.00248,-0.05454 0.012242,-0.0029 v -0.119063 l -0.036779,-0.03472 c -0.00248,0.01239 -0.041664,0.01239 -0.041664,0.01239 0,0 -0.00981,0.01731 -0.01716,0.01731 -0.00734,0 0.00981,0.02237 0.00492,0.03721 -0.00492,0.01483 -0.024531,0.01483 -0.024531,0.01483 l -0.036808,0.01 -0.00982,0.01237 h -0.039252 l -0.00491,-0.03223 0.044106,-0.0124 0.024531,-0.01232 0.012288,-0.02488 c 0.00248,-0.02482 0.031879,-0.02237 0.031879,-0.02237 0,0 0.056403,-0.04721 0.058842,-0.06945 0.00254,-0.02239 0.022106,-0.08442 0.056415,-0.08442 h 0.063783 c 0.024508,-0.0099 0.017149,-0.04225 0.017149,-0.04225 l 0.031891,-0.0055 0.00496,0.01733 c 0,0 0.04417,0.0055 0.049046,-0.0029 0.00497,-0.0074 0.014719,-0.02484 0.027014,-0.01733 0.012258,0.0075 0.051499,-0.01735 0.051499,-0.01735 0.00248,-0.01733 0.063756,-0.0099 0.063756,-0.0099 l 0.00738,-0.02237 c 0,0 -0.041678,-0.05707 -0.049046,-0.05707 -0.00738,0 -0.046608,-0.03474 -0.051525,-0.02239 -0.039192,-0.0099 -0.036763,-0.06457 -0.036763,-0.06457 l -0.0147,-0.03478 c 0,-0.0199 -0.03674,-0.06211 -0.044157,-0.05707 -0.036809,-0.02735 -0.00981,-0.05961 0,-0.06209 0.00982,-0.0028 0.034362,-0.03721 0.034362,-0.03721 l 0.012242,-0.03472 0.041692,-0.01232 0.00496,-0.03224 -0.022027,-0.0029 c 0,0 0.024481,-0.04471 0.036765,-0.04471 0.012287,0 0.093221,0 0.1005248,-0.0055 0.00736,-0.0055 0.022065,-0.04468 0.022065,-0.05208 0,-0.0075 0.019679,-0.0099 0.026979,-0.0124 0.00736,-0.0028 0.02453,-0.02237 0.029443,-0.03223 0.00496,-0.01 -0.012229,-0.07206 -0.022053,-0.06215 z"
     id="path1490-0"
     style="opacity:1;fill:#2ad4ff;fill-opacity:1;stroke-width:0.0240756" />
  <path
     d="m 6.0850565,6.1677156 c 0.00365,-0.0039 0.00738,0.01122 0.014719,0.0094 0.00732,-0.0021 0.011024,0.01302 0.00365,0.01302 -0.00738,0 -0.00738,0.0094 -0.00738,0.01303 0,0.004 0,0.01299 -0.00553,0.01864 -0.0055,0.0057 -0.011062,0.0021 -0.018421,-0.0021 -0.00734,-0.004 -0.010972,-0.004 -0.020213,-0.004 -0.00918,0 -0.00182,0.01485 -0.00182,0.01485 0,0 -0.038633,-0.0021 -0.031252,-0.0075 0.00736,-0.0057 0.01472,-0.0075 0.00923,-0.01122 -0.00551,-0.004 0,-0.0074 0,-0.01485 0,-0.0075 0.018405,-0.004 0.012845,-0.0094 -0.00553,-0.0057 1.183e-4,-0.02723 0.0092,-0.01486 l 0.00553,-0.01303 c -0.00553,-0.0057 -0.00181,-0.0075 -0.01286,-0.01113 -0.011024,-0.004 -0.00182,-0.02603 -0.00182,-0.02603 l 0.00182,-0.01485 c 0.00365,-0.01862 0.040446,-0.0205 0.042302,-0.004 0.00179,0.01671 0,0.02791 0,0.02791 l 0.011062,0.004 c 0,0 -0.00182,0.01128 -0.011062,0.01128 -0.00924,0 0,0.0056 -0.00552,0.01114 l 0.00552,0.0093 z"
     id="path1492-3-6"
     style="opacity:1;fill:#2ad4ff;fill-opacity:1;stroke-width:0.0240756" />
  <path
     d="m 5.9636318,6.1864026 c 0.00552,-0.01122 0.018395,-0.05961 0.033129,-0.04471 0.01467,0.01486 0.023894,0 0.023894,0 0,0 0.00736,0.0075 0.00365,0.02239 -0.00365,0.01485 -0.00738,0.02976 -0.0166,0.0317 -0.00916,0.0021 -0.016539,0.0075 -0.027519,0.0094 -0.011024,0.0022 -0.01658,-0.01863 -0.01658,-0.01863 z"
     id="path1494-8"
     style="opacity:1;fill:#2ad4ff;fill-opacity:1;stroke-width:0.0240756" />
</svg>
