<?xml version="1.0" encoding="UTF-8" standalone="no"?>
<svg
   xmlns:dc="http://purl.org/dc/elements/1.1/"
   xmlns:cc="http://creativecommons.org/ns#"
   xmlns:rdf="http://www.w3.org/1999/02/22-rdf-syntax-ns#"
   xmlns:svg="http://www.w3.org/2000/svg"
   xmlns="http://www.w3.org/2000/svg"
   xmlns:xlink="http://www.w3.org/1999/xlink"
   xmlns:sodipodi="http://sodipodi.sourceforge.net/DTD/sodipodi-0.dtd"
   xmlns:inkscape="http://www.inkscape.org/namespaces/inkscape"
   width="47.285591"
   height="47.28569"
   version="1.1"
   viewBox="0 0 12.510734 12.51076"
   id="svg12"
   sodipodi:docname="steam.svg"
   inkscape:version="1.0.1 (3bc2e813f5, 2020-09-07)">
  <style
     id="style870"></style>
  <metadata
     id="metadata45">
    <rdf:RDF>
      <cc:Work
         rdf:about="">
        <dc:format>image/svg+xml</dc:format>
        <dc:type
           rdf:resource="http://purl.org/dc/dcmitype/StillImage" />
      </cc:Work>
    </rdf:RDF>
  </metadata>
  <defs
     id="defs16">
    <linearGradient
       id="c"
       y1="523.79999"
       x1="403.57001"
       y2="536.79999"
       x2="416.57001"
       gradientUnits="userSpaceOnUse"
       gradientTransform="matrix(0.34526714,0,0,0.34526706,-134.80427,-174.63325)">
      <stop
         stop-color="#292c2f"
         id="stop1568" />
      <stop
         offset="1"
         stop-opacity="0"
         id="stop1570" />
    </linearGradient>
    <linearGradient
       xlink:href="#b-2"
       id="linearGradient4189"
       x1="14.369"
       y1="22.521999"
       x2="26.521999"
       y2="22.521999"
       gradientUnits="userSpaceOnUse" />
    <linearGradient
       x1="36"
       gradientUnits="userSpaceOnUse"
       x2="14"
       y2="12"
       y1="44"
       id="b-2">
      <stop
         style="stop-color:#bfc9c9;stop-opacity:1"
         stop-color="#536161"
         id="stop1579" />
      <stop
         style="stop-color:#fbfbfb;stop-opacity:1"
         stop-color="#f4f5f5"
         offset="1"
         id="stop1581" />
    </linearGradient>
    <linearGradient
       xlink:href="#b-2"
       id="linearGradient4428"
       gradientUnits="userSpaceOnUse"
       x1="31.586"
       y1="36.345001"
       x2="1.2029999"
       y2="6.723" />
    <linearGradient
       xlink:href="#b-2"
       id="linearGradient4189-3"
       x1="14.369"
       y1="22.521999"
       x2="26.521999"
       y2="22.521999"
       gradientUnits="userSpaceOnUse"
       gradientTransform="translate(20.841982,61.553822)" />
    <linearGradient
       xlink:href="#b-2"
       id="linearGradient4428-5"
       gradientUnits="userSpaceOnUse"
       x1="31.586"
       y1="36.345001"
       x2="1.2029999"
       y2="6.723"
       gradientTransform="translate(20.841982,61.553822)" />
    <linearGradient
       xlink:href="#b-2"
       id="linearGradient4189-3-3"
       x1="14.369"
       y1="22.521999"
       x2="26.521999"
       y2="22.521999"
       gradientUnits="userSpaceOnUse"
       gradientTransform="translate(4.376802,4.4211693)" />
    <linearGradient
       xlink:href="#b-2"
       id="linearGradient4428-5-5"
       gradientUnits="userSpaceOnUse"
       x1="31.586"
       y1="36.345001"
       x2="1.2029999"
       y2="6.723"
       gradientTransform="translate(4.376802,4.4211693)" />
    <linearGradient
       inkscape:collect="always"
       xlink:href="#linearGradient14"
       id="linearGradient15"
       x1="-9.6850061"
       y1="45.161198"
       x2="11.98815"
       y2="21.735205"
       gradientUnits="userSpaceOnUse"
       gradientTransform="scale(0.26457813)" />
    <linearGradient
       id="linearGradient14"
       inkscape:collect="always">
      <stop
         style="stop-color:#9955ff;stop-opacity:0.45197046;"
         offset="0"
         id="stop12" />
      <stop
         style="stop-color:#00ccff;stop-opacity:1"
         offset="1"
         id="stop13" />
    </linearGradient>
    <linearGradient
       inkscape:collect="always"
       xlink:href="#shadow-3"
       id="linearGradient1769"
       gradientUnits="userSpaceOnUse"
       gradientTransform="matrix(1.3023974,0,0,1.3023974,88.871461,-1314.5874)"
       x1="21.084999"
       y1="1036.975"
       x2="35.969002"
       y2="1049.3621" />
    <linearGradient
       id="shadow-3">
      <stop
         style="stop-color:#31363b;stop-opacity:0.208"
         offset="0"
         id="stop7" />
      <stop
         style="stop-color:#31363b;stop-opacity:0;"
         offset="1"
         id="stop9" />
    </linearGradient>
    <linearGradient
       inkscape:collect="always"
       xlink:href="#shadow-3"
       id="linearGradient1771"
       gradientUnits="userSpaceOnUse"
       gradientTransform="matrix(1.3023974,0,0,1.3023974,94.109273,-1310.0112)"
       x1="21.969"
       y1="1035.3621"
       x2="35.969002"
       y2="1049.3621" />
    <linearGradient
       inkscape:collect="always"
       xlink:href="#shadow-3"
       id="linearGradient1773"
       gradientUnits="userSpaceOnUse"
       gradientTransform="matrix(1.3023974,0,0,1.3023974,72.841455,-1298.0969)"
       x1="21.084999"
       y1="1036.975"
       x2="35.969002"
       y2="1049.3621" />
    <linearGradient
       inkscape:collect="always"
       xlink:href="#shadow-3"
       id="linearGradient1775"
       gradientUnits="userSpaceOnUse"
       gradientTransform="matrix(1.3023974,0,0,1.3023974,77.34702,-1293.3012)"
       x1="21.969"
       y1="1035.3621"
       x2="35.969002"
       y2="1049.3621" />
    <linearGradient
       xlink:href="#shadow-3"
       id="linearGradient4227-6"
       gradientUnits="userSpaceOnUse"
       gradientTransform="matrix(1.3023974,0,0,1.3023974,60.572543,-1293.731)"
       x1="21.475"
       y1="1035.158"
       x2="34.474998"
       y2="1048.158" />
    <linearGradient
       inkscape:collect="always"
       xlink:href="#linearGradient14"
       id="linearGradient878"
       x1="-12.025727"
       y1="6.1170783"
       x2="-0.085100174"
       y2="6.1170783"
       gradientUnits="userSpaceOnUse" />
  </defs>
  <sodipodi:namedview
     id="namedview14"
     pagecolor="#000000"
     bordercolor="#666666"
     borderopacity="1.0"
     inkscape:showpageshadow="2"
     inkscape:pageopacity="0.0"
     inkscape:pagecheckerboard="0"
     inkscape:deskcolor="#d1d1d1"
     showgrid="false"
     inkscape:zoom="4.4272762"
     inkscape:cx="22.880141"
     inkscape:cy="36.575053"
     inkscape:window-width="1920"
     inkscape:window-height="988"
     inkscape:window-x="0"
     inkscape:window-y="0"
     inkscape:window-maximized="1"
     inkscape:current-layer="svg12"
     inkscape:document-rotation="0">
    <inkscape:grid
       type="xygrid"
       id="grid244"
       originx="9.9594769"
       originy="-31.57929"
       spacingy="1"
       spacingx="1"
       units="px"
       visible="false" />
  </sodipodi:namedview>
  <rect
     x="-12.194976"
     y="0.32004508"
     width="11.940627"
     height="11.936014"
     rx="1.6121091"
     shape-rendering="crispEdges"
     id="rect5-6-7-3"
     ry="1.7735944"
     transform="matrix(0.00523883,-0.99998628,0.999988,0.00489859,0,0)"
     style="fill:#80b3ff;fill-opacity:0.15;stroke:url(#linearGradient878);stroke-width:0.5291563;stroke-miterlimit:4;stroke-dasharray:none;stroke-opacity:1" />
  <rect
     x="-3.7202365"
     y="4.8851409"
     width="7.912631"
     height="7.912384"
     rx="1.612043"
     shape-rendering="crispEdges"
     id="rect5-6-6-6-6"
     style="fill:#80b3ff;fill-opacity:0.122146;stroke:url(#linearGradient15);stroke-width:0.42332506;stroke-opacity:1;stroke-miterlimit:4;stroke-dasharray:none"
     ry="1.7735215"
     transform="matrix(0.72612649,-0.68756114,0.6879775,0.72573202,0,0)" />
  <g
     id="g10"
     transform="matrix(0.21330361,0,0,0.21330361,-16.554943,-2.7361864)"
     style="stroke-width:1.24039">
    <path
       d="m 107.59665,39.849866 8.50984,-0.441103 2.00578,-7.092935 -5.87052,-4.663979 -7.21505,6.124524 z"
       style="fill:url(#linearGradient1769);fill-opacity:1;fill-rule:evenodd;stroke:none;stroke-width:1.30238px;stroke-linecap:butt;stroke-linejoin:miter;stroke-opacity:1"
       id="path23-1" />
    <path
       style="fill:url(#linearGradient1771);fill-opacity:1;fill-rule:evenodd;stroke:none;stroke-width:1.30238px;stroke-linecap:butt;stroke-linejoin:miter;stroke-opacity:1"
       d="m 112.26022,40.197835 4.17109,-1.044326 2.07539,-3.125419 -4.19999,-4.199985 -5.19648,5.219741 z"
       id="path25-2" />
    <path
       style="fill:url(#linearGradient1773);fill-opacity:1;fill-rule:evenodd;stroke:none;stroke-width:1.30238px;stroke-linecap:butt;stroke-linejoin:miter;stroke-opacity:1"
       d="m 95.763698,52.494867 6.676892,-0.673153 1.42573,-7.928207 -6.961002,-1.856498 -3.989984,4.801948 z"
       id="path29-0" />
    <path
       d="m 97.51598,52.668746 4.17109,-0.437323 2.32148,-3.617553 -3.21561,-3.314103 -7.280071,4.186125 z"
       style="fill:url(#linearGradient1775);fill-opacity:1;fill-rule:evenodd;stroke:none;stroke-width:1.30238px;stroke-linecap:butt;stroke-linejoin:miter;stroke-opacity:1"
       id="path31-9" />
    <path
       style="fill:url(#linearGradient4227-6);fill-opacity:1;fill-rule:evenodd;stroke:none;stroke-width:1.30238px;stroke-linecap:butt;stroke-linejoin:miter;stroke-opacity:1"
       d="m 85.73943,45.781611 14.27339,14.825045 a 20.999926,20.999926 0 0 0 3.28739,0.518846 l -8.602999,-8.602997 -2.102043,-5.223322 z"
       id="path33-3" />
    <path
       style="fill:#d5e5ff;fill-opacity:1;stroke:none;stroke-width:1.30238;stroke-linecap:round;stroke-linejoin:round;stroke-miterlimit:4;stroke-dasharray:none;stroke-opacity:1"
       d="m 114.55934,28.166051 c -4.34923,0 -7.87497,3.525745 -7.87497,7.874973 0.002,0.211557 0.012,0.422958 0.0308,0.633689 -1.35411,1.654502 -5.04571,5.824326 -5.36894,6.197438 -2.537612,0.03448 -4.80675,1.588204 -5.756545,3.941589 -1.299299,3.227942 0.264389,6.897971 3.492468,8.196943 3.227977,1.299283 6.898007,-0.264403 8.196987,-3.492468 0.2881,-0.721228 0.44037,-1.489511 0.44912,-2.266105 l 6.19128,-5.366876 c 0.21278,0.01893 0.42623,0.02919 0.63984,0.03076 4.34923,0 7.87497,-3.525745 7.87497,-7.874972 0,-4.349228 -3.52574,-7.874973 -7.87497,-7.874973 z m 0,3.149989 c 2.60954,0 4.72498,2.115447 4.72498,4.724984 0,2.609536 -2.11544,4.724983 -4.72498,4.724983 -2.60953,0 -4.72498,-2.115447 -4.72498,-4.724983 0,-2.609537 2.11545,-4.724984 4.72498,-4.724984 z m -13.07576,13.649952 c 0.52099,0.0061 1.03631,0.108962 1.51965,0.303514 2.15217,0.86625 3.19436,3.313353 2.32763,5.465314 -0.86625,2.152144 -3.31336,3.194341 -5.465355,2.327628 -2.152166,-0.86625 -3.194365,-3.313352 -2.327629,-5.465313 0.646866,-1.606738 2.21374,-2.651592 3.945704,-2.631143 z"
       id="path35-6" />
    <circle
       style="fill:#d5e5ff;fill-opacity:1;stroke:none;stroke-width:1.30238;stroke-linecap:round;stroke-linejoin:round;stroke-miterlimit:4;stroke-dasharray:none;stroke-opacity:1"
       cx="114.55894"
       cy="36.040974"
       id="ellipse37-0"
       r="3.6749871" />
  </g>
  <path
     style="fill:#d5e5ff;fill-opacity:1;stroke:none;stroke-width:0.277802;stroke-linecap:round;stroke-linejoin:round;stroke-miterlimit:4;stroke-dasharray:none;stroke-opacity:1"
     d="M 1.8715381,5.0888502 C 1.7933893,5.1816722 1.7100345,5.2725042 1.6546329,5.3708654 1.4610075,5.7066546 1.3733444,6.0741634 1.5485371,6.4326484 l 2.9300808,1.7727554 c 0.3782276,0.221059 0.8748895,0.2058409 1.1093817,-0.14732 0.2344398,-0.302458 0.117914,-0.726848 -0.2602786,-0.947952 z"
     id="path39-6-3"
     sodipodi:nodetypes="ccccccc" />
</svg>
