<?xml version="1.0" encoding="UTF-8" standalone="no"?>
<svg
   width="47.285591"
   height="47.28569"
   version="1.1"
   viewBox="0 0 12.510734 12.51076"
   id="svg12"
   sodipodi:docname="7-days-to-die.svg"
   inkscape:version="1.4 (e7c3feb100, 2024-10-09)"
   xmlns:inkscape="http://www.inkscape.org/namespaces/inkscape"
   xmlns:sodipodi="http://sodipodi.sourceforge.net/DTD/sodipodi-0.dtd"
   xmlns:xlink="http://www.w3.org/1999/xlink"
   xmlns="http://www.w3.org/2000/svg"
   xmlns:svg="http://www.w3.org/2000/svg"
   xmlns:rdf="http://www.w3.org/1999/02/22-rdf-syntax-ns#"
   xmlns:cc="http://creativecommons.org/ns#"
   xmlns:dc="http://purl.org/dc/elements/1.1/">
  <style
     id="style864" />
  <metadata
     id="metadata39">
    <rdf:RDF>
      <cc:Work
         rdf:about="">
        <dc:format>image/svg+xml</dc:format>
        <dc:type
           rdf:resource="http://purl.org/dc/dcmitype/StillImage" />
      </cc:Work>
    </rdf:RDF>
  </metadata>
  <defs
     id="defs16">
    <linearGradient
       id="linearGradient2"
       inkscape:collect="always">
      <stop
         style="stop-color:#525c6b;stop-opacity:1;"
         offset="0"
         id="stop1" />
      <stop
         style="stop-color:#4e5766;stop-opacity:1;"
         offset="1"
         id="stop2" />
    </linearGradient>
    <linearGradient
       id="c"
       y1="523.79999"
       x1="403.57001"
       y2="536.79999"
       x2="416.57001"
       gradientUnits="userSpaceOnUse"
       gradientTransform="matrix(0.34526714,0,0,0.34526706,-134.80427,-174.63325)">
      <stop
         stop-color="#292c2f"
         id="stop1568" />
      <stop
         offset="1"
         stop-opacity="0"
         id="stop1570" />
    </linearGradient>
    <linearGradient
       xlink:href="#b-2"
       id="linearGradient4189"
       x1="14.369"
       y1="22.521999"
       x2="26.521999"
       y2="22.521999"
       gradientUnits="userSpaceOnUse" />
    <linearGradient
       x1="36"
       gradientUnits="userSpaceOnUse"
       x2="14"
       y2="12"
       y1="44"
       id="b-2">
      <stop
         style="stop-color:#bfc9c9;stop-opacity:1"
         stop-color="#536161"
         id="stop1579" />
      <stop
         style="stop-color:#fbfbfb;stop-opacity:1"
         stop-color="#f4f5f5"
         offset="1"
         id="stop1581" />
    </linearGradient>
    <linearGradient
       xlink:href="#b-2"
       id="linearGradient4428"
       gradientUnits="userSpaceOnUse"
       x1="31.586"
       y1="36.345001"
       x2="1.2029999"
       y2="6.723" />
    <linearGradient
       xlink:href="#b-2"
       id="linearGradient4189-3"
       x1="14.369"
       y1="22.521999"
       x2="26.521999"
       y2="22.521999"
       gradientUnits="userSpaceOnUse"
       gradientTransform="translate(20.841982,61.553822)" />
    <linearGradient
       xlink:href="#b-2"
       id="linearGradient4428-5"
       gradientUnits="userSpaceOnUse"
       x1="31.586"
       y1="36.345001"
       x2="1.2029999"
       y2="6.723"
       gradientTransform="translate(20.841982,61.553822)" />
    <linearGradient
       xlink:href="#b-2"
       id="linearGradient4189-3-3"
       x1="14.369"
       y1="22.521999"
       x2="26.521999"
       y2="22.521999"
       gradientUnits="userSpaceOnUse"
       gradientTransform="translate(4.376802,4.4211693)" />
    <linearGradient
       xlink:href="#b-2"
       id="linearGradient4428-5-5"
       gradientUnits="userSpaceOnUse"
       x1="31.586"
       y1="36.345001"
       x2="1.2029999"
       y2="6.723"
       gradientTransform="translate(4.376802,4.4211693)" />
    <linearGradient
       inkscape:collect="always"
       xlink:href="#linearGradient2"
       id="linearGradient15"
       x1="-9.6850061"
       y1="45.161198"
       x2="11.98815"
       y2="21.735205"
       gradientUnits="userSpaceOnUse"
       gradientTransform="scale(0.26457813)" />
    <filter
       id="filter2917-3"
       x="-0.96181148"
       y="-0.66745996"
       width="2.9236228"
       height="2.3349199"
       color-interpolation-filters="sRGB">
      <feGaussianBlur
         stdDeviation="0.2871969"
         id="feGaussianBlur732-5" />
    </filter>
    <filter
       id="filter1"
       x="-0.96181148"
       y="-0.66745996"
       width="2.9236228"
       height="2.3349199"
       color-interpolation-filters="sRGB">
      <feGaussianBlur
         stdDeviation="0.2871969"
         id="feGaussianBlur1" />
    </filter>
    <filter
       id="filter2"
       x="-0.96181148"
       y="-0.66745996"
       width="2.9236228"
       height="2.3349199"
       color-interpolation-filters="sRGB">
      <feGaussianBlur
         stdDeviation="0.2871969"
         id="feGaussianBlur2" />
    </filter>
    <linearGradient
       inkscape:collect="always"
       xlink:href="#linearGradient2"
       id="linearGradient867"
       x1="-12.194976"
       y1="6.2880521"
       x2="-0.25434875"
       y2="6.2880521"
       gradientUnits="userSpaceOnUse" />
  </defs>
  <sodipodi:namedview
     id="namedview14"
     pagecolor="#000000"
     bordercolor="#666666"
     borderopacity="1.0"
     inkscape:showpageshadow="2"
     inkscape:pageopacity="0.0"
     inkscape:pagecheckerboard="0"
     inkscape:deskcolor="#d1d1d1"
     showgrid="false"
     inkscape:zoom="9.0252824"
     inkscape:cx="10.581386"
     inkscape:cy="31.577959"
     inkscape:window-width="1920"
     inkscape:window-height="994"
     inkscape:window-x="0"
     inkscape:window-y="0"
     inkscape:window-maximized="1"
     inkscape:current-layer="svg12"
     inkscape:document-rotation="0">
    <inkscape:grid
       type="xygrid"
       id="grid244"
       originx="9.9594769"
       originy="-31.57929"
       spacingy="1"
       spacingx="1"
       units="px"
       visible="false" />
  </sodipodi:namedview>
  <rect
     x="-12.194976"
     y="0.32004508"
     width="11.940627"
     height="11.936014"
     rx="1.6121091"
     shape-rendering="crispEdges"
     id="rect5-6-7-3"
     ry="1.7735944"
     transform="matrix(0.00523883,-0.99998628,0.999988,0.00489859,0,0)"
     style="fill:#373e48;fill-opacity:0.12;stroke:url(#linearGradient867);stroke-width:0.5291563;stroke-miterlimit:4;stroke-dasharray:none;stroke-opacity:1" />
  <rect
     x="-3.7202365"
     y="4.8851409"
     width="7.912631"
     height="7.912384"
     rx="1.612043"
     shape-rendering="crispEdges"
     id="rect5-6-6-6-6"
     style="fill:#4e5766;fill-opacity:0.41999999;stroke:url(#linearGradient15);stroke-width:0.39686725;stroke-opacity:1;stroke-miterlimit:4;stroke-dasharray:none"
     ry="1.7735215"
     transform="matrix(0.72612649,-0.68756114,0.6879775,0.72573202,0,0)" />
  <g
     id="g1759"
     transform="matrix(0.14431535,0,0,0.14431535,1.9018539,2.3264127)">
    <path
       d="m 10,9.9166667 4.583333,8.2500003 H 34.75 l -4.583333,5.5 2.75,-1.833334 L 32,23.666667 l 2.75,-1.833334 -6.416667,5.5 V 26.416667 L 27.416667,28.25 l 0.916666,1.833333 -6.416666,7.333334 -2.75,2.75 v 2.75 L 21,44.75 18.25,46.583333 h 1.833333 L 18.25,49.333333 24.666667,42.916667 18.25,53 l 8.25,-7.333333 0.916667,-2.75 v -1.833334 l 2.75,-2.75 V 39.25 L 33.833333,38.333333 37.5,34.666667 36.583333,33.75 34.75,35.583333 V 33.75 L 37.5,30.956349 V 28.25 L 50.333333,9.9166667 Z"
       style="opacity:0.2;stroke-width:0.916667"
       id="path6" />
    <path
       d="m 10,9 4.583333,8.25 H 34.75 l -4.583333,5.5 2.75,-1.833333 L 32,22.75 l 2.75,-1.833333 -6.416667,5.5 V 25.5 l -0.916666,1.833333 0.916666,1.833334 -6.416666,7.333333 -2.75,2.75 V 42 L 21,43.833333 18.25,45.666667 h 1.833333 L 18.25,48.416667 24.666667,42 18.25,52.083333 26.5,44.75 27.416667,42 v -1.833333 l 2.75,-2.75 v 0.916666 L 33.833333,37.416667 37.5,33.75 36.583333,32.833333 34.75,34.666667 v -1.833334 l 2.75,-2.79365 v -2.70635 L 50.333333,9 Z"
       style="fill:#c6241d;stroke-width:0.916667"
       id="path8" />
    <path
       d="m 10,9 0.508464,0.9166667 H 49.692383 L 50.333333,9 Z M 33.985515,18.166667 30.166667,22.75 31.885417,21.604167 34.75,18.166667 Z m -1.068848,3.666666 -0.6875,0.458334 L 32,22.75 32.6875,22.291667 Z m 1.833333,0 -2.75,1.833334 0.34375,-0.6875 -4.010417,3.4375 v 0.916666 z m -6.416667,4.583334 V 25.5 l -0.916666,1.833333 0.229166,0.458334 z M 28.041504,29.499674 21.916667,36.5 l -2.75,2.75 v 0.916667 l 2.75,-2.75 6.416666,-7.333334 z M 36.583333,32.833333 34.75,34.666667 v 0.916666 L 36.583333,33.75 37.041667,34.208333 37.5,33.75 Z M 24.666667,42.916667 23.0625,44.520833 18.25,52.083333 19.592774,50.88916 Z M 20.450358,44.200358 18.25,45.666667 h 1.375 L 21,44.75 Z M 19.472819,46.583333 18.25,48.416667 20.083333,46.583333 Z"
       style="opacity:0.2;fill:#ffffff;stroke-width:0.916667"
       id="path12" />
  </g>
</svg>
