<?xml version="1.0" encoding="UTF-8" standalone="no"?>
<svg
   xmlns:dc="http://purl.org/dc/elements/1.1/"
   xmlns:cc="http://creativecommons.org/ns#"
   xmlns:rdf="http://www.w3.org/1999/02/22-rdf-syntax-ns#"
   xmlns:svg="http://www.w3.org/2000/svg"
   xmlns="http://www.w3.org/2000/svg"
   xmlns:xlink="http://www.w3.org/1999/xlink"
   xmlns:sodipodi="http://sodipodi.sourceforge.net/DTD/sodipodi-0.dtd"
   xmlns:inkscape="http://www.inkscape.org/namespaces/inkscape"
   width="47.285591"
   height="47.28569"
   version="1.1"
   viewBox="0 0 12.510734 12.51076"
   id="svg12"
   sodipodi:docname="digikam.svg"
   inkscape:version="1.0.1 (3bc2e813f5, 2020-09-07)">
  <style
     id="style864"></style>
  <metadata
     id="metadata39">
    <rdf:RDF>
      <cc:Work
         rdf:about="">
        <dc:format>image/svg+xml</dc:format>
        <dc:type
           rdf:resource="http://purl.org/dc/dcmitype/StillImage" />
      </cc:Work>
    </rdf:RDF>
  </metadata>
  <defs
     id="defs16">
    <linearGradient
       id="c"
       y1="523.79999"
       x1="403.57001"
       y2="536.79999"
       x2="416.57001"
       gradientUnits="userSpaceOnUse"
       gradientTransform="matrix(0.34526714,0,0,0.34526706,-134.80427,-174.63325)">
      <stop
         stop-color="#292c2f"
         id="stop1568" />
      <stop
         offset="1"
         stop-opacity="0"
         id="stop1570" />
    </linearGradient>
    <linearGradient
       xlink:href="#b-2"
       id="linearGradient4189"
       x1="14.369"
       y1="22.521999"
       x2="26.521999"
       y2="22.521999"
       gradientUnits="userSpaceOnUse" />
    <linearGradient
       x1="36"
       gradientUnits="userSpaceOnUse"
       x2="14"
       y2="12"
       y1="44"
       id="b-2">
      <stop
         style="stop-color:#bfc9c9;stop-opacity:1"
         stop-color="#536161"
         id="stop1579" />
      <stop
         style="stop-color:#fbfbfb;stop-opacity:1"
         stop-color="#f4f5f5"
         offset="1"
         id="stop1581" />
    </linearGradient>
    <linearGradient
       xlink:href="#b-2"
       id="linearGradient4428"
       gradientUnits="userSpaceOnUse"
       x1="31.586"
       y1="36.345001"
       x2="1.2029999"
       y2="6.723" />
    <linearGradient
       xlink:href="#b-2"
       id="linearGradient4189-3"
       x1="14.369"
       y1="22.521999"
       x2="26.521999"
       y2="22.521999"
       gradientUnits="userSpaceOnUse"
       gradientTransform="translate(20.841982,61.553822)" />
    <linearGradient
       xlink:href="#b-2"
       id="linearGradient4428-5"
       gradientUnits="userSpaceOnUse"
       x1="31.586"
       y1="36.345001"
       x2="1.2029999"
       y2="6.723"
       gradientTransform="translate(20.841982,61.553822)" />
    <linearGradient
       xlink:href="#b-2"
       id="linearGradient4189-3-3"
       x1="14.369"
       y1="22.521999"
       x2="26.521999"
       y2="22.521999"
       gradientUnits="userSpaceOnUse"
       gradientTransform="translate(4.376802,4.4211693)" />
    <linearGradient
       xlink:href="#b-2"
       id="linearGradient4428-5-5"
       gradientUnits="userSpaceOnUse"
       x1="31.586"
       y1="36.345001"
       x2="1.2029999"
       y2="6.723"
       gradientTransform="translate(4.376802,4.4211693)" />
    <linearGradient
       inkscape:collect="always"
       xlink:href="#linearGradient14"
       id="linearGradient15"
       x1="-9.6850061"
       y1="45.161198"
       x2="11.98815"
       y2="21.735205"
       gradientUnits="userSpaceOnUse"
       gradientTransform="scale(0.26457813)" />
    <linearGradient
       id="linearGradient14"
       inkscape:collect="always">
      <stop
         style="stop-color:#9955ff;stop-opacity:0.45197046;"
         offset="0"
         id="stop12" />
      <stop
         style="stop-color:#00ccff;stop-opacity:1"
         offset="1"
         id="stop13" />
    </linearGradient>
    <filter
       id="filter2917-3"
       x="-0.96181148"
       y="-0.66745996"
       width="2.9236228"
       height="2.3349199"
       color-interpolation-filters="sRGB">
      <feGaussianBlur
         stdDeviation="0.2871969"
         id="feGaussianBlur732-5" />
    </filter>
    <filter
       id="filter1"
       x="-0.96181148"
       y="-0.66745996"
       width="2.9236228"
       height="2.3349199"
       color-interpolation-filters="sRGB">
      <feGaussianBlur
         stdDeviation="0.2871969"
         id="feGaussianBlur1" />
    </filter>
    <filter
       id="filter2"
       x="-0.96181148"
       y="-0.66745996"
       width="2.9236228"
       height="2.3349199"
       color-interpolation-filters="sRGB">
      <feGaussianBlur
         stdDeviation="0.2871969"
         id="feGaussianBlur2" />
    </filter>
    <linearGradient
       id="paint2_linear_644_29"
       x1="120.952"
       y1="151.42799"
       x2="120.952"
       y2="124.926"
       gradientUnits="userSpaceOnUse"
       gradientTransform="matrix(1.2537095,0,0,1.2499999,24.79937,25.724714)">
      <stop
         stop-color="#5570FF"
         id="stop6" />
      <stop
         offset="1"
         stop-color="#4DD3FF"
         id="stop7" />
    </linearGradient>
    <linearGradient
       inkscape:collect="always"
       xlink:href="#linearGradient14"
       id="linearGradient872"
       x1="-12.025727"
       y1="6.1170783"
       x2="-0.085100174"
       y2="6.1170783"
       gradientUnits="userSpaceOnUse" />
  </defs>
  <sodipodi:namedview
     id="namedview14"
     pagecolor="#000000"
     bordercolor="#666666"
     borderopacity="1.0"
     inkscape:showpageshadow="2"
     inkscape:pageopacity="0.0"
     inkscape:pagecheckerboard="0"
     inkscape:deskcolor="#d1d1d1"
     showgrid="false"
     inkscape:zoom="7.5172018"
     inkscape:cx="23.845543"
     inkscape:cy="39.867472"
     inkscape:window-width="1920"
     inkscape:window-height="988"
     inkscape:window-x="0"
     inkscape:window-y="0"
     inkscape:window-maximized="1"
     inkscape:current-layer="svg12"
     inkscape:document-rotation="0">
    <inkscape:grid
       type="xygrid"
       id="grid244"
       originx="9.9594769"
       originy="-31.57929"
       spacingy="1"
       spacingx="1"
       units="px"
       visible="false" />
  </sodipodi:namedview>
  <rect
     x="-12.194976"
     y="0.32004508"
     width="11.940627"
     height="11.936014"
     rx="1.6121091"
     shape-rendering="crispEdges"
     id="rect5-6-7-3"
     ry="1.7735944"
     transform="matrix(0.00523883,-0.99998628,0.999988,0.00489859,0,0)"
     style="fill:#80b3ff;fill-opacity:0.15;stroke:url(#linearGradient872);stroke-width:0.529156;stroke-miterlimit:4;stroke-dasharray:none;stroke-opacity:1" />
  <rect
     x="-3.7202365"
     y="4.8851409"
     width="7.912631"
     height="7.912384"
     rx="1.612043"
     shape-rendering="crispEdges"
     id="rect5-6-6-6-6"
     style="fill:#80b3ff;fill-opacity:0.122146;stroke:url(#linearGradient15);stroke-width:0.396867;stroke-miterlimit:4;stroke-dasharray:none;stroke-opacity:1"
     ry="1.7735215"
     transform="matrix(0.72612649,-0.68756114,0.6879775,0.72573202,0,0)" />
  <g
     id="g1"
     transform="matrix(0.21103621,0,0,0.21166249,-5.1163957,-5.2484168)"
     style="fill:#aaeeff;fill-opacity:1;stroke-width:1.25185">
    <path
       fill-rule="evenodd"
       clip-rule="evenodd"
       d="M 64.470291,44.421156 C 61.942914,41.157513 57.809947,39.1299 53.6517,39.368755 c 1.517167,2.782019 3.112973,5.520196 4.708516,8.257579 l 2.64e-4,1.59e-4 v 2.38e-4 7.9e-5 1.06e-4 l 2.64e-4,7.9e-5 v 8e-5 c 0.745944,1.279897 1.491888,2.559636 2.229634,3.84358 0.799623,-1.106964 1.466503,-2.301267 2.133648,-3.495993 0.442913,-0.792774 0.885825,-1.585759 1.367608,-2.353571 0.0431,-0.113729 0.117405,-0.230261 0.19303,-0.349147 0.174256,-0.273098 0.356181,-0.558572 0.185627,-0.850788 z M 49.925208,39.652061 c -4.066306,0.594401 -7.896031,3.110884 -9.702373,6.849514 4.387451,0.114945 8.782278,0.0751 13.172902,0.03527 h 2.6e-5 2.6e-5 v 0 l 0.832305,-0.0075 c -0.73571,-1.331169 -1.497731,-2.647452 -2.259646,-3.963576 l -1.58e-4,-2.64e-4 c -0.425619,-0.735182 -0.851186,-1.470311 -1.272124,-2.207925 -0.05397,-0.06732 -0.103205,-0.148924 -0.153631,-0.23243 -0.147179,-0.243853 -0.304274,-0.5041 -0.617327,-0.473083 z m 9.997232,19.159701 c 1.501143,-2.641609 3.031901,-5.265501 4.56213,-7.888626 l 0.0011,-0.0019 0.0011,-0.0019 0.0011,-0.0019 c 0.817867,-1.401903 1.63547,-2.803595 2.448314,-4.207667 2.499347,3.446969 2.688676,8.177193 1.088374,12.046344 -0.657097,0.277382 -1.345925,0.226612 -2.036603,0.175842 h -2.65e-4 v 0 0 c -0.353537,-0.02591 -0.707602,-0.05209 -1.05823,-0.03411 l -0.154424,0.0079 -0.109208,0.0058 h -2.64e-4 c -1.580735,0.0825 -3.174162,0.165794 -4.742997,-0.09995 z M 40.155513,49.356945 c -0.261913,4.76e-4 -0.546065,10e-4 -0.675951,0.249961 -1.650463,3.808042 -1.263582,8.368743 0.985275,11.85757 0.655696,-0.852507 1.178227,-1.792803 1.700546,-2.732571 v 0 h 2.6e-5 c 0.297981,-0.536254 0.595909,-1.072508 0.918455,-1.592104 0.538714,-0.979167 1.109291,-1.941966 1.679762,-2.90458 0.947409,-1.598662 1.894633,-3.196981 2.695472,-4.869973 -1.269744,-0.01499 -2.538694,-0.01378 -3.807698,-0.01256 h -6.34e-4 c -1.078459,10e-4 -2.156944,0.0021 -3.236037,-0.0069 -0.07864,0.01082 -0.167566,0.01097 -0.259216,0.01113 z m 4.45041,11.150841 h 2.6e-5 v 0 c 0.638032,-1.144697 1.275905,-2.28913 2.068758,-3.32647 0.813028,1.415733 1.637612,2.825913 2.462249,4.235828 h 2.6e-5 l 7.9e-5,2.65e-4 c 1.532504,2.620454 3.065086,5.240909 4.523577,7.899176 -4.063529,0.319426 -8.121479,-1.69999 -10.6932,-4.782924 -0.482867,-0.460629 -0.156566,-0.980489 0.143186,-1.458041 0.08901,-0.141732 0.175658,-0.279762 0.238115,-0.411446 0.445715,-0.700727 0.851476,-1.42869 1.257184,-2.156388 z m 8.786905,1.478402 -0.107806,2.64e-4 c 0.527422,1.140995 1.164079,2.224874 1.80108,3.309018 0.364642,0.620871 0.729549,1.242006 1.073831,1.873982 0.115818,0.183511 0.219737,0.377071 0.323656,0.570894 0.244329,0.455341 0.48998,0.912796 0.889791,1.245708 4.135876,-0.563755 8.1718,-3.099858 9.89453,-6.99114 -4.625856,-0.02486 -9.251976,-0.01666 -13.875082,-0.0087 z"
       fill="url(#paint2_linear_644_29)"
       id="path2"
       style="fill:#aaeeff;fill-opacity:1;stroke-width:1.25185" />
  </g>
</svg>
