<?xml version="1.0" encoding="UTF-8" standalone="no"?>
<svg
   xmlns:dc="http://purl.org/dc/elements/1.1/"
   xmlns:cc="http://creativecommons.org/ns#"
   xmlns:rdf="http://www.w3.org/1999/02/22-rdf-syntax-ns#"
   xmlns:svg="http://www.w3.org/2000/svg"
   xmlns="http://www.w3.org/2000/svg"
   xmlns:xlink="http://www.w3.org/1999/xlink"
   xmlns:sodipodi="http://sodipodi.sourceforge.net/DTD/sodipodi-0.dtd"
   xmlns:inkscape="http://www.inkscape.org/namespaces/inkscape"
   width="47.285591"
   height="47.28569"
   version="1.1"
   viewBox="0 0 12.510734 12.51076"
   id="svg12"
   sodipodi:docname="krfb.svg"
   inkscape:version="1.0.1 (3bc2e813f5, 2020-09-07)">
  <style
     id="style866"></style>
  <metadata
     id="metadata41">
    <rdf:RDF>
      <cc:Work
         rdf:about="">
        <dc:format>image/svg+xml</dc:format>
        <dc:type
           rdf:resource="http://purl.org/dc/dcmitype/StillImage" />
      </cc:Work>
    </rdf:RDF>
  </metadata>
  <defs
     id="defs16">
    <linearGradient
       id="c"
       y1="523.79999"
       x1="403.57001"
       y2="536.79999"
       x2="416.57001"
       gradientUnits="userSpaceOnUse"
       gradientTransform="matrix(0.34526714,0,0,0.34526706,-134.80427,-174.63325)">
      <stop
         stop-color="#292c2f"
         id="stop1568" />
      <stop
         offset="1"
         stop-opacity="0"
         id="stop1570" />
    </linearGradient>
    <linearGradient
       xlink:href="#b-2"
       id="linearGradient4189"
       x1="14.369"
       y1="22.521999"
       x2="26.521999"
       y2="22.521999"
       gradientUnits="userSpaceOnUse" />
    <linearGradient
       x1="36"
       gradientUnits="userSpaceOnUse"
       x2="14"
       y2="12"
       y1="44"
       id="b-2">
      <stop
         style="stop-color:#bfc9c9;stop-opacity:1"
         stop-color="#536161"
         id="stop1579" />
      <stop
         style="stop-color:#fbfbfb;stop-opacity:1"
         stop-color="#f4f5f5"
         offset="1"
         id="stop1581" />
    </linearGradient>
    <linearGradient
       xlink:href="#b-2"
       id="linearGradient4428"
       gradientUnits="userSpaceOnUse"
       x1="31.586"
       y1="36.345001"
       x2="1.2029999"
       y2="6.723" />
    <linearGradient
       xlink:href="#b-2"
       id="linearGradient4189-3"
       x1="14.369"
       y1="22.521999"
       x2="26.521999"
       y2="22.521999"
       gradientUnits="userSpaceOnUse"
       gradientTransform="translate(20.841982,61.553822)" />
    <linearGradient
       xlink:href="#b-2"
       id="linearGradient4428-5"
       gradientUnits="userSpaceOnUse"
       x1="31.586"
       y1="36.345001"
       x2="1.2029999"
       y2="6.723"
       gradientTransform="translate(20.841982,61.553822)" />
    <linearGradient
       xlink:href="#b-2"
       id="linearGradient4189-3-3"
       x1="14.369"
       y1="22.521999"
       x2="26.521999"
       y2="22.521999"
       gradientUnits="userSpaceOnUse"
       gradientTransform="translate(4.376802,4.4211693)" />
    <linearGradient
       xlink:href="#b-2"
       id="linearGradient4428-5-5"
       gradientUnits="userSpaceOnUse"
       x1="31.586"
       y1="36.345001"
       x2="1.2029999"
       y2="6.723"
       gradientTransform="translate(4.376802,4.4211693)" />
    <linearGradient
       inkscape:collect="always"
       xlink:href="#linearGradient14"
       id="linearGradient15"
       x1="-9.6850061"
       y1="45.161198"
       x2="11.98815"
       y2="21.735205"
       gradientUnits="userSpaceOnUse"
       gradientTransform="scale(0.26457813)" />
    <linearGradient
       id="linearGradient14"
       inkscape:collect="always">
      <stop
         style="stop-color:#ffb380;stop-opacity:0.87807882;"
         offset="0"
         id="stop12" />
      <stop
         style="stop-color:#00ccff;stop-opacity:1"
         offset="1"
         id="stop13" />
    </linearGradient>
    <filter
       id="filter2917-3"
       x="-0.96181148"
       y="-0.66745996"
       width="2.9236228"
       height="2.3349199"
       color-interpolation-filters="sRGB">
      <feGaussianBlur
         stdDeviation="0.2871969"
         id="feGaussianBlur732-5" />
    </filter>
    <filter
       id="filter1"
       x="-0.96181148"
       y="-0.66745996"
       width="2.9236228"
       height="2.3349199"
       color-interpolation-filters="sRGB">
      <feGaussianBlur
         stdDeviation="0.2871969"
         id="feGaussianBlur1" />
    </filter>
    <filter
       id="filter2"
       x="-0.96181148"
       y="-0.66745996"
       width="2.9236228"
       height="2.3349199"
       color-interpolation-filters="sRGB">
      <feGaussianBlur
         stdDeviation="0.2871969"
         id="feGaussianBlur2" />
    </filter>
    <linearGradient
       id="a">
      <stop
         offset="0"
         id="stop1433" />
      <stop
         offset="1"
         stop-opacity="0"
         id="stop1435" />
    </linearGradient>
    <linearGradient
       id="linearGradient4161">
      <stop
         style="stop-color:#334545;stop-opacity:1;"
         offset="0"
         id="stop7" />
      <stop
         style="stop-color:#4d6868;stop-opacity:1"
         offset="1"
         id="stop9" />
    </linearGradient>
    <linearGradient
       inkscape:collect="always"
       xlink:href="#linearGradient14"
       id="linearGradient874"
       x1="-12.025727"
       y1="6.1170783"
       x2="-0.085100174"
       y2="6.1170783"
       gradientUnits="userSpaceOnUse" />
  </defs>
  <sodipodi:namedview
     id="namedview14"
     pagecolor="#000000"
     bordercolor="#666666"
     borderopacity="1.0"
     inkscape:showpageshadow="2"
     inkscape:pageopacity="0.0"
     inkscape:pagecheckerboard="0"
     inkscape:deskcolor="#d1d1d1"
     showgrid="false"
     inkscape:zoom="6.2611141"
     inkscape:cx="6.8816357"
     inkscape:cy="56.060846"
     inkscape:window-width="1920"
     inkscape:window-height="988"
     inkscape:window-x="0"
     inkscape:window-y="0"
     inkscape:window-maximized="1"
     inkscape:current-layer="svg12"
     inkscape:document-rotation="0">
    <inkscape:grid
       type="xygrid"
       id="grid244"
       originx="9.9594769"
       originy="-31.57929"
       spacingy="1"
       spacingx="1"
       units="px"
       visible="false" />
  </sodipodi:namedview>
  <rect
     x="-12.194976"
     y="0.32004508"
     width="11.940627"
     height="11.936014"
     rx="1.6121091"
     shape-rendering="crispEdges"
     id="rect5-6-7-3"
     ry="1.7735944"
     transform="matrix(0.00523883,-0.99998628,0.999988,0.00489859,0,0)"
     style="fill:#80b3ff;fill-opacity:0.15;stroke:url(#linearGradient874);stroke-width:0.5291563;stroke-miterlimit:4;stroke-dasharray:none;stroke-opacity:1" />
  <rect
     x="-3.7202365"
     y="4.8851409"
     width="7.912631"
     height="7.912384"
     rx="1.612043"
     shape-rendering="crispEdges"
     id="rect5-6-6-6-6"
     style="fill:#80b3ff;fill-opacity:0.122146;stroke:url(#linearGradient15);stroke-width:0.39686725;stroke-opacity:1;stroke-miterlimit:4;stroke-dasharray:none"
     ry="1.7735215"
     transform="matrix(0.72612649,-0.68756114,0.6879775,0.72573202,0,0)" />
  <path
     color="#000000"
     stroke-width="0.0264578"
     d="M 7.784056,3.3450216 A 0.58795143,0.58207197 0 0 0 7.1961046,3.9270931 0.58795143,0.58207197 0 0 0 7.784056,4.5091649 0.58795143,0.58207197 0 0 0 8.3720073,3.9270931 0.58795143,0.58207197 0 0 0 7.784056,3.3450216 M 6.7551409,4.2181289 A 0.14698785,0.14551799 0 0 0 6.6081532,4.3636472 0.14698785,0.14551799 0 0 0 6.7551409,4.5091649 0.14698785,0.14551799 0 0 0 6.9021289,4.3636472 0.14698785,0.14551799 0 0 0 6.7551409,4.2181289 M 5.8732139,4.8002017 A 0.14698785,0.14551799 0 0 0 5.7262262,4.9457199 0.14698785,0.14551799 0 0 0 5.8732139,5.0912375 0.14698785,0.14551799 0 0 0 6.0202019,4.9457199 0.14698785,0.14551799 0 0 0 5.8732139,4.8002017 M 4.9912869,5.3822735 A 0.14698785,0.14551799 0 0 0 4.8442989,5.5277918 0.14698785,0.14551799 0 0 0 4.9912869,5.6733094 0.14698785,0.14551799 0 0 0 5.1382748,5.5277918 0.14698785,0.14551799 0 0 0 4.9912869,5.3822735 M 3.668396,5.6733094 A 0.58795143,0.58207197 0 0 0 3.0804446,6.255381 0.58795143,0.58207197 0 0 0 3.668396,6.837454 0.58795143,0.58207197 0 0 0 4.2563476,6.255381 0.58795143,0.58207197 0 0 0 3.668396,5.6733094 M 4.9912869,6.837454 A 0.14698785,0.14551799 0 0 0 4.8442989,6.9829717 0.14698785,0.14551799 0 0 0 4.9912869,7.1284896 0.14698785,0.14551799 0 0 0 5.1382748,6.9829717 0.14698785,0.14551799 0 0 0 4.9912869,6.837454 m 0.881927,0.5820714 a 0.14698785,0.14551799 0 0 0 -0.1469877,0.145518 0.14698785,0.14551799 0 0 0 0.1469877,0.1455179 0.14698785,0.14551799 0 0 0 0.146988,-0.1455179 0.14698785,0.14551799 0 0 0 -0.146988,-0.145518 m 0.881927,0.5820718 A 0.14698785,0.14551799 0 0 0 6.6081532,8.1471149 0.14698785,0.14551799 0 0 0 6.7551409,8.292633 0.14698785,0.14551799 0 0 0 6.9021289,8.1471149 0.14698785,0.14551799 0 0 0 6.7551409,8.0015972 m 1.0289151,0 A 0.58795143,0.58207197 0 0 0 7.1961046,8.5836688 0.58795143,0.58207197 0 0 0 7.784056,9.1657405 0.58795143,0.58207197 0 0 0 8.3720073,8.5836688 0.58795143,0.58207197 0 0 0 7.784056,8.0015972"
     id="path28-5-2"
     style="fill:#e9c6af;fill-opacity:1;fill-rule:evenodd" />
</svg>
