<?xml version="1.0" encoding="UTF-8" standalone="no"?>
<svg
   width="45.999886"
   height="45.999989"
   version="1.1"
   viewBox="0 0 12.170564 12.170591"
   id="svg12"
   sodipodi:docname="imageviewer.svg"
   inkscape:version="1.3.2 (091e20ef0f, 2023-11-25)"
   xmlns:inkscape="http://www.inkscape.org/namespaces/inkscape"
   xmlns:sodipodi="http://sodipodi.sourceforge.net/DTD/sodipodi-0.dtd"
   xmlns:xlink="http://www.w3.org/1999/xlink"
   xmlns="http://www.w3.org/2000/svg"
   xmlns:svg="http://www.w3.org/2000/svg">
  <defs
     id="defs16">
    <linearGradient
       id="c"
       y1="523.79999"
       x1="403.57001"
       y2="536.79999"
       x2="416.57001"
       gradientUnits="userSpaceOnUse"
       gradientTransform="matrix(0.34526714,0,0,0.34526706,-134.80427,-174.63325)">
      <stop
         stop-color="#292c2f"
         id="stop1568" />
      <stop
         offset="1"
         stop-opacity="0"
         id="stop1570" />
    </linearGradient>
    <linearGradient
       xlink:href="#b-2"
       id="linearGradient4189"
       x1="14.369"
       y1="22.521999"
       x2="26.521999"
       y2="22.521999"
       gradientUnits="userSpaceOnUse" />
    <linearGradient
       x1="36"
       gradientUnits="userSpaceOnUse"
       x2="14"
       y2="12"
       y1="44"
       id="b-2">
      <stop
         style="stop-color:#bfc9c9;stop-opacity:1"
         stop-color="#536161"
         id="stop1579" />
      <stop
         style="stop-color:#fbfbfb;stop-opacity:1"
         stop-color="#f4f5f5"
         offset="1"
         id="stop1581" />
    </linearGradient>
    <linearGradient
       xlink:href="#b-2"
       id="linearGradient4428"
       gradientUnits="userSpaceOnUse"
       x1="31.586"
       y1="36.345001"
       x2="1.2029999"
       y2="6.723" />
    <linearGradient
       xlink:href="#b-2"
       id="linearGradient4189-3"
       x1="14.369"
       y1="22.521999"
       x2="26.521999"
       y2="22.521999"
       gradientUnits="userSpaceOnUse"
       gradientTransform="translate(20.841982,61.553822)" />
    <linearGradient
       xlink:href="#b-2"
       id="linearGradient4428-5"
       gradientUnits="userSpaceOnUse"
       x1="31.586"
       y1="36.345001"
       x2="1.2029999"
       y2="6.723"
       gradientTransform="translate(20.841982,61.553822)" />
    <linearGradient
       xlink:href="#b-2"
       id="linearGradient4189-3-3"
       x1="14.369"
       y1="22.521999"
       x2="26.521999"
       y2="22.521999"
       gradientUnits="userSpaceOnUse"
       gradientTransform="translate(4.376802,4.4211693)" />
    <linearGradient
       xlink:href="#b-2"
       id="linearGradient4428-5-5"
       gradientUnits="userSpaceOnUse"
       x1="31.586"
       y1="36.345001"
       x2="1.2029999"
       y2="6.723"
       gradientTransform="translate(4.376802,4.4211693)" />
    <linearGradient
       inkscape:collect="always"
       xlink:href="#linearGradient11"
       id="linearGradient13"
       x1="-43.819283"
       y1="23.120178"
       x2="-1.9547797"
       y2="23.120178"
       gradientUnits="userSpaceOnUse"
       gradientTransform="scale(0.26457813)" />
    <linearGradient
       id="linearGradient11"
       inkscape:collect="always">
      <stop
         style="stop-color:#9955ff;stop-opacity:0.65640396;"
         offset="0"
         id="stop4-3" />
      <stop
         style="stop-color:#00ccff;stop-opacity:1"
         offset="1"
         id="stop11" />
    </linearGradient>
    <linearGradient
       inkscape:collect="always"
       xlink:href="#linearGradient14"
       id="linearGradient15"
       x1="-9.6850061"
       y1="45.161198"
       x2="11.98815"
       y2="21.735205"
       gradientUnits="userSpaceOnUse"
       gradientTransform="scale(0.26457813)" />
    <linearGradient
       id="linearGradient14"
       inkscape:collect="always">
      <stop
         style="stop-color:#9955ff;stop-opacity:0.45197046;"
         offset="0"
         id="stop12" />
      <stop
         style="stop-color:#00ccff;stop-opacity:1"
         offset="1"
         id="stop13" />
    </linearGradient>
    <filter
       id="filter2917-3"
       x="-0.96181147"
       y="-0.66745996"
       width="2.9236229"
       height="2.3349199"
       color-interpolation-filters="sRGB">
      <feGaussianBlur
         stdDeviation="0.2871969"
         id="feGaussianBlur732-5" />
    </filter>
    <filter
       id="filter1"
       x="-0.96181148"
       y="-0.66745996"
       width="2.9236228"
       height="2.3349199"
       color-interpolation-filters="sRGB">
      <feGaussianBlur
         stdDeviation="0.2871969"
         id="feGaussianBlur1" />
    </filter>
    <filter
       id="filter2"
       x="-0.96181148"
       y="-0.66745996"
       width="2.9236228"
       height="2.3349199"
       color-interpolation-filters="sRGB">
      <feGaussianBlur
         stdDeviation="0.2871969"
         id="feGaussianBlur2" />
    </filter>
    <filter
       id="filter894"
       x="-0.064640511"
       y="-0.055981138"
       width="1.129281"
       height="1.1119623"
       color-interpolation-filters="sRGB">
      <feGaussianBlur
         stdDeviation="0.20621212"
         id="feGaussianBlur2-6" />
    </filter>
  </defs>
  <sodipodi:namedview
     id="namedview14"
     pagecolor="#000000"
     bordercolor="#666666"
     borderopacity="1.0"
     inkscape:showpageshadow="2"
     inkscape:pageopacity="0.0"
     inkscape:pagecheckerboard="0"
     inkscape:deskcolor="#d1d1d1"
     showgrid="false"
     inkscape:zoom="5.2149125"
     inkscape:cx="23.20269"
     inkscape:cy="53.692176"
     inkscape:window-width="1920"
     inkscape:window-height="996"
     inkscape:window-x="0"
     inkscape:window-y="0"
     inkscape:window-maximized="1"
     inkscape:current-layer="svg12">
    <inkscape:grid
       type="xygrid"
       id="grid244"
       originx="9.7893915"
       originy="-31.749373"
       spacingy="1"
       spacingx="1"
       units="px"
       visible="false" />
  </sodipodi:namedview>
  <rect
     x="-12.025727"
     y="0.1490714"
     width="11.940627"
     height="11.936014"
     rx="1.6121091"
     stroke="url(#paint4_linear_77:23)"
     shape-rendering="crispEdges"
     id="rect5-6-7-3"
     ry="1.7735944"
     transform="matrix(0.00523883,-0.99998628,0.999988,0.00489859,0,0)"
     style="fill:#80b3ff;fill-opacity:0.15;stroke:url(#linearGradient13);stroke-width:0.188987;stroke-opacity:1" />
  <rect
     x="-3.7266586"
     y="4.6446943"
     width="7.912631"
     height="7.912384"
     rx="1.612043"
     shape-rendering="crispEdges"
     id="rect5-6-6-6-6"
     style="fill:#80b3ff;fill-opacity:0.122146;stroke:url(#linearGradient15);stroke-width:0.188987;stroke-opacity:1"
     ry="1.7735215"
     transform="matrix(0.72612649,-0.68756114,0.6879775,0.72573202,0,0)" />
  <g
     transform="matrix(0.59434759,0,0,0.60316884,1.2605488,1.2273343)"
     id="g19"
     style="stroke-width:1.67017">
    <g
       transform="matrix(1.3386,0,0,1.3386,4.2294,14.951)"
       filter="url(#filter894)"
       id="g10"
       style="stroke-width:1.67017">
      <path
         d="m 6.7328,-7.3624 c 0,0 -1.7461,-0.94303 -3.9324,0.72314 l 1.3397,2.3204 c 2.5361,-1.0603 2.5927,-3.0435 2.5927,-3.0435 z"
         fill="#fbd708"
         id="path3"
         style="stroke-width:1.67017" />
      <path
         d="m 6.7327,-2.9422 c 0,0 -0.05636,-1.9837 -2.5925,-3.044 l -1.3397,2.3204 c 2.1863,1.6662 3.9322,0.72359 3.9322,0.72359 z"
         fill="#07dc9b"
         id="path4"
         style="stroke-width:1.67017" />
      <path
         d="m 2.9048,-0.73216 c 0,0 -1.6897,-1.0406 -1.3399,-3.7671 h 2.6794 c 0.34978,2.7265 -1.3394,3.7671 -1.3394,3.7671 z"
         fill="#0294f7"
         id="path5"
         style="stroke-width:1.67017" />
      <path
         d="m -0.92342,-2.9421 c 0,0 0.05635,-1.9837 2.5925,-3.044 l 1.3397,2.3204 c -2.1863,1.6662 -3.9321,0.72359 -3.9321,0.72359 z"
         fill="#aa01f6"
         id="path6"
         style="stroke-width:1.67017" />
      <path
         d="m -0.92353,-7.3625 c 0,0 1.7461,-0.94303 3.9324,0.72314 l -1.3397,2.3204 c -2.5361,-1.0603 -2.5927,-3.0435 -2.5927,-3.0435 z"
         fill="#f825c0"
         id="path7"
         style="stroke-width:1.67017" />
      <path
         d="m 2.9048,-9.5728 c 0,0 -1.6897,1.0406 -1.3399,3.7671 H 4.2443 C 4.59408,-8.5322 2.9049,-9.5728 2.9049,-9.5728 Z"
         fill="#fd8338"
         id="path8"
         style="stroke-width:1.67017" />
      <path
         d="m 4.2215,-7.4196 c -0.4414,0.15245 -0.91962,0.39406 -1.4227,0.77744 l 0.48642,0.84275 h 0.97337 c 0.08045,-0.6271 0.051445,-1.1618 -0.037096,-1.6202 z"
         fill="#fbd708"
         id="path9"
         style="stroke-width:1.67017" />
      <path
         d="M 4.1421,-5.9892 4.03222,-5.79955 H 4.26249 C 4.26819,-5.843893 4.26943,-5.884294 4.274057,-5.92773 4.228923,-5.947872 4.188874,-5.969652 4.142097,-5.989195 Z"
         fill="#07dc9b"
         id="path10"
         style="stroke-width:1.67017" />
    </g>
    <g
       transform="matrix(1.3386,0,0,1.3386,4.2294,14.951)"
       id="g18"
       style="stroke-width:1.67017">
      <path
         d="m 6.7328,-7.3624 c 0,0 -1.7461,-0.94303 -3.9324,0.72314 l 1.3397,2.3204 c 2.5361,-1.0603 2.5927,-3.0435 2.5927,-3.0435 z"
         fill="#fbd708"
         id="path11"
         style="stroke-width:1.67017" />
      <path
         d="m 6.7327,-2.9422 c 0,0 -0.05636,-1.9837 -2.5925,-3.044 l -1.3397,2.3204 c 2.1863,1.6662 3.9322,0.72359 3.9322,0.72359 z"
         fill="#07dc9b"
         id="path12"
         style="stroke-width:1.67017" />
      <path
         d="m 2.9048,-0.73216 c 0,0 -1.6897,-1.0406 -1.3399,-3.7671 h 2.6794 c 0.34978,2.7265 -1.3394,3.7671 -1.3394,3.7671 z"
         fill="#0294f7"
         id="path13"
         style="stroke-width:1.67017" />
      <path
         d="m -0.92342,-2.9421 c 0,0 0.05635,-1.9837 2.5925,-3.044 l 1.3397,2.3204 c -2.1863,1.6662 -3.9321,0.72359 -3.9321,0.72359 z"
         fill="#aa01f6"
         id="path14"
         style="stroke-width:1.67017" />
      <path
         d="m -0.92353,-7.3625 c 0,0 1.7461,-0.94303 3.9324,0.72314 l -1.3397,2.3204 c -2.5361,-1.0603 -2.5927,-3.0435 -2.5927,-3.0435 z"
         fill="#f825c0"
         id="path15"
         style="stroke-width:1.67017" />
      <path
         d="m 2.9048,-9.5728 c 0,0 -1.6897,1.0406 -1.3399,3.7671 H 4.2443 C 4.59408,-8.5322 2.9049,-9.5728 2.9049,-9.5728 Z"
         fill="#fd8338"
         id="path16"
         style="stroke-width:1.67017" />
      <path
         d="m 4.2215,-7.4196 c -0.4414,0.15245 -0.91962,0.39406 -1.4227,0.77744 l 0.48642,0.84275 h 0.97337 c 0.08045,-0.6271 0.051445,-1.1618 -0.037096,-1.6202 z"
         fill="#fbd708"
         id="path17"
         style="stroke-width:1.67017" />
      <path
         d="M 4.1421,-5.9892 4.03222,-5.79955 H 4.26249 C 4.26819,-5.843893 4.26943,-5.884294 4.274057,-5.92773 4.228923,-5.947872 4.188874,-5.969652 4.142097,-5.989195 Z"
         fill="#07dc9b"
         id="path18"
         style="stroke-width:1.67017" />
    </g>
  </g>
</svg>
