<?xml version="1.0" encoding="UTF-8" standalone="no"?>
<svg
   width="45.999886"
   height="45.999989"
   version="1.1"
   viewBox="0 0 12.170564 12.170591"
   id="svg10"
   sodipodi:docname="akregator.svg"
   inkscape:version="1.3.2 (091e20ef0f, 2023-11-25)"
   xmlns:inkscape="http://www.inkscape.org/namespaces/inkscape"
   xmlns:sodipodi="http://sodipodi.sourceforge.net/DTD/sodipodi-0.dtd"
   xmlns:xlink="http://www.w3.org/1999/xlink"
   xmlns="http://www.w3.org/2000/svg"
   xmlns:svg="http://www.w3.org/2000/svg">
  <defs
     id="defs14">
    <linearGradient
       xlink:href="#b-2"
       id="linearGradient4189-3"
       x1="14.369"
       y1="22.521999"
       x2="26.521999"
       y2="22.521999"
       gradientUnits="userSpaceOnUse" />
    <linearGradient
       x1="36"
       gradientUnits="userSpaceOnUse"
       x2="14"
       y2="12"
       y1="44"
       id="b-2">
      <stop
         style="stop-color:#bfc9c9;stop-opacity:1"
         stop-color="#536161"
         id="stop1579" />
      <stop
         style="stop-color:#fbfbfb;stop-opacity:1"
         stop-color="#f4f5f5"
         offset="1"
         id="stop1581" />
    </linearGradient>
    <linearGradient
       xlink:href="#b-2"
       id="linearGradient4428-5"
       gradientUnits="userSpaceOnUse"
       x1="31.586"
       y1="36.345001"
       x2="1.2029999"
       y2="6.723" />
    <linearGradient
       id="paint4_linear_77:23-3-9"
       x1="5.7714014"
       y1="46.610188"
       x2="7.0511508"
       y2="-11.516281"
       gradientUnits="userSpaceOnUse"
       gradientTransform="matrix(9.2569799e-4,0.18898182,-0.18898221,9.9000636e-4,-2.9223861,5.2691369)">
      <stop
         stop-color="#E4F9FF"
         stop-opacity="0.1"
         id="stop43-6-1"
         offset="0"
         style="stop-color:#26cfff;stop-opacity:0.7758621;" />
      <stop
         offset="1"
         stop-color="#E4F9FF"
         stop-opacity="0.8"
         id="stop44-7-2"
         style="stop-color:#05c7ff;stop-opacity:0.80000001;" />
    </linearGradient>
    <linearGradient
       id="paint4_linear_77:23-3-0-0"
       x1="5.762825"
       y1="44.747261"
       x2="6.5105295"
       y2="-8.739049"
       gradientUnits="userSpaceOnUse"
       gradientTransform="matrix(0.13715178,0.12993812,-0.1300172,0.13722669,1.7845514,5.7530161)">
      <stop
         stop-color="#E4F9FF"
         stop-opacity="0.1"
         id="stop43-6-9-6"
         offset="0"
         style="stop-color:#26cfff;stop-opacity:0.82635468;" />
      <stop
         offset="1"
         stop-color="#E4F9FF"
         stop-opacity="0.8"
         id="stop44-7-3-2"
         style="stop-color:#05c7ff;stop-opacity:0.80000001;" />
    </linearGradient>
    <clipPath
       clipPathUnits="userSpaceOnUse"
       id="clipPath24">
      <g
         id="g25">
        <rect
           width="16"
           height="16"
           id="rect24"
           x="0"
           y="0" />
      </g>
    </clipPath>
    <linearGradient
       inkscape:collect="always"
       xlink:href="#linearGradient11"
       id="linearGradient13"
       x1="-43.819283"
       y1="23.120178"
       x2="-1.9547797"
       y2="23.120178"
       gradientUnits="userSpaceOnUse"
       gradientTransform="scale(0.26457813)" />
    <linearGradient
       id="linearGradient11"
       inkscape:collect="always">
      <stop
         style="stop-color:#9955ff;stop-opacity:0.65640396;"
         offset="0"
         id="stop4-3" />
      <stop
         style="stop-color:#ffb380;stop-opacity:1"
         offset="1"
         id="stop11" />
    </linearGradient>
    <linearGradient
       inkscape:collect="always"
       xlink:href="#linearGradient14"
       id="linearGradient15"
       x1="-9.6850061"
       y1="45.161198"
       x2="11.98815"
       y2="21.735205"
       gradientUnits="userSpaceOnUse"
       gradientTransform="scale(0.26457813)" />
    <linearGradient
       id="linearGradient14"
       inkscape:collect="always">
      <stop
         style="stop-color:#9955ff;stop-opacity:0.45197046;"
         offset="0"
         id="stop12" />
      <stop
         style="stop-color:#ffb380;stop-opacity:1"
         offset="1"
         id="stop13" />
    </linearGradient>
    <linearGradient
       xlink:href="#a-6-9-5"
       id="c-5-2-3"
       y1="506.79999"
       y2="504.79999"
       x2="0"
       gradientUnits="userSpaceOnUse"
       gradientTransform="matrix(0.27210622,0,0,0.25848102,-103.76653,-127.95673)" />
    <linearGradient
       id="a-6-9-5"
       y1="543.79999"
       y2="503.79999"
       x2="0"
       gradientUnits="userSpaceOnUse"
       gradientTransform="matrix(1.125,0,0,1,-51.07,0)">
      <stop
         stop-color="#c6cdd1"
         id="stop2-2-1-6" />
      <stop
         offset="1"
         stop-color="#e0e5e7"
         id="stop4-9-2-2" />
    </linearGradient>
    <linearGradient
       xlink:href="#a-6-9-5"
       id="d-1-7-9"
       y1="508.79999"
       y2="506.79999"
       gradientUnits="userSpaceOnUse"
       x2="0"
       gradientTransform="matrix(0.27210622,0,0,0.25848102,-103.76653,-127.95673)" />
    <linearGradient
       id="linearGradient2"
       y1="543.79999"
       y2="503.79999"
       x2="0"
       gradientUnits="userSpaceOnUse"
       gradientTransform="matrix(1.125,0,0,1,-51.07,0)">
      <stop
         stop-color="#c6cdd1"
         id="stop1" />
      <stop
         offset="1"
         stop-color="#e0e5e7"
         id="stop2" />
    </linearGradient>
    <linearGradient
       xlink:href="#a-6-9-5"
       id="e-2-0-2"
       y1="510.79999"
       y2="508.79999"
       gradientUnits="userSpaceOnUse"
       x2="0"
       gradientTransform="matrix(0.27210622,0,0,0.25848102,-103.76653,-127.95673)" />
    <linearGradient
       id="linearGradient4"
       y1="543.79999"
       y2="503.79999"
       x2="0"
       gradientUnits="userSpaceOnUse"
       gradientTransform="matrix(1.125,0,0,1,-51.07,0)">
      <stop
         stop-color="#c6cdd1"
         id="stop3" />
      <stop
         offset="1"
         stop-color="#e0e5e7"
         id="stop4" />
    </linearGradient>
    <linearGradient
       xlink:href="#a-6-9-5"
       id="f-7-9-0"
       y1="512.79999"
       y2="510.79999"
       gradientUnits="userSpaceOnUse"
       x2="0"
       gradientTransform="matrix(0.27210622,0,0,0.25848102,-103.76653,-127.95673)" />
    <linearGradient
       id="linearGradient6"
       y1="543.79999"
       y2="503.79999"
       x2="0"
       gradientUnits="userSpaceOnUse"
       gradientTransform="matrix(1.125,0,0,1,-51.07,0)">
      <stop
         stop-color="#c6cdd1"
         id="stop5" />
      <stop
         offset="1"
         stop-color="#e0e5e7"
         id="stop6" />
    </linearGradient>
    <linearGradient
       xlink:href="#a-6-9-5"
       id="g-0-3-9"
       y1="514.79999"
       y2="512.79999"
       gradientUnits="userSpaceOnUse"
       x2="0"
       gradientTransform="matrix(0.27210622,0,0,0.25848102,-103.76653,-127.95673)" />
    <linearGradient
       id="linearGradient8"
       y1="543.79999"
       y2="503.79999"
       x2="0"
       gradientUnits="userSpaceOnUse"
       gradientTransform="matrix(1.125,0,0,1,-51.07,0)">
      <stop
         stop-color="#c6cdd1"
         id="stop7" />
      <stop
         offset="1"
         stop-color="#e0e5e7"
         id="stop8" />
    </linearGradient>
    <linearGradient
       xlink:href="#a-6-9-5"
       id="h-9-6-6"
       y1="516.79999"
       y2="514.79999"
       gradientUnits="userSpaceOnUse"
       x2="0"
       gradientTransform="matrix(0.27210622,0,0,0.25848102,-103.76653,-127.95673)" />
    <linearGradient
       id="linearGradient10"
       y1="543.79999"
       y2="503.79999"
       x2="0"
       gradientUnits="userSpaceOnUse"
       gradientTransform="matrix(1.125,0,0,1,-51.07,0)">
      <stop
         stop-color="#c6cdd1"
         id="stop9" />
      <stop
         offset="1"
         stop-color="#e0e5e7"
         id="stop10" />
    </linearGradient>
    <linearGradient
       xlink:href="#a-6-9-5"
       id="i-3-0-6"
       y1="518.79999"
       y2="516.79999"
       gradientUnits="userSpaceOnUse"
       x2="0"
       gradientTransform="matrix(0.27210622,0,0,0.25848102,-103.76653,-127.95673)" />
    <linearGradient
       id="linearGradient16"
       y1="543.79999"
       y2="503.79999"
       x2="0"
       gradientUnits="userSpaceOnUse"
       gradientTransform="matrix(1.125,0,0,1,-51.07,0)">
      <stop
         stop-color="#c6cdd1"
         id="stop14" />
      <stop
         offset="1"
         stop-color="#e0e5e7"
         id="stop15" />
    </linearGradient>
    <linearGradient
       xlink:href="#a-6-9-5"
       id="j-6-6-1"
       y1="520.79999"
       y2="518.79999"
       gradientUnits="userSpaceOnUse"
       x2="0"
       gradientTransform="matrix(0.27210622,0,0,0.25848102,-103.76653,-127.95673)" />
    <linearGradient
       id="linearGradient17"
       y1="543.79999"
       y2="503.79999"
       x2="0"
       gradientUnits="userSpaceOnUse"
       gradientTransform="matrix(1.125,0,0,1,-51.07,0)">
      <stop
         stop-color="#c6cdd1"
         id="stop16" />
      <stop
         offset="1"
         stop-color="#e0e5e7"
         id="stop17" />
    </linearGradient>
    <linearGradient
       xlink:href="#a-6-9-5"
       id="k-0-2-9"
       y1="523.79999"
       y2="520.79999"
       gradientUnits="userSpaceOnUse"
       x2="0"
       gradientTransform="matrix(0.27210622,0,0,0.25848102,-103.76653,-127.95673)" />
    <linearGradient
       id="linearGradient19"
       y1="543.79999"
       y2="503.79999"
       x2="0"
       gradientUnits="userSpaceOnUse"
       gradientTransform="matrix(1.125,0,0,1,-51.07,0)">
      <stop
         stop-color="#c6cdd1"
         id="stop18" />
      <stop
         offset="1"
         stop-color="#e0e5e7"
         id="stop19" />
    </linearGradient>
    <linearGradient
       xlink:href="#a-6-9-5"
       id="l-6-6-0"
       y1="33"
       y2="25"
       x2="0"
       gradientUnits="userSpaceOnUse"
       gradientTransform="matrix(0.27210622,0,0,0.25848102,0.87740069,1.2321275)" />
    <linearGradient
       id="linearGradient21"
       y1="543.79999"
       y2="503.79999"
       x2="0"
       gradientUnits="userSpaceOnUse"
       gradientTransform="matrix(1.125,0,0,1,-51.07,0)">
      <stop
         stop-color="#c6cdd1"
         id="stop20" />
      <stop
         offset="1"
         stop-color="#e0e5e7"
         id="stop21" />
    </linearGradient>
  </defs>
  <sodipodi:namedview
     id="namedview12"
     pagecolor="#000000"
     bordercolor="#666666"
     borderopacity="1.0"
     inkscape:showpageshadow="2"
     inkscape:pageopacity="0.0"
     inkscape:pagecheckerboard="0"
     inkscape:deskcolor="#d1d1d1"
     showgrid="false"
     inkscape:zoom="3.6875"
     inkscape:cx="23.050847"
     inkscape:cy="66.440678"
     inkscape:window-width="1920"
     inkscape:window-height="996"
     inkscape:window-x="0"
     inkscape:window-y="0"
     inkscape:window-maximized="1"
     inkscape:current-layer="svg10" />
  <rect
     x="-12.025727"
     y="0.1490714"
     width="11.940627"
     height="11.936014"
     rx="1.6121091"
     stroke="url(#paint4_linear_77:23)"
     shape-rendering="crispEdges"
     id="rect5-6-7-3"
     ry="1.7735944"
     transform="matrix(0.00523883,-0.99998628,0.999988,0.00489859,0,0)"
     style="fill:#80b3ff;fill-opacity:0.15;stroke:url(#linearGradient13);stroke-width:0.188987;stroke-opacity:1" />
  <rect
     x="-3.7266583"
     y="4.6446924"
     width="7.912631"
     height="7.912384"
     rx="1.612043"
     shape-rendering="crispEdges"
     id="rect5-6-6-6-6"
     style="fill:#80b3ff;fill-opacity:0.122146;stroke:url(#linearGradient15);stroke-width:0.188987;stroke-opacity:1"
     ry="1.7735215"
     transform="matrix(0.72612649,-0.68756114,0.6879775,0.72573202,0,0)" />
  <g
     id="g597-3-3"
     transform="matrix(0.73194266,0,0,0.73194266,0.98765892,0.33746877)"
     style="stroke-width:1.36627">
    <path
       d="m 3.674154,4.0652361 c 0,0.329263 0.3292629,0.6585198 0.6585203,0.6585198 3.273224,0 5.9267107,2.6534868 5.9267107,5.9267111 0,0.329257 0.298619,0.65852 0.65852,0.65852 0.329261,0 0.658524,-0.329263 0.658524,-0.65852 0,-4.0005269 -3.2431261,-7.2437558 -7.2437547,-7.2437558 -0.3292574,0 -0.6585203,0.329263 -0.6585203,0.6585249 z m 0,2.6340894 c 0,0.329263 0.3292629,0.6585259 0.6585203,0.6585259 1.8184811,-5.1e-6 3.2926152,1.4741353 3.2926152,3.2926156 0,0.329257 0.329263,0.65852 0.6585259,0.65852 0.3292609,0 0.6585187,-0.329263 0.6585187,-0.65852 0,-2.5458492 -2.0638108,-4.6096603 -4.6096598,-4.6096603 -0.3292574,0 -0.6585203,0.3292579 -0.6585203,0.6585188 z m 1.3170448,1.9755717 c -0.7273739,0 -1.3170448,0.5896757 -1.3170448,1.3170436 0,0.7273392 0.5897059,1.3170462 1.3170448,1.3170462 0.7273695,0 1.3170452,-0.589671 1.3170452,-1.3170462 0,-0.7273679 -0.5896757,-1.3170436 -1.3170452,-1.3170436 z"
       fill="#ffffff"
       id="path1398-6-6"
       style="opacity:0.335683;fill:#003d7a;fill-opacity:0.223286;stroke-width:0.449847" />
    <path
       d="m 3.8987231,4.1153856 c 0,0.3292629 0.3292629,0.6585198 0.6585202,0.6585198 3.2732238,0 5.9267107,2.6534868 5.9267107,5.9267106 0,0.329257 0.298619,0.65852 0.658519,0.65852 0.329262,0 0.658525,-0.329263 0.658525,-0.65852 0,-4.0005265 -3.2431263,-7.2437553 -7.2437547,-7.2437553 -0.3292573,0 -0.6585202,0.3292629 -0.6585202,0.6585249 z m 0,2.6340894 c 0,0.3292629 0.3292629,0.6585259 0.6585202,0.6585259 1.818481,-5.1e-6 3.2926151,1.4741353 3.2926151,3.2926151 0,0.329257 0.3292629,0.65852 0.6585259,0.65852 0.3292608,0 0.6585187,-0.329263 0.6585187,-0.65852 0,-2.5458488 -2.0638109,-4.6096598 -4.6096597,-4.6096598 -0.3292573,0 -0.6585202,0.3292579 -0.6585202,0.6585188 z m 1.3170447,1.9755716 c -0.7273738,0 -1.3170447,0.5896757 -1.3170447,1.3170434 0,0.72734 0.5897058,1.317046 1.3170447,1.317046 0.7273693,0 1.317045,-0.589671 1.317045,-1.317046 0,-0.7273677 -0.5896757,-1.3170434 -1.317045,-1.3170434 z"
       fill="#ffffff"
       id="path1400-7-7"
       style="opacity:0.335683;fill:#003d7a;fill-opacity:0.223286;stroke-width:0.449847" />
    <path
       d="m 4.1039858,4.1039993 c 0,0.3292629 0.3292629,0.6585198 0.6585203,0.6585198 3.2732243,0 5.9267109,2.6534868 5.9267109,5.9267109 0,0.329257 0.298619,0.65852 0.65852,0.65852 0.329262,0 0.658524,-0.329263 0.658524,-0.65852 0,-4.0005268 -3.243126,-7.2437556 -7.2437549,-7.2437556 -0.3292574,0 -0.6585203,0.3292629 -0.6585203,0.6585249 z m 0,2.6340894 c 0,0.3292629 0.3292629,0.6585259 0.6585203,0.6585259 1.8184814,-5.1e-6 3.2926156,1.4741353 3.2926156,3.2926154 0,0.329257 0.3292629,0.65852 0.6585258,0.65852 0.3292609,0 0.6585187,-0.329263 0.6585187,-0.65852 0,-2.5458491 -2.0638108,-4.6096601 -4.6096601,-4.6096601 -0.3292574,0 -0.6585203,0.3292579 -0.6585203,0.6585188 z m 1.3170447,1.9755716 c -0.7273738,0 -1.3170447,0.5896758 -1.3170447,1.3170437 0,0.727339 0.5897059,1.317046 1.3170447,1.317046 0.7273699,0 1.3170456,-0.589671 1.3170456,-1.317046 0,-0.7273679 -0.5896757,-1.3170437 -1.3170456,-1.3170437 z"
       fill="#ffffff"
       id="path1402-5-5"
       style="opacity:0.335683;fill:#003d7a;fill-opacity:0.223286;stroke-width:0.449847" />
    <path
       d="m 3.5305305,4.0708173 c 0,0.3292636 0.329255,0.6585197 0.658522,0.6585197 3.27323,0 5.9267185,2.6534886 5.9267185,5.926722 0,0.329245 0.298614,0.658521 0.658514,0.658521 0.329274,0 0.658526,-0.329276 0.658526,-0.658521 0,-4.0005372 -3.2431325,-7.2437658 -7.2437585,-7.2437658 -0.329267,0 -0.658522,0.3292623 -0.658522,0.6585241 z m 0,2.6340891 c 0,0.3292636 0.329255,0.6585262 0.658522,0.6585262 1.818488,-5.7e-6 3.29261,1.4741386 3.29261,3.2926264 0,0.329245 0.329269,0.658521 0.658528,0.658521 0.329261,0 0.658516,-0.329276 0.658516,-0.658521 0,-2.54586 -2.063801,-4.6096703 -4.609654,-4.6096703 -0.329267,0 -0.658522,0.3292579 -0.658522,0.6585177 z m 1.317053,1.9755748 c -0.727377,0 -1.317053,0.589675 -1.317053,1.3170446 0,0.7273462 0.589706,1.3170542 1.317053,1.3170542 0.727359,0 1.317042,-0.589673 1.317042,-1.3170542 0,-0.7273696 -0.589683,-1.3170446 -1.317042,-1.3170446 z"
       fill="#ffffff"
       id="path8-3-3"
       style="fill:#ffd1b3;fill-opacity:1;stroke-width:0.449843" />
  </g>
</svg>
