<?xml version="1.0" encoding="UTF-8" standalone="no"?>
<svg
   xmlns:dc="http://purl.org/dc/elements/1.1/"
   xmlns:cc="http://creativecommons.org/ns#"
   xmlns:rdf="http://www.w3.org/1999/02/22-rdf-syntax-ns#"
   xmlns:svg="http://www.w3.org/2000/svg"
   xmlns="http://www.w3.org/2000/svg"
   xmlns:xlink="http://www.w3.org/1999/xlink"
   xmlns:sodipodi="http://sodipodi.sourceforge.net/DTD/sodipodi-0.dtd"
   xmlns:inkscape="http://www.inkscape.org/namespaces/inkscape"
   width="47.285591"
   height="47.28569"
   version="1.1"
   viewBox="0 0 12.510734 12.51076"
   id="svg12"
   sodipodi:docname="alienarena.svg"
   inkscape:version="1.0.1 (3bc2e813f5, 2020-09-07)">
  <style
     id="style864"></style>
  <metadata
     id="metadata39">
    <rdf:RDF>
      <cc:Work
         rdf:about="">
        <dc:format>image/svg+xml</dc:format>
        <dc:type
           rdf:resource="http://purl.org/dc/dcmitype/StillImage" />
      </cc:Work>
    </rdf:RDF>
  </metadata>
  <defs
     id="defs16">
    <linearGradient
       id="c"
       y1="523.79999"
       x1="403.57001"
       y2="536.79999"
       x2="416.57001"
       gradientUnits="userSpaceOnUse"
       gradientTransform="matrix(0.34526714,0,0,0.34526706,-134.80427,-174.63325)">
      <stop
         stop-color="#292c2f"
         id="stop1568" />
      <stop
         offset="1"
         stop-opacity="0"
         id="stop1570" />
    </linearGradient>
    <linearGradient
       xlink:href="#b-2"
       id="linearGradient4189"
       x1="14.369"
       y1="22.521999"
       x2="26.521999"
       y2="22.521999"
       gradientUnits="userSpaceOnUse" />
    <linearGradient
       x1="36"
       gradientUnits="userSpaceOnUse"
       x2="14"
       y2="12"
       y1="44"
       id="b-2">
      <stop
         style="stop-color:#bfc9c9;stop-opacity:1"
         stop-color="#536161"
         id="stop1579" />
      <stop
         style="stop-color:#fbfbfb;stop-opacity:1"
         stop-color="#f4f5f5"
         offset="1"
         id="stop1581" />
    </linearGradient>
    <linearGradient
       xlink:href="#b-2"
       id="linearGradient4428"
       gradientUnits="userSpaceOnUse"
       x1="31.586"
       y1="36.345001"
       x2="1.2029999"
       y2="6.723" />
    <linearGradient
       xlink:href="#b-2"
       id="linearGradient4189-3"
       x1="14.369"
       y1="22.521999"
       x2="26.521999"
       y2="22.521999"
       gradientUnits="userSpaceOnUse"
       gradientTransform="translate(20.841982,61.553822)" />
    <linearGradient
       xlink:href="#b-2"
       id="linearGradient4428-5"
       gradientUnits="userSpaceOnUse"
       x1="31.586"
       y1="36.345001"
       x2="1.2029999"
       y2="6.723"
       gradientTransform="translate(20.841982,61.553822)" />
    <linearGradient
       xlink:href="#b-2"
       id="linearGradient4189-3-3"
       x1="14.369"
       y1="22.521999"
       x2="26.521999"
       y2="22.521999"
       gradientUnits="userSpaceOnUse"
       gradientTransform="translate(4.376802,4.4211693)" />
    <linearGradient
       xlink:href="#b-2"
       id="linearGradient4428-5-5"
       gradientUnits="userSpaceOnUse"
       x1="31.586"
       y1="36.345001"
       x2="1.2029999"
       y2="6.723"
       gradientTransform="translate(4.376802,4.4211693)" />
    <linearGradient
       inkscape:collect="always"
       xlink:href="#linearGradient14"
       id="linearGradient15"
       x1="-9.6850061"
       y1="45.161198"
       x2="11.98815"
       y2="21.735205"
       gradientUnits="userSpaceOnUse"
       gradientTransform="scale(0.26457813)" />
    <linearGradient
       id="linearGradient14"
       inkscape:collect="always">
      <stop
         style="stop-color:#00a489;stop-opacity:0.83128077;"
         offset="0"
         id="stop12" />
      <stop
         style="stop-color:#00a489;stop-opacity:1;"
         offset="1"
         id="stop13" />
    </linearGradient>
    <filter
       id="filter2917-3"
       x="-0.96181148"
       y="-0.66745996"
       width="2.9236228"
       height="2.3349199"
       color-interpolation-filters="sRGB">
      <feGaussianBlur
         stdDeviation="0.2871969"
         id="feGaussianBlur732-5" />
    </filter>
    <filter
       id="filter1"
       x="-0.96181148"
       y="-0.66745996"
       width="2.9236228"
       height="2.3349199"
       color-interpolation-filters="sRGB">
      <feGaussianBlur
         stdDeviation="0.2871969"
         id="feGaussianBlur1" />
    </filter>
    <filter
       id="filter2"
       x="-0.96181148"
       y="-0.66745996"
       width="2.9236228"
       height="2.3349199"
       color-interpolation-filters="sRGB">
      <feGaussianBlur
         stdDeviation="0.2871969"
         id="feGaussianBlur2" />
    </filter>
    <linearGradient
       inkscape:collect="always"
       xlink:href="#linearGradient14"
       id="linearGradient867"
       x1="-12.194976"
       y1="6.2880521"
       x2="-0.25434875"
       y2="6.2880521"
       gradientUnits="userSpaceOnUse" />
    <linearGradient
       id="e"
       x1="24.705"
       x2="25.061001"
       y1="43.938999"
       y2="4.4050002"
       gradientTransform="matrix(0.99555544,0,0,1,14.796285,14.221987)"
       gradientUnits="userSpaceOnUse">
      <stop
         stop-color="#14cd46"
         offset="0"
         id="stop9-3" />
      <stop
         stop-color="#5adc19"
         offset="1"
         id="stop11-6"
         style="stop-color:#00d1a7;stop-opacity:1;" />
    </linearGradient>
    <linearGradient
       id="d"
       x1="31"
       x2="31"
       y1="34"
       y2="24"
       gradientTransform="matrix(0.99555544,0,0,1,14.796285,14.221987)"
       gradientUnits="userSpaceOnUse">
      <stop
         stop-color="#323232"
         offset="0"
         id="stop14" />
      <stop
         stop-color="#3c503c"
         offset="1"
         id="stop16" />
    </linearGradient>
    <linearGradient
       id="c-3"
       x1="18"
       x2="18"
       y1="34"
       y2="24"
       gradientTransform="matrix(0.99555544,0,0,1,14.796285,14.221987)"
       gradientUnits="userSpaceOnUse">
      <stop
         stop-color="#323232"
         offset="0"
         id="stop19" />
      <stop
         stop-color="#3c503c"
         offset="1"
         id="stop21" />
    </linearGradient>
  </defs>
  <sodipodi:namedview
     id="namedview14"
     pagecolor="#000000"
     bordercolor="#666666"
     borderopacity="1.0"
     inkscape:showpageshadow="2"
     inkscape:pageopacity="0.0"
     inkscape:pagecheckerboard="0"
     inkscape:deskcolor="#d1d1d1"
     showgrid="false"
     inkscape:zoom="10.83591"
     inkscape:cx="10.542721"
     inkscape:cy="22.408252"
     inkscape:window-width="1920"
     inkscape:window-height="988"
     inkscape:window-x="0"
     inkscape:window-y="0"
     inkscape:window-maximized="1"
     inkscape:current-layer="svg12"
     inkscape:document-rotation="0">
    <inkscape:grid
       type="xygrid"
       id="grid244"
       originx="9.9594769"
       originy="-31.57929"
       spacingy="1"
       spacingx="1"
       units="px"
       visible="false" />
  </sodipodi:namedview>
  <rect
     x="-12.194976"
     y="0.32004508"
     width="11.940627"
     height="11.936014"
     rx="1.6121091"
     shape-rendering="crispEdges"
     id="rect5-6-7-3"
     ry="1.7735944"
     transform="matrix(0.00523883,-0.99998628,0.999988,0.00489859,0,0)"
     style="fill:#00a489;fill-opacity:0.12;stroke:url(#linearGradient867);stroke-width:0.5291563;stroke-miterlimit:4;stroke-dasharray:none;stroke-opacity:1" />
  <rect
     x="-3.7202365"
     y="4.8851409"
     width="7.912631"
     height="7.912384"
     rx="1.612043"
     shape-rendering="crispEdges"
     id="rect5-6-6-6-6"
     style="fill:#00a489;fill-opacity:0.121569;stroke:url(#linearGradient15);stroke-width:0.39686725;stroke-opacity:1;stroke-miterlimit:4;stroke-dasharray:none"
     ry="1.7735215"
     transform="matrix(0.72612649,-0.68756114,0.6879775,0.72573202,0,0)" />
  <g
     transform="matrix(0.18603151,0,0,0.18520465,0.21069096,0.32929462)"
     opacity="0.5"
     id="g37"
     style="stroke-width:0.997775">
    <path
       d="m 16.503,28.701 c 0,10.29 8.4961,24.521 16,24.521 7.0642,0 16,-14.232 16,-24.521 0,-10.29 -7.1634,-15.479 -16,-15.479 -8.8366,0 -16,5.1888 -16,15.479 z"
       id="path31"
       style="stroke-width:0.997775" />
    <path
       d="m 36.885,35.605 c 2.0206,-2.0206 4.8396,-2.7554 7.4415,-2.2055 0.54985,2.6018 -0.18496,5.4209 -2.2055,7.4414 -2.0206,2.0206 -4.8396,2.7554 -7.4414,2.2055 -0.54992,-2.6019 0.18495,-5.4209 2.2055,-7.4414 z"
       id="path33"
       style="stroke-width:0.997775" />
    <path
       d="m 20.679,33.536 c 2.6018,-0.54222 5.4209,0.18239 7.4414,2.1749 2.0206,1.9925 2.7554,4.7724 2.2055,7.3381 -2.6018,0.54222 -5.4209,-0.18238 -7.4415,-2.1749 -2.0206,-1.9926 -2.7554,-4.7724 -2.2055,-7.3381 z"
       id="path35"
       style="stroke-width:0.997775" />
  </g>
  <g
     transform="matrix(0.18603151,0,0,0.18520465,0.21069096,0.32929462)"
     id="g45"
     style="stroke-width:0.997775">
    <path
       d="m 16.503,28.701 c 0,10.29 8.4961,24.521 16,24.521 7.0642,0 16,-14.232 16,-24.521 0,-10.29 -7.1634,-15.479 -16,-15.479 -8.8366,0 -16,5.1888 -16,15.479 z"
       id="path39"
       style="fill:url(#e);stroke-width:0.997775" />
    <path
       d="m 36.885,35.605 c 2.0206,-2.0206 4.8396,-2.7554 7.4415,-2.2055 0.54985,2.6018 -0.18496,5.4209 -2.2055,7.4414 -2.0206,2.0206 -4.8396,2.7554 -7.4414,2.2055 -0.54992,-2.6019 0.18495,-5.4209 2.2055,-7.4414 z"
       id="path41"
       style="fill:url(#d);stroke-width:0.997775" />
    <path
       d="m 20.679,33.536 c 2.6018,-0.54222 5.4209,0.18239 7.4414,2.1749 2.0206,1.9925 2.7554,4.7724 2.2055,7.3381 -2.6018,0.54222 -5.4209,-0.18238 -7.4415,-2.1749 -2.0206,-1.9926 -2.7554,-4.7724 -2.2055,-7.3381 z"
       id="path43"
       style="fill:url(#c-3);stroke-width:0.997775" />
  </g>
</svg>
