<?xml version="1.0" encoding="UTF-8" standalone="no"?>
<svg
   width="47.285591"
   height="47.28569"
   version="1.1"
   viewBox="0 0 12.510734 12.51076"
   id="svg12"
   sodipodi:docname="apifox.svg"
   inkscape:version="1.4 (unknown)"
   xmlns:inkscape="http://www.inkscape.org/namespaces/inkscape"
   xmlns:sodipodi="http://sodipodi.sourceforge.net/DTD/sodipodi-0.dtd"
   xmlns:xlink="http://www.w3.org/1999/xlink"
   xmlns="http://www.w3.org/2000/svg"
   xmlns:svg="http://www.w3.org/2000/svg"
   xmlns:rdf="http://www.w3.org/1999/02/22-rdf-syntax-ns#"
   xmlns:cc="http://creativecommons.org/ns#"
   xmlns:dc="http://purl.org/dc/elements/1.1/">
  <style
     id="style853" />
  <metadata
     id="metadata29">
    <rdf:RDF>
      <cc:Work
         rdf:about="">
        <dc:format>image/svg+xml</dc:format>
        <dc:type
           rdf:resource="http://purl.org/dc/dcmitype/StillImage" />
      </cc:Work>
    </rdf:RDF>
  </metadata>
  <defs
     id="defs16">
    <linearGradient
       id="linearGradient1"
       inkscape:collect="always">
      <stop
         style="stop-color:#d35f5f;stop-opacity:1"
         offset="0"
         id="stop1" />
      <stop
         style="stop-color:#ffdd55;stop-opacity:1"
         offset="1"
         id="stop2" />
    </linearGradient>
    <linearGradient
       inkscape:collect="always"
       id="linearGradient858">
      <stop
         style="stop-color:#d35f8d;stop-opacity:0.54769737"
         offset="0"
         id="stop854" />
      <stop
         style="stop-color:#a02c5a;stop-opacity:1"
         offset="1"
         id="stop856" />
    </linearGradient>
    <linearGradient
       id="c"
       y1="523.79999"
       x1="403.57001"
       y2="536.79999"
       x2="416.57001"
       gradientUnits="userSpaceOnUse"
       gradientTransform="matrix(0.34526714,0,0,0.34526706,-134.80427,-174.63325)">
      <stop
         stop-color="#292c2f"
         id="stop1568" />
      <stop
         offset="1"
         stop-opacity="0"
         id="stop1570" />
    </linearGradient>
    <linearGradient
       xlink:href="#b-2"
       id="linearGradient4189"
       x1="14.369"
       y1="22.521999"
       x2="26.521999"
       y2="22.521999"
       gradientUnits="userSpaceOnUse" />
    <linearGradient
       x1="36"
       gradientUnits="userSpaceOnUse"
       x2="14"
       y2="12"
       y1="44"
       id="b-2">
      <stop
         style="stop-color:#bfc9c9;stop-opacity:1"
         stop-color="#536161"
         id="stop1579" />
      <stop
         style="stop-color:#fbfbfb;stop-opacity:1"
         stop-color="#f4f5f5"
         offset="1"
         id="stop1581" />
    </linearGradient>
    <linearGradient
       xlink:href="#b-2"
       id="linearGradient4428"
       gradientUnits="userSpaceOnUse"
       x1="31.586"
       y1="36.345001"
       x2="1.2029999"
       y2="6.723" />
    <linearGradient
       xlink:href="#b-2"
       id="linearGradient4189-3"
       x1="14.369"
       y1="22.521999"
       x2="26.521999"
       y2="22.521999"
       gradientUnits="userSpaceOnUse"
       gradientTransform="translate(20.841982,61.553822)" />
    <linearGradient
       xlink:href="#b-2"
       id="linearGradient4428-5"
       gradientUnits="userSpaceOnUse"
       x1="31.586"
       y1="36.345001"
       x2="1.2029999"
       y2="6.723"
       gradientTransform="translate(20.841982,61.553822)" />
    <linearGradient
       xlink:href="#b-2"
       id="linearGradient4189-3-3"
       x1="14.369"
       y1="22.521999"
       x2="26.521999"
       y2="22.521999"
       gradientUnits="userSpaceOnUse"
       gradientTransform="translate(4.376802,4.4211693)" />
    <linearGradient
       xlink:href="#b-2"
       id="linearGradient4428-5-5"
       gradientUnits="userSpaceOnUse"
       x1="31.586"
       y1="36.345001"
       x2="1.2029999"
       y2="6.723"
       gradientTransform="translate(4.376802,4.4211693)" />
    <linearGradient
       inkscape:collect="always"
       xlink:href="#linearGradient14"
       id="linearGradient15"
       x1="-9.6850061"
       y1="45.161198"
       x2="11.98815"
       y2="21.735205"
       gradientUnits="userSpaceOnUse"
       gradientTransform="scale(0.26457813)" />
    <linearGradient
       id="linearGradient14"
       inkscape:collect="always">
      <stop
         style="stop-color:#a02c5a;stop-opacity:1"
         offset="0"
         id="stop12" />
      <stop
         style="stop-color:#c83771;stop-opacity:1"
         offset="1"
         id="stop13" />
    </linearGradient>
    <linearGradient
       inkscape:collect="always"
       xlink:href="#linearGradient858"
       id="linearGradient860"
       x1="-12.025727"
       y1="6.1170783"
       x2="-0.085100174"
       y2="6.1170783"
       gradientUnits="userSpaceOnUse" />
    <linearGradient
       inkscape:collect="always"
       xlink:href="#linearGradient1"
       id="linearGradient2"
       x1="-8.7737141"
       y1="117.8927"
       x2="-9.1906796"
       y2="89.833328"
       gradientUnits="userSpaceOnUse" />
  </defs>
  <sodipodi:namedview
     id="namedview14"
     pagecolor="#000000"
     bordercolor="#666666"
     borderopacity="1.0"
     inkscape:showpageshadow="2"
     inkscape:pageopacity="0.0"
     inkscape:pagecheckerboard="0"
     inkscape:deskcolor="#d1d1d1"
     showgrid="false"
     inkscape:zoom="6.2611141"
     inkscape:cx="-19.565208"
     inkscape:cy="39.050558"
     inkscape:window-width="1920"
     inkscape:window-height="996"
     inkscape:window-x="0"
     inkscape:window-y="0"
     inkscape:window-maximized="1"
     inkscape:current-layer="svg12"
     inkscape:document-rotation="0">
    <inkscape:grid
       type="xygrid"
       id="grid244"
       originx="9.9594769"
       originy="-31.57929"
       spacingy="1"
       spacingx="1"
       units="px"
       visible="false" />
  </sodipodi:namedview>
  <rect
     x="-12.194976"
     y="0.32004508"
     width="11.940627"
     height="11.936014"
     rx="1.6121091"
     shape-rendering="crispEdges"
     id="rect5-6-7-3"
     ry="1.7735944"
     transform="matrix(0.00523883,-0.99998628,0.999988,0.00489859,0,0)"
     style="fill:#de87aa;fill-opacity:0.1;stroke:url(#linearGradient860);stroke-width:0.529156;stroke-miterlimit:4;stroke-dasharray:none;stroke-opacity:1" />
  <rect
     x="-3.7202365"
     y="4.8851409"
     width="7.912631"
     height="7.912384"
     rx="1.612043"
     shape-rendering="crispEdges"
     id="rect5-6-6-6-6"
     style="fill:#de87aa;fill-opacity:0.1;stroke:url(#linearGradient15);stroke-width:0.423325;stroke-miterlimit:4;stroke-dasharray:none;stroke-opacity:1"
     ry="1.7735215"
     transform="matrix(0.72612649,-0.68756114,0.6879775,0.72573202,0,0)" />
  <g
     id="g1"
     transform="matrix(0.20998268,0,0,0.21166251,8.4076901,-15.403845)">
    <path
       style="opacity:0.2;stroke-width:0.831125"
       d="m -4.1546833,89.833332 c 1.0239707,1.318855 1.6698585,2.889424 1.8699624,4.545889 0.00753,0.05761 0.015223,0.115808 0.021098,0.174166 3.613e-4,0.0048 3.613e-4,0.0094 0,0.01302 0.00611,0.05982 0.011812,0.120145 0.016243,0.180672 v 0.03103 c 0.00518,0.05982 0.00787,0.119225 0.011404,0.179035 0.00378,0.05981 0.00771,0.120859 0.00972,0.180657 0,0.04224 -0.0012,0.08472 0.00332,0.12696 -3.668e-4,0.0074 -3.668e-4,0.01431 0,0.02122 v 0.07646 0.139977 c 0.00259,1.89312 -0.5776855,3.74011 -1.662727,5.292852 0.1193747,0.56362 0.1795633,1.13935 0.1797094,1.71546 2.211e-4,0.38874 -0.026293,0.7758 -0.080941,1.16062 0.5254949,-0.12408 1.036297,-0.30011 1.5267261,-0.52575 0.3642592,-0.16641 0.71666,-0.35954 1.0523537,-0.57791 0.068688,0.23861 0.1272097,0.48134 0.1732372,0.72918 0.0980403,0.51265 0.14658445,1.03417 0.14571044,1.55612 2.2084e-4,0.41483 -0.0302944,0.82987 -0.0922822,1.24011 0.72589037,-0.0755 1.43736068,-0.24739 2.11766526,-0.51095 0.3570292,-0.13804 0.7039846,-0.30117 1.0377855,-0.4884 0.050093,0.27889 0.085863,0.5606 0.1068503,0.84309 0.015607,0.20526 0.022597,0.41279 0.022597,0.62178 3.65e-4,0.57145 -0.057393,1.14002 -0.174852,1.69928 0.854841,-0.0354 1.6986186,-0.20275 2.5013724,-0.49803 0.5757619,-1.5383 0.8696178,-3.16754 0.8677885,-4.80961 0.00659,-0.36029 -0.00362,-0.71575 -0.030806,-1.06768 C 5.386811,100.83505 5.1854854,99.799853 4.8681932,98.798214 4.7420227,99.137864 4.5821418,99.463793 4.3905883,99.771509 4.1427631,98.135539 3.5680952,96.566939 2.7003224,95.157256 1.8324772,93.747568 0.68942621,92.526675 -0.66074759,91.566752 -1.5977708,90.897858 -2.6249646,90.363567 -3.7109591,89.97985 -3.8570552,89.92787 -4.0050088,89.878564 -4.1545529,89.833357 Z m -12.4420807,0.01639 c -1.264403,0.573778 -2.448562,1.308996 -3.522971,2.187493 -2.722516,2.220633 -4.63742,5.273825 -5.449584,8.688145 -0.287055,1.21041 -0.431792,2.44903 -0.430657,3.69302 -0.0048,2.67819 0.668294,5.31449 1.955764,7.66435 0.08729,-0.77187 0.28401,-1.52803 0.584457,-2.24449 0.970022,2.33942 2.508231,4.4019 4.474941,6.00103 1.966692,1.59913 4.300149,2.68539 6.791747,3.16073 -0.428098,-0.55635 -0.781687,-1.16488 -1.053976,-1.8115 1.326493,0.42949 2.706814,0.664 4.1009515,0.6982 0.1234695,0 0.248181,0.006 0.3723774,0.006 2.2148604,0.004 4.401465,-0.50331 6.3886113,-1.47952 -0.3308674,-0.18633 -0.6488488,-0.39411 -0.9503604,-0.62488 2.2069056,-0.84399 4.15895408,-2.24063 5.6697716,-4.05444 0.7003219,-0.83968 1.2977838,-1.75963 1.7792961,-2.7408 -0.7499345,0.27214 -1.5347676,0.43408 -2.3313744,0.48015 -0.1694876,0.0124 -0.3413129,0.0155 -0.5116086,0.0155 H 1.1006288 c 0.1046175,-0.40542 0.1772838,-0.81862 0.2185657,-1.2353 0.026361,-0.2691 0.040521,-0.5423 0.040521,-0.81867 1.496e-4,-0.30871 -0.017084,-0.61614 -0.05175,-0.92279 -0.80216748,0.39723 -1.66554291,0.65956 -2.5531864,0.77787 -0.2469289,0.0338 -0.4957989,0.0547 -0.7495969,0.0654 0.080841,-0.40093 0.1311363,-0.8059 0.1505673,-1.21433 0.00683,-0.13548 0.00972,-0.27308 0.00972,-0.41009 5.14e-4,-0.58654 -0.062148,-1.17133 -0.1861826,-1.74473 -0.6279962,0.3696 -1.302492,0.65343 -2.0059479,0.84465 -0.2543095,0.0696 -0.5136118,0.1274 -0.7771251,0.17262 l -0.00675,-0.0103 c 0.076669,-0.38275 0.1267279,-0.77073 0.1473326,-1.16044 0.00872,-0.14603 0.011405,-0.29116 0.011405,-0.44437 1.387e-4,-0.49596 -0.043685,-0.98989 -0.1327624,-1.47789 -0.86645,0.90715 -1.9085729,1.62819 -3.0631702,2.12083 -1.1546636,0.49259 -2.3984059,0.74536 -3.6540979,0.74382 -1.482625,0.003 -2.944313,-0.35064 -4.261232,-1.03034 0.599269,-0.232 1.169414,-0.53401 1.698333,-0.89841 -1.40473,-0.67341 -2.589713,-1.72856 -3.419338,-3.045193 -0.829643,-1.316592 -1.26967,-2.840809 -1.269306,-4.396164 -2.74e-4,-0.49841 0.04467,-0.995696 0.134375,-1.485999 0.08798,-0.485975 0.220131,-0.962182 0.395033,-1.424152 0.172337,-0.455668 0.385179,-0.895854 0.636279,-1.313473 0.284265,-0.476362 0.616275,-0.921845 0.990832,-1.331378 z"
       id="path4-3" />
    <path
       style="fill:url(#linearGradient2);stroke-width:0.831125"
       d="m -4.1546833,89.000007 c 1.0239707,1.318839 1.6698585,2.889421 1.8699624,4.545887 0.00753,0.05761 0.015223,0.115808 0.021098,0.174156 3.613e-4,0.0048 3.613e-4,0.0094 0,0.01302 0.00611,0.05982 0.011812,0.120148 0.016243,0.180676 v 0.03103 c 0.00518,0.05982 0.00787,0.119223 0.011404,0.179037 0.00378,0.05981 0.00771,0.120861 0.00972,0.180657 0,0.04224 -0.0012,0.08472 0.00332,0.12695 -3.668e-4,0.0074 -3.668e-4,0.01431 0,0.02122 v 0.07643 0.139976 c 0.00259,1.89313 -0.5776855,3.740133 -1.662727,5.29291 0.1193747,0.563634 0.1795633,1.139354 0.1797094,1.715454 2.211e-4,0.38875 -0.026293,0.77581 -0.080941,1.16045 0.5254949,-0.1239 1.036297,-0.30011 1.5267261,-0.52556 0.3642592,-0.16641 0.71666,-0.35972 1.0523537,-0.57793 0.068688,0.23862 0.1272097,0.48135 0.1732372,0.7292 0.0980403,0.51265 0.14658445,1.03398 0.14571044,1.55594 2.2084e-4,0.41502 -0.0302944,0.83003 -0.0922822,1.24028 0.72589037,-0.075 1.43736068,-0.24739 2.11766526,-0.51113 0.3570292,-0.13803 0.7039846,-0.30098 1.0377855,-0.48824 0.050093,0.2789 0.085863,0.56044 0.1068503,0.84312 0.015607,0.20524 0.022597,0.41276 0.022597,0.62176 3.65e-4,0.57128 -0.057393,1.14003 -0.174852,1.69921 0.854841,-0.0354 1.6986186,-0.20267 2.5013724,-0.498 0.5757619,-1.53825 0.8696178,-3.16767 0.8677885,-4.80956 0.00659,-0.36029 -0.00362,-0.71584 -0.030806,-1.06767 C 5.386811,100.00175 5.1854848,98.966527 4.8681922,97.964877 4.7420203,98.304507 4.5821391,98.630456 4.390586,98.938158 4.142775,97.302182 3.5681072,95.733579 2.7003352,94.323899 1.83249,92.91421 0.68943645,91.693319 -0.66073503,90.733394 -1.5977592,90.064499 -2.6249528,89.530208 -3.7109462,89.146494 -3.8570423,89.094532 -4.0049973,89.045206 -4.1545418,89 Z m -12.4420807,0.01638 c -1.264403,0.57379 -2.448562,1.309007 -3.522971,2.187505 -2.722516,2.220632 -4.63742,5.273807 -5.449584,8.688075 -0.287055,1.210543 -0.431792,2.449193 -0.430657,3.693013 -0.0048,2.67836 0.668294,5.31469 1.955764,7.66452 0.08729,-0.77187 0.28401,-1.52803 0.584457,-2.24448 0.970022,2.33941 2.508231,4.40171 4.474941,6.00083 1.966692,1.59915 4.300149,2.68556 6.791747,3.1609 -0.428098,-0.55635 -0.781687,-1.16487 -1.053976,-1.81149 1.326493,0.42933 2.706814,0.66386 4.1009515,0.69819 0.1234695,0 0.248181,0.006 0.3723774,0.006 2.2148604,0.004 4.401465,-0.50332 6.3886113,-1.4795 -0.3308674,-0.18643 -0.6488488,-0.39424 -0.9503604,-0.62502 2.2069056,-0.84386 4.15895408,-2.24058 5.6697716,-4.05431 0.7003219,-0.8397 1.2977838,-1.75977 1.7792961,-2.74092 -0.7499345,0.27224 -1.5347676,0.43417 -2.3313744,0.48014 -0.1694876,0.0126 -0.3413129,0.016 -0.5116086,0.016 H 1.1006288 c 0.1046175,-0.40561 0.1772838,-0.81863 0.2185657,-1.23532 0.026361,-0.26908 0.040521,-0.5423 0.040521,-0.81867 1.496e-4,-0.30872 -0.017084,-0.61616 -0.05175,-0.9229 -0.80216748,0.39735 -1.66554291,0.6596 -2.5531864,0.77799 -0.2469289,0.0338 -0.4957989,0.0547 -0.7495969,0.0654 0.080841,-0.40074 0.1311363,-0.8057 0.1505673,-1.21415 0.00683,-0.13567 0.00972,-0.27307 0.00972,-0.4101 5.14e-4,-0.58671 -0.062148,-1.17146 -0.1861826,-1.74486 -0.6279962,0.36969 -1.302492,0.6535 -2.0059479,0.84479 -0.2543095,0.0696 -0.5136118,0.12722 -0.7771251,0.17245 l -0.00675,-0.0103 c 0.076669,-0.38283 0.1267279,-0.77078 0.1473326,-1.16056 0.00872,-0.1459 0.011405,-0.29114 0.011405,-0.44427 1.387e-4,-0.49592 -0.043685,-0.98994 -0.1327624,-1.47791 -0.86645,0.90718 -1.9085729,1.62814 -3.0631702,2.12075 -1.1546636,0.49271 -2.3984059,0.74548 -3.6540979,0.74379 -1.482625,0.003 -2.944313,-0.35053 -4.261232,-1.03017 0.599269,-0.23201 1.169414,-0.534 1.698333,-0.89852 -1.40473,-0.6733 -2.589713,-1.72859 -3.419338,-3.045215 -0.829643,-1.316537 -1.26967,-2.840754 -1.269306,-4.396109 -2.74e-4,-0.498409 0.04467,-0.995698 0.134375,-1.485998 0.08798,-0.485972 0.220131,-0.962182 0.395033,-1.424153 0.172337,-0.455665 0.385179,-0.895854 0.636279,-1.313473 0.284265,-0.476365 0.616275,-0.921844 0.990832,-1.331378 z"
       id="path5-6" />
  </g>
</svg>
