<?xml version="1.0" encoding="UTF-8" standalone="no"?>
<svg
   width="47.285591"
   height="47.28569"
   version="1.1"
   viewBox="0 0 12.510734 12.51076"
   id="svg12"
   sodipodi:docname="deltachat.svg"
   inkscape:version="1.4.2 (unknown)"
   xmlns:inkscape="http://www.inkscape.org/namespaces/inkscape"
   xmlns:sodipodi="http://sodipodi.sourceforge.net/DTD/sodipodi-0.dtd"
   xmlns:xlink="http://www.w3.org/1999/xlink"
   xmlns="http://www.w3.org/2000/svg"
   xmlns:svg="http://www.w3.org/2000/svg"
   xmlns:rdf="http://www.w3.org/1999/02/22-rdf-syntax-ns#"
   xmlns:cc="http://creativecommons.org/ns#"
   xmlns:dc="http://purl.org/dc/elements/1.1/">
  <style
     id="style864" />
  <metadata
     id="metadata39">
    <rdf:RDF>
      <cc:Work
         rdf:about="">
        <dc:format>image/svg+xml</dc:format>
        <dc:type
           rdf:resource="http://purl.org/dc/dcmitype/StillImage" />
      </cc:Work>
    </rdf:RDF>
  </metadata>
  <defs
     id="defs16">
    <linearGradient
       id="linearGradient2"
       inkscape:collect="always">
      <stop
         style="stop-color:#525c6b;stop-opacity:1;"
         offset="0"
         id="stop1" />
      <stop
         style="stop-color:#4e5766;stop-opacity:1;"
         offset="1"
         id="stop2" />
    </linearGradient>
    <linearGradient
       id="c"
       y1="523.79999"
       x1="403.57001"
       y2="536.79999"
       x2="416.57001"
       gradientUnits="userSpaceOnUse"
       gradientTransform="matrix(0.34526714,0,0,0.34526706,-134.80427,-174.63325)">
      <stop
         stop-color="#292c2f"
         id="stop1568" />
      <stop
         offset="1"
         stop-opacity="0"
         id="stop1570" />
    </linearGradient>
    <linearGradient
       xlink:href="#b-2"
       id="linearGradient4189"
       x1="14.369"
       y1="22.521999"
       x2="26.521999"
       y2="22.521999"
       gradientUnits="userSpaceOnUse" />
    <linearGradient
       x1="36"
       gradientUnits="userSpaceOnUse"
       x2="14"
       y2="12"
       y1="44"
       id="b-2">
      <stop
         style="stop-color:#bfc9c9;stop-opacity:1"
         stop-color="#536161"
         id="stop1579" />
      <stop
         style="stop-color:#fbfbfb;stop-opacity:1"
         stop-color="#f4f5f5"
         offset="1"
         id="stop1581" />
    </linearGradient>
    <linearGradient
       xlink:href="#b-2"
       id="linearGradient4428"
       gradientUnits="userSpaceOnUse"
       x1="31.586"
       y1="36.345001"
       x2="1.2029999"
       y2="6.723" />
    <linearGradient
       xlink:href="#b-2"
       id="linearGradient4189-3"
       x1="14.369"
       y1="22.521999"
       x2="26.521999"
       y2="22.521999"
       gradientUnits="userSpaceOnUse"
       gradientTransform="translate(20.841982,61.553822)" />
    <linearGradient
       xlink:href="#b-2"
       id="linearGradient4428-5"
       gradientUnits="userSpaceOnUse"
       x1="31.586"
       y1="36.345001"
       x2="1.2029999"
       y2="6.723"
       gradientTransform="translate(20.841982,61.553822)" />
    <linearGradient
       xlink:href="#b-2"
       id="linearGradient4189-3-3"
       x1="14.369"
       y1="22.521999"
       x2="26.521999"
       y2="22.521999"
       gradientUnits="userSpaceOnUse"
       gradientTransform="translate(4.376802,4.4211693)" />
    <linearGradient
       xlink:href="#b-2"
       id="linearGradient4428-5-5"
       gradientUnits="userSpaceOnUse"
       x1="31.586"
       y1="36.345001"
       x2="1.2029999"
       y2="6.723"
       gradientTransform="translate(4.376802,4.4211693)" />
    <linearGradient
       inkscape:collect="always"
       xlink:href="#linearGradient2"
       id="linearGradient15"
       x1="-9.6850061"
       y1="45.161198"
       x2="11.98815"
       y2="21.735205"
       gradientUnits="userSpaceOnUse"
       gradientTransform="scale(0.26457813)" />
    <filter
       id="filter2917-3"
       x="-0.96181148"
       y="-0.66745996"
       width="2.9236228"
       height="2.3349199"
       color-interpolation-filters="sRGB">
      <feGaussianBlur
         stdDeviation="0.2871969"
         id="feGaussianBlur732-5" />
    </filter>
    <filter
       id="filter1"
       x="-0.96181148"
       y="-0.66745996"
       width="2.9236228"
       height="2.3349199"
       color-interpolation-filters="sRGB">
      <feGaussianBlur
         stdDeviation="0.2871969"
         id="feGaussianBlur1" />
    </filter>
    <filter
       id="filter2"
       x="-0.96181148"
       y="-0.66745996"
       width="2.9236228"
       height="2.3349199"
       color-interpolation-filters="sRGB">
      <feGaussianBlur
         stdDeviation="0.2871969"
         id="feGaussianBlur2" />
    </filter>
    <linearGradient
       inkscape:collect="always"
       xlink:href="#linearGradient2"
       id="linearGradient867"
       x1="-12.194976"
       y1="6.2880521"
       x2="-0.25434875"
       y2="6.2880521"
       gradientUnits="userSpaceOnUse" />
    <linearGradient
       inkscape:collect="always"
       xlink:href="#linearGradient4375"
       id="linearGradient4381"
       x1="31.957268"
       y1="29.751493"
       x2="-45.041405"
       y2="-18.591616"
       gradientUnits="userSpaceOnUse"
       gradientTransform="matrix(2.8992246,0,0,2.8992253,-22.891325,-22.342958)" />
    <linearGradient
       id="linearGradient4375">
      <stop
         style="stop-color:#364e59;stop-opacity:1;"
         offset="0"
         id="stop4377" />
      <stop
         style="stop-color:#364e59;stop-opacity:0;"
         offset="1"
         id="stop4379" />
    </linearGradient>
  </defs>
  <sodipodi:namedview
     id="namedview14"
     pagecolor="#000000"
     bordercolor="#666666"
     borderopacity="1.0"
     inkscape:showpageshadow="2"
     inkscape:pageopacity="0.0"
     inkscape:pagecheckerboard="0"
     inkscape:deskcolor="#d1d1d1"
     showgrid="false"
     inkscape:zoom="9.0252824"
     inkscape:cx="10.525986"
     inkscape:cy="22.658571"
     inkscape:window-width="1920"
     inkscape:window-height="994"
     inkscape:window-x="0"
     inkscape:window-y="0"
     inkscape:window-maximized="1"
     inkscape:current-layer="svg12"
     inkscape:document-rotation="0">
    <inkscape:grid
       type="xygrid"
       id="grid244"
       originx="9.9594769"
       originy="-31.57929"
       spacingy="1"
       spacingx="1"
       units="px"
       visible="false" />
  </sodipodi:namedview>
  <rect
     x="-12.194976"
     y="0.32004508"
     width="11.940627"
     height="11.936014"
     rx="1.6121091"
     shape-rendering="crispEdges"
     id="rect5-6-7-3"
     ry="1.7735944"
     transform="matrix(0.00523883,-0.99998628,0.999988,0.00489859,0,0)"
     style="fill:#373e48;fill-opacity:0.12;stroke:url(#linearGradient867);stroke-width:0.5291563;stroke-miterlimit:4;stroke-dasharray:none;stroke-opacity:1" />
  <rect
     x="-3.7202365"
     y="4.8851409"
     width="7.912631"
     height="7.912384"
     rx="1.612043"
     shape-rendering="crispEdges"
     id="rect5-6-6-6-6"
     style="fill:#4e5766;fill-opacity:0.41999999;stroke:url(#linearGradient15);stroke-width:0.39686725;stroke-opacity:1;stroke-miterlimit:4;stroke-dasharray:none"
     ry="1.7735215"
     transform="matrix(0.72612649,-0.68756114,0.6879775,0.72573202,0,0)" />
  <g
     id="g2"
     transform="matrix(0.1019553,0,0,0.10195526,3.2986675,3.2986804)"
     style="stroke-width:2.59504">
    <path
       style="fill:#d9d9d9;fill-opacity:1;stroke:#000000;stroke-width:1.77495;stroke-linejoin:round;stroke-miterlimit:4;stroke-dasharray:none;stroke-opacity:0.439216"
       d="m 28.422644,1.3419874 c -14.952511,0 -27.0806561,12.1281436 -27.0806561,27.0806556 0,14.952512 12.1281451,27.080658 27.0806561,27.080658 17.083278,-0.408535 11.455405,-5.603227 28.235403,1.154745 -8.990332,-15.491224 -1.290351,-15.882134 -1.154745,-28.235403 0,-14.952512 -12.128146,-27.0806556 -27.080658,-27.0806556 z"
       id="path3769"
       inkscape:connector-curvature="0"
       sodipodi:nodetypes="sscccs" />
    <path
       inkscape:connector-curvature="0"
       id="path3799"
       d="M 28.383122,6.1360568 C 16.067372,6.2859274 6.0779348,16.405955 6.0779348,28.732829 c 0,12.326876 9.9894372,22.203777 22.3051872,22.053906 11.709636,-0.04708 8.956156,-6.540918 21.899686,-0.528053 -7.090378,-11.076229 0.240387,-12.55076 0.405507,-22.068717 0,-12.326878 -9.98944,-22.2037791 -22.305193,-22.0539082 z"
       style="fill:url(#linearGradient4381);fill-opacity:1;stroke:none;stroke-width:3.09197"
       sodipodi:nodetypes="sscccs" />
    <g
       transform="matrix(1.3252197,0,0,1.0712553,-0.1914901,-0.19149001)"
       style="font-style:normal;font-weight:normal;font-size:42.1059px;line-height:125%;font-family:Sans;letter-spacing:0px;word-spacing:0px;fill:#ffffff;fill-opacity:1;stroke:none;stroke-width:2.59504"
       id="text3797">
      <path
         d="m 21.688854,23.636251 q -1.027975,-1.151333 -2.857771,-2.754974 -2.014832,-1.768118 -2.713855,-2.775534 -0.699024,-1.027975 -0.699024,-2.240986 0,-1.809237 1.68588,-2.837212 1.68588,-1.048535 4.399735,-1.048535 2.713855,0 4.728687,0.925178 2.035391,0.925177 2.035391,2.549379 0,0.781261 -0.493428,1.295249 -0.493428,0.513987 -1.151333,0.513987 -0.945737,0 -2.220426,-1.418606 -1.295249,-1.439165 -2.199868,-2.014832 -0.884059,-0.596225 -2.07651,-0.596225 -1.521404,0 -2.50826,0.678463 -0.966297,0.678464 -0.966297,1.726999 0,0.986857 0.801821,1.850356 0.801821,0.863499 4.132461,3.145605 3.556795,2.446581 5.01652,3.824068 1.480285,1.377487 2.405462,3.3512 0.925178,1.973713 0.925178,4.17358 0,3.865188 -2.734414,6.825757 -2.713855,2.94001 -6.352888,2.94001 -3.310081,0 -5.592187,-2.364344 -2.282105,-2.364343 -2.282105,-6.311769 0,-3.803509 2.50826,-6.352888 2.528819,-2.549379 6.208971,-3.083926 z m 0.904619,0.945737 q -5.900579,0.966297 -5.900579,8.100447 0,3.680152 1.459725,5.715543 1.480285,2.035391 3.433438,2.035391 2.035391,0 3.3512,-1.953153 1.315808,-1.973713 1.315808,-5.324913 0,-4.852044 -3.659592,-8.573315 z"
         style="font-family:'Times New Roman';-inkscape-font-specification:'Times New Roman';fill:#ffffff;fill-opacity:1;stroke-width:2.59504"
         id="path4161" />
    </g>
  </g>
</svg>
