<?xml version="1.0" encoding="UTF-8" standalone="no"?>
<svg
   width="47.285591"
   height="47.28569"
   version="1.1"
   viewBox="0 0 12.510734 12.51076"
   id="svg12"
   sodipodi:docname="cutter.svg"
   inkscape:version="1.4.2 (unknown)"
   xmlns:inkscape="http://www.inkscape.org/namespaces/inkscape"
   xmlns:sodipodi="http://sodipodi.sourceforge.net/DTD/sodipodi-0.dtd"
   xmlns:xlink="http://www.w3.org/1999/xlink"
   xmlns="http://www.w3.org/2000/svg"
   xmlns:svg="http://www.w3.org/2000/svg"
   xmlns:rdf="http://www.w3.org/1999/02/22-rdf-syntax-ns#"
   xmlns:cc="http://creativecommons.org/ns#"
   xmlns:dc="http://purl.org/dc/elements/1.1/">
  <style
     id="style864" />
  <metadata
     id="metadata39">
    <rdf:RDF>
      <cc:Work
         rdf:about="">
        <dc:format>image/svg+xml</dc:format>
        <dc:type
           rdf:resource="http://purl.org/dc/dcmitype/StillImage" />
      </cc:Work>
    </rdf:RDF>
  </metadata>
  <defs
     id="defs16">
    <linearGradient
       id="linearGradient2"
       inkscape:collect="always">
      <stop
         style="stop-color:#525c6b;stop-opacity:1;"
         offset="0"
         id="stop1" />
      <stop
         style="stop-color:#4e5766;stop-opacity:1;"
         offset="1"
         id="stop2" />
    </linearGradient>
    <linearGradient
       id="c"
       y1="523.79999"
       x1="403.57001"
       y2="536.79999"
       x2="416.57001"
       gradientUnits="userSpaceOnUse"
       gradientTransform="matrix(0.34526714,0,0,0.34526706,-134.80427,-174.63325)">
      <stop
         stop-color="#292c2f"
         id="stop1568" />
      <stop
         offset="1"
         stop-opacity="0"
         id="stop1570" />
    </linearGradient>
    <linearGradient
       xlink:href="#b-2"
       id="linearGradient4189"
       x1="14.369"
       y1="22.521999"
       x2="26.521999"
       y2="22.521999"
       gradientUnits="userSpaceOnUse" />
    <linearGradient
       x1="36"
       gradientUnits="userSpaceOnUse"
       x2="14"
       y2="12"
       y1="44"
       id="b-2">
      <stop
         style="stop-color:#bfc9c9;stop-opacity:1"
         stop-color="#536161"
         id="stop1579" />
      <stop
         style="stop-color:#fbfbfb;stop-opacity:1"
         stop-color="#f4f5f5"
         offset="1"
         id="stop1581" />
    </linearGradient>
    <linearGradient
       xlink:href="#b-2"
       id="linearGradient4428"
       gradientUnits="userSpaceOnUse"
       x1="31.586"
       y1="36.345001"
       x2="1.2029999"
       y2="6.723" />
    <linearGradient
       xlink:href="#b-2"
       id="linearGradient4189-3"
       x1="14.369"
       y1="22.521999"
       x2="26.521999"
       y2="22.521999"
       gradientUnits="userSpaceOnUse"
       gradientTransform="translate(20.841982,61.553822)" />
    <linearGradient
       xlink:href="#b-2"
       id="linearGradient4428-5"
       gradientUnits="userSpaceOnUse"
       x1="31.586"
       y1="36.345001"
       x2="1.2029999"
       y2="6.723"
       gradientTransform="translate(20.841982,61.553822)" />
    <linearGradient
       xlink:href="#b-2"
       id="linearGradient4189-3-3"
       x1="14.369"
       y1="22.521999"
       x2="26.521999"
       y2="22.521999"
       gradientUnits="userSpaceOnUse"
       gradientTransform="translate(4.376802,4.4211693)" />
    <linearGradient
       xlink:href="#b-2"
       id="linearGradient4428-5-5"
       gradientUnits="userSpaceOnUse"
       x1="31.586"
       y1="36.345001"
       x2="1.2029999"
       y2="6.723"
       gradientTransform="translate(4.376802,4.4211693)" />
    <linearGradient
       inkscape:collect="always"
       xlink:href="#linearGradient2"
       id="linearGradient15"
       x1="-9.6850061"
       y1="45.161198"
       x2="11.98815"
       y2="21.735205"
       gradientUnits="userSpaceOnUse"
       gradientTransform="scale(0.26457813)" />
    <filter
       id="filter2917-3"
       x="-0.96181148"
       y="-0.66745996"
       width="2.9236228"
       height="2.3349199"
       color-interpolation-filters="sRGB">
      <feGaussianBlur
         stdDeviation="0.2871969"
         id="feGaussianBlur732-5" />
    </filter>
    <filter
       id="filter1"
       x="-0.96181148"
       y="-0.66745996"
       width="2.9236228"
       height="2.3349199"
       color-interpolation-filters="sRGB">
      <feGaussianBlur
         stdDeviation="0.2871969"
         id="feGaussianBlur1" />
    </filter>
    <filter
       id="filter2"
       x="-0.96181148"
       y="-0.66745996"
       width="2.9236228"
       height="2.3349199"
       color-interpolation-filters="sRGB">
      <feGaussianBlur
         stdDeviation="0.2871969"
         id="feGaussianBlur2" />
    </filter>
    <linearGradient
       inkscape:collect="always"
       xlink:href="#linearGradient2"
       id="linearGradient867"
       x1="-12.194976"
       y1="6.2880521"
       x2="-0.25434875"
       y2="6.2880521"
       gradientUnits="userSpaceOnUse" />
  </defs>
  <sodipodi:namedview
     id="namedview14"
     pagecolor="#000000"
     bordercolor="#666666"
     borderopacity="1.0"
     inkscape:showpageshadow="2"
     inkscape:pageopacity="0.0"
     inkscape:pagecheckerboard="0"
     inkscape:deskcolor="#d1d1d1"
     showgrid="false"
     inkscape:zoom="9.0252824"
     inkscape:cx="10.525986"
     inkscape:cy="31.522559"
     inkscape:window-width="1920"
     inkscape:window-height="994"
     inkscape:window-x="0"
     inkscape:window-y="0"
     inkscape:window-maximized="1"
     inkscape:current-layer="svg12"
     inkscape:document-rotation="0">
    <inkscape:grid
       type="xygrid"
       id="grid244"
       originx="9.9594769"
       originy="-31.57929"
       spacingy="1"
       spacingx="1"
       units="px"
       visible="false" />
  </sodipodi:namedview>
  <rect
     x="-12.194976"
     y="0.32004508"
     width="11.940627"
     height="11.936014"
     rx="1.6121091"
     shape-rendering="crispEdges"
     id="rect5-6-7-3"
     ry="1.7735944"
     transform="matrix(0.00523883,-0.99998628,0.999988,0.00489859,0,0)"
     style="fill:#373e48;fill-opacity:0.12;stroke:url(#linearGradient867);stroke-width:0.5291563;stroke-miterlimit:4;stroke-dasharray:none;stroke-opacity:1" />
  <rect
     x="-3.7202365"
     y="4.8851409"
     width="7.912631"
     height="7.912384"
     rx="1.612043"
     shape-rendering="crispEdges"
     id="rect5-6-6-6-6"
     style="fill:#4e5766;fill-opacity:0.41999999;stroke:url(#linearGradient15);stroke-width:0.39686725;stroke-opacity:1;stroke-miterlimit:4;stroke-dasharray:none"
     ry="1.7735215"
     transform="matrix(0.72612649,-0.68756114,0.6879775,0.72573202,0,0)" />
  <g
     id="g2"
     transform="translate(-0.06476744,0.17756523)">
    <g
       id="g1"
       transform="matrix(0.13858855,0,0,0.13858855,2.1751485,2.0734672)"
       style="stroke-width:1.90909">
      <path
         style="opacity:0.1;stroke-width:1.90903"
         d="M 30.386362,8.3404838 A 21.954546,20.553179 0 0 0 8.431817,28.893784 21.954546,20.553179 0 0 0 30.386362,49.446894 21.954546,20.553179 0 0 0 46.125175,43.191504 H 35.636353 L 28,28.893784 35.636353,14.595884 H 46.156875 A 21.954546,20.553179 0 0 0 30.386362,8.3404838 Z m 10.499998,14.2979102 -4.772723,3.12757 -4.772724,3.12782 4.772724,3.12759 4.772723,3.1276 v -6.25519 z m 0,6.25539 4.772731,3.12759 4.772726,3.1276 v -6.25519 -6.25539 l -4.772726,3.12757 z"
         id="path2" />
      <path
         style="fill:#5b7ba4;fill-opacity:1;stroke-width:2.60156"
         d="m 31.340913,28.000004 4.772723,-3.12757 4.772723,-3.12761 v 6.25518 6.25537 l -4.772723,-3.12755 z"
         id="path3" />
      <path
         style="fill:#5b7ba6;fill-opacity:1;stroke-width:1.90903"
         d="M 30.386362,7.4468938 A 21.954546,20.553179 0 0 0 8.431817,28.000004 21.954546,20.553179 0 0 0 30.386362,48.553294 21.954546,20.553179 0 0 0 46.125175,42.297904 H 35.636353 L 28,28.000004 35.636353,13.702284 H 46.156875 A 21.954546,20.553179 0 0 0 30.386362,7.4468938 Z"
         id="path4" />
      <path
         style="fill:#5a78a5;fill-opacity:1;stroke-width:2.60156"
         d="m 40.88636,28.000004 4.77273,-3.12757 4.772726,-3.12761 v 6.25518 6.25537 l -4.772726,-3.12755 z"
         id="path5" />
    </g>
    <path
       style="opacity:0.2;stroke-width:0.264568"
       d="m 5.1104373,4.0962892 c -0.128098,2.5e-5 -0.2457157,0.07103 -0.3057724,0.184601 l -1.7296768,3.268003 c -0.1223369,0.231449 0.044749,0.510355 0.3057728,0.510422 h 2.7912682 c 0.2606907,-7.4e-5 0.4277912,-0.278355 0.3060961,-0.509767 L 5.679776,6.0778142 6.3576281,4.6073632 c 0.1229853,-0.231471 -0.044091,-0.511022 -0.305446,-0.511074 z"
       id="path6" />
    <path
       style="fill:#eef1f7;fill-opacity:1;stroke-width:0.264568"
       d="m 5.1104373,3.9724462 c -0.128098,2.3e-5 -0.2457157,0.07103 -0.3057724,0.18459 l -1.7296768,3.268011 c -0.1223369,0.231434 0.044749,0.510353 0.3057728,0.510425 h 2.7912682 c 0.2606907,-8.8e-5 0.4277912,-0.278373 0.3060961,-0.509762 L 5.679776,5.9539472 6.3576281,4.4835222 c 0.1229853,-0.231482 -0.044091,-0.51102 -0.305446,-0.511076 z"
       id="path7" />
  </g>
</svg>
