<?xml version="1.0" encoding="UTF-8" standalone="no"?>
<svg
   xmlns:dc="http://purl.org/dc/elements/1.1/"
   xmlns:cc="http://creativecommons.org/ns#"
   xmlns:rdf="http://www.w3.org/1999/02/22-rdf-syntax-ns#"
   xmlns:svg="http://www.w3.org/2000/svg"
   xmlns="http://www.w3.org/2000/svg"
   xmlns:xlink="http://www.w3.org/1999/xlink"
   xmlns:sodipodi="http://sodipodi.sourceforge.net/DTD/sodipodi-0.dtd"
   xmlns:inkscape="http://www.inkscape.org/namespaces/inkscape"
   width="47.285591"
   height="47.28569"
   version="1.1"
   viewBox="0 0 12.510734 12.51076"
   id="svg12"
   sodipodi:docname="bottles_wine.svg"
   inkscape:version="1.0.1 (3bc2e813f5, 2020-09-07)">
  <style
     id="style864"></style>
  <metadata
     id="metadata39">
    <rdf:RDF>
      <cc:Work
         rdf:about="">
        <dc:format>image/svg+xml</dc:format>
        <dc:type
           rdf:resource="http://purl.org/dc/dcmitype/StillImage" />
      </cc:Work>
    </rdf:RDF>
  </metadata>
  <defs
     id="defs16">
    <linearGradient
       id="c"
       y1="523.79999"
       x1="403.57001"
       y2="536.79999"
       x2="416.57001"
       gradientUnits="userSpaceOnUse"
       gradientTransform="matrix(0.34526714,0,0,0.34526706,-134.80427,-174.63325)">
      <stop
         stop-color="#292c2f"
         id="stop1568" />
      <stop
         offset="1"
         stop-opacity="0"
         id="stop1570" />
    </linearGradient>
    <linearGradient
       xlink:href="#b-2"
       id="linearGradient4189"
       x1="14.369"
       y1="22.521999"
       x2="26.521999"
       y2="22.521999"
       gradientUnits="userSpaceOnUse" />
    <linearGradient
       x1="36"
       gradientUnits="userSpaceOnUse"
       x2="14"
       y2="12"
       y1="44"
       id="b-2">
      <stop
         style="stop-color:#bfc9c9;stop-opacity:1"
         stop-color="#536161"
         id="stop1579" />
      <stop
         style="stop-color:#fbfbfb;stop-opacity:1"
         stop-color="#f4f5f5"
         offset="1"
         id="stop1581" />
    </linearGradient>
    <linearGradient
       xlink:href="#b-2"
       id="linearGradient4428"
       gradientUnits="userSpaceOnUse"
       x1="31.586"
       y1="36.345001"
       x2="1.2029999"
       y2="6.723" />
    <linearGradient
       xlink:href="#b-2"
       id="linearGradient4189-3"
       x1="14.369"
       y1="22.521999"
       x2="26.521999"
       y2="22.521999"
       gradientUnits="userSpaceOnUse"
       gradientTransform="translate(20.841982,61.553822)" />
    <linearGradient
       xlink:href="#b-2"
       id="linearGradient4428-5"
       gradientUnits="userSpaceOnUse"
       x1="31.586"
       y1="36.345001"
       x2="1.2029999"
       y2="6.723"
       gradientTransform="translate(20.841982,61.553822)" />
    <linearGradient
       xlink:href="#b-2"
       id="linearGradient4189-3-3"
       x1="14.369"
       y1="22.521999"
       x2="26.521999"
       y2="22.521999"
       gradientUnits="userSpaceOnUse"
       gradientTransform="translate(4.376802,4.4211693)" />
    <linearGradient
       xlink:href="#b-2"
       id="linearGradient4428-5-5"
       gradientUnits="userSpaceOnUse"
       x1="31.586"
       y1="36.345001"
       x2="1.2029999"
       y2="6.723"
       gradientTransform="translate(4.376802,4.4211693)" />
    <linearGradient
       id="linearGradient11"
       inkscape:collect="always">
      <stop
         style="stop-color:#00ffcc;stop-opacity:0.71674877;"
         offset="0"
         id="stop4-3" />
      <stop
         style="stop-color:#ffdd55;stop-opacity:1"
         offset="1"
         id="stop11" />
    </linearGradient>
    <filter
       id="filter2917-3"
       x="-0.96181148"
       y="-0.66745996"
       width="2.9236228"
       height="2.3349199"
       color-interpolation-filters="sRGB">
      <feGaussianBlur
         stdDeviation="0.2871969"
         id="feGaussianBlur732-5" />
    </filter>
    <filter
       id="filter1"
       x="-0.96181148"
       y="-0.66745996"
       width="2.9236228"
       height="2.3349199"
       color-interpolation-filters="sRGB">
      <feGaussianBlur
         stdDeviation="0.2871969"
         id="feGaussianBlur1" />
    </filter>
    <filter
       id="filter2"
       x="-0.96181148"
       y="-0.66745996"
       width="2.9236228"
       height="2.3349199"
       color-interpolation-filters="sRGB">
      <feGaussianBlur
         stdDeviation="0.2871969"
         id="feGaussianBlur2" />
    </filter>
    <linearGradient
       inkscape:collect="always"
       xlink:href="#linearGradient11"
       id="linearGradient2"
       x1="-3.8211522"
       y1="8.6008863"
       x2="4.2804661"
       y2="8.6008863"
       gradientUnits="userSpaceOnUse" />
    <linearGradient
       inkscape:collect="always"
       xlink:href="#linearGradient11"
       id="linearGradient872"
       x1="-12.025727"
       y1="6.1170783"
       x2="-0.085100174"
       y2="6.1170783"
       gradientUnits="userSpaceOnUse" />
    <linearGradient
       inkscape:collect="always"
       xlink:href="#linearGradient26"
       id="linearGradient1"
       gradientUnits="userSpaceOnUse"
       gradientTransform="matrix(0.4630028,0,0,0.48845429,3.6247599,3.3653492)"
       x1="1.1238592"
       y1="14.717066"
       x2="14.125163"
       y2="1.3246276" />
    <linearGradient
       id="linearGradient26"
       inkscape:collect="always">
      <stop
         style="stop-color:#00ccff;stop-opacity:1"
         offset="0"
         id="stop25" />
      <stop
         style="stop-color:#ffd42a;stop-opacity:1"
         offset="1"
         id="stop26" />
    </linearGradient>
  </defs>
  <sodipodi:namedview
     id="namedview14"
     pagecolor="#000000"
     bordercolor="#666666"
     borderopacity="1.0"
     inkscape:showpageshadow="2"
     inkscape:pageopacity="0.0"
     inkscape:pagecheckerboard="0"
     inkscape:deskcolor="#d1d1d1"
     showgrid="false"
     inkscape:zoom="7.5172018"
     inkscape:cx="23.845543"
     inkscape:cy="54.335026"
     inkscape:window-width="1920"
     inkscape:window-height="988"
     inkscape:window-x="0"
     inkscape:window-y="0"
     inkscape:window-maximized="1"
     inkscape:current-layer="svg12"
     inkscape:document-rotation="0">
    <inkscape:grid
       type="xygrid"
       id="grid244"
       originx="9.9594769"
       originy="-31.57929"
       spacingy="1"
       spacingx="1"
       units="px"
       visible="false" />
  </sodipodi:namedview>
  <rect
     x="-12.194976"
     y="0.32004508"
     width="11.940627"
     height="11.936014"
     rx="1.6121091"
     shape-rendering="crispEdges"
     id="rect5-6-7-3"
     ry="1.7735944"
     transform="matrix(0.00523883,-0.99998628,0.999988,0.00489859,0,0)"
     style="fill:#80b3ff;fill-opacity:0.15;stroke:url(#linearGradient872);stroke-width:0.5291563;stroke-miterlimit:4;stroke-dasharray:none;stroke-opacity:1" />
  <rect
     x="-3.7202365"
     y="4.8851409"
     width="7.912631"
     height="7.912384"
     rx="1.612043"
     shape-rendering="crispEdges"
     id="rect5-6-6-6-6"
     style="fill:#80b3ff;fill-opacity:0.122146;stroke:url(#linearGradient2);stroke-width:0.39686725;stroke-opacity:1;stroke-miterlimit:4;stroke-dasharray:none"
     ry="1.7735215"
     transform="matrix(0.72612649,-0.68756114,0.6879775,0.72573202,0,0)" />
  <path
     fill-rule="evenodd"
     d="m 5.8688465,7.6458442 c -0.011956,-0.1648 -0.017986,-0.329967 -0.0177,-0.495126 0,-0.194994 0.0177,-0.368168 0.036369,-0.550066 H 5.306706 c 0.035661,0.136434 0.056178,0.307413 0.056178,0.522782 0,0.215002 -0.020526,0.385982 -0.056178,0.52241 z M 4.235241,7.1234342 c 0,-0.215369 0.020534,-0.386348 0.056178,-0.522782 H 3.7106047 c 0.018729,0.181898 0.036361,0.355072 0.036361,0.550066 0,0.194994 -0.00716,0.353248 -0.017684,0.495126 h 0.562078 c -0.035661,-0.136428 -0.056169,-0.307408 -0.056183,-0.52241 z m 1.6530369,0.754513 H 5.2134994 c -0.1031622,0.169887 -0.2504857,0.232102 -0.4144077,0.232102 -0.1639273,0 -0.3112492,-0.06222 -0.414404,-0.232102 H 3.7098949 l -0.00624,0.06473 c -0.019462,0.203003 -0.037811,0.394726 -0.037811,0.649746 0,0.18881 0.1413165,0.336514 0.3215,0.336514 h 1.6237197 c 0.1801751,0 0.3214903,-0.147704 0.3214903,-0.336514 0,-0.25502 -0.018383,-0.446743 -0.03781,-0.649745 z M 5.2502416,3.7081172 H 4.3479381 c -0.067125,0 -0.1218893,-0.0564 -0.1218893,-0.12587 v -0.116054 c 0,-0.197541 0.1558058,-0.357975 0.3476506,-0.357975 h 0.4507875 c 0.1918395,0 0.34764,0.160434 0.34764,0.357975 v 0.116054 c 0,0.06947 -0.054402,0.12587 -0.1218853,0.12587 z m 0.1088138,1.180514 -0.091503,-0.950233 c -0.00598,1.75e-4 -0.011671,0.0022 -0.017243,0.0022 H 4.3480011 c -0.00575,0 -0.011313,-0.0015 -0.016967,-0.0022 l -0.091872,0.950233 c -0.1335871,0.124784 -0.5734319,0.57116 -0.5734319,1.033177 0,0.163711 0.00988,0.308875 0.02232,0.446744 h 0.6966827 c 0.1031567,-0.170258 0.2504772,-0.232102 0.4144018,-0.232102 0.1639305,0 0.3112535,0.06182 0.4144117,0.232102 h 0.6970428 c 0.012464,-0.137869 0.021944,-0.283033 0.021944,-0.446744 0,-0.461648 -0.4398451,-0.908032 -0.5733882,-1.033177 z m 3.3361169,2.757213 c -0.011975,-0.1648 -0.017997,-0.329967 -0.017706,-0.495126 0,-0.194994 0.017706,-0.368168 0.036363,-0.550066 H 8.1330315 c 0.035666,0.136434 0.056211,0.307413 0.056211,0.522782 0,0.215002 -0.020542,0.385982 -0.056211,0.52241 h 0.5620933 z m -1.6336171,-0.52241 c 0,-0.215369 0.020494,-0.386348 0.05621,-0.522782 H 6.536956 c 0.018695,0.181898 0.036372,0.355072 0.036372,0.550066 0,0.194994 -0.00716,0.353248 -0.01769,0.495126 h 0.5620877 c -0.035659,-0.136428 -0.056174,-0.307408 -0.056174,-0.52241 z m 1.6530443,0.754513 H 8.0398183 c -0.103155,0.169887 -0.2504859,0.232102 -0.4144137,0.232102 -0.1639239,0 -0.3112439,-0.06222 -0.4144143,-0.232102 H 6.5362128 l -0.00624,0.06473 c -0.01946,0.203003 -0.037819,0.394726 -0.037819,0.649745 0,0.188812 0.1413183,0.336515 0.3214965,0.336515 h 1.6237182 c 0.1801801,0 0.3214908,-0.147703 0.3214908,-0.336515 0,-0.255019 -0.018386,-0.446742 -0.037823,-0.649745 l -0.00653,-0.06473 z M 8.0765587,3.7081172 H 7.1742642 c -0.067135,0 -0.1218946,-0.0564 -0.1218946,-0.12587 v -0.116054 c 0,-0.197541 0.1558008,-0.357975 0.3476427,-0.357975 h 0.4507935 c 0.1918335,0 0.3476385,0.160434 0.3476385,0.357975 v 0.116054 c 0,0.06947 -0.054395,0.12587 -0.1218856,0.12587 z m 0.108807,1.180514 -0.091496,-0.950233 c -0.0061,1.75e-4 -0.011702,0.0022 -0.017303,0.0022 H 7.1742836 c -0.00575,0 -0.011313,-0.0015 -0.016962,-0.0022 l -0.091859,0.950233 c -0.1335385,0.124784 -0.5733919,0.57116 -0.5733919,1.033177 0,0.163711 0.00987,0.308875 0.022275,0.446744 h 0.6966898 c 0.1031551,-0.170258 0.2504827,-0.232102 0.4144098,-0.232102 0.1639231,0 0.3112452,0.06182 0.4144085,0.232102 h 0.6970377 c 0.01239,-0.137869 0.021947,-0.283033 0.021947,-0.446744 0,-0.461648 -0.4398482,-0.908032 -0.5733959,-1.033177 z"
     id="path22-3-7"
     style="isolation:isolate;fill:url(#linearGradient1);stroke-width:0.475558" />
</svg>
