<?xml version="1.0" encoding="UTF-8" standalone="no"?>
<svg
   xmlns:dc="http://purl.org/dc/elements/1.1/"
   xmlns:cc="http://creativecommons.org/ns#"
   xmlns:rdf="http://www.w3.org/1999/02/22-rdf-syntax-ns#"
   xmlns:svg="http://www.w3.org/2000/svg"
   xmlns="http://www.w3.org/2000/svg"
   xmlns:xlink="http://www.w3.org/1999/xlink"
   xmlns:sodipodi="http://sodipodi.sourceforge.net/DTD/sodipodi-0.dtd"
   xmlns:inkscape="http://www.inkscape.org/namespaces/inkscape"
   width="47.285591"
   height="47.28569"
   version="1.1"
   viewBox="0 0 12.510734 12.51076"
   id="svg12"
   sodipodi:docname="com.notepadqq.Notepadqq.svg"
   inkscape:version="1.0.1 (3bc2e813f5, 2020-09-07)">
  <style
     id="style866"></style>
  <metadata
     id="metadata41">
    <rdf:RDF>
      <cc:Work
         rdf:about="">
        <dc:format>image/svg+xml</dc:format>
        <dc:type
           rdf:resource="http://purl.org/dc/dcmitype/StillImage" />
      </cc:Work>
    </rdf:RDF>
  </metadata>
  <defs
     id="defs16">
    <linearGradient
       id="c"
       y1="523.79999"
       x1="403.57001"
       y2="536.79999"
       x2="416.57001"
       gradientUnits="userSpaceOnUse"
       gradientTransform="matrix(0.34526714,0,0,0.34526706,-134.80427,-174.63325)">
      <stop
         stop-color="#292c2f"
         id="stop1568" />
      <stop
         offset="1"
         stop-opacity="0"
         id="stop1570" />
    </linearGradient>
    <linearGradient
       xlink:href="#b-2"
       id="linearGradient4189"
       x1="14.369"
       y1="22.521999"
       x2="26.521999"
       y2="22.521999"
       gradientUnits="userSpaceOnUse" />
    <linearGradient
       x1="36"
       gradientUnits="userSpaceOnUse"
       x2="14"
       y2="12"
       y1="44"
       id="b-2">
      <stop
         style="stop-color:#bfc9c9;stop-opacity:1"
         stop-color="#536161"
         id="stop1579" />
      <stop
         style="stop-color:#fbfbfb;stop-opacity:1"
         stop-color="#f4f5f5"
         offset="1"
         id="stop1581" />
    </linearGradient>
    <linearGradient
       xlink:href="#b-2"
       id="linearGradient4428"
       gradientUnits="userSpaceOnUse"
       x1="31.586"
       y1="36.345001"
       x2="1.2029999"
       y2="6.723" />
    <linearGradient
       xlink:href="#b-2"
       id="linearGradient4189-3"
       x1="14.369"
       y1="22.521999"
       x2="26.521999"
       y2="22.521999"
       gradientUnits="userSpaceOnUse"
       gradientTransform="translate(20.841982,61.553822)" />
    <linearGradient
       xlink:href="#b-2"
       id="linearGradient4428-5"
       gradientUnits="userSpaceOnUse"
       x1="31.586"
       y1="36.345001"
       x2="1.2029999"
       y2="6.723"
       gradientTransform="translate(20.841982,61.553822)" />
    <linearGradient
       xlink:href="#b-2"
       id="linearGradient4189-3-3"
       x1="14.369"
       y1="22.521999"
       x2="26.521999"
       y2="22.521999"
       gradientUnits="userSpaceOnUse"
       gradientTransform="translate(4.376802,4.4211693)" />
    <linearGradient
       xlink:href="#b-2"
       id="linearGradient4428-5-5"
       gradientUnits="userSpaceOnUse"
       x1="31.586"
       y1="36.345001"
       x2="1.2029999"
       y2="6.723"
       gradientTransform="translate(4.376802,4.4211693)" />
    <linearGradient
       inkscape:collect="always"
       xlink:href="#linearGradient14"
       id="linearGradient15"
       x1="-9.6850061"
       y1="45.161198"
       x2="11.98815"
       y2="21.735205"
       gradientUnits="userSpaceOnUse"
       gradientTransform="scale(0.26457813)" />
    <linearGradient
       id="linearGradient14"
       inkscape:collect="always">
      <stop
         style="stop-color:#37c871;stop-opacity:1"
         offset="0"
         id="stop12" />
      <stop
         style="stop-color:#00ccff;stop-opacity:1"
         offset="1"
         id="stop13" />
    </linearGradient>
    <filter
       id="filter2917-3"
       x="-0.96181148"
       y="-0.66745996"
       width="2.9236228"
       height="2.3349199"
       color-interpolation-filters="sRGB">
      <feGaussianBlur
         stdDeviation="0.2871969"
         id="feGaussianBlur732-5" />
    </filter>
    <filter
       id="filter1"
       x="-0.96181148"
       y="-0.66745996"
       width="2.9236228"
       height="2.3349199"
       color-interpolation-filters="sRGB">
      <feGaussianBlur
         stdDeviation="0.2871969"
         id="feGaussianBlur1" />
    </filter>
    <filter
       id="filter2"
       x="-0.96181148"
       y="-0.66745996"
       width="2.9236228"
       height="2.3349199"
       color-interpolation-filters="sRGB">
      <feGaussianBlur
         stdDeviation="0.2871969"
         id="feGaussianBlur2" />
    </filter>
    <linearGradient
       inkscape:collect="always"
       xlink:href="#linearGradient14"
       id="linearGradient874"
       x1="-12.025727"
       y1="6.1170783"
       x2="-0.085100174"
       y2="6.1170783"
       gradientUnits="userSpaceOnUse" />
  </defs>
  <sodipodi:namedview
     id="namedview14"
     pagecolor="#000000"
     bordercolor="#666666"
     borderopacity="1.0"
     inkscape:showpageshadow="2"
     inkscape:pageopacity="0.0"
     inkscape:pagecheckerboard="0"
     inkscape:deskcolor="#d1d1d1"
     showgrid="false"
     inkscape:zoom="6.2611141"
     inkscape:cx="23.845543"
     inkscape:cy="54.335026"
     inkscape:window-width="1920"
     inkscape:window-height="988"
     inkscape:window-x="0"
     inkscape:window-y="0"
     inkscape:window-maximized="1"
     inkscape:current-layer="svg12"
     inkscape:document-rotation="0">
    <inkscape:grid
       type="xygrid"
       id="grid244"
       originx="9.9594769"
       originy="-31.57929"
       spacingy="1"
       spacingx="1"
       units="px"
       visible="false" />
  </sodipodi:namedview>
  <rect
     x="-12.194976"
     y="0.32004508"
     width="11.940627"
     height="11.936014"
     rx="1.6121091"
     shape-rendering="crispEdges"
     id="rect5-6-7-3"
     ry="1.7735944"
     transform="matrix(0.00523883,-0.99998628,0.999988,0.00489859,0,0)"
     style="fill:#80b3ff;fill-opacity:0.15;stroke:url(#linearGradient874);stroke-width:0.5291563;stroke-miterlimit:4;stroke-dasharray:none;stroke-opacity:1" />
  <rect
     x="-3.7202365"
     y="4.8851409"
     width="7.912631"
     height="7.912384"
     rx="1.612043"
     shape-rendering="crispEdges"
     id="rect5-6-6-6-6"
     style="fill:#80b3ff;fill-opacity:0.122146;stroke:url(#linearGradient15);stroke-width:0.39686725;stroke-opacity:1;stroke-miterlimit:4;stroke-dasharray:none"
     ry="1.7735215"
     transform="matrix(0.72612649,-0.68756114,0.6879775,0.72573202,0,0)" />
  <path
     style="fill:#ffffff;fill-opacity:1;stroke-width:0.235589"
     d="M 9.2715412,8.3720061 H 3.1862757 v 0.1763872 c 0,0.030161 0.00549,0.059089 0.010646,0.088191 h 6.0640131 c 0.00537,-0.0291 0.010638,-0.058035 0.010638,-0.088191 z"
     id="path303-3" />
  <path
     style="opacity:0.2;stroke-width:0.394449"
     d="M 2.5245253,4.8893663 V 7.55287 H 2.857453 V 5.2223036 h 0.9988159 c 0.1844563,0 0.3329362,0.1484917 0.3329362,0.3329377 V 7.55287 H 4.5221638 V 5.5552413 c 0,-0.3688944 -0.296983,-0.665875 -0.6658949,-0.665875 z"
     id="path309-6" />
  <path
     style="fill:#ffffff;stroke-width:0.394449"
     d="M 2.5245253,4.5564293 V 7.2199328 H 2.857453 V 4.8893663 h 0.9988159 c 0.1844563,0 0.3329362,0.1484911 0.3329362,0.3329373 V 7.2199328 H 4.5221638 V 5.2223036 c 0,-0.3688946 -0.296983,-0.6658743 -0.6658949,-0.6658743 z"
     id="path311-7" />
  <path
     style="opacity:0.2;stroke-width:0.394449"
     d="m 6.1868433,4.8893663 c -0.3688979,0 -0.6658629,0.2969806 -0.6658629,0.665875 v 1.3317526 c 0,0.3688971 0.2969647,0.6658761 0.6658629,0.6658761 h 0.6658624 v 0.6658757 h 0.332954 V 4.8893663 Z m 0,0.3329373 H 6.8527057 V 7.2199328 H 6.1868433 c -0.1844555,0 -0.3329269,-0.1484912 -0.3329269,-0.3329389 V 5.5552413 c 0,-0.184446 0.1484714,-0.3329377 0.3329269,-0.3329377 z"
     id="path313-5" />
  <path
     style="fill:#ffffff;stroke-width:0.394449"
     d="m 6.1868433,4.5564293 c -0.3688979,0 -0.6658629,0.2969797 -0.6658629,0.6658743 v 1.3317525 c 0,0.3688962 0.2969647,0.6658767 0.6658629,0.6658767 h 0.6658624 v 0.6658757 h 0.332954 V 4.5564293 Z m 0,0.332937 H 6.8527057 V 6.8869939 H 6.1868433 c -0.1844555,0 -0.3329269,-0.1484904 -0.3329269,-0.3329378 V 5.2223036 c 0,-0.1844462 0.1484714,-0.3329373 0.3329269,-0.3329373 z"
     id="path315-3" />
  <path
     style="opacity:0.2;stroke-width:0.394449"
     d="m 8.8503446,4.8893663 c -0.3689035,0 -0.6658634,0.2969806 -0.6658634,0.665875 v 1.3317526 c 0,0.3688971 0.2969599,0.6658761 0.6658634,0.6658761 H 9.5162341 V 8.2187457 H 9.8491623 V 4.8893663 Z m 0,0.3329373 H 9.5162341 V 7.2199328 H 8.8503446 c -0.1844561,0 -0.3329273,-0.1484912 -0.3329273,-0.3329389 V 5.5552413 c 0,-0.184446 0.1484712,-0.3329377 0.3329273,-0.3329377 z"
     id="path317-5" />
  <path
     style="fill:#ffffff;stroke-width:0.394449"
     d="m 8.8503446,4.5564293 c -0.3689035,0 -0.6658634,0.2969797 -0.6658634,0.6658743 v 1.3317525 c 0,0.3688962 0.2969599,0.6658767 0.6658634,0.6658767 H 9.5162341 V 7.8858085 H 9.8491623 V 4.5564293 Z m 0,0.332937 H 9.5162341 V 6.8869939 H 8.8503446 c -0.1844561,0 -0.3329273,-0.1484904 -0.3329273,-0.3329378 V 5.2223036 c 0,-0.1844462 0.1484712,-0.3329373 0.3329273,-0.3329373 z"
     id="path319-6" />
</svg>
