<?xml version="1.0" encoding="UTF-8" standalone="no"?>
<svg
   xmlns:dc="http://purl.org/dc/elements/1.1/"
   xmlns:cc="http://creativecommons.org/ns#"
   xmlns:rdf="http://www.w3.org/1999/02/22-rdf-syntax-ns#"
   xmlns:svg="http://www.w3.org/2000/svg"
   xmlns="http://www.w3.org/2000/svg"
   xmlns:xlink="http://www.w3.org/1999/xlink"
   xmlns:sodipodi="http://sodipodi.sourceforge.net/DTD/sodipodi-0.dtd"
   xmlns:inkscape="http://www.inkscape.org/namespaces/inkscape"
   width="47.285591"
   height="47.28569"
   version="1.1"
   viewBox="0 0 12.510734 12.51076"
   id="svg12"
   sodipodi:docname="com.usebottles.bottles-program.svg"
   inkscape:version="1.0.1 (3bc2e813f5, 2020-09-07)">
  <style
     id="style863"></style>
  <metadata
     id="metadata38">
    <rdf:RDF>
      <cc:Work
         rdf:about="">
        <dc:format>image/svg+xml</dc:format>
        <dc:type
           rdf:resource="http://purl.org/dc/dcmitype/StillImage" />
      </cc:Work>
    </rdf:RDF>
  </metadata>
  <defs
     id="defs16">
    <linearGradient
       id="linearGradient864"
       inkscape:collect="always">
      <stop
         style="stop-color:#9955ff;stop-opacity:0.80000001"
         offset="0"
         id="stop860" />
      <stop
         style="stop-color:#00ccff;stop-opacity:1"
         offset="1"
         id="stop862" />
    </linearGradient>
    <linearGradient
       id="c"
       y1="523.79999"
       x1="403.57001"
       y2="536.79999"
       x2="416.57001"
       gradientUnits="userSpaceOnUse"
       gradientTransform="matrix(0.34526714,0,0,0.34526706,-134.80427,-174.63325)">
      <stop
         stop-color="#292c2f"
         id="stop1568" />
      <stop
         offset="1"
         stop-opacity="0"
         id="stop1570" />
    </linearGradient>
    <linearGradient
       xlink:href="#b-2"
       id="linearGradient4189"
       x1="14.369"
       y1="22.521999"
       x2="26.521999"
       y2="22.521999"
       gradientUnits="userSpaceOnUse" />
    <linearGradient
       x1="36"
       gradientUnits="userSpaceOnUse"
       x2="14"
       y2="12"
       y1="44"
       id="b-2">
      <stop
         style="stop-color:#bfc9c9;stop-opacity:1"
         stop-color="#536161"
         id="stop1579" />
      <stop
         style="stop-color:#fbfbfb;stop-opacity:1"
         stop-color="#f4f5f5"
         offset="1"
         id="stop1581" />
    </linearGradient>
    <linearGradient
       xlink:href="#b-2"
       id="linearGradient4428"
       gradientUnits="userSpaceOnUse"
       x1="31.586"
       y1="36.345001"
       x2="1.2029999"
       y2="6.723" />
    <linearGradient
       xlink:href="#b-2"
       id="linearGradient4189-3"
       x1="14.369"
       y1="22.521999"
       x2="26.521999"
       y2="22.521999"
       gradientUnits="userSpaceOnUse"
       gradientTransform="translate(20.841982,61.553822)" />
    <linearGradient
       xlink:href="#b-2"
       id="linearGradient4428-5"
       gradientUnits="userSpaceOnUse"
       x1="31.586"
       y1="36.345001"
       x2="1.2029999"
       y2="6.723"
       gradientTransform="translate(20.841982,61.553822)" />
    <linearGradient
       xlink:href="#b-2"
       id="linearGradient4189-3-3"
       x1="14.369"
       y1="22.521999"
       x2="26.521999"
       y2="22.521999"
       gradientUnits="userSpaceOnUse"
       gradientTransform="translate(4.376802,4.4211693)" />
    <linearGradient
       xlink:href="#b-2"
       id="linearGradient4428-5-5"
       gradientUnits="userSpaceOnUse"
       x1="31.586"
       y1="36.345001"
       x2="1.2029999"
       y2="6.723"
       gradientTransform="translate(4.376802,4.4211693)" />
    <linearGradient
       inkscape:collect="always"
       xlink:href="#linearGradient864"
       id="linearGradient15"
       x1="-9.6850061"
       y1="45.161198"
       x2="11.98815"
       y2="21.735205"
       gradientUnits="userSpaceOnUse"
       gradientTransform="scale(0.26457813)" />
    <linearGradient
       id="linearGradient14"
       inkscape:collect="always">
      <stop
         style="stop-color:#9955ff;stop-opacity:0.80000001"
         offset="0"
         id="stop12" />
      <stop
         style="stop-color:#00ccff;stop-opacity:1"
         offset="1"
         id="stop13" />
    </linearGradient>
    <filter
       id="filter2917-3"
       x="-0.96181148"
       y="-0.66745996"
       width="2.9236228"
       height="2.3349199"
       color-interpolation-filters="sRGB">
      <feGaussianBlur
         stdDeviation="0.2871969"
         id="feGaussianBlur732-5" />
    </filter>
    <filter
       id="filter1"
       x="-0.96181148"
       y="-0.66745996"
       width="2.9236228"
       height="2.3349199"
       color-interpolation-filters="sRGB">
      <feGaussianBlur
         stdDeviation="0.2871969"
         id="feGaussianBlur1" />
    </filter>
    <filter
       id="filter2"
       x="-0.96181148"
       y="-0.66745996"
       width="2.9236228"
       height="2.3349199"
       color-interpolation-filters="sRGB">
      <feGaussianBlur
         stdDeviation="0.2871969"
         id="feGaussianBlur2" />
    </filter>
    <linearGradient
       inkscape:collect="always"
       xlink:href="#linearGradient14"
       id="linearGradient871"
       x1="-12.025727"
       y1="6.1170783"
       x2="-0.085100174"
       y2="6.1170783"
       gradientUnits="userSpaceOnUse" />
  </defs>
  <sodipodi:namedview
     id="namedview14"
     pagecolor="#000000"
     bordercolor="#666666"
     borderopacity="1.0"
     inkscape:showpageshadow="2"
     inkscape:pageopacity="0.0"
     inkscape:pagecheckerboard="0"
     inkscape:deskcolor="#d1d1d1"
     showgrid="false"
     inkscape:zoom="7.5172018"
     inkscape:cx="23.845543"
     inkscape:cy="54.335026"
     inkscape:window-width="1920"
     inkscape:window-height="988"
     inkscape:window-x="0"
     inkscape:window-y="0"
     inkscape:window-maximized="1"
     inkscape:current-layer="svg12"
     inkscape:document-rotation="0">
    <inkscape:grid
       type="xygrid"
       id="grid244"
       originx="9.9594769"
       originy="-31.57929"
       spacingy="1"
       spacingx="1"
       units="px"
       visible="false" />
  </sodipodi:namedview>
  <rect
     x="-12.194976"
     y="0.32004508"
     width="11.940627"
     height="11.936014"
     rx="1.6121091"
     shape-rendering="crispEdges"
     id="rect5-6-7-3"
     ry="1.7735944"
     transform="matrix(0.00523883,-0.99998628,0.999988,0.00489859,0,0)"
     style="fill:#80b3ff;fill-opacity:0.15;stroke:url(#linearGradient871);stroke-width:0.5291563;stroke-miterlimit:4;stroke-dasharray:none;stroke-opacity:1" />
  <rect
     x="-3.7202365"
     y="4.8851409"
     width="7.912631"
     height="7.912384"
     rx="1.612043"
     shape-rendering="crispEdges"
     id="rect5-6-6-6-6"
     style="fill:#80b3ff;fill-opacity:0.122146;stroke:url(#linearGradient15);stroke-width:0.39686725;stroke-opacity:1;stroke-miterlimit:4;stroke-dasharray:none"
     ry="1.7735215"
     transform="matrix(0.72612649,-0.68756114,0.6879775,0.72573202,0,0)" />
  <path
     id="path1"
     d="M 6.6368217,4.7259826 V 4.3325464 c 0.1039445,-0.02949 0.2009587,-0.0728 0.2910468,-0.126524 l 0.2806499,0.2807822 c 0.053704,0.05372 0.1403248,0.05372 0.1922954,0 L 7.6364233,4.2510924 c 0.055434,-0.052 0.055434,-0.138675 0.00172,-0.190679 L 7.3540401,3.7761654 c 0.05197,-0.09014 0.093551,-0.18546 0.1212678,-0.287751 H 7.875494 c 0.074494,0 0.1368601,-0.06065 0.1368601,-0.136924 v -0.3345 c 0,-0.07456 -0.060634,-0.136942 -0.1368601,-0.136942 H 7.482238 C 7.456251,2.7743194 7.416408,2.6720534 7.3661668,2.5801924 l 0.2719863,-0.273859 c 0.053704,-0.05373 0.053704,-0.140398 0,-0.192394 L 7.402547,1.8782134 c -0.053704,-0.05373 -0.1403248,-0.05373 -0.1922988,0 L 6.9503886,2.1382044 C 6.8551076,2.0775374 6.7494296,2.0307414 6.6385549,1.9995404 v -0.358787 c 0,-0.07453 -0.060634,-0.136931 -0.1368615,-0.136931 h -0.334354 c -0.074494,0 -0.1368578,0.06066 -0.1368578,0.136931 v 0.344923 c -0.1195382,0.02773 -0.2304128,0.0728 -0.3326241,0.13346 L 5.4570548,1.8782134 c -0.053707,-0.05373 -0.1403248,-0.05373 -0.1922988,0 L 5.02915,2.1139394 c -0.053704,0.05373 -0.053704,0.140395 0,0.192394 l 0.2373393,0.23746 C 5.2058553,2.6460554 5.159078,2.7604514 5.1296278,2.8800484 H 4.7918107 c -0.074494,0 -0.1368618,0.06067 -0.1368618,0.136942 v 0.332785 c 0,0.07452 0.060634,0.136923 0.1368618,0.136923 h 0.3464804 c 0.031184,0.116123 0.079691,0.223596 0.1420586,0.322384 L 5.02915,4.0604134 c -0.053704,0.05372 -0.053704,0.140391 0,0.192394 l 0.235606,0.2357122 c 0.053704,0.05376 0.1403249,0.05376 0.1922988,0 L 5.718648,4.2268244 c 0.097015,0.05372 0.2009587,0.09532 0.3118336,0.119589 v 0.3778542 c 0,0.07452 0.060634,0.136924 0.1368578,0.136924 h 0.3326242 c 0.076224,0.0017 0.1368581,-0.05894 0.1368581,-0.135209 z M 5.8416165,3.1660304 c 0,-0.334515 0.3039037,-0.461067 0.4630919,-0.461067 0.1591885,0 0.4486187,0.126552 0.4486187,0.461067 0,0.334536 -0.3183732,0.46511 -0.4486187,0.46511 -0.173658,0 -0.4630919,-0.130574 -0.4630919,-0.46511 z"
     style="fill:#ffe680;fill-opacity:1;stroke-width:0.107382" />
  <path
     id="path1-9"
     d="m 6.5217303,10.857321 v -0.393439 c 0.1039445,-0.02949 0.2009587,-0.0728 0.2910468,-0.126525 l 0.2806499,0.280784 c 0.053704,0.05372 0.1403248,0.05372 0.1922954,0 l 0.2356095,-0.235713 c 0.055434,-0.052 0.055434,-0.138677 0.00172,-0.190681 L 7.2389487,9.907499 c 0.05197,-0.09014 0.093551,-0.18546 0.1212678,-0.287751 h 0.4001861 c 0.074494,0 0.1368601,-0.06065 0.1368601,-0.136924 v -0.3345 c 0,-0.07456 -0.060634,-0.136942 -0.1368601,-0.136942 H 7.3671466 C 7.3411596,8.905653 7.3013166,8.803387 7.2510754,8.711526 L 7.5230617,8.437667 c 0.053704,-0.05373 0.053704,-0.140398 0,-0.192394 L 7.2874556,8.009547 c -0.053704,-0.05373 -0.1403248,-0.05373 -0.1922988,0 L 6.8352972,8.269538 C 6.7400162,8.208871 6.6343382,8.162075 6.5234635,8.130874 V 7.772087 c 0,-0.07453 -0.060634,-0.136931 -0.1368615,-0.136931 H 6.052248 c -0.074494,0 -0.1368578,0.06066 -0.1368578,0.136931 V 8.11701 C 5.795852,8.14474 5.6849774,8.18981 5.5827661,8.25047 L 5.3419634,8.009547 c -0.053707,-0.05373 -0.1403248,-0.05373 -0.1922988,0 l -0.235606,0.235726 c -0.053704,0.05373 -0.053704,0.140395 0,0.192394 l 0.2373393,0.23746 C 5.0907639,8.777389 5.0439866,8.891785 5.0145364,9.011382 H 4.6767193 c -0.074494,0 -0.1368618,0.06067 -0.1368618,0.136942 v 0.332785 c 0,0.07452 0.060634,0.136923 0.1368618,0.136923 h 0.3464804 c 0.031184,0.116123 0.079691,0.223596 0.1420586,0.322384 l -0.2511997,0.251331 c -0.053704,0.05372 -0.053704,0.140392 0,0.192396 l 0.235606,0.235713 c 0.053704,0.05376 0.1403249,0.05376 0.1922988,0 l 0.2615932,-0.261697 c 0.097015,0.05372 0.2009587,0.09532 0.3118336,0.11959 v 0.377857 c 0,0.07452 0.060634,0.136924 0.1368578,0.136924 h 0.3326242 c 0.076224,0.0017 0.1368581,-0.05894 0.1368581,-0.135209 z M 5.7265251,9.297364 c 0,-0.334515 0.3039037,-0.461067 0.4630919,-0.461067 0.1591885,0 0.4486187,0.126552 0.4486187,0.461067 0,0.334536 -0.3183732,0.46511 -0.4486187,0.46511 -0.173658,0 -0.4630919,-0.130574 -0.4630919,-0.46511 z"
     style="fill:#55ddff;fill-opacity:1;stroke-width:0.107382" />
  <path
     id="path1-9-0"
     d="m 3.4756422,7.6855544 v -0.393437 c 0.1039445,-0.02949 0.2009587,-0.0728 0.2910468,-0.126524 l 0.2806499,0.280782 c 0.053704,0.05372 0.1403248,0.05372 0.1922954,0 l 0.2356095,-0.235712 c 0.055434,-0.052 0.055434,-0.138675 0.00172,-0.190679 L 4.1928606,6.7357364 c 0.05197,-0.09014 0.093551,-0.18546 0.1212678,-0.287751 h 0.4001861 c 0.074494,0 0.1368601,-0.06065 0.1368601,-0.136924 v -0.3345 c 0,-0.07456 -0.060634,-0.136942 -0.1368601,-0.136942 h -0.393256 c -0.025987,-0.105729 -0.06583,-0.207995 -0.1160712,-0.299856 l 0.2719863,-0.273859 c 0.053704,-0.05373 0.053704,-0.140398 0,-0.192394 L 4.2413675,4.8377844 c -0.053704,-0.05373 -0.1403248,-0.05373 -0.1922988,0 L 3.7892091,5.0977754 C 3.6939281,5.0371084 3.5882501,4.9903124 3.4773754,4.9591114 v -0.358787 c 0,-0.07453 -0.060634,-0.136931 -0.1368615,-0.136931 h -0.334354 c -0.074494,0 -0.1368578,0.06066 -0.1368578,0.136931 v 0.344923 c -0.1195382,0.02773 -0.2304128,0.0728 -0.3326241,0.13346 L 2.2958753,4.8377844 c -0.053707,-0.05373 -0.1403248,-0.05373 -0.1922988,0 l -0.235606,0.235726 c -0.053704,0.05373 -0.053704,0.140395 0,0.192394 l 0.2373393,0.23746 c -0.060634,0.102262 -0.1074113,0.216658 -0.1368615,0.336255 H 1.6306312 c -0.074494,0 -0.1368618,0.06067 -0.1368618,0.136942 v 0.332785 c 0,0.07452 0.060634,0.136923 0.1368618,0.136923 h 0.3464804 c 0.031184,0.116123 0.079691,0.223596 0.1420586,0.322384 l -0.2511997,0.251331 c -0.053704,0.05372 -0.053704,0.140391 0,0.192394 l 0.235606,0.235712 c 0.053704,0.05376 0.1403249,0.05376 0.1922988,0 l 0.2615932,-0.261695 c 0.097015,0.05372 0.2009587,0.09532 0.3118336,0.119589 v 0.377855 c 0,0.07452 0.060634,0.136924 0.1368578,0.136924 h 0.3326242 c 0.076224,0.0017 0.1368581,-0.05894 0.1368581,-0.135209 z M 2.680437,6.1256014 c 0,-0.334515 0.3039037,-0.461067 0.4630919,-0.461067 0.1591885,0 0.4486187,0.126552 0.4486187,0.461067 0,0.334536 -0.3183732,0.46511 -0.4486187,0.46511 -0.173658,0 -0.4630919,-0.130574 -0.4630919,-0.46511 z"
     style="fill:#b380ff;fill-opacity:1;stroke-width:0.107382" />
  <path
     id="path1-9-0-0"
     d="m 9.6938809,7.8620356 v -0.393437 c 0.1039445,-0.02949 0.2009587,-0.0728 0.2910468,-0.126524 l 0.2806503,0.280782 c 0.0537,0.05372 0.140324,0.05372 0.192295,0 l 0.23561,-0.235712 c 0.05543,-0.052 0.05543,-0.138675 0.0017,-0.190679 l -0.284104,-0.284248 c 0.05197,-0.09014 0.09355,-0.18546 0.121268,-0.287751 h 0.400186 c 0.07449,0 0.13686,-0.06065 0.13686,-0.136924 v -0.3345 c 0,-0.07456 -0.06063,-0.136942 -0.13686,-0.136942 h -0.393256 c -0.02599,-0.105729 -0.06583,-0.207995 -0.116071,-0.299856 l 0.271986,-0.273859 c 0.0537,-0.05373 0.0537,-0.140398 0,-0.192394 l -0.235606,-0.235726 c -0.0537,-0.05373 -0.140325,-0.05373 -0.192299,0 l -0.259839,0.259991 C 9.9121668,5.2135896 9.8064888,5.1667936 9.6956141,5.1355926 v -0.358787 c 0,-0.07453 -0.060634,-0.136931 -0.1368615,-0.136931 h -0.334354 c -0.074494,0 -0.1368578,0.06066 -0.1368578,0.136931 v 0.344923 c -0.1195382,0.02773 -0.2304128,0.0728 -0.3326241,0.13346 L 8.514114,5.0142656 c -0.053707,-0.05373 -0.1403248,-0.05373 -0.1922988,0 l -0.235606,0.235726 c -0.053704,0.05373 -0.053704,0.140395 0,0.192394 l 0.2373393,0.23746 C 8.2629145,5.7821076 8.2161372,5.8965036 8.186687,6.0161006 H 7.8488699 c -0.074494,0 -0.1368618,0.06067 -0.1368618,0.136942 v 0.332785 c 0,0.07452 0.060634,0.136923 0.1368618,0.136923 h 0.3464804 c 0.031184,0.116123 0.079691,0.223596 0.1420586,0.322384 l -0.2511997,0.251331 c -0.053704,0.05372 -0.053704,0.140391 0,0.192394 l 0.235606,0.235712 c 0.053704,0.05376 0.1403249,0.05376 0.1922988,0 l 0.2615932,-0.261695 c 0.097015,0.05372 0.2009587,0.09532 0.3118336,0.119589 v 0.377855 c 0,0.07452 0.060634,0.136924 0.1368578,0.136924 h 0.3326242 c 0.076224,0.0017 0.1368581,-0.05894 0.1368581,-0.135209 z M 8.8986757,6.3020826 c 0,-0.334515 0.3039037,-0.461067 0.4630919,-0.461067 0.1591885,0 0.4486187,0.126552 0.4486187,0.461067 0,0.334536 -0.3183732,0.46511 -0.4486187,0.46511 -0.173658,0 -0.4630919,-0.130574 -0.4630919,-0.46511 z"
     style="fill:#e580ff;fill-opacity:1;stroke-width:0.107382" />
</svg>
