<?xml version="1.0" encoding="UTF-8" standalone="no"?>
<svg
   xmlns:dc="http://purl.org/dc/elements/1.1/"
   xmlns:cc="http://creativecommons.org/ns#"
   xmlns:rdf="http://www.w3.org/1999/02/22-rdf-syntax-ns#"
   xmlns:svg="http://www.w3.org/2000/svg"
   xmlns="http://www.w3.org/2000/svg"
   xmlns:xlink="http://www.w3.org/1999/xlink"
   xmlns:sodipodi="http://sodipodi.sourceforge.net/DTD/sodipodi-0.dtd"
   xmlns:inkscape="http://www.inkscape.org/namespaces/inkscape"
   width="47.285591"
   height="47.28569"
   version="1.1"
   viewBox="0 0 12.510734 12.51076"
   id="svg12"
   sodipodi:docname="com.raggesilver.Proton.svg"
   inkscape:version="1.0.1 (3bc2e813f5, 2020-09-07)">
  <style
     id="style860"></style>
  <metadata
     id="metadata35">
    <rdf:RDF>
      <cc:Work
         rdf:about="">
        <dc:format>image/svg+xml</dc:format>
        <dc:type
           rdf:resource="http://purl.org/dc/dcmitype/StillImage" />
      </cc:Work>
    </rdf:RDF>
  </metadata>
  <defs
     id="defs16">
    <linearGradient
       id="c"
       y1="523.79999"
       x1="403.57001"
       y2="536.79999"
       x2="416.57001"
       gradientUnits="userSpaceOnUse"
       gradientTransform="matrix(0.34526714,0,0,0.34526706,-134.80427,-174.63325)">
      <stop
         stop-color="#292c2f"
         id="stop1568" />
      <stop
         offset="1"
         stop-opacity="0"
         id="stop1570" />
    </linearGradient>
    <linearGradient
       xlink:href="#b-2"
       id="linearGradient4189"
       x1="14.369"
       y1="22.521999"
       x2="26.521999"
       y2="22.521999"
       gradientUnits="userSpaceOnUse" />
    <linearGradient
       x1="36"
       gradientUnits="userSpaceOnUse"
       x2="14"
       y2="12"
       y1="44"
       id="b-2">
      <stop
         style="stop-color:#bfc9c9;stop-opacity:1"
         stop-color="#536161"
         id="stop1579" />
      <stop
         style="stop-color:#fbfbfb;stop-opacity:1"
         stop-color="#f4f5f5"
         offset="1"
         id="stop1581" />
    </linearGradient>
    <linearGradient
       xlink:href="#b-2"
       id="linearGradient4428"
       gradientUnits="userSpaceOnUse"
       x1="31.586"
       y1="36.345001"
       x2="1.2029999"
       y2="6.723" />
    <linearGradient
       xlink:href="#b-2"
       id="linearGradient4189-3"
       x1="14.369"
       y1="22.521999"
       x2="26.521999"
       y2="22.521999"
       gradientUnits="userSpaceOnUse"
       gradientTransform="translate(20.841982,61.553822)" />
    <linearGradient
       xlink:href="#b-2"
       id="linearGradient4428-5"
       gradientUnits="userSpaceOnUse"
       x1="31.586"
       y1="36.345001"
       x2="1.2029999"
       y2="6.723"
       gradientTransform="translate(20.841982,61.553822)" />
    <linearGradient
       xlink:href="#b-2"
       id="linearGradient4189-3-3"
       x1="14.369"
       y1="22.521999"
       x2="26.521999"
       y2="22.521999"
       gradientUnits="userSpaceOnUse"
       gradientTransform="translate(4.376802,4.4211693)" />
    <linearGradient
       xlink:href="#b-2"
       id="linearGradient4428-5-5"
       gradientUnits="userSpaceOnUse"
       x1="31.586"
       y1="36.345001"
       x2="1.2029999"
       y2="6.723"
       gradientTransform="translate(4.376802,4.4211693)" />
    <linearGradient
       inkscape:collect="always"
       xlink:href="#linearGradient14"
       id="linearGradient15"
       x1="-9.6850061"
       y1="45.161198"
       x2="11.98815"
       y2="21.735205"
       gradientUnits="userSpaceOnUse"
       gradientTransform="scale(0.26457813)" />
    <linearGradient
       id="linearGradient14"
       inkscape:collect="always">
      <stop
         style="stop-color:#9955ff;stop-opacity:0.45197046;"
         offset="0"
         id="stop12" />
      <stop
         style="stop-color:#00ccff;stop-opacity:1"
         offset="1"
         id="stop13" />
    </linearGradient>
    <filter
       id="filter2917-3"
       x="-0.96181148"
       y="-0.66745996"
       width="2.9236228"
       height="2.3349199"
       color-interpolation-filters="sRGB">
      <feGaussianBlur
         stdDeviation="0.2871969"
         id="feGaussianBlur732-5" />
    </filter>
    <filter
       id="filter1"
       x="-0.96181148"
       y="-0.66745996"
       width="2.9236228"
       height="2.3349199"
       color-interpolation-filters="sRGB">
      <feGaussianBlur
         stdDeviation="0.2871969"
         id="feGaussianBlur1" />
    </filter>
    <filter
       id="filter2"
       x="-0.96181148"
       y="-0.66745996"
       width="2.9236228"
       height="2.3349199"
       color-interpolation-filters="sRGB">
      <feGaussianBlur
         stdDeviation="0.2871969"
         id="feGaussianBlur2" />
    </filter>
    <linearGradient
       inkscape:collect="always"
       xlink:href="#linearGradient14"
       id="linearGradient868"
       x1="-12.025727"
       y1="6.1170783"
       x2="-0.085100174"
       y2="6.1170783"
       gradientUnits="userSpaceOnUse" />
  </defs>
  <sodipodi:namedview
     id="namedview14"
     pagecolor="#000000"
     bordercolor="#666666"
     borderopacity="1.0"
     inkscape:showpageshadow="2"
     inkscape:pageopacity="0.0"
     inkscape:pagecheckerboard="0"
     inkscape:deskcolor="#d1d1d1"
     showgrid="false"
     inkscape:zoom="6.2611141"
     inkscape:cx="23.845543"
     inkscape:cy="54.335026"
     inkscape:window-width="1920"
     inkscape:window-height="988"
     inkscape:window-x="0"
     inkscape:window-y="0"
     inkscape:window-maximized="1"
     inkscape:current-layer="svg12"
     inkscape:document-rotation="0">
    <inkscape:grid
       type="xygrid"
       id="grid244"
       originx="9.9594769"
       originy="-31.57929"
       spacingy="1"
       spacingx="1"
       units="px"
       visible="false" />
  </sodipodi:namedview>
  <rect
     x="-12.194976"
     y="0.32004508"
     width="11.940627"
     height="11.936014"
     rx="1.6121091"
     shape-rendering="crispEdges"
     id="rect5-6-7-3"
     ry="1.7735944"
     transform="matrix(0.00523883,-0.99998628,0.999988,0.00489859,0,0)"
     style="fill:#80b3ff;fill-opacity:0.15;stroke:url(#linearGradient868);stroke-width:0.5291563;stroke-miterlimit:4;stroke-dasharray:none;stroke-opacity:1" />
  <rect
     x="-3.7202365"
     y="4.8851409"
     width="7.912631"
     height="7.912384"
     rx="1.612043"
     shape-rendering="crispEdges"
     id="rect5-6-6-6-6"
     style="fill:#80b3ff;fill-opacity:0.122146;stroke:url(#linearGradient15);stroke-width:0.39686725;stroke-opacity:1;stroke-miterlimit:4;stroke-dasharray:none"
     ry="1.7735215"
     transform="matrix(0.72612649,-0.68756114,0.6879775,0.72573202,0,0)" />
  <path
     d="M 6.2725958,2.6835763 C 6.1834933,2.6847963 6.09794,2.7058933 6.0172204,2.7453593 5.9221113,2.7944753 5.8356371,2.8589447 5.761733,2.9358869 5.6674532,3.0332959 5.5850862,3.140933 5.515538,3.2551771 5.452794,3.3584983 5.3967583,3.4643002 5.3459027,3.5735439 5.4900538,3.6336189 5.6310051,3.7038975 5.7667409,3.7810602 5.9398849,3.8783392 6.1096158,3.9832719 6.2725958,4.097648 6.4355166,3.9832716 6.6055316,3.8783384 6.7792682,3.7810599 6.915129,3.7038943 7.0553153,3.6336213 7.199473,3.5735436 7.1494527,3.4643014 7.0926879,3.3585 7.0297303,3.2551787 6.9601408,3.1409346 6.8778683,3.0332975 6.7836423,2.9358885 6.7097501,2.8589463 6.6232994,2.7946478 6.5281544,2.7453635 6.4483534,2.7054782 6.3618971,2.6844992 6.2725958,2.6835763 Z M 4.2712175,3.5482874 C 4.166768,3.5446974 4.061631,3.5613824 3.9614897,3.5947834 3.8791167,3.6237224 3.8035765,3.6692144 3.7407141,3.7295769 3.6805201,3.7920999 3.6346705,3.867455 3.6058612,3.9495226 c -0.032538,0.099975 -0.04919,0.2048562 -0.046525,0.3091052 0,0.09913 0.010551,0.1963242 0.026733,0.2936618 0.021281,0.1119288 0.04919,0.2228575 0.084939,0.3304699 0.014397,0.042027 0.029873,0.084427 0.046168,0.1269717 C 3.865533,4.9528762 4.016779,4.9030215 4.1695416,4.8597551 4.3579586,4.8068891 4.5489535,4.7632501 4.7423666,4.7285333 4.7770966,4.5363462 4.8214266,4.3449023 4.874025,4.1570256 4.916222,4.0046046 4.967451,3.8539995 5.0241028,3.7056555 4.9818468,3.6889885 4.9394358,3.6747055 4.8958995,3.6597015 4.7891093,3.6241615 4.6780518,3.5961355 4.5650085,3.5751915 4.4683405,3.5575065 4.3705582,3.5485795 4.2713182,3.5485795 Z m 4.0028218,0 c -0.098488,0 -0.1959731,0.01024 -0.2935891,0.026608 -0.1121425,0.020903 -0.2232947,0.04875 -0.3311757,0.084577 -0.042135,0.015719 -0.085554,0.03001 -0.1281915,0.0459 0.057906,0.1483239 0.1079935,0.2989179 0.1503327,0.4514281 0.053693,0.1878655 0.097611,0.3792726 0.1323935,0.5715201 0.1927078,0.03429 0.3845503,0.07861 0.5729194,0.1311444 0.1527937,0.043451 0.3032022,0.093166 0.452523,0.149963 C 8.8447276,4.967103 8.8605476,4.924722 8.8748246,4.8824564 8.9105006,4.7748303 8.9393536,4.663956 8.9598116,4.551974 8.9776656,4.454717 8.9865426,4.3574824 8.9865426,4.2583113 8.9895072,4.1540636 8.9731,4.0491891 8.9401369,3.9492144 8.912282,3.8671428 8.8663396,3.791811 8.8061069,3.7292633 8.7424086,3.6689364 8.6677056,3.6232177 8.5844494,3.5944889 8.4843074,3.561926 8.3799998,3.5456737 8.2746318,3.5481741 Z M 5.2515817,3.8013083 c -0.052925,0.1378782 -0.099359,0.2793926 -0.1391083,0.4216401 -0.04356,0.1533018 -0.079967,0.306473 -0.1121363,0.4614359 0.1977156,-0.02881 0.3964212,-0.05203 0.5949902,-0.06525 C 5.7065332,4.5219743 5.8210579,4.4286261 5.9382319,4.3390094 5.9771109,4.3077524 6.0163729,4.2789434 6.056223,4.2491084 5.9239189,4.1576736 5.7854273,4.073903 5.6454185,3.9951865 5.5181159,3.9223865 5.3873704,3.8570225 5.2515817,3.8013083 Z m 2.0422832,0 c -0.1349418,0.055601 -0.2666116,0.1210782 -0.3939791,0.1938782 -0.139932,0.078714 -0.277511,0.1624871 -0.4100642,0.2539197 0.03983,0.030063 0.080083,0.059289 0.1188868,0.0899 0.1162492,0.08961 0.2310583,0.1820611 0.3414638,0.2793926 0.1993692,0.01429 0.3970851,0.037866 0.5948956,0.065993 C 7.5130641,4.5294247 7.4761652,4.3762536 7.4337375,4.2229519 7.3943853,4.0807044 7.3472573,3.9391901 7.2938649,3.8013117 Z M 6.2725958,4.394092 c -0.061942,0.046499 -0.1229996,0.092171 -0.184049,0.1394071 -0.025544,0.02 -0.053689,0.041251 -0.079798,0.0629 0.08739,-0.00363 0.1756514,-0.00599 0.2638502,-0.00471 0.088368,-0.00123 0.1766822,0.00123 0.2648518,0.0054 -0.025486,-0.022065 -0.0534,-0.043325 -0.080651,-0.063603 -0.060944,-0.046956 -0.1220581,-0.093007 -0.1842039,-0.139625 z m 0,0.4453506 C 6.0809012,4.8382657 5.8890236,4.8453768 5.6971513,4.8570025 5.5486322,4.9832413 5.4060569,5.1161187 5.2694497,5.2541699 5.1309937,5.3905105 4.997765,5.5327168 4.871334,5.6806431 4.859244,5.8720925 4.853082,6.063535 4.853082,6.254966 c 0,0.1921869 0.00597,0.3834335 0.019021,0.5748416 0.1256311,0.1481462 0.2588423,0.2895598 0.3972987,0.4267173 0.1366242,0.1371574 0.2782806,0.2700342 0.4277304,0.3953578 0.1910129,0.01351 0.3829267,0.02 0.5754328,0.018807 0.1927554,0.00123 0.3846628,-0.00599 0.5755513,-0.0178 C 6.9966186,7.527532 7.1392174,7.3946553 7.2766724,7.2565093 7.4141681,7.1193584 7.547563,6.9771764 7.6741186,6.8289696 7.6861489,6.6384854 7.6939126,6.4471495 7.6920764,6.2549559 7.6925029,6.0635198 7.6861536,5.8713261 7.6731111,5.680699 7.547468,5.5327362 7.4141737,5.3905486 7.2765952,5.2541586 7.1392116,5.1162039 6.997395,4.9841062 6.8489171,4.8579985 6.6571343,4.8444848 6.4652559,4.8391864 6.272471,4.8397822 Z M 5.2804137,4.8968896 C 5.1717862,4.9082576 5.0639647,4.9235026 4.9562496,4.9424936 4.9383526,5.0491122 4.9238326,5.1574572 4.9106746,5.265837 4.9709296,5.203251 5.0319792,5.1414368 5.0931648,5.0796449 5.1543208,5.0187759 5.2170358,4.9578402 5.2798574,4.8975655 Z m 1.9854722,0 c 0.062677,0.060868 0.1247064,0.1211615 0.1856078,0.1820661 0.062034,0.061687 0.1224303,0.1235909 0.1826027,0.1861158 C 7.6228952,5.1567509 7.6074861,5.048477 7.5896476,4.9417987 7.4819504,4.9238801 7.374093,4.9091741 7.2655662,4.8961957 Z M 4.6980117,4.9866031 C 4.542683,5.0183901 4.3885038,5.0553251 4.2354686,5.0976616 4.0929108,5.1370086 3.9512841,5.1838286 3.8129115,5.2364446 3.8688587,5.3720603 3.9343402,5.5021987 4.0074204,5.6292538 4.0863162,5.7691497 4.1702407,5.9061043 4.2618891,6.0383505 4.2920574,5.9987075 4.3213406,5.9596545 4.3519978,5.9206602 4.4419043,5.8037723 4.5351341,5.68926 4.6328868,5.5793618 4.6472297,5.3813707 4.669334,5.1832004 4.6980117,4.9866031 Z m 3.1489783,0 c 0.030171,0.1965981 0.052329,0.3947683 0.066376,0.5936822 0.097455,0.1098744 0.1910248,0.2243924 0.2808711,0.3411434 0.030169,0.039233 0.060194,0.077873 0.08919,0.1178396 C 8.3750648,5.9070267 8.4590723,5.7699825 8.5379904,5.6292533 8.6109534,5.5021982 8.6773545,5.3720598 8.7333366,5.2364442 8.5940909,5.1834609 8.4533066,5.1374864 8.3096588,5.0976604 8.1568655,5.0555134 8.0023601,5.0180508 7.84699,4.9866031 Z M 3.5844606,5.330424 C 3.4749669,5.3815624 3.3689294,5.4370902 3.2655701,5.5005728 3.150767,5.5692431 3.0430703,5.6522564 2.9455014,5.7452416 c -0.078001,0.07372 -0.1416565,0.1602317 -0.191878,0.254837 -0.039298,0.080543 -0.059272,0.1670771 -0.061006,0.2549612 0.00125,0.088879 0.022047,0.1751204 0.061006,0.2550216 0.050256,0.094612 0.1138782,0.1811262 0.191878,0.2554793 0.097568,0.093128 0.2052656,0.1761377 0.3200687,0.2446691 0.1033593,0.06273 0.2093968,0.1194292 0.3188905,0.1692327 C 3.6448938,7.0356638 3.7154017,6.8959647 3.7924826,6.7605397 3.890264,6.5869443 3.9954551,6.4185384 4.1100087,6.2550389 3.9954551,6.0925339 3.890264,5.9241112 3.7924826,5.7505095 3.7154017,5.6149655 3.6448938,5.4751171 3.5844606,5.330424 Z m 5.3761588,0 C 8.9012944,5.475118 8.8308922,5.6149664 8.7526616,5.7505105 8.6552296,5.9241121 8.5499924,6.0925345 8.4354249,6.2558382 8.5499924,6.4176167 8.655229,6.5869449 8.7526616,6.7605406 8.8308918,6.8959656 8.9013233,7.0356647 8.9606194,7.1794425 9.0701778,7.1296724 9.1773225,7.0729361 9.2807291,7.0102098 9.3951426,6.9416748 9.5023819,6.8586697 9.5998686,6.7655407 9.6778832,6.6911828 9.7423482,6.6046719 9.7917167,6.5100614 9.8311318,6.4301592 9.8518919,6.3439187 9.8536836,6.2550398 9.8513543,6.1671548 9.8302179,6.0806234 9.7917167,6.0000786 9.7424662,5.9054723 9.6778789,5.818957 9.5998686,5.7452406 9.5023819,5.6522554 9.3951426,5.5692465 9.2807291,5.5005721 9.1773225,5.4370893 9.0701778,5.3813695 8.9606194,5.330424 Z M 6.2725958,5.6394446 c 0.1647169,0 0.3209701,0.06535 0.4371543,0.1795134 0.1144356,0.1160426 0.1799416,0.2726544 0.1799416,0.4360818 0,0.1642979 -0.065505,0.3207429 -0.1799416,0.4361478 -0.1161842,0.115072 -0.2724374,0.1803411 -0.4371543,0.1803411 -0.1638277,0 -0.3206502,-0.065266 -0.4369587,-0.1803411 -0.1147852,-0.1154049 -0.179936,-0.2718499 -0.179936,-0.4361478 0,-0.1634274 0.065154,-0.3200392 0.179936,-0.4360818 0.1163085,-0.1141606 0.273131,-0.1795134 0.4369587,-0.1795134 z m 0,0.2464902 c -0.098493,0 -0.1924708,0.039641 -0.2613845,0.1083579 -0.069521,0.06858 -0.1086812,0.162576 -0.1086812,0.2607471 0,0.099148 0.039233,0.1922054 0.1086812,0.2616528 0.068919,0.068435 0.1628914,0.1083808 0.2613845,0.1083808 0.099317,0 0.1927792,-0.03947 0.2622677,-0.1083808 0.068845,-0.069448 0.1086394,-0.1625049 0.1086394,-0.2616528 0,-0.098169 -0.039355,-0.1921689 -0.1086394,-0.2607471 C 6.4653758,5.9256581 6.3719131,5.8859348 6.2725958,5.8859348 Z m -1.6626403,0.105797 c -0.02134,0.02542 -0.042261,0.053394 -0.062892,0.080421 -0.046883,0.060008 -0.093298,0.1220781 -0.1401212,0.1828821 0.046585,0.061781 0.092642,0.1235793 0.1401212,0.1837581 0.020088,0.026609 0.041005,0.053933 0.062892,0.080543 -0.00359,-0.08826 -0.00533,-0.1763467 -0.00533,-0.2643025 0,-0.087886 0.00174,-0.17534 0.00533,-0.2633069 z m 3.3255713,0 c 0.00409,0.087068 0.00533,0.175423 0.00533,0.2633071 0,0.087952 0,0.1760429 -0.00533,0.2643025 0.020981,-0.025591 0.042196,-0.053581 0.06371,-0.080543 C 8.0458188,6.3786264 8.0923898,6.316822 8.1382264,6.2550415 8.0920574,6.1942385 8.0458734,6.1321662 7.9992369,6.0721606 7.9778999,6.0456626 7.9566249,6.0179896 7.9355269,5.9917366 Z m -5.490031,0.2625808 v 0.00363 z M 4.2618891,6.4718005 C 4.1702412,6.6037548 4.0863149,6.7410016 4.0074204,6.8808139 3.9343401,7.0085835 3.8689292,7.1389901 3.8129115,7.2737065 3.9512841,7.3268685 4.0929108,7.3735872 4.2354686,7.4133823 4.3891382,7.4555304 4.542683,7.4930231 4.6980117,7.5241805 4.6682009,7.3269505 4.646095,7.129638 4.6321504,6.9307895 4.5342143,6.8206226 4.4419025,6.7063787 4.3519968,6.5903897 4.3208229,6.5511047 4.2915808,6.5114869 4.2618891,6.4718005 Z m 4.0215441,0 c -0.02904,0.039293 -0.059331,0.079613 -0.089195,0.1185892 C 8.103473,6.7072246 8.0108232,6.8206226 7.9133669,6.9315334 7.8989656,7.129638 7.8754372,7.3269505 7.8479077,7.5241805 8.0032486,7.4923926 8.1568649,7.4557536 8.3096582,7.4133823 8.4533059,7.3739174 8.5940902,7.3269552 8.7333354,7.2737065 8.6775079,7.1389901 8.6109529,7.0085835 8.5379902,6.8808139 8.4590721,6.7410016 8.3750642,6.6037548 8.2834332,6.4718005 Z M 4.9113024,7.2457103 c 0.011198,0.1083204 0.026735,0.2158615 0.044452,0.3232721 0.1077566,0.017737 0.2164793,0.032324 0.3241822,0.044467 C 5.2180607,7.5533764 5.1552393,7.4933256 5.094202,7.4325155 5.032939,7.3704512 4.9718663,7.3087229 4.9116641,7.2460975 Z m 2.722794,0 C 7.5739236,7.3082339 7.5135327,7.3701401 7.4514937,7.4321166 7.3905918,7.4930202 7.3276642,7.5530284 7.2658859,7.6138917 7.373476,7.6018688 7.4822937,7.5872798 7.5899851,7.5682883 7.6075866,7.4607768 7.6219899,7.3533248 7.6344333,7.2449441 Z M 3.7170489,7.5014691 c -0.017011,0.042027 -0.031647,0.084417 -0.045993,0.1269602 -0.035561,0.1074756 -0.063697,0.2184933 -0.084906,0.3302017 -0.017484,0.09731 -0.026735,0.1947642 -0.026735,0.2930312 -0.00359,0.1048803 0.013455,0.2100342 0.046401,0.3090981 0.029041,0.082703 0.074695,0.1581066 0.1348826,0.2208691 0.062779,0.060073 0.1384087,0.1057968 0.2207877,0.1336869 0.1001174,0.033519 0.2052663,0.050009 0.3096685,0.04697 0.099316,0 0.1969982,-0.01054 0.2936665,-0.026609 0.1130615,-0.021197 0.2240777,-0.049773 0.3309924,-0.085387 0.043561,-0.01458 0.085765,-0.03001 0.1281914,-0.04577 C 4.9672967,8.6556275 4.9162985,8.5058554 4.8739651,8.3532029 4.8210412,8.1653377 4.7771906,7.9739184 4.7422773,7.7818444 4.5488703,7.7475552 4.3577923,7.7029494 4.1694108,7.6496219 4.0166957,7.6075934 3.86545,7.5575344 3.7170375,7.5007255 Z m 5.1122027,0 C 8.6799308,7.5581421 8.5295223,7.6080347 8.3767286,7.6502411 8.1883595,7.7037011 7.996517,7.7479591 7.8038092,7.7824873 7.7693162,7.9745321 7.7249902,8.1659502 7.6714157,8.3538275 7.6292797,8.5066001 7.5789377,8.6562765 7.521083,8.8052626 c 0.042429,0.015837 0.085843,0.031253 0.1281915,0.045775 0.107881,0.035537 0.2190332,0.064185 0.3311757,0.085423 0.097617,0.01756 0.1951016,0.02661 0.2935891,0.02661 0.1054036,0.00363 0.2096519,-0.013096 0.3097701,-0.046906 0.083276,-0.027737 0.1580729,-0.073636 0.2217716,-0.1337104 0.060187,-0.062712 0.1060427,-0.1381159 0.1339922,-0.220845 0.032473,-0.099094 0.049014,-0.2042361 0.046583,-0.309134 0,-0.0982 -0.010007,-0.1957051 -0.026732,-0.293007 C 8.939348,7.847791 8.910237,7.7367916 8.8745072,7.62928 8.8601652,7.5869531 8.8444008,7.5445446 8.8289323,7.5022964 Z M 5.0003371,7.8257536 c 0.032005,0.1558804 0.068623,0.309009 0.1121363,0.4614359 0.03941,0.1430751 0.086475,0.2843942 0.1391083,0.4223903 C 5.3873704,8.6537978 5.5181159,8.5877514 5.6454185,8.5158688 5.7854273,8.4368668 5.9230004,8.3531667 6.0553048,8.2617349 6.015775,8.2316751 5.9763929,8.2023801 5.9366669,8.1720321 5.8201509,8.0823701 5.7056322,7.9890686 5.5953273,7.8917312 5.3967583,7.8772059 5.1980527,7.8550605 5.0003371,7.8257536 Z m 2.5447307,0 c -0.1978105,0.030006 -0.3955264,0.051849 -0.594226,0.06598 -0.1110751,0.097336 -0.2258842,0.1906389 -0.3421334,0.280298 -0.039233,0.030951 -0.07886,0.060077 -0.1188868,0.089703 0.1325532,0.091431 0.2701322,0.1751305 0.4100642,0.2541333 0.1273675,0.071883 0.2590373,0.1378773 0.3939791,0.1937105 C 7.3473212,8.5715815 7.3940773,8.4302625 7.4337375,8.2871875 7.4759939,8.1347606 7.5135313,7.9816319 7.5450678,7.8257536 Z M 6.007827,7.9137356 c 0.026731,0.022317 0.054112,0.042447 0.080722,0.063533 0.061053,0.046793 0.122111,0.093057 0.1840491,0.1387768 0.062151,-0.045959 0.1232603,-0.09143 0.1842032,-0.1387768 0.026732,-0.020902 0.054112,-0.040957 0.080649,-0.063533 -0.088169,0.00471 -0.1764812,0.00599 -0.2648517,0.00599 -0.088202,0 -0.1764632,-0.00123 -0.2647716,-0.00599 z M 6.2725958,8.4132481 C 6.1096158,8.5274931 5.9398849,8.6326411 5.7667409,8.729997 5.6310051,8.806866 5.4900538,8.8774233 5.3459027,8.9365838 5.3969267,9.0458341 5.4527934,9.1524817 5.515538,9.25588 c 0.069547,0.1142441 0.1519154,0.2216602 0.246195,0.3189982 0.073902,0.077162 0.1603784,0.1415151 0.2554874,0.1905265 0.080722,0.03929 0.1662755,0.06024 0.2553754,0.061781 0.089305,-0.00176 0.1757576,-0.02322 0.2555586,-0.061781 C 6.6232994,9.7165887 6.7097501,9.6520418 6.7836423,9.5748786 6.8778684,9.4775406 6.9601408,9.3701245 7.0297303,9.2558803 7.0926875,9.1524821 7.1495414,9.0458343 7.199473,8.9365842 7.0553153,8.8774092 6.915129,8.80687 6.7792682,8.7299992 6.6055316,8.6326431 6.4355166,8.5274954 6.2725958,8.413251 Z"
     fill-rule="evenodd"
     id="path1-3"
     style="isolation:isolate;fill:#d1b3ff;fill-opacity:1;stroke-width:0.0807849" />
</svg>
