<?xml version="1.0" encoding="UTF-8" standalone="no"?>
<svg
   width="47.285591"
   height="47.28569"
   version="1.1"
   id="svg63"
   sodipodi:docname="crunchyroll.svg"
   inkscape:version="1.4.2 (unknown)"
   xmlns:inkscape="http://www.inkscape.org/namespaces/inkscape"
   xmlns:sodipodi="http://sodipodi.sourceforge.net/DTD/sodipodi-0.dtd"
   xmlns:xlink="http://www.w3.org/1999/xlink"
   xmlns="http://www.w3.org/2000/svg"
   xmlns:svg="http://www.w3.org/2000/svg"
   xmlns:rdf="http://www.w3.org/1999/02/22-rdf-syntax-ns#"
   xmlns:cc="http://creativecommons.org/ns#"
   xmlns:dc="http://purl.org/dc/elements/1.1/">
  <style
     id="style1006" />
  <metadata
     id="metadata181">
    <rdf:RDF>
      <cc:Work
         rdf:about="">
        <dc:format>image/svg+xml</dc:format>
        <dc:type
           rdf:resource="http://purl.org/dc/dcmitype/StillImage" />
      </cc:Work>
    </rdf:RDF>
  </metadata>
  <sodipodi:namedview
     id="namedview65"
     pagecolor="#000000"
     bordercolor="#666666"
     borderopacity="1.0"
     inkscape:showpageshadow="2"
     inkscape:pageopacity="0.0"
     inkscape:pagecheckerboard="0"
     inkscape:deskcolor="#d1d1d1"
     showgrid="false"
     inkscape:zoom="15.15916"
     inkscape:cx="16.557646"
     inkscape:cy="24.836469"
     inkscape:window-width="1920"
     inkscape:window-height="1000"
     inkscape:window-x="0"
     inkscape:window-y="0"
     inkscape:window-maximized="1"
     inkscape:current-layer="svg63"
     inkscape:document-rotation="0">
    <inkscape:grid
       type="xygrid"
       id="grid468"
       originx="30.400758"
       originy="-11.147109"
       spacingy="1"
       spacingx="1"
       units="px"
       visible="false" />
  </sodipodi:namedview>
  <defs
     id="defs27">
    <linearGradient
       inkscape:collect="always"
       id="linearGradient1013">
      <stop
         style="stop-color:#ffb380;stop-opacity:0.42352942"
         offset="0"
         id="stop1009" />
      <stop
         style="stop-color:#ff9955;stop-opacity:1"
         offset="1"
         id="stop1011" />
    </linearGradient>
    <linearGradient
       id="a"
       y1="543.79999"
       y2="503.79999"
       x2="0"
       gradientUnits="userSpaceOnUse"
       gradientTransform="matrix(1.125,0,0,1,-51.07,0)">
      <stop
         stop-color="#c6cdd1"
         id="stop2" />
      <stop
         offset="1"
         stop-color="#e0e5e7"
         id="stop4" />
    </linearGradient>
    <linearGradient
       id="b"
       y1="543.79999"
       y2="503.79999"
       x2="0"
       gradientUnits="userSpaceOnUse"
       gradientTransform="matrix(1.0413094,0,0,1.0631247,-447.50457,-582.08122)">
      <stop
         stop-color="#1d1e1e"
         id="stop7" />
      <stop
         offset="1"
         stop-color="#44484c"
         id="stop9" />
    </linearGradient>
    <linearGradient
       xlink:href="#a"
       id="c"
       y1="506.79999"
       y2="504.79999"
       x2="0"
       gradientUnits="userSpaceOnUse"
       gradientTransform="matrix(1.0284537,0,0,1.0499997,-442.30191,-575.2578)" />
    <linearGradient
       xlink:href="#a"
       id="d"
       y1="508.79999"
       y2="506.79999"
       gradientUnits="userSpaceOnUse"
       x2="0"
       gradientTransform="matrix(1.0284537,0,0,1.0499997,-442.30191,-575.2578)" />
    <linearGradient
       xlink:href="#a"
       id="e"
       y1="510.79999"
       y2="508.79999"
       gradientUnits="userSpaceOnUse"
       x2="0"
       gradientTransform="matrix(1.0284537,0,0,1.0499997,-442.30191,-575.2578)" />
    <linearGradient
       xlink:href="#a"
       id="f"
       y1="512.79999"
       y2="510.79999"
       gradientUnits="userSpaceOnUse"
       x2="0"
       gradientTransform="matrix(1.0284537,0,0,1.0499997,-442.30191,-575.2578)" />
    <linearGradient
       xlink:href="#a"
       id="g"
       y1="514.79999"
       y2="512.79999"
       gradientUnits="userSpaceOnUse"
       x2="0"
       gradientTransform="matrix(1.0284537,0,0,1.0499997,-442.30191,-575.2578)" />
    <linearGradient
       xlink:href="#a"
       id="h"
       y1="516.79999"
       y2="514.79999"
       gradientUnits="userSpaceOnUse"
       x2="0"
       gradientTransform="matrix(1.0284537,0,0,1.0499997,-442.30191,-575.2578)" />
    <linearGradient
       xlink:href="#a"
       id="i"
       y1="518.79999"
       y2="516.79999"
       gradientUnits="userSpaceOnUse"
       x2="0"
       gradientTransform="matrix(1.0284537,0,0,1.0499997,-442.30191,-575.2578)" />
    <linearGradient
       xlink:href="#a"
       id="j"
       y1="520.79999"
       y2="518.79999"
       gradientUnits="userSpaceOnUse"
       x2="0"
       gradientTransform="matrix(1.0284537,0,0,1.0499997,-442.30191,-575.2578)" />
    <linearGradient
       xlink:href="#a"
       id="k"
       y1="523.79999"
       y2="520.79999"
       gradientUnits="userSpaceOnUse"
       x2="0"
       gradientTransform="matrix(1.0284537,0,0,1.0499997,-442.30191,-575.2578)" />
    <linearGradient
       xlink:href="#a"
       id="l"
       y1="33"
       y2="25"
       x2="0"
       gradientUnits="userSpaceOnUse"
       gradientTransform="matrix(1.0284537,0,0,1.0499997,-46.789476,-50.467946)" />
    <linearGradient
       id="m"
       y1="7"
       x1="10"
       y2="32"
       x2="35"
       gradientUnits="userSpaceOnUse"
       gradientTransform="matrix(1.0284537,0,0,1.0499997,-46.789476,-50.467946)">
      <stop
         stop-color="#383e51"
         id="stop22" />
      <stop
         offset="1"
         stop-color="#655c6f"
         stop-opacity="0"
         id="stop24" />
    </linearGradient>
    <linearGradient
       id="b-3"
       y1="543.79999"
       y2="503.79999"
       x2="0"
       gradientUnits="userSpaceOnUse"
       gradientTransform="matrix(1.0413094,0,0,1.0631247,-345.52626,-498.95277)">
      <stop
         stop-color="#1d1e1e"
         id="stop7-6" />
      <stop
         offset="1"
         stop-color="#44484c"
         id="stop9-7" />
    </linearGradient>
    <linearGradient
       xlink:href="#a-6"
       id="c-5"
       y1="506.79999"
       y2="504.79999"
       x2="0"
       gradientUnits="userSpaceOnUse"
       gradientTransform="matrix(1.0284537,0,0,1.0499997,-340.3236,-492.12935)" />
    <linearGradient
       id="a-6"
       y1="543.79999"
       y2="503.79999"
       x2="0"
       gradientUnits="userSpaceOnUse"
       gradientTransform="matrix(1.125,0,0,1,-51.07,0)">
      <stop
         stop-color="#c6cdd1"
         id="stop2-2" />
      <stop
         offset="1"
         stop-color="#e0e5e7"
         id="stop4-9" />
    </linearGradient>
    <linearGradient
       xlink:href="#a-6"
       id="d-1"
       y1="508.79999"
       y2="506.79999"
       gradientUnits="userSpaceOnUse"
       x2="0"
       gradientTransform="matrix(1.0284537,0,0,1.0499997,-340.3236,-492.12935)" />
    <linearGradient
       id="linearGradient991"
       y1="543.79999"
       y2="503.79999"
       x2="0"
       gradientUnits="userSpaceOnUse"
       gradientTransform="matrix(1.125,0,0,1,-51.07,0)">
      <stop
         stop-color="#c6cdd1"
         id="stop987" />
      <stop
         offset="1"
         stop-color="#e0e5e7"
         id="stop989" />
    </linearGradient>
    <linearGradient
       xlink:href="#a-6"
       id="e-2"
       y1="510.79999"
       y2="508.79999"
       gradientUnits="userSpaceOnUse"
       x2="0"
       gradientTransform="matrix(1.0284537,0,0,1.0499997,-340.3236,-492.12935)" />
    <linearGradient
       id="linearGradient998"
       y1="543.79999"
       y2="503.79999"
       x2="0"
       gradientUnits="userSpaceOnUse"
       gradientTransform="matrix(1.125,0,0,1,-51.07,0)">
      <stop
         stop-color="#c6cdd1"
         id="stop994" />
      <stop
         offset="1"
         stop-color="#e0e5e7"
         id="stop996" />
    </linearGradient>
    <linearGradient
       xlink:href="#a-6"
       id="f-7"
       y1="512.79999"
       y2="510.79999"
       gradientUnits="userSpaceOnUse"
       x2="0"
       gradientTransform="matrix(1.0284537,0,0,1.0499997,-340.3236,-492.12935)" />
    <linearGradient
       id="linearGradient1005"
       y1="543.79999"
       y2="503.79999"
       x2="0"
       gradientUnits="userSpaceOnUse"
       gradientTransform="matrix(1.125,0,0,1,-51.07,0)">
      <stop
         stop-color="#c6cdd1"
         id="stop1001" />
      <stop
         offset="1"
         stop-color="#e0e5e7"
         id="stop1003" />
    </linearGradient>
    <linearGradient
       xlink:href="#a-6"
       id="g-0"
       y1="514.79999"
       y2="512.79999"
       gradientUnits="userSpaceOnUse"
       x2="0"
       gradientTransform="matrix(1.0284537,0,0,1.0499997,-340.3236,-492.12935)" />
    <linearGradient
       id="linearGradient1012"
       y1="543.79999"
       y2="503.79999"
       x2="0"
       gradientUnits="userSpaceOnUse"
       gradientTransform="matrix(1.125,0,0,1,-51.07,0)">
      <stop
         stop-color="#c6cdd1"
         id="stop1008" />
      <stop
         offset="1"
         stop-color="#e0e5e7"
         id="stop1010" />
    </linearGradient>
    <linearGradient
       xlink:href="#a-6"
       id="h-9"
       y1="516.79999"
       y2="514.79999"
       gradientUnits="userSpaceOnUse"
       x2="0"
       gradientTransform="matrix(1.0284537,0,0,1.0499997,-340.3236,-492.12935)" />
    <linearGradient
       id="linearGradient1019"
       y1="543.79999"
       y2="503.79999"
       x2="0"
       gradientUnits="userSpaceOnUse"
       gradientTransform="matrix(1.125,0,0,1,-51.07,0)">
      <stop
         stop-color="#c6cdd1"
         id="stop1015" />
      <stop
         offset="1"
         stop-color="#e0e5e7"
         id="stop1017" />
    </linearGradient>
    <linearGradient
       xlink:href="#a-6"
       id="i-3"
       y1="518.79999"
       y2="516.79999"
       gradientUnits="userSpaceOnUse"
       x2="0"
       gradientTransform="matrix(1.0284537,0,0,1.0499997,-340.3236,-492.12935)" />
    <linearGradient
       id="linearGradient1026"
       y1="543.79999"
       y2="503.79999"
       x2="0"
       gradientUnits="userSpaceOnUse"
       gradientTransform="matrix(1.125,0,0,1,-51.07,0)">
      <stop
         stop-color="#c6cdd1"
         id="stop1022" />
      <stop
         offset="1"
         stop-color="#e0e5e7"
         id="stop1024" />
    </linearGradient>
    <linearGradient
       xlink:href="#a-6"
       id="j-6"
       y1="520.79999"
       y2="518.79999"
       gradientUnits="userSpaceOnUse"
       x2="0"
       gradientTransform="matrix(1.0284537,0,0,1.0499997,-340.3236,-492.12935)" />
    <linearGradient
       id="linearGradient1033"
       y1="543.79999"
       y2="503.79999"
       x2="0"
       gradientUnits="userSpaceOnUse"
       gradientTransform="matrix(1.125,0,0,1,-51.07,0)">
      <stop
         stop-color="#c6cdd1"
         id="stop1029" />
      <stop
         offset="1"
         stop-color="#e0e5e7"
         id="stop1031" />
    </linearGradient>
    <linearGradient
       xlink:href="#a-6"
       id="k-0"
       y1="523.79999"
       y2="520.79999"
       gradientUnits="userSpaceOnUse"
       x2="0"
       gradientTransform="matrix(1.0284537,0,0,1.0499997,-340.3236,-492.12935)" />
    <linearGradient
       id="linearGradient1040"
       y1="543.79999"
       y2="503.79999"
       x2="0"
       gradientUnits="userSpaceOnUse"
       gradientTransform="matrix(1.125,0,0,1,-51.07,0)">
      <stop
         stop-color="#c6cdd1"
         id="stop1036" />
      <stop
         offset="1"
         stop-color="#e0e5e7"
         id="stop1038" />
    </linearGradient>
    <linearGradient
       xlink:href="#a-6"
       id="l-6"
       y1="33"
       y2="25"
       x2="0"
       gradientUnits="userSpaceOnUse"
       gradientTransform="matrix(1.0284537,0,0,1.0499997,55.188836,32.660499)" />
    <linearGradient
       id="linearGradient1047"
       y1="543.79999"
       y2="503.79999"
       x2="0"
       gradientUnits="userSpaceOnUse"
       gradientTransform="matrix(1.125,0,0,1,-51.07,0)">
      <stop
         stop-color="#c6cdd1"
         id="stop1043" />
      <stop
         offset="1"
         stop-color="#e0e5e7"
         id="stop1045" />
    </linearGradient>
    <linearGradient
       xlink:href="#linearGradient4435"
       id="linearGradient4389-3-5"
       y1="524.79797"
       y2="515.79797"
       x2="0"
       gradientUnits="userSpaceOnUse"
       gradientTransform="matrix(1.3624978,0,0,1.3624978,-528.67725,-680.90488)" />
    <linearGradient
       id="linearGradient4435">
      <stop
         style="stop-color:#c61423"
         id="stop15" />
      <stop
         offset="1"
         style="stop-color:#dc2b41"
         id="stop17" />
    </linearGradient>
    <linearGradient
       id="b-3-7"
       y1="543.79999"
       y2="503.79999"
       x2="0"
       gradientUnits="userSpaceOnUse"
       gradientTransform="matrix(1.0413093,0,0,0.98916733,-397.39884,-489.9741)">
      <stop
         stop-color="#1d1e1e"
         id="stop7-6-5" />
      <stop
         offset="1"
         stop-color="#44484c"
         id="stop9-7-3" />
    </linearGradient>
    <linearGradient
       xlink:href="#a-6-9"
       id="c-5-2"
       y1="506.79999"
       y2="504.79999"
       x2="0"
       gradientUnits="userSpaceOnUse"
       gradientTransform="matrix(1.0284536,0,0,0.97695521,-392.19618,-483.62542)" />
    <linearGradient
       id="a-6-9"
       y1="543.79999"
       y2="503.79999"
       x2="0"
       gradientUnits="userSpaceOnUse"
       gradientTransform="matrix(1.125,0,0,1,-51.07,0)">
      <stop
         stop-color="#c6cdd1"
         id="stop2-2-1" />
      <stop
         offset="1"
         stop-color="#e0e5e7"
         id="stop4-9-2" />
    </linearGradient>
    <linearGradient
       xlink:href="#a-6-9"
       id="d-1-7"
       y1="508.79999"
       y2="506.79999"
       gradientUnits="userSpaceOnUse"
       x2="0"
       gradientTransform="matrix(1.0284536,0,0,0.97695521,-392.19618,-483.62542)" />
    <linearGradient
       id="linearGradient716"
       y1="543.79999"
       y2="503.79999"
       x2="0"
       gradientUnits="userSpaceOnUse"
       gradientTransform="matrix(1.125,0,0,1,-51.07,0)">
      <stop
         stop-color="#c6cdd1"
         id="stop712" />
      <stop
         offset="1"
         stop-color="#e0e5e7"
         id="stop714" />
    </linearGradient>
    <linearGradient
       xlink:href="#a-6-9"
       id="e-2-0"
       y1="510.79999"
       y2="508.79999"
       gradientUnits="userSpaceOnUse"
       x2="0"
       gradientTransform="matrix(1.0284536,0,0,0.97695521,-392.19618,-483.62542)" />
    <linearGradient
       id="linearGradient723"
       y1="543.79999"
       y2="503.79999"
       x2="0"
       gradientUnits="userSpaceOnUse"
       gradientTransform="matrix(1.125,0,0,1,-51.07,0)">
      <stop
         stop-color="#c6cdd1"
         id="stop719" />
      <stop
         offset="1"
         stop-color="#e0e5e7"
         id="stop721" />
    </linearGradient>
    <linearGradient
       xlink:href="#a-6-9"
       id="f-7-9"
       y1="512.79999"
       y2="510.79999"
       gradientUnits="userSpaceOnUse"
       x2="0"
       gradientTransform="matrix(1.0284536,0,0,0.97695521,-392.19618,-483.62542)" />
    <linearGradient
       id="linearGradient730"
       y1="543.79999"
       y2="503.79999"
       x2="0"
       gradientUnits="userSpaceOnUse"
       gradientTransform="matrix(1.125,0,0,1,-51.07,0)">
      <stop
         stop-color="#c6cdd1"
         id="stop726" />
      <stop
         offset="1"
         stop-color="#e0e5e7"
         id="stop728" />
    </linearGradient>
    <linearGradient
       xlink:href="#a-6-9"
       id="g-0-3"
       y1="514.79999"
       y2="512.79999"
       gradientUnits="userSpaceOnUse"
       x2="0"
       gradientTransform="matrix(1.0284536,0,0,0.97695521,-392.19618,-483.62542)" />
    <linearGradient
       id="linearGradient737"
       y1="543.79999"
       y2="503.79999"
       x2="0"
       gradientUnits="userSpaceOnUse"
       gradientTransform="matrix(1.125,0,0,1,-51.07,0)">
      <stop
         stop-color="#c6cdd1"
         id="stop733" />
      <stop
         offset="1"
         stop-color="#e0e5e7"
         id="stop735" />
    </linearGradient>
    <linearGradient
       xlink:href="#a-6-9"
       id="h-9-6"
       y1="516.79999"
       y2="514.79999"
       gradientUnits="userSpaceOnUse"
       x2="0"
       gradientTransform="matrix(1.0284536,0,0,0.97695521,-392.19618,-483.62542)" />
    <linearGradient
       id="linearGradient744"
       y1="543.79999"
       y2="503.79999"
       x2="0"
       gradientUnits="userSpaceOnUse"
       gradientTransform="matrix(1.125,0,0,1,-51.07,0)">
      <stop
         stop-color="#c6cdd1"
         id="stop740" />
      <stop
         offset="1"
         stop-color="#e0e5e7"
         id="stop742" />
    </linearGradient>
    <linearGradient
       xlink:href="#a-6-9"
       id="i-3-0"
       y1="518.79999"
       y2="516.79999"
       gradientUnits="userSpaceOnUse"
       x2="0"
       gradientTransform="matrix(1.0284536,0,0,0.97695521,-392.19618,-483.62542)" />
    <linearGradient
       id="linearGradient751"
       y1="543.79999"
       y2="503.79999"
       x2="0"
       gradientUnits="userSpaceOnUse"
       gradientTransform="matrix(1.125,0,0,1,-51.07,0)">
      <stop
         stop-color="#c6cdd1"
         id="stop747" />
      <stop
         offset="1"
         stop-color="#e0e5e7"
         id="stop749" />
    </linearGradient>
    <linearGradient
       xlink:href="#a-6-9"
       id="j-6-6"
       y1="520.79999"
       y2="518.79999"
       gradientUnits="userSpaceOnUse"
       x2="0"
       gradientTransform="matrix(1.0284536,0,0,0.97695521,-392.19618,-483.62542)" />
    <linearGradient
       id="linearGradient758"
       y1="543.79999"
       y2="503.79999"
       x2="0"
       gradientUnits="userSpaceOnUse"
       gradientTransform="matrix(1.125,0,0,1,-51.07,0)">
      <stop
         stop-color="#c6cdd1"
         id="stop754" />
      <stop
         offset="1"
         stop-color="#e0e5e7"
         id="stop756" />
    </linearGradient>
    <linearGradient
       xlink:href="#a-6-9"
       id="k-0-2"
       y1="523.79999"
       y2="520.79999"
       gradientUnits="userSpaceOnUse"
       x2="0"
       gradientTransform="matrix(1.0284536,0,0,0.97695521,-392.19618,-483.62542)" />
    <linearGradient
       id="linearGradient765"
       y1="543.79999"
       y2="503.79999"
       x2="0"
       gradientUnits="userSpaceOnUse"
       gradientTransform="matrix(1.125,0,0,1,-51.07,0)">
      <stop
         stop-color="#c6cdd1"
         id="stop761" />
      <stop
         offset="1"
         stop-color="#e0e5e7"
         id="stop763" />
    </linearGradient>
    <linearGradient
       xlink:href="#a-6-9"
       id="l-6-6"
       y1="33"
       y2="25"
       x2="0"
       gradientUnits="userSpaceOnUse"
       gradientTransform="matrix(1.0284536,0,0,0.97695521,3.3162253,4.6569547)" />
    <linearGradient
       id="linearGradient772"
       y1="543.79999"
       y2="503.79999"
       x2="0"
       gradientUnits="userSpaceOnUse"
       gradientTransform="matrix(1.125,0,0,1,-51.07,0)">
      <stop
         stop-color="#c6cdd1"
         id="stop768" />
      <stop
         offset="1"
         stop-color="#e0e5e7"
         id="stop770" />
    </linearGradient>
    <filter
       id="filter1305-3-7"
       x="-0.060002353"
       y="-0.060002353"
       width="1.1200047"
       height="1.1200047"
       color-interpolation-filters="sRGB">
      <feGaussianBlur
         stdDeviation="0.61852427"
         id="feGaussianBlur324-5" />
    </filter>
    <linearGradient
       id="b-3-7-6"
       y1="543.79999"
       y2="503.79999"
       x2="0"
       gradientUnits="userSpaceOnUse"
       gradientTransform="matrix(1.0413091,0,0,0.98916747,-397.39884,-489.97418)">
      <stop
         stop-color="#1d1e1e"
         id="stop7-6-5-7" />
      <stop
         offset="1"
         stop-color="#44484c"
         id="stop9-7-3-5" />
    </linearGradient>
    <linearGradient
       xlink:href="#a-6-9-5"
       id="c-5-2-3"
       y1="506.79999"
       y2="504.79999"
       x2="0"
       gradientUnits="userSpaceOnUse"
       gradientTransform="matrix(1.0284532,0,0,0.97695536,-392.19618,-483.62549)" />
    <linearGradient
       id="a-6-9-5"
       y1="543.79999"
       y2="503.79999"
       x2="0"
       gradientUnits="userSpaceOnUse"
       gradientTransform="matrix(1.125,0,0,1,-51.07,0)">
      <stop
         stop-color="#c6cdd1"
         id="stop2-2-1-6" />
      <stop
         offset="1"
         stop-color="#e0e5e7"
         id="stop4-9-2-2" />
    </linearGradient>
    <linearGradient
       xlink:href="#a-6-9-5"
       id="d-1-7-9"
       y1="508.79999"
       y2="506.79999"
       gradientUnits="userSpaceOnUse"
       x2="0"
       gradientTransform="matrix(1.0284532,0,0,0.97695536,-392.19618,-483.62549)" />
    <linearGradient
       id="linearGradient2"
       y1="543.79999"
       y2="503.79999"
       x2="0"
       gradientUnits="userSpaceOnUse"
       gradientTransform="matrix(1.125,0,0,1,-51.07,0)">
      <stop
         stop-color="#c6cdd1"
         id="stop1" />
      <stop
         offset="1"
         stop-color="#e0e5e7"
         id="stop2-1" />
    </linearGradient>
    <linearGradient
       xlink:href="#a-6-9-5"
       id="e-2-0-2"
       y1="510.79999"
       y2="508.79999"
       gradientUnits="userSpaceOnUse"
       x2="0"
       gradientTransform="matrix(1.0284532,0,0,0.97695536,-392.19618,-483.62549)" />
    <linearGradient
       id="linearGradient4"
       y1="543.79999"
       y2="503.79999"
       x2="0"
       gradientUnits="userSpaceOnUse"
       gradientTransform="matrix(1.125,0,0,1,-51.07,0)">
      <stop
         stop-color="#c6cdd1"
         id="stop3" />
      <stop
         offset="1"
         stop-color="#e0e5e7"
         id="stop4-7" />
    </linearGradient>
    <linearGradient
       xlink:href="#a-6-9-5"
       id="f-7-9-0"
       y1="512.79999"
       y2="510.79999"
       gradientUnits="userSpaceOnUse"
       x2="0"
       gradientTransform="matrix(1.0284532,0,0,0.97695536,-392.19618,-483.62549)" />
    <linearGradient
       id="linearGradient6"
       y1="543.79999"
       y2="503.79999"
       x2="0"
       gradientUnits="userSpaceOnUse"
       gradientTransform="matrix(1.125,0,0,1,-51.07,0)">
      <stop
         stop-color="#c6cdd1"
         id="stop5" />
      <stop
         offset="1"
         stop-color="#e0e5e7"
         id="stop6" />
    </linearGradient>
    <linearGradient
       xlink:href="#a-6-9-5"
       id="g-0-3-9"
       y1="514.79999"
       y2="512.79999"
       gradientUnits="userSpaceOnUse"
       x2="0"
       gradientTransform="matrix(1.0284532,0,0,0.97695536,-392.19618,-483.62549)" />
    <linearGradient
       id="linearGradient8"
       y1="543.79999"
       y2="503.79999"
       x2="0"
       gradientUnits="userSpaceOnUse"
       gradientTransform="matrix(1.125,0,0,1,-51.07,0)">
      <stop
         stop-color="#c6cdd1"
         id="stop7-3" />
      <stop
         offset="1"
         stop-color="#e0e5e7"
         id="stop8" />
    </linearGradient>
    <linearGradient
       xlink:href="#a-6-9-5"
       id="h-9-6-6"
       y1="516.79999"
       y2="514.79999"
       gradientUnits="userSpaceOnUse"
       x2="0"
       gradientTransform="matrix(1.0284532,0,0,0.97695536,-392.19618,-483.62549)" />
    <linearGradient
       id="linearGradient10"
       y1="543.79999"
       y2="503.79999"
       x2="0"
       gradientUnits="userSpaceOnUse"
       gradientTransform="matrix(1.125,0,0,1,-51.07,0)">
      <stop
         stop-color="#c6cdd1"
         id="stop9-0" />
      <stop
         offset="1"
         stop-color="#e0e5e7"
         id="stop10" />
    </linearGradient>
    <linearGradient
       xlink:href="#a-6-9-5"
       id="i-3-0-6"
       y1="518.79999"
       y2="516.79999"
       gradientUnits="userSpaceOnUse"
       x2="0"
       gradientTransform="matrix(1.0284532,0,0,0.97695536,-392.19618,-483.62549)" />
    <linearGradient
       id="linearGradient12"
       y1="543.79999"
       y2="503.79999"
       x2="0"
       gradientUnits="userSpaceOnUse"
       gradientTransform="matrix(1.125,0,0,1,-51.07,0)">
      <stop
         stop-color="#c6cdd1"
         id="stop11-2" />
      <stop
         offset="1"
         stop-color="#e0e5e7"
         id="stop12-6" />
    </linearGradient>
    <linearGradient
       xlink:href="#a-6-9-5"
       id="j-6-6-1"
       y1="520.79999"
       y2="518.79999"
       gradientUnits="userSpaceOnUse"
       x2="0"
       gradientTransform="matrix(1.0284532,0,0,0.97695536,-392.19618,-483.62549)" />
    <linearGradient
       id="linearGradient14-8"
       y1="543.79999"
       y2="503.79999"
       x2="0"
       gradientUnits="userSpaceOnUse"
       gradientTransform="matrix(1.125,0,0,1,-51.07,0)">
      <stop
         stop-color="#c6cdd1"
         id="stop13-7" />
      <stop
         offset="1"
         stop-color="#e0e5e7"
         id="stop14" />
    </linearGradient>
    <linearGradient
       xlink:href="#a-6-9-5"
       id="k-0-2-9"
       y1="523.79999"
       y2="520.79999"
       gradientUnits="userSpaceOnUse"
       x2="0"
       gradientTransform="matrix(1.0284532,0,0,0.97695536,-392.19618,-483.62549)" />
    <linearGradient
       id="linearGradient16"
       y1="543.79999"
       y2="503.79999"
       x2="0"
       gradientUnits="userSpaceOnUse"
       gradientTransform="matrix(1.125,0,0,1,-51.07,0)">
      <stop
         stop-color="#c6cdd1"
         id="stop15-2" />
      <stop
         offset="1"
         stop-color="#e0e5e7"
         id="stop16" />
    </linearGradient>
    <linearGradient
       xlink:href="#a-6-9-5"
       id="l-6-6-0"
       y1="33"
       y2="25"
       x2="0"
       gradientUnits="userSpaceOnUse"
       gradientTransform="matrix(1.0284532,0,0,0.97695536,3.3162253,4.6569548)" />
    <linearGradient
       id="linearGradient18"
       y1="543.79999"
       y2="503.79999"
       x2="0"
       gradientUnits="userSpaceOnUse"
       gradientTransform="matrix(1.125,0,0,1,-51.07,0)">
      <stop
         stop-color="#c6cdd1"
         id="stop17-2" />
      <stop
         offset="1"
         stop-color="#e0e5e7"
         id="stop18" />
    </linearGradient>
    <linearGradient
       inkscape:collect="always"
       xlink:href="#linearGradient1013"
       id="linearGradient1015"
       x1="-45.452461"
       y1="23.120121"
       x2="-0.32164383"
       y2="23.120121"
       gradientUnits="userSpaceOnUse" />
    <linearGradient
       inkscape:collect="always"
       xlink:href="#linearGradient1"
       id="linearGradient12-3"
       x1="12.202705"
       y1="20.794916"
       x2="-11.193524"
       y2="44.363842"
       gradientUnits="userSpaceOnUse" />
    <linearGradient
       id="linearGradient1"
       inkscape:collect="always">
      <stop
         style="stop-color:#ff9955;stop-opacity:1;"
         offset="0"
         id="stop11" />
      <stop
         style="stop-color:#ff9955;stop-opacity:0.2;"
         offset="1"
         id="stop12-67" />
    </linearGradient>
  </defs>
  <rect
     x="-46.092155"
     y="1.2096434"
     width="45.130817"
     height="45.11338"
     rx="6.0931306"
     shape-rendering="crispEdges"
     id="rect5-6-7"
     ry="6.7034807"
     transform="matrix(0.00523884,-0.99998628,0.999988,0.00489858,0,0)"
     style="fill:#ff9955;fill-opacity:0.10196079;stroke:url(#linearGradient1015);stroke-width:2;stroke-miterlimit:4;stroke-dasharray:none;stroke-opacity:1" />
  <rect
     x="-14.060373"
     y="18.58709"
     width="29.906599"
     height="29.905666"
     rx="6.0928807"
     shape-rendering="crispEdges"
     id="rect5-6-6-6-5"
     style="fill:#ff9955;fill-opacity:0.11764706;stroke:url(#linearGradient12-3);stroke-width:1.5;stroke-miterlimit:4;stroke-dasharray:none;stroke-opacity:1"
     ry="6.7032056"
     transform="matrix(0.72612648,-0.68756115,0.68797749,0.72573202,0,0)" />
  <g
     id="g1"
     transform="translate(0,0.60016839)">
    <path
       style="opacity:0.2;stroke-width:0.999971"
       d="m 23.999029,12.027443 c -0.683933,-0.01353 -1.373749,0.0056 -1.817315,0.06252 -2.713512,0.349097 -5.10931,1.487187 -7.000551,3.325396 -1.011057,0.982699 -1.723776,1.954484 -2.342946,3.1934 -0.826687,1.654128 -1.181898,3.193379 -1.183259,5.122408 -0.0015,1.926689 0.347684,3.433411 1.187973,5.120092 1.532775,3.076685 4.431282,5.378349 7.851458,6.236278 0.395618,0.09924 1.461451,0.280155 1.866816,0.317254 0.111355,0.0102 0.61147,0.0217 1.112547,0.02546 0.918343,0.0068 1.107307,-0.04785 0.362991,-0.106518 -0.621623,-0.04901 -1.564144,-0.255464 -2.298161,-0.502514 -3.112432,-1.047559 -5.567343,-3.45996 -6.592777,-6.479432 -0.581461,-1.71215 -0.690505,-3.445717 -0.327635,-5.215036 0.733862,-3.578231 3.407533,-6.535055 6.965195,-7.699825 4.609281,-1.509072 9.588574,0.178767 12.256861,4.152117 0.877881,1.307246 1.513834,3.054317 1.638177,4.499474 0.02511,0.291507 0.04419,0.361349 0.0825,0.294099 0.07024,-0.123291 0.01001,-1.599621 -0.09429,-2.30879 -0.48703,-3.312344 -2.35484,-6.196214 -5.235089,-8.08191 -1.386345,-0.907638 -2.934514,-1.512253 -4.657607,-1.820169 -0.414271,-0.07403 -1.090952,-0.120788 -1.774888,-0.134311 z m 2.005883,4.78894 c -0.388621,0.0013 -0.756211,0.02031 -1.041834,0.06021 -3.757814,0.52494 -6.640549,3.349619 -7.215047,7.072258 -0.09675,0.626865 -0.07347,1.900646 0.04712,2.582045 0.662622,3.7435 3.837795,6.58406 7.669965,6.861526 2.087155,0.15112 4.186027,-0.445863 5.772509,-1.641856 1.676185,-1.26362 2.769452,-2.973753 3.203283,-5.011253 0.136214,-0.639747 0.186389,-1.920125 0.10135,-2.593625 -0.03448,-0.272989 -0.07369,-0.515292 -0.08722,-0.53725 -0.01353,-0.02196 -0.165262,0.102856 -0.337064,0.277889 -0.508892,0.518486 -1.066605,0.847584 -1.779601,1.049028 -0.551431,0.155792 -1.395754,0.155736 -1.946953,0 -1.531054,-0.432584 -2.59613,-1.63482 -2.807293,-3.167927 -0.210867,-1.530953 0.687174,-3.128452 2.142592,-3.8117 l 0.403065,-0.18989 -0.42899,-0.199155 c -0.552577,-0.255843 -1.255851,-0.483164 -1.89038,-0.611356 -0.455916,-0.09211 -1.157832,-0.14104 -1.80553,-0.138945 z"
       id="path2" />
    <path
       style="fill:#ff9955;stroke-width:0.999971"
       d="m 22.560957,34.812075 c -0.405363,-0.0371 -1.471877,-0.218634 -1.867492,-0.317871 -3.420178,-0.857931 -6.316625,-3.15886 -7.849399,-6.235545 -0.840288,-1.686682 -1.190486,-3.195064 -1.189104,-5.121753 0.0015,-1.929031 0.356957,-3.467625 1.183641,-5.121753 0.619171,-1.238918 1.331356,-2.209454 2.342408,-3.192154 1.891241,-1.838207 4.28683,-2.976136 7.000343,-3.325238 0.887133,-0.114129 2.765032,-0.07699 3.593575,0.07107 1.723093,0.307914 3.270117,0.912682 4.656463,1.820321 2.88025,1.885693 4.748428,4.76959 5.235462,8.081942 0.10427,0.709169 0.164631,2.184977 0.0944,2.308268 -0.03831,0.06725 -0.05821,-0.0032 -0.08331,-0.294708 -0.124346,-1.445158 -0.760635,-3.192599 -1.638513,-4.499848 -2.668288,-3.973344 -7.64662,-5.659072 -12.255899,-4.149998 -3.557667,1.164772 -6.231497,4.119895 -6.96536,7.698127 -0.362869,1.769319 -0.25398,3.503607 0.327482,5.215757 1.025433,3.019471 3.479687,5.431709 6.592119,6.479265 0.734019,0.24705 1.676674,0.452911 2.298298,0.501915 0.744315,0.0587 0.556728,0.114476 -0.361616,0.107576 -0.501077,-0.0039 -1.002152,-0.01518 -1.113503,-0.02538 z"
       id="path3-3" />
    <path
       style="fill:#ff9955;stroke-width:0.999971"
       d="m 25.46622,32.799346 c -3.832172,-0.277464 -7.007308,-3.117891 -7.669934,-6.861391 -0.120608,-0.681398 -0.143851,-1.955152 -0.04712,-2.582016 0.574503,-3.722641 3.455086,-6.546873 7.2129,-7.071811 0.76166,-0.106402 2.118916,-0.0691 2.848384,0.07827 0.634529,0.12819 1.337937,0.355744 1.890518,0.611586 l 0.428517,0.198403 -0.403309,0.189334 c -1.455418,0.683249 -2.353708,2.281413 -2.142842,3.812364 0.211164,1.533108 1.27768,2.736433 2.808732,3.169015 0.5512,0.155736 1.394074,0.155693 1.945507,-9.9e-5 0.712996,-0.201444 1.272162,-0.530897 1.781054,-1.049383 0.171801,-0.175034 0.323431,-0.300273 0.336957,-0.278307 0.01352,0.02196 0.0528,0.263295 0.08726,0.536286 0.08503,0.673498 0.03512,1.954872 -0.101108,2.594619 -0.433834,2.037499 -1.526959,3.747707 -3.203145,5.011326 -1.586482,1.195993 -3.685228,1.79293 -5.772383,1.64181 z"
       id="path4" />
    <path
       style="opacity:0.2;fill:#ffffff;stroke-width:0.999971"
       d="m 24.000208,11.435434 c -0.683935,-0.01352 -1.374928,0.0056 -1.818494,0.06252 -2.713512,0.349099 -5.10931,1.487189 -7.000551,3.325397 -1.011056,0.982701 -1.723776,1.953328 -2.342946,3.192243 -0.826687,1.654126 -1.18187,3.192221 -1.183259,5.121249 -7.7e-5,0.104573 0.0052,0.203478 0.0071,0.305676 0.03576,-1.794524 0.391515,-3.26403 1.17619,-4.834097 0.61917,-1.238916 1.331889,-2.20954 2.342946,-3.192242 1.891241,-1.838206 4.287038,-2.976296 7.000551,-3.325398 0.443566,-0.05707 1.134559,-0.07605 1.818494,-0.06252 0.683934,0.01353 1.360616,0.05913 1.774889,0.133156 1.723092,0.307915 3.270081,0.91253 4.656428,1.820168 2.880247,1.885695 4.748059,4.769566 5.235093,8.081917 0.06016,0.409163 0.10243,1.052732 0.116675,1.565439 0.02756,-0.412121 -0.0283,-1.557063 -0.116675,-2.158265 -0.487036,-3.312354 -2.354849,-6.196224 -5.235095,-8.081919 -1.386347,-0.907639 -2.933335,-1.512256 -4.656428,-1.82017 -0.414272,-0.07403 -1.090955,-0.119629 -1.774892,-0.133154 z m 2.005882,4.787785 c -0.388617,0.0013 -0.758569,0.02149 -1.04419,0.06136 -3.757816,0.52494 -6.638189,3.348462 -7.212691,7.0711 -0.05197,0.336734 -0.06681,0.85757 -0.05305,1.375548 0.0068,-0.298341 0.02156,-0.578702 0.05305,-0.782719 0.574502,-3.72264 3.454875,-6.546163 7.212691,-7.071099 0.285621,-0.03989 0.655573,-0.06012 1.04419,-0.06137 0.6477,-0.0021 1.348434,0.04682 1.804352,0.138944 0.561346,0.113407 1.170657,0.305991 1.687674,0.525674 0.0748,-0.0418 0.150556,-0.08261 0.228639,-0.119261 l 0.403062,-0.188733 -0.42899,-0.199155 C 29.148245,16.717674 28.44497,16.49035 27.810442,16.362161 27.354524,16.270051 26.65379,16.221121 26.00609,16.223217 Z m 1.562751,4.799362 c -0.02167,0.247088 -0.01996,0.496804 0.01415,0.744509 0.211164,1.533108 1.278598,2.736501 2.80965,3.169085 0.5512,0.155735 1.393167,0.155791 1.944599,0 0.712996,-0.201445 1.273063,-0.531702 1.781959,-1.050187 0.171799,-0.175035 0.322361,-0.299858 0.335883,-0.277889 0.01353,0.02196 0.05276,0.263106 0.08722,0.536094 0.01887,0.149515 0.02801,0.336846 0.03417,0.53262 0.0099,-0.420367 0.0029,-0.832371 -0.03417,-1.12545 -0.03448,-0.272988 -0.07369,-0.514132 -0.08722,-0.536091 -0.01352,-0.02198 -0.164084,0.102852 -0.335883,0.277888 -0.508896,0.518486 -1.068963,0.848743 -1.781959,1.050187 -0.551432,0.15579 -1.393399,0.155736 -1.944599,0 -1.531052,-0.432583 -2.598486,-1.635978 -2.80965,-3.169085 -0.007,-0.05053 -0.0096,-0.101031 -0.01415,-0.151681 z m -12.949846,3.822123 c -0.03711,1.178071 0.134942,2.342873 0.52681,3.496761 0.950836,2.799811 3.131175,5.075249 5.924541,6.227013 0.488771,0.09813 1.167714,0.213579 1.49086,0.243151 0.11135,0.01019 0.612647,0.02171 1.113724,0.02548 0.918344,0.0069 1.104949,-0.04901 0.360635,-0.107682 -0.621625,-0.049 -1.564142,-0.254306 -2.298161,-0.501357 -3.112433,-1.047559 -5.566166,-3.459958 -6.591599,-6.479432 -0.326043,-0.96005 -0.497749,-1.927566 -0.52681,-2.90393 z"
       id="path6" />
  </g>
</svg>
