<?xml version="1.0" encoding="UTF-8" standalone="no"?>
<svg
   xmlns:dc="http://purl.org/dc/elements/1.1/"
   xmlns:cc="http://creativecommons.org/ns#"
   xmlns:rdf="http://www.w3.org/1999/02/22-rdf-syntax-ns#"
   xmlns:svg="http://www.w3.org/2000/svg"
   xmlns="http://www.w3.org/2000/svg"
   xmlns:xlink="http://www.w3.org/1999/xlink"
   xmlns:sodipodi="http://sodipodi.sourceforge.net/DTD/sodipodi-0.dtd"
   xmlns:inkscape="http://www.inkscape.org/namespaces/inkscape"
   width="47.285591"
   height="47.28569"
   version="1.1"
   viewBox="0 0 12.510734 12.51076"
   id="svg12"
   sodipodi:docname="designer5.svg"
   inkscape:version="1.0.1 (3bc2e813f5, 2020-09-07)">
  <style
     id="style982"></style>
  <metadata
     id="metadata157">
    <rdf:RDF>
      <cc:Work
         rdf:about="">
        <dc:format>image/svg+xml</dc:format>
        <dc:type
           rdf:resource="http://purl.org/dc/dcmitype/StillImage" />
      </cc:Work>
    </rdf:RDF>
  </metadata>
  <defs
     id="defs16">
    <linearGradient
       id="c"
       y1="523.79999"
       x1="403.57001"
       y2="536.79999"
       x2="416.57001"
       gradientUnits="userSpaceOnUse"
       gradientTransform="matrix(0.34526714,0,0,0.34526706,-134.80427,-174.63325)">
      <stop
         stop-color="#292c2f"
         id="stop1568" />
      <stop
         offset="1"
         stop-opacity="0"
         id="stop1570" />
    </linearGradient>
    <linearGradient
       xlink:href="#b-2"
       id="linearGradient4189"
       x1="14.369"
       y1="22.521999"
       x2="26.521999"
       y2="22.521999"
       gradientUnits="userSpaceOnUse" />
    <linearGradient
       x1="36"
       gradientUnits="userSpaceOnUse"
       x2="14"
       y2="12"
       y1="44"
       id="b-2">
      <stop
         style="stop-color:#bfc9c9;stop-opacity:1"
         stop-color="#536161"
         id="stop1579" />
      <stop
         style="stop-color:#fbfbfb;stop-opacity:1"
         stop-color="#f4f5f5"
         offset="1"
         id="stop1581" />
    </linearGradient>
    <linearGradient
       xlink:href="#b-2"
       id="linearGradient4428"
       gradientUnits="userSpaceOnUse"
       x1="31.586"
       y1="36.345001"
       x2="1.2029999"
       y2="6.723" />
    <linearGradient
       xlink:href="#b-2"
       id="linearGradient4189-3"
       x1="14.369"
       y1="22.521999"
       x2="26.521999"
       y2="22.521999"
       gradientUnits="userSpaceOnUse"
       gradientTransform="translate(20.841982,61.553822)" />
    <linearGradient
       xlink:href="#b-2"
       id="linearGradient4428-5"
       gradientUnits="userSpaceOnUse"
       x1="31.586"
       y1="36.345001"
       x2="1.2029999"
       y2="6.723"
       gradientTransform="translate(20.841982,61.553822)" />
    <linearGradient
       xlink:href="#b-2"
       id="linearGradient4189-3-3"
       x1="14.369"
       y1="22.521999"
       x2="26.521999"
       y2="22.521999"
       gradientUnits="userSpaceOnUse"
       gradientTransform="translate(4.376802,4.4211693)" />
    <linearGradient
       xlink:href="#b-2"
       id="linearGradient4428-5-5"
       gradientUnits="userSpaceOnUse"
       x1="31.586"
       y1="36.345001"
       x2="1.2029999"
       y2="6.723"
       gradientTransform="translate(4.376802,4.4211693)" />
    <linearGradient
       id="linearGradient11"
       inkscape:collect="always">
      <stop
         style="stop-color:#37c8ab;stop-opacity:0.60000002;"
         offset="0"
         id="stop4-3" />
      <stop
         style="stop-color:#37c8ab;stop-opacity:1;"
         offset="1"
         id="stop11" />
    </linearGradient>
    <filter
       id="filter2917-3"
       x="-0.96181148"
       y="-0.66745996"
       width="2.9236228"
       height="2.3349199"
       color-interpolation-filters="sRGB">
      <feGaussianBlur
         stdDeviation="0.2871969"
         id="feGaussianBlur732-5" />
    </filter>
    <filter
       id="filter1"
       x="-0.96181148"
       y="-0.66745996"
       width="2.9236228"
       height="2.3349199"
       color-interpolation-filters="sRGB">
      <feGaussianBlur
         stdDeviation="0.2871969"
         id="feGaussianBlur1" />
    </filter>
    <filter
       id="filter2"
       x="-0.96181148"
       y="-0.66745996"
       width="2.9236228"
       height="2.3349199"
       color-interpolation-filters="sRGB">
      <feGaussianBlur
         stdDeviation="0.2871969"
         id="feGaussianBlur2" />
    </filter>
    <linearGradient
       inkscape:collect="always"
       xlink:href="#linearGradient11"
       id="linearGradient5"
       x1="-3.8211522"
       y1="8.6008863"
       x2="4.2804661"
       y2="8.6008863"
       gradientUnits="userSpaceOnUse" />
    <clipPath
       id="SVGID_6_"
       clip-path="url(#SVGID_5_)">
      <path
         id="use26"
         d="M 245.46,129.523 147.569,32.625 c -5.556,-5.502 -16.222,-11.873 -23.7,-14.16 L 84.351,6.382 C 76.872,4.096 66.255,6.773 60.752,12.33 L 47.311,25.908 c -5.5,5.559 -14.502,14.653 -20.005,20.21 l -13.44,13.579 c -5.5,5.558 -8.07,16.206 -5.706,23.658 l 12.483,39.391 c 2.363,7.456 8.843,18.056 14.399,23.556 l 97.89,96.898 c 5.558,5.502 14.605,5.455 20.105,-0.101 l 36.26,-36.63 c 5.504,-5.559 14.503,-14.651 20.005,-20.209 l 36.259,-36.629 c 5.502,-5.56 5.455,-14.606 -0.101,-20.108 z M 67.375,78.783 c -7.198,0 -13.033,-5.835 -13.033,-13.033 0,-7.197 5.835,-13.033 13.033,-13.033 7.197,0 13.033,5.835 13.033,13.033 -0.001,7.198 -5.836,13.033 -13.033,13.033 z" />
    </clipPath>
    <linearGradient
       id="SVGID_7_"
       gradientUnits="userSpaceOnUse"
       x1="128.46919"
       y1="247.29691"
       x2="128.46919"
       y2="5.5654001"
       gradientTransform="matrix(0.54128359,-0.02028415,0.02039255,0.54128358,-116.24106,-103.53379)">
      <stop
         offset="0"
         style="stop-color:#39B54A"
         id="stop31" />
      <stop
         offset="0.0817"
         style="stop-color:#45B748"
         id="stop33" />
      <stop
         offset="0.329"
         style="stop-color:#64BE44"
         id="stop35" />
      <stop
         offset="0.5693"
         style="stop-color:#7BC241"
         id="stop37" />
      <stop
         offset="0.7973"
         style="stop-color:#88C540"
         id="stop39" />
      <stop
         offset="1"
         style="stop-color:#8DC63F"
         id="stop41" />
    </linearGradient>
    <linearGradient
       id="SVGID_8_"
       gradientUnits="userSpaceOnUse"
       x1="518.16687"
       y1="703.70581"
       x2="489.56516"
       y2="183.85011"
       gradientTransform="matrix(0.54128359,-0.02028415,0.02039255,0.54128358,-116.24106,-103.53379)">
      <stop
         offset="0"
         style="stop-color:#008080;stop-opacity:1;"
         id="stop46" />
      <stop
         offset="0.0357"
         style="stop-color:#006838;stop-opacity:0.8587"
         id="stop48" />
      <stop
         offset="0.2527"
         style="stop-color:#008080;stop-opacity:1"
         id="stop50" />
    </linearGradient>
    <linearGradient
       id="SVGID_9_"
       gradientUnits="userSpaceOnUse"
       x1="136.6797"
       y1="229.4668"
       x2="136.6797"
       y2="39.945801"
       gradientTransform="matrix(0.54128359,-0.02028415,0.02039255,0.54128358,-116.24106,-103.53379)">
      <stop
         offset="0"
         style="stop-color:#E6E7E8"
         id="stop59-5" />
      <stop
         offset="1"
         style="stop-color:#FFFFFF"
         id="stop61-3" />
    </linearGradient>
    <clipPath
       id="clipPath1"
       clip-path="url(#SVGID_5_)">
      <path
         id="use1"
         d="M 245.46,129.523 147.569,32.625 c -5.556,-5.502 -16.222,-11.873 -23.7,-14.16 L 84.351,6.382 C 76.872,4.096 66.255,6.773 60.752,12.33 L 47.311,25.908 c -5.5,5.559 -14.502,14.653 -20.005,20.21 l -13.44,13.579 c -5.5,5.558 -8.07,16.206 -5.706,23.658 l 12.483,39.391 c 2.363,7.456 8.843,18.056 14.399,23.556 l 97.89,96.898 c 5.558,5.502 14.605,5.455 20.105,-0.101 l 36.26,-36.63 c 5.504,-5.559 14.503,-14.651 20.005,-20.209 l 36.259,-36.629 c 5.502,-5.56 5.455,-14.606 -0.101,-20.108 z M 67.375,78.783 c -7.198,0 -13.033,-5.835 -13.033,-13.033 0,-7.197 5.835,-13.033 13.033,-13.033 7.197,0 13.033,5.835 13.033,13.033 -0.001,7.198 -5.836,13.033 -13.033,13.033 z" />
    </clipPath>
    <clipPath
       id="clipPath2"
       clip-path="url(#SVGID_5_)">
      <path
         id="use2"
         d="M 245.46,129.523 147.569,32.625 c -5.556,-5.502 -16.222,-11.873 -23.7,-14.16 L 84.351,6.382 C 76.872,4.096 66.255,6.773 60.752,12.33 L 47.311,25.908 c -5.5,5.559 -14.502,14.653 -20.005,20.21 l -13.44,13.579 c -5.5,5.558 -8.07,16.206 -5.706,23.658 l 12.483,39.391 c 2.363,7.456 8.843,18.056 14.399,23.556 l 97.89,96.898 c 5.558,5.502 14.605,5.455 20.105,-0.101 l 36.26,-36.63 c 5.504,-5.559 14.503,-14.651 20.005,-20.209 l 36.259,-36.629 c 5.502,-5.56 5.455,-14.606 -0.101,-20.108 z M 67.375,78.783 c -7.198,0 -13.033,-5.835 -13.033,-13.033 0,-7.197 5.835,-13.033 13.033,-13.033 7.197,0 13.033,5.835 13.033,13.033 -0.001,7.198 -5.836,13.033 -13.033,13.033 z" />
    </clipPath>
    <clipPath
       id="clipPath3"
       clip-path="url(#SVGID_5_)">
      <path
         id="use3"
         d="M 245.46,129.523 147.569,32.625 c -5.556,-5.502 -16.222,-11.873 -23.7,-14.16 L 84.351,6.382 C 76.872,4.096 66.255,6.773 60.752,12.33 L 47.311,25.908 c -5.5,5.559 -14.502,14.653 -20.005,20.21 l -13.44,13.579 c -5.5,5.558 -8.07,16.206 -5.706,23.658 l 12.483,39.391 c 2.363,7.456 8.843,18.056 14.399,23.556 l 97.89,96.898 c 5.558,5.502 14.605,5.455 20.105,-0.101 l 36.26,-36.63 c 5.504,-5.559 14.503,-14.651 20.005,-20.209 l 36.259,-36.629 c 5.502,-5.56 5.455,-14.606 -0.101,-20.108 z M 67.375,78.783 c -7.198,0 -13.033,-5.835 -13.033,-13.033 0,-7.197 5.835,-13.033 13.033,-13.033 7.197,0 13.033,5.835 13.033,13.033 -0.001,7.198 -5.836,13.033 -13.033,13.033 z" />
    </clipPath>
    <clipPath
       id="clipPath4"
       clip-path="url(#SVGID_5_)">
      <path
         id="use4"
         d="M 245.46,129.523 147.569,32.625 c -5.556,-5.502 -16.222,-11.873 -23.7,-14.16 L 84.351,6.382 C 76.872,4.096 66.255,6.773 60.752,12.33 L 47.311,25.908 c -5.5,5.559 -14.502,14.653 -20.005,20.21 l -13.44,13.579 c -5.5,5.558 -8.07,16.206 -5.706,23.658 l 12.483,39.391 c 2.363,7.456 8.843,18.056 14.399,23.556 l 97.89,96.898 c 5.558,5.502 14.605,5.455 20.105,-0.101 l 36.26,-36.63 c 5.504,-5.559 14.503,-14.651 20.005,-20.209 l 36.259,-36.629 c 5.502,-5.56 5.455,-14.606 -0.101,-20.108 z M 67.375,78.783 c -7.198,0 -13.033,-5.835 -13.033,-13.033 0,-7.197 5.835,-13.033 13.033,-13.033 7.197,0 13.033,5.835 13.033,13.033 -0.001,7.198 -5.836,13.033 -13.033,13.033 z" />
    </clipPath>
    <clipPath
       id="clipPath5"
       clip-path="url(#SVGID_5_)">
      <path
         id="use5"
         d="M 245.46,129.523 147.569,32.625 c -5.556,-5.502 -16.222,-11.873 -23.7,-14.16 L 84.351,6.382 C 76.872,4.096 66.255,6.773 60.752,12.33 L 47.311,25.908 c -5.5,5.559 -14.502,14.653 -20.005,20.21 l -13.44,13.579 c -5.5,5.558 -8.07,16.206 -5.706,23.658 l 12.483,39.391 c 2.363,7.456 8.843,18.056 14.399,23.556 l 97.89,96.898 c 5.558,5.502 14.605,5.455 20.105,-0.101 l 36.26,-36.63 c 5.504,-5.559 14.503,-14.651 20.005,-20.209 l 36.259,-36.629 c 5.502,-5.56 5.455,-14.606 -0.101,-20.108 z M 67.375,78.783 c -7.198,0 -13.033,-5.835 -13.033,-13.033 0,-7.197 5.835,-13.033 13.033,-13.033 7.197,0 13.033,5.835 13.033,13.033 -0.001,7.198 -5.836,13.033 -13.033,13.033 z" />
    </clipPath>
    <clipPath
       id="clipPath6"
       clip-path="url(#SVGID_5_)">
      <path
         id="use6"
         d="M 245.46,129.523 147.569,32.625 c -5.556,-5.502 -16.222,-11.873 -23.7,-14.16 L 84.351,6.382 C 76.872,4.096 66.255,6.773 60.752,12.33 L 47.311,25.908 c -5.5,5.559 -14.502,14.653 -20.005,20.21 l -13.44,13.579 c -5.5,5.558 -8.07,16.206 -5.706,23.658 l 12.483,39.391 c 2.363,7.456 8.843,18.056 14.399,23.556 l 97.89,96.898 c 5.558,5.502 14.605,5.455 20.105,-0.101 l 36.26,-36.63 c 5.504,-5.559 14.503,-14.651 20.005,-20.209 l 36.259,-36.629 c 5.502,-5.56 5.455,-14.606 -0.101,-20.108 z M 67.375,78.783 c -7.198,0 -13.033,-5.835 -13.033,-13.033 0,-7.197 5.835,-13.033 13.033,-13.033 7.197,0 13.033,5.835 13.033,13.033 -0.001,7.198 -5.836,13.033 -13.033,13.033 z" />
    </clipPath>
    <clipPath
       id="clipPath7"
       clip-path="url(#SVGID_5_)">
      <path
         id="use7"
         d="M 245.46,129.523 147.569,32.625 c -5.556,-5.502 -16.222,-11.873 -23.7,-14.16 L 84.351,6.382 C 76.872,4.096 66.255,6.773 60.752,12.33 L 47.311,25.908 c -5.5,5.559 -14.502,14.653 -20.005,20.21 l -13.44,13.579 c -5.5,5.558 -8.07,16.206 -5.706,23.658 l 12.483,39.391 c 2.363,7.456 8.843,18.056 14.399,23.556 l 97.89,96.898 c 5.558,5.502 14.605,5.455 20.105,-0.101 l 36.26,-36.63 c 5.504,-5.559 14.503,-14.651 20.005,-20.209 l 36.259,-36.629 c 5.502,-5.56 5.455,-14.606 -0.101,-20.108 z M 67.375,78.783 c -7.198,0 -13.033,-5.835 -13.033,-13.033 0,-7.197 5.835,-13.033 13.033,-13.033 7.197,0 13.033,5.835 13.033,13.033 -0.001,7.198 -5.836,13.033 -13.033,13.033 z" />
    </clipPath>
    <linearGradient
       id="SVGID_10_"
       gradientUnits="userSpaceOnUse"
       x1="67.374496"
       y1="87.669403"
       x2="67.374496"
       y2="43.831501"
       gradientTransform="matrix(0.54128359,-0.02028415,0.02039255,0.54128358,-116.24106,-103.53379)">
      <stop
         offset="0"
         style="stop-color:#777777"
         id="stop104" />
      <stop
         offset="0.2068"
         style="stop-color:#7C7C7C"
         id="stop106" />
      <stop
         offset="0.4394"
         style="stop-color:#898989"
         id="stop108" />
      <stop
         offset="0.6845"
         style="stop-color:#A0A0A0"
         id="stop110" />
      <stop
         offset="0.9368"
         style="stop-color:#BFBFBF"
         id="stop112" />
      <stop
         offset="1"
         style="stop-color:#C8C8C8"
         id="stop114" />
    </linearGradient>
    <clipPath
       id="clipPath8"
       clip-path="url(#SVGID_5_)">
      <path
         id="use8"
         d="M 245.46,129.523 147.569,32.625 c -5.556,-5.502 -16.222,-11.873 -23.7,-14.16 L 84.351,6.382 C 76.872,4.096 66.255,6.773 60.752,12.33 L 47.311,25.908 c -5.5,5.559 -14.502,14.653 -20.005,20.21 l -13.44,13.579 c -5.5,5.558 -8.07,16.206 -5.706,23.658 l 12.483,39.391 c 2.363,7.456 8.843,18.056 14.399,23.556 l 97.89,96.898 c 5.558,5.502 14.605,5.455 20.105,-0.101 l 36.26,-36.63 c 5.504,-5.559 14.503,-14.651 20.005,-20.209 l 36.259,-36.629 c 5.502,-5.56 5.455,-14.606 -0.101,-20.108 z M 67.375,78.783 c -7.198,0 -13.033,-5.835 -13.033,-13.033 0,-7.197 5.835,-13.033 13.033,-13.033 7.197,0 13.033,5.835 13.033,13.033 -0.001,7.198 -5.836,13.033 -13.033,13.033 z" />
    </clipPath>
    <linearGradient
       id="SVGID_11_"
       gradientUnits="userSpaceOnUse"
       x1="67.374496"
       y1="82.337898"
       x2="67.374496"
       y2="49.163601"
       gradientTransform="matrix(0.54128359,-0.02028415,0.02039255,0.54128358,-116.24106,-103.53379)">
      <stop
         offset="0"
         style="stop-color:#C8C8C8"
         id="stop125" />
      <stop
         offset="0.0632"
         style="stop-color:#BFBFBF"
         id="stop127" />
      <stop
         offset="0.3155"
         style="stop-color:#A0A0A0"
         id="stop129" />
      <stop
         offset="0.5606"
         style="stop-color:#898989"
         id="stop131" />
      <stop
         offset="0.7932"
         style="stop-color:#7C7C7C"
         id="stop133" />
      <stop
         offset="1"
         style="stop-color:#777777"
         id="stop135" />
    </linearGradient>
    <clipPath
       id="clipPath9"
       clip-path="url(#SVGID_5_)">
      <path
         id="use9"
         d="M 245.46,129.523 147.569,32.625 c -5.556,-5.502 -16.222,-11.873 -23.7,-14.16 L 84.351,6.382 C 76.872,4.096 66.255,6.773 60.752,12.33 L 47.311,25.908 c -5.5,5.559 -14.502,14.653 -20.005,20.21 l -13.44,13.579 c -5.5,5.558 -8.07,16.206 -5.706,23.658 l 12.483,39.391 c 2.363,7.456 8.843,18.056 14.399,23.556 l 97.89,96.898 c 5.558,5.502 14.605,5.455 20.105,-0.101 l 36.26,-36.63 c 5.504,-5.559 14.503,-14.651 20.005,-20.209 l 36.259,-36.629 c 5.502,-5.56 5.455,-14.606 -0.101,-20.108 z M 67.375,78.783 c -7.198,0 -13.033,-5.835 -13.033,-13.033 0,-7.197 5.835,-13.033 13.033,-13.033 7.197,0 13.033,5.835 13.033,13.033 -0.001,7.198 -5.836,13.033 -13.033,13.033 z" />
    </clipPath>
    <clipPath
       id="clipPath10"
       clip-path="url(#SVGID_5_)">
      <path
         id="use10"
         d="M 245.46,129.523 147.569,32.625 c -5.556,-5.502 -16.222,-11.873 -23.7,-14.16 L 84.351,6.382 C 76.872,4.096 66.255,6.773 60.752,12.33 L 47.311,25.908 c -5.5,5.559 -14.502,14.653 -20.005,20.21 l -13.44,13.579 c -5.5,5.558 -8.07,16.206 -5.706,23.658 l 12.483,39.391 c 2.363,7.456 8.843,18.056 14.399,23.556 l 97.89,96.898 c 5.558,5.502 14.605,5.455 20.105,-0.101 l 36.26,-36.63 c 5.504,-5.559 14.503,-14.651 20.005,-20.209 l 36.259,-36.629 c 5.502,-5.56 5.455,-14.606 -0.101,-20.108 z M 67.375,78.783 c -7.198,0 -13.033,-5.835 -13.033,-13.033 0,-7.197 5.835,-13.033 13.033,-13.033 7.197,0 13.033,5.835 13.033,13.033 -0.001,7.198 -5.836,13.033 -13.033,13.033 z" />
    </clipPath>
    <path
       id="path2260"
       d="M 245.46,129.523 147.569,32.625 c -5.556,-5.502 -16.222,-11.873 -23.7,-14.16 L 84.351,6.382 C 76.872,4.096 66.255,6.773 60.752,12.33 L 47.311,25.908 c -5.5,5.559 -14.502,14.653 -20.005,20.21 l -13.44,13.579 c -5.5,5.558 -8.07,16.206 -5.706,23.658 l 12.483,39.391 c 2.363,7.456 8.843,18.056 14.399,23.556 l 97.89,96.898 c 5.558,5.502 14.605,5.455 20.105,-0.101 l 36.26,-36.63 c 5.504,-5.559 14.503,-14.651 20.005,-20.209 l 36.259,-36.629 c 5.502,-5.56 5.455,-14.606 -0.101,-20.108 z M 67.375,78.783 c -7.198,0 -13.033,-5.835 -13.033,-13.033 0,-7.197 5.835,-13.033 13.033,-13.033 7.197,0 13.033,5.835 13.033,13.033 -0.001,7.198 -5.836,13.033 -13.033,13.033 z" />
    <path
       id="path2263"
       d="M 245.46,129.523 147.569,32.625 c -5.556,-5.502 -16.222,-11.873 -23.7,-14.16 L 84.351,6.382 C 76.872,4.096 66.255,6.773 60.752,12.33 L 47.311,25.908 c -5.5,5.559 -14.502,14.653 -20.005,20.21 l -13.44,13.579 c -5.5,5.558 -8.07,16.206 -5.706,23.658 l 12.483,39.391 c 2.363,7.456 8.843,18.056 14.399,23.556 l 97.89,96.898 c 5.558,5.502 14.605,5.455 20.105,-0.101 l 36.26,-36.63 c 5.504,-5.559 14.503,-14.651 20.005,-20.209 l 36.259,-36.629 c 5.502,-5.56 5.455,-14.606 -0.101,-20.108 z M 67.375,78.783 c -7.198,0 -13.033,-5.835 -13.033,-13.033 0,-7.197 5.835,-13.033 13.033,-13.033 7.197,0 13.033,5.835 13.033,13.033 -0.001,7.198 -5.836,13.033 -13.033,13.033 z" />
    <linearGradient
       inkscape:collect="always"
       xlink:href="#linearGradient11"
       id="linearGradient990"
       x1="-12.025727"
       y1="6.1170783"
       x2="-0.085100174"
       y2="6.1170783"
       gradientUnits="userSpaceOnUse" />
    <linearGradient
       inkscape:collect="always"
       xlink:href="#c-3"
       id="linearGradient459-5-5"
       gradientUnits="userSpaceOnUse"
       gradientTransform="matrix(1.0868333,0,0,1.0893998,3.5364775,1.1329194)"
       x1="-14.65"
       y1="9.1780005"
       x2="-6.4299998"
       y2="17.521999" />
    <linearGradient
       id="c-3"
       y1="9.1780005"
       x1="-14.65"
       y2="17.521999"
       x2="-6.4299998"
       gradientUnits="userSpaceOnUse"
       gradientTransform="translate(1.01,-1.022)">
      <stop
         id="stop240" />
      <stop
         offset="1"
         stop-opacity="0"
         id="stop242" />
    </linearGradient>
    <linearGradient
       id="a"
       y1="36.389999"
       x1="-2.994"
       y2="23.839001"
       x2="-19.1"
       gradientUnits="userSpaceOnUse"
       gradientTransform="matrix(0.99317,0,0,0.97839,66.870525,3.1089948)">
      <stop
         stop-color="#95a5a6"
         id="stop1166" />
      <stop
         offset="1"
         stop-color="#eff0f1"
         id="stop1168" />
    </linearGradient>
  </defs>
  <sodipodi:namedview
     id="namedview14"
     pagecolor="#000000"
     bordercolor="#666666"
     borderopacity="1.0"
     inkscape:showpageshadow="2"
     inkscape:pageopacity="0.0"
     inkscape:pagecheckerboard="0"
     inkscape:deskcolor="#d1d1d1"
     showgrid="false"
     inkscape:zoom="7.809884"
     inkscape:cx="61.597145"
     inkscape:cy="35.700059"
     inkscape:window-width="1920"
     inkscape:window-height="988"
     inkscape:window-x="0"
     inkscape:window-y="0"
     inkscape:window-maximized="1"
     inkscape:current-layer="svg12"
     inkscape:document-rotation="0">
    <inkscape:grid
       type="xygrid"
       id="grid244"
       originx="9.9594769"
       originy="-31.57929"
       spacingy="1"
       spacingx="1"
       units="px"
       visible="false" />
  </sodipodi:namedview>
  <rect
     x="-12.194976"
     y="0.32004508"
     width="11.940627"
     height="11.936014"
     rx="1.6121091"
     shape-rendering="crispEdges"
     id="rect5-6-7-3"
     ry="1.7735944"
     transform="matrix(0.00523883,-0.99998628,0.999988,0.00489859,0,0)"
     style="fill:#80b3ff;fill-opacity:0.15;stroke:url(#linearGradient990);stroke-width:0.5291563;stroke-miterlimit:4;stroke-dasharray:none;stroke-opacity:1" />
  <rect
     x="-3.7202365"
     y="4.8851409"
     width="7.912631"
     height="7.912384"
     rx="1.612043"
     shape-rendering="crispEdges"
     id="rect5-6-6-6-6"
     style="fill:#80b3ff;fill-opacity:0.122146;stroke:url(#linearGradient5);stroke-width:0.18890881;stroke-opacity:1;stroke-miterlimit:4;stroke-dasharray:none"
     ry="1.7735215"
     transform="matrix(0.72612649,-0.68756114,0.6879775,0.72573202,0,0)" />
  <g
     fill-rule="evenodd"
     stroke-width="1.10333"
     id="g31-2-7"
     transform="matrix(0.23035579,0,0,0.22470911,11.310198,1.9409541)">
    <path
       opacity="0.2"
       fill="url(#c)"
       d="m -12.06,7.293 -3.02,20.442 6.751,6.853 c 1.063,-0.939 2.311,-3.634 2.311,-5.304 V 13.426 Z"
       id="path29-1-9"
       style="fill:url(#linearGradient459-5-5);stroke-width:1.10333" />
  </g>
  <g
     stroke-linejoin="bevel"
     stroke-width="2.17623"
     id="g37-2-3"
     transform="matrix(0.23035579,0,0,0.22470911,11.310198,2.1838192)">
    <path
       fill="#ffffff"
       d="m -27.16,5.249 c -4.03,0 -7.05,2.044 -7.05,11.754 0,8.01 2.149,10.798 5.086,11.53 0.524,6.17 6.997,4.312 6.997,4.312 v -2.044 c 0,0 -2.611,0.88 -2.975,-2.29 2.888,-0.769 4.989,-3.586 4.989,-11.508 0,-9.71 -3.02,-11.754 -7.05,-11.754 m 0,2.044 c 2.01,0 3.02,1.689 3.02,9.71 0,8.02 -1.01,9.71 -3.02,9.71 -2.01,0 -3.02,-1.689 -3.02,-9.71 0,-8.02 1.01,-9.71 3.02,-9.71"
       id="path33-7-6"
       style="stroke-width:2.17623" />
  </g>
  <path
     fill="#ffffff"
     fill-rule="evenodd"
     stroke-width="0.25103"
     d="m 7.8364345,3.8226246 h 0.6956584 v 0.9186088 h 0.463032 v 0.4593098 h -0.463032 v 2.5263996 c 0,0.4593089 0.463032,0.1148292 0.463032,0.1148292 v 0.4593046 c 0,0 -1.391354,0.8037827 -1.391354,-0.5741338 V 5.2005432 H 7.3711093 V 4.7412334 h 0.2326616 z"
     id="path39-0-0" />
  <path
     fill="#ffffff"
     d="m 9.3980802,9.1572394 c 0,-0.1710244 0.113811,-0.2861989 0.273857,-0.2861989 h 0.5905058 c 0.796904,0 1.252262,0.5351238 1.252262,1.3600455 0,0.780334 -0.48381,1.285737 -1.216697,1.285737 H 9.6790502 c -0.117367,0 -0.28097,-0.067 -0.28097,-0.278649 z M 9.9316831,11.00399 h 0.3593289 c 0.458912,0 0.66875,-0.352956 0.66875,-0.798913 0,-0.4756789 -0.213278,-0.8212037 -0.704316,-0.8212037 H 9.9316831 Z"
     id="path4"
     style="stroke-width:0.130444" />
</svg>
