<?xml version="1.0" encoding="UTF-8" standalone="no"?>
<svg
   width="47.285591"
   height="47.28569"
   version="1.1"
   viewBox="0 0 12.510734 12.51076"
   id="svg12"
   sodipodi:docname="deskreen.svg"
   inkscape:version="1.4.2 (unknown)"
   xmlns:inkscape="http://www.inkscape.org/namespaces/inkscape"
   xmlns:sodipodi="http://sodipodi.sourceforge.net/DTD/sodipodi-0.dtd"
   xmlns:xlink="http://www.w3.org/1999/xlink"
   xmlns="http://www.w3.org/2000/svg"
   xmlns:svg="http://www.w3.org/2000/svg"
   xmlns:rdf="http://www.w3.org/1999/02/22-rdf-syntax-ns#"
   xmlns:cc="http://creativecommons.org/ns#"
   xmlns:dc="http://purl.org/dc/elements/1.1/">
  <style
     id="style899" />
  <metadata
     id="metadata74">
    <rdf:RDF>
      <cc:Work
         rdf:about="">
        <dc:format>image/svg+xml</dc:format>
        <dc:type
           rdf:resource="http://purl.org/dc/dcmitype/StillImage" />
      </cc:Work>
    </rdf:RDF>
  </metadata>
  <defs
     id="defs16">
    <linearGradient
       id="c"
       y1="523.79999"
       x1="403.57001"
       y2="536.79999"
       x2="416.57001"
       gradientUnits="userSpaceOnUse"
       gradientTransform="matrix(0.34526714,0,0,0.34526706,-134.80427,-174.63325)">
      <stop
         stop-color="#292c2f"
         id="stop1568" />
      <stop
         offset="1"
         stop-opacity="0"
         id="stop1570" />
    </linearGradient>
    <linearGradient
       xlink:href="#b-2"
       id="linearGradient4189"
       x1="14.369"
       y1="22.521999"
       x2="26.521999"
       y2="22.521999"
       gradientUnits="userSpaceOnUse" />
    <linearGradient
       x1="36"
       gradientUnits="userSpaceOnUse"
       x2="14"
       y2="12"
       y1="44"
       id="b-2">
      <stop
         style="stop-color:#bfc9c9;stop-opacity:1"
         stop-color="#536161"
         id="stop1579" />
      <stop
         style="stop-color:#fbfbfb;stop-opacity:1"
         stop-color="#f4f5f5"
         offset="1"
         id="stop1581" />
    </linearGradient>
    <linearGradient
       xlink:href="#b-2"
       id="linearGradient4428"
       gradientUnits="userSpaceOnUse"
       x1="31.586"
       y1="36.345001"
       x2="1.2029999"
       y2="6.723" />
    <linearGradient
       xlink:href="#b-2"
       id="linearGradient4189-3"
       x1="14.369"
       y1="22.521999"
       x2="26.521999"
       y2="22.521999"
       gradientUnits="userSpaceOnUse"
       gradientTransform="translate(20.841982,61.553822)" />
    <linearGradient
       xlink:href="#b-2"
       id="linearGradient4428-5"
       gradientUnits="userSpaceOnUse"
       x1="31.586"
       y1="36.345001"
       x2="1.2029999"
       y2="6.723"
       gradientTransform="translate(20.841982,61.553822)" />
    <linearGradient
       xlink:href="#b-2"
       id="linearGradient4189-3-3"
       x1="14.369"
       y1="22.521999"
       x2="26.521999"
       y2="22.521999"
       gradientUnits="userSpaceOnUse"
       gradientTransform="translate(4.376802,4.4211693)" />
    <linearGradient
       xlink:href="#b-2"
       id="linearGradient4428-5-5"
       gradientUnits="userSpaceOnUse"
       x1="31.586"
       y1="36.345001"
       x2="1.2029999"
       y2="6.723"
       gradientTransform="translate(4.376802,4.4211693)" />
    <linearGradient
       inkscape:collect="always"
       xlink:href="#linearGradient14"
       id="linearGradient15"
       x1="-9.6850061"
       y1="45.161198"
       x2="11.98815"
       y2="21.735205"
       gradientUnits="userSpaceOnUse"
       gradientTransform="scale(0.26457813)" />
    <linearGradient
       id="linearGradient14"
       inkscape:collect="always">
      <stop
         style="stop-color:#ff9900;stop-opacity:0.34509805;"
         offset="0"
         id="stop12" />
      <stop
         style="stop-color:#ffb685;stop-opacity:0.81568629;"
         offset="1"
         id="stop13" />
    </linearGradient>
    <filter
       id="filter2917-3"
       x="-0.96181148"
       y="-0.66745996"
       width="2.9236228"
       height="2.3349199"
       color-interpolation-filters="sRGB">
      <feGaussianBlur
         stdDeviation="0.2871969"
         id="feGaussianBlur732-5" />
    </filter>
    <filter
       id="filter1"
       x="-0.96181148"
       y="-0.66745996"
       width="2.9236228"
       height="2.3349199"
       color-interpolation-filters="sRGB">
      <feGaussianBlur
         stdDeviation="0.2871969"
         id="feGaussianBlur1" />
    </filter>
    <filter
       id="filter2"
       x="-0.96181148"
       y="-0.66745996"
       width="2.9236228"
       height="2.3349199"
       color-interpolation-filters="sRGB">
      <feGaussianBlur
         stdDeviation="0.2871969"
         id="feGaussianBlur2" />
    </filter>
    <linearGradient
       id="_lgradient_20"
       x1="-0.29991642"
       y1="-0.26140401"
       x2="0.96725708"
       y2="0.86616999"
       gradientTransform="matrix(15.137397,0,0,16.82717,0.89780187,0.05291536)"
       gradientUnits="userSpaceOnUse">
      <stop
         offset="34.94098066785295%"
         stop-opacity="1"
         style="stop-color:rgb(178,229,107)"
         id="stop1" />
      <stop
         offset="53.84922244785295%"
         stop-opacity="1"
         style="stop-color:rgb(194,233,100)"
         id="stop2" />
      <stop
         offset="90.40515655585295%"
         stop-opacity="1"
         style="stop-color:rgb(236,244,81)"
         id="stop3" />
      <stop
         offset="100%"
         stop-opacity="1"
         style="stop-color:rgb(250,247,75)"
         id="stop4" />
    </linearGradient>
    <linearGradient
       id="b-2-5"
       y1="35.825909"
       y2="-4.1468086"
       gradientUnits="userSpaceOnUse"
       x2="1.525889"
       gradientTransform="matrix(0.18808708,0,0,0.18779368,2.9505234,2.8105876)"
       x1="0.19073613">
      <stop
         stop-color="#d35400"
         id="stop7-9-6"
         offset="0"
         style="stop-color:#ff9e5e;stop-opacity:1;" />
      <stop
         offset="1"
         stop-color="#f67400"
         stop-opacity=".941"
         id="stop9-1-2" />
    </linearGradient>
    <linearGradient
       id="linearGradient4308">
      <stop
         style="stop-color:#884d2c;stop-opacity:1"
         offset="0"
         id="stop363" />
      <stop
         style="stop-color:#ffc169;stop-opacity:1"
         offset="1"
         id="stop365" />
    </linearGradient>
    <linearGradient
       id="linearGradient4513">
      <stop
         style="stop-color:#000000;stop-opacity:1;"
         offset="0"
         id="stop353" />
      <stop
         style="stop-color:#000000;stop-opacity:0;"
         offset="1"
         id="stop355" />
    </linearGradient>
    <linearGradient
       id="linearGradient4325">
      <stop
         offset="0"
         style="stop-color:#2a2c2f;stop-opacity:1"
         id="stop358" />
      <stop
         offset="1"
         style="stop-color:#424649;stop-opacity:1"
         id="stop360" />
    </linearGradient>
    <linearGradient
       id="a"
       gradientUnits="userSpaceOnUse"
       x1="25"
       x2="25"
       y1="6"
       y2="26">
      <stop
         offset="0"
         id="stop1047" />
      <stop
         offset="1"
         stop-color="#292c2f"
         id="stop1049" />
    </linearGradient>
    <linearGradient
       inkscape:collect="always"
       xlink:href="#linearGradient4308"
       id="linearGradient907"
       x1="-12.025727"
       y1="6.1170783"
       x2="-0.085100174"
       y2="6.1170783"
       gradientUnits="userSpaceOnUse" />
    <linearGradient
       id="linearGradient4"
       inkscape:collect="always">
      <stop
         style="stop-color:#ffdd55;stop-opacity:1;"
         offset="0"
         id="stop4-3" />
      <stop
         style="stop-color:#ff5555;stop-opacity:1"
         offset="1"
         id="stop5" />
    </linearGradient>
    <linearGradient
       inkscape:collect="always"
       xlink:href="#linearGradient4"
       id="linearGradient3480"
       x1="10.2306"
       y1="512.00641"
       x2="1013.7506"
       y2="512.00641"
       gradientUnits="userSpaceOnUse" />
    <linearGradient
       inkscape:collect="always"
       xlink:href="#linearGradient1"
       id="linearGradient2"
       x1="34.921291"
       y1="14"
       x2="35.330322"
       y2="47"
       gradientUnits="userSpaceOnUse"
       gradientTransform="matrix(0.31251444,0,0,0.31486985,14.101882,-1.1946119)" />
    <linearGradient
       id="linearGradient1"
       inkscape:collect="always">
      <stop
         style="stop-color:#ffc433;stop-opacity:1;"
         offset="0"
         id="stop1-3" />
      <stop
         style="stop-color:#ffe680;stop-opacity:1"
         offset="1"
         id="stop2-36" />
    </linearGradient>
  </defs>
  <sodipodi:namedview
     id="namedview14"
     pagecolor="#000000"
     bordercolor="#666666"
     borderopacity="1.0"
     inkscape:showpageshadow="2"
     inkscape:pageopacity="0.0"
     inkscape:pagecheckerboard="0"
     inkscape:deskcolor="#d1d1d1"
     showgrid="false"
     inkscape:zoom="11.044844"
     inkscape:cx="50.566581"
     inkscape:cy="30.104545"
     inkscape:window-width="1920"
     inkscape:window-height="988"
     inkscape:window-x="0"
     inkscape:window-y="0"
     inkscape:window-maximized="1"
     inkscape:current-layer="svg12"
     inkscape:document-rotation="0">
    <inkscape:grid
       type="xygrid"
       id="grid244"
       originx="9.9594769"
       originy="-31.57929"
       spacingy="1"
       spacingx="1"
       units="px"
       visible="false" />
  </sodipodi:namedview>
  <rect
     x="-12.194976"
     y="0.32004508"
     width="11.940627"
     height="11.936014"
     rx="1.6121091"
     shape-rendering="crispEdges"
     id="rect5-6-7-3"
     ry="1.7735944"
     transform="matrix(0.00523883,-0.99998628,0.999988,0.00489859,0,0)"
     style="fill:#ffe0cc;fill-opacity:0.0980392;stroke:url(#linearGradient907);stroke-width:0.5291563;stroke-miterlimit:4;stroke-dasharray:none;stroke-opacity:1" />
  <rect
     x="-3.7202365"
     y="4.8851409"
     width="7.912631"
     height="7.912384"
     rx="1.612043"
     shape-rendering="crispEdges"
     id="rect5-6-6-6-6"
     style="fill:#ffc299;fill-opacity:0.101961;stroke:url(#linearGradient15);stroke-width:0.39686725;stroke-opacity:1;stroke-miterlimit:4;stroke-dasharray:none"
     ry="1.7735215"
     transform="matrix(0.72612649,-0.68756114,0.6879775,0.72573202,0,0)" />
  <g
     id="g1"
     transform="matrix(0.92499962,0,0,0.91666666,-13.940563,0.56941632)"
     style="stroke-width:1.08599">
    <path
       style="opacity:0.2;stroke-width:0.313689"
       d="m 19.876097,3.3234382 a 0.28595859,0.27243868 0 0 0 -0.285929,0.2724707 v 5.6125134 a 0.28595859,0.27243868 0 0 0 0.285929,0.2724709 h 1.642067 c 1.017337,0 1.853887,-0.2566539 2.455467,-0.7888485 0.613018,-0.5427457 0.907915,-1.3469715 0.907915,-2.3451243 0,-0.6361129 -0.124382,-1.1867467 -0.390034,-1.6404599 v -0.0012 C 24.229244,4.2522651 23.845288,3.9001074 23.362724,3.6673253 22.881354,3.4351142 22.320513,3.3234484 21.691187,3.3234484 Z m 1.085918,1.3469438 h 0.660266 c 0.641616,0 1.090943,0.1421193 1.403606,0.4055106 a 0.27797856,0.24465779 0 0 0 0.0034,0.00184 c 0.306309,0.2505896 0.480756,0.6633682 0.480756,1.2958252 0,0.6266057 -0.176132,1.051827 -0.497595,1.328904 -0.321493,0.2770817 -0.819932,0.4314476 -1.549854,0.4314476 h -0.500327 z"
       id="path2-3" />
    <path
       style="fill:url(#linearGradient2);stroke-width:0.313689"
       d="m 19.876097,3.1310177 a 0.28595859,0.27243868 0 0 0 -0.285929,0.2724702 v 5.6125142 a 0.28595859,0.27243868 0 0 0 0.285929,0.2724708 h 1.642067 c 1.017337,0 1.853887,-0.2566539 2.455467,-0.7888483 0.613018,-0.5427462 0.907915,-1.3469713 0.907915,-2.3451248 0,-0.6361134 -0.124382,-1.1867474 -0.390034,-1.6404599 v -0.0012 C 24.229244,4.0598403 23.845288,3.7076813 23.362724,3.4748993 22.881354,3.2426898 22.320513,3.1310233 21.691187,3.1310233 Z m 1.085918,1.346943 h 0.660266 c 0.641616,0 1.090943,0.1421208 1.403606,0.4055116 a 0.27797856,0.24465779 0 0 0 0.0034,0.00184 c 0.306309,0.2505894 0.480756,0.663368 0.480756,1.2958254 0,0.6266053 -0.176132,1.0518271 -0.497595,1.3289039 -0.321493,0.2770815 -0.819932,0.4314472 -1.549854,0.4314472 h -0.500357 z"
       id="path3-6" />
    <path
       style="opacity:0.2;fill:#ffffff;stroke-width:0.313689"
       d="m 19.876097,3.1310177 a 0.28595859,0.27243868 0 0 0 -0.285929,0.2724702 v 0.192421 a 0.28595859,0.27243868 0 0 1 0.285929,-0.2724707 h 1.81509 c 0.629326,0 1.190167,0.1116671 1.671537,0.3438759 0.482564,0.2327827 0.86652,0.5849489 1.128788,1.0380188 v 0.00121 c 0.253891,0.4336273 0.377562,0.9567052 0.388121,1.5574033 8.21e-4,-0.036365 0.0021,-0.072474 0.0021,-0.1093714 0,-0.6361136 -0.124388,-1.1867475 -0.39004,-1.6404605 v -0.00121 C 24.229244,4.0598341 23.845288,3.7076764 23.362724,3.4748946 22.881354,3.2426836 22.320513,3.1310177 21.691187,3.1310177 Z m 3.632085,3.1459999 c -0.01734,0.5742223 -0.191347,0.9704235 -0.496063,1.2330695 -0.321478,0.2770775 -0.819916,0.4314428 -1.54984,0.4314428 h -0.500264 v 0.1924204 h 0.500264 c 0.729924,0 1.228362,-0.1543653 1.54984,-0.4314429 0.321455,-0.2770769 0.497588,-0.7022984 0.497588,-1.3289042 0,-0.032876 -5.94e-4,-0.064898 -0.0017,-0.096587 z"
       id="path5-7" />
  </g>
</svg>
