<?xml version="1.0" encoding="UTF-8" standalone="no"?>
<svg
   xmlns:dc="http://purl.org/dc/elements/1.1/"
   xmlns:cc="http://creativecommons.org/ns#"
   xmlns:rdf="http://www.w3.org/1999/02/22-rdf-syntax-ns#"
   xmlns:svg="http://www.w3.org/2000/svg"
   xmlns="http://www.w3.org/2000/svg"
   xmlns:xlink="http://www.w3.org/1999/xlink"
   xmlns:sodipodi="http://sodipodi.sourceforge.net/DTD/sodipodi-0.dtd"
   xmlns:inkscape="http://www.inkscape.org/namespaces/inkscape"
   width="47.285591"
   height="47.28569"
   version="1.1"
   viewBox="0 0 12.510734 12.51076"
   id="svg12"
   sodipodi:docname="distributor-logo-ubuntu.svg"
   inkscape:version="1.0.1 (3bc2e813f5, 2020-09-07)">
  <style
     id="style863"></style>
  <metadata
     id="metadata38">
    <rdf:RDF>
      <cc:Work
         rdf:about="">
        <dc:format>image/svg+xml</dc:format>
        <dc:type
           rdf:resource="http://purl.org/dc/dcmitype/StillImage" />
      </cc:Work>
    </rdf:RDF>
  </metadata>
  <defs
     id="defs16">
    <linearGradient
       id="c"
       y1="523.79999"
       x1="403.57001"
       y2="536.79999"
       x2="416.57001"
       gradientUnits="userSpaceOnUse"
       gradientTransform="matrix(0.34526714,0,0,0.34526706,-134.80427,-174.63325)">
      <stop
         stop-color="#292c2f"
         id="stop1568" />
      <stop
         offset="1"
         stop-opacity="0"
         id="stop1570" />
    </linearGradient>
    <linearGradient
       xlink:href="#b-2"
       id="linearGradient4189"
       x1="14.369"
       y1="22.521999"
       x2="26.521999"
       y2="22.521999"
       gradientUnits="userSpaceOnUse" />
    <linearGradient
       x1="36"
       gradientUnits="userSpaceOnUse"
       x2="14"
       y2="12"
       y1="44"
       id="b-2">
      <stop
         style="stop-color:#bfc9c9;stop-opacity:1"
         stop-color="#536161"
         id="stop1579" />
      <stop
         style="stop-color:#fbfbfb;stop-opacity:1"
         stop-color="#f4f5f5"
         offset="1"
         id="stop1581" />
    </linearGradient>
    <linearGradient
       xlink:href="#b-2"
       id="linearGradient4428"
       gradientUnits="userSpaceOnUse"
       x1="31.586"
       y1="36.345001"
       x2="1.2029999"
       y2="6.723" />
    <linearGradient
       xlink:href="#b-2"
       id="linearGradient4189-3"
       x1="14.369"
       y1="22.521999"
       x2="26.521999"
       y2="22.521999"
       gradientUnits="userSpaceOnUse"
       gradientTransform="translate(20.841982,61.553822)" />
    <linearGradient
       xlink:href="#b-2"
       id="linearGradient4428-5"
       gradientUnits="userSpaceOnUse"
       x1="31.586"
       y1="36.345001"
       x2="1.2029999"
       y2="6.723"
       gradientTransform="translate(20.841982,61.553822)" />
    <linearGradient
       xlink:href="#b-2"
       id="linearGradient4189-3-3"
       x1="14.369"
       y1="22.521999"
       x2="26.521999"
       y2="22.521999"
       gradientUnits="userSpaceOnUse"
       gradientTransform="translate(4.376802,4.4211693)" />
    <linearGradient
       xlink:href="#b-2"
       id="linearGradient4428-5-5"
       gradientUnits="userSpaceOnUse"
       x1="31.586"
       y1="36.345001"
       x2="1.2029999"
       y2="6.723"
       gradientTransform="translate(4.376802,4.4211693)" />
    <linearGradient
       inkscape:collect="always"
       xlink:href="#linearGradient14"
       id="linearGradient15"
       x1="-9.6850061"
       y1="45.161198"
       x2="11.98815"
       y2="21.735205"
       gradientUnits="userSpaceOnUse"
       gradientTransform="scale(0.26457813)" />
    <linearGradient
       id="linearGradient14"
       inkscape:collect="always">
      <stop
         style="stop-color:#d462c9;stop-opacity:1;"
         offset="0"
         id="stop12" />
      <stop
         style="stop-color:#cb41be;stop-opacity:1;"
         offset="1"
         id="stop13" />
    </linearGradient>
    <filter
       id="filter2917-3"
       x="-0.96181148"
       y="-0.66745996"
       width="2.9236228"
       height="2.3349199"
       color-interpolation-filters="sRGB">
      <feGaussianBlur
         stdDeviation="0.2871969"
         id="feGaussianBlur732-5" />
    </filter>
    <filter
       id="filter1"
       x="-0.96181148"
       y="-0.66745996"
       width="2.9236228"
       height="2.3349199"
       color-interpolation-filters="sRGB">
      <feGaussianBlur
         stdDeviation="0.2871969"
         id="feGaussianBlur1" />
    </filter>
    <filter
       id="filter2"
       x="-0.96181148"
       y="-0.66745996"
       width="2.9236228"
       height="2.3349199"
       color-interpolation-filters="sRGB">
      <feGaussianBlur
         stdDeviation="0.2871969"
         id="feGaussianBlur2" />
    </filter>
    <linearGradient
       inkscape:collect="always"
       xlink:href="#linearGradient14"
       id="linearGradient871"
       x1="-12.025727"
       y1="6.1170783"
       x2="-0.085100174"
       y2="6.1170783"
       gradientUnits="userSpaceOnUse" />
  </defs>
  <sodipodi:namedview
     id="namedview14"
     pagecolor="#000000"
     bordercolor="#666666"
     borderopacity="1.0"
     inkscape:showpageshadow="2"
     inkscape:pageopacity="0.0"
     inkscape:pagecheckerboard="0"
     inkscape:deskcolor="#d1d1d1"
     showgrid="false"
     inkscape:zoom="6.2611141"
     inkscape:cx="23.845543"
     inkscape:cy="54.335026"
     inkscape:window-width="1920"
     inkscape:window-height="988"
     inkscape:window-x="0"
     inkscape:window-y="0"
     inkscape:window-maximized="1"
     inkscape:current-layer="svg12"
     inkscape:document-rotation="0">
    <inkscape:grid
       type="xygrid"
       id="grid244"
       originx="9.9594769"
       originy="-31.57929"
       spacingy="1"
       spacingx="1"
       units="px"
       visible="false" />
  </sodipodi:namedview>
  <rect
     x="-12.194976"
     y="0.32004508"
     width="11.940627"
     height="11.936014"
     rx="1.6121091"
     shape-rendering="crispEdges"
     id="rect5-6-7-3"
     ry="1.7735944"
     transform="matrix(0.00523883,-0.99998628,0.999988,0.00489859,0,0)"
     style="fill:#ca3ebd;fill-opacity:0.12;stroke:url(#linearGradient871);stroke-width:0.5291563;stroke-miterlimit:4;stroke-dasharray:none;stroke-opacity:1" />
  <rect
     x="-3.7202365"
     y="4.8851409"
     width="7.912631"
     height="7.912384"
     rx="1.612043"
     shape-rendering="crispEdges"
     id="rect5-6-6-6-6"
     style="fill:#d66acc;fill-opacity:0.1;stroke:url(#linearGradient15);stroke-width:0.39686725;stroke-opacity:1;stroke-miterlimit:4;stroke-dasharray:none"
     ry="1.7735215"
     transform="matrix(0.72612649,-0.68756114,0.6879775,0.72573202,0,0)" />
  <path
     style="fill:#f3d3f0;fill-opacity:1;fill-rule:nonzero;stroke:none;stroke-width:0.254509"
     d="M 6.9193443,3.246709 C 6.2517464,3.0856269 5.5573031,3.1652725 4.9523495,3.4543259 L 5.4096447,4.2463136 C 5.9841714,3.9948468 6.666086,4.0109543 7.2531433,4.3501222 7.8401979,4.6892901 8.195474,5.2718711 8.2652757,5.8947231 H 9.1789704 C 9.1279615,5.2271265 8.8496466,4.5854813 8.3753483,4.0879167 8.0925606,4.305377 7.6961187,4.3438582 7.366795,4.1532442 7.0374713,3.9635252 6.8719148,3.6010901 6.9193443,3.246709 Z M 4.5594874,3.6825257 C 4.2060013,3.9241501 3.899945,4.2481033 3.6708498,4.6445457 3.5527236,4.8503733 3.4614432,5.0642537 3.3961149,5.2817151 c 0.036693,0.014325 0.071594,0.032215 0.1047043,0.051009 0.272945,0.1566085 0.4563999,0.4510312 0.4563999,0.7893043 0,0.380333 -0.2317795,0.7051824 -0.5619981,0.8412068 0.1870342,0.6309058 0.5852653,1.2009582 1.1651618,1.5965049 L 5.0167826,7.7695424 C 4.1845237,7.1592199 3.9303719,6.0137454 4.4583638,5.0991555 4.6042332,4.8458981 4.795742,4.6364913 5.0158881,4.4736198 Z M 9.1789704,6.349333 H 8.2652757 C 8.2339552,6.6213835 8.1480445,6.8916429 8.0021743,7.1449009 7.4732878,8.0594908 6.3546601,8.4120816 5.4105392,7.9968467 L 4.9541399,8.7870452 c 0.6318,0.304267 1.3253501,0.3642253 1.9652044,0.211197 -0.047429,-0.354381 0.118127,-0.7177107 0.4474507,-0.9074298 0.2935286,-0.1691367 0.6389591,-0.1583981 0.9110102,0 0.034004,0.019688 0.066225,0.041162 0.097541,0.065322 C 8.5310611,7.9905793 8.6706679,7.8053347 8.7896876,7.599507 9.0187822,7.2030658 9.1458591,6.7761975 9.1789704,6.3493296 Z m 0,0"
     id="path4-6" />
  <path
     style="fill:#f3d3f0;fill-opacity:1;fill-rule:nonzero;stroke:none;stroke-width:0.254509"
     d="M 8.1623625,2.7759903 C 8.4898956,2.9648148 8.6008632,3.3800493 8.412039,3.7066879 8.2232146,4.0342226 7.807982,4.1451907 7.4804469,3.9563658 7.1529138,3.7675413 7.041946,3.3523071 7.2307704,3.0247736 7.4195947,2.698135 7.8348277,2.5862721 8.1623625,2.7759903 Z m 0,0"
     id="path6-7" />
  <path
     style="fill:#f3d3f0;fill-opacity:1;fill-rule:nonzero;stroke:none;stroke-width:0.254509"
     d="m 3.7299141,6.1220286 c 0,0.3776475 -0.3042667,0.6819143 -0.6819155,0.6819143 -0.3776481,0 -0.6819151,-0.3042668 -0.6819151,-0.6819143 0,-0.3776492 0.304267,-0.6819157 0.6819151,-0.6819157 0.3776488,0 0.6819155,0.3042665 0.6819155,0.6819157 z m 0,0"
     id="path8-5" />
  <path
     style="fill:#f3d3f0;fill-opacity:1;fill-rule:nonzero;stroke:none;stroke-width:0.254509"
     d="M 7.9976996,9.536975 C 7.6325804,9.634516 7.2603023,9.4197417 7.162757,9.0546212 7.0652119,8.6895011 7.2799882,8.3172224 7.64511,8.219678 8.0102292,8.1212391 8.382507,8.3369101 8.4800523,8.7011346 8.5775976,9.0662545 8.362821,9.4385341 7.9976996,9.536975 Z m 0,0"
     id="path10-3" />
</svg>
