<?xml version="1.0" encoding="UTF-8" standalone="no"?>
<svg
   xmlns:dc="http://purl.org/dc/elements/1.1/"
   xmlns:cc="http://creativecommons.org/ns#"
   xmlns:rdf="http://www.w3.org/1999/02/22-rdf-syntax-ns#"
   xmlns:svg="http://www.w3.org/2000/svg"
   xmlns="http://www.w3.org/2000/svg"
   xmlns:xlink="http://www.w3.org/1999/xlink"
   xmlns:sodipodi="http://sodipodi.sourceforge.net/DTD/sodipodi-0.dtd"
   xmlns:inkscape="http://www.inkscape.org/namespaces/inkscape"
   width="47.285591"
   height="47.28569"
   version="1.1"
   viewBox="0 0 12.510734 12.51076"
   id="svg12"
   sodipodi:docname="distributor-logo-pop-os.svg"
   inkscape:version="1.0.1 (3bc2e813f5, 2020-09-07)">
  <style
     id="style864"></style>
  <metadata
     id="metadata39">
    <rdf:RDF>
      <cc:Work
         rdf:about="">
        <dc:format>image/svg+xml</dc:format>
        <dc:type
           rdf:resource="http://purl.org/dc/dcmitype/StillImage" />
      </cc:Work>
    </rdf:RDF>
  </metadata>
  <defs
     id="defs16">
    <linearGradient
       id="c"
       y1="523.79999"
       x1="403.57001"
       y2="536.79999"
       x2="416.57001"
       gradientUnits="userSpaceOnUse"
       gradientTransform="matrix(0.34526714,0,0,0.34526706,-134.80427,-174.63325)">
      <stop
         stop-color="#292c2f"
         id="stop1568" />
      <stop
         offset="1"
         stop-opacity="0"
         id="stop1570" />
    </linearGradient>
    <linearGradient
       xlink:href="#b-2"
       id="linearGradient4189"
       x1="14.369"
       y1="22.521999"
       x2="26.521999"
       y2="22.521999"
       gradientUnits="userSpaceOnUse" />
    <linearGradient
       x1="36"
       gradientUnits="userSpaceOnUse"
       x2="14"
       y2="12"
       y1="44"
       id="b-2">
      <stop
         style="stop-color:#bfc9c9;stop-opacity:1"
         stop-color="#536161"
         id="stop1579" />
      <stop
         style="stop-color:#fbfbfb;stop-opacity:1"
         stop-color="#f4f5f5"
         offset="1"
         id="stop1581" />
    </linearGradient>
    <linearGradient
       xlink:href="#b-2"
       id="linearGradient4428"
       gradientUnits="userSpaceOnUse"
       x1="31.586"
       y1="36.345001"
       x2="1.2029999"
       y2="6.723" />
    <linearGradient
       xlink:href="#b-2"
       id="linearGradient4189-3"
       x1="14.369"
       y1="22.521999"
       x2="26.521999"
       y2="22.521999"
       gradientUnits="userSpaceOnUse"
       gradientTransform="translate(20.841982,61.553822)" />
    <linearGradient
       xlink:href="#b-2"
       id="linearGradient4428-5"
       gradientUnits="userSpaceOnUse"
       x1="31.586"
       y1="36.345001"
       x2="1.2029999"
       y2="6.723"
       gradientTransform="translate(20.841982,61.553822)" />
    <linearGradient
       xlink:href="#b-2"
       id="linearGradient4189-3-3"
       x1="14.369"
       y1="22.521999"
       x2="26.521999"
       y2="22.521999"
       gradientUnits="userSpaceOnUse"
       gradientTransform="translate(4.376802,4.4211693)" />
    <linearGradient
       xlink:href="#b-2"
       id="linearGradient4428-5-5"
       gradientUnits="userSpaceOnUse"
       x1="31.586"
       y1="36.345001"
       x2="1.2029999"
       y2="6.723"
       gradientTransform="translate(4.376802,4.4211693)" />
    <linearGradient
       id="linearGradient11"
       inkscape:collect="always">
      <stop
         style="stop-color:#00ffcc;stop-opacity:0.71674877;"
         offset="0"
         id="stop4-3" />
      <stop
         style="stop-color:#ffdd55;stop-opacity:1"
         offset="1"
         id="stop11" />
    </linearGradient>
    <filter
       id="filter2917-3"
       x="-0.96181148"
       y="-0.66745996"
       width="2.9236228"
       height="2.3349199"
       color-interpolation-filters="sRGB">
      <feGaussianBlur
         stdDeviation="0.2871969"
         id="feGaussianBlur732-5" />
    </filter>
    <filter
       id="filter1"
       x="-0.96181148"
       y="-0.66745996"
       width="2.9236228"
       height="2.3349199"
       color-interpolation-filters="sRGB">
      <feGaussianBlur
         stdDeviation="0.2871969"
         id="feGaussianBlur1" />
    </filter>
    <filter
       id="filter2"
       x="-0.96181148"
       y="-0.66745996"
       width="2.9236228"
       height="2.3349199"
       color-interpolation-filters="sRGB">
      <feGaussianBlur
         stdDeviation="0.2871969"
         id="feGaussianBlur2" />
    </filter>
    <linearGradient
       inkscape:collect="always"
       xlink:href="#linearGradient11"
       id="linearGradient2"
       x1="-3.8211522"
       y1="8.6008863"
       x2="4.2804661"
       y2="8.6008863"
       gradientUnits="userSpaceOnUse" />
    <linearGradient
       inkscape:collect="always"
       xlink:href="#linearGradient11"
       id="linearGradient12"
       x1="3.5188892"
       y1="5.4146342"
       x2="6.8552151"
       y2="5.4146342"
       gradientUnits="userSpaceOnUse"
       gradientTransform="translate(-0.17008498,-0.17008402)" />
    <linearGradient
       inkscape:collect="always"
       xlink:href="#linearGradient11"
       id="linearGradient15"
       x1="6.8760691"
       y1="6.3279562"
       x2="8.4482927"
       y2="6.3279562"
       gradientUnits="userSpaceOnUse"
       gradientTransform="translate(-0.17008498,-0.17008402)" />
    <linearGradient
       inkscape:collect="always"
       xlink:href="#linearGradient11"
       id="linearGradient17"
       x1="3.8522575"
       y1="8.8498383"
       x2="8.2812462"
       y2="8.8498383"
       gradientUnits="userSpaceOnUse"
       gradientTransform="translate(-0.17008498,-0.17008402)" />
    <linearGradient
       inkscape:collect="always"
       xlink:href="#linearGradient11"
       id="linearGradient872"
       x1="-12.025727"
       y1="6.1170783"
       x2="-0.085100174"
       y2="6.1170783"
       gradientUnits="userSpaceOnUse" />
  </defs>
  <sodipodi:namedview
     id="namedview14"
     pagecolor="#000000"
     bordercolor="#666666"
     borderopacity="1.0"
     inkscape:showpageshadow="2"
     inkscape:pageopacity="0.0"
     inkscape:pagecheckerboard="0"
     inkscape:deskcolor="#d1d1d1"
     showgrid="false"
     inkscape:zoom="6.2611141"
     inkscape:cx="23.845543"
     inkscape:cy="54.335026"
     inkscape:window-width="1920"
     inkscape:window-height="988"
     inkscape:window-x="0"
     inkscape:window-y="0"
     inkscape:window-maximized="1"
     inkscape:current-layer="svg12"
     inkscape:document-rotation="0">
    <inkscape:grid
       type="xygrid"
       id="grid244"
       originx="9.9594769"
       originy="-31.57929"
       spacingy="1"
       spacingx="1"
       units="px"
       visible="false" />
  </sodipodi:namedview>
  <rect
     x="-12.194976"
     y="0.32004508"
     width="11.940627"
     height="11.936014"
     rx="1.6121091"
     shape-rendering="crispEdges"
     id="rect5-6-7-3"
     ry="1.7735944"
     transform="matrix(0.00523883,-0.99998628,0.999988,0.00489859,0,0)"
     style="fill:#80b3ff;fill-opacity:0.15;stroke:url(#linearGradient872);stroke-width:0.5291563;stroke-miterlimit:4;stroke-dasharray:none;stroke-opacity:1" />
  <rect
     x="-3.7202365"
     y="4.8851409"
     width="7.912631"
     height="7.912384"
     rx="1.612043"
     shape-rendering="crispEdges"
     id="rect5-6-6-6-6"
     style="fill:#80b3ff;fill-opacity:0.122146;stroke:url(#linearGradient2);stroke-width:0.39686725;stroke-opacity:1;stroke-miterlimit:4;stroke-dasharray:none"
     ry="1.7735215"
     transform="matrix(0.72612649,-0.68756114,0.6879775,0.72573202,0,0)" />
  <g
     id="g2"
     style="stroke:none;stroke-opacity:1"
     transform="translate(0.17008498,0.17008402)">
    <path
       style="fill:#9cd9de;fill-opacity:1;fill-rule:nonzero;stroke:none;stroke-width:0.254542;stroke-opacity:1"
       d="m 5.5663334,8.1461752 c -0.016705,-0.021168 -0.015977,-0.021168 0.00513,-0.00519 0.012345,0.010215 0.023256,0.021176 0.023256,0.023368 0,0.010938 -0.01089,0.00438 -0.028327,-0.018254 z m 0.639355,-0.1043815 c 7.536e-4,-0.015324 0.00434,-0.018254 0.00808,-0.00812 0.00434,0.00948 0.00358,0.021176 -7.537e-4,0.025553 -0.00434,0.00439 -0.0073,-0.0036 -0.0073,-0.017515 z m 0,-0.1598562 c 7.536e-4,-0.015324 0.00434,-0.018983 0.00808,-0.00812 0.00434,0.00947 0.00358,0.021168 -7.537e-4,0.025551 -0.00434,0.00439 -0.0073,-0.00359 -0.0073,-0.017515 z M 5.6571508,6.3286219 c 0.00944,-0.00948 0.019623,-0.013135 0.023987,-0.00948 0.00434,0.00439 -0.00357,0.011671 -0.016706,0.016786 -0.018897,0.00729 -0.020348,0.006 -0.0073,-0.00729 z M 6.2180399,6.0052587 c 0,-0.003 0.010889,-0.013136 0.023257,-0.023368 0.021074,-0.016786 0.0218,-0.016052 0.00513,0.00519 -0.017435,0.021902 -0.028326,0.029187 -0.028326,0.018254 z M 6.4439932,5.7782472 c 0,-0.003 0.010165,-0.013136 0.023256,-0.023369 0.021073,-0.016049 0.021073,-0.016049 0.00434,0.00519 -0.016705,0.022632 -0.027605,0.029188 -0.027605,0.018254 z m -1.1355814,-0.3584019 -0.052309,-0.05621 0.056677,0.052555 c 0.052308,0.048905 0.062474,0.060595 0.052308,0.060595 -0.00211,0 -0.027602,-0.025555 -0.056676,-0.05694 z m 0.448275,-0.3365027 c 0,-0.021904 0.00297,-0.029187 0.00651,-0.016051 0.00297,0.013138 0.00297,0.030652 -7.537e-4,0.040155 -0.00358,0.00869 -0.00651,-0.00214 -0.00592,-0.024096 z M 5.7414303,4.9227553 c 7.532e-4,-0.016057 0.00357,-0.018983 0.00808,-0.00812 0.00357,0.00947 0.00357,0.021168 -7.544e-4,0.025552 -0.00434,0.00438 -0.00808,-0.0036 -0.0073,-0.017515 z m 1.1159658,-0.059129 c 0,-0.018254 0.00297,-0.025555 0.0065,-0.016786 0.00358,0.00948 0.00358,0.024096 0,0.033571 -0.00358,0.00869 -0.0065,0.00139 -0.0065,-0.016785 z m 0,-0.2197124 c 7.539e-4,-0.021902 0.00357,-0.029924 0.0065,-0.016786 0.00358,0.013137 0.00358,0.031379 0,0.040155 -0.00358,0.00869 -0.0065,-0.00139 -0.0065,-0.023369 z M 4.7860286,4.2424485 c 7.539e-4,-0.015324 0.00357,-0.018254 0.00808,-0.00812 0.00434,0.00948 0.00357,0.02117 -7.534e-4,0.025554 -0.00434,0.00438 -0.00808,-0.003 -0.0073,-0.017515 z m 0.6342697,-0.028463 c -0.016706,-0.021177 -0.015976,-0.021902 0.00513,-0.00519 0.0218,0.017515 0.029052,0.028462 0.018169,0.028462 -0.00297,0 -0.013072,-0.010938 -0.023257,-0.023369 z m -0.1053482,-0.1204411 -0.031962,-0.036497 0.036331,0.032113 c 0.034142,0.030651 0.042148,0.041619 0.031963,0.041619 -0.00211,0 -0.018896,-0.016786 -0.036332,-0.037233 z M 4.7860283,4.0825964 c 7.54e-4,-0.015324 0.00357,-0.018983 0.00808,-0.00812 0.00434,0.00948 0.00357,0.021175 -7.536e-4,0.025553 -0.00434,0.00438 -0.00808,-0.0036 -0.0073,-0.017515 z M 5.208149,4.0001144 c -0.016706,-0.02044 -0.015977,-0.021168 0.00513,-0.00438 0.021799,0.016786 0.029052,0.027728 0.018166,0.027728 -0.00297,0 -0.013074,-0.010212 -0.023257,-0.023368 z M 3.7303659,3.8103246 c 0.043592,-0.043801 0.081365,-0.079563 0.085004,-0.079563 0.00357,0 -0.028328,0.035769 -0.071933,0.079563 -0.04359,0.043798 -0.081364,0.080293 -0.085005,0.080293 -0.00358,0 0.028328,-0.036498 0.071934,-0.080293 z M 6.4686952,3.6008312 c -0.016705,-0.021175 -0.015977,-0.021905 0.00513,-0.00519 0.012346,0.00947 0.023257,0.020443 0.023257,0.023369 0,0.010939 -0.010889,0.00359 -0.028327,-0.018254 z M 6.2696239,3.4008281 c -0.016706,-0.021168 -0.015977,-0.021904 0.00513,-0.00519 0.021798,0.017515 0.029052,0.028461 0.018169,0.028461 -0.00297,0 -0.013071,-0.010945 -0.023257,-0.023368 z M 5.1405798,3.0548357 c 0.010169,-0.0036 0.021074,-0.0036 0.025435,7.345e-4 0.00513,0.00519 -0.00297,0.00812 -0.017435,0.00729 -0.015254,-7.347e-4 -0.018169,-0.0036 -0.00808,-0.00812 z m 0.3320294,0 c 0.00944,-0.0036 0.021073,-0.0036 0.02543,7.345e-4 0.00434,0.00519 -0.00358,0.00812 -0.017435,0.00729 -0.015254,-7.347e-4 -0.018897,-0.0036 -0.00808,-0.00812 z m 0,0"
       id="path4155-7" />
    <path
       style="fill:url(#linearGradient15);fill-opacity:1;fill-rule:nonzero;stroke:none;stroke-width:0.254542;stroke-opacity:1"
       d="M 7.041936,8.033765 C 6.8850033,7.9658796 6.8261535,7.7366783 6.92351,7.578281 7.0194127,7.422074 7.2068603,7.3731681 7.3252869,7.4731699 c 0.021073,0.017515 0.051578,0.063495 0.06829,0.1021919 0.025434,0.058398 0.029053,0.086861 0.023985,0.1795651 -0.0073,0.136499 -0.050853,0.2182524 -0.1416747,0.2664283 -0.066839,0.035769 -0.1692852,0.040883 -0.2339474,0.012401 z M 7.2751551,7.0549133 C 7.1436515,7.0176858 7.1363861,6.4884793 7.255539,5.5329863 7.3194735,5.0183781 7.3507149,4.8826091 7.433541,4.7585189 7.4865786,4.678955 7.5439747,4.6431893 7.6602215,4.6183704 7.8607467,4.5760337 8.1012311,4.627854 8.2712421,4.7504895 8.4623217,4.8877184 8.4899304,5.0008599 8.3962063,5.2665576 8.3039354,5.5286068 8.0779824,5.9833595 7.8215133,6.4264344 7.5926532,6.8198727 7.459696,7.0045476 7.3754173,7.0446946 c -0.048676,0.023361 -0.05158,0.023361 -0.1002622,0.010219 z m 0,0"
       id="path4157-5" />
    <path
       style="fill:url(#linearGradient12);fill-opacity:1;fill-rule:nonzero;stroke:none;stroke-width:0.254542;stroke-opacity:1"
       d="M 5.3302072,2.7781887 C 5.1572916,2.7760171 4.9800156,2.8037378 4.8020127,2.862131 4.3624564,3.0051993 3.6991251,3.4898799 3.5632621,3.7672587 3.5240281,3.8475467 3.5182181,3.8731 3.5189461,3.9533925 c 7.46e-4,0.1284701 0.023984,0.1890553 0.215055,0.5737348 0.5274688,1.062064 1.1573791,2.2467586 1.499579,2.8197625 0.2957022,0.4963598 0.4126753,0.6350476 0.5775995,0.6868744 0.074109,0.023366 0.110434,0.023366 0.1925325,-7.343e-4 C 6.1526514,7.9885066 6.2129547,7.8709841 6.2013302,7.6483523 6.192612,7.4775417 6.1882531,7.4644024 5.8969086,6.7067235 5.7654051,6.3658413 5.6571508,6.0789742 5.655698,6.068755 5.6549604,6.0585369 5.7014705,6.0308011 5.7675847,6.0015977 6.1461126,5.8366315 6.4592509,5.5497642 6.6786659,5.1643555 6.8130762,4.9300441 6.8552153,4.7643474 6.8552153,4.4687209 6.8552153,4.0789328 6.7643978,3.7606786 6.5718646,3.4701624 6.4163852,3.2351223 6.2151339,3.054827 5.9724694,2.9343868 5.7690382,2.8329245 5.5532557,2.7810996 5.3302072,2.7781791 Z M 4.9611254,3.6139713 c 0.1104345,0 0.2128753,0.058399 0.3596372,0.2051128 0.2005245,0.2000047 0.335661,0.4306657 0.402503,0.6868755 0.043592,0.1649669 0.049402,0.4182555 0.013072,0.5379657 C 5.7116356,5.1256763 5.6535186,5.2030525 5.5932104,5.23444 5.5430804,5.260716 5.4653388,5.257803 5.4086694,5.22786 5.3076841,5.1745839 5.1427594,4.9585212 5.0315985,4.7358887 4.8841112,4.4402634 4.801286,4.171644 4.7896606,3.9475533 4.7765841,3.707403 4.8245351,3.6139698 4.9611248,3.6139698 Z m 0,0"
       id="path4159-3" />
    <path
       style="fill:url(#linearGradient17);fill-opacity:1;fill-rule:nonzero;stroke:none;stroke-width:0.254542;stroke-opacity:1"
       d="m 4.1290693,8.5717309 h 3.8753654 c 0.152573,0 0.2768112,0.1248205 0.2768112,0.2781078 0,0.1532877 -0.1242382,0.2781069 -0.2768112,0.2781069 H 4.1290693 c -0.1525733,0 -0.2768117,-0.1248192 -0.2768117,-0.2781069 0,-0.1532873 0.1242384,-0.2781078 0.2768117,-0.2781078 z m 0,0"
       id="path4161-5" />
  </g>
</svg>
