<?xml version="1.0" encoding="UTF-8" standalone="no"?>
<svg
   xmlns:dc="http://purl.org/dc/elements/1.1/"
   xmlns:cc="http://creativecommons.org/ns#"
   xmlns:rdf="http://www.w3.org/1999/02/22-rdf-syntax-ns#"
   xmlns:svg="http://www.w3.org/2000/svg"
   xmlns="http://www.w3.org/2000/svg"
   xmlns:xlink="http://www.w3.org/1999/xlink"
   xmlns:sodipodi="http://sodipodi.sourceforge.net/DTD/sodipodi-0.dtd"
   xmlns:inkscape="http://www.inkscape.org/namespaces/inkscape"
   width="47.285591"
   height="47.28569"
   version="1.1"
   viewBox="0 0 12.510734 12.51076"
   id="svg12"
   sodipodi:docname="distributor-logo-kali-linux.svg"
   inkscape:version="1.0.1 (3bc2e813f5, 2020-09-07)">
  <style
     id="style860"></style>
  <metadata
     id="metadata35">
    <rdf:RDF>
      <cc:Work
         rdf:about="">
        <dc:format>image/svg+xml</dc:format>
        <dc:type
           rdf:resource="http://purl.org/dc/dcmitype/StillImage" />
      </cc:Work>
    </rdf:RDF>
  </metadata>
  <defs
     id="defs16">
    <linearGradient
       id="c"
       y1="523.79999"
       x1="403.57001"
       y2="536.79999"
       x2="416.57001"
       gradientUnits="userSpaceOnUse"
       gradientTransform="matrix(0.34526714,0,0,0.34526706,-134.80427,-174.63325)">
      <stop
         stop-color="#292c2f"
         id="stop1568" />
      <stop
         offset="1"
         stop-opacity="0"
         id="stop1570" />
    </linearGradient>
    <linearGradient
       xlink:href="#b-2"
       id="linearGradient4189"
       x1="14.369"
       y1="22.521999"
       x2="26.521999"
       y2="22.521999"
       gradientUnits="userSpaceOnUse" />
    <linearGradient
       x1="36"
       gradientUnits="userSpaceOnUse"
       x2="14"
       y2="12"
       y1="44"
       id="b-2">
      <stop
         style="stop-color:#bfc9c9;stop-opacity:1"
         stop-color="#536161"
         id="stop1579" />
      <stop
         style="stop-color:#fbfbfb;stop-opacity:1"
         stop-color="#f4f5f5"
         offset="1"
         id="stop1581" />
    </linearGradient>
    <linearGradient
       xlink:href="#b-2"
       id="linearGradient4428"
       gradientUnits="userSpaceOnUse"
       x1="31.586"
       y1="36.345001"
       x2="1.2029999"
       y2="6.723" />
    <linearGradient
       xlink:href="#b-2"
       id="linearGradient4189-3"
       x1="14.369"
       y1="22.521999"
       x2="26.521999"
       y2="22.521999"
       gradientUnits="userSpaceOnUse"
       gradientTransform="translate(20.841982,61.553822)" />
    <linearGradient
       xlink:href="#b-2"
       id="linearGradient4428-5"
       gradientUnits="userSpaceOnUse"
       x1="31.586"
       y1="36.345001"
       x2="1.2029999"
       y2="6.723"
       gradientTransform="translate(20.841982,61.553822)" />
    <linearGradient
       xlink:href="#b-2"
       id="linearGradient4189-3-3"
       x1="14.369"
       y1="22.521999"
       x2="26.521999"
       y2="22.521999"
       gradientUnits="userSpaceOnUse"
       gradientTransform="translate(4.376802,4.4211693)" />
    <linearGradient
       xlink:href="#b-2"
       id="linearGradient4428-5-5"
       gradientUnits="userSpaceOnUse"
       x1="31.586"
       y1="36.345001"
       x2="1.2029999"
       y2="6.723"
       gradientTransform="translate(4.376802,4.4211693)" />
    <linearGradient
       inkscape:collect="always"
       xlink:href="#linearGradient14"
       id="linearGradient15"
       x1="-9.6850061"
       y1="45.161198"
       x2="11.98815"
       y2="21.735205"
       gradientUnits="userSpaceOnUse"
       gradientTransform="scale(0.26457813)" />
    <linearGradient
       id="linearGradient14"
       inkscape:collect="always">
      <stop
         style="stop-color:#2c73a9;stop-opacity:1;"
         offset="0"
         id="stop12" />
      <stop
         style="stop-color:#225a84;stop-opacity:1;"
         offset="1"
         id="stop13" />
    </linearGradient>
    <filter
       id="filter2917-3"
       x="-0.96181148"
       y="-0.66745996"
       width="2.9236228"
       height="2.3349199"
       color-interpolation-filters="sRGB">
      <feGaussianBlur
         stdDeviation="0.2871969"
         id="feGaussianBlur732-5" />
    </filter>
    <filter
       id="filter1"
       x="-0.96181148"
       y="-0.66745996"
       width="2.9236228"
       height="2.3349199"
       color-interpolation-filters="sRGB">
      <feGaussianBlur
         stdDeviation="0.2871969"
         id="feGaussianBlur1" />
    </filter>
    <filter
       id="filter2"
       x="-0.96181148"
       y="-0.66745996"
       width="2.9236228"
       height="2.3349199"
       color-interpolation-filters="sRGB">
      <feGaussianBlur
         stdDeviation="0.2871969"
         id="feGaussianBlur2" />
    </filter>
    <linearGradient
       inkscape:collect="always"
       xlink:href="#linearGradient14"
       id="linearGradient868"
       x1="-12.025727"
       y1="6.1170783"
       x2="-0.085100174"
       y2="6.1170783"
       gradientUnits="userSpaceOnUse" />
  </defs>
  <sodipodi:namedview
     id="namedview14"
     pagecolor="#000000"
     bordercolor="#666666"
     borderopacity="1.0"
     inkscape:showpageshadow="2"
     inkscape:pageopacity="0.0"
     inkscape:pagecheckerboard="0"
     inkscape:deskcolor="#d1d1d1"
     showgrid="false"
     inkscape:zoom="6.2611141"
     inkscape:cx="23.845543"
     inkscape:cy="54.335026"
     inkscape:window-width="1920"
     inkscape:window-height="988"
     inkscape:window-x="0"
     inkscape:window-y="0"
     inkscape:window-maximized="1"
     inkscape:current-layer="svg12"
     inkscape:document-rotation="0">
    <inkscape:grid
       type="xygrid"
       id="grid244"
       originx="9.9594769"
       originy="-31.57929"
       spacingy="1"
       spacingx="1"
       units="px"
       visible="false" />
  </sodipodi:namedview>
  <rect
     x="-12.194976"
     y="0.32004508"
     width="11.940627"
     height="11.936014"
     rx="1.6121091"
     shape-rendering="crispEdges"
     id="rect5-6-7-3"
     ry="1.7735944"
     transform="matrix(0.00523883,-0.99998628,0.999988,0.00489859,0,0)"
     style="fill:#2c73a9;fill-opacity:0.15;stroke:url(#linearGradient868);stroke-width:0.529156;stroke-miterlimit:4;stroke-dasharray:none;stroke-opacity:1" />
  <rect
     x="-3.7202365"
     y="4.8851409"
     width="7.912631"
     height="7.912384"
     rx="1.612043"
     shape-rendering="crispEdges"
     id="rect5-6-6-6-6"
     style="fill:#2c73a9;fill-opacity:0.124429;stroke:url(#linearGradient15);stroke-width:0.396867;stroke-miterlimit:4;stroke-dasharray:none;stroke-opacity:1"
     ry="1.7735215"
     transform="matrix(0.72612649,-0.68756114,0.6879775,0.72573202,0,0)" />
  <path
     style="fill:#cfd7dc;fill-opacity:1;fill-rule:nonzero;stroke:none;stroke-width:0.254497"
     d="m 1.0143794,2.4224608 c -0.10537731,10e-4 -0.21075492,0.005 -0.31513819,0.01789 1.15815809,0.02087 2.31830439,0.115319 3.45160919,0.358879 0.2197019,0.02883 0.4314512,0.09544 0.6441943,0.14912 0.1033892,0.02485 0.1998194,0.07058 0.3032086,0.09643 0.17099,0.04374 0.3389974,0.101401 0.507999,0.151107 0.1043835,0.04573 0.2167199,0.06561 0.3191149,0.113331 0.1540897,0.06462 0.3051969,0.138183 0.4543163,0.213737 0.01988,0.01292 0.049706,0.01889 0.055671,0.04573 0.038771,0.163037 0.059648,0.33005 0.1063715,0.491099 0.089472,0.300226 0.2018077,0.596476 0.3628565,0.867873 -0.17099,0.08152 -0.3181206,0.203796 -0.4463632,0.340985 -0.1839135,0.201808 -0.3270678,0.445369 -0.3887036,0.712789 -0.07456,0.273385 -0.058654,0.647177 0.00597,0.920562 0.069589,0.245549 0.1948488,0.423498 0.3648448,0.61437 0.3409854,0.38771 0.8718492,0.613377 1.3887955,0.553729 0.6233177,-0.0507 1.2724827,0.04971 1.8202467,0.362857 0.2873025,0.166019 0.5586993,0.369815 0.7634893,0.633259 0.27935,0.317126 0.489111,0.715771 0.649165,1.1044752 0.02286,0.05865 0.04474,0.119295 0.07655,0.173972 0,-0.07257 -0.02684,-0.141166 -0.0517,-0.208767 -0.07456,-0.1988252 -0.158065,-0.4195212 -0.263443,-0.6044292 -0.124267,-0.22169 -0.260462,-0.439404 -0.432446,-0.627294 -0.251515,-0.302214 -0.5577058,-0.560687 -0.9076384,-0.740624 0.2664259,0.03479 0.5268874,0.112336 0.7803894,0.200813 0.271397,0.09643 0.531858,0.225667 0.766472,0.394669 0.230638,0.186896 0.434434,0.411568 0.584547,0.670042 0.07754,0.124265 0.127248,0.28929 0.194849,0.419521 -0.05965,-0.301221 -0.210755,-0.603435 -0.399639,-0.84302 -0.111343,-0.145138 -0.253503,-0.261451 -0.392681,-0.377764 -0.322097,-0.253502 -0.695889,-0.433439 -1.0826045,-0.562676 -0.7108007,-0.23362 -1.4623609,-0.323091 -2.2079563,-0.323091 -0.180931,0.002 -0.3618622,-0.02286 -0.5318581,-0.08549 -0.3906917,-0.141166 -0.6998653,-0.435428 -0.7962956,-0.840038 -0.1232719,-0.439404 0.01392,-1.021962 0.3370091,-1.342071 0.2624496,-0.268414 0.6451883,-0.42151 1.0219626,-0.384727 0.3877097,0.02783 0.7575248,0.164031 1.1193873,0.29625 0.2972437,0.116312 0.5954817,0.230637 0.8817904,0.370809 0.00795,0.08251 0.014912,0.168007 0.044736,0.245549 0.040759,0.08052 0.1282426,0.119296 0.2057841,0.155084 0.148125,0.06661 0.288297,0.12526 0.414551,0.22865 0.09345,0.07456 0.17099,0.167013 0.259467,0.247537 0.02982,-0.04772 0.03479,-0.05965 0.04374,-0.07655 0.005,-0.004 10e-4,0.001 0.007,-0.006 0.0676,-0.07058 0.168008,-0.0845 0.253502,-0.127248 -0.222684,-0.05567 -0.441392,-0.136196 -0.587529,-0.319115 -0.02286,-0.02784 0.07357,-0.002 0.05368,-0.04672 -0.01392,-0.03778 -0.02684,-0.05965 -0.04573,-0.09245 -0.08152,-0.119295 -0.164031,-0.237596 -0.236602,-0.361862 -0.08351,-0.002 -0.168007,-0.003 -0.2515136,-0.005 -0.1063718,-0.124266 -0.2226845,-0.237596 -0.3310444,-0.359874 0.00895,0.06661 0.021873,0.134207 0.021873,0.201808 -0.072571,-0.04076 -0.1441485,-0.0845 -0.2087667,-0.137189 -0.069589,-0.06363 -0.1352013,-0.133214 -0.2037961,-0.197832 0.00895,0.04871 0.017893,0.09842 0.025847,0.148125 -0.1411662,-0.05766 -0.2753732,-0.143154 -0.3747863,-0.260461 -0.00198,0.02883 -0.00298,0.05766 -0.00397,0.08748 C 8.7556504,5.0459628 8.6691612,5.0081858 8.5806841,4.9733908 8.3570055,4.8898838 8.1363093,4.7934538 7.8997071,4.7507068 7.6402396,4.7377818 7.3648666,4.7725768 7.1193172,4.6662058 6.9493216,4.6005928 6.8101437,4.4663858 6.7296196,4.3043438 6.5805004,4.0279758 6.601377,3.6989198 6.6441246,3.3986938 6.4552402,3.2734338 6.2514444,3.1740208 6.0406894,3.0895198 5.9432651,3.0547258 5.8508109,3.0040258 5.748416,2.9811608 5.3786008,2.8588828 4.9998382,2.7654348 4.6170992,2.6938578 4.4500861,2.6570748 4.2800904,2.6401748 4.1140711,2.6033918 3.955011,2.5725738 3.792968,2.5566678 3.6329135,2.5367858 2.8684299,2.4493028 2.0979815,2.4164958 1.3295213,2.4224608 c -0.1053776,10e-4 -0.2107552,-10e-4 -0.3161325,0 z m 5.3633156,1.204882 c -1.4027134,-0.01193 -2.8094031,0.0517 -4.1952162,0.276368 -0.3628562,0.06064 -0.727701,0.116312 -1.0826043,0.214731 1.1869875,-0.167013 2.3829224,-0.280344 3.5818397,-0.306191 0.5845468,-0.004 1.1690932,0.01392 1.7506579,0.07257 -0.018888,-0.08549 -0.038771,-0.17099 -0.054677,-0.257479 z m 0.09146,0.379757 c -0.7893368,0.07357 -1.5627677,0.261455 -2.3143278,0.509987 -0.5189343,0.177949 -1.0279273,0.385721 -1.5190261,0.63127 -0.1739723,0.08748 -0.350927,0.172978 -0.5159523,0.277362 0.1868959,-0.08052 0.3678274,-0.17099 0.5567113,-0.245549 1.227747,-0.505017 2.5290592,-0.858926 3.8592014,-0.926527 -0.024854,-0.08152 -0.049706,-0.164031 -0.066606,-0.246543 z m 1.5637618,0.258473 c 0.1391777,0.06263 0.2863085,0.107366 0.4244924,0.172978 0.4225037,0.183914 0.8281075,0.414551 1.1849994,0.707818 0.1292363,0.107366 0.249526,0.224673 0.3539092,0.355898 0.027835,0.03082 0.072571,0.007 0.1083602,0.01292 C 10.064912,5.4416258 9.992341,5.3949018 9.9356758,5.3362488 9.6513553,5.0559048 9.3232935,4.8202958 8.9693843,4.6353888 8.6711463,4.4803048 8.3599844,4.3451038 8.0329166,4.2655738 Z m 0,0"
     id="path3658-7" />
</svg>
