<?xml version="1.0" encoding="UTF-8" standalone="no"?>
<svg
   xmlns:dc="http://purl.org/dc/elements/1.1/"
   xmlns:cc="http://creativecommons.org/ns#"
   xmlns:rdf="http://www.w3.org/1999/02/22-rdf-syntax-ns#"
   xmlns:svg="http://www.w3.org/2000/svg"
   xmlns="http://www.w3.org/2000/svg"
   xmlns:xlink="http://www.w3.org/1999/xlink"
   xmlns:sodipodi="http://sodipodi.sourceforge.net/DTD/sodipodi-0.dtd"
   xmlns:inkscape="http://www.inkscape.org/namespaces/inkscape"
   width="47.285591"
   height="47.28569"
   version="1.1"
   viewBox="0 0 12.510734 12.51076"
   id="svg12"
   sodipodi:docname="distributor-logo-debian.svg"
   inkscape:version="1.0.1 (3bc2e813f5, 2020-09-07)">
  <style
     id="style854"></style>
  <metadata
     id="metadata29">
    <rdf:RDF>
      <cc:Work
         rdf:about="">
        <dc:format>image/svg+xml</dc:format>
        <dc:type
           rdf:resource="http://purl.org/dc/dcmitype/StillImage" />
      </cc:Work>
    </rdf:RDF>
  </metadata>
  <defs
     id="defs16">
    <linearGradient
       id="c"
       y1="523.79999"
       x1="403.57001"
       y2="536.79999"
       x2="416.57001"
       gradientUnits="userSpaceOnUse"
       gradientTransform="matrix(0.34526714,0,0,0.34526706,-134.80427,-174.63325)">
      <stop
         stop-color="#292c2f"
         id="stop1568" />
      <stop
         offset="1"
         stop-opacity="0"
         id="stop1570" />
    </linearGradient>
    <linearGradient
       xlink:href="#b-2"
       id="linearGradient4189"
       x1="14.369"
       y1="22.521999"
       x2="26.521999"
       y2="22.521999"
       gradientUnits="userSpaceOnUse" />
    <linearGradient
       x1="36"
       gradientUnits="userSpaceOnUse"
       x2="14"
       y2="12"
       y1="44"
       id="b-2">
      <stop
         style="stop-color:#bfc9c9;stop-opacity:1"
         stop-color="#536161"
         id="stop1579" />
      <stop
         style="stop-color:#fbfbfb;stop-opacity:1"
         stop-color="#f4f5f5"
         offset="1"
         id="stop1581" />
    </linearGradient>
    <linearGradient
       xlink:href="#b-2"
       id="linearGradient4428"
       gradientUnits="userSpaceOnUse"
       x1="31.586"
       y1="36.345001"
       x2="1.2029999"
       y2="6.723" />
    <linearGradient
       xlink:href="#b-2"
       id="linearGradient4189-3"
       x1="14.369"
       y1="22.521999"
       x2="26.521999"
       y2="22.521999"
       gradientUnits="userSpaceOnUse"
       gradientTransform="translate(20.841982,61.553822)" />
    <linearGradient
       xlink:href="#b-2"
       id="linearGradient4428-5"
       gradientUnits="userSpaceOnUse"
       x1="31.586"
       y1="36.345001"
       x2="1.2029999"
       y2="6.723"
       gradientTransform="translate(20.841982,61.553822)" />
    <linearGradient
       xlink:href="#b-2"
       id="linearGradient4189-3-3"
       x1="14.369"
       y1="22.521999"
       x2="26.521999"
       y2="22.521999"
       gradientUnits="userSpaceOnUse"
       gradientTransform="translate(4.376802,4.4211693)" />
    <linearGradient
       xlink:href="#b-2"
       id="linearGradient4428-5-5"
       gradientUnits="userSpaceOnUse"
       x1="31.586"
       y1="36.345001"
       x2="1.2029999"
       y2="6.723"
       gradientTransform="translate(4.376802,4.4211693)" />
    <linearGradient
       inkscape:collect="always"
       xlink:href="#linearGradient14"
       id="linearGradient15"
       x1="-9.6850061"
       y1="45.161198"
       x2="11.98815"
       y2="21.735205"
       gradientUnits="userSpaceOnUse"
       gradientTransform="scale(0.26457813)" />
    <linearGradient
       id="linearGradient14"
       inkscape:collect="always">
      <stop
         style="stop-color:#a02c5a;stop-opacity:1"
         offset="0"
         id="stop12" />
      <stop
         style="stop-color:#c83771;stop-opacity:1"
         offset="1"
         id="stop13" />
    </linearGradient>
    <linearGradient
       inkscape:collect="always"
       xlink:href="#linearGradient14"
       id="linearGradient862"
       x1="-12.025727"
       y1="6.1170783"
       x2="-0.085100174"
       y2="6.1170783"
       gradientUnits="userSpaceOnUse" />
  </defs>
  <sodipodi:namedview
     id="namedview14"
     pagecolor="#000000"
     bordercolor="#666666"
     borderopacity="1.0"
     inkscape:showpageshadow="2"
     inkscape:pageopacity="0.0"
     inkscape:pagecheckerboard="0"
     inkscape:deskcolor="#d1d1d1"
     showgrid="false"
     inkscape:zoom="6.2611141"
     inkscape:cx="23.845543"
     inkscape:cy="37.732451"
     inkscape:window-width="1920"
     inkscape:window-height="988"
     inkscape:window-x="0"
     inkscape:window-y="0"
     inkscape:window-maximized="1"
     inkscape:current-layer="svg12"
     inkscape:document-rotation="0">
    <inkscape:grid
       type="xygrid"
       id="grid244"
       originx="9.9594769"
       originy="-31.57929"
       spacingy="1"
       spacingx="1"
       units="px"
       visible="false" />
  </sodipodi:namedview>
  <rect
     x="-12.194976"
     y="0.32004508"
     width="11.940627"
     height="11.936014"
     rx="1.6121091"
     shape-rendering="crispEdges"
     id="rect5-6-7-3"
     ry="1.7735944"
     transform="matrix(0.00523883,-0.99998628,0.999988,0.00489859,0,0)"
     style="fill:#de87aa;fill-opacity:0.15;stroke:url(#linearGradient862);stroke-width:0.5291563;stroke-miterlimit:4;stroke-dasharray:none;stroke-opacity:1" />
  <rect
     x="-3.7202365"
     y="4.8851409"
     width="7.912631"
     height="7.912384"
     rx="1.612043"
     shape-rendering="crispEdges"
     id="rect5-6-6-6-6"
     style="fill:#de87aa;fill-opacity:0.122146;stroke:url(#linearGradient15);stroke-width:0.39686725;stroke-opacity:1;stroke-miterlimit:4;stroke-dasharray:none"
     ry="1.7735215"
     transform="matrix(0.72612649,-0.68756114,0.6879775,0.72573202,0,0)" />
  <path
     style="fill:#e9afc6;fill-opacity:1;fill-rule:nonzero;stroke:none;stroke-width:0.254541"
     d="M 3.1922363,5.0025654 C 3.2330503,4.8759207 3.2398523,4.7989588 3.2554003,4.7258943 3.1436483,4.8720239 3.2038963,4.9031977 3.1922363,5.0025654 M 3.3982493,4.121893 C 3.4186563,4.3118612 3.2583159,4.3858994 3.4342053,4.2602286 3.5284663,4.0439574 3.3972793,4.2008056 3.3982493,4.121893 m 3.066877,-1.6639269 c 0.086488,-0.032145 0.2137876,-0.017537 0.3070766,-0.038967 -0.1204983,0.00972 -0.2409965,0.016559 -0.3595515,0.031175 l 0.052477,0.00782 m 2.8054737,3.5499788 -0.018462,0.048714 C 9.2171531,6.3090165 9.1423279,6.5584113 9.0266884,6.789295 9.1539888,6.5457456 9.2365886,6.2788166 9.2706001,6.0079902 M 5.7197854,6.7960613 C 5.675084,6.7454065 5.6488469,6.6840282 5.6187223,6.6226537 5.6469042,6.7298152 5.7052086,6.8213894 5.7596277,6.9149126 L 5.7197854,6.7960613 m -0.2001826,0.00781 -0.018462,0.092551 C 5.585684,7.0143245 5.6537069,7.1419451 5.7615719,7.2335184 5.6838314,7.0785765 5.6255258,7.0142793 5.5196039,6.8038536 m 1.0572757,-4.2435981 -0.048588,0.010719 0.045672,-0.00488 0.00291,-0.00588 M 6.4398583,2.5212384 c 0.068995,0.012657 0.1486792,0.022409 0.1370182,0.038968 0.075797,-0.016559 0.093291,-0.032145 -0.1370182,-0.038968 m 1.438206,3.2460186 c 0.015547,-0.237704 -0.045672,-0.1626906 -0.06608,-0.072089 0.024297,0.012656 0.042756,0.1675615 0.06608,0.072091 M 7.6224909,6.4462667 C 7.7002309,6.3381312 7.7556221,6.2192797 7.776029,6.0965306 7.758535,6.1842146 7.711895,6.2601951 7.6681633,6.339105 c -0.2419682,0.1558714 -0.023319,-0.09157 0,-0.1860713 -0.2594595,0.3341493 -0.035955,0.2006842 -0.04567,0.2932326 M 6.9296256,6.6225958 c -0.1292441,0.00194 0.024294,0.068193 0.1924086,0.0945 0.047613,-0.037014 0.089402,-0.075011 0.1273007,-0.1110587 -0.1049499,0.026305 -0.2118437,0.027278 -0.3197093,0.016559 M 3.1932079,5.0025654 C 3.2340213,4.8759207 3.2408232,4.7999325 3.2563716,4.7258943 3.1446188,4.8720239 3.2048681,4.9031977 3.1932079,5.0025654 M 3.3992215,4.1228671 c 0.020406,0.1899678 -0.1399338,0.2630323 0.035955,0.1383353 0.09426,-0.217245 -0.036926,-0.060402 -0.035955,-0.1383353 m 3.065905,-1.664901 c 0.08746,-0.032145 0.2147594,-0.017537 0.3080485,-0.038968 -0.1214702,0.00972 -0.2409967,0.016559 -0.3605234,0.031173 l 0.052477,0.00782 M 9.271573,6.0079738 9.253113,6.0566878 C 9.2181262,6.3090129 9.1423293,6.5584076 9.0276612,6.7902659 9.154962,6.545742 9.23659,6.2788129 9.271573,6.0079866 M 5.7207572,6.7961161 C 5.6750841,6.7454613 5.6488469,6.684083 5.6187226,6.6236832 5.6478765,6.72987 5.706182,6.8224184 5.7606001,6.9159415 L 5.720757,6.7961161 m -0.2011542,0.00783 -0.018462,0.092551 C 5.5866546,7.0143865 5.6537065,7.1420072 5.7625436,7.2335802 5.6838313,7.0786792 5.626497,7.0143821 5.5196033,6.8039563 m 1.0572758,-4.2435976 -0.047614,0.010719 0.044704,-0.00488 0.0039,-0.00588 m 1.9260241,3.3054412 c 0.00683,0.1997098 -0.056361,0.2961558 -0.1127241,0.4676135 L 8.289133,6.3859754 C 8.2055575,6.5554773 8.2969103,6.4941039 8.2366537,6.6285427 8.1064319,6.7493393 7.8411416,7.0075012 7.7556267,7.0308816 7.6934344,7.0299083 7.7983839,6.9548894 7.8119877,6.9256687 7.6370713,7.0503656 7.671083,7.1127142 7.4038487,7.1896761 l -0.00777,-0.018508 C 6.737216,7.4946006 5.8208453,6.8535803 5.8334783,5.9787527 5.825724,6.0342751 5.8130715,6.0206372 5.7984954,6.0430444 5.7644821,5.592967 5.9977055,5.1409408 6.3912686,4.9568172 6.7760905,4.7580422 7.2269876,4.8398746 7.5029677,5.1077792 7.3513727,4.900275 7.050127,4.6810812 6.6925188,4.7015388 6.3426851,4.7074178 6.0152016,4.9392429 5.9063643,5.1915594 5.7275607,5.308464 5.7061818,5.6445606 5.6284411,5.7059352 c -0.1049505,0.80566 0.1972672,1.1534484 0.7093852,1.5635841 0.080657,0.056504 0.02332,0.065273 0.03401,0.1081366 C 6.2017805,7.2948447 6.0453266,7.1691781 5.9170544,7.0152541 5.9860493,7.1194943 6.0589315,7.2198358 6.1541641,7.2997201 5.9928517,7.2432161 5.7790644,6.8934798 5.7168717,6.8798414 5.9928517,7.3961652 6.8382837,7.784869 7.281407,7.5919785 7.0763649,7.5998168 6.8159332,7.5968776 6.5856261,7.5081972 6.4894214,7.4555927 6.3582337,7.3484291 6.3815559,7.3279702 6.9859916,7.5637263 7.6098617,7.5062485 8.1326689,7.0698082 8.2658001,6.9616728 8.4105926,6.7775503 8.4533501,6.7756016 c -0.063164,0.098393 0.01069,0.047734 -0.0379,0.1344386 0.1321594,-0.2221165 -0.058305,-0.090601 0.1370185,-0.3848073 l 0.071909,0.103265 C 8.5971691,6.4434006 8.8439964,6.219336 8.8197023,5.9261028 c 0.056361,-0.089631 0.063166,0.096447 0.00292,0.3020004 0.082597,-0.2279622 0.02138,-0.264981 0.042756,-0.4530013 0.023319,0.063325 0.054419,0.1305423 0.069966,0.1977622 -0.055388,-0.221143 0.055392,-0.3721429 0.082604,-0.5007373 -0.02721,-0.01169 -0.083571,0.09742 -0.097176,-0.16269 0.00193,-0.1130068 0.030126,-0.059423 0.040814,-0.087682 -0.020406,-0.012658 -0.07677,-0.099367 -0.1107807,-0.2659546 0.024297,-0.038966 0.06608,0.1013164 0.09912,0.1071618 C 8.9285392,4.930472 8.8916123,4.8301296 8.8896685,4.7288132 8.7915202,4.5144898 8.8556573,4.7570603 8.7759727,4.6362629 8.6710224,4.2972438 8.8624596,4.5573513 8.8750922,4.4034304 9.0334892,4.6421084 9.1238631,5.0132773 9.1646769,5.1662261 9.13358,4.9791798 9.0820775,4.79798 9.0198846,4.6226244 9.0684727,4.6440621 8.9421434,4.2378169 9.0830484,4.5066958 8.9324259,3.933868 8.4426583,3.3980604 7.9917614,3.1467181 8.0471514,3.1993231 8.1171184,3.2655697 8.0918522,3.2762862 7.8673761,3.1369762 7.9072184,3.126259 7.8751499,3.0668336 c -0.1826912,-0.076964 -0.1943518,0.00688 -0.3158222,0 C 7.2153244,2.8768654 7.1492446,2.8973233 6.8324508,2.7774977 l 0.014578,0.071114 c -0.2283639,-0.07988 -0.2662625,0.029225 -0.5121179,0 -0.015546,-0.012655 0.078714,-0.044816 0.1564538,-0.056502 -0.2205897,0.031176 -0.2108722,-0.044815 -0.4266033,0.00872 0.053447,-0.038967 0.109809,-0.064292 0.166171,-0.09742 C 6.0511553,2.7141259 5.8014128,2.8125164 5.8791536,2.7228942 5.5856815,2.8592813 5.0648175,3.0511983 4.7723178,3.3366371 l -0.00875,-0.063324 C 4.6294672,3.440876 4.1795418,3.7740509 4.143587,3.991297 L 4.107631,4.000117 C 4.0376655,4.1228654 3.9929646,4.2621756 3.937574,4.3888203 3.8462281,4.5505372 3.8044427,4.4511736 3.8170758,4.4765017 3.6372999,4.8554636 3.5488698,5.1740252 3.4721006,5.4351096 c 0.054419,0.085729 0.00101,0.5143756 0.02138,0.8572928 -0.089403,1.6951013 1.1408473,3.3414916 2.4867358,3.7214276 0.1972678,0.07404 0.4907394,0.07112 0.740482,0.07793 C 6.4262549,10.00409 6.3883562,10.045982 6.100715,9.9417435 5.8947014,9.8394502 5.8490287,9.7235218 5.7022929,9.5910305 l 0.058307,0.1071618 C 5.4729578,9.5920034 5.5934555,9.5666751 5.3592613,9.4897133 l 0.062193,-0.083781 C 5.3291373,9.3980937 5.1755987,9.2422674 5.1328412,9.1555644 l -0.1010631,0.00395 C 4.9093362,9.0026176 4.8432562,8.8886365 4.8481149,8.8009587 l -0.032067,0.060404 C 4.7781486,8.7951135 4.3651497,8.2709957 4.5799094,8.3927696 4.5400674,8.3557507 4.4866201,8.3313954 4.4292861,8.2222859 l 0.043731,-0.051634 C 4.3700087,8.0323177 4.2835226,7.8550136 4.2903245,7.7955878 c 0.054419,0.077932 0.092319,0.092551 0.130216,0.1052129 C 4.1601088,7.2276317 4.1455326,7.8637847 3.9482646,7.2149671 l 0.041787,-0.00294 C 3.9579836,7.1613628 3.9385485,7.1068135 3.9132836,7.0532325 L 3.9317463,6.8642384 C 3.744196,6.6382254 3.8792708,5.9036814 3.9064798,5.500364 3.9249427,5.3366995 4.0629335,5.1613439 4.1669123,4.8885687 L 4.1037473,4.8768807 C 4.2252173,4.654764 4.7995285,3.9854915 5.065791,4.019588 5.1950354,3.8510517 5.040523,4.019588 5.01526,3.976724 5.2990131,3.6708244 5.3874435,3.7604499 5.5788804,3.7058956 5.7848933,3.5782751 5.4020195,3.7555807 5.499196,3.6571912 5.8558326,3.5626906 5.7518536,3.4418938 6.2173272,3.3931839 6.2659148,3.4224089 6.1026597,3.4379979 6.0618454,3.4759929 6.3592046,3.3240187 7.0015382,3.3590904 7.4193955,3.5597739 7.9033323,3.7965032 8.4475183,4.4940275 8.468897,5.1496613 l 0.024297,0.00688 C 8.481533,5.4176261 8.532067,5.7196274 8.443633,5.9962993 L 8.50291,5.8647556 M 6.43986,2.5212816 c 0.068994,0.012667 0.1496513,0.022409 0.1379902,0.038968 0.075797,-0.016559 0.092319,-0.032145 -0.1379902,-0.038968 m 1.4391783,3.2460282 c 0.015548,-0.2377041 -0.045671,-0.162691 -0.066081,-0.07209 0.023319,0.013639 0.042756,0.1675611 0.066081,0.072089 m -0.2565448,0.679989 c 0.077742,-0.1081354 0.1331314,-0.2269869 0.1535384,-0.349736 -0.017495,0.087682 -0.064136,0.1626907 -0.1078657,0.2425757 -0.2409967,0.1548963 -0.022351,-0.092551 0,-0.1860724 -0.2594599,0.3331757 -0.035955,0.1997107 -0.045672,0.2932327 m -0.692866,0.1763306 c -0.1292441,9.602e-4 0.024297,0.067222 0.1933808,0.0945 0.046646,-0.037015 0.088429,-0.075012 0.1263285,-0.1110583 -0.1049499,0.026306 -0.2118436,0.026306 -0.3197093,0.016559"
     id="path2664-7" />
</svg>
