<?xml version="1.0" encoding="UTF-8" standalone="no"?>
<svg
   height="47.285686"
   width="47.285591"
   version="1.1"
   id="svg10"
   sodipodi:docname="distributor-logo-lubuntu.svg"
   inkscape:version="1.4 (unknown)"
   xmlns:inkscape="http://www.inkscape.org/namespaces/inkscape"
   xmlns:sodipodi="http://sodipodi.sourceforge.net/DTD/sodipodi-0.dtd"
   xmlns:xlink="http://www.w3.org/1999/xlink"
   xmlns="http://www.w3.org/2000/svg"
   xmlns:svg="http://www.w3.org/2000/svg"
   xmlns:rdf="http://www.w3.org/1999/02/22-rdf-syntax-ns#"
   xmlns:cc="http://creativecommons.org/ns#"
   xmlns:dc="http://purl.org/dc/elements/1.1/">
  <style
     id="style945" />
  <metadata
     id="metadata16">
    <rdf:RDF>
      <cc:Work
         rdf:about="">
        <dc:format>image/svg+xml</dc:format>
        <dc:type
           rdf:resource="http://purl.org/dc/dcmitype/StillImage" />
      </cc:Work>
    </rdf:RDF>
  </metadata>
  <defs
     id="defs14">
    <linearGradient
       id="c"
       x1="31.458"
       x2="31.458"
       y1="51.726002"
       y2="62.897999"
       gradientTransform="matrix(0.36079,0,0,0.36079,-2.8832,-9.4399)"
       gradientUnits="userSpaceOnUse">
      <stop
         stop-color="#1776ff"
         offset="0"
         id="stop292" />
      <stop
         stop-color="#2fceff"
         offset="1"
         id="stop294" />
    </linearGradient>
    <linearGradient
       id="d"
       x1="31.458"
       x2="31.458"
       y1="36.897999"
       y2="59.897999"
       gradientTransform="matrix(0.36079,0,0,0.36079,-2.8832,-9.4399)"
       gradientUnits="userSpaceOnUse">
      <stop
         stop-color="#ff5514"
         offset="0"
         id="stop297" />
      <stop
         stop-color="#ff9014"
         offset="1"
         id="stop299" />
    </linearGradient>
    <linearGradient
       id="a"
       x1="31.458"
       x2="31.458"
       y1="46.897999"
       y2="56.897999"
       gradientTransform="matrix(0.36079,0,0,0.36079,-2.8832,-9.4399)"
       gradientUnits="userSpaceOnUse">
      <stop
         stop-color="#c0e5fb"
         offset="0"
         id="stop302" />
      <stop
         stop-color="#c3faff"
         offset="1"
         id="stop304" />
    </linearGradient>
    <linearGradient
       gradientTransform="matrix(1.0394952,0,0,1.0394363,-448.49881,-520.66414)"
       gradientUnits="userSpaceOnUse"
       x2="426.69501"
       y2="499.92099"
       y1="547.67499"
       id="a-6"
       x1="389.32001">
      <stop
         stop-color="#18222a"
         style="stop-color:#436077;stop-opacity:1;"
         id="stop216"
         offset="0" />
      <stop
         stop-color="#566069"
         offset="1"
         style="stop-color:#6d7983;stop-opacity:1"
         id="stop218" />
    </linearGradient>
    <linearGradient
       id="e"
       x1="8.4461002"
       x2="24.603001"
       y1="6.2688999"
       y2="24.570999"
       gradientUnits="userSpaceOnUse"
       gradientTransform="translate(0.254427,-38.49298)">
      <stop
         stop-opacity=".2088"
         offset="0"
         id="stop4" />
      <stop
         stop-opacity="0"
         offset="1"
         id="stop6" />
    </linearGradient>
    <linearGradient
       id="d-3"
       x1="7.8488002"
       x2="14.108"
       y1="3.5121"
       y2="14.183"
       gradientUnits="userSpaceOnUse"
       gradientTransform="translate(0.254427,-38.49298)">
      <stop
         stop-opacity=".2088"
         offset="0"
         id="stop14" />
      <stop
         stop-opacity="0"
         offset="1"
         id="stop16" />
    </linearGradient>
    <linearGradient
       id="c-6"
       x1="31.458"
       x2="31.458"
       y1="51.726002"
       y2="62.897999"
       gradientTransform="matrix(0.36079,0,0,0.36079,-2.8832,-9.4399)"
       gradientUnits="userSpaceOnUse">
      <stop
         stop-color="#1776ff"
         offset="0"
         id="stop292-7"
         style="stop-color:#55ddff;stop-opacity:1" />
      <stop
         stop-color="#2fceff"
         offset="1"
         id="stop294-5"
         style="stop-color:#00ccff;stop-opacity:1" />
    </linearGradient>
    <linearGradient
       id="d-35"
       x1="31.458"
       x2="31.458"
       y1="36.897999"
       y2="59.897999"
       gradientTransform="matrix(0.36079,0,0,0.36079,-2.8832,-9.4399)"
       gradientUnits="userSpaceOnUse">
      <stop
         stop-color="#ff5514"
         offset="0"
         id="stop297-6"
         style="stop-color:#ffccaa;stop-opacity:1" />
      <stop
         stop-color="#ff9014"
         offset="1"
         id="stop299-2"
         style="stop-color:#ff9955;stop-opacity:1" />
    </linearGradient>
    <linearGradient
       id="a-9"
       x1="31.458"
       x2="31.458"
       y1="46.897999"
       y2="56.897999"
       gradientTransform="matrix(0.36079,0,0,0.36079,-2.8832,-9.4399)"
       gradientUnits="userSpaceOnUse">
      <stop
         stop-color="#c0e5fb"
         offset="0"
         id="stop302-1"
         style="stop-color:#e3d7f4;stop-opacity:1" />
      <stop
         stop-color="#c3faff"
         offset="1"
         id="stop304-2"
         style="stop-color:#aa87de;stop-opacity:1" />
    </linearGradient>
    <filter
       id="filter5877"
       x="-2.357507"
       y="-2.3296077"
       width="5.715014"
       height="5.6592155"
       color-interpolation-filters="sRGB">
      <feGaussianBlur
         stdDeviation="0.28543518"
         id="feGaussianBlur1374" />
    </filter>
    <filter
       id="filter2488"
       x="-2.357507"
       y="-2.3296077"
       width="5.715014"
       height="5.6592155"
       color-interpolation-filters="sRGB">
      <feGaussianBlur
         stdDeviation="0.28543518"
         id="feGaussianBlur2486" />
    </filter>
    <filter
       id="filter2492"
       x="-2.357507"
       y="-2.3296077"
       width="5.715014"
       height="5.6592155"
       color-interpolation-filters="sRGB">
      <feGaussianBlur
         stdDeviation="0.28543518"
         id="feGaussianBlur2490" />
    </filter>
    <filter
       id="filter2496"
       x="-2.357507"
       y="-2.3296077"
       width="5.715014"
       height="5.6592155"
       color-interpolation-filters="sRGB">
      <feGaussianBlur
         stdDeviation="0.28543518"
         id="feGaussianBlur2494" />
    </filter>
    <filter
       id="filter2500"
       x="-2.357507"
       y="-2.3296077"
       width="5.715014"
       height="5.6592155"
       color-interpolation-filters="sRGB">
      <feGaussianBlur
         stdDeviation="0.28543518"
         id="feGaussianBlur2498" />
    </filter>
    <filter
       id="filter2504"
       x="-2.357507"
       y="-2.3296077"
       width="5.715014"
       height="5.6592155"
       color-interpolation-filters="sRGB">
      <feGaussianBlur
         stdDeviation="0.28543518"
         id="feGaussianBlur2502" />
    </filter>
    <filter
       id="filter2508"
       x="-2.357507"
       y="-2.3296077"
       width="5.715014"
       height="5.6592155"
       color-interpolation-filters="sRGB">
      <feGaussianBlur
         stdDeviation="0.28543518"
         id="feGaussianBlur2506" />
    </filter>
    <filter
       id="filter2512"
       x="-2.357507"
       y="-2.3296077"
       width="5.715014"
       height="5.6592155"
       color-interpolation-filters="sRGB">
      <feGaussianBlur
         stdDeviation="0.28543518"
         id="feGaussianBlur2510" />
    </filter>
    <filter
       id="filter2516"
       x="-2.357507"
       y="-2.3296077"
       width="5.715014"
       height="5.6592155"
       color-interpolation-filters="sRGB">
      <feGaussianBlur
         stdDeviation="0.28543518"
         id="feGaussianBlur2514" />
    </filter>
    <filter
       id="filter2520"
       x="-2.357507"
       y="-2.3296077"
       width="5.715014"
       height="5.6592155"
       color-interpolation-filters="sRGB">
      <feGaussianBlur
         stdDeviation="0.28543518"
         id="feGaussianBlur2518" />
    </filter>
    <filter
       id="filter2524"
       x="-2.357507"
       y="-2.3296077"
       width="5.715014"
       height="5.6592155"
       color-interpolation-filters="sRGB">
      <feGaussianBlur
         stdDeviation="0.28543518"
         id="feGaussianBlur2522" />
    </filter>
    <filter
       id="filter2528"
       x="-2.357507"
       y="-2.3296077"
       width="5.715014"
       height="5.6592155"
       color-interpolation-filters="sRGB">
      <feGaussianBlur
         stdDeviation="0.28543518"
         id="feGaussianBlur2526" />
    </filter>
    <filter
       id="filter2532"
       x="-2.357507"
       y="-2.3296077"
       width="5.715014"
       height="5.6592155"
       color-interpolation-filters="sRGB">
      <feGaussianBlur
         stdDeviation="0.28543518"
         id="feGaussianBlur2530" />
    </filter>
    <filter
       id="filter2536"
       x="-2.357507"
       y="-2.3296077"
       width="5.715014"
       height="5.6592155"
       color-interpolation-filters="sRGB">
      <feGaussianBlur
         stdDeviation="0.28543518"
         id="feGaussianBlur2534" />
    </filter>
    <filter
       id="filter2540"
       x="-2.357507"
       y="-2.3296077"
       width="5.715014"
       height="5.6592155"
       color-interpolation-filters="sRGB">
      <feGaussianBlur
         stdDeviation="0.28543518"
         id="feGaussianBlur2538" />
    </filter>
    <linearGradient
       id="linearGradient1566"
       x1="8.3549995"
       x2="8.3996"
       y1="16.007"
       y2="0.79374999"
       gradientTransform="matrix(2.7849621,0,0,2.7849621,0.42101663,0.42102106)"
       gradientUnits="userSpaceOnUse">
      <stop
         stop-color="#2e3440"
         stop-opacity=".2"
         offset="0"
         id="stop1366"
         style="stop-color:#4f5a6f;stop-opacity:0.54245424;" />
      <stop
         stop-color="#d8dee9"
         offset="1"
         id="stop1368" />
    </linearGradient>
    <filter
       id="filter5815"
       x="-0.05500596"
       y="-0.11783287"
       width="1.1100119"
       height="1.2356657"
       color-interpolation-filters="sRGB">
      <feGaussianBlur
         stdDeviation="0.19020097"
         id="feGaussianBlur1371" />
    </filter>
    <filter
       id="filter5877-3"
       x="-2.357507"
       y="-2.3296077"
       width="5.715014"
       height="5.6592155"
       color-interpolation-filters="sRGB">
      <feGaussianBlur
         stdDeviation="0.28543518"
         id="feGaussianBlur1374-6" />
    </filter>
    <filter
       id="filter919"
       x="-2.357507"
       y="-2.3296077"
       width="5.715014"
       height="5.6592155"
       color-interpolation-filters="sRGB">
      <feGaussianBlur
         stdDeviation="0.28543518"
         id="feGaussianBlur917" />
    </filter>
    <filter
       id="filter923"
       x="-2.357507"
       y="-2.3296077"
       width="5.715014"
       height="5.6592155"
       color-interpolation-filters="sRGB">
      <feGaussianBlur
         stdDeviation="0.28543518"
         id="feGaussianBlur921" />
    </filter>
    <filter
       id="filter927"
       x="-2.357507"
       y="-2.3296077"
       width="5.715014"
       height="5.6592155"
       color-interpolation-filters="sRGB">
      <feGaussianBlur
         stdDeviation="0.28543518"
         id="feGaussianBlur925" />
    </filter>
    <filter
       id="filter931"
       x="-2.357507"
       y="-2.3296077"
       width="5.715014"
       height="5.6592155"
       color-interpolation-filters="sRGB">
      <feGaussianBlur
         stdDeviation="0.28543518"
         id="feGaussianBlur929" />
    </filter>
    <filter
       id="filter935"
       x="-2.357507"
       y="-2.3296077"
       width="5.715014"
       height="5.6592155"
       color-interpolation-filters="sRGB">
      <feGaussianBlur
         stdDeviation="0.28543518"
         id="feGaussianBlur933" />
    </filter>
    <filter
       id="filter939"
       x="-2.357507"
       y="-2.3296077"
       width="5.715014"
       height="5.6592155"
       color-interpolation-filters="sRGB">
      <feGaussianBlur
         stdDeviation="0.28543518"
         id="feGaussianBlur937" />
    </filter>
    <filter
       id="filter943"
       x="-2.357507"
       y="-2.3296077"
       width="5.715014"
       height="5.6592155"
       color-interpolation-filters="sRGB">
      <feGaussianBlur
         stdDeviation="0.28543518"
         id="feGaussianBlur941" />
    </filter>
    <filter
       id="filter947"
       x="-2.357507"
       y="-2.3296077"
       width="5.715014"
       height="5.6592155"
       color-interpolation-filters="sRGB">
      <feGaussianBlur
         stdDeviation="0.28543518"
         id="feGaussianBlur945" />
    </filter>
    <filter
       id="filter951"
       x="-2.357507"
       y="-2.3296077"
       width="5.715014"
       height="5.6592155"
       color-interpolation-filters="sRGB">
      <feGaussianBlur
         stdDeviation="0.28543518"
         id="feGaussianBlur949" />
    </filter>
    <filter
       id="filter955"
       x="-2.357507"
       y="-2.3296077"
       width="5.715014"
       height="5.6592155"
       color-interpolation-filters="sRGB">
      <feGaussianBlur
         stdDeviation="0.28543518"
         id="feGaussianBlur953" />
    </filter>
    <filter
       id="filter959"
       x="-2.357507"
       y="-2.3296077"
       width="5.715014"
       height="5.6592155"
       color-interpolation-filters="sRGB">
      <feGaussianBlur
         stdDeviation="0.28543518"
         id="feGaussianBlur957" />
    </filter>
    <filter
       id="filter963"
       x="-2.357507"
       y="-2.3296077"
       width="5.715014"
       height="5.6592155"
       color-interpolation-filters="sRGB">
      <feGaussianBlur
         stdDeviation="0.28543518"
         id="feGaussianBlur961" />
    </filter>
    <filter
       id="filter967"
       x="-2.357507"
       y="-2.3296077"
       width="5.715014"
       height="5.6592155"
       color-interpolation-filters="sRGB">
      <feGaussianBlur
         stdDeviation="0.28543518"
         id="feGaussianBlur965" />
    </filter>
    <filter
       id="filter971"
       x="-2.357507"
       y="-2.3296077"
       width="5.715014"
       height="5.6592155"
       color-interpolation-filters="sRGB">
      <feGaussianBlur
         stdDeviation="0.28543518"
         id="feGaussianBlur969" />
    </filter>
    <filter
       id="filter5815-3"
       x="-0.05500596"
       y="-0.11783287"
       width="1.1100119"
       height="1.2356657"
       color-interpolation-filters="sRGB">
      <feGaussianBlur
         stdDeviation="0.19020097"
         id="feGaussianBlur1371-5" />
    </filter>
    <linearGradient
       id="paint4_linear_77:23-3-9"
       x1="5.7714014"
       y1="46.610188"
       x2="7.0511508"
       y2="-11.516281"
       gradientUnits="userSpaceOnUse"
       gradientTransform="matrix(0.00349877,0.71427605,-0.71427754,0.00374183,-11.045455,19.915239)">
      <stop
         stop-color="#E4F9FF"
         stop-opacity="0.1"
         id="stop43-6-1"
         offset="0"
         style="stop-color:#26cfff;stop-opacity:0.7758621;" />
      <stop
         offset="1"
         stop-color="#E4F9FF"
         stop-opacity="0.8"
         id="stop44-7-2"
         style="stop-color:#05c7ff;stop-opacity:0.80000001;" />
    </linearGradient>
    <linearGradient
       id="paint4_linear_77:23-3-0-0"
       x1="5.762825"
       y1="44.747261"
       x2="6.5105295"
       y2="-8.739049"
       gradientUnits="userSpaceOnUse"
       gradientTransform="matrix(0.51837914,0.49111439,-0.49141329,0.51866228,6.7448933,21.744117)">
      <stop
         stop-color="#E4F9FF"
         stop-opacity="0.1"
         id="stop43-6-9-6"
         offset="0"
         style="stop-color:#26cfff;stop-opacity:0.82635468;" />
      <stop
         offset="1"
         stop-color="#E4F9FF"
         stop-opacity="0.8"
         id="stop44-7-3-2"
         style="stop-color:#05c7ff;stop-opacity:0.80000001;" />
    </linearGradient>
    <linearGradient
       inkscape:collect="always"
       xlink:href="#linearGradient14"
       id="linearGradient15"
       x1="-9.6850061"
       y1="45.161198"
       x2="11.98815"
       y2="21.735205"
       gradientUnits="userSpaceOnUse"
       gradientTransform="translate(-0.38097993,0.00821472)" />
    <linearGradient
       id="linearGradient14"
       inkscape:collect="always">
      <stop
         style="stop-color:#9955ff;stop-opacity:0.45197046;"
         offset="0"
         id="stop12" />
      <stop
         style="stop-color:#5599ff;stop-opacity:1"
         offset="1"
         id="stop13" />
    </linearGradient>
    <linearGradient
       inkscape:collect="always"
       xlink:href="#linearGradient14"
       id="linearGradient953"
       x1="-45.452457"
       y1="23.120121"
       x2="-0.32164383"
       y2="23.120121"
       gradientUnits="userSpaceOnUse"
       gradientTransform="translate(-0.07344497,-0.07292961)" />
  </defs>
  <sodipodi:namedview
     pagecolor="#000000"
     bordercolor="#666666"
     borderopacity="1"
     objecttolerance="10"
     gridtolerance="10"
     guidetolerance="10"
     inkscape:pageopacity="0"
     inkscape:pageshadow="2"
     inkscape:window-width="1920"
     inkscape:window-height="998"
     id="namedview12"
     showgrid="false"
     inkscape:zoom="13.618807"
     inkscape:cx="22.211931"
     inkscape:cy="25.332615"
     inkscape:window-x="0"
     inkscape:window-y="0"
     inkscape:window-maximized="1"
     inkscape:current-layer="svg10"
     inkscape:document-rotation="0"
     inkscape:showpageshadow="2"
     inkscape:pagecheckerboard="0"
     inkscape:deskcolor="#d1d1d1">
    <inkscape:grid
       type="xygrid"
       id="grid3007"
       originx="18.976607"
       originy="-56.927741"
       spacingy="1"
       spacingx="1"
       units="px"
       visible="false" />
  </sodipodi:namedview>
  <rect
     x="-46.165596"
     y="1.1367134"
     width="45.130814"
     height="45.11338"
     rx="6.0931301"
     shape-rendering="crispEdges"
     id="rect5-6-7-3"
     ry="6.7034802"
     transform="matrix(0.00214277,-0.9999977,0.99999838,0.00180252,0,0)"
     style="fill:#80b3ff;fill-opacity:0.15;stroke:url(#linearGradient953);stroke-width:2;stroke-miterlimit:4;stroke-dasharray:none;stroke-opacity:1" />
  <rect
     x="-14.442318"
     y="18.47245"
     width="29.906595"
     height="29.905661"
     rx="6.0928807"
     shape-rendering="crispEdges"
     id="rect5-6-6-6-6"
     style="fill:#5599ff;fill-opacity:0.122146;stroke:url(#linearGradient15);stroke-width:1.5;stroke-miterlimit:4;stroke-dasharray:none;stroke-opacity:1"
     ry="6.7032051"
     transform="matrix(0.71824191,-0.69579348,0.69620532,0.71784271,0,0)" />
  <g
     id="g1"
     transform="matrix(0.89420795,0,0,0.89554429,2.967784,-48.101537)">
    <path
       style="opacity:0.2;stroke-width:0.736725"
       d="m 26.037246,68.737598 c -0.979498,-0.02051 -1.963812,0.261569 -2.783856,0.801604 -0.817767,0.537756 -1.468781,1.326658 -1.84008,2.233553 -0.371297,0.909172 -0.461938,1.927621 -0.254647,2.886923 0.207288,0.957024 0.708438,1.850626 1.421421,2.522822 -0.362186,-0.597001 -0.549335,-1.303752 -0.526559,-2.00329 0.0205,-0.699539 0.250215,-1.389378 0.648848,-1.965872 0.398632,-0.574213 0.96872,-1.030909 1.615644,-1.29523 0.646924,-0.264319 1.370833,-0.336518 2.05876,-0.204359 0.902428,0.170673 1.726316,0.703269 2.267369,1.444902 h 8.754403 L 30.410852,71.654744 C 30.037275,70.807095 29.417553,70.070602 28.6499,69.55791 27.879969,69.045219 26.962075,68.755828 26.037246,68.737598 Z m -14.28759,1.75 c -1.120728,1.157544 -1.763109,2.76401 -1.749442,4.375 0.01327,1.584922 0.668203,3.151086 1.7739,4.285773 l -0.861773,-0.264803 c -0.302961,1.157544 -0.210284,2.412375 0.258964,3.512953 0.471525,1.098298 1.317364,2.033276 2.365199,2.612047 0.799544,0.442054 1.710725,0.676399 2.624163,0.676399 0.913439,0 1.82318,-0.234345 2.622725,-0.676399 -0.735762,0.06608 -1.48437,-0.05493 -2.160907,-0.351151 -0.676537,-0.293943 -1.278275,-0.76371 -1.7293,-1.347039 -0.519362,-0.674474 -0.840313,-1.501034 -0.906372,-2.348684 l 8.295463,1.421874 -8.327114,-2.563116 c -0.0059,-0.0062 -0.01288,-0.01108 -0.0187,-0.01727 -0.621868,-0.658523 -1.008401,-1.535574 -1.079015,-2.437911 -0.06606,-0.874993 0.163295,-1.768954 0.641654,-2.502672 l 9.621932,5.25 z m 16.03991,5.736431 c -0.496842,0.587575 -0.822038,1.317807 -0.926514,2.079564 -0.09751,0.719955 -4.7e-4,1.457343 0.189907,2.158717 0.19038,0.699052 0.47383,1.372404 0.752433,2.043586 0.278602,0.671183 0.555516,1.344207 0.736607,2.047903 0.178771,0.703696 0.260281,1.444846 0.139552,2.160156 -0.201987,1.198374 -0.966361,2.264475 -1.962367,2.958881 -0.996005,0.694407 -2.210711,1.037815 -3.422634,1.116777 -1.529995,0.09986 -3.082609,-0.211797 -4.457049,-0.89227 l 0.03453,7.13528 1.783971,-3.548931 c 2.356518,0.689762 4.991265,0.350101 7.097038,-0.910979 1.063334,-0.636345 1.997109,-1.501537 2.647182,-2.555921 0.652395,-1.054384 1.011891,-2.297566 0.953849,-3.5331 -0.08358,-1.762725 -0.982493,-3.36915 -1.841518,-4.908923 -0.861347,-1.539771 -1.727763,-3.172658 -1.739372,-4.937705 0,-0.137024 0.0051,-0.276011 0.01439,-0.413035 z"
       id="path2" />
    <path
       style="fill:#ffffff;stroke-width:0.736725"
       d="m 26.037246,68.001044 c -0.979498,-0.02051 -1.963812,0.261569 -2.783856,0.801604 -0.817767,0.537756 -1.468781,1.326658 -1.84008,2.233553 -0.371297,0.909172 -0.461938,1.927621 -0.254647,2.886923 0.207288,0.957024 0.708438,1.850626 1.421421,2.522822 -0.362186,-0.597001 -0.549335,-1.303752 -0.526559,-2.00329 0.0205,-0.699539 0.250215,-1.389378 0.648848,-1.965872 0.398632,-0.574213 0.96872,-1.030909 1.615644,-1.29523 0.646924,-0.264319 1.370833,-0.336518 2.05876,-0.204359 0.902428,0.170673 1.726316,0.703269 2.267369,1.444902 h 8.754403 L 30.410852,70.91819 C 30.037275,70.070541 29.417553,69.334048 28.6499,68.821356 27.879969,68.308665 26.962075,68.019274 26.037246,68.001044 Z m -14.28759,1.75 c -1.120728,1.157544 -1.763109,2.76401 -1.749442,4.375 0.01326,1.584838 0.668269,3.151072 1.7739,4.285773 l -0.861773,-0.264803 c -0.302961,1.157544 -0.210284,2.412375 0.258964,3.512953 0.471525,1.098298 1.317364,2.033276 2.365199,2.612047 0.799544,0.442054 1.710725,0.676399 2.624163,0.676399 0.913439,0 1.82318,-0.234345 2.622725,-0.676399 -0.735762,0.06608 -1.48437,-0.05493 -2.160907,-0.351151 -0.676537,-0.293943 -1.278275,-0.76371 -1.7293,-1.347039 C 14.373823,81.89935 14.052872,81.07279 13.986813,80.22514 l 8.295463,1.421874 -8.328553,-2.564556 c -0.0054,-0.0057 -0.01191,-0.01014 -0.01727,-0.01583 -0.621866,-0.658527 -1.008399,-1.535578 -1.079013,-2.437914 -0.06606,-0.874994 0.163295,-1.768955 0.641654,-2.502673 l 9.621932,5.25 z m 16.03991,5.736431 c -0.496842,0.587575 -0.822038,1.317807 -0.926514,2.079564 -0.09751,0.719955 -4.7e-4,1.457343 0.189907,2.158717 0.19038,0.699052 0.47383,1.372404 0.752433,2.043586 0.278602,0.671183 0.555516,1.344207 0.736607,2.047903 0.178771,0.703696 0.260281,1.444846 0.139552,2.160156 -0.201987,1.198374 -0.966361,2.264475 -1.962367,2.958881 -0.996005,0.694407 -2.210711,1.037815 -3.422634,1.116777 -1.529995,0.09986 -3.082609,-0.211797 -4.457049,-0.89227 l 0.03452,7.13528 1.783971,-3.548931 c 2.356519,0.689762 4.991265,0.350101 7.097038,-0.910979 1.063335,-0.636345 1.99711,-1.501537 2.647182,-2.555921 0.652395,-1.054384 1.011891,-2.297566 0.953849,-3.5331 -0.08358,-1.762725 -0.982494,-3.36915 -1.841518,-4.908923 -0.861346,-1.539771 -1.727763,-3.172658 -1.739372,-4.937705 0,-0.137024 0.0051,-0.276011 0.01439,-0.413035 z"
       id="path3" />
  </g>
</svg>
