<?xml version="1.0" encoding="UTF-8" standalone="no"?>
<svg
   xmlns:dc="http://purl.org/dc/elements/1.1/"
   xmlns:cc="http://creativecommons.org/ns#"
   xmlns:rdf="http://www.w3.org/1999/02/22-rdf-syntax-ns#"
   xmlns:svg="http://www.w3.org/2000/svg"
   xmlns="http://www.w3.org/2000/svg"
   xmlns:xlink="http://www.w3.org/1999/xlink"
   xmlns:sodipodi="http://sodipodi.sourceforge.net/DTD/sodipodi-0.dtd"
   xmlns:inkscape="http://www.inkscape.org/namespaces/inkscape"
   width="47.285591"
   height="47.28569"
   version="1.1"
   viewBox="0 0 12.510734 12.51076"
   id="svg12"
   sodipodi:docname="dragonplayer.svg"
   inkscape:version="1.0.1 (3bc2e813f5, 2020-09-07)">
  <style
     id="style867"></style>
  <metadata
     id="metadata42">
    <rdf:RDF>
      <cc:Work
         rdf:about="">
        <dc:format>image/svg+xml</dc:format>
        <dc:type
           rdf:resource="http://purl.org/dc/dcmitype/StillImage" />
      </cc:Work>
    </rdf:RDF>
  </metadata>
  <defs
     id="defs16">
    <linearGradient
       id="c"
       y1="523.79999"
       x1="403.57001"
       y2="536.79999"
       x2="416.57001"
       gradientUnits="userSpaceOnUse"
       gradientTransform="matrix(0.34526714,0,0,0.34526706,-134.80427,-174.63325)">
      <stop
         stop-color="#292c2f"
         id="stop1568" />
      <stop
         offset="1"
         stop-opacity="0"
         id="stop1570" />
    </linearGradient>
    <linearGradient
       xlink:href="#b-2"
       id="linearGradient4189"
       x1="14.369"
       y1="22.521999"
       x2="26.521999"
       y2="22.521999"
       gradientUnits="userSpaceOnUse" />
    <linearGradient
       x1="36"
       gradientUnits="userSpaceOnUse"
       x2="14"
       y2="12"
       y1="44"
       id="b-2">
      <stop
         style="stop-color:#bfc9c9;stop-opacity:1"
         stop-color="#536161"
         id="stop1579" />
      <stop
         style="stop-color:#fbfbfb;stop-opacity:1"
         stop-color="#f4f5f5"
         offset="1"
         id="stop1581" />
    </linearGradient>
    <linearGradient
       xlink:href="#b-2"
       id="linearGradient4428"
       gradientUnits="userSpaceOnUse"
       x1="31.586"
       y1="36.345001"
       x2="1.2029999"
       y2="6.723" />
    <linearGradient
       xlink:href="#b-2"
       id="linearGradient4189-3"
       x1="14.369"
       y1="22.521999"
       x2="26.521999"
       y2="22.521999"
       gradientUnits="userSpaceOnUse"
       gradientTransform="translate(20.841982,61.553822)" />
    <linearGradient
       xlink:href="#b-2"
       id="linearGradient4428-5"
       gradientUnits="userSpaceOnUse"
       x1="31.586"
       y1="36.345001"
       x2="1.2029999"
       y2="6.723"
       gradientTransform="translate(20.841982,61.553822)" />
    <linearGradient
       xlink:href="#b-2"
       id="linearGradient4189-3-3"
       x1="14.369"
       y1="22.521999"
       x2="26.521999"
       y2="22.521999"
       gradientUnits="userSpaceOnUse"
       gradientTransform="translate(4.376802,4.4211693)" />
    <linearGradient
       xlink:href="#b-2"
       id="linearGradient4428-5-5"
       gradientUnits="userSpaceOnUse"
       x1="31.586"
       y1="36.345001"
       x2="1.2029999"
       y2="6.723"
       gradientTransform="translate(4.376802,4.4211693)" />
    <linearGradient
       inkscape:collect="always"
       xlink:href="#linearGradient14"
       id="linearGradient15"
       x1="-9.6850061"
       y1="45.161198"
       x2="11.98815"
       y2="21.735205"
       gradientUnits="userSpaceOnUse"
       gradientTransform="scale(0.26457813)" />
    <linearGradient
       id="linearGradient14"
       inkscape:collect="always">
      <stop
         style="stop-color:#9955ff;stop-opacity:0.45197046;"
         offset="0"
         id="stop12" />
      <stop
         style="stop-color:#c83771;stop-opacity:1"
         offset="1"
         id="stop13" />
    </linearGradient>
    <filter
       id="filter2917-3"
       x="-0.96181148"
       y="-0.66745996"
       width="2.9236228"
       height="2.3349199"
       color-interpolation-filters="sRGB">
      <feGaussianBlur
         stdDeviation="0.2871969"
         id="feGaussianBlur732-5" />
    </filter>
    <filter
       id="filter1"
       x="-0.96181148"
       y="-0.66745996"
       width="2.9236228"
       height="2.3349199"
       color-interpolation-filters="sRGB">
      <feGaussianBlur
         stdDeviation="0.2871969"
         id="feGaussianBlur1" />
    </filter>
    <filter
       id="filter2"
       x="-0.96181148"
       y="-0.66745996"
       width="2.9236228"
       height="2.3349199"
       color-interpolation-filters="sRGB">
      <feGaussianBlur
         stdDeviation="0.2871969"
         id="feGaussianBlur2" />
    </filter>
    <linearGradient
       id="paint0_linear"
       x1="169.86"
       y1="7.7666602"
       x2="-5.1536398"
       y2="162.661"
       gradientUnits="userSpaceOnUse"
       gradientTransform="translate(11.720002,6.64)">
      <stop
         stop-color="#FE7970"
         id="stop8" />
      <stop
         offset="1"
         stop-color="#DC3282"
         id="stop9" />
    </linearGradient>
    <linearGradient
       inkscape:collect="always"
       xlink:href="#linearGradient14"
       id="linearGradient875"
       x1="-12.025727"
       y1="6.1170783"
       x2="-0.085100174"
       y2="6.1170783"
       gradientUnits="userSpaceOnUse" />
  </defs>
  <sodipodi:namedview
     id="namedview14"
     pagecolor="#000000"
     bordercolor="#666666"
     borderopacity="1.0"
     inkscape:showpageshadow="2"
     inkscape:pageopacity="0.0"
     inkscape:pagecheckerboard="0"
     inkscape:deskcolor="#d1d1d1"
     showgrid="false"
     inkscape:zoom="12.522228"
     inkscape:cx="17.105677"
     inkscape:cy="24.569562"
     inkscape:window-width="1920"
     inkscape:window-height="988"
     inkscape:window-x="0"
     inkscape:window-y="0"
     inkscape:window-maximized="1"
     inkscape:current-layer="svg12"
     inkscape:document-rotation="0">
    <inkscape:grid
       type="xygrid"
       id="grid244"
       originx="9.9594769"
       originy="-31.57929"
       spacingy="1"
       spacingx="1"
       units="px"
       visible="false" />
  </sodipodi:namedview>
  <rect
     x="-12.194976"
     y="0.32004508"
     width="11.940627"
     height="11.936014"
     rx="1.6121091"
     shape-rendering="crispEdges"
     id="rect5-6-7-3"
     ry="1.7735944"
     transform="matrix(0.00523883,-0.99998628,0.999988,0.00489859,0,0)"
     style="fill:#80b3ff;fill-opacity:0.15;stroke:url(#linearGradient875);stroke-width:0.5291563;stroke-miterlimit:4;stroke-dasharray:none;stroke-opacity:1" />
  <rect
     x="-3.7202365"
     y="4.8851409"
     width="7.912631"
     height="7.912384"
     rx="1.612043"
     shape-rendering="crispEdges"
     id="rect5-6-6-6-6"
     style="fill:#80b3ff;fill-opacity:0.122146;stroke:url(#linearGradient15);stroke-width:0.39686725;stroke-opacity:1;stroke-miterlimit:4;stroke-dasharray:none"
     ry="1.7735215"
     transform="matrix(0.72612649,-0.68756114,0.6879775,0.72573202,0,0)" />
  <path
     d="m 5.4779545,2.5957912 c 0.147277,0.01652 0.2423086,0.1402395 0.3742723,0.191154 0.1216051,0.037967 0.1711479,-0.097363 0.2251942,-0.175075 0.1008863,0.06566 0.1945677,0.1451513 0.3089663,0.1866876 0.125208,-0.00131 0.2751871,-0.093789 0.379677,0.015189 C 6.94622,3.0116 7.0227857,3.2938642 7.2488809,3.4528606 c 0.1634902,0.1246075 0.3922877,0.087979 0.5602825,0.2027664 0.066655,0.043322 0.099089,0.1201411 0.1031412,0.1969589 -0.00771,0.122374 -0.029279,0.2434083 -0.051346,0.363995 C 7.5456867,4.2089609 7.2268117,4.1620929 6.9363115,4.0356967 6.7998442,3.9731697 6.6471623,4.0102427 6.5242069,4.0848287 c 0.067112,0.031253 0.1346655,0.062524 0.2035753,0.090665 0.2436597,0.087979 0.514343,0.1817745 0.6625208,0.4064245 0.00861,0.149171 -0.1531321,0.2483198 -0.1661935,0.3912384 0.058551,0.065658 0.1630402,0.1098663 0.1486275,0.213931 C 7.093947,5.2045141 6.9876552,4.8802625 6.7363384,4.8244345 6.5854585,4.7878119 6.4233188,4.7927267 6.2809962,4.7243967 6.156239,4.6636579 6.0747183,4.5470882 5.9819386,4.4483848 5.8459216,4.5194048 5.7797139,4.6895607 5.8684409,4.8239931 6.0454434,5.1138502 6.3517075,5.2956253 6.6512157,5.4416698 6.3692725,5.5135788 6.2665839,5.8087924 6.0801236,5.9981589 c 0.022972,0.035289 0.045944,0.070565 0.068456,0.1058564 C 6.1003911,6.2076288 6.0576033,6.3134778 6.0062587,6.4157535 5.7409815,5.9391939 5.3595024,5.5425941 5.053239,5.0941865 4.8564186,4.8043302 4.689325,4.4501608 4.7753489,4.0928645 4.8190366,3.8722327 4.9658631,3.6962645 5.0978269,3.5211894 5.1815982,3.4336474 5.0496364,3.363086 5.000094,3.3027917 5.102332,3.2487458 5.2180816,3.2496458 5.3302283,3.2420523 5.3306781,3.0629576 5.1248511,3.071443 4.9991926,3.0361608 4.9586579,2.9620268 5.0464823,2.9312079 5.0987284,2.9030682 5.2532122,2.8432182 5.4216571,2.8798411 5.5824455,2.8713602 5.5500172,2.7789142 5.5166881,2.6864599 5.4779563,2.5957955 Z M 6.3571121,3.1219116 C 6.2233466,3.2469639 6.3967458,3.4725074 6.5521301,3.3697852 6.7381405,3.2581274 6.5174497,2.9736329 6.3571121,3.1219116 Z"
     id="path1"
     style="fill:#c83771;stroke-width:0.264578" />
  <path
     d="m 7.358325,4.3880805 c 0.2175371,-0.00665 0.4310212,0.05002 0.6476583,0.067446 0.1373682,0.00981 0.2459117,0.097367 0.3485997,0.1786488 0.1324144,0.1156755 0.3490511,0.065201 0.4616482,0.2116987 0.1112485,0.1116562 0.077922,0.2889631 0.1652927,0.4113368 0.1161992,0.0987 0.312569,0.066547 0.3909365,0.2139321 -0.11395,0.043324 -0.2337515,0.09736 -0.3589591,0.077261 C 8.8432544,5.5215962 8.7180467,5.3925299 8.6068007,5.2728353 8.5428457,5.2053933 8.488799,5.1174115 8.3946678,5.0883803 8.2982852,5.0584615 8.1996497,5.0950725 8.1037172,5.1089302 8.032106,4.9892329 7.9695014,4.8583729 7.8569044,4.7699424 7.6997191,4.6301493 7.4835326,4.5627093 7.358325,4.3880805 Z"
     id="path2"
     style="fill:#d35f8d;stroke-width:0.264578" />
  <path
     d="M 6.0801236,5.9981472 C 6.2665839,5.808781 6.3692725,5.5135635 6.6512157,5.4416578 c 0.1351162,0.069234 0.2783396,0.1237146 0.4067004,0.2054462 0.059,0.1549761 0.1779033,0.2702049 0.3040118,0.3733737 -0.036487,0.2608269 0.2071785,0.4327753 0.2905003,0.6578722 -0.00442,0.017866 -0.013956,0.054041 -0.018463,0.071909 -0.045485,0.118801 -0.0067,0.2429616 0.022972,0.3599758 0.099982,0.3751595 0.1427719,0.7677395 0.1058441,1.1554062 C 7.7118807,8.0959256 7.7222399,7.9168304 7.6875597,7.7444356 7.6600857,7.6752046 7.6564822,7.5657865 7.5591984,7.5640003 7.4776782,7.6694042 7.4668685,7.8065156 7.4308379,7.9306753 7.3033782,8.4291041 7.0326948,8.9127939 6.6012228,9.2120299 6.4363811,9.3272644 6.2620809,9.4500785 6.175156,9.637659 6.112551,9.76048 6.117056,9.903399 6.145882,10.035153 6.196327,10.207993 6.3080218,10.356719 6.347656,10.533135 6.0008566,10.32054 5.7936776,9.849358 5.9504128,9.4603502 6.0724681,9.133423 6.3476551,8.9034141 6.5651925,8.6412478 6.9376634,8.1338869 7.0552148,7.4568103 6.8822658,6.8538717 6.8525386,6.7355183 6.812906,6.6162696 6.72463,6.5278387 6.7530055,6.9105923 6.796242,7.3036186 6.6764375,7.6765474 6.5719489,8.0302702 6.352159,8.3759558 6.0044593,8.534059 5.817548,8.6233781 5.6018122,8.6224895 5.4031911,8.5755972 5.1933104,8.4777862 4.9613608,8.3366558 4.895153,8.1012874 5.1586302,8.1410374 5.3865267,8.3375485 5.6653168,8.2969069 5.8729463,8.2821722 6.00491,8.0762767 6.0022072,7.8828895 6.0058143,7.4719983 5.7909753,7.0789721 5.4883142,6.8065339 5.3649084,6.6917496 5.2185318,6.6028745 5.0604454,6.5434745 5.0136062,6.2817546 5.2667231,6.1062329 5.4284125,5.9405371 5.5937049,6.1160588 5.7481882,6.3018524 5.8842054,6.5001522 5.9508619,6.5881328 6.0031079,6.6997917 6.115705,6.7373078 6.0927364,6.6260995 6.0522002,6.5193567 6.0062602,6.4157404 6.0576047,6.3134636 6.1003917,6.2076151 6.148583,6.1040001 6.1260643,6.0687147 6.1030942,6.0334317 6.0801242,5.9981461 Z"
     id="path3"
     style="fill:#c83771;stroke-width:0.264578" />
  <path
     d="M 2.5891651,5.4153076 C 3.0481106,5.1714527 3.5867747,5.0388066 4.1047212,5.1451025 4.623568,5.2473792 5.0694528,5.5667121 5.4284117,5.9405337 5.2667221,6.1062297 5.0136045,6.2817512 5.0604444,6.5434711 4.737967,6.4309249 4.3763049,6.4666481 4.070041,6.6113633 3.9033974,6.6841596 3.761075,6.80475 3.5858739,6.8596836 l -0.038288,0.01473 c -0.010343,-0.1844507 0.08873,-0.3452346 0.1477314,-0.5131642 0.015314,-0.04868 0.030177,-0.097362 0.04414,-0.1460448 -0.3193261,0.00981 -0.6291926,0.0996 -0.9386096,0.1715023 C 2.5990729,6.4304739 2.4274749,6.5465977 2.2662357,6.668526 L 2.2288512,6.693985 C 2.2531741,6.6126928 2.2995649,6.5398964 2.3635198,6.4836222 2.6256461,6.2384275 2.9652387,6.1022097 3.2579912,5.9003358 3.2989758,5.8230744 3.1998913,5.8034244 3.1494476,5.7748354 2.8621003,5.6359366 2.5373705,5.74179 2.2356105,5.6872934 2.3027179,5.5443745 2.4608047,5.4894412 2.5891651,5.4153023 Z"
     id="path4"
     style="fill:#c83771;stroke-width:0.264578" />
</svg>
