<?xml version="1.0" encoding="UTF-8" standalone="no"?>
<svg
   xmlns:dc="http://purl.org/dc/elements/1.1/"
   xmlns:cc="http://creativecommons.org/ns#"
   xmlns:rdf="http://www.w3.org/1999/02/22-rdf-syntax-ns#"
   xmlns:svg="http://www.w3.org/2000/svg"
   xmlns="http://www.w3.org/2000/svg"
   xmlns:xlink="http://www.w3.org/1999/xlink"
   xmlns:sodipodi="http://sodipodi.sourceforge.net/DTD/sodipodi-0.dtd"
   xmlns:inkscape="http://www.inkscape.org/namespaces/inkscape"
   width="47.285591"
   height="47.28569"
   version="1.1"
   viewBox="0 0 12.510734 12.51076"
   id="svg12"
   sodipodi:docname="easy-tag.svg"
   inkscape:version="1.0.1 (3bc2e813f5, 2020-09-07)">
  <style
     id="style982"></style>
  <metadata
     id="metadata157">
    <rdf:RDF>
      <cc:Work
         rdf:about="">
        <dc:format>image/svg+xml</dc:format>
        <dc:type
           rdf:resource="http://purl.org/dc/dcmitype/StillImage" />
      </cc:Work>
    </rdf:RDF>
  </metadata>
  <defs
     id="defs16">
    <linearGradient
       id="c"
       y1="523.79999"
       x1="403.57001"
       y2="536.79999"
       x2="416.57001"
       gradientUnits="userSpaceOnUse"
       gradientTransform="matrix(0.34526714,0,0,0.34526706,-134.80427,-174.63325)">
      <stop
         stop-color="#292c2f"
         id="stop1568" />
      <stop
         offset="1"
         stop-opacity="0"
         id="stop1570" />
    </linearGradient>
    <linearGradient
       xlink:href="#b-2"
       id="linearGradient4189"
       x1="14.369"
       y1="22.521999"
       x2="26.521999"
       y2="22.521999"
       gradientUnits="userSpaceOnUse" />
    <linearGradient
       x1="36"
       gradientUnits="userSpaceOnUse"
       x2="14"
       y2="12"
       y1="44"
       id="b-2">
      <stop
         style="stop-color:#bfc9c9;stop-opacity:1"
         stop-color="#536161"
         id="stop1579" />
      <stop
         style="stop-color:#fbfbfb;stop-opacity:1"
         stop-color="#f4f5f5"
         offset="1"
         id="stop1581" />
    </linearGradient>
    <linearGradient
       xlink:href="#b-2"
       id="linearGradient4428"
       gradientUnits="userSpaceOnUse"
       x1="31.586"
       y1="36.345001"
       x2="1.2029999"
       y2="6.723" />
    <linearGradient
       xlink:href="#b-2"
       id="linearGradient4189-3"
       x1="14.369"
       y1="22.521999"
       x2="26.521999"
       y2="22.521999"
       gradientUnits="userSpaceOnUse"
       gradientTransform="translate(20.841982,61.553822)" />
    <linearGradient
       xlink:href="#b-2"
       id="linearGradient4428-5"
       gradientUnits="userSpaceOnUse"
       x1="31.586"
       y1="36.345001"
       x2="1.2029999"
       y2="6.723"
       gradientTransform="translate(20.841982,61.553822)" />
    <linearGradient
       xlink:href="#b-2"
       id="linearGradient4189-3-3"
       x1="14.369"
       y1="22.521999"
       x2="26.521999"
       y2="22.521999"
       gradientUnits="userSpaceOnUse"
       gradientTransform="translate(4.376802,4.4211693)" />
    <linearGradient
       xlink:href="#b-2"
       id="linearGradient4428-5-5"
       gradientUnits="userSpaceOnUse"
       x1="31.586"
       y1="36.345001"
       x2="1.2029999"
       y2="6.723"
       gradientTransform="translate(4.376802,4.4211693)" />
    <linearGradient
       id="linearGradient11"
       inkscape:collect="always">
      <stop
         style="stop-color:#37c8ab;stop-opacity:0.60000002;"
         offset="0"
         id="stop4-3" />
      <stop
         style="stop-color:#37c8ab;stop-opacity:1;"
         offset="1"
         id="stop11" />
    </linearGradient>
    <filter
       id="filter2917-3"
       x="-0.96181148"
       y="-0.66745996"
       width="2.9236228"
       height="2.3349199"
       color-interpolation-filters="sRGB">
      <feGaussianBlur
         stdDeviation="0.2871969"
         id="feGaussianBlur732-5" />
    </filter>
    <filter
       id="filter1"
       x="-0.96181148"
       y="-0.66745996"
       width="2.9236228"
       height="2.3349199"
       color-interpolation-filters="sRGB">
      <feGaussianBlur
         stdDeviation="0.2871969"
         id="feGaussianBlur1" />
    </filter>
    <filter
       id="filter2"
       x="-0.96181148"
       y="-0.66745996"
       width="2.9236228"
       height="2.3349199"
       color-interpolation-filters="sRGB">
      <feGaussianBlur
         stdDeviation="0.2871969"
         id="feGaussianBlur2" />
    </filter>
    <linearGradient
       inkscape:collect="always"
       xlink:href="#linearGradient11"
       id="linearGradient5"
       x1="-3.8211522"
       y1="8.6008863"
       x2="4.2804661"
       y2="8.6008863"
       gradientUnits="userSpaceOnUse" />
    <clipPath
       id="SVGID_6_"
       clip-path="url(#SVGID_5_)">
      <path
         id="use26"
         d="M 245.46,129.523 147.569,32.625 c -5.556,-5.502 -16.222,-11.873 -23.7,-14.16 L 84.351,6.382 C 76.872,4.096 66.255,6.773 60.752,12.33 L 47.311,25.908 c -5.5,5.559 -14.502,14.653 -20.005,20.21 l -13.44,13.579 c -5.5,5.558 -8.07,16.206 -5.706,23.658 l 12.483,39.391 c 2.363,7.456 8.843,18.056 14.399,23.556 l 97.89,96.898 c 5.558,5.502 14.605,5.455 20.105,-0.101 l 36.26,-36.63 c 5.504,-5.559 14.503,-14.651 20.005,-20.209 l 36.259,-36.629 c 5.502,-5.56 5.455,-14.606 -0.101,-20.108 z M 67.375,78.783 c -7.198,0 -13.033,-5.835 -13.033,-13.033 0,-7.197 5.835,-13.033 13.033,-13.033 7.197,0 13.033,5.835 13.033,13.033 -0.001,7.198 -5.836,13.033 -13.033,13.033 z" />
    </clipPath>
    <linearGradient
       id="SVGID_7_"
       gradientUnits="userSpaceOnUse"
       x1="128.46919"
       y1="247.29691"
       x2="128.46919"
       y2="5.5654001"
       gradientTransform="matrix(0.54128359,-0.02028415,0.02039255,0.54128358,-116.24106,-103.53379)">
      <stop
         offset="0"
         style="stop-color:#39B54A"
         id="stop31" />
      <stop
         offset="0.0817"
         style="stop-color:#45B748"
         id="stop33" />
      <stop
         offset="0.329"
         style="stop-color:#64BE44"
         id="stop35" />
      <stop
         offset="0.5693"
         style="stop-color:#7BC241"
         id="stop37" />
      <stop
         offset="0.7973"
         style="stop-color:#88C540"
         id="stop39" />
      <stop
         offset="1"
         style="stop-color:#8DC63F"
         id="stop41" />
    </linearGradient>
    <linearGradient
       id="SVGID_8_"
       gradientUnits="userSpaceOnUse"
       x1="518.16687"
       y1="703.70581"
       x2="489.56516"
       y2="183.85011"
       gradientTransform="matrix(0.54128359,-0.02028415,0.02039255,0.54128358,-116.24106,-103.53379)">
      <stop
         offset="0"
         style="stop-color:#008080;stop-opacity:1;"
         id="stop46" />
      <stop
         offset="0.0357"
         style="stop-color:#006838;stop-opacity:0.8587"
         id="stop48" />
      <stop
         offset="0.2527"
         style="stop-color:#008080;stop-opacity:1"
         id="stop50" />
    </linearGradient>
    <linearGradient
       id="SVGID_9_"
       gradientUnits="userSpaceOnUse"
       x1="136.6797"
       y1="229.4668"
       x2="136.6797"
       y2="39.945801"
       gradientTransform="matrix(0.54128359,-0.02028415,0.02039255,0.54128358,-116.24106,-103.53379)">
      <stop
         offset="0"
         style="stop-color:#E6E7E8"
         id="stop59-5" />
      <stop
         offset="1"
         style="stop-color:#FFFFFF"
         id="stop61-3" />
    </linearGradient>
    <clipPath
       id="clipPath1"
       clip-path="url(#SVGID_5_)">
      <path
         id="use1"
         d="M 245.46,129.523 147.569,32.625 c -5.556,-5.502 -16.222,-11.873 -23.7,-14.16 L 84.351,6.382 C 76.872,4.096 66.255,6.773 60.752,12.33 L 47.311,25.908 c -5.5,5.559 -14.502,14.653 -20.005,20.21 l -13.44,13.579 c -5.5,5.558 -8.07,16.206 -5.706,23.658 l 12.483,39.391 c 2.363,7.456 8.843,18.056 14.399,23.556 l 97.89,96.898 c 5.558,5.502 14.605,5.455 20.105,-0.101 l 36.26,-36.63 c 5.504,-5.559 14.503,-14.651 20.005,-20.209 l 36.259,-36.629 c 5.502,-5.56 5.455,-14.606 -0.101,-20.108 z M 67.375,78.783 c -7.198,0 -13.033,-5.835 -13.033,-13.033 0,-7.197 5.835,-13.033 13.033,-13.033 7.197,0 13.033,5.835 13.033,13.033 -0.001,7.198 -5.836,13.033 -13.033,13.033 z" />
    </clipPath>
    <clipPath
       id="clipPath2"
       clip-path="url(#SVGID_5_)">
      <path
         id="use2"
         d="M 245.46,129.523 147.569,32.625 c -5.556,-5.502 -16.222,-11.873 -23.7,-14.16 L 84.351,6.382 C 76.872,4.096 66.255,6.773 60.752,12.33 L 47.311,25.908 c -5.5,5.559 -14.502,14.653 -20.005,20.21 l -13.44,13.579 c -5.5,5.558 -8.07,16.206 -5.706,23.658 l 12.483,39.391 c 2.363,7.456 8.843,18.056 14.399,23.556 l 97.89,96.898 c 5.558,5.502 14.605,5.455 20.105,-0.101 l 36.26,-36.63 c 5.504,-5.559 14.503,-14.651 20.005,-20.209 l 36.259,-36.629 c 5.502,-5.56 5.455,-14.606 -0.101,-20.108 z M 67.375,78.783 c -7.198,0 -13.033,-5.835 -13.033,-13.033 0,-7.197 5.835,-13.033 13.033,-13.033 7.197,0 13.033,5.835 13.033,13.033 -0.001,7.198 -5.836,13.033 -13.033,13.033 z" />
    </clipPath>
    <clipPath
       id="clipPath3"
       clip-path="url(#SVGID_5_)">
      <path
         id="use3"
         d="M 245.46,129.523 147.569,32.625 c -5.556,-5.502 -16.222,-11.873 -23.7,-14.16 L 84.351,6.382 C 76.872,4.096 66.255,6.773 60.752,12.33 L 47.311,25.908 c -5.5,5.559 -14.502,14.653 -20.005,20.21 l -13.44,13.579 c -5.5,5.558 -8.07,16.206 -5.706,23.658 l 12.483,39.391 c 2.363,7.456 8.843,18.056 14.399,23.556 l 97.89,96.898 c 5.558,5.502 14.605,5.455 20.105,-0.101 l 36.26,-36.63 c 5.504,-5.559 14.503,-14.651 20.005,-20.209 l 36.259,-36.629 c 5.502,-5.56 5.455,-14.606 -0.101,-20.108 z M 67.375,78.783 c -7.198,0 -13.033,-5.835 -13.033,-13.033 0,-7.197 5.835,-13.033 13.033,-13.033 7.197,0 13.033,5.835 13.033,13.033 -0.001,7.198 -5.836,13.033 -13.033,13.033 z" />
    </clipPath>
    <clipPath
       id="clipPath4"
       clip-path="url(#SVGID_5_)">
      <path
         id="use4"
         d="M 245.46,129.523 147.569,32.625 c -5.556,-5.502 -16.222,-11.873 -23.7,-14.16 L 84.351,6.382 C 76.872,4.096 66.255,6.773 60.752,12.33 L 47.311,25.908 c -5.5,5.559 -14.502,14.653 -20.005,20.21 l -13.44,13.579 c -5.5,5.558 -8.07,16.206 -5.706,23.658 l 12.483,39.391 c 2.363,7.456 8.843,18.056 14.399,23.556 l 97.89,96.898 c 5.558,5.502 14.605,5.455 20.105,-0.101 l 36.26,-36.63 c 5.504,-5.559 14.503,-14.651 20.005,-20.209 l 36.259,-36.629 c 5.502,-5.56 5.455,-14.606 -0.101,-20.108 z M 67.375,78.783 c -7.198,0 -13.033,-5.835 -13.033,-13.033 0,-7.197 5.835,-13.033 13.033,-13.033 7.197,0 13.033,5.835 13.033,13.033 -0.001,7.198 -5.836,13.033 -13.033,13.033 z" />
    </clipPath>
    <clipPath
       id="clipPath5"
       clip-path="url(#SVGID_5_)">
      <path
         id="use5"
         d="M 245.46,129.523 147.569,32.625 c -5.556,-5.502 -16.222,-11.873 -23.7,-14.16 L 84.351,6.382 C 76.872,4.096 66.255,6.773 60.752,12.33 L 47.311,25.908 c -5.5,5.559 -14.502,14.653 -20.005,20.21 l -13.44,13.579 c -5.5,5.558 -8.07,16.206 -5.706,23.658 l 12.483,39.391 c 2.363,7.456 8.843,18.056 14.399,23.556 l 97.89,96.898 c 5.558,5.502 14.605,5.455 20.105,-0.101 l 36.26,-36.63 c 5.504,-5.559 14.503,-14.651 20.005,-20.209 l 36.259,-36.629 c 5.502,-5.56 5.455,-14.606 -0.101,-20.108 z M 67.375,78.783 c -7.198,0 -13.033,-5.835 -13.033,-13.033 0,-7.197 5.835,-13.033 13.033,-13.033 7.197,0 13.033,5.835 13.033,13.033 -0.001,7.198 -5.836,13.033 -13.033,13.033 z" />
    </clipPath>
    <clipPath
       id="clipPath6"
       clip-path="url(#SVGID_5_)">
      <path
         id="use6"
         d="M 245.46,129.523 147.569,32.625 c -5.556,-5.502 -16.222,-11.873 -23.7,-14.16 L 84.351,6.382 C 76.872,4.096 66.255,6.773 60.752,12.33 L 47.311,25.908 c -5.5,5.559 -14.502,14.653 -20.005,20.21 l -13.44,13.579 c -5.5,5.558 -8.07,16.206 -5.706,23.658 l 12.483,39.391 c 2.363,7.456 8.843,18.056 14.399,23.556 l 97.89,96.898 c 5.558,5.502 14.605,5.455 20.105,-0.101 l 36.26,-36.63 c 5.504,-5.559 14.503,-14.651 20.005,-20.209 l 36.259,-36.629 c 5.502,-5.56 5.455,-14.606 -0.101,-20.108 z M 67.375,78.783 c -7.198,0 -13.033,-5.835 -13.033,-13.033 0,-7.197 5.835,-13.033 13.033,-13.033 7.197,0 13.033,5.835 13.033,13.033 -0.001,7.198 -5.836,13.033 -13.033,13.033 z" />
    </clipPath>
    <clipPath
       id="clipPath7"
       clip-path="url(#SVGID_5_)">
      <path
         id="use7"
         d="M 245.46,129.523 147.569,32.625 c -5.556,-5.502 -16.222,-11.873 -23.7,-14.16 L 84.351,6.382 C 76.872,4.096 66.255,6.773 60.752,12.33 L 47.311,25.908 c -5.5,5.559 -14.502,14.653 -20.005,20.21 l -13.44,13.579 c -5.5,5.558 -8.07,16.206 -5.706,23.658 l 12.483,39.391 c 2.363,7.456 8.843,18.056 14.399,23.556 l 97.89,96.898 c 5.558,5.502 14.605,5.455 20.105,-0.101 l 36.26,-36.63 c 5.504,-5.559 14.503,-14.651 20.005,-20.209 l 36.259,-36.629 c 5.502,-5.56 5.455,-14.606 -0.101,-20.108 z M 67.375,78.783 c -7.198,0 -13.033,-5.835 -13.033,-13.033 0,-7.197 5.835,-13.033 13.033,-13.033 7.197,0 13.033,5.835 13.033,13.033 -0.001,7.198 -5.836,13.033 -13.033,13.033 z" />
    </clipPath>
    <linearGradient
       id="SVGID_10_"
       gradientUnits="userSpaceOnUse"
       x1="67.374496"
       y1="87.669403"
       x2="67.374496"
       y2="43.831501"
       gradientTransform="matrix(0.54128359,-0.02028415,0.02039255,0.54128358,-116.24106,-103.53379)">
      <stop
         offset="0"
         style="stop-color:#777777"
         id="stop104" />
      <stop
         offset="0.2068"
         style="stop-color:#7C7C7C"
         id="stop106" />
      <stop
         offset="0.4394"
         style="stop-color:#898989"
         id="stop108" />
      <stop
         offset="0.6845"
         style="stop-color:#A0A0A0"
         id="stop110" />
      <stop
         offset="0.9368"
         style="stop-color:#BFBFBF"
         id="stop112" />
      <stop
         offset="1"
         style="stop-color:#C8C8C8"
         id="stop114" />
    </linearGradient>
    <clipPath
       id="clipPath8"
       clip-path="url(#SVGID_5_)">
      <path
         id="use8"
         d="M 245.46,129.523 147.569,32.625 c -5.556,-5.502 -16.222,-11.873 -23.7,-14.16 L 84.351,6.382 C 76.872,4.096 66.255,6.773 60.752,12.33 L 47.311,25.908 c -5.5,5.559 -14.502,14.653 -20.005,20.21 l -13.44,13.579 c -5.5,5.558 -8.07,16.206 -5.706,23.658 l 12.483,39.391 c 2.363,7.456 8.843,18.056 14.399,23.556 l 97.89,96.898 c 5.558,5.502 14.605,5.455 20.105,-0.101 l 36.26,-36.63 c 5.504,-5.559 14.503,-14.651 20.005,-20.209 l 36.259,-36.629 c 5.502,-5.56 5.455,-14.606 -0.101,-20.108 z M 67.375,78.783 c -7.198,0 -13.033,-5.835 -13.033,-13.033 0,-7.197 5.835,-13.033 13.033,-13.033 7.197,0 13.033,5.835 13.033,13.033 -0.001,7.198 -5.836,13.033 -13.033,13.033 z" />
    </clipPath>
    <linearGradient
       id="SVGID_11_"
       gradientUnits="userSpaceOnUse"
       x1="67.374496"
       y1="82.337898"
       x2="67.374496"
       y2="49.163601"
       gradientTransform="matrix(0.54128359,-0.02028415,0.02039255,0.54128358,-116.24106,-103.53379)">
      <stop
         offset="0"
         style="stop-color:#C8C8C8"
         id="stop125" />
      <stop
         offset="0.0632"
         style="stop-color:#BFBFBF"
         id="stop127" />
      <stop
         offset="0.3155"
         style="stop-color:#A0A0A0"
         id="stop129" />
      <stop
         offset="0.5606"
         style="stop-color:#898989"
         id="stop131" />
      <stop
         offset="0.7932"
         style="stop-color:#7C7C7C"
         id="stop133" />
      <stop
         offset="1"
         style="stop-color:#777777"
         id="stop135" />
    </linearGradient>
    <clipPath
       id="clipPath9"
       clip-path="url(#SVGID_5_)">
      <path
         id="use9"
         d="M 245.46,129.523 147.569,32.625 c -5.556,-5.502 -16.222,-11.873 -23.7,-14.16 L 84.351,6.382 C 76.872,4.096 66.255,6.773 60.752,12.33 L 47.311,25.908 c -5.5,5.559 -14.502,14.653 -20.005,20.21 l -13.44,13.579 c -5.5,5.558 -8.07,16.206 -5.706,23.658 l 12.483,39.391 c 2.363,7.456 8.843,18.056 14.399,23.556 l 97.89,96.898 c 5.558,5.502 14.605,5.455 20.105,-0.101 l 36.26,-36.63 c 5.504,-5.559 14.503,-14.651 20.005,-20.209 l 36.259,-36.629 c 5.502,-5.56 5.455,-14.606 -0.101,-20.108 z M 67.375,78.783 c -7.198,0 -13.033,-5.835 -13.033,-13.033 0,-7.197 5.835,-13.033 13.033,-13.033 7.197,0 13.033,5.835 13.033,13.033 -0.001,7.198 -5.836,13.033 -13.033,13.033 z" />
    </clipPath>
    <clipPath
       id="clipPath10"
       clip-path="url(#SVGID_5_)">
      <path
         id="use10"
         d="M 245.46,129.523 147.569,32.625 c -5.556,-5.502 -16.222,-11.873 -23.7,-14.16 L 84.351,6.382 C 76.872,4.096 66.255,6.773 60.752,12.33 L 47.311,25.908 c -5.5,5.559 -14.502,14.653 -20.005,20.21 l -13.44,13.579 c -5.5,5.558 -8.07,16.206 -5.706,23.658 l 12.483,39.391 c 2.363,7.456 8.843,18.056 14.399,23.556 l 97.89,96.898 c 5.558,5.502 14.605,5.455 20.105,-0.101 l 36.26,-36.63 c 5.504,-5.559 14.503,-14.651 20.005,-20.209 l 36.259,-36.629 c 5.502,-5.56 5.455,-14.606 -0.101,-20.108 z M 67.375,78.783 c -7.198,0 -13.033,-5.835 -13.033,-13.033 0,-7.197 5.835,-13.033 13.033,-13.033 7.197,0 13.033,5.835 13.033,13.033 -0.001,7.198 -5.836,13.033 -13.033,13.033 z" />
    </clipPath>
    <path
       id="path2260"
       d="M 245.46,129.523 147.569,32.625 c -5.556,-5.502 -16.222,-11.873 -23.7,-14.16 L 84.351,6.382 C 76.872,4.096 66.255,6.773 60.752,12.33 L 47.311,25.908 c -5.5,5.559 -14.502,14.653 -20.005,20.21 l -13.44,13.579 c -5.5,5.558 -8.07,16.206 -5.706,23.658 l 12.483,39.391 c 2.363,7.456 8.843,18.056 14.399,23.556 l 97.89,96.898 c 5.558,5.502 14.605,5.455 20.105,-0.101 l 36.26,-36.63 c 5.504,-5.559 14.503,-14.651 20.005,-20.209 l 36.259,-36.629 c 5.502,-5.56 5.455,-14.606 -0.101,-20.108 z M 67.375,78.783 c -7.198,0 -13.033,-5.835 -13.033,-13.033 0,-7.197 5.835,-13.033 13.033,-13.033 7.197,0 13.033,5.835 13.033,13.033 -0.001,7.198 -5.836,13.033 -13.033,13.033 z" />
    <path
       id="path2263"
       d="M 245.46,129.523 147.569,32.625 c -5.556,-5.502 -16.222,-11.873 -23.7,-14.16 L 84.351,6.382 C 76.872,4.096 66.255,6.773 60.752,12.33 L 47.311,25.908 c -5.5,5.559 -14.502,14.653 -20.005,20.21 l -13.44,13.579 c -5.5,5.558 -8.07,16.206 -5.706,23.658 l 12.483,39.391 c 2.363,7.456 8.843,18.056 14.399,23.556 l 97.89,96.898 c 5.558,5.502 14.605,5.455 20.105,-0.101 l 36.26,-36.63 c 5.504,-5.559 14.503,-14.651 20.005,-20.209 l 36.259,-36.629 c 5.502,-5.56 5.455,-14.606 -0.101,-20.108 z M 67.375,78.783 c -7.198,0 -13.033,-5.835 -13.033,-13.033 0,-7.197 5.835,-13.033 13.033,-13.033 7.197,0 13.033,5.835 13.033,13.033 -0.001,7.198 -5.836,13.033 -13.033,13.033 z" />
    <linearGradient
       inkscape:collect="always"
       xlink:href="#linearGradient11"
       id="linearGradient990"
       x1="-12.025727"
       y1="6.1170783"
       x2="-0.085100174"
       y2="6.1170783"
       gradientUnits="userSpaceOnUse" />
  </defs>
  <sodipodi:namedview
     id="namedview14"
     pagecolor="#000000"
     bordercolor="#666666"
     borderopacity="1.0"
     inkscape:showpageshadow="2"
     inkscape:pageopacity="0.0"
     inkscape:pagecheckerboard="0"
     inkscape:deskcolor="#d1d1d1"
     showgrid="false"
     inkscape:zoom="6.2611141"
     inkscape:cx="23.845543"
     inkscape:cy="54.335026"
     inkscape:window-width="1920"
     inkscape:window-height="988"
     inkscape:window-x="0"
     inkscape:window-y="0"
     inkscape:window-maximized="1"
     inkscape:current-layer="svg12"
     inkscape:document-rotation="0">
    <inkscape:grid
       type="xygrid"
       id="grid244"
       originx="9.9594769"
       originy="-31.57929"
       spacingy="1"
       spacingx="1"
       units="px"
       visible="false" />
  </sodipodi:namedview>
  <rect
     x="-12.194976"
     y="0.32004508"
     width="11.940627"
     height="11.936014"
     rx="1.6121091"
     shape-rendering="crispEdges"
     id="rect5-6-7-3"
     ry="1.7735944"
     transform="matrix(0.00523883,-0.99998628,0.999988,0.00489859,0,0)"
     style="fill:#80b3ff;fill-opacity:0.15;stroke:url(#linearGradient990);stroke-width:0.5291563;stroke-miterlimit:4;stroke-dasharray:none;stroke-opacity:1" />
  <rect
     x="-3.7202365"
     y="4.8851409"
     width="7.912631"
     height="7.912384"
     rx="1.612043"
     shape-rendering="crispEdges"
     id="rect5-6-6-6-6"
     style="fill:#80b3ff;fill-opacity:0.122146;stroke:url(#linearGradient5);stroke-width:0.18890881;stroke-opacity:1;stroke-miterlimit:4;stroke-dasharray:none"
     ry="1.7735215"
     transform="matrix(0.72612649,-0.68756114,0.6879775,0.72573202,0,0)" />
  <g
     id="Layer_1"
     transform="matrix(0.02617991,9.8368983e-4,-9.8631886e-4,0.02624975,3.2346192,3.1497785)"
     style="stroke-width:0.541666">
    <defs
       id="defs18">
      <path
         id="path2"
         d="M 245.46,129.523 147.569,32.625 c -5.556,-5.502 -16.222,-11.873 -23.7,-14.16 L 84.351,6.382 C 76.872,4.096 66.255,6.773 60.752,12.33 L 47.311,25.908 c -5.5,5.559 -14.502,14.653 -20.005,20.21 l -13.44,13.579 c -5.5,5.558 -8.07,16.206 -5.706,23.658 l 12.483,39.391 c 2.363,7.456 8.843,18.056 14.399,23.556 l 97.89,96.898 c 5.558,5.502 14.605,5.455 20.105,-0.101 l 36.26,-36.63 c 5.504,-5.559 14.503,-14.651 20.005,-20.209 l 36.259,-36.629 c 5.502,-5.56 5.455,-14.606 -0.101,-20.108 z M 67.375,78.783 c -7.198,0 -13.033,-5.835 -13.033,-13.033 0,-7.197 5.835,-13.033 13.033,-13.033 7.197,0 13.033,5.835 13.033,13.033 -0.001,7.198 -5.836,13.033 -13.033,13.033 z" />
    </defs>
    <defs
       id="defs21">
      <path
         id="path3"
         d="M 245.46,129.523 147.569,32.625 c -5.556,-5.502 -16.222,-11.873 -23.7,-14.16 L 84.351,6.382 C 76.872,4.096 66.255,6.773 60.752,12.33 L 47.311,25.908 c -5.5,5.559 -14.502,14.653 -20.005,20.21 l -13.44,13.579 c -5.5,5.558 -8.07,16.206 -5.706,23.658 l 12.483,39.391 c 2.363,7.456 8.843,18.056 14.399,23.556 l 97.89,96.898 c 5.558,5.502 14.605,5.455 20.105,-0.101 l 36.26,-36.63 c 5.504,-5.559 14.503,-14.651 20.005,-20.209 l 36.259,-36.629 c 5.502,-5.56 5.455,-14.606 -0.101,-20.108 z M 67.375,78.783 c -7.198,0 -13.033,-5.835 -13.033,-13.033 0,-7.197 5.835,-13.033 13.033,-13.033 7.197,0 13.033,5.835 13.033,13.033 -0.001,7.198 -5.836,13.033 -13.033,13.033 z" />
    </defs>
    <clipPath
       id="SVGID_5_">
      <use
         xlink:href="#SVGID_3_"
         overflow="visible"
         id="use23"
         x="0"
         y="0"
         width="100%"
         height="100%" />
    </clipPath>
    <clipPath
       id="clipPath1515"
       clip-path="url(#SVGID_5_)">
      <path
         id="use1513"
         d="M 245.46,129.523 147.569,32.625 c -5.556,-5.502 -16.222,-11.873 -23.7,-14.16 L 84.351,6.382 C 76.872,4.096 66.255,6.773 60.752,12.33 L 47.311,25.908 c -5.5,5.559 -14.502,14.653 -20.005,20.21 l -13.44,13.579 c -5.5,5.558 -8.07,16.206 -5.706,23.658 l 12.483,39.391 c 2.363,7.456 8.843,18.056 14.399,23.556 l 97.89,96.898 c 5.558,5.502 14.605,5.455 20.105,-0.101 l 36.26,-36.63 c 5.504,-5.559 14.503,-14.651 20.005,-20.209 l 36.259,-36.629 c 5.502,-5.56 5.455,-14.606 -0.101,-20.108 z M 67.375,78.783 c -7.198,0 -13.033,-5.835 -13.033,-13.033 0,-7.197 5.835,-13.033 13.033,-13.033 7.197,0 13.033,5.835 13.033,13.033 -0.001,7.198 -5.836,13.033 -13.033,13.033 z" />
    </clipPath>
    <g
       clip-path="url(#SVGID_6_)"
       id="g57"
       style="stroke-width:0.541666">
      <path
         fill="#39b54a"
         d="M 245.46,129.523 147.569,32.625 c -5.556,-5.502 -16.222,-11.873 -23.7,-14.16 L 84.351,6.382 C 76.872,4.096 66.255,6.773 60.752,12.33 L 47.311,25.908 c -5.5,5.559 -14.502,14.653 -20.005,20.21 l -13.44,13.579 c -5.5,5.558 -8.07,16.206 -5.706,23.658 l 12.483,39.391 c 2.363,7.456 8.843,18.056 14.399,23.556 l 97.89,96.898 c 5.558,5.502 14.605,5.455 20.105,-0.101 l 36.26,-36.63 c 5.504,-5.559 14.503,-14.651 20.005,-20.209 l 36.259,-36.629 c 5.502,-5.56 5.455,-14.606 -0.101,-20.108 z M 67.375,78.783 c -7.198,0 -13.033,-5.835 -13.033,-13.033 0,-7.197 5.835,-13.033 13.033,-13.033 7.197,0 13.033,5.835 13.033,13.033 -0.001,7.198 -5.836,13.033 -13.033,13.033 z"
         id="path29"
         style="stroke-width:0.541666" />
      <linearGradient
         id="linearGradient1530"
         gradientUnits="userSpaceOnUse"
         x1="128.46919"
         y1="247.29691"
         x2="128.46919"
         y2="5.5654001">
        <stop
           offset="0"
           style="stop-color:#39B54A"
           id="stop1518" />
        <stop
           offset="0.0817"
           style="stop-color:#45B748"
           id="stop1520" />
        <stop
           offset="0.329"
           style="stop-color:#64BE44"
           id="stop1522-5" />
        <stop
           offset="0.5693"
           style="stop-color:#7BC241"
           id="stop1524" />
        <stop
           offset="0.7973"
           style="stop-color:#88C540"
           id="stop1526-6" />
        <stop
           offset="1"
           style="stop-color:#8DC63F"
           id="stop1528" />
      </linearGradient>
      <path
         fill="url(#SVGID_7_)"
         d="M 245.46,129.523 147.569,32.625 c -5.556,-5.502 -16.222,-11.873 -23.7,-14.16 L 84.351,6.382 C 76.872,4.096 66.255,6.773 60.752,12.33 L 47.311,25.908 c -5.5,5.559 -14.502,14.653 -20.005,20.21 l -13.44,13.579 c -5.5,5.558 -8.07,16.206 -5.706,23.658 l 12.483,39.391 c 2.363,7.456 8.843,18.056 14.399,23.556 l 97.89,96.898 c 5.558,5.502 14.605,5.455 20.105,-0.101 l 36.26,-36.63 c 5.504,-5.559 14.503,-14.651 20.005,-20.209 l 36.259,-36.629 c 5.502,-5.56 5.455,-14.606 -0.101,-20.108 z M 67.375,78.783 c -7.198,0 -13.033,-5.835 -13.033,-13.033 0,-7.197 5.835,-13.033 13.033,-13.033 7.197,0 13.033,5.835 13.033,13.033 -0.001,7.198 -5.836,13.033 -13.033,13.033 z"
         id="path44"
         style="fill:url(#SVGID_7_);stroke-width:0.541666" />
      <g
         opacity="0"
         id="g55"
         style="stroke-width:0.541666">
        <linearGradient
           id="linearGradient1539"
           gradientUnits="userSpaceOnUse"
           x1="128.46919"
           y1="247.29691"
           x2="128.46919"
           y2="5.5654001">
          <stop
             offset="0"
             style="stop-color:#006838"
             id="stop1533" />
          <stop
             offset="0.0357"
             style="stop-color:#006838;stop-opacity:0.8587"
             id="stop1535" />
          <stop
             offset="0.2527"
             style="stop-color:#006838;stop-opacity:0"
             id="stop1537" />
        </linearGradient>
        <path
           fill="url(#SVGID_8_)"
           d="M 245.46,129.523 147.569,32.625 c -5.556,-5.502 -16.222,-11.873 -23.7,-14.16 L 84.351,6.382 C 76.872,4.096 66.255,6.773 60.752,12.33 L 47.311,25.908 c -5.5,5.559 -14.502,14.653 -20.005,20.21 l -13.44,13.579 c -5.5,5.558 -8.07,16.206 -5.706,23.658 l 12.483,39.391 c 2.363,7.456 8.843,18.056 14.399,23.556 l 97.89,96.898 c 5.558,5.502 14.605,5.455 20.105,-0.101 l 36.26,-36.63 c 5.504,-5.559 14.503,-14.651 20.005,-20.209 l 36.259,-36.629 c 5.502,-5.56 5.455,-14.606 -0.101,-20.108 z M 67.375,78.783 c -7.198,0 -13.033,-5.835 -13.033,-13.033 0,-7.197 5.835,-13.033 13.033,-13.033 7.197,0 13.033,5.835 13.033,13.033 -0.001,7.198 -5.836,13.033 -13.033,13.033 z"
           id="path53"
           style="fill:url(#SVGID_8_);stroke-width:0.541666" />
      </g>
    </g>
    <linearGradient
       id="linearGradient1548"
       gradientUnits="userSpaceOnUse"
       x1="136.6797"
       y1="229.4668"
       x2="136.6797"
       y2="39.945801">
      <stop
         offset="0"
         style="stop-color:#E6E7E8"
         id="stop1544" />
      <stop
         offset="1"
         style="stop-color:#FFFFFF"
         id="stop1546" />
    </linearGradient>
    <path
       clip-path="url(#SVGID_6_)"
       fill-rule="evenodd"
       clip-rule="evenodd"
       fill="url(#SVGID_9_)"
       d="m 119.142,160.18 c 0.84,7.224 1.71,13.293 2.208,19.39 0.512,6.339 3.038,8.335 9.523,6.429 22.587,-6.635 45.307,-12.838 67.97,-19.206 2.67,-0.75 5.341,-1.501 9.025,-2.535 0.833,12.349 1.615,23.891 2.412,35.654 -1.142,0.599 -1.95,1.211 -2.854,1.465 -31.292,8.807 -62.574,17.621 -93.895,26.293 -3.664,1.014 -7.543,1.427 -11.355,1.697 C 90.384,230.227 82.548,225.62 79.808,214.074 76.516,200.198 74.52,185.987 72.551,171.832 69.208,147.797 65.861,123.745 63.399,99.604 61.398,80.011 68.687,68.89 87.52,63.106 c 25.428,-7.81 51.072,-15.024 76.851,-21.607 18.449,-4.705 27.947,1.101 31.71,19.9 3.24,16.215 5.159,32.819 6.165,49.337 1.003,16.504 -5.839,25.949 -21.635,31.218 -17.217,5.745 -34.78,10.464 -52.195,15.617 -2.9,0.856 -5.822,1.64 -9.274,2.609 z m -4.598,-31.437 c 13.178,-3.704 25.534,-6.922 37.661,-10.851 1.854,-0.599 3.891,-4.542 3.736,-6.795 -0.588,-8.65 -2.093,-17.234 -3.128,-25.862 -0.501,-4.16 -2.669,-5.014 -6.397,-3.938 -10.324,2.989 -20.794,5.54 -30.96,8.994 -2.189,0.75 -4.88,4.648 -4.722,6.915 0.702,10.166 2.353,20.269 3.81,31.537 z"
       id="path64"
       style="fill:url(#SVGID_9_);stroke-width:0.541666" />
    <g
       clip-path="url(#SVGID_6_)"
       id="g70"
       style="stroke-width:0.541666">
      <g
         opacity="0.1"
         id="g68"
         style="stroke-width:0.541666">
        <path
           fill="#231f20"
           d="m 78.47,10.897 c 1.6,0 3.054,0.197 4.322,0.584 l 39.518,12.083 c 6.692,2.047 16.542,7.932 21.509,12.851 l 97.89,96.897 c 3.481,3.448 3.51,9.087 0.064,12.569 l -36.259,36.629 -8.021,8.104 -11.983,12.105 -36.26,36.63 c -1.67,1.688 -3.913,2.616 -6.315,2.616 -2.366,0 -4.586,-0.907 -6.25,-2.554 l -97.89,-96.898 c -4.97,-4.92 -10.954,-14.709 -13.068,-21.377 L 13.242,81.743 C 11.471,76.161 13.534,67.612 17.655,63.448 L 31.095,49.87 C 36.598,44.312 45.6,35.218 51.1,29.659 L 64.54,16.082 c 3.023,-3.053 8.752,-5.185 13.93,-5.185 M 67.375,84.115 c 10.126,0 18.365,-8.238 18.365,-18.364 0,-10.126 -8.238,-18.365 -18.365,-18.365 -10.126,0 -18.364,8.239 -18.364,18.365 0,10.126 8.238,18.364 18.364,18.364 M 78.47,5.565 c -6.45,0 -13.55,2.556 -17.718,6.765 L 47.311,25.908 c -5.5,5.559 -14.502,14.653 -20.005,20.21 l -13.44,13.579 c -5.5,5.558 -8.07,16.206 -5.706,23.658 l 12.483,39.391 c 2.363,7.456 8.843,18.056 14.399,23.556 l 97.89,96.898 c 2.76,2.732 6.382,4.097 10.001,4.097 3.669,0 7.336,-1.4 10.104,-4.197 l 36.26,-36.63 c 5.504,-5.559 14.503,-14.651 20.005,-20.209 l 36.259,-36.629 c 5.501,-5.561 5.454,-14.606 -0.102,-20.108 L 147.568,32.626 c -5.556,-5.502 -16.222,-11.873 -23.7,-14.16 L 84.351,6.382 C 82.537,5.828 80.536,5.565 78.47,5.565 Z M 67.375,78.783 c -7.198,0 -13.033,-5.835 -13.033,-13.033 0,-7.197 5.835,-13.033 13.033,-13.033 7.197,0 13.033,5.835 13.033,13.033 -0.001,7.198 -5.836,13.033 -13.033,13.033 z"
           id="path66"
           style="stroke-width:0.541666" />
      </g>
    </g>
    <g
       opacity="0.4"
       clip-path="url(#SVGID_6_)"
       id="g84"
       style="stroke-width:0.541666">
      <g
         id="g76"
         style="stroke-width:0.541666">
        <path
           fill="#231f20"
           d="m 67.375,47.386 c -7.198,0 -13.033,5.835 -13.033,13.033 0,0.914 0.096,1.805 0.275,2.666 1.23,-5.918 6.474,-10.367 12.758,-10.367 6.284,0 11.527,4.448 12.757,10.367 0.179,-0.861 0.275,-1.752 0.275,-2.666 0,-7.198 -5.835,-13.033 -13.032,-13.033 z"
           id="path72"
           style="stroke-width:0.541666" />
        <path
           opacity="0.1"
           fill="#231f20"
           d="m 67.375,47.386 c -7.198,0 -13.033,5.835 -13.033,13.033 0,0.914 0.096,1.805 0.275,2.666 1.23,-5.918 6.474,-10.367 12.758,-10.367 6.284,0 11.527,4.448 12.757,10.367 0.179,-0.861 0.275,-1.752 0.275,-2.666 0,-7.198 -5.835,-13.033 -13.032,-13.033 z"
           id="path74"
           style="stroke-width:0.541666" />
      </g>
      <g
         id="g82"
         style="stroke-width:0.541666">
        <path
           fill="#231f20"
           d="m 245.562,144.301 -36.259,36.628 c -5.502,5.558 -14.501,14.65 -20.005,20.209 l -36.26,36.63 c -5.5,5.556 -14.548,5.603 -20.105,0.102 l -97.89,-96.899 c -5.556,-5.5 -12.036,-16.099 -14.399,-23.556 L 8.16,78.023 C 7.807,76.909 7.577,75.718 7.437,74.489 7.109,77.599 7.313,80.682 8.16,83.355 l 12.483,39.391 c 2.363,7.456 8.843,18.056 14.399,23.556 l 97.89,96.898 c 5.558,5.502 14.605,5.455 20.105,-0.101 l 36.26,-36.63 c 5.504,-5.559 14.503,-14.651 20.005,-20.209 l 36.259,-36.629 c 3.403,-3.439 4.677,-8.212 3.844,-12.657 -0.509,2.685 -1.789,5.249 -3.843,7.327 z"
           id="path78"
           style="stroke-width:0.541666" />
        <path
           opacity="0.1"
           fill="#231f20"
           d="m 7.437,74.489 c -0.328,3.11 -0.124,6.193 0.723,8.866 l 12.483,39.391 c 2.363,7.456 8.843,18.056 14.399,23.556 l 97.89,96.898 c 2.76,2.732 6.382,4.097 10.001,4.097 3.669,0 7.336,-1.4 10.104,-4.197 l 36.26,-36.63 c 5.504,-5.559 14.503,-14.651 20.005,-20.209 l 36.259,-36.629 c 3.403,-3.439 4.677,-8.212 3.844,-12.657 -0.509,2.685 -1.789,5.248 -3.844,7.326 l -36.259,36.628 c -5.502,5.558 -14.501,14.65 -20.005,20.209 l -36.26,36.63 c -2.769,2.796 -6.437,4.197 -10.104,4.197 -3.62,0 -7.24,-1.363 -10.001,-4.096 L 35.042,140.97 C 29.486,135.47 23.006,124.871 20.643,117.414 L 8.16,78.023 C 7.807,76.909 7.577,75.718 7.437,74.489 Z"
           id="path80"
           style="stroke-width:0.541666" />
      </g>
    </g>
    <g
       clip-path="url(#SVGID_6_)"
       id="g88"
       style="stroke-width:0.541666" />
    <g
       clip-path="url(#SVGID_6_)"
       id="g92"
       style="stroke-width:0.541666" />
    <g
       clip-path="url(#SVGID_6_)"
       id="g98"
       style="stroke-width:0.541666">
      <g
         opacity="0.1"
         id="g96"
         style="stroke-width:0.541666">
        <path
           d="m 67.375,52.718 c 7.197,0 13.033,5.835 13.033,13.033 0,7.198 -5.835,13.033 -13.033,13.033 -7.198,0 -13.033,-5.835 -13.033,-13.033 0,-7.198 5.835,-13.033 13.033,-13.033 m 0,-10.664 c -13.066,0 -23.696,10.63 -23.696,23.696 0,13.066 10.63,23.696 23.696,23.696 13.066,0 23.696,-10.63 23.696,-23.696 0,-13.066 -10.63,-23.696 -23.696,-23.696 z"
           id="path94"
           style="stroke-width:0.541666" />
      </g>
    </g>
    <g
       clip-path="url(#SVGID_6_)"
       id="g121"
       style="stroke-width:0.541666">
      <g
         id="g119"
         style="stroke-width:0.541666">
        <g
           opacity="0.3"
           id="g102"
           style="stroke-width:0.541666">
          <path
             d="m 67.375,58.049 c 7.197,0 13.033,5.835 13.033,13.033 0,7.198 -5.835,13.033 -13.033,13.033 -7.198,0 -13.033,-5.835 -13.033,-13.033 0,-7.197 5.835,-13.033 13.033,-13.033 m 0,-8.886 c -12.086,0 -21.919,9.833 -21.919,21.919 0,12.085 9.833,21.919 21.919,21.919 12.086,0 21.919,-9.834 21.919,-21.919 C 89.293,58.996 79.46,49.163 67.375,49.163 Z"
             id="path100"
             style="stroke-width:0.541666" />
        </g>
        <linearGradient
           id="linearGradient1582"
           gradientUnits="userSpaceOnUse"
           x1="67.374496"
           y1="87.669403"
           x2="67.374496"
           y2="43.831501">
          <stop
             offset="0"
             style="stop-color:#777777"
             id="stop1570-3" />
          <stop
             offset="0.2068"
             style="stop-color:#7C7C7C"
             id="stop1572" />
          <stop
             offset="0.4394"
             style="stop-color:#898989"
             id="stop1574" />
          <stop
             offset="0.6845"
             style="stop-color:#A0A0A0"
             id="stop1576" />
          <stop
             offset="0.9368"
             style="stop-color:#BFBFBF"
             id="stop1578" />
          <stop
             offset="1"
             style="stop-color:#C8C8C8"
             id="stop1580" />
        </linearGradient>
        <path
           fill="url(#SVGID_10_)"
           d="m 67.375,52.718 c 7.197,0 13.033,5.835 13.033,13.033 0,7.198 -5.835,13.033 -13.033,13.033 -7.198,0 -13.033,-5.835 -13.033,-13.033 0,-7.198 5.835,-13.033 13.033,-13.033 m 0,-8.886 c -12.086,0 -21.919,9.833 -21.919,21.919 0,12.085 9.833,21.919 21.919,21.919 12.086,0 21.919,-9.834 21.919,-21.919 C 89.293,53.665 79.46,43.832 67.375,43.832 Z"
           id="path117"
           style="fill:url(#SVGID_10_);stroke-width:0.541666" />
      </g>
    </g>
    <g
       clip-path="url(#SVGID_6_)"
       id="g142"
       style="stroke-width:0.541666">
      <path
         fill="#e9e6dd"
         d="m 67.375,55.888 c 5.447,0 9.862,4.416 9.862,9.862 0,5.446 -4.415,9.863 -9.862,9.863 -5.447,0 -9.863,-4.417 -9.863,-9.863 0,-5.446 4.415,-9.862 9.863,-9.862 m 0,-6.724 c -9.146,0 -16.587,7.441 -16.587,16.587 0,9.145 7.441,16.587 16.587,16.587 9.146,0 16.587,-7.442 16.587,-16.587 C 83.961,56.605 76.52,49.164 67.375,49.164 Z"
         id="path123"
         style="stroke-width:0.541666" />
      <g
         id="g140"
         style="stroke-width:0.541666">
        <linearGradient
           id="linearGradient1600"
           gradientUnits="userSpaceOnUse"
           x1="67.374496"
           y1="82.337898"
           x2="67.374496"
           y2="49.163601">
          <stop
             offset="0"
             style="stop-color:#C8C8C8"
             id="stop1588" />
          <stop
             offset="0.0632"
             style="stop-color:#BFBFBF"
             id="stop1590" />
          <stop
             offset="0.3155"
             style="stop-color:#A0A0A0"
             id="stop1592" />
          <stop
             offset="0.5606"
             style="stop-color:#898989"
             id="stop1594" />
          <stop
             offset="0.7932"
             style="stop-color:#7C7C7C"
             id="stop1596" />
          <stop
             offset="1"
             style="stop-color:#777777"
             id="stop1598" />
        </linearGradient>
        <path
           fill="url(#SVGID_11_)"
           d="m 67.375,55.888 c 5.447,0 9.862,4.416 9.862,9.862 0,5.446 -4.415,9.863 -9.862,9.863 -5.447,0 -9.863,-4.417 -9.863,-9.863 0,-5.446 4.415,-9.862 9.863,-9.862 m 0,-6.724 c -9.146,0 -16.587,7.441 -16.587,16.587 0,9.145 7.441,16.587 16.587,16.587 9.146,0 16.587,-7.442 16.587,-16.587 C 83.961,56.605 76.52,49.164 67.375,49.164 Z"
           id="path138"
           style="fill:url(#SVGID_11_);stroke-width:0.541666" />
      </g>
    </g>
    <path
       clip-path="url(#SVGID_6_)"
       fill="none"
       stroke="#231f20"
       stroke-width="2.88804"
       stroke-linecap="round"
       stroke-opacity="0.3"
       d="M 69.43,72.868 C 19.667,106.414 27.979,211.314 63.079,215.903"
       id="path144" />
    <g
       clip-path="url(#SVGID_6_)"
       id="g150"
       style="stroke-width:0.541666">
      <g
         opacity="0.6"
         id="g148"
         style="stroke-width:0.541666">
        <path
           fill="#ffffff"
           d="m 83.961,65.75 c 0,0 -0.027,-0.202 -0.078,-0.582 -0.067,-0.375 -0.085,-0.948 -0.265,-1.63 -0.079,-0.341 -0.165,-0.719 -0.26,-1.13 -0.13,-0.402 -0.27,-0.836 -0.42,-1.301 -0.158,-0.459 -0.39,-0.925 -0.597,-1.425 -0.223,-0.494 -0.52,-0.983 -0.792,-1.507 -0.633,-1.001 -1.37,-2.05 -2.313,-3.012 -0.902,-0.999 -2.045,-1.852 -3.253,-2.651 -1.227,-0.79 -2.628,-1.351 -4.069,-1.818 -1.44,-0.427 -3.045,-0.614 -4.496,-0.645 -1.691,0.037 -3.095,0.218 -4.585,0.646 -1.44,0.47 -2.842,1.028 -4.068,1.819 -1.209,0.799 -2.351,1.652 -3.253,2.65 -0.942,0.961 -1.678,2.011 -2.312,3.011 -0.272,0.524 -0.569,1.013 -0.792,1.507 -0.207,0.5 -0.439,0.965 -0.598,1.424 -0.15,0.464 -0.291,0.899 -0.42,1.301 -0.095,0.413 -0.182,0.792 -0.261,1.135 -0.18,0.688 -0.198,1.247 -0.266,1.624 -0.051,0.38 -0.078,0.583 -0.078,0.583 0,0 -0.006,-0.204 -0.019,-0.586 0.01,-0.381 -0.083,-0.953 0.011,-1.667 0.032,-0.36 0.068,-0.759 0.107,-1.193 0.084,-0.429 0.175,-0.894 0.273,-1.39 0.11,-0.495 0.294,-1.003 0.454,-1.553 0.176,-0.544 0.449,-1.083 0.688,-1.666 0.293,-0.555 0.598,-1.141 0.959,-1.718 0.393,-0.555 0.768,-1.16 1.262,-1.694 0.909,-1.139 2.08,-2.163 3.387,-3.077 1.318,-0.905 2.824,-1.631 4.427,-2.151 1.585,-0.495 3.428,-0.738 4.992,-0.777 1.804,0.046 3.447,0.283 5.082,0.777 1.602,0.523 3.108,1.247 4.426,2.152 1.307,0.914 2.477,1.939 3.386,3.077 0.494,0.535 0.87,1.139 1.262,1.695 0.361,0.577 0.666,1.163 0.959,1.717 0.239,0.583 0.513,1.121 0.688,1.666 0.16,0.55 0.344,1.058 0.454,1.553 0.098,0.496 0.188,0.96 0.273,1.39 0.04,0.436 0.076,0.837 0.108,1.199 0.094,0.719 0.001,1.277 0.011,1.661 -0.007,0.382 -0.014,0.586 -0.014,0.586 z"
           id="path146"
           style="stroke-width:0.541666" />
      </g>
    </g>
  </g>
  <g
     id="Layer_2"
     transform="matrix(0.0260497,0.00278715,-0.00279459,0.02611921,3.7948491,2.9344451)"
     style="stroke-width:0.541666">
    <g
       id="g155"
       style="stroke-width:0.541666">
      <path
         d="m 63.255,174.228 c -0.938,10.178 -4.014,26.452 -13.949,35.368 -4.674,4.193 -10.322,6.308 -16.834,6.308 -1.382,0 -2.804,-0.096 -4.263,-0.287 C 19.241,214.446 13.083,207.812 10.401,196.435 2.383,162.438 26.194,96.403 64.386,70.658 c 1.222,-0.823 2.878,-0.499 3.7,0.721 0.824,1.22 0.501,2.878 -0.72,3.701 -38.153,25.718 -58.625,91.091 -51.776,120.131 2.16,9.16 6.638,14.246 13.309,15.119 6.806,0.889 12.32,-0.647 16.839,-4.696 10.111,-9.065 12.113,-28.142 12.498,-36.373"
         id="path153"
         style="fill:#ffffff;fill-opacity:1;stroke-width:0.541666" />
    </g>
  </g>
</svg>
