<?xml version="1.0" encoding="UTF-8" standalone="no"?>
<svg
   xmlns:dc="http://purl.org/dc/elements/1.1/"
   xmlns:cc="http://creativecommons.org/ns#"
   xmlns:rdf="http://www.w3.org/1999/02/22-rdf-syntax-ns#"
   xmlns:svg="http://www.w3.org/2000/svg"
   xmlns="http://www.w3.org/2000/svg"
   xmlns:xlink="http://www.w3.org/1999/xlink"
   xmlns:sodipodi="http://sodipodi.sourceforge.net/DTD/sodipodi-0.dtd"
   xmlns:inkscape="http://www.inkscape.org/namespaces/inkscape"
   width="45.999886"
   height="45.999989"
   version="1.1"
   viewBox="0 0 12.170564 12.170591"
   id="svg12"
   sodipodi:docname="element-desktop-tray.svg"
   inkscape:version="1.0.1 (3bc2e813f5, 2020-09-07)">
  <style
     id="style862"></style>
  <metadata
     id="metadata37">
    <rdf:RDF>
      <cc:Work
         rdf:about="">
        <dc:format>image/svg+xml</dc:format>
        <dc:type
           rdf:resource="http://purl.org/dc/dcmitype/StillImage" />
        <dc:title></dc:title>
      </cc:Work>
    </rdf:RDF>
  </metadata>
  <defs
     id="defs16">
    <linearGradient
       id="c"
       y1="523.79999"
       x1="403.57001"
       y2="536.79999"
       x2="416.57001"
       gradientUnits="userSpaceOnUse"
       gradientTransform="matrix(0.34526714,0,0,0.34526706,-134.80427,-174.63325)">
      <stop
         stop-color="#292c2f"
         id="stop1568" />
      <stop
         offset="1"
         stop-opacity="0"
         id="stop1570" />
    </linearGradient>
    <linearGradient
       xlink:href="#b-2"
       id="linearGradient4189"
       x1="14.369"
       y1="22.521999"
       x2="26.521999"
       y2="22.521999"
       gradientUnits="userSpaceOnUse" />
    <linearGradient
       x1="36"
       gradientUnits="userSpaceOnUse"
       x2="14"
       y2="12"
       y1="44"
       id="b-2">
      <stop
         style="stop-color:#bfc9c9;stop-opacity:1"
         stop-color="#536161"
         id="stop1579" />
      <stop
         style="stop-color:#fbfbfb;stop-opacity:1"
         stop-color="#f4f5f5"
         offset="1"
         id="stop1581" />
    </linearGradient>
    <linearGradient
       xlink:href="#b-2"
       id="linearGradient4428"
       gradientUnits="userSpaceOnUse"
       x1="31.586"
       y1="36.345001"
       x2="1.2029999"
       y2="6.723" />
    <linearGradient
       xlink:href="#b-2"
       id="linearGradient4189-3"
       x1="14.369"
       y1="22.521999"
       x2="26.521999"
       y2="22.521999"
       gradientUnits="userSpaceOnUse"
       gradientTransform="translate(20.841982,61.553822)" />
    <linearGradient
       xlink:href="#b-2"
       id="linearGradient4428-5"
       gradientUnits="userSpaceOnUse"
       x1="31.586"
       y1="36.345001"
       x2="1.2029999"
       y2="6.723"
       gradientTransform="translate(20.841982,61.553822)" />
    <linearGradient
       xlink:href="#b-2"
       id="linearGradient4189-3-3"
       x1="14.369"
       y1="22.521999"
       x2="26.521999"
       y2="22.521999"
       gradientUnits="userSpaceOnUse"
       gradientTransform="translate(4.376802,4.4211693)" />
    <linearGradient
       xlink:href="#b-2"
       id="linearGradient4428-5-5"
       gradientUnits="userSpaceOnUse"
       x1="31.586"
       y1="36.345001"
       x2="1.2029999"
       y2="6.723"
       gradientTransform="translate(4.376802,4.4211693)" />
    <filter
       id="filter2917-3"
       x="-0.96181147"
       y="-0.66745996"
       width="2.9236229"
       height="2.3349199"
       color-interpolation-filters="sRGB">
      <feGaussianBlur
         stdDeviation="0.2871969"
         id="feGaussianBlur732-5" />
    </filter>
    <filter
       id="filter1"
       x="-0.96181148"
       y="-0.66745996"
       width="2.9236228"
       height="2.3349199"
       color-interpolation-filters="sRGB">
      <feGaussianBlur
         stdDeviation="0.2871969"
         id="feGaussianBlur1" />
    </filter>
    <filter
       id="filter2"
       x="-0.96181148"
       y="-0.66745996"
       width="2.9236228"
       height="2.3349199"
       color-interpolation-filters="sRGB">
      <feGaussianBlur
         stdDeviation="0.2871969"
         id="feGaussianBlur2" />
    </filter>
  </defs>
  <sodipodi:namedview
     id="namedview14"
     pagecolor="#000000"
     bordercolor="#666666"
     borderopacity="1.0"
     inkscape:showpageshadow="2"
     inkscape:pageopacity="0.0"
     inkscape:pagecheckerboard="0"
     inkscape:deskcolor="#d1d1d1"
     showgrid="false"
     inkscape:zoom="7.5172018"
     inkscape:cx="23.20269"
     inkscape:cy="37.728789"
     inkscape:window-width="1920"
     inkscape:window-height="988"
     inkscape:window-x="0"
     inkscape:window-y="0"
     inkscape:window-maximized="1"
     inkscape:current-layer="svg12"
     inkscape:document-rotation="0">
    <inkscape:grid
       type="xygrid"
       id="grid244"
       originx="9.7893915"
       originy="-31.749373"
       spacingy="1"
       spacingx="1"
       units="px"
       visible="false" />
  </sodipodi:namedview>
  <g
     id="g1"
     transform="matrix(0.30237501,0,0,0.30237501,-2.3812032,-2.3812032)"
     style="fill:#f9f9f9;stroke-width:0.875">
    <path
       d="m 25.760091,14 c -0.927822,0 -1.679358,0.75152 -1.679358,1.679364 0,0.927823 0.751536,1.681649 1.679358,1.681649 4.329948,0 7.840915,3.508614 7.840915,7.838518 0,0.927851 0.751382,1.679358 1.679189,1.679358 0.928005,0 1.679411,-0.751507 1.679411,-1.679358 C 36.959606,19.01396 31.945653,14 25.760091,14 Z m -0.56056,5.040356 C 19.01396,19.040371 14,24.054292 14,30.239909 c 0,0.927838 0.75152,1.679358 1.679364,1.679358 0.927823,0 1.681649,-0.75152 1.681649,-1.679358 0,-4.32999 3.508614,-7.840825 7.838518,-7.840825 0.927851,0 1.679358,-0.75152 1.679358,-1.679364 0,-0.927844 -0.751507,-1.679364 -1.679358,-1.679364 z m 15.121055,5.040377 c -0.92778,0 -1.681592,0.751536 -1.681592,1.679358 0,4.32999 -3.508599,7.840915 -7.838525,7.840915 -0.927851,0 -1.679358,0.751383 -1.679358,1.679189 0,0.928005 0.751507,1.679411 1.679358,1.679411 C 36.986013,36.959606 42,31.945653 42,25.760091 42,24.832269 41.248397,24.080733 40.320586,24.080733 Z M 20.71972,29.121111 c -0.927844,0 -1.679364,0.751507 -1.679364,1.679358 0,6.185542 5.013936,11.199531 11.199553,11.199531 0.927838,0 1.679358,-0.751605 1.679358,-1.679411 0,-0.927783 -0.75152,-1.681595 -1.679358,-1.681595 -4.329948,0 -7.840825,-3.508599 -7.840825,-7.838525 0,-0.927851 -0.75152,-1.679358 -1.679364,-1.679358 z"
       id="path1"
       style="fill:#f9f9f9;stroke-width:1.8845" />
  </g>
</svg>
