<?xml version="1.0" encoding="UTF-8" standalone="no"?>
<svg
   xmlns:dc="http://purl.org/dc/elements/1.1/"
   xmlns:cc="http://creativecommons.org/ns#"
   xmlns:rdf="http://www.w3.org/1999/02/22-rdf-syntax-ns#"
   xmlns:svg="http://www.w3.org/2000/svg"
   xmlns="http://www.w3.org/2000/svg"
   xmlns:xlink="http://www.w3.org/1999/xlink"
   xmlns:sodipodi="http://sodipodi.sourceforge.net/DTD/sodipodi-0.dtd"
   xmlns:inkscape="http://www.inkscape.org/namespaces/inkscape"
   width="47.285591"
   height="47.28569"
   version="1.1"
   viewBox="0 0 12.510734 12.51076"
   id="svg12"
   sodipodi:docname="falkon.svg"
   inkscape:version="1.0.1 (3bc2e813f5, 2020-09-07)">
  <style
     id="style879"></style>
  <metadata
     id="metadata54">
    <rdf:RDF>
      <cc:Work
         rdf:about="">
        <dc:format>image/svg+xml</dc:format>
        <dc:type
           rdf:resource="http://purl.org/dc/dcmitype/StillImage" />
      </cc:Work>
    </rdf:RDF>
  </metadata>
  <defs
     id="defs16">
    <linearGradient
       id="c"
       y1="523.79999"
       x1="403.57001"
       y2="536.79999"
       x2="416.57001"
       gradientUnits="userSpaceOnUse"
       gradientTransform="matrix(0.34526714,0,0,0.34526706,-134.80427,-174.63325)">
      <stop
         stop-color="#292c2f"
         id="stop1568" />
      <stop
         offset="1"
         stop-opacity="0"
         id="stop1570" />
    </linearGradient>
    <linearGradient
       xlink:href="#b-2"
       id="linearGradient4189"
       x1="14.369"
       y1="22.521999"
       x2="26.521999"
       y2="22.521999"
       gradientUnits="userSpaceOnUse" />
    <linearGradient
       x1="36"
       gradientUnits="userSpaceOnUse"
       x2="14"
       y2="12"
       y1="44"
       id="b-2">
      <stop
         style="stop-color:#bfc9c9;stop-opacity:1"
         stop-color="#536161"
         id="stop1579" />
      <stop
         style="stop-color:#fbfbfb;stop-opacity:1"
         stop-color="#f4f5f5"
         offset="1"
         id="stop1581" />
    </linearGradient>
    <linearGradient
       xlink:href="#b-2"
       id="linearGradient4428"
       gradientUnits="userSpaceOnUse"
       x1="31.586"
       y1="36.345001"
       x2="1.2029999"
       y2="6.723" />
    <linearGradient
       xlink:href="#b-2"
       id="linearGradient4189-3"
       x1="14.369"
       y1="22.521999"
       x2="26.521999"
       y2="22.521999"
       gradientUnits="userSpaceOnUse"
       gradientTransform="translate(20.841982,61.553822)" />
    <linearGradient
       xlink:href="#b-2"
       id="linearGradient4428-5"
       gradientUnits="userSpaceOnUse"
       x1="31.586"
       y1="36.345001"
       x2="1.2029999"
       y2="6.723"
       gradientTransform="translate(20.841982,61.553822)" />
    <linearGradient
       xlink:href="#b-2"
       id="linearGradient4189-3-3"
       x1="14.369"
       y1="22.521999"
       x2="26.521999"
       y2="22.521999"
       gradientUnits="userSpaceOnUse"
       gradientTransform="translate(4.376802,4.4211693)" />
    <linearGradient
       xlink:href="#b-2"
       id="linearGradient4428-5-5"
       gradientUnits="userSpaceOnUse"
       x1="31.586"
       y1="36.345001"
       x2="1.2029999"
       y2="6.723"
       gradientTransform="translate(4.376802,4.4211693)" />
    <linearGradient
       inkscape:collect="always"
       xlink:href="#linearGradient14"
       id="linearGradient15"
       x1="-9.6850061"
       y1="45.161198"
       x2="11.98815"
       y2="21.735205"
       gradientUnits="userSpaceOnUse"
       gradientTransform="scale(0.26457813)" />
    <linearGradient
       id="linearGradient14"
       inkscape:collect="always">
      <stop
         style="stop-color:#9955ff;stop-opacity:0.45197046;"
         offset="0"
         id="stop12" />
      <stop
         style="stop-color:#cd87de;stop-opacity:1"
         offset="1"
         id="stop13" />
    </linearGradient>
    <filter
       id="filter2917-3"
       x="-0.96181148"
       y="-0.19406836"
       width="2.9236228"
       height="1.3881367"
       color-interpolation-filters="sRGB">
      <feGaussianBlur
         stdDeviation="0.2871969"
         id="feGaussianBlur732-5" />
    </filter>
    <filter
       id="filter1"
       x="-0.96181148"
       y="-0.66745996"
       width="2.9236228"
       height="2.3349199"
       color-interpolation-filters="sRGB">
      <feGaussianBlur
         stdDeviation="0.2871969"
         id="feGaussianBlur1" />
    </filter>
    <filter
       id="filter2"
       x="-0.96181148"
       y="-0.66745996"
       width="2.9236228"
       height="2.3349199"
       color-interpolation-filters="sRGB">
      <feGaussianBlur
         stdDeviation="0.2871969"
         id="feGaussianBlur2" />
    </filter>
    <linearGradient
       id="_lgradient_80"
       x1="0.22078557"
       y1="0.047239967"
       x2="0.58897626"
       y2="0.49430263"
       gradientTransform="matrix(15.547316,0,0,15.521916,0.70554167,0.70554123)"
       gradientUnits="userSpaceOnUse">
      <stop
         offset="2.608695652173913%"
         stop-opacity="1"
         style="stop-color:rgb(237,184,212)"
         id="stop1" />
      <stop
         offset="98.69565217391305%"
         stop-opacity="1"
         style="stop-color:rgb(162,110,245)"
         id="stop2" />
    </linearGradient>
    <linearGradient
       id="_lgradient_81"
       x1="0.22078557"
       y1="0.047239967"
       x2="0.9022491"
       y2="0.90614605"
       gradientTransform="matrix(1.7532711,0,0,1.314777,9.2186077,3.712207)"
       gradientUnits="userSpaceOnUse">
      <stop
         offset="2.608695652173913%"
         stop-opacity="1"
         style="stop-color:rgb(237,184,212)"
         id="stop3" />
      <stop
         offset="98.69565217391305%"
         stop-opacity="1"
         style="stop-color:rgb(162,110,245)"
         id="stop4" />
    </linearGradient>
    <linearGradient
       id="_lgradient_82"
       x1="0.17374484"
       y1="0.010219852"
       x2="0.3311637"
       y2="0.17655618"
       gradientTransform="matrix(11.972335,0,0,8.5977307,1.3528762,6.8991393)"
       gradientUnits="userSpaceOnUse">
      <stop
         offset="0%"
         stop-opacity="1"
         style="stop-color:rgb(247,241,7)"
         id="stop5" />
      <stop
         offset="83.88839793817618%"
         stop-opacity="1"
         style="stop-color:rgb(255,187,36)"
         id="stop6" />
    </linearGradient>
    <linearGradient
       id="_lgradient_83"
       x1="0.38015819"
       y1="1.9877502"
       x2="0.99081039"
       y2="2.527808"
       gradientTransform="matrix(3.4444545,0,0,0.74752138,2.9731526,1.9102543)"
       gradientUnits="userSpaceOnUse">
      <stop
         offset="0%"
         stop-opacity="1"
         style="stop-color:rgb(247,241,7)"
         id="stop7" />
      <stop
         offset="83.88839793817618%"
         stop-opacity="1"
         style="stop-color:rgb(255,187,36)"
         id="stop8" />
    </linearGradient>
    <linearGradient
       id="_lgradient_84"
       x1="0.38195378"
       y1="-0.021028476"
       x2="0.46187532"
       y2="0.39904937"
       gradientTransform="matrix(7.9697989,0,0,3.5054838,1.2488088,5.4757093)"
       gradientUnits="userSpaceOnUse">
      <stop
         offset="0%"
         stop-opacity="1"
         style="stop-color:rgb(247,241,7)"
         id="stop9" />
      <stop
         offset="83.88839793817618%"
         stop-opacity="1"
         style="stop-color:rgb(255,187,36)"
         id="stop10" />
    </linearGradient>
    <linearGradient
       inkscape:collect="always"
       xlink:href="#linearGradient14"
       id="linearGradient887"
       x1="-12.025727"
       y1="6.1170783"
       x2="-0.085100174"
       y2="6.1170783"
       gradientUnits="userSpaceOnUse" />
  </defs>
  <sodipodi:namedview
     id="namedview14"
     pagecolor="#000000"
     bordercolor="#666666"
     borderopacity="1.0"
     inkscape:showpageshadow="2"
     inkscape:pageopacity="0.0"
     inkscape:pagecheckerboard="0"
     inkscape:deskcolor="#d1d1d1"
     showgrid="false"
     inkscape:zoom="8.8545525"
     inkscape:cx="18.541158"
     inkscape:cy="42.744545"
     inkscape:window-width="1920"
     inkscape:window-height="988"
     inkscape:window-x="0"
     inkscape:window-y="0"
     inkscape:window-maximized="1"
     inkscape:current-layer="svg12"
     inkscape:document-rotation="0">
    <inkscape:grid
       type="xygrid"
       id="grid244"
       originx="9.9594769"
       originy="-31.57929"
       spacingy="1"
       spacingx="1"
       units="px"
       visible="false" />
  </sodipodi:namedview>
  <rect
     x="-12.194976"
     y="0.32004508"
     width="11.940627"
     height="11.936014"
     rx="1.6121091"
     shape-rendering="crispEdges"
     id="rect5-6-7-3"
     ry="1.7735944"
     transform="matrix(0.00523883,-0.99998628,0.999988,0.00489859,0,0)"
     style="fill:#ffd42a;fill-opacity:0.113014;stroke:url(#linearGradient887);stroke-width:0.5291563;stroke-miterlimit:4;stroke-dasharray:none;stroke-opacity:1" />
  <rect
     x="-3.7202365"
     y="4.8851409"
     width="7.912631"
     height="7.912384"
     rx="1.612043"
     shape-rendering="crispEdges"
     id="rect5-6-6-6-6"
     style="fill:#b380ff;fill-opacity:0.122146;stroke:url(#linearGradient15);stroke-width:0.39686725;stroke-opacity:1;stroke-miterlimit:4;stroke-dasharray:none"
     ry="1.7735215"
     transform="matrix(0.72612649,-0.68756114,0.6879775,0.72573202,0,0)" />
  <path
     d="m 3.5546377,7.7972263 v -0.00562 c 0,-0.00138 0,-0.00138 0,-0.00278 0.00135,-0.2461758 0.03181,-0.490971 0.08851,-0.7316161 0.034577,-0.147967 0.07745,-0.2959498 0.1258553,-0.4411676 -0.052555,-0.00413 -0.1009607,-0.027656 -0.1355361,-0.066376 -0.035958,-0.038728 -0.055319,-0.089895 -0.055319,-0.1410688 -0.00692,-0.026282 -0.00969,-0.052556 -0.00969,-0.080214 -0.00134,-0.00412 0,-0.00828 0,-0.01245 v -0.019368 c 0.00134,-0.00412 0.00134,-0.0069 0.00134,-0.00968 0.023555,-0.2530335 0.067811,-0.501978 0.1300475,-0.748155 C 3.7676194,5.2593681 3.8671971,4.988296 3.9944349,4.7310534 4.0594363,4.6024491 4.1355025,4.4793602 4.2212499,4.3631864 4.3056139,4.2483958 4.4038085,4.1446693 4.5144504,4.0547724 4.5531749,4.0229612 4.5946653,3.9925395 4.6375392,3.9648758 4.3070014,3.9316764 3.9764595,3.9192296 3.6445339,3.9289164 4.1106119,3.6232687 4.6292457,3.4088997 5.1741555,3.295492 c 0.2378804,-0.048406 0.478526,-0.0733 0.7205548,-0.0733 0.00134,0 0.00134,0 0.00134,0 h 0.011067 c 0.2959667,0 0.5905502,0.044261 0.875453,0.130004 0.2378796,0.073298 0.4646951,0.1770266 0.6776805,0.305648 0.1728773,0.1064921 0.3346911,0.2268148 0.4854404,0.3609685 0.1051096,0.09266 0.2046872,0.1908563 0.3014991,0.2932003 0.020747,0.022128 0.040111,0.042879 0.06085,0.063618 0.1673496,0.038731 0.330546,0.098194 0.4826783,0.1756441 0.1535247,0.078836 0.2945929,0.178411 0.4190647,0.2959681 0.1147926,0.1078755 0.2116039,0.232348 0.2890533,0.3706496 0.1120226,0.2033049 0.1645774,0.4342688 0.1479816,0.6666167 -0.1659625,-0.013836 -0.3319255,-0.019365 -0.4978878,-0.019365 -0.230965,0 -0.4605463,0.01245 -0.6901279,0.038732 C 8.3357218,5.9370705 8.2153991,5.9854705 8.101991,6.0449456 8.021778,6.0878246 7.9498589,6.1417566 7.889006,6.2081415 7.843363,6.2565505 7.808792,6.3132505 7.7852789,6.375487 7.7631549,6.437717 7.7507069,6.5027255 7.7493239,6.5691112 v 0.022128 c 0.00134,0.070528 0.011067,0.1410677 0.029045,0.208836 0.020748,0.080214 0.047026,0.157665 0.081597,0.2323479 C 7.9360314,7.1983838 8.0300766,7.3560476 8.137952,7.5026488 8.3481805,7.7916983 8.5888266,8.0572376 8.8585155,8.2909686 8.1808463,8.9423709 7.2777334,9.3061052 6.3400447,9.3074888 5.5697014,9.3060734 4.8187211,9.0613111 4.1963613,8.6062969 c -0.00411,-0.00278 -0.00826,-0.00562 -0.012451,-0.00968 -0.00134,-0.00138 -0.00411,-0.00278 -0.00557,-0.00412 -0.022094,-0.016625 -0.045604,-0.029074 -0.071881,-0.038757 -0.026273,-0.00969 -0.053935,-0.016596 -0.082978,-0.023515 C 3.9654,8.5191536 3.9073123,8.5011782 3.8519917,8.477665 3.7524139,8.4320277 3.6666661,8.3587251 3.6058137,8.2660626 3.6030445,8.1996809 3.5947487,8.1332925 3.5850687,8.0682898 c -0.00692,-0.049786 -0.01383,-0.098194 -0.019363,-0.1479829 -0.00555,-0.037341 -0.00969,-0.076068 -0.011066,-0.114791 0,-0.00278 0,-0.00562 0,-0.00828 z m 1.0386491,0.5781029 c 0.017982,-0.044261 0.019366,-0.094045 0.00281,-0.1410685 -0.015223,-0.04564 -0.045649,-0.084364 -0.087134,-0.1106415 -0.041495,-0.024894 -0.091278,-0.034573 -0.1383024,-0.027665 -0.048407,0.0069 -0.09266,0.030432 -0.1244716,0.066378 -0.00134,0 -0.00281,0 -0.00411,-0.00138 0.080214,-0.1272378 0.1659624,-0.2489441 0.2586247,-0.367884 0.073299,0.076068 0.1217061,0.1728786 0.1396855,0.2766047 0.016599,0.1051093 0,0.2116029 -0.045644,0.3070307 0,0 -0.00134,0 -0.00134,-0.00138 z M 4.2419995,8.1609605 c -0.04426,-0.015219 -0.091277,-0.027665 -0.136919,-0.037343 -0.029045,-0.00562 -0.056707,-0.01383 -0.082977,-0.023514 -0.00557,-0.00278 -0.00969,-0.00562 -0.015217,-0.00968 -0.00281,-0.027662 -0.00692,-0.055321 -0.011067,-0.082973 -0.00692,-0.048411 -0.013833,-0.095429 -0.019365,-0.1438346 -0.00411,-0.023517 -0.00557,-0.04703 -0.00692,-0.070538 v -0.00138 c 0.00137,-0.214375 0.027664,-0.4287439 0.07745,-0.6389628 0.063617,-0.2683063 0.1507494,-0.5310803 0.2613916,-0.784174 0.023515,-0.04288 0.044256,-0.087122 0.064999,-0.1327693 0.00411,-0.00968 0.00826,-0.020748 0.013834,-0.030423 0.038728,-0.033192 0.074683,-0.067768 0.1106423,-0.1023438 0.055318,-0.055331 0.1092584,-0.1106536 0.1631962,-0.1673575 l 0.047026,-0.048406 c 0.065,-0.066401 0.076066,-0.168747 0.029044,-0.2489631 -0.04564,-0.080217 -0.1410687,-0.1203225 -0.2309645,-0.095428 -0.059472,0.015209 -0.1189402,0.033192 -0.177027,0.053933 -0.047026,0.017978 -0.089893,0.042882 -0.1286209,0.073298 -0.035961,0.027662 -0.070532,0.058082 -0.1037266,0.089895 -0.00969,0.00968 -0.019366,0.017978 -0.029044,0.027664 0.00969,-0.049789 0.022131,-0.099577 0.034577,-0.1493666 C 4.1631616,5.3893477 4.2516786,5.145936 4.365086,4.9163544 4.419022,4.8084802 4.4826433,4.7061365 4.55456,4.6107076 4.618176,4.5235836 4.6942456,4.4447453 4.7772268,4.3755944 c 0.077448,-0.063619 0.1631964,-0.113408 0.2558591,-0.1479837 0.095428,-0.035961 0.1963889,-0.053937 0.2987325,-0.053937 0.1051096,0 0.2102193,0.0166 0.3111799,0.048409 C 5.7121493,4.1737237 5.7536417,4.0948879 5.755025,4.0105229 5.757785,3.9261539 5.72045,3.8459418 5.6540642,3.7933868 5.6250212,3.7684948 5.5932122,3.7491298 5.5586362,3.7325348 5.5088472,3.7104108 5.4590582,3.6910458 5.4078869,3.6758318 c 0.1604304,-0.024892 0.3236266,-0.03873 0.4882066,-0.03873 h 0.011068 c 0,0 0,0 0,0 0.254476,0 0.5089517,0.038732 0.7537468,0.1120242 0.2046872,0.063618 0.3996932,0.1521322 0.5836353,0.2627748 0.150749,0.092659 0.2932004,0.1977711 0.4245872,0.315329 0.095428,0.085742 0.1880908,0.1756427 0.2766047,0.2696888 0.023514,0.026275 0.049791,0.051175 0.074683,0.077446 0.035961,0.038732 0.080213,0.069148 0.1286206,0.091276 0.1576644,0.030424 0.3097968,0.082982 0.4536314,0.154899 0.1175566,0.060848 0.2268154,0.1383025 0.3222441,0.2281986 0.08436,0.078827 0.1548979,0.1701119 0.2102193,0.2696891 0.00557,0.01107 0.011067,0.020748 0.016599,0.031812 -0.00133,0 -0.00133,0 -0.00283,0 -0.255859,0 -0.5117181,0.01521 -0.7661941,0.04564 C 8.2167632,5.5373659 8.057716,5.5982201 7.9069666,5.6784363 7.7866438,5.7420579 7.6773849,5.826419 7.5847224,5.9259965 c -0.082981,0.088512 -0.1466002,0.193623 -0.1894739,0.3070303 -0.037343,0.10511 -0.058085,0.2157524 -0.060849,0.3277776 0,0 0,0.00138 0,0.00138 v 0.024898 c 0,0.00138 0,0.00278 0,0.00562 0.00134,0.1051092 0.015218,0.2102192 0.041494,0.3125627 0.027666,0.102342 0.062235,0.2033025 0.1064967,0.3001134 0.088511,0.1908524 0.1963872,0.3734118 0.320859,0.5435231 C 7.9360267,7.9314558 8.0826269,8.1070995 8.2389085,8.2716784 7.687088,8.6741355 7.0218547,8.8912695 6.3400247,8.8926521 5.7204314,8.8912369 5.1146682,8.7128596 4.594652,8.3767853"
     fill-rule="evenodd"
     fill="url(#_lgradient_80)"
     id="path2"
     style="isolation:isolate;fill:url(#_lgradient_80);stroke-width:0.352771" />
  <path
     d="m 6.8921456,4.4395258 c 0,0 0.6081142,-0.2389862 0.6873616,0.4718875 -0.5996783,0.0621 -0.6873616,-0.4718875 -0.6873616,-0.4718875 z"
     fill-rule="evenodd"
     fill="url(#_lgradient_81)"
     id="path4"
     style="isolation:isolate;fill:url(#_lgradient_81);stroke-width:0.352771" />
  <path
     d="m 4.0884839,9.0210618 c 0,0 1.1405782,-3.2220259 4.4136368,-3.3455299 0,0 -2.8174914,-0.4561206 -4.6934218,2.5153019 -0.010376,0.420439 0.279785,0.830228 0.279785,0.830228 z"
     fill-rule="evenodd"
     fill="url(#_lgradient_82)"
     id="path6"
     style="isolation:isolate;fill:url(#_lgradient_82);stroke-width:0.352771" />
  <path
     d="m 4.4436442,3.7395788 c 0,0 0.8163974,0.047443 1.1079384,0.2479751 C 5.6731501,3.9625194 5.7766004,3.8791258 5.7941645,3.7657172 5.6897461,3.7224328 4.733802,3.6445648 4.4436442,3.7395768 Z"
     fill-rule="evenodd"
     fill="url(#_lgradient_83)"
     id="path8"
     style="isolation:isolate;fill:url(#_lgradient_83);stroke-width:0.352771" />
  <path
     d="m 3.7721869,6.4666212 c 0,0 1.0566287,-1.2275706 3.1199587,-1.3743098 0,0 -2.8433544,0.1269619 -3.0791595,0.9201243 -0.065556,0.1907198 -0.040802,0.4541855 -0.040799,0.4541855 z"
     fill-rule="evenodd"
     fill="url(#_lgradient_84)"
     id="path10"
     style="isolation:isolate;fill:url(#_lgradient_84);stroke-width:0.352771" />
</svg>
