<?xml version="1.0" encoding="UTF-8" standalone="no"?>
<svg
   xmlns:dc="http://purl.org/dc/elements/1.1/"
   xmlns:cc="http://creativecommons.org/ns#"
   xmlns:rdf="http://www.w3.org/1999/02/22-rdf-syntax-ns#"
   xmlns:svg="http://www.w3.org/2000/svg"
   xmlns="http://www.w3.org/2000/svg"
   xmlns:xlink="http://www.w3.org/1999/xlink"
   xmlns:sodipodi="http://sodipodi.sourceforge.net/DTD/sodipodi-0.dtd"
   xmlns:inkscape="http://www.inkscape.org/namespaces/inkscape"
   width="47.285591"
   height="47.28569"
   version="1.1"
   viewBox="0 0 12.510734 12.51076"
   id="svg12"
   sodipodi:docname="fifteenpuzzle.svg"
   inkscape:version="1.0.1 (3bc2e813f5, 2020-09-07)">
  <style
     id="style860"></style>
  <metadata
     id="metadata35">
    <rdf:RDF>
      <cc:Work
         rdf:about="">
        <dc:format>image/svg+xml</dc:format>
        <dc:type
           rdf:resource="http://purl.org/dc/dcmitype/StillImage" />
      </cc:Work>
    </rdf:RDF>
  </metadata>
  <defs
     id="defs16">
    <linearGradient
       id="c"
       y1="523.79999"
       x1="403.57001"
       y2="536.79999"
       x2="416.57001"
       gradientUnits="userSpaceOnUse"
       gradientTransform="matrix(0.34526714,0,0,0.34526706,-134.80427,-174.63325)">
      <stop
         stop-color="#292c2f"
         id="stop1568" />
      <stop
         offset="1"
         stop-opacity="0"
         id="stop1570" />
    </linearGradient>
    <linearGradient
       xlink:href="#b-2"
       id="linearGradient4189"
       x1="14.369"
       y1="22.521999"
       x2="26.521999"
       y2="22.521999"
       gradientUnits="userSpaceOnUse" />
    <linearGradient
       x1="36"
       gradientUnits="userSpaceOnUse"
       x2="14"
       y2="12"
       y1="44"
       id="b-2">
      <stop
         style="stop-color:#bfc9c9;stop-opacity:1"
         stop-color="#536161"
         id="stop1579" />
      <stop
         style="stop-color:#fbfbfb;stop-opacity:1"
         stop-color="#f4f5f5"
         offset="1"
         id="stop1581" />
    </linearGradient>
    <linearGradient
       xlink:href="#b-2"
       id="linearGradient4428"
       gradientUnits="userSpaceOnUse"
       x1="31.586"
       y1="36.345001"
       x2="1.2029999"
       y2="6.723" />
    <linearGradient
       xlink:href="#b-2"
       id="linearGradient4189-3"
       x1="14.369"
       y1="22.521999"
       x2="26.521999"
       y2="22.521999"
       gradientUnits="userSpaceOnUse"
       gradientTransform="translate(20.841982,61.553822)" />
    <linearGradient
       xlink:href="#b-2"
       id="linearGradient4428-5"
       gradientUnits="userSpaceOnUse"
       x1="31.586"
       y1="36.345001"
       x2="1.2029999"
       y2="6.723"
       gradientTransform="translate(20.841982,61.553822)" />
    <linearGradient
       xlink:href="#b-2"
       id="linearGradient4189-3-3"
       x1="14.369"
       y1="22.521999"
       x2="26.521999"
       y2="22.521999"
       gradientUnits="userSpaceOnUse"
       gradientTransform="translate(4.376802,4.4211693)" />
    <linearGradient
       xlink:href="#b-2"
       id="linearGradient4428-5-5"
       gradientUnits="userSpaceOnUse"
       x1="31.586"
       y1="36.345001"
       x2="1.2029999"
       y2="6.723"
       gradientTransform="translate(4.376802,4.4211693)" />
    <linearGradient
       inkscape:collect="always"
       xlink:href="#linearGradient14"
       id="linearGradient15"
       x1="-9.6850061"
       y1="45.161198"
       x2="11.98815"
       y2="21.735205"
       gradientUnits="userSpaceOnUse"
       gradientTransform="scale(0.26457813)" />
    <linearGradient
       id="linearGradient14"
       inkscape:collect="always">
      <stop
         style="stop-color:#9955ff;stop-opacity:0.45197046;"
         offset="0"
         id="stop12" />
      <stop
         style="stop-color:#00ccff;stop-opacity:1"
         offset="1"
         id="stop13" />
    </linearGradient>
    <filter
       id="filter2917-3"
       x="-0.96181148"
       y="-0.66745996"
       width="2.9236228"
       height="2.3349199"
       color-interpolation-filters="sRGB">
      <feGaussianBlur
         stdDeviation="0.2871969"
         id="feGaussianBlur732-5" />
    </filter>
    <filter
       id="filter1"
       x="-0.96181148"
       y="-0.66745996"
       width="2.9236228"
       height="2.3349199"
       color-interpolation-filters="sRGB">
      <feGaussianBlur
         stdDeviation="0.2871969"
         id="feGaussianBlur1" />
    </filter>
    <filter
       id="filter2"
       x="-0.96181148"
       y="-0.66745996"
       width="2.9236228"
       height="2.3349199"
       color-interpolation-filters="sRGB">
      <feGaussianBlur
         stdDeviation="0.2871969"
         id="feGaussianBlur2" />
    </filter>
    <linearGradient
       inkscape:collect="always"
       xlink:href="#linearGradient14"
       id="linearGradient868"
       x1="-12.025727"
       y1="6.1170783"
       x2="-0.085100174"
       y2="6.1170783"
       gradientUnits="userSpaceOnUse" />
  </defs>
  <sodipodi:namedview
     id="namedview14"
     pagecolor="#000000"
     bordercolor="#666666"
     borderopacity="1.0"
     inkscape:showpageshadow="2"
     inkscape:pageopacity="0.0"
     inkscape:pagecheckerboard="0"
     inkscape:deskcolor="#d1d1d1"
     showgrid="false"
     inkscape:zoom="7.5172018"
     inkscape:cx="2.5604312"
     inkscape:cy="24.32583"
     inkscape:window-width="1920"
     inkscape:window-height="988"
     inkscape:window-x="0"
     inkscape:window-y="0"
     inkscape:window-maximized="1"
     inkscape:current-layer="svg12"
     inkscape:document-rotation="0">
    <inkscape:grid
       type="xygrid"
       id="grid244"
       originx="9.9594769"
       originy="-31.57929"
       spacingy="1"
       spacingx="1"
       units="px"
       visible="false" />
  </sodipodi:namedview>
  <rect
     x="-12.194976"
     y="0.32004508"
     width="11.940627"
     height="11.936014"
     rx="1.6121091"
     shape-rendering="crispEdges"
     id="rect5-6-7-3"
     ry="1.7735944"
     transform="matrix(0.00523883,-0.99998628,0.999988,0.00489859,0,0)"
     style="fill:#80b3ff;fill-opacity:0.15;stroke:url(#linearGradient868);stroke-width:0.5291563;stroke-miterlimit:4;stroke-dasharray:none;stroke-opacity:1" />
  <rect
     x="-3.7202365"
     y="4.8851409"
     width="7.912631"
     height="7.912384"
     rx="1.612043"
     shape-rendering="crispEdges"
     id="rect5-6-6-6-6"
     style="fill:#80b3ff;fill-opacity:0.122146;stroke:url(#linearGradient15);stroke-width:0.39686725;stroke-opacity:1;stroke-miterlimit:4;stroke-dasharray:none"
     ry="1.7735215"
     transform="matrix(0.72612649,-0.68756114,0.6879775,0.72573202,0,0)" />
  <path
     style="color:#f2f2f2;fill:#fdfdfd;fill-opacity:1;stroke:none;stroke-width:0.26458"
     class="ColorScheme-Text"
     d="m 6.2465842,1.4929814 c -0.08048,0 -0.1459798,0.019966 -0.1964928,0.059948 -0.050506,0.039983 -0.075708,0.09412 -0.075708,0.1622592 0,0.052224 0.015551,0.09721 0.046757,0.135161 0.031616,0.037939 0.072466,0.065089 0.1225712,0.081399 -0.060381,0.020818 -0.1069744,0.051815 -0.1398273,0.093016 -0.032444,0.040798 -0.048641,0.091214 -0.048641,0.1511985 0,0.049777 0.013387,0.092879 0.04009,0.129188 0.027114,0.036323 0.062206,0.063047 0.105312,0.080198 0.043123,0.017148 0.091605,0.025653 0.1453927,0.025653 0.083358,0 0.1524831,-0.020614 0.2075129,-0.061835 0.055041,-0.041207 0.082603,-0.098959 0.082603,-0.1732087 0,-0.056728 -0.016866,-0.1072808 -0.050541,-0.1517516 -0.033681,-0.044487 -0.078798,-0.075721 -0.1354853,-0.093677 0.051345,-0.018362 0.091773,-0.045646 0.1213475,-0.081962 0.02999,-0.036723 0.044967,-0.081164 0.044967,-0.1333913 0,-0.068532 -0.025035,-0.1226819 -0.075141,-0.1622588 -0.049698,-0.039983 -0.1146408,-0.059946 -0.1947182,-0.059943 z m -4.5940238,0.012271 0.01169,0.081962 H 2.0677268 L 1.757346,2.3987311 H 1.8595384 L 2.1749285,1.5774826 v -0.072227 z m 8.8936966,0 c -0.0214,0.014695 -0.0534,0.029575 -0.09614,0.044674 -0.04236,0.014695 -0.07889,0.025079 -0.109663,0.031198 v 0.080739 c 0.0276,-0.0037 0.06077,-0.011615 0.0998,-0.023887 0.03946,-0.012241 0.07215,-0.02544 0.09795,-0.039707 v 0.7270181 h -0.216847 v 0.073447 h 0.51255 v -0.07345 H 10.640423 V 1.5052499 Z m -4.3002295,0.063036 c 0.052162,0 0.093816,0.013198 0.1250206,0.039708 0.031204,0.026127 0.046862,0.061092 0.046862,0.1047501 0,0.048152 -0.014454,0.088083 -0.043193,0.1198931 -0.028741,0.031819 -0.071617,0.053902 -0.1286942,0.066143 -0.056671,-0.012642 -0.099782,-0.034717 -0.1293617,-0.066141 -0.029157,-0.031821 -0.043754,-0.071752 -0.043754,-0.1198931 0,-0.043245 0.015809,-0.078219 0.047432,-0.10475 0.032026,-0.02653 0.073935,-0.039708 0.1256872,-0.039708 z m 0,0.4020529 c 0.057916,0.012241 0.1045094,0.03553 0.1398266,0.069795 0.035741,0.03427 0.053553,0.076317 0.053553,0.1260914 0,0.1109735 -0.064424,0.166462 -0.1933752,0.166462 -0.063256,0 -0.1117241,-0.014491 -0.1453931,-0.043475 -0.033272,-0.028968 -0.049886,-0.069817 -0.049886,-0.1224407 0,-0.051417 0.017809,-0.093855 0.053553,-0.1273073 0.03574,-0.033463 0.082995,-0.056485 0.1417193,-0.069127 z m -0.2294446,3.8323934 -0.017267,0.4730616 0.082497,0.00975 c 0.018884,-0.020002 0.042731,-0.035842 0.071467,-0.04766 0.028741,-0.011872 0.058333,-0.017803 0.088734,-0.017803 0.041475,0 0.076155,0.00927 0.1040886,0.027537 0.027923,0.017962 0.047864,0.041248 0.059784,0.069795 0.011949,0.028149 0.017797,0.06036 0.017797,0.096674 0,0.066111 -0.018482,0.1175789 -0.055445,0.1542945 -0.03656,0.036323 -0.085566,0.054406 -0.1471747,0.054406 -0.068977,0 -0.1431725,-0.022232 -0.2224314,-0.066688 l -0.035069,0.078963 c 0.089117,0.049365 0.1772285,0.074009 0.2642901,0.074009 0.042309,0 0.081422,-0.00627 0.1175549,-0.018924 0.036146,-0.012641 0.067859,-0.031003 0.094956,-0.055086 0.027521,-0.024482 0.048818,-0.055742 0.064018,-0.093677 0.015603,-0.038368 0.023391,-0.081348 0.023391,-0.1290779 0,-0.05018 -0.010187,-0.095534 -0.030736,-0.1359353 -0.020132,-0.040798 -0.050934,-0.073551 -0.092398,-0.098427 -0.041472,-0.025294 -0.090347,-0.038049 -0.1466164,-0.038049 -0.061605,0 -0.1164934,0.016211 -0.1645426,0.048457 l 0.00994,-0.3048326 h 0.3781664 l 0.00791,-0.080745 z m -4.0538646,2.42e-4 -0.2027276,0.2962042 c -0.024239,0.034678 -0.042854,0.062726 -0.056006,0.083945 -0.013138,0.021222 -0.026681,0.045839 -0.040627,0.074008 -0.013974,0.028145 -0.023876,0.056098 -0.029623,0.083848 -0.00591,0.027342 -0.00847,0.056752 -0.00847,0.088159 0,0.036723 0.00632,0.071846 0.019043,0.1052942 0.012722,0.033463 0.031072,0.063263 0.054887,0.089366 0.023824,0.025697 0.054222,0.04621 0.091184,0.061723 0.036963,0.015501 0.077943,0.023352 0.1231282,0.023352 0.086238,0 0.1558729,-0.026602 0.2088499,-0.079636 0.053385,-0.053448 0.080047,-0.1194603 0.080047,-0.1982061 0,-0.077102 -0.02667,-0.1408318 -0.080047,-0.1910176 -0.052975,-0.05018 -0.116195,-0.075217 -0.1897017,-0.075217 -0.045594,0 -0.088151,0.01125 -0.1275806,0.034183 0.025046,-0.033463 0.046622,-0.063397 0.064685,-0.089931 l 0.2094253,-0.306059 z m 8.7088877,0.00628 -0.402222,0.5801278 v 0.08816 H 10.6784 V 6.702729 h 0.09736 V 6.4775096 h 0.102835 l 0.0069,-0.078309 H 10.775534 V 5.8092202 Z m 0.0066,0.1260899 v 0.4638515 h -0.307222 z m -8.7635932,0.308335 c 0.058717,0 0.1047733,0.017562 0.1380445,0.052643 0.033681,0.034678 0.050423,0.079792 0.050423,0.1352714 0,0.055085 -0.017012,0.101785 -0.051095,0.1401383 -0.034083,0.037939 -0.081096,0.056954 -0.1410513,0.056954 -0.059545,0 -0.1057497,-0.018619 -0.1386019,-0.055754 -0.032863,-0.037125 -0.049314,-0.083043 -0.049314,-0.137704 0,-0.027742 0.00402,-0.052775 0.012351,-0.075217 0.00817,-0.022434 0.018909,-0.040663 0.032059,-0.054527 0.013139,-0.014289 0.028142,-0.026123 0.044967,-0.035509 0.017259,-0.00987 0.034265,-0.01646 0.051095,-0.020132 0.01726,-0.004 0.034269,-0.00627 0.051095,-0.00627 z m 4.3037248,3.8571554 c -0.082135,0 -0.1599424,0.0222 -0.2334521,0.06678 l 0.033177,0.07469 c 0.066542,-0.03803 0.1322734,-0.05688 0.1971599,-0.05688 0.047636,0 0.086218,0.01194 0.1157849,0.03605 0.029581,0.02412 0.044832,0.06086 0.045651,0.110154 v 0.0037 c 0,0.105263 -0.072723,0.15783 -0.2180898,0.15783 h -0.026504 v 0.08211 h 0.02594 c 0.029989,0 0.055969,0.0012 0.078159,0.0036 0.022582,0.0024 0.044552,0.0076 0.065912,0.01657 0.02136,0.0072 0.03888,0.01832 0.052443,0.03193 0.013542,0.01316 0.024394,0.03083 0.032614,0.05325 0.00817,0.02197 0.012351,0.0483 0.012351,0.07901 0,0.05539 -0.014848,0.09788 -0.044428,0.127307 -0.029581,0.0293 -0.070676,0.04397 -0.12324,0.04397 -0.065286,0 -0.140171,-0.02145 -0.2247675,-0.06435 v 0.09183 c 0.075975,0.03958 0.1519108,0.0594 0.2278863,0.0594 0.07842,0 0.1429718,-0.02216 0.1934856,-0.06678 0.050936,-0.04483 0.076919,-0.108711 0.078159,-0.191569 v -0.0036 c 0,-0.06087 -0.017156,-0.110418 -0.051659,-0.148763 -0.034083,-0.03843 -0.079475,-0.06348 -0.1361515,-0.07528 0.1092322,-0.02821 0.163873,-0.09616 0.163873,-0.203848 v -0.0031 c -4.099e-4,-0.04865 -0.01327,-0.08997 -0.038305,-0.124231 -0.024642,-0.03475 -0.056406,-0.06002 -0.0954,-0.07584 -0.038608,-0.01581 -0.082133,-0.02395 -0.1305858,-0.02395 z m -4.3092502,0.0061 c -0.046003,0 -0.09129,0.0067 -0.136042,0.02032 -0.044776,0.01314 -0.080914,0.02953 -0.1084235,0.0496 l 0.030156,0.07783 c 0.028332,-0.01831 0.060597,-0.03322 0.096748,-0.04461 0.036561,-0.01137 0.07205,-0.01718 0.1065413,-0.01718 0.015603,10e-7 0.030586,0.0012 0.044967,0.0037 0.014381,0.0021 0.029363,0.0073 0.044966,0.01523 0.015603,0.0071 0.028888,0.01696 0.039957,0.02876 0.011103,0.01142 0.020323,0.02717 0.02771,0.04707 0.00734,0.02009 0.011102,0.04304 0.011102,0.06909 0,0.02412 -0.00249,0.04621 -0.00734,0.06607 -0.00439,0.01953 -0.013192,0.03977 -0.025947,0.0607 -0.012723,0.02084 -0.023985,0.0375 -0.033838,0.05025 -0.00994,0.01269 -0.026071,0.03203 -0.048638,0.05799 l -0.2901182,0.340358 0.015925,0.08012 h 0.4811526 l 0.00571,-0.07334 H 1.7759879 L 2.0174552,10.65813 c 0.029157,-0.03376 0.05179,-0.06158 0.067797,-0.08321 0.01642,-0.02162 0.031425,-0.04473 0.044967,-0.0696 0.013975,-0.02528 0.023343,-0.05021 0.028275,-0.0747 0.00516,-0.02452 0.00791,-0.05228 0.00791,-0.08322 0,-0.03554 -0.00506,-0.06734 -0.015924,-0.09544 -0.010651,-0.02859 -0.024724,-0.05152 -0.04198,-0.0691 -0.017259,-0.01796 -0.037335,-0.03267 -0.060345,-0.04408 -0.022993,-0.01183 -0.046023,-0.02003 -0.069015,-0.02447 -0.022581,-0.0044 -0.046023,-0.0073 -0.070249,-0.0073 z"
     id="path4432" />
</svg>
