<?xml version="1.0" encoding="UTF-8" standalone="no"?>
<svg
   xmlns:dc="http://purl.org/dc/elements/1.1/"
   xmlns:cc="http://creativecommons.org/ns#"
   xmlns:rdf="http://www.w3.org/1999/02/22-rdf-syntax-ns#"
   xmlns:svg="http://www.w3.org/2000/svg"
   xmlns="http://www.w3.org/2000/svg"
   xmlns:xlink="http://www.w3.org/1999/xlink"
   xmlns:sodipodi="http://sodipodi.sourceforge.net/DTD/sodipodi-0.dtd"
   xmlns:inkscape="http://www.inkscape.org/namespaces/inkscape"
   width="47.285591"
   height="47.28569"
   version="1.1"
   viewBox="0 0 12.510734 12.51076"
   id="svg12"
   sodipodi:docname="fingerprint-gui.svg"
   inkscape:version="1.0.1 (3bc2e813f5, 2020-09-07)">
  <style
     id="style861"></style>
  <metadata
     id="metadata36">
    <rdf:RDF>
      <cc:Work
         rdf:about="">
        <dc:format>image/svg+xml</dc:format>
        <dc:type
           rdf:resource="http://purl.org/dc/dcmitype/StillImage" />
      </cc:Work>
    </rdf:RDF>
  </metadata>
  <defs
     id="defs16">
    <linearGradient
       id="c"
       y1="523.79999"
       x1="403.57001"
       y2="536.79999"
       x2="416.57001"
       gradientUnits="userSpaceOnUse"
       gradientTransform="matrix(0.34526714,0,0,0.34526706,-134.80427,-174.63325)">
      <stop
         stop-color="#292c2f"
         id="stop1568" />
      <stop
         offset="1"
         stop-opacity="0"
         id="stop1570" />
    </linearGradient>
    <linearGradient
       xlink:href="#b-2"
       id="linearGradient4189"
       x1="14.369"
       y1="22.521999"
       x2="26.521999"
       y2="22.521999"
       gradientUnits="userSpaceOnUse" />
    <linearGradient
       x1="36"
       gradientUnits="userSpaceOnUse"
       x2="14"
       y2="12"
       y1="44"
       id="b-2">
      <stop
         style="stop-color:#bfc9c9;stop-opacity:1"
         stop-color="#536161"
         id="stop1579" />
      <stop
         style="stop-color:#fbfbfb;stop-opacity:1"
         stop-color="#f4f5f5"
         offset="1"
         id="stop1581" />
    </linearGradient>
    <linearGradient
       xlink:href="#b-2"
       id="linearGradient4428"
       gradientUnits="userSpaceOnUse"
       x1="31.586"
       y1="36.345001"
       x2="1.2029999"
       y2="6.723" />
    <linearGradient
       xlink:href="#b-2"
       id="linearGradient4189-3"
       x1="14.369"
       y1="22.521999"
       x2="26.521999"
       y2="22.521999"
       gradientUnits="userSpaceOnUse"
       gradientTransform="translate(20.841982,61.553822)" />
    <linearGradient
       xlink:href="#b-2"
       id="linearGradient4428-5"
       gradientUnits="userSpaceOnUse"
       x1="31.586"
       y1="36.345001"
       x2="1.2029999"
       y2="6.723"
       gradientTransform="translate(20.841982,61.553822)" />
    <linearGradient
       xlink:href="#b-2"
       id="linearGradient4189-3-3"
       x1="14.369"
       y1="22.521999"
       x2="26.521999"
       y2="22.521999"
       gradientUnits="userSpaceOnUse"
       gradientTransform="translate(4.376802,4.4211693)" />
    <linearGradient
       xlink:href="#b-2"
       id="linearGradient4428-5-5"
       gradientUnits="userSpaceOnUse"
       x1="31.586"
       y1="36.345001"
       x2="1.2029999"
       y2="6.723"
       gradientTransform="translate(4.376802,4.4211693)" />
    <linearGradient
       inkscape:collect="always"
       xlink:href="#linearGradient14"
       id="linearGradient15"
       x1="-9.6850061"
       y1="45.161198"
       x2="11.98815"
       y2="21.735205"
       gradientUnits="userSpaceOnUse"
       gradientTransform="scale(0.26457813)" />
    <linearGradient
       id="linearGradient14"
       inkscape:collect="always">
      <stop
         style="stop-color:#9955ff;stop-opacity:0.45197046;"
         offset="0"
         id="stop12" />
      <stop
         style="stop-color:#00ccff;stop-opacity:1"
         offset="1"
         id="stop13" />
    </linearGradient>
    <filter
       id="filter2917-3"
       x="-0.96181148"
       y="-0.66745996"
       width="2.9236228"
       height="2.3349199"
       color-interpolation-filters="sRGB">
      <feGaussianBlur
         stdDeviation="0.2871969"
         id="feGaussianBlur732-5" />
    </filter>
    <filter
       id="filter1"
       x="-0.96181148"
       y="-0.66745996"
       width="2.9236228"
       height="2.3349199"
       color-interpolation-filters="sRGB">
      <feGaussianBlur
         stdDeviation="0.2871969"
         id="feGaussianBlur1" />
    </filter>
    <filter
       id="filter2"
       x="-0.96181148"
       y="-0.66745996"
       width="2.9236228"
       height="2.3349199"
       color-interpolation-filters="sRGB">
      <feGaussianBlur
         stdDeviation="0.2871969"
         id="feGaussianBlur2" />
    </filter>
    <linearGradient
       inkscape:collect="always"
       xlink:href="#linearGradient14"
       id="linearGradient869"
       x1="-12.025727"
       y1="6.1170783"
       x2="-0.085100174"
       y2="6.1170783"
       gradientUnits="userSpaceOnUse" />
  </defs>
  <sodipodi:namedview
     id="namedview14"
     pagecolor="#000000"
     bordercolor="#666666"
     borderopacity="1.0"
     inkscape:showpageshadow="2"
     inkscape:pageopacity="0.0"
     inkscape:pagecheckerboard="0"
     inkscape:deskcolor="#d1d1d1"
     showgrid="false"
     inkscape:zoom="6.2611141"
     inkscape:cx="23.845543"
     inkscape:cy="54.335026"
     inkscape:window-width="1920"
     inkscape:window-height="988"
     inkscape:window-x="0"
     inkscape:window-y="0"
     inkscape:window-maximized="1"
     inkscape:current-layer="svg12"
     inkscape:document-rotation="0">
    <inkscape:grid
       type="xygrid"
       id="grid244"
       originx="9.9594769"
       originy="-31.57929"
       spacingy="1"
       spacingx="1"
       units="px"
       visible="false" />
  </sodipodi:namedview>
  <rect
     x="-12.194976"
     y="0.32004508"
     width="11.940627"
     height="11.936014"
     rx="1.6121091"
     shape-rendering="crispEdges"
     id="rect5-6-7-3"
     ry="1.7735944"
     transform="matrix(0.00523883,-0.99998628,0.999988,0.00489859,0,0)"
     style="fill:#80b3ff;fill-opacity:0.15;stroke:url(#linearGradient869);stroke-width:0.5291563;stroke-miterlimit:4;stroke-dasharray:none;stroke-opacity:1" />
  <rect
     x="-3.7202365"
     y="4.8851409"
     width="7.912631"
     height="7.912384"
     rx="1.612043"
     shape-rendering="crispEdges"
     id="rect5-6-6-6-6"
     style="fill:#80b3ff;fill-opacity:0.122146;stroke:url(#linearGradient15);stroke-width:0.39686725;stroke-opacity:1;stroke-miterlimit:4;stroke-dasharray:none"
     ry="1.7735215"
     transform="matrix(0.72612649,-0.68756114,0.6879775,0.72573202,0,0)" />
  <path
     style="fill:#afdde9;fill-opacity:1;fill-rule:nonzero;stroke:none;stroke-width:11.8163;stroke-miterlimit:4;stroke-dasharray:none;stroke-opacity:1"
     d="M 6.2400429,2.8159208 C 5.5590987,2.8128269 4.9752595,2.9391963 4.4443237,3.2050396 4.2675731,3.293539 4.2400598,3.3245759 4.2515017,3.4201182 c 0.023366,0.194994 0.1240464,0.2139237 0.4222314,0.0801 C 5.2280767,3.251437 5.4977977,3.198384 6.1970288,3.1976236 6.9995237,3.1969729 7.295056,3.2657036 7.9531945,3.6065206 8.0662701,3.6649946 8.4242526,3.9413413 8.5578655,3.7929225 8.690195,3.6605947 8.6202775,3.5510718 8.2795092,3.3573254 7.6074706,2.9752333 7.0202844,2.8196168 6.2400429,2.8159208 Z M 6.2192772,3.6040474 C 5.3208236,3.6033723 4.4229276,3.9583485 3.7645014,4.6695518 3.5097915,4.944683 3.2127335,5.3956278 3.2127335,5.5071227 c 0,0.1300029 0.053607,0.2017298 0.1507966,0.2017298 0.076186,0 0.1537065,-0.082198 0.3381805,-0.359454 0.4125775,-0.6200808 0.9474372,-1.0314466 1.6365173,-1.2588283 0.5344086,-0.1744303 1.1602124,-0.1542366 1.7616043,0 0.7765053,0.2552442 1.4426598,0.8238651 1.8075851,1.5431276 0.079411,0.1565051 0.1269084,0.2042015 0.2046882,0.2042015 0.1339547,0 0.2126038,-0.099689 0.1760126,-0.2234846 C 9.229116,5.4147403 8.9143506,4.9309286 8.6760307,4.6735074 8.0166884,3.961302 7.1177315,3.604727 6.2192772,3.6040474 Z m 0.042519,0.782689 C 6.0702999,4.3833564 5.8760002,4.4015264 5.6818467,4.4421124 4.7592467,4.6349729 3.9881124,5.3821868 3.741264,6.3224441 3.6102657,6.8214104 3.670486,7.6364258 3.8866221,8.2883127 3.9512171,8.4831266 3.9824011,8.5237571 4.0749947,8.5345407 4.2878788,8.5592813 4.3086818,8.4579601 4.1812944,8.0173633 3.8167837,6.7566403 4.1305989,5.6840526 5.0346565,5.0992157 5.9284796,4.5209972 7.1577658,4.6921198 7.8572779,5.4917957 8.2956221,5.9929111 8.5360559,6.8405397 8.3447724,7.2104473 8.2184118,7.4548183 7.9107472,7.6016864 7.6580279,7.5382573 7.473347,7.4919053 7.2544257,7.2649333 7.226403,7.0907945 7.1275084,6.476278 6.9879215,6.2357894 6.6345872,6.0712714 6.3331823,5.9309283 6.0819516,5.934802 5.7861691,6.0846213 5.510567,6.2242241 5.2994097,6.5059863 5.2566498,6.7911675 c -0.015429,0.1027662 -0.00866,0.3251565 0.015325,0.4939398 0.1491051,1.0513547 0.9012821,1.8830654 1.9341557,2.1389191 0.129897,0.032166 0.3422706,0.054886 0.4721672,0.050427 l 0.2363309,-0.00794 c 0.1334938,-0.067767 0.1407996,-0.2237313 0,-0.3006157 L 7.5804044,9.1150052 C 7.1597398,9.0509011 6.9855388,8.9954711 6.6963887,8.8326846 6.0675915,8.478687 5.6170782,7.7112962 5.6170782,6.9943804 c 0,-0.3159366 0.1196165,-0.5004845 0.3984995,-0.616065 0.2015106,-0.083518 0.2044054,-0.083518 0.4059154,0 0.2550247,0.1056951 0.3777844,0.2825822 0.4093767,0.5888709 0.058018,0.5621144 0.4480755,0.9320078 0.982899,0.9320078 0.4292209,0 0.790508,-0.2785448 0.9186251,-0.7080296 C 8.8577874,6.7708448 8.6894522,6.0648708 8.3358724,5.5278894 7.8672781,4.8162403 7.0916171,4.4011531 6.2617962,4.3867364 Z M 6.234109,5.2010689 C 5.9668535,5.2044417 5.6920156,5.2537663 5.4667752,5.341488 5.1194785,5.5115845 4.7885456,5.8512808 4.617369,6.2126804 4.4871152,6.4876666 4.4793457,6.5304922 4.4794269,6.9973466 4.4795232,7.5717155 4.5490285,7.8768374 4.7963476,8.3926382 5.0094565,8.8370867 5.3047101,9.2247191 5.6328994,9.4902812 5.9173672,9.7204669 5.9475869,9.731637 6.0660088,9.6450385 6.1872432,9.5563937 6.1196242,9.4041641 5.8746698,9.2163648 5.6090766,9.0127408 5.3222157,8.6444169 5.1285957,8.2581525 4.810562,7.6237056 4.730439,6.8395819 4.937751,6.3906765 5.0882106,6.0648773 5.3176371,5.821852 5.610157,5.6781974 c 0.3514507,-0.172598 0.8648125,-0.172598 1.2162633,0 0.41948,0.2060029 0.6876951,0.5811066 0.7826608,1.0956646 0.056683,0.3071467 0.1424901,0.4092408 0.2734122,0.3248431 0.060666,-0.039111 0.073875,-0.1042718 0.068231,-0.3381919 C 7.9370063,6.1918766 7.5386155,5.6209528 6.9564519,5.3350601 6.7610268,5.2399673 6.5013658,5.1976882 6.234109,5.2010689 Z"
     id="path20-9" />
  <path
     style="fill:#afdde9;fill-opacity:1;fill-rule:nonzero;stroke:none;stroke-width:11.8163;stroke-miterlimit:4;stroke-dasharray:none;stroke-opacity:1"
     d="M 7.4207459,8.6561911 C 6.6869864,8.4961246 6.1214241,7.8496195 6.0579257,7.0983289 6.0378524,6.8608811 6.0448128,6.8295007 6.1270207,6.7854912 c 0.1566134,-0.083818 0.2471289,0.00416 0.2784549,0.2707006 0.078767,0.6701922 0.5712588,1.1756492 1.2337971,1.2662595 0.3241519,0.044333 0.4284031,0.1687902 0.2722203,0.3249789 -0.078196,0.0782 -0.1652987,0.079751 -0.490747,0.00877 z"
     id="path22-1" />
</svg>
