<?xml version="1.0" encoding="UTF-8" standalone="no"?>
<svg
   width="47.285591"
   height="47.28569"
   version="1.1"
   id="svg63"
   sodipodi:docname="fooyin.svg"
   inkscape:version="1.4 (e7c3feb100, 2024-10-09)"
   xmlns:inkscape="http://www.inkscape.org/namespaces/inkscape"
   xmlns:sodipodi="http://sodipodi.sourceforge.net/DTD/sodipodi-0.dtd"
   xmlns:xlink="http://www.w3.org/1999/xlink"
   xmlns="http://www.w3.org/2000/svg"
   xmlns:svg="http://www.w3.org/2000/svg"
   xmlns:rdf="http://www.w3.org/1999/02/22-rdf-syntax-ns#"
   xmlns:cc="http://creativecommons.org/ns#"
   xmlns:dc="http://purl.org/dc/elements/1.1/">
  <style
     id="style1006" />
  <metadata
     id="metadata181">
    <rdf:RDF>
      <cc:Work
         rdf:about="">
        <dc:format>image/svg+xml</dc:format>
        <dc:type
           rdf:resource="http://purl.org/dc/dcmitype/StillImage" />
      </cc:Work>
    </rdf:RDF>
  </metadata>
  <sodipodi:namedview
     id="namedview65"
     pagecolor="#000000"
     bordercolor="#666666"
     borderopacity="1.0"
     inkscape:showpageshadow="2"
     inkscape:pageopacity="0.0"
     inkscape:pagecheckerboard="0"
     inkscape:deskcolor="#d1d1d1"
     showgrid="true"
     inkscape:zoom="9.6367877"
     inkscape:cx="19.975536"
     inkscape:cy="24.697026"
     inkscape:window-width="1920"
     inkscape:window-height="994"
     inkscape:window-x="0"
     inkscape:window-y="0"
     inkscape:window-maximized="1"
     inkscape:current-layer="svg63"
     inkscape:document-rotation="0">
    <inkscape:grid
       type="xygrid"
       id="grid468"
       originx="30.400758"
       originy="-11.147109"
       spacingy="1"
       spacingx="1"
       units="px"
       visible="false" />
  </sodipodi:namedview>
  <defs
     id="defs27">
    <linearGradient
       id="linearGradient1044"
       inkscape:collect="always">
      <stop
         style="stop-color:#5599ff;stop-opacity:1"
         offset="0"
         id="stop1040" />
      <stop
         style="stop-color:#80b3ff;stop-opacity:0.47186148"
         offset="1"
         id="stop1042" />
    </linearGradient>
    <linearGradient
       id="a"
       y1="543.79999"
       y2="503.79999"
       x2="0"
       gradientUnits="userSpaceOnUse"
       gradientTransform="matrix(1.125,0,0,1,-51.07,0)">
      <stop
         stop-color="#c6cdd1"
         id="stop2" />
      <stop
         offset="1"
         stop-color="#e0e5e7"
         id="stop4" />
    </linearGradient>
    <linearGradient
       id="b"
       y1="543.79999"
       y2="503.79999"
       x2="0"
       gradientUnits="userSpaceOnUse"
       gradientTransform="matrix(1.0413094,0,0,1.0631247,-447.50457,-582.08122)">
      <stop
         stop-color="#1d1e1e"
         id="stop7" />
      <stop
         offset="1"
         stop-color="#44484c"
         id="stop9" />
    </linearGradient>
    <linearGradient
       xlink:href="#a"
       id="c"
       y1="506.79999"
       y2="504.79999"
       x2="0"
       gradientUnits="userSpaceOnUse"
       gradientTransform="matrix(1.0284537,0,0,1.0499997,-442.30191,-575.2578)" />
    <linearGradient
       xlink:href="#a"
       id="d"
       y1="508.79999"
       y2="506.79999"
       gradientUnits="userSpaceOnUse"
       x2="0"
       gradientTransform="matrix(1.0284537,0,0,1.0499997,-442.30191,-575.2578)" />
    <linearGradient
       xlink:href="#a"
       id="e"
       y1="510.79999"
       y2="508.79999"
       gradientUnits="userSpaceOnUse"
       x2="0"
       gradientTransform="matrix(1.0284537,0,0,1.0499997,-442.30191,-575.2578)" />
    <linearGradient
       xlink:href="#a"
       id="f"
       y1="512.79999"
       y2="510.79999"
       gradientUnits="userSpaceOnUse"
       x2="0"
       gradientTransform="matrix(1.0284537,0,0,1.0499997,-442.30191,-575.2578)" />
    <linearGradient
       xlink:href="#a"
       id="g"
       y1="514.79999"
       y2="512.79999"
       gradientUnits="userSpaceOnUse"
       x2="0"
       gradientTransform="matrix(1.0284537,0,0,1.0499997,-442.30191,-575.2578)" />
    <linearGradient
       xlink:href="#a"
       id="h"
       y1="516.79999"
       y2="514.79999"
       gradientUnits="userSpaceOnUse"
       x2="0"
       gradientTransform="matrix(1.0284537,0,0,1.0499997,-442.30191,-575.2578)" />
    <linearGradient
       xlink:href="#a"
       id="i"
       y1="518.79999"
       y2="516.79999"
       gradientUnits="userSpaceOnUse"
       x2="0"
       gradientTransform="matrix(1.0284537,0,0,1.0499997,-442.30191,-575.2578)" />
    <linearGradient
       xlink:href="#a"
       id="j"
       y1="520.79999"
       y2="518.79999"
       gradientUnits="userSpaceOnUse"
       x2="0"
       gradientTransform="matrix(1.0284537,0,0,1.0499997,-442.30191,-575.2578)" />
    <linearGradient
       xlink:href="#a"
       id="k"
       y1="523.79999"
       y2="520.79999"
       gradientUnits="userSpaceOnUse"
       x2="0"
       gradientTransform="matrix(1.0284537,0,0,1.0499997,-442.30191,-575.2578)" />
    <linearGradient
       xlink:href="#a"
       id="l"
       y1="33"
       y2="25"
       x2="0"
       gradientUnits="userSpaceOnUse"
       gradientTransform="matrix(1.0284537,0,0,1.0499997,-46.789476,-50.467946)" />
    <linearGradient
       id="m"
       y1="7"
       x1="10"
       y2="32"
       x2="35"
       gradientUnits="userSpaceOnUse"
       gradientTransform="matrix(1.0284537,0,0,1.0499997,-46.789476,-50.467946)">
      <stop
         stop-color="#383e51"
         id="stop22" />
      <stop
         offset="1"
         stop-color="#655c6f"
         stop-opacity="0"
         id="stop24" />
    </linearGradient>
    <linearGradient
       id="b-3"
       y1="543.79999"
       y2="503.79999"
       x2="0"
       gradientUnits="userSpaceOnUse"
       gradientTransform="matrix(1.0413094,0,0,1.0631247,-345.52626,-498.95277)">
      <stop
         stop-color="#1d1e1e"
         id="stop7-6" />
      <stop
         offset="1"
         stop-color="#44484c"
         id="stop9-7" />
    </linearGradient>
    <linearGradient
       xlink:href="#a-6"
       id="c-5"
       y1="506.79999"
       y2="504.79999"
       x2="0"
       gradientUnits="userSpaceOnUse"
       gradientTransform="matrix(1.0284537,0,0,1.0499997,-340.3236,-492.12935)" />
    <linearGradient
       id="a-6"
       y1="543.79999"
       y2="503.79999"
       x2="0"
       gradientUnits="userSpaceOnUse"
       gradientTransform="matrix(1.125,0,0,1,-51.07,0)">
      <stop
         stop-color="#c6cdd1"
         id="stop2-2" />
      <stop
         offset="1"
         stop-color="#e0e5e7"
         id="stop4-9" />
    </linearGradient>
    <linearGradient
       xlink:href="#a-6"
       id="d-1"
       y1="508.79999"
       y2="506.79999"
       gradientUnits="userSpaceOnUse"
       x2="0"
       gradientTransform="matrix(1.0284537,0,0,1.0499997,-340.3236,-492.12935)" />
    <linearGradient
       id="linearGradient991"
       y1="543.79999"
       y2="503.79999"
       x2="0"
       gradientUnits="userSpaceOnUse"
       gradientTransform="matrix(1.125,0,0,1,-51.07,0)">
      <stop
         stop-color="#c6cdd1"
         id="stop987" />
      <stop
         offset="1"
         stop-color="#e0e5e7"
         id="stop989" />
    </linearGradient>
    <linearGradient
       xlink:href="#a-6"
       id="e-2"
       y1="510.79999"
       y2="508.79999"
       gradientUnits="userSpaceOnUse"
       x2="0"
       gradientTransform="matrix(1.0284537,0,0,1.0499997,-340.3236,-492.12935)" />
    <linearGradient
       id="linearGradient998"
       y1="543.79999"
       y2="503.79999"
       x2="0"
       gradientUnits="userSpaceOnUse"
       gradientTransform="matrix(1.125,0,0,1,-51.07,0)">
      <stop
         stop-color="#c6cdd1"
         id="stop994" />
      <stop
         offset="1"
         stop-color="#e0e5e7"
         id="stop996" />
    </linearGradient>
    <linearGradient
       xlink:href="#a-6"
       id="f-7"
       y1="512.79999"
       y2="510.79999"
       gradientUnits="userSpaceOnUse"
       x2="0"
       gradientTransform="matrix(1.0284537,0,0,1.0499997,-340.3236,-492.12935)" />
    <linearGradient
       id="linearGradient1005"
       y1="543.79999"
       y2="503.79999"
       x2="0"
       gradientUnits="userSpaceOnUse"
       gradientTransform="matrix(1.125,0,0,1,-51.07,0)">
      <stop
         stop-color="#c6cdd1"
         id="stop1001" />
      <stop
         offset="1"
         stop-color="#e0e5e7"
         id="stop1003" />
    </linearGradient>
    <linearGradient
       xlink:href="#a-6"
       id="g-0"
       y1="514.79999"
       y2="512.79999"
       gradientUnits="userSpaceOnUse"
       x2="0"
       gradientTransform="matrix(1.0284537,0,0,1.0499997,-340.3236,-492.12935)" />
    <linearGradient
       id="linearGradient1012"
       y1="543.79999"
       y2="503.79999"
       x2="0"
       gradientUnits="userSpaceOnUse"
       gradientTransform="matrix(1.125,0,0,1,-51.07,0)">
      <stop
         stop-color="#c6cdd1"
         id="stop1008" />
      <stop
         offset="1"
         stop-color="#e0e5e7"
         id="stop1010" />
    </linearGradient>
    <linearGradient
       xlink:href="#a-6"
       id="h-9"
       y1="516.79999"
       y2="514.79999"
       gradientUnits="userSpaceOnUse"
       x2="0"
       gradientTransform="matrix(1.0284537,0,0,1.0499997,-340.3236,-492.12935)" />
    <linearGradient
       id="linearGradient1019"
       y1="543.79999"
       y2="503.79999"
       x2="0"
       gradientUnits="userSpaceOnUse"
       gradientTransform="matrix(1.125,0,0,1,-51.07,0)">
      <stop
         stop-color="#c6cdd1"
         id="stop1015" />
      <stop
         offset="1"
         stop-color="#e0e5e7"
         id="stop1017" />
    </linearGradient>
    <linearGradient
       xlink:href="#a-6"
       id="i-3"
       y1="518.79999"
       y2="516.79999"
       gradientUnits="userSpaceOnUse"
       x2="0"
       gradientTransform="matrix(1.0284537,0,0,1.0499997,-340.3236,-492.12935)" />
    <linearGradient
       id="linearGradient1026"
       y1="543.79999"
       y2="503.79999"
       x2="0"
       gradientUnits="userSpaceOnUse"
       gradientTransform="matrix(1.125,0,0,1,-51.07,0)">
      <stop
         stop-color="#c6cdd1"
         id="stop1022" />
      <stop
         offset="1"
         stop-color="#e0e5e7"
         id="stop1024" />
    </linearGradient>
    <linearGradient
       xlink:href="#a-6"
       id="j-6"
       y1="520.79999"
       y2="518.79999"
       gradientUnits="userSpaceOnUse"
       x2="0"
       gradientTransform="matrix(1.0284537,0,0,1.0499997,-340.3236,-492.12935)" />
    <linearGradient
       id="linearGradient1033"
       y1="543.79999"
       y2="503.79999"
       x2="0"
       gradientUnits="userSpaceOnUse"
       gradientTransform="matrix(1.125,0,0,1,-51.07,0)">
      <stop
         stop-color="#c6cdd1"
         id="stop1029" />
      <stop
         offset="1"
         stop-color="#e0e5e7"
         id="stop1031" />
    </linearGradient>
    <linearGradient
       xlink:href="#a-6"
       id="k-0"
       y1="523.79999"
       y2="520.79999"
       gradientUnits="userSpaceOnUse"
       x2="0"
       gradientTransform="matrix(1.0284537,0,0,1.0499997,-340.3236,-492.12935)" />
    <linearGradient
       id="linearGradient1040"
       y1="543.79999"
       y2="503.79999"
       x2="0"
       gradientUnits="userSpaceOnUse"
       gradientTransform="matrix(1.125,0,0,1,-51.07,0)">
      <stop
         stop-color="#c6cdd1"
         id="stop1036" />
      <stop
         offset="1"
         stop-color="#e0e5e7"
         id="stop1038" />
    </linearGradient>
    <linearGradient
       xlink:href="#a-6"
       id="l-6"
       y1="33"
       y2="25"
       x2="0"
       gradientUnits="userSpaceOnUse"
       gradientTransform="matrix(1.0284537,0,0,1.0499997,55.188836,32.660499)" />
    <linearGradient
       id="linearGradient1047"
       y1="543.79999"
       y2="503.79999"
       x2="0"
       gradientUnits="userSpaceOnUse"
       gradientTransform="matrix(1.125,0,0,1,-51.07,0)">
      <stop
         stop-color="#c6cdd1"
         id="stop1043" />
      <stop
         offset="1"
         stop-color="#e0e5e7"
         id="stop1045" />
    </linearGradient>
    <linearGradient
       xlink:href="#linearGradient4435"
       id="linearGradient4389-3-5"
       y1="524.79797"
       y2="515.79797"
       x2="0"
       gradientUnits="userSpaceOnUse"
       gradientTransform="matrix(1.3624978,0,0,1.3624978,-528.67725,-680.90488)" />
    <linearGradient
       id="linearGradient4435">
      <stop
         style="stop-color:#c61423"
         id="stop15" />
      <stop
         offset="1"
         style="stop-color:#dc2b41"
         id="stop17" />
    </linearGradient>
    <linearGradient
       id="b-3-7"
       y1="543.79999"
       y2="503.79999"
       x2="0"
       gradientUnits="userSpaceOnUse"
       gradientTransform="matrix(1.0413093,0,0,0.98916733,-397.39884,-489.9741)">
      <stop
         stop-color="#1d1e1e"
         id="stop7-6-5" />
      <stop
         offset="1"
         stop-color="#44484c"
         id="stop9-7-3" />
    </linearGradient>
    <linearGradient
       xlink:href="#a-6-9"
       id="c-5-2"
       y1="506.79999"
       y2="504.79999"
       x2="0"
       gradientUnits="userSpaceOnUse"
       gradientTransform="matrix(1.0284536,0,0,0.97695521,-392.19618,-483.62542)" />
    <linearGradient
       id="a-6-9"
       y1="543.79999"
       y2="503.79999"
       x2="0"
       gradientUnits="userSpaceOnUse"
       gradientTransform="matrix(1.125,0,0,1,-51.07,0)">
      <stop
         stop-color="#c6cdd1"
         id="stop2-2-1" />
      <stop
         offset="1"
         stop-color="#e0e5e7"
         id="stop4-9-2" />
    </linearGradient>
    <linearGradient
       xlink:href="#a-6-9"
       id="d-1-7"
       y1="508.79999"
       y2="506.79999"
       gradientUnits="userSpaceOnUse"
       x2="0"
       gradientTransform="matrix(1.0284536,0,0,0.97695521,-392.19618,-483.62542)" />
    <linearGradient
       id="linearGradient716"
       y1="543.79999"
       y2="503.79999"
       x2="0"
       gradientUnits="userSpaceOnUse"
       gradientTransform="matrix(1.125,0,0,1,-51.07,0)">
      <stop
         stop-color="#c6cdd1"
         id="stop712" />
      <stop
         offset="1"
         stop-color="#e0e5e7"
         id="stop714" />
    </linearGradient>
    <linearGradient
       xlink:href="#a-6-9"
       id="e-2-0"
       y1="510.79999"
       y2="508.79999"
       gradientUnits="userSpaceOnUse"
       x2="0"
       gradientTransform="matrix(1.0284536,0,0,0.97695521,-392.19618,-483.62542)" />
    <linearGradient
       id="linearGradient723"
       y1="543.79999"
       y2="503.79999"
       x2="0"
       gradientUnits="userSpaceOnUse"
       gradientTransform="matrix(1.125,0,0,1,-51.07,0)">
      <stop
         stop-color="#c6cdd1"
         id="stop719" />
      <stop
         offset="1"
         stop-color="#e0e5e7"
         id="stop721" />
    </linearGradient>
    <linearGradient
       xlink:href="#a-6-9"
       id="f-7-9"
       y1="512.79999"
       y2="510.79999"
       gradientUnits="userSpaceOnUse"
       x2="0"
       gradientTransform="matrix(1.0284536,0,0,0.97695521,-392.19618,-483.62542)" />
    <linearGradient
       id="linearGradient730"
       y1="543.79999"
       y2="503.79999"
       x2="0"
       gradientUnits="userSpaceOnUse"
       gradientTransform="matrix(1.125,0,0,1,-51.07,0)">
      <stop
         stop-color="#c6cdd1"
         id="stop726" />
      <stop
         offset="1"
         stop-color="#e0e5e7"
         id="stop728" />
    </linearGradient>
    <linearGradient
       xlink:href="#a-6-9"
       id="g-0-3"
       y1="514.79999"
       y2="512.79999"
       gradientUnits="userSpaceOnUse"
       x2="0"
       gradientTransform="matrix(1.0284536,0,0,0.97695521,-392.19618,-483.62542)" />
    <linearGradient
       id="linearGradient737"
       y1="543.79999"
       y2="503.79999"
       x2="0"
       gradientUnits="userSpaceOnUse"
       gradientTransform="matrix(1.125,0,0,1,-51.07,0)">
      <stop
         stop-color="#c6cdd1"
         id="stop733" />
      <stop
         offset="1"
         stop-color="#e0e5e7"
         id="stop735" />
    </linearGradient>
    <linearGradient
       xlink:href="#a-6-9"
       id="h-9-6"
       y1="516.79999"
       y2="514.79999"
       gradientUnits="userSpaceOnUse"
       x2="0"
       gradientTransform="matrix(1.0284536,0,0,0.97695521,-392.19618,-483.62542)" />
    <linearGradient
       id="linearGradient744"
       y1="543.79999"
       y2="503.79999"
       x2="0"
       gradientUnits="userSpaceOnUse"
       gradientTransform="matrix(1.125,0,0,1,-51.07,0)">
      <stop
         stop-color="#c6cdd1"
         id="stop740" />
      <stop
         offset="1"
         stop-color="#e0e5e7"
         id="stop742" />
    </linearGradient>
    <linearGradient
       xlink:href="#a-6-9"
       id="i-3-0"
       y1="518.79999"
       y2="516.79999"
       gradientUnits="userSpaceOnUse"
       x2="0"
       gradientTransform="matrix(1.0284536,0,0,0.97695521,-392.19618,-483.62542)" />
    <linearGradient
       id="linearGradient751"
       y1="543.79999"
       y2="503.79999"
       x2="0"
       gradientUnits="userSpaceOnUse"
       gradientTransform="matrix(1.125,0,0,1,-51.07,0)">
      <stop
         stop-color="#c6cdd1"
         id="stop747" />
      <stop
         offset="1"
         stop-color="#e0e5e7"
         id="stop749" />
    </linearGradient>
    <linearGradient
       xlink:href="#a-6-9"
       id="j-6-6"
       y1="520.79999"
       y2="518.79999"
       gradientUnits="userSpaceOnUse"
       x2="0"
       gradientTransform="matrix(1.0284536,0,0,0.97695521,-392.19618,-483.62542)" />
    <linearGradient
       id="linearGradient758"
       y1="543.79999"
       y2="503.79999"
       x2="0"
       gradientUnits="userSpaceOnUse"
       gradientTransform="matrix(1.125,0,0,1,-51.07,0)">
      <stop
         stop-color="#c6cdd1"
         id="stop754" />
      <stop
         offset="1"
         stop-color="#e0e5e7"
         id="stop756" />
    </linearGradient>
    <linearGradient
       xlink:href="#a-6-9"
       id="k-0-2"
       y1="523.79999"
       y2="520.79999"
       gradientUnits="userSpaceOnUse"
       x2="0"
       gradientTransform="matrix(1.0284536,0,0,0.97695521,-392.19618,-483.62542)" />
    <linearGradient
       id="linearGradient765"
       y1="543.79999"
       y2="503.79999"
       x2="0"
       gradientUnits="userSpaceOnUse"
       gradientTransform="matrix(1.125,0,0,1,-51.07,0)">
      <stop
         stop-color="#c6cdd1"
         id="stop761" />
      <stop
         offset="1"
         stop-color="#e0e5e7"
         id="stop763" />
    </linearGradient>
    <linearGradient
       xlink:href="#a-6-9"
       id="l-6-6"
       y1="33"
       y2="25"
       x2="0"
       gradientUnits="userSpaceOnUse"
       gradientTransform="matrix(1.0284536,0,0,0.97695521,3.3162253,4.6569547)" />
    <linearGradient
       id="linearGradient772"
       y1="543.79999"
       y2="503.79999"
       x2="0"
       gradientUnits="userSpaceOnUse"
       gradientTransform="matrix(1.125,0,0,1,-51.07,0)">
      <stop
         stop-color="#c6cdd1"
         id="stop768" />
      <stop
         offset="1"
         stop-color="#e0e5e7"
         id="stop770" />
    </linearGradient>
    <filter
       id="filter1305-3-7"
       x="-0.060002353"
       y="-0.060002353"
       width="1.1200047"
       height="1.1200047"
       color-interpolation-filters="sRGB">
      <feGaussianBlur
         stdDeviation="0.61852427"
         id="feGaussianBlur324-5" />
    </filter>
    <linearGradient
       id="b-3-7-6"
       y1="543.79999"
       y2="503.79999"
       x2="0"
       gradientUnits="userSpaceOnUse"
       gradientTransform="matrix(1.0413091,0,0,0.98916747,-397.39884,-489.97418)">
      <stop
         stop-color="#1d1e1e"
         id="stop7-6-5-7" />
      <stop
         offset="1"
         stop-color="#44484c"
         id="stop9-7-3-5" />
    </linearGradient>
    <linearGradient
       xlink:href="#a-6-9-5"
       id="c-5-2-3"
       y1="506.79999"
       y2="504.79999"
       x2="0"
       gradientUnits="userSpaceOnUse"
       gradientTransform="matrix(1.0284532,0,0,0.97695536,-392.19618,-483.62549)" />
    <linearGradient
       id="a-6-9-5"
       y1="543.79999"
       y2="503.79999"
       x2="0"
       gradientUnits="userSpaceOnUse"
       gradientTransform="matrix(1.125,0,0,1,-51.07,0)">
      <stop
         stop-color="#c6cdd1"
         id="stop2-2-1-6" />
      <stop
         offset="1"
         stop-color="#e0e5e7"
         id="stop4-9-2-2" />
    </linearGradient>
    <linearGradient
       xlink:href="#a-6-9-5"
       id="d-1-7-9"
       y1="508.79999"
       y2="506.79999"
       gradientUnits="userSpaceOnUse"
       x2="0"
       gradientTransform="matrix(1.0284532,0,0,0.97695536,-392.19618,-483.62549)" />
    <linearGradient
       id="linearGradient2"
       y1="543.79999"
       y2="503.79999"
       x2="0"
       gradientUnits="userSpaceOnUse"
       gradientTransform="matrix(1.125,0,0,1,-51.07,0)">
      <stop
         stop-color="#c6cdd1"
         id="stop1" />
      <stop
         offset="1"
         stop-color="#e0e5e7"
         id="stop2-1" />
    </linearGradient>
    <linearGradient
       xlink:href="#a-6-9-5"
       id="e-2-0-2"
       y1="510.79999"
       y2="508.79999"
       gradientUnits="userSpaceOnUse"
       x2="0"
       gradientTransform="matrix(1.0284532,0,0,0.97695536,-392.19618,-483.62549)" />
    <linearGradient
       id="linearGradient4"
       y1="543.79999"
       y2="503.79999"
       x2="0"
       gradientUnits="userSpaceOnUse"
       gradientTransform="matrix(1.125,0,0,1,-51.07,0)">
      <stop
         stop-color="#c6cdd1"
         id="stop3" />
      <stop
         offset="1"
         stop-color="#e0e5e7"
         id="stop4-7" />
    </linearGradient>
    <linearGradient
       xlink:href="#a-6-9-5"
       id="f-7-9-0"
       y1="512.79999"
       y2="510.79999"
       gradientUnits="userSpaceOnUse"
       x2="0"
       gradientTransform="matrix(1.0284532,0,0,0.97695536,-392.19618,-483.62549)" />
    <linearGradient
       id="linearGradient6"
       y1="543.79999"
       y2="503.79999"
       x2="0"
       gradientUnits="userSpaceOnUse"
       gradientTransform="matrix(1.125,0,0,1,-51.07,0)">
      <stop
         stop-color="#c6cdd1"
         id="stop5" />
      <stop
         offset="1"
         stop-color="#e0e5e7"
         id="stop6" />
    </linearGradient>
    <linearGradient
       xlink:href="#a-6-9-5"
       id="g-0-3-9"
       y1="514.79999"
       y2="512.79999"
       gradientUnits="userSpaceOnUse"
       x2="0"
       gradientTransform="matrix(1.0284532,0,0,0.97695536,-392.19618,-483.62549)" />
    <linearGradient
       id="linearGradient8"
       y1="543.79999"
       y2="503.79999"
       x2="0"
       gradientUnits="userSpaceOnUse"
       gradientTransform="matrix(1.125,0,0,1,-51.07,0)">
      <stop
         stop-color="#c6cdd1"
         id="stop7-3" />
      <stop
         offset="1"
         stop-color="#e0e5e7"
         id="stop8" />
    </linearGradient>
    <linearGradient
       xlink:href="#a-6-9-5"
       id="h-9-6-6"
       y1="516.79999"
       y2="514.79999"
       gradientUnits="userSpaceOnUse"
       x2="0"
       gradientTransform="matrix(1.0284532,0,0,0.97695536,-392.19618,-483.62549)" />
    <linearGradient
       id="linearGradient10"
       y1="543.79999"
       y2="503.79999"
       x2="0"
       gradientUnits="userSpaceOnUse"
       gradientTransform="matrix(1.125,0,0,1,-51.07,0)">
      <stop
         stop-color="#c6cdd1"
         id="stop9-0" />
      <stop
         offset="1"
         stop-color="#e0e5e7"
         id="stop10" />
    </linearGradient>
    <linearGradient
       xlink:href="#a-6-9-5"
       id="i-3-0-6"
       y1="518.79999"
       y2="516.79999"
       gradientUnits="userSpaceOnUse"
       x2="0"
       gradientTransform="matrix(1.0284532,0,0,0.97695536,-392.19618,-483.62549)" />
    <linearGradient
       id="linearGradient12"
       y1="543.79999"
       y2="503.79999"
       x2="0"
       gradientUnits="userSpaceOnUse"
       gradientTransform="matrix(1.125,0,0,1,-51.07,0)">
      <stop
         stop-color="#c6cdd1"
         id="stop11-2" />
      <stop
         offset="1"
         stop-color="#e0e5e7"
         id="stop12-6" />
    </linearGradient>
    <linearGradient
       xlink:href="#a-6-9-5"
       id="j-6-6-1"
       y1="520.79999"
       y2="518.79999"
       gradientUnits="userSpaceOnUse"
       x2="0"
       gradientTransform="matrix(1.0284532,0,0,0.97695536,-392.19618,-483.62549)" />
    <linearGradient
       id="linearGradient14-8"
       y1="543.79999"
       y2="503.79999"
       x2="0"
       gradientUnits="userSpaceOnUse"
       gradientTransform="matrix(1.125,0,0,1,-51.07,0)">
      <stop
         stop-color="#c6cdd1"
         id="stop13-7" />
      <stop
         offset="1"
         stop-color="#e0e5e7"
         id="stop14" />
    </linearGradient>
    <linearGradient
       xlink:href="#a-6-9-5"
       id="k-0-2-9"
       y1="523.79999"
       y2="520.79999"
       gradientUnits="userSpaceOnUse"
       x2="0"
       gradientTransform="matrix(1.0284532,0,0,0.97695536,-392.19618,-483.62549)" />
    <linearGradient
       id="linearGradient16"
       y1="543.79999"
       y2="503.79999"
       x2="0"
       gradientUnits="userSpaceOnUse"
       gradientTransform="matrix(1.125,0,0,1,-51.07,0)">
      <stop
         stop-color="#c6cdd1"
         id="stop15-2" />
      <stop
         offset="1"
         stop-color="#e0e5e7"
         id="stop16" />
    </linearGradient>
    <linearGradient
       xlink:href="#a-6-9-5"
       id="l-6-6-0"
       y1="33"
       y2="25"
       x2="0"
       gradientUnits="userSpaceOnUse"
       gradientTransform="matrix(1.0284532,0,0,0.97695536,3.3162253,4.6569548)" />
    <linearGradient
       id="linearGradient18"
       y1="543.79999"
       y2="503.79999"
       x2="0"
       gradientUnits="userSpaceOnUse"
       gradientTransform="matrix(1.125,0,0,1,-51.07,0)">
      <stop
         stop-color="#c6cdd1"
         id="stop17-2" />
      <stop
         offset="1"
         stop-color="#e0e5e7"
         id="stop18" />
    </linearGradient>
    <linearGradient
       inkscape:collect="always"
       xlink:href="#linearGradient1044"
       id="linearGradient1015"
       x1="1.271523"
       y1="25.394402"
       x2="-48.727879"
       y2="25.656343"
       gradientUnits="userSpaceOnUse" />
    <linearGradient
       inkscape:collect="always"
       xlink:href="#linearGradient1"
       id="linearGradient12-3"
       x1="12.202705"
       y1="20.794916"
       x2="-11.193524"
       y2="44.363842"
       gradientUnits="userSpaceOnUse" />
    <linearGradient
       id="linearGradient1"
       inkscape:collect="always">
      <stop
         style="stop-color:#5599ff;stop-opacity:1"
         offset="0"
         id="stop11" />
      <stop
         style="stop-color:#80b3ff;stop-opacity:0.35930738"
         offset="1"
         id="stop12-67" />
    </linearGradient>
    <filter
       id="filter1305-3-7-5"
       x="-0.060002353"
       y="-0.060002353"
       width="1.1200047"
       height="1.1200047"
       color-interpolation-filters="sRGB">
      <feGaussianBlur
         stdDeviation="0.61852427"
         id="feGaussianBlur324-5-3" />
    </filter>
    <filter
       id="filter1305-3-7-3"
       x="-0.060002353"
       y="-0.060002353"
       width="1.1200047"
       height="1.1200047"
       color-interpolation-filters="sRGB">
      <feGaussianBlur
         stdDeviation="0.61852427"
         id="feGaussianBlur324-5-6" />
    </filter>
    <linearGradient
       id="c-3"
       gradientUnits="userSpaceOnUse"
       x1="24.072048"
       x2="23.959682"
       y1="0.75082099"
       y2="46.056854">
      <stop
         offset="0"
         stop-color="#fff"
         id="stop3-3" />
      <stop
         offset="1"
         stop-color="#d9d9d9"
         id="stop4-6" />
    </linearGradient>
    <linearGradient
       id="b-6"
       gradientUnits="userSpaceOnUse"
       x1="29.203026"
       x2="34.121048"
       xlink:href="#a-7"
       y1="24.827356"
       y2="29.224836" />
    <linearGradient
       id="a-7">
      <stop
         offset="0"
         id="stop1-7" />
      <stop
         offset="1"
         stop-opacity="0"
         id="stop2-5" />
    </linearGradient>
    <linearGradient
       id="d-3"
       gradientUnits="userSpaceOnUse"
       x1="15.948756"
       x2="25.031786"
       xlink:href="#a-7"
       y1="23.618279"
       y2="33.69899" />
    <linearGradient
       id="e-9"
       gradientUnits="userSpaceOnUse"
       x1="21.990562"
       x2="29.320522"
       xlink:href="#a-7"
       y1="33.780373"
       y2="41.931858" />
  </defs>
  <rect
     x="-46.092155"
     y="1.2096434"
     width="45.130817"
     height="45.11338"
     rx="6.0931306"
     shape-rendering="crispEdges"
     id="rect5-6-7"
     ry="6.7034807"
     transform="matrix(0.00523884,-0.99998628,0.999988,0.00489858,0,0)"
     style="fill:#80b3ff;fill-opacity:0.15;stroke:url(#linearGradient1015);stroke-width:2;stroke-miterlimit:4;stroke-dasharray:none;stroke-opacity:1" />
  <rect
     x="-14.117451"
     y="18.489822"
     width="29.906599"
     height="29.905664"
     rx="6.0928807"
     shape-rendering="crispEdges"
     id="rect5-6-6-6-5"
     style="fill:#80b3ff;fill-opacity:0.122146;stroke:url(#linearGradient12-3);stroke-width:1.50000012;stroke-opacity:1;stroke-miterlimit:4;stroke-dasharray:none"
     ry="6.7032056"
     transform="matrix(0.72612648,-0.68756115,0.68797751,0.72573201,0,0)" />
  <g
     transform="matrix(0.73188971,0,0,0.73308742,6.0493754,6.1061399)"
     id="g10">
    <path
       d="m 24,0.83984375 c -1.596461,0 -2.064708,2.77792875 -2.871094,6.58398435 -0.642312,3.0316409 -1.081714,4.7696399 -1.472656,5.7871099 -0.110481,0.287539 -0.205699,0.485187 -0.285156,0.61914 -0.0637,0.107394 0.12334,0.216767 -0.527344,0.09961 C 18.300699,13.831909 17.684458,12.622826 17.917969,9.0742188 18.015337,7.5945435 18.22629,6.1194195 17.347656,5.4980469 16.805637,5.1147292 16.319155,5.2418211 15.966797,5.4101562 15.059459,5.8436261 13.861231,7.5344552 11.576172,10.714844 9.7555935,13.248759 8.7496038,14.508668 8.0546875,15.097656 7.5683354,15.509872 7.9425701,15.531174 6.2871094,14.777344 4.1730444,13.814685 3.5926172,13.553757 3.2265625,13.392578 c -4.8029627,-2.114817 -1.5609546,1.901572 1.4101562,5.320313 1.3753321,1.582539 2.3511431,3.139521 2.7617188,4.271484 0.1562306,0.43073 0.1863282,0.654943 0.1855469,0.806641 -0.7921216,0.05845 -2.1103693,0.117937 -2.1113282,1.367187 -7.423e-4,0.967204 1.3340267,1.838132 3.4746094,3.763672 2.7467374,2.470801 5.7994284,7.355572 6.2617184,9.337891 0.0098,0.04208 0.01879,0.08161 0.02539,0.117187 0.0016,0.0087 0.0025,0.01517 0.0039,0.02344 -1.732179,1.39934 -0.347284,4.084541 1.519531,4.996093 1.176621,0.574535 1.371118,0.984529 1.44336,1.226563 0.188555,0.631666 0.493532,1.431244 0.736328,1.830078 0.912447,1.498849 2.217421,0.462684 2.785156,-0.505859 0.115731,-0.197433 0.18885,-0.317651 0.263672,-0.439454 0.127552,0.04411 0.269757,0.09566 0.453125,0.16211 1.155741,0.418841 1.926771,0.433603 3.058594,0.02344 0.21999,-0.07973 0.370849,-0.13201 0.519531,-0.18164 0.01412,0.03685 0.02502,0.06516 0.04102,0.107422 0.983244,2.597848 3.093807,1.764562 3.683593,-0.78711 0.135708,-0.587116 0.214579,-0.809296 1.453125,-1.414062 1.978318,-0.965989 3.326294,-3.615734 1.564454,-5.019532 0.0015,-0.0089 0.0022,-0.01595 0.0039,-0.02539 0.0065,-0.03552 0.01563,-0.07321 0.02539,-0.115235 0.460183,-1.981825 3.516535,-6.864777 6.263672,-9.335937 2.140584,-1.925539 3.475353,-2.796469 3.47461,-3.763672 -9.6e-4,-1.249248 -1.319207,-1.30874 -2.111328,-1.367187 -7.82e-4,-0.151698 0.02932,-0.375911 0.185546,-0.806641 0.410576,-1.131963 1.386388,-2.688945 2.761719,-4.271484 2.971109,-3.41874 6.213113,-7.435127 1.410156,-5.320313 -0.366053,0.161179 -0.946484,0.422107 -3.060546,1.384766 -1.65546,0.75383 -1.281226,0.732529 -1.767579,0.320312 -0.694916,-0.588988 -1.700904,-1.848897 -3.521484,-4.382812 -2.285061,-3.1803887 -3.483288,-4.8712176 -4.390625,-5.3046878 -0.352358,-0.1683353 -0.83884,-0.295428 -1.380859,0.087891 -0.878634,0.6213739 -0.66768,2.0964968 -0.570313,3.5761719 0.233509,3.5486079 -0.382732,4.7576899 -0.925781,4.8554689 -0.650686,0.117157 -0.463641,0.0078 -0.527344,-0.09961 -0.07946,-0.133953 -0.174675,-0.331602 -0.285156,-0.61914 C 27.952808,12.193468 27.513403,10.455469 26.871094,7.4238281 26.064709,3.6177723 25.596461,0.83984375 24,0.83984375 Z"
       fill="#070707"
       transform="matrix(0.82372971,0,0,0.82372971,4.230489,4.204703)"
       id="path4" />
    <path
       d="m 19.888008,45.875886 c -0.164231,-0.269779 -0.443651,-0.97646 -0.620946,-1.570401 -0.1916,-0.641926 -0.628302,-1.229291 -2.02107,-1.909368 -1.392766,-0.680078 -2.342166,-2.556213 -1.102316,-3.275699 1.23985,-0.719486 -2.874226,-7.807363 -6.4520148,-11.025729 -3.57779,-3.218366 -3.860073,-3.044222 -1.892748,-3.206363 1.967326,-0.162141 0.528361,-3.625856 -2.321959,-6.905604 -2.850319,-3.27975 -3.058682,-3.728475 -2.699093,-3.570143 0.359588,0.158332 0.935388,0.416094 3.048532,1.378333 2.113143,0.96224 2.088479,1.929941 6.6549838,-4.425807 4.566505,-6.3557481 4.56786,-6.0609974 4.324559,-2.3636155 -0.243301,3.6973825 0.345689,5.7543115 1.84067,6.0234885 1.494981,0.269175 1.960551,0.229044 3.570754,-7.3709407 1.610204,-7.59998424 1.955083,-7.59998424 3.565283,0 1.610199,7.5999847 2.075774,7.6401157 3.570755,7.3709407 1.494982,-0.269177 2.083969,-2.326106 1.840669,-6.0234885 -0.243298,-3.6973819 -0.241946,-3.9921326 4.324563,2.3636155 4.566509,6.355748 4.541843,5.388047 6.654984,4.425807 2.113142,-0.962239 2.688937,-1.220001 3.048525,-1.378333 0.359589,-0.158332 0.151227,0.290393 -2.69909,3.570143 -2.850318,3.279748 -4.289282,6.743463 -2.321957,6.905604 1.967324,0.162141 1.685052,-0.012 -1.892738,3.206363 -3.577792,3.218366 -7.699788,10.301654 -6.452027,11.025729 1.24776,0.724076 0.383709,2.550092 -1.149065,3.298527 -1.532774,0.748433 -1.832466,1.228589 -2.048356,2.162599 -0.379709,1.64279 -1.072008,1.9285 -1.558482,0.64318 -0.423648,-1.119317 -0.459248,-1.129706 -1.981034,-0.578206 -0.896931,0.325042 -1.354272,0.320542 -2.301297,-0.02266 -1.367871,-0.495719 -1.306039,-0.518618 -2.056429,0.761515 -0.391973,0.668699 -0.670115,0.824862 -0.873656,0.490513 z"
       transform="matrix(0.82372971,0,0,0.82372971,4.230489,4.204703)"
       id="path5"
       style="fill:#ffffff;fill-opacity:1" />
    <path
       d="m 31.74951,22.608576 4.351929,4.549056 -1.867612,1.727822 -2.638312,3.8535 -4.843049,-4.737227 z"
       fill="url(#b)"
       opacity="0.08"
       id="path6-5"
       style="fill:url(#b-6)" />
    <path
       d="m 16.012936,25.992942 7.027721,6.995632 1.893314,-1.764953 -8.664315,-8.632224 z"
       fill="url(#d)"
       opacity="0.08"
       id="path7"
       style="fill:url(#d-3)" />
    <path
       d="m 19.208021,25.394473 c -3.100777,-3.416899 -3.353138,-3.449311 -3.353138,-1.283683 0,2.165626 -0.401393,1.816939 2.73478,3.108003 3.136173,1.291065 3.719134,1.59258 0.618358,-1.82432 z m 10.529613,1.635507 c 3.28636,-1.363323 2.278485,-0.763744 2.278485,-2.923288 0,-2.159543 -0.09614,-2.301347 -3.312782,1.243546 -3.216638,3.544895 -2.252062,3.043064 1.034297,1.679742 z"
       fill="#020202"
       stroke-width="6.285"
       id="path8-3" />
    <path
       d="m 19.68386,36.522786 4.613404,4.613405 3.972654,-1.255871 1.460911,-0.845791 -1.717211,-3.588204 -3.485684,-2.511742 z"
       fill="url(#e)"
       opacity="0.08"
       id="path9"
       style="fill:url(#e-9)" />
    <path
       d="m 23.941561,34.717459 c 0.9501,8.05e-4 1.857956,1.466997 3.441621,1.917136 1.583665,0.450139 1.128943,-0.953634 0.137085,-1.592039 -0.991857,-0.638405 -2.176954,-2.223626 -3.578706,-2.208844 -0.392366,0.0041 -0.764957,0.122669 -1.120783,0.308952 -1.062363,0.556171 -1.975282,1.716268 -2.818864,2.23891 -1.126126,0.697694 -0.144597,1.753073 1.034488,1.297556 1.179085,-0.455519 1.870444,-1.96255 2.905159,-1.961671 z"
       stroke-width="6.285"
       id="path10" />
  </g>
</svg>
