<?xml version="1.0" encoding="UTF-8" standalone="no"?>
<svg
   width="47.285591"
   height="47.28569"
   version="1.1"
   viewBox="0 0 12.510734 12.51076"
   id="svg12"
   sodipodi:docname="io.gitlab.adhami3310.Impression.svg"
   inkscape:version="1.4 (unknown)"
   xmlns:inkscape="http://www.inkscape.org/namespaces/inkscape"
   xmlns:sodipodi="http://sodipodi.sourceforge.net/DTD/sodipodi-0.dtd"
   xmlns:xlink="http://www.w3.org/1999/xlink"
   xmlns="http://www.w3.org/2000/svg"
   xmlns:svg="http://www.w3.org/2000/svg"
   xmlns:rdf="http://www.w3.org/1999/02/22-rdf-syntax-ns#"
   xmlns:cc="http://creativecommons.org/ns#"
   xmlns:dc="http://purl.org/dc/elements/1.1/">
  <style
     id="style873" />
  <metadata
     id="metadata48">
    <rdf:RDF>
      <cc:Work
         rdf:about="">
        <dc:format>image/svg+xml</dc:format>
        <dc:type
           rdf:resource="http://purl.org/dc/dcmitype/StillImage" />
      </cc:Work>
    </rdf:RDF>
  </metadata>
  <defs
     id="defs16">
    <linearGradient
       id="linearGradient8"
       inkscape:collect="always">
      <stop
         style="stop-color:#9955ff;stop-opacity:1;"
         offset="0"
         id="stop7" />
      <stop
         style="stop-color:#00ccff;stop-opacity:1"
         offset="1"
         id="stop8" />
    </linearGradient>
    <linearGradient
       id="c"
       y1="523.79999"
       x1="403.57001"
       y2="536.79999"
       x2="416.57001"
       gradientUnits="userSpaceOnUse"
       gradientTransform="matrix(0.34526714,0,0,0.34526706,-134.80427,-174.63325)">
      <stop
         stop-color="#292c2f"
         id="stop1568" />
      <stop
         offset="1"
         stop-opacity="0"
         id="stop1570" />
    </linearGradient>
    <linearGradient
       xlink:href="#b-2"
       id="linearGradient4189"
       x1="14.369"
       y1="22.521999"
       x2="26.521999"
       y2="22.521999"
       gradientUnits="userSpaceOnUse" />
    <linearGradient
       x1="36"
       gradientUnits="userSpaceOnUse"
       x2="14"
       y2="12"
       y1="44"
       id="b-2">
      <stop
         style="stop-color:#bfc9c9;stop-opacity:1"
         stop-color="#536161"
         id="stop1579" />
      <stop
         style="stop-color:#fbfbfb;stop-opacity:1"
         stop-color="#f4f5f5"
         offset="1"
         id="stop1581" />
    </linearGradient>
    <linearGradient
       xlink:href="#b-2"
       id="linearGradient4428"
       gradientUnits="userSpaceOnUse"
       x1="31.586"
       y1="36.345001"
       x2="1.2029999"
       y2="6.723" />
    <linearGradient
       xlink:href="#b-2"
       id="linearGradient4189-3"
       x1="14.369"
       y1="22.521999"
       x2="26.521999"
       y2="22.521999"
       gradientUnits="userSpaceOnUse"
       gradientTransform="translate(20.841982,61.553822)" />
    <linearGradient
       xlink:href="#b-2"
       id="linearGradient4428-5"
       gradientUnits="userSpaceOnUse"
       x1="31.586"
       y1="36.345001"
       x2="1.2029999"
       y2="6.723"
       gradientTransform="translate(20.841982,61.553822)" />
    <linearGradient
       xlink:href="#b-2"
       id="linearGradient4189-3-3"
       x1="14.369"
       y1="22.521999"
       x2="26.521999"
       y2="22.521999"
       gradientUnits="userSpaceOnUse"
       gradientTransform="translate(4.376802,4.4211693)" />
    <linearGradient
       xlink:href="#b-2"
       id="linearGradient4428-5-5"
       gradientUnits="userSpaceOnUse"
       x1="31.586"
       y1="36.345001"
       x2="1.2029999"
       y2="6.723"
       gradientTransform="translate(4.376802,4.4211693)" />
    <linearGradient
       inkscape:collect="always"
       xlink:href="#linearGradient14"
       id="linearGradient15"
       x1="-9.6850061"
       y1="45.161198"
       x2="11.98815"
       y2="21.735205"
       gradientUnits="userSpaceOnUse"
       gradientTransform="scale(0.26457813)" />
    <linearGradient
       id="linearGradient14"
       inkscape:collect="always">
      <stop
         style="stop-color:#9955ff;stop-opacity:0.45197046;"
         offset="0"
         id="stop12" />
      <stop
         style="stop-color:#00ccff;stop-opacity:1"
         offset="1"
         id="stop13" />
    </linearGradient>
    <filter
       id="filter2917-3"
       x="-0.96181148"
       y="-0.66745996"
       width="2.9236228"
       height="2.3349199"
       color-interpolation-filters="sRGB">
      <feGaussianBlur
         stdDeviation="0.2871969"
         id="feGaussianBlur732-5" />
    </filter>
    <filter
       id="filter1"
       x="-0.96181148"
       y="-0.66745996"
       width="2.9236228"
       height="2.3349199"
       color-interpolation-filters="sRGB">
      <feGaussianBlur
         stdDeviation="0.2871969"
         id="feGaussianBlur1" />
    </filter>
    <filter
       id="filter2"
       x="-0.96181148"
       y="-0.66745996"
       width="2.9236228"
       height="2.3349199"
       color-interpolation-filters="sRGB">
      <feGaussianBlur
         stdDeviation="0.2871969"
         id="feGaussianBlur2" />
    </filter>
    <linearGradient
       inkscape:collect="always"
       xlink:href="#linearGradient1"
       id="linearGradient10"
       x1="1.9990005"
       y1="32"
       x2="62.000999"
       y2="32"
       gradientUnits="userSpaceOnUse"
       gradientTransform="matrix(0.0573233,0,0,0.0573233,0.28227388,0.2822869)" />
    <linearGradient
       id="linearGradient1"
       inkscape:collect="always">
      <stop
         style="stop-color:#00aad4;stop-opacity:1"
         offset="0"
         id="stop9" />
      <stop
         style="stop-color:#00d4aa;stop-opacity:1"
         offset="1"
         id="stop10" />
    </linearGradient>
    <linearGradient
       id="linearGradient1034"
       x1="-54.827999"
       x2="-63.444"
       y1="-1.7294"
       y2="-11.074"
       gradientTransform="matrix(0.08075139,0,0,0.08075139,6.8859243,2.6454999)"
       gradientUnits="userSpaceOnUse">
      <stop
         stop-color="#d2d2d2"
         offset="0"
         id="stop3" />
      <stop
         stop-color="#fff"
         offset="1"
         id="stop4" />
    </linearGradient>
    <linearGradient
       id="linearGradient1044"
       x1="-54.827999"
       x2="-63.444"
       y1="-1.7294"
       y2="-11.074"
       gradientTransform="matrix(0.0308933,0,0,0.0308933,3.9412807,2.3189859)"
       gradientUnits="userSpaceOnUse">
      <stop
         stop-color="#232223"
         offset="0"
         id="stop5" />
      <stop
         stop-color="#49484d"
         offset="1"
         id="stop6" />
    </linearGradient>
    <linearGradient
       inkscape:collect="always"
       xlink:href="#linearGradient14"
       id="linearGradient881"
       x1="-12.025727"
       y1="6.1170783"
       x2="-0.085100174"
       y2="6.1170783"
       gradientUnits="userSpaceOnUse" />
    <linearGradient
       inkscape:collect="always"
       xlink:href="#linearGradient199209"
       id="linearGradient1208"
       gradientUnits="userSpaceOnUse"
       gradientTransform="matrix(0.23853774,-0.06391675,0.06391675,0.23853774,16.741799,4.8243778)"
       x1="-28.818001"
       y1="5.0549002"
       x2="-28.818001"
       y2="13.503" />
    <linearGradient
       id="linearGradient199209"
       x1="-28.818001"
       x2="-28.818001"
       y1="5.0549002"
       y2="13.503"
       gradientTransform="matrix(1.2602698,-0.33769223,0.33769223,1.2602698,141.19054,32.488018)"
       gradientUnits="userSpaceOnUse">
      <stop
         stop-color="#0079c7"
         offset="0"
         id="stop328" />
      <stop
         stop-color="#27acfe"
         offset="1"
         id="stop330" />
    </linearGradient>
    <linearGradient
       inkscape:collect="always"
       xlink:href="#linearGradient8"
       id="linearGradient7"
       x1="7.2758989"
       y1="10.036712"
       x2="11.3412"
       y2="10.036712"
       gradientUnits="userSpaceOnUse" />
  </defs>
  <sodipodi:namedview
     id="namedview14"
     pagecolor="#000000"
     bordercolor="#666666"
     borderopacity="1.0"
     inkscape:showpageshadow="2"
     inkscape:pageopacity="0.0"
     inkscape:pagecheckerboard="0"
     inkscape:deskcolor="#d1d1d1"
     showgrid="false"
     inkscape:zoom="6.2611141"
     inkscape:cx="23.797682"
     inkscape:cy="54.383293"
     inkscape:window-width="1920"
     inkscape:window-height="998"
     inkscape:window-x="0"
     inkscape:window-y="0"
     inkscape:window-maximized="1"
     inkscape:current-layer="svg12"
     inkscape:document-rotation="0">
    <inkscape:grid
       type="xygrid"
       id="grid244"
       originx="9.9594769"
       originy="-31.57929"
       spacingy="1"
       spacingx="1"
       units="px"
       visible="false" />
  </sodipodi:namedview>
  <rect
     x="-12.194976"
     y="0.32004508"
     width="11.940627"
     height="11.936014"
     rx="1.6121091"
     shape-rendering="crispEdges"
     id="rect5-6-7-3"
     ry="1.7735944"
     transform="matrix(0.00523883,-0.99998628,0.999988,0.00489859,0,0)"
     style="fill:#80b3ff;fill-opacity:0.15;stroke:url(#linearGradient881);stroke-width:0.5291563;stroke-miterlimit:4;stroke-dasharray:none;stroke-opacity:1" />
  <rect
     x="-3.7202365"
     y="4.8851409"
     width="7.912631"
     height="7.912384"
     rx="1.612043"
     shape-rendering="crispEdges"
     id="rect5-6-6-6-6"
     style="fill:#80b3ff;fill-opacity:0.122146;stroke:url(#linearGradient15);stroke-width:0.39686725;stroke-opacity:1;stroke-miterlimit:4;stroke-dasharray:none"
     ry="1.7735215"
     transform="matrix(0.72612649,-0.68756114,0.6879775,0.72573202,0,0)" />
  <circle
     cx="6.2553821"
     cy="6.2553811"
     r="3.4395158"
     stroke-width="0.0378944"
     id="circle8"
     style="fill:url(#linearGradient10)" />
  <path
     d="m 6.2553806,3.3763964 c -1.5904927,0 -2.8799244,1.289322 -2.8799244,2.879934 0,0.345099 0.060783,0.675889 0.1722085,0.982583 0.075925,0.209098 0.1752277,0.406904 0.2951343,0.59028 0.051593,0.07903 0.1069218,0.155524 0.1659201,0.228852 0.1900616,0.236701 0.4168321,0.442724 0.6715537,0.609515 0.092618,0.06064 0.1889536,0.116238 0.2886462,0.165977 0.3870586,0.193746 0.8240469,0.302535 1.2864506,0.302535 0.4624385,0 0.8993911,-0.108971 1.2864497,-0.302535 0.099666,-0.04955 0.1960105,-0.105144 0.2886457,-0.165977 0.2515466,-0.164583 0.4753961,-0.367278 0.6639325,-0.600109 0.05887,-0.07278 0.114557,-0.148388 0.16615,-0.226829 0.123197,-0.186508 0.225058,-0.388248 0.302535,-0.601455 0.111445,-0.306795 0.17221,-0.637797 0.17221,-0.983027 0,-0.345211 -0.06076,-0.676224 -0.17221,-0.983018 -0.06461,-0.177835 -0.149975,-0.345219 -0.246763,-0.504737 l -0.6881052,0.474057 -0.2978312,-0.431956 0.6668314,-0.459488 0.459056,-0.316191 c -0.05626,-0.06591 -0.100388,-0.141947 -0.161446,-0.203326 -0.0949,-0.09541 -0.205298,-0.173917 -0.310808,-0.257744 L 7.9101907,3.9002354 C 7.4419028,3.5707074 6.8715267,3.3764814 6.2553805,3.3764814 Z"
     stroke-width="0.0056248"
     id="path8"
     style="fill:#374a71;fill-opacity:1" />
  <path
     d="m 7.4303932,6.2553674 c 0,0.140834 -0.024788,0.275932 -0.070255,0.401113 -0.03161,0.08691 -0.073194,0.169222 -0.1234556,0.245334 -0.021063,0.03198 -0.043686,0.06275 -0.067709,0.09263 -0.076943,0.09511 -0.1683548,0.177705 -0.2709793,0.244899 -0.037789,0.02479 -0.077066,0.0473 -0.1177527,0.06764 -0.1579211,0.07896 -0.3362131,0.123478 -0.5248751,0.123478 -0.18869,0 -0.3669616,-0.04434 -0.5248745,-0.123478 -0.040671,-0.02034 -0.080003,-0.04288 -0.1177919,-0.06764 -0.1039426,-0.06796 -0.1964503,-0.152151 -0.2740062,-0.248688 -0.024082,-0.0299 -0.046649,-0.06099 -0.067709,-0.09349 -0.048908,-0.0749 -0.089443,-0.15565 -0.1204309,-0.240866 -0.045481,-0.125016 -0.070209,-0.260143 -0.070209,-0.400961 0,-0.64893 0.5260914,-1.175125 1.1751288,-1.175125 0.3257573,0 0.6205134,0.132573 0.833355,0.346662 0.06135,0.06167 0.1158774,0.130094 0.1622874,0.204211 0.04391,0.06984 0.080585,0.144472 0.109115,0.22307 0.045485,0.125063 0.070259,0.260232 0.070259,0.401105 z"
     fill="url(#linearGradient1034)"
     stroke-width="0.00229506"
     id="path9"
     style="fill:url(#linearGradient1034)" />
  <path
     d="m 6.7049099,6.2553674 c 0,0.0539 -0.00952,0.105669 -0.02688,0.153461 -0.01216,0.03337 -0.027999,0.06488 -0.047235,0.09373 -0.00793,0.01098 -0.016658,0.02395 -0.025913,0.03549 -0.029419,0.03637 -0.064408,0.06783 -0.1036813,0.09365 -0.014527,0.0089 -0.029482,0.01858 -0.045038,0.02594 -0.060414,0.0303 -0.1286383,0.04711 -0.2008159,0.04711 -0.072189,0 -0.140397,-0.01721 -0.2008148,-0.04711 -0.015575,-0.0078 -0.030604,-0.01665 -0.045061,-0.02595 -0.039771,-0.02602 -0.075146,-0.05813 -0.1048084,-0.09521 -0.00932,-0.01028 -0.017897,-0.02339 -0.025913,-0.03585 -0.018704,-0.02861 -0.034229,-0.05965 -0.046063,-0.0921 -0.017414,-0.04784 -0.026861,-0.09941 -0.026861,-0.1534 0,-0.24828 0.201275,-0.449534 0.4495305,-0.449534 0.1246275,0 0.2373988,0.05066 0.318832,0.132618 0.023459,0.0235 0.044341,0.04963 0.062097,0.07806 0.016722,0.02662 0.030832,0.05523 0.041755,0.08545 0.017414,0.04785 0.02688,0.09948 0.02688,0.153446 z"
     fill="url(#linearGradient1044)"
     stroke-width="0.000878081"
     id="path10"
     style="fill:url(#linearGradient1044)" />
  <path
     d="m 8.3457153,6.7202848 c -0.1778036,0 -0.3209455,0.14314 -0.3209455,0.320943 v 1.39076 h 2.5675592 v -1.39076 c 0,-0.177803 -0.143141,-0.320943 -0.320945,-0.320943 z"
     id="path1"
     style="fill:#f4d7ee;fill-opacity:1;stroke-width:0.189272" />
  <path
     d="m 7.5968443,8.4319878 c -0.1778041,0 -0.3209454,0.143148 -0.3209454,0.320947 v 0.855853 c 0,1.1260882 0.9065617,2.0326492 2.0326505,2.0326492 1.1260886,0 2.0326506,-0.906561 2.0326506,-2.0326492 v -0.855853 c 0,-0.177799 -0.143141,-0.320947 -0.320945,-0.320947 z"
     id="path2"
     style="fill:url(#linearGradient7);stroke-width:0.189272" />
  <path
     d="m 8.3457153,7.1482118 h 0.7488709 v 0.320946 H 8.3457153 Z m 1.1767974,0 h 0.7488713 v 0.320946 H 9.5225127 Z"
     opacity="0.35"
     id="path4"
     style="stroke-width:0.189272" />
  <path
     fill="#ffbb55"
     d="m 8.5596781,7.1482118 h 0.3209446 v 0.320946 H 8.5596781 Z m 1.1767979,0 h 0.320945 v 0.320946 H 9.736476 Z"
     id="path5"
     style="stroke-width:0.189272" />
  <path
     d="m 9.7274153,9.3914618 c -0.02129,-0.07945 -0.1027842,-0.126503 -0.1817951,-0.105333 -0.079007,0.0212 -0.1260609,0.102667 -0.1048907,0.181671 0.01448,0.05401 0.057057,0.09331 0.1078224,0.10602 0.00758,0.0054 0.015196,0.0175 0.017001,0.02414 l 5.68e-4,0.0019 c 0.017491,0.07953 0.021189,0.146932 0.018186,0.194624 -0.00414,0.06139 -0.1231439,0.2224492 -0.1794045,0.2499662 -0.024456,0.01226 -0.035976,0.0071 -0.047464,-0.03611 L 9.1894652,9.3816008 c -0.00191,-0.007 -0.0033,-0.01583 0.00251,-0.0246 0.03145,-0.03618 0.045171,-0.08674 0.031773,-0.136728 -0.021289,-0.07945 -0.102784,-0.126508 -0.1817931,-0.105333 -0.079008,0.02121 -0.126061,0.102667 -0.1047712,0.182117 0.013513,0.05046 0.051365,0.08815 0.09746,0.103057 l 5.678e-4,3.79e-4 c 5.678e-4,3.77e-4 9.3e-4,2.47e-4 0.00203,4.37e-4 9.3e-4,2.46e-4 0.00203,4.37e-4 0.00313,9.44e-4 0.012056,0.0042 0.018321,0.0094 0.019755,0.01479 l 0.2347882,0.8762392 c 0.00837,0.03122 0.0098,0.05622 -0.023377,0.06269 -0.033186,0.0067 -0.2142426,-0.05501 -0.2821769,-0.135368 -0.03145,-0.03701 -0.052835,-0.0758 -0.063841,-0.116854 l -7.795e-4,-0.0025 c -0.00371,-0.01384 -0.013512,-0.05046 -0.00198,-0.0645 0.027762,-0.03567 0.038955,-0.083151 0.026393,-0.1300252 -0.021289,-0.07945 -0.1027838,-0.126504 -0.181793,-0.105335 -0.07901,0.02121 -0.1276415,0.102136 -0.1063498,0.181589 0.014232,0.0531 0.055686,0.09176 0.1046634,0.1049512 0.012513,0.0041 0.016864,0.0093 0.02964,0.04276 0.012774,0.03341 0.042816,0.106217 0.088341,0.167215 0.054828,0.07431 0.1322807,0.120519 0.2312659,0.154276 0.071828,0.02523 0.1327861,0.04383 0.174858,0.07945 0.042074,0.0356 0.061675,0.04806 0.077819,0.108316 0.015294,0.0571 -0.0011,0.06728 -0.02022,0.09057 -0.052531,0.05571 -0.075947,0.136133 -0.05466,0.215578 l 0.00129,0.0051 c 0.032893,0.122751 0.159103,0.195614 0.2818499,0.162725 0.122745,-0.03289 0.1956122,-0.159099 0.1627219,-0.281849 -0.0159,-0.05936 -0.053589,-0.107157 -0.1021708,-0.136716 -0.01677,-0.01081 -0.033959,-0.0196 -0.052772,-0.02556 -0.039698,-0.01422 -0.059732,-0.03899 -0.06762,-0.06846 L 9.487197,10.49331 C 9.457174,10.381275 9.456344,10.304957 9.473001,10.242125 c 0.017392,-0.06542 0.054653,-0.122769 0.1171062,-0.194997 0.068848,-0.078721 0.1119127,-0.1572452 0.1227015,-0.2491162 0.0082,-0.0711 -0.00313,-0.147461 -0.022492,-0.237487 -0.0017,-0.0081 -7.795e-4,-0.02755 0.00655,-0.03428 0.03011,-0.03582 0.043503,-0.08582 0.030348,-0.134913 z"
     stroke="url(#linearGradient199209)"
     stroke-width="0.00415147"
     id="path398-5"
     style="fill:#f9f9f9;fill-opacity:1;stroke:url(#linearGradient1208)" />
</svg>
