<?xml version="1.0" encoding="UTF-8" standalone="no"?>
<svg
   width="47.285591"
   height="47.28569"
   version="1.1"
   viewBox="0 0 12.510734 12.51076"
   id="svg12"
   sodipodi:docname="clion.svg"
   inkscape:version="1.3.2 (091e20ef0f, 2023-11-25)"
   xmlns:inkscape="http://www.inkscape.org/namespaces/inkscape"
   xmlns:sodipodi="http://sodipodi.sourceforge.net/DTD/sodipodi-0.dtd"
   xmlns:xlink="http://www.w3.org/1999/xlink"
   xmlns="http://www.w3.org/2000/svg"
   xmlns:svg="http://www.w3.org/2000/svg"
   xmlns:rdf="http://www.w3.org/1999/02/22-rdf-syntax-ns#"
   xmlns:cc="http://creativecommons.org/ns#"
   xmlns:dc="http://purl.org/dc/elements/1.1/">
  <style
     id="style982" />
  <metadata
     id="metadata157">
    <rdf:RDF>
      <cc:Work
         rdf:about="">
        <dc:format>image/svg+xml</dc:format>
        <dc:type
           rdf:resource="http://purl.org/dc/dcmitype/StillImage" />
      </cc:Work>
    </rdf:RDF>
  </metadata>
  <defs
     id="defs16">
    <linearGradient
       id="c"
       y1="523.79999"
       x1="403.57001"
       y2="536.79999"
       x2="416.57001"
       gradientUnits="userSpaceOnUse"
       gradientTransform="matrix(0.34526714,0,0,0.34526706,-134.80427,-174.63325)">
      <stop
         stop-color="#292c2f"
         id="stop1568" />
      <stop
         offset="1"
         stop-opacity="0"
         id="stop1570" />
    </linearGradient>
    <linearGradient
       xlink:href="#b-2"
       id="linearGradient4189"
       x1="14.369"
       y1="22.521999"
       x2="26.521999"
       y2="22.521999"
       gradientUnits="userSpaceOnUse" />
    <linearGradient
       x1="36"
       gradientUnits="userSpaceOnUse"
       x2="14"
       y2="12"
       y1="44"
       id="b-2">
      <stop
         style="stop-color:#bfc9c9;stop-opacity:1"
         stop-color="#536161"
         id="stop1579" />
      <stop
         style="stop-color:#fbfbfb;stop-opacity:1"
         stop-color="#f4f5f5"
         offset="1"
         id="stop1581" />
    </linearGradient>
    <linearGradient
       xlink:href="#b-2"
       id="linearGradient4428"
       gradientUnits="userSpaceOnUse"
       x1="31.586"
       y1="36.345001"
       x2="1.2029999"
       y2="6.723" />
    <linearGradient
       xlink:href="#b-2"
       id="linearGradient4189-3"
       x1="14.369"
       y1="22.521999"
       x2="26.521999"
       y2="22.521999"
       gradientUnits="userSpaceOnUse"
       gradientTransform="translate(20.841982,61.553822)" />
    <linearGradient
       xlink:href="#b-2"
       id="linearGradient4428-5"
       gradientUnits="userSpaceOnUse"
       x1="31.586"
       y1="36.345001"
       x2="1.2029999"
       y2="6.723"
       gradientTransform="translate(20.841982,61.553822)" />
    <linearGradient
       xlink:href="#b-2"
       id="linearGradient4189-3-3"
       x1="14.369"
       y1="22.521999"
       x2="26.521999"
       y2="22.521999"
       gradientUnits="userSpaceOnUse"
       gradientTransform="translate(4.376802,4.4211693)" />
    <linearGradient
       xlink:href="#b-2"
       id="linearGradient4428-5-5"
       gradientUnits="userSpaceOnUse"
       x1="31.586"
       y1="36.345001"
       x2="1.2029999"
       y2="6.723"
       gradientTransform="translate(4.376802,4.4211693)" />
    <linearGradient
       id="linearGradient11"
       inkscape:collect="always">
      <stop
         style="stop-color:#37c8ab;stop-opacity:0.60000002;"
         offset="0"
         id="stop4-3" />
      <stop
         style="stop-color:#37c8ab;stop-opacity:1;"
         offset="1"
         id="stop11" />
    </linearGradient>
    <filter
       id="filter2917-3"
       x="-0.96181148"
       y="-0.66745996"
       width="2.9236228"
       height="2.3349199"
       color-interpolation-filters="sRGB">
      <feGaussianBlur
         stdDeviation="0.2871969"
         id="feGaussianBlur732-5" />
    </filter>
    <filter
       id="filter1"
       x="-0.96181148"
       y="-0.66745996"
       width="2.9236228"
       height="2.3349199"
       color-interpolation-filters="sRGB">
      <feGaussianBlur
         stdDeviation="0.2871969"
         id="feGaussianBlur1" />
    </filter>
    <filter
       id="filter2"
       x="-0.96181148"
       y="-0.66745996"
       width="2.9236228"
       height="2.3349199"
       color-interpolation-filters="sRGB">
      <feGaussianBlur
         stdDeviation="0.2871969"
         id="feGaussianBlur2" />
    </filter>
    <linearGradient
       inkscape:collect="always"
       xlink:href="#linearGradient11"
       id="linearGradient5"
       x1="-3.8211522"
       y1="8.6008863"
       x2="4.2804661"
       y2="8.6008863"
       gradientUnits="userSpaceOnUse" />
    <clipPath
       id="SVGID_6_"
       clip-path="url(#SVGID_5_)">
      <path
         id="use26"
         d="M 245.46,129.523 147.569,32.625 c -5.556,-5.502 -16.222,-11.873 -23.7,-14.16 L 84.351,6.382 C 76.872,4.096 66.255,6.773 60.752,12.33 L 47.311,25.908 c -5.5,5.559 -14.502,14.653 -20.005,20.21 l -13.44,13.579 c -5.5,5.558 -8.07,16.206 -5.706,23.658 l 12.483,39.391 c 2.363,7.456 8.843,18.056 14.399,23.556 l 97.89,96.898 c 5.558,5.502 14.605,5.455 20.105,-0.101 l 36.26,-36.63 c 5.504,-5.559 14.503,-14.651 20.005,-20.209 l 36.259,-36.629 c 5.502,-5.56 5.455,-14.606 -0.101,-20.108 z M 67.375,78.783 c -7.198,0 -13.033,-5.835 -13.033,-13.033 0,-7.197 5.835,-13.033 13.033,-13.033 7.197,0 13.033,5.835 13.033,13.033 -0.001,7.198 -5.836,13.033 -13.033,13.033 z" />
    </clipPath>
    <linearGradient
       id="SVGID_7_"
       gradientUnits="userSpaceOnUse"
       x1="128.46919"
       y1="247.29691"
       x2="128.46919"
       y2="5.5654001"
       gradientTransform="matrix(0.54128359,-0.02028415,0.02039255,0.54128358,-116.24106,-103.53379)">
      <stop
         offset="0"
         style="stop-color:#39B54A"
         id="stop31" />
      <stop
         offset="0.0817"
         style="stop-color:#45B748"
         id="stop33" />
      <stop
         offset="0.329"
         style="stop-color:#64BE44"
         id="stop35" />
      <stop
         offset="0.5693"
         style="stop-color:#7BC241"
         id="stop37" />
      <stop
         offset="0.7973"
         style="stop-color:#88C540"
         id="stop39" />
      <stop
         offset="1"
         style="stop-color:#8DC63F"
         id="stop41" />
    </linearGradient>
    <linearGradient
       id="SVGID_8_"
       gradientUnits="userSpaceOnUse"
       x1="518.16687"
       y1="703.70581"
       x2="489.56516"
       y2="183.85011"
       gradientTransform="matrix(0.54128359,-0.02028415,0.02039255,0.54128358,-116.24106,-103.53379)">
      <stop
         offset="0"
         style="stop-color:#008080;stop-opacity:1;"
         id="stop46" />
      <stop
         offset="0.0357"
         style="stop-color:#006838;stop-opacity:0.8587"
         id="stop48" />
      <stop
         offset="0.2527"
         style="stop-color:#008080;stop-opacity:1"
         id="stop50" />
    </linearGradient>
    <linearGradient
       id="SVGID_9_"
       gradientUnits="userSpaceOnUse"
       x1="136.6797"
       y1="229.4668"
       x2="136.6797"
       y2="39.945801"
       gradientTransform="matrix(0.54128359,-0.02028415,0.02039255,0.54128358,-116.24106,-103.53379)">
      <stop
         offset="0"
         style="stop-color:#E6E7E8"
         id="stop59-5" />
      <stop
         offset="1"
         style="stop-color:#FFFFFF"
         id="stop61-3" />
    </linearGradient>
    <clipPath
       id="clipPath1"
       clip-path="url(#SVGID_5_)">
      <path
         id="use1"
         d="M 245.46,129.523 147.569,32.625 c -5.556,-5.502 -16.222,-11.873 -23.7,-14.16 L 84.351,6.382 C 76.872,4.096 66.255,6.773 60.752,12.33 L 47.311,25.908 c -5.5,5.559 -14.502,14.653 -20.005,20.21 l -13.44,13.579 c -5.5,5.558 -8.07,16.206 -5.706,23.658 l 12.483,39.391 c 2.363,7.456 8.843,18.056 14.399,23.556 l 97.89,96.898 c 5.558,5.502 14.605,5.455 20.105,-0.101 l 36.26,-36.63 c 5.504,-5.559 14.503,-14.651 20.005,-20.209 l 36.259,-36.629 c 5.502,-5.56 5.455,-14.606 -0.101,-20.108 z M 67.375,78.783 c -7.198,0 -13.033,-5.835 -13.033,-13.033 0,-7.197 5.835,-13.033 13.033,-13.033 7.197,0 13.033,5.835 13.033,13.033 -0.001,7.198 -5.836,13.033 -13.033,13.033 z" />
    </clipPath>
    <clipPath
       id="clipPath2"
       clip-path="url(#SVGID_5_)">
      <path
         id="use2"
         d="M 245.46,129.523 147.569,32.625 c -5.556,-5.502 -16.222,-11.873 -23.7,-14.16 L 84.351,6.382 C 76.872,4.096 66.255,6.773 60.752,12.33 L 47.311,25.908 c -5.5,5.559 -14.502,14.653 -20.005,20.21 l -13.44,13.579 c -5.5,5.558 -8.07,16.206 -5.706,23.658 l 12.483,39.391 c 2.363,7.456 8.843,18.056 14.399,23.556 l 97.89,96.898 c 5.558,5.502 14.605,5.455 20.105,-0.101 l 36.26,-36.63 c 5.504,-5.559 14.503,-14.651 20.005,-20.209 l 36.259,-36.629 c 5.502,-5.56 5.455,-14.606 -0.101,-20.108 z M 67.375,78.783 c -7.198,0 -13.033,-5.835 -13.033,-13.033 0,-7.197 5.835,-13.033 13.033,-13.033 7.197,0 13.033,5.835 13.033,13.033 -0.001,7.198 -5.836,13.033 -13.033,13.033 z" />
    </clipPath>
    <clipPath
       id="clipPath3"
       clip-path="url(#SVGID_5_)">
      <path
         id="use3"
         d="M 245.46,129.523 147.569,32.625 c -5.556,-5.502 -16.222,-11.873 -23.7,-14.16 L 84.351,6.382 C 76.872,4.096 66.255,6.773 60.752,12.33 L 47.311,25.908 c -5.5,5.559 -14.502,14.653 -20.005,20.21 l -13.44,13.579 c -5.5,5.558 -8.07,16.206 -5.706,23.658 l 12.483,39.391 c 2.363,7.456 8.843,18.056 14.399,23.556 l 97.89,96.898 c 5.558,5.502 14.605,5.455 20.105,-0.101 l 36.26,-36.63 c 5.504,-5.559 14.503,-14.651 20.005,-20.209 l 36.259,-36.629 c 5.502,-5.56 5.455,-14.606 -0.101,-20.108 z M 67.375,78.783 c -7.198,0 -13.033,-5.835 -13.033,-13.033 0,-7.197 5.835,-13.033 13.033,-13.033 7.197,0 13.033,5.835 13.033,13.033 -0.001,7.198 -5.836,13.033 -13.033,13.033 z" />
    </clipPath>
    <clipPath
       id="clipPath4"
       clip-path="url(#SVGID_5_)">
      <path
         id="use4"
         d="M 245.46,129.523 147.569,32.625 c -5.556,-5.502 -16.222,-11.873 -23.7,-14.16 L 84.351,6.382 C 76.872,4.096 66.255,6.773 60.752,12.33 L 47.311,25.908 c -5.5,5.559 -14.502,14.653 -20.005,20.21 l -13.44,13.579 c -5.5,5.558 -8.07,16.206 -5.706,23.658 l 12.483,39.391 c 2.363,7.456 8.843,18.056 14.399,23.556 l 97.89,96.898 c 5.558,5.502 14.605,5.455 20.105,-0.101 l 36.26,-36.63 c 5.504,-5.559 14.503,-14.651 20.005,-20.209 l 36.259,-36.629 c 5.502,-5.56 5.455,-14.606 -0.101,-20.108 z M 67.375,78.783 c -7.198,0 -13.033,-5.835 -13.033,-13.033 0,-7.197 5.835,-13.033 13.033,-13.033 7.197,0 13.033,5.835 13.033,13.033 -0.001,7.198 -5.836,13.033 -13.033,13.033 z" />
    </clipPath>
    <clipPath
       id="clipPath5"
       clip-path="url(#SVGID_5_)">
      <path
         id="use5"
         d="M 245.46,129.523 147.569,32.625 c -5.556,-5.502 -16.222,-11.873 -23.7,-14.16 L 84.351,6.382 C 76.872,4.096 66.255,6.773 60.752,12.33 L 47.311,25.908 c -5.5,5.559 -14.502,14.653 -20.005,20.21 l -13.44,13.579 c -5.5,5.558 -8.07,16.206 -5.706,23.658 l 12.483,39.391 c 2.363,7.456 8.843,18.056 14.399,23.556 l 97.89,96.898 c 5.558,5.502 14.605,5.455 20.105,-0.101 l 36.26,-36.63 c 5.504,-5.559 14.503,-14.651 20.005,-20.209 l 36.259,-36.629 c 5.502,-5.56 5.455,-14.606 -0.101,-20.108 z M 67.375,78.783 c -7.198,0 -13.033,-5.835 -13.033,-13.033 0,-7.197 5.835,-13.033 13.033,-13.033 7.197,0 13.033,5.835 13.033,13.033 -0.001,7.198 -5.836,13.033 -13.033,13.033 z" />
    </clipPath>
    <clipPath
       id="clipPath6"
       clip-path="url(#SVGID_5_)">
      <path
         id="use6"
         d="M 245.46,129.523 147.569,32.625 c -5.556,-5.502 -16.222,-11.873 -23.7,-14.16 L 84.351,6.382 C 76.872,4.096 66.255,6.773 60.752,12.33 L 47.311,25.908 c -5.5,5.559 -14.502,14.653 -20.005,20.21 l -13.44,13.579 c -5.5,5.558 -8.07,16.206 -5.706,23.658 l 12.483,39.391 c 2.363,7.456 8.843,18.056 14.399,23.556 l 97.89,96.898 c 5.558,5.502 14.605,5.455 20.105,-0.101 l 36.26,-36.63 c 5.504,-5.559 14.503,-14.651 20.005,-20.209 l 36.259,-36.629 c 5.502,-5.56 5.455,-14.606 -0.101,-20.108 z M 67.375,78.783 c -7.198,0 -13.033,-5.835 -13.033,-13.033 0,-7.197 5.835,-13.033 13.033,-13.033 7.197,0 13.033,5.835 13.033,13.033 -0.001,7.198 -5.836,13.033 -13.033,13.033 z" />
    </clipPath>
    <clipPath
       id="clipPath7"
       clip-path="url(#SVGID_5_)">
      <path
         id="use7"
         d="M 245.46,129.523 147.569,32.625 c -5.556,-5.502 -16.222,-11.873 -23.7,-14.16 L 84.351,6.382 C 76.872,4.096 66.255,6.773 60.752,12.33 L 47.311,25.908 c -5.5,5.559 -14.502,14.653 -20.005,20.21 l -13.44,13.579 c -5.5,5.558 -8.07,16.206 -5.706,23.658 l 12.483,39.391 c 2.363,7.456 8.843,18.056 14.399,23.556 l 97.89,96.898 c 5.558,5.502 14.605,5.455 20.105,-0.101 l 36.26,-36.63 c 5.504,-5.559 14.503,-14.651 20.005,-20.209 l 36.259,-36.629 c 5.502,-5.56 5.455,-14.606 -0.101,-20.108 z M 67.375,78.783 c -7.198,0 -13.033,-5.835 -13.033,-13.033 0,-7.197 5.835,-13.033 13.033,-13.033 7.197,0 13.033,5.835 13.033,13.033 -0.001,7.198 -5.836,13.033 -13.033,13.033 z" />
    </clipPath>
    <linearGradient
       id="SVGID_10_"
       gradientUnits="userSpaceOnUse"
       x1="67.374496"
       y1="87.669403"
       x2="67.374496"
       y2="43.831501"
       gradientTransform="matrix(0.54128359,-0.02028415,0.02039255,0.54128358,-116.24106,-103.53379)">
      <stop
         offset="0"
         style="stop-color:#777777"
         id="stop104" />
      <stop
         offset="0.2068"
         style="stop-color:#7C7C7C"
         id="stop106" />
      <stop
         offset="0.4394"
         style="stop-color:#898989"
         id="stop108" />
      <stop
         offset="0.6845"
         style="stop-color:#A0A0A0"
         id="stop110" />
      <stop
         offset="0.9368"
         style="stop-color:#BFBFBF"
         id="stop112" />
      <stop
         offset="1"
         style="stop-color:#C8C8C8"
         id="stop114" />
    </linearGradient>
    <clipPath
       id="clipPath8"
       clip-path="url(#SVGID_5_)">
      <path
         id="use8"
         d="M 245.46,129.523 147.569,32.625 c -5.556,-5.502 -16.222,-11.873 -23.7,-14.16 L 84.351,6.382 C 76.872,4.096 66.255,6.773 60.752,12.33 L 47.311,25.908 c -5.5,5.559 -14.502,14.653 -20.005,20.21 l -13.44,13.579 c -5.5,5.558 -8.07,16.206 -5.706,23.658 l 12.483,39.391 c 2.363,7.456 8.843,18.056 14.399,23.556 l 97.89,96.898 c 5.558,5.502 14.605,5.455 20.105,-0.101 l 36.26,-36.63 c 5.504,-5.559 14.503,-14.651 20.005,-20.209 l 36.259,-36.629 c 5.502,-5.56 5.455,-14.606 -0.101,-20.108 z M 67.375,78.783 c -7.198,0 -13.033,-5.835 -13.033,-13.033 0,-7.197 5.835,-13.033 13.033,-13.033 7.197,0 13.033,5.835 13.033,13.033 -0.001,7.198 -5.836,13.033 -13.033,13.033 z" />
    </clipPath>
    <linearGradient
       id="SVGID_11_"
       gradientUnits="userSpaceOnUse"
       x1="67.374496"
       y1="82.337898"
       x2="67.374496"
       y2="49.163601"
       gradientTransform="matrix(0.54128359,-0.02028415,0.02039255,0.54128358,-116.24106,-103.53379)">
      <stop
         offset="0"
         style="stop-color:#C8C8C8"
         id="stop125" />
      <stop
         offset="0.0632"
         style="stop-color:#BFBFBF"
         id="stop127" />
      <stop
         offset="0.3155"
         style="stop-color:#A0A0A0"
         id="stop129" />
      <stop
         offset="0.5606"
         style="stop-color:#898989"
         id="stop131" />
      <stop
         offset="0.7932"
         style="stop-color:#7C7C7C"
         id="stop133" />
      <stop
         offset="1"
         style="stop-color:#777777"
         id="stop135" />
    </linearGradient>
    <clipPath
       id="clipPath9"
       clip-path="url(#SVGID_5_)">
      <path
         id="use9"
         d="M 245.46,129.523 147.569,32.625 c -5.556,-5.502 -16.222,-11.873 -23.7,-14.16 L 84.351,6.382 C 76.872,4.096 66.255,6.773 60.752,12.33 L 47.311,25.908 c -5.5,5.559 -14.502,14.653 -20.005,20.21 l -13.44,13.579 c -5.5,5.558 -8.07,16.206 -5.706,23.658 l 12.483,39.391 c 2.363,7.456 8.843,18.056 14.399,23.556 l 97.89,96.898 c 5.558,5.502 14.605,5.455 20.105,-0.101 l 36.26,-36.63 c 5.504,-5.559 14.503,-14.651 20.005,-20.209 l 36.259,-36.629 c 5.502,-5.56 5.455,-14.606 -0.101,-20.108 z M 67.375,78.783 c -7.198,0 -13.033,-5.835 -13.033,-13.033 0,-7.197 5.835,-13.033 13.033,-13.033 7.197,0 13.033,5.835 13.033,13.033 -0.001,7.198 -5.836,13.033 -13.033,13.033 z" />
    </clipPath>
    <clipPath
       id="clipPath10"
       clip-path="url(#SVGID_5_)">
      <path
         id="use10"
         d="M 245.46,129.523 147.569,32.625 c -5.556,-5.502 -16.222,-11.873 -23.7,-14.16 L 84.351,6.382 C 76.872,4.096 66.255,6.773 60.752,12.33 L 47.311,25.908 c -5.5,5.559 -14.502,14.653 -20.005,20.21 l -13.44,13.579 c -5.5,5.558 -8.07,16.206 -5.706,23.658 l 12.483,39.391 c 2.363,7.456 8.843,18.056 14.399,23.556 l 97.89,96.898 c 5.558,5.502 14.605,5.455 20.105,-0.101 l 36.26,-36.63 c 5.504,-5.559 14.503,-14.651 20.005,-20.209 l 36.259,-36.629 c 5.502,-5.56 5.455,-14.606 -0.101,-20.108 z M 67.375,78.783 c -7.198,0 -13.033,-5.835 -13.033,-13.033 0,-7.197 5.835,-13.033 13.033,-13.033 7.197,0 13.033,5.835 13.033,13.033 -0.001,7.198 -5.836,13.033 -13.033,13.033 z" />
    </clipPath>
    <path
       id="path2260"
       d="M 245.46,129.523 147.569,32.625 c -5.556,-5.502 -16.222,-11.873 -23.7,-14.16 L 84.351,6.382 C 76.872,4.096 66.255,6.773 60.752,12.33 L 47.311,25.908 c -5.5,5.559 -14.502,14.653 -20.005,20.21 l -13.44,13.579 c -5.5,5.558 -8.07,16.206 -5.706,23.658 l 12.483,39.391 c 2.363,7.456 8.843,18.056 14.399,23.556 l 97.89,96.898 c 5.558,5.502 14.605,5.455 20.105,-0.101 l 36.26,-36.63 c 5.504,-5.559 14.503,-14.651 20.005,-20.209 l 36.259,-36.629 c 5.502,-5.56 5.455,-14.606 -0.101,-20.108 z M 67.375,78.783 c -7.198,0 -13.033,-5.835 -13.033,-13.033 0,-7.197 5.835,-13.033 13.033,-13.033 7.197,0 13.033,5.835 13.033,13.033 -0.001,7.198 -5.836,13.033 -13.033,13.033 z" />
    <path
       id="path2263"
       d="M 245.46,129.523 147.569,32.625 c -5.556,-5.502 -16.222,-11.873 -23.7,-14.16 L 84.351,6.382 C 76.872,4.096 66.255,6.773 60.752,12.33 L 47.311,25.908 c -5.5,5.559 -14.502,14.653 -20.005,20.21 l -13.44,13.579 c -5.5,5.558 -8.07,16.206 -5.706,23.658 l 12.483,39.391 c 2.363,7.456 8.843,18.056 14.399,23.556 l 97.89,96.898 c 5.558,5.502 14.605,5.455 20.105,-0.101 l 36.26,-36.63 c 5.504,-5.559 14.503,-14.651 20.005,-20.209 l 36.259,-36.629 c 5.502,-5.56 5.455,-14.606 -0.101,-20.108 z M 67.375,78.783 c -7.198,0 -13.033,-5.835 -13.033,-13.033 0,-7.197 5.835,-13.033 13.033,-13.033 7.197,0 13.033,5.835 13.033,13.033 -0.001,7.198 -5.836,13.033 -13.033,13.033 z" />
    <linearGradient
       inkscape:collect="always"
       xlink:href="#linearGradient11"
       id="linearGradient990"
       x1="-12.025727"
       y1="6.1170783"
       x2="-0.085100174"
       y2="6.1170783"
       gradientUnits="userSpaceOnUse" />
  </defs>
  <sodipodi:namedview
     id="namedview14"
     pagecolor="#000000"
     bordercolor="#666666"
     borderopacity="1.0"
     inkscape:showpageshadow="2"
     inkscape:pageopacity="0.0"
     inkscape:pagecheckerboard="0"
     inkscape:deskcolor="#d1d1d1"
     showgrid="false"
     inkscape:zoom="6.2611141"
     inkscape:cx="23.797682"
     inkscape:cy="54.383293"
     inkscape:window-width="1920"
     inkscape:window-height="1003"
     inkscape:window-x="0"
     inkscape:window-y="0"
     inkscape:window-maximized="1"
     inkscape:current-layer="svg12"
     inkscape:document-rotation="0">
    <inkscape:grid
       type="xygrid"
       id="grid244"
       originx="9.9594769"
       originy="-31.57929"
       spacingy="1"
       spacingx="1"
       units="px"
       visible="false" />
  </sodipodi:namedview>
  <rect
     x="-12.194976"
     y="0.32004508"
     width="11.940627"
     height="11.936014"
     rx="1.6121091"
     shape-rendering="crispEdges"
     id="rect5-6-7-3"
     ry="1.7735944"
     transform="matrix(0.00523883,-0.99998628,0.999988,0.00489859,0,0)"
     style="fill:#80b3ff;fill-opacity:0.15;stroke:url(#linearGradient990);stroke-width:0.5291563;stroke-miterlimit:4;stroke-dasharray:none;stroke-opacity:1" />
  <rect
     x="-3.7202365"
     y="4.8851409"
     width="7.912631"
     height="7.912384"
     rx="1.612043"
     shape-rendering="crispEdges"
     id="rect5-6-6-6-6"
     style="fill:#80b3ff;fill-opacity:0.122146;stroke:url(#linearGradient5);stroke-width:0.18890881;stroke-opacity:1;stroke-miterlimit:4;stroke-dasharray:none"
     ry="1.7735215"
     transform="matrix(0.72612649,-0.68756114,0.6879775,0.72573202,0,0)" />
  <path
     d="m 5.4586302,3.1536094 c -0.967984,0 -1.4621915,0.690175 -1.4621915,1.5833437 0,0.8931212 0.5293542,1.6348688 1.4621915,1.6174438 0.5983969,0 0.9614879,-0.2339741 1.2782174,-0.5842192 L 6.3358984,5.3638353 C 6.0895006,5.5914954 5.8106107,5.7724448 5.4586019,5.7724448 c -0.5425176,0 -0.8730032,-0.5045411 -0.8767222,-1.0440076 0.00371,-0.5390636 0.3515478,-0.9928567 0.8767222,-0.9928567 0.3167955,0 0.5851969,0.1173008 0.8316041,0.3449609 L 6.6723063,3.6247621 C 6.3731074,3.3270547 6.0570084,3.1536377 5.4585831,3.1536377 Z m 1.7546301,5.818e-4 V 6.354885 H 9.260235 V 5.7729425 H 7.7980431 V 3.1542101 Z"
     fill="#f9f9f9"
     stroke-width="0.26458"
     id="path2-3"
     style="fill:#00c9c9;fill-opacity:1" />
  <path
     d="M 3.704094,8.392386 H 6.6283835 V 8.9743286 H 3.704094 Z"
     fill="#f9f9f9"
     stroke-width="0.26458"
     id="path3-6"
     style="fill:#00c9c9;fill-opacity:1" />
</svg>
