<?xml version="1.0" encoding="UTF-8" standalone="no"?>
<svg
   width="47.285591"
   height="47.28569"
   version="1.1"
   viewBox="0 0 12.510734 12.51076"
   id="svg12"
   sodipodi:docname="kahla.svg"
   inkscape:version="1.4.2 (unknown)"
   xmlns:inkscape="http://www.inkscape.org/namespaces/inkscape"
   xmlns:sodipodi="http://sodipodi.sourceforge.net/DTD/sodipodi-0.dtd"
   xmlns:xlink="http://www.w3.org/1999/xlink"
   xmlns="http://www.w3.org/2000/svg"
   xmlns:svg="http://www.w3.org/2000/svg"
   xmlns:rdf="http://www.w3.org/1999/02/22-rdf-syntax-ns#"
   xmlns:cc="http://creativecommons.org/ns#"
   xmlns:dc="http://purl.org/dc/elements/1.1/">
  <style
     id="style864" />
  <metadata
     id="metadata39">
    <rdf:RDF>
      <cc:Work
         rdf:about="">
        <dc:format>image/svg+xml</dc:format>
        <dc:type
           rdf:resource="http://purl.org/dc/dcmitype/StillImage" />
      </cc:Work>
    </rdf:RDF>
  </metadata>
  <defs
     id="defs16">
    <linearGradient
       id="linearGradient2"
       inkscape:collect="always">
      <stop
         style="stop-color:#525c6b;stop-opacity:1;"
         offset="0"
         id="stop1" />
      <stop
         style="stop-color:#4e5766;stop-opacity:1;"
         offset="1"
         id="stop2" />
    </linearGradient>
    <linearGradient
       id="c"
       y1="523.79999"
       x1="403.57001"
       y2="536.79999"
       x2="416.57001"
       gradientUnits="userSpaceOnUse"
       gradientTransform="matrix(0.34526714,0,0,0.34526706,-134.80427,-174.63325)">
      <stop
         stop-color="#292c2f"
         id="stop1568" />
      <stop
         offset="1"
         stop-opacity="0"
         id="stop1570" />
    </linearGradient>
    <linearGradient
       xlink:href="#b-2"
       id="linearGradient4189"
       x1="14.369"
       y1="22.521999"
       x2="26.521999"
       y2="22.521999"
       gradientUnits="userSpaceOnUse" />
    <linearGradient
       x1="36"
       gradientUnits="userSpaceOnUse"
       x2="14"
       y2="12"
       y1="44"
       id="b-2">
      <stop
         style="stop-color:#bfc9c9;stop-opacity:1"
         stop-color="#536161"
         id="stop1579" />
      <stop
         style="stop-color:#fbfbfb;stop-opacity:1"
         stop-color="#f4f5f5"
         offset="1"
         id="stop1581" />
    </linearGradient>
    <linearGradient
       xlink:href="#b-2"
       id="linearGradient4428"
       gradientUnits="userSpaceOnUse"
       x1="31.586"
       y1="36.345001"
       x2="1.2029999"
       y2="6.723" />
    <linearGradient
       xlink:href="#b-2"
       id="linearGradient4189-3"
       x1="14.369"
       y1="22.521999"
       x2="26.521999"
       y2="22.521999"
       gradientUnits="userSpaceOnUse"
       gradientTransform="translate(20.841982,61.553822)" />
    <linearGradient
       xlink:href="#b-2"
       id="linearGradient4428-5"
       gradientUnits="userSpaceOnUse"
       x1="31.586"
       y1="36.345001"
       x2="1.2029999"
       y2="6.723"
       gradientTransform="translate(20.841982,61.553822)" />
    <linearGradient
       xlink:href="#b-2"
       id="linearGradient4189-3-3"
       x1="14.369"
       y1="22.521999"
       x2="26.521999"
       y2="22.521999"
       gradientUnits="userSpaceOnUse"
       gradientTransform="translate(4.376802,4.4211693)" />
    <linearGradient
       xlink:href="#b-2"
       id="linearGradient4428-5-5"
       gradientUnits="userSpaceOnUse"
       x1="31.586"
       y1="36.345001"
       x2="1.2029999"
       y2="6.723"
       gradientTransform="translate(4.376802,4.4211693)" />
    <linearGradient
       inkscape:collect="always"
       xlink:href="#linearGradient2"
       id="linearGradient15"
       x1="-9.6850061"
       y1="45.161198"
       x2="11.98815"
       y2="21.735205"
       gradientUnits="userSpaceOnUse"
       gradientTransform="scale(0.26457813)" />
    <filter
       id="filter2917-3"
       x="-0.96181148"
       y="-0.66745996"
       width="2.9236228"
       height="2.3349199"
       color-interpolation-filters="sRGB">
      <feGaussianBlur
         stdDeviation="0.2871969"
         id="feGaussianBlur732-5" />
    </filter>
    <filter
       id="filter1"
       x="-0.96181148"
       y="-0.66745996"
       width="2.9236228"
       height="2.3349199"
       color-interpolation-filters="sRGB">
      <feGaussianBlur
         stdDeviation="0.2871969"
         id="feGaussianBlur1" />
    </filter>
    <filter
       id="filter2"
       x="-0.96181148"
       y="-0.66745996"
       width="2.9236228"
       height="2.3349199"
       color-interpolation-filters="sRGB">
      <feGaussianBlur
         stdDeviation="0.2871969"
         id="feGaussianBlur2" />
    </filter>
    <linearGradient
       inkscape:collect="always"
       xlink:href="#linearGradient2"
       id="linearGradient867"
       x1="-12.194976"
       y1="6.2880521"
       x2="-0.25434875"
       y2="6.2880521"
       gradientUnits="userSpaceOnUse" />
    <linearGradient
       id="linearGradient4375">
      <stop
         style="stop-color:#364e59;stop-opacity:1;"
         offset="0"
         id="stop4377" />
      <stop
         style="stop-color:#364e59;stop-opacity:0;"
         offset="1"
         id="stop4379" />
    </linearGradient>
    <radialGradient
       inkscape:collect="always"
       xlink:href="#linearGradient7-6"
       id="radialGradient9-3"
       cx="24.511036"
       cy="34.000065"
       fx="24.511036"
       fy="34.000065"
       r="28"
       gradientUnits="userSpaceOnUse"
       gradientTransform="matrix(0.97214296,0.97216016,-1.0003879,1.0003703,41.195649,-26.831046)" />
    <linearGradient
       id="linearGradient7-6"
       inkscape:collect="always">
      <stop
         style="stop-color:#2a7fff;stop-opacity:1"
         offset="0"
         id="stop8-7" />
      <stop
         style="stop-color:#1a75ff;stop-opacity:1;"
         offset="0.59162253"
         id="stop10-5" />
      <stop
         style="stop-color:#eff2f6;stop-opacity:1;"
         offset="0.92173076"
         id="stop11-3" />
      <stop
         style="stop-color:#eff2f6;stop-opacity:1;"
         offset="1"
         id="stop9-5" />
    </linearGradient>
    <linearGradient
       inkscape:collect="always"
       xlink:href="#linearGradient1"
       id="linearGradient6"
       x1="17.408081"
       y1="16.037786"
       x2="49.155514"
       y2="50.137749"
       gradientUnits="userSpaceOnUse"
       gradientTransform="matrix(2.1538461,0,0,2.1538461,-22.717458,-26.374336)" />
    <linearGradient
       id="linearGradient1"
       inkscape:collect="always">
      <stop
         style="stop-color:#5599ff;stop-opacity:1"
         offset="0"
         id="stop5" />
      <stop
         style="stop-color:#5599ff;stop-opacity:1"
         offset="0.28848785"
         id="stop7" />
      <stop
         style="stop-color:#2a7fff;stop-opacity:1"
         offset="1"
         id="stop6" />
    </linearGradient>
  </defs>
  <sodipodi:namedview
     id="namedview14"
     pagecolor="#000000"
     bordercolor="#666666"
     borderopacity="1.0"
     inkscape:showpageshadow="2"
     inkscape:pageopacity="0.0"
     inkscape:pagecheckerboard="0"
     inkscape:deskcolor="#d1d1d1"
     showgrid="false"
     inkscape:zoom="9.0252824"
     inkscape:cx="10.415187"
     inkscape:cy="31.688759"
     inkscape:window-width="1920"
     inkscape:window-height="994"
     inkscape:window-x="0"
     inkscape:window-y="0"
     inkscape:window-maximized="1"
     inkscape:current-layer="svg12"
     inkscape:document-rotation="0">
    <inkscape:grid
       type="xygrid"
       id="grid244"
       originx="9.9594769"
       originy="-31.57929"
       spacingy="1"
       spacingx="1"
       units="px"
       visible="false" />
  </sodipodi:namedview>
  <rect
     x="-12.194976"
     y="0.32004508"
     width="11.940627"
     height="11.936014"
     rx="1.6121091"
     shape-rendering="crispEdges"
     id="rect5-6-7-3"
     ry="1.7735944"
     transform="matrix(0.00523883,-0.99998628,0.999988,0.00489859,0,0)"
     style="fill:#373e48;fill-opacity:0.12;stroke:url(#linearGradient867);stroke-width:0.5291563;stroke-miterlimit:4;stroke-dasharray:none;stroke-opacity:1" />
  <rect
     x="-3.7202365"
     y="4.8851409"
     width="7.912631"
     height="7.912384"
     rx="1.612043"
     shape-rendering="crispEdges"
     id="rect5-6-6-6-6"
     style="fill:#4e5766;fill-opacity:0.41999999;stroke:url(#linearGradient15);stroke-width:0.39686725;stroke-opacity:1;stroke-miterlimit:4;stroke-dasharray:none"
     ry="1.7735215"
     transform="matrix(0.72612649,-0.68756114,0.6879775,0.72573202,0,0)" />
  <g
     id="g2"
     transform="matrix(0.12283985,0,0,0.12283985,2.446026,2.4460843)"
     style="stroke-width:2.15384">
    <path
       d="M 59,31 C 59,46.46415 46.464172,59 30.999998,59 15.535835,59 3.0000001,46.46415 3.0000001,31 3.0000001,15.535835 15.535835,3 30.999998,3 46.464172,3 59,15.535835 59,31 Z"
       id="path154-6"
       style="fill:url(#radialGradient9-3);stroke-width:2.15384" />
    <path
       d="m 54.333333,31 c 0,12.88701 -10.446332,23.33332 -23.333335,23.33332 C 18.112999,54.33332 7.6666671,43.88701 7.6666671,31 7.6666671,18.113006 18.112999,7.666668 30.999998,7.666668 43.887001,7.666668 54.333333,18.113006 54.333333,31 Z"
       id="path155"
       style="fill:url(#linearGradient6);stroke-width:2.15384" />
    <g
       id="g1"
       transform="translate(-2.9094331,-61.508866)"
       style="stroke-width:2.15384">
      <path
         style="opacity:0.1;stroke-width:2.15384"
         d="m 25.825379,112.71941 c -0.7823,-0.99654 -1.452756,-3.04337 -1.758854,-5.36954 -0.16836,-1.27955 -0.207644,-3.78992 -0.0867,-4.85135 0.11588,-1.89855 1.284888,-3.129233 2.284402,-4.681747 0.03096,-0.0013 0.18238,0.13088 0.33651,0.2937 0.15416,0.16286 0.394544,0.36998 0.534202,0.460312 0.785392,0.507988 2.550084,0.518164 3.376872,0.02426 0.447112,-0.26709 1.041482,-1.212146 1.251544,-1.989946 0.1517,-0.56172 0.13936,-1.093982 -0.02524,-1.682458 -0.352068,-1.258804 -1.34239,-2.599502 -2.329504,-3.272846 -0.606284,-0.413564 -1.683236,-0.574088 -2.866402,-0.729498 -0.32865,-0.0432 -0.339032,-0.04986 -0.407836,-0.264238 -0.15976,-0.497716 -0.205472,-1.539114 -0.13594,-3.096352 0.04206,-0.9421 0.06816,-3.89335 0.07024,-7.947175 0.0019,-3.546707 0.02226,-6.497682 0.0453,-6.557725 0.0352,-0.09147 0.07034,-0.05799 0.216754,0.206471 0.260952,0.471318 0.4349,0.919112 0.897392,2.31016 0.230604,0.693576 0.516044,1.472078 0.634322,1.730001 0.298842,0.651696 0.833482,1.430634 2.055556,2.994857 1.584206,2.027731 2.493576,3.481015 2.064458,3.299247 -0.833794,-0.353182 -1.806184,-0.202536 -2.252108,0.348928 -0.583478,0.721562 -0.757182,1.561784 -0.519082,2.510792 0.221886,0.88435 0.76048,1.727176 1.6764,2.62332 0.53878,0.527134 2.39503,1.425772 2.567516,1.42514 0.12354,-4.16e-4 0.705764,-0.507718 0.873764,-0.761258 0.461962,-0.697182 0.468126,-1.476833 0.0192,-3.105607 -0.0908,-0.32958 -0.15054,-0.62325 -0.13268,-0.6526 0.07062,-0.11644 0.308258,-0.03812 0.8986,0.296168 0.832864,0.471632 1.240226,0.776382 1.656196,1.239002 0.76038,0.845666 1.182216,1.947191 1.182216,3.627343 0,0.308206 -0.02074,0.560372 -0.04614,0.560372 -0.02536,0 -0.16034,-0.1115 -0.299896,-0.247812 -0.272478,-0.26614 -0.669346,-0.423086 -0.912532,-0.360866 -0.16646,0.04262 -0.46254,0.287636 -0.550878,0.455888 -0.361312,0.688186 0.595892,1.875249 1.429076,2.308539 0.521592,0.271248 1.22104,0.19434 2.019878,-0.222098 2.134236,-1.112592 2.293656,-3.281343 2.171132,-5.745593 -0.0186,-0.381442 -0.12574,-1.233898 -0.237284,-1.89435 -0.290678,-1.721124 -0.29669,-1.762738 -0.266168,-1.843822 0.0902,-0.23961 0.305534,0.04138 0.949748,1.23951 1.035536,1.925876 1.622488,3.877552 1.69099,5.622756 0.0519,1.322322 -0.11648,2.327508 -0.69573,4.152768 -0.200604,0.63216 -0.401064,1.207418 -0.445456,1.278348 -0.05658,0.0905 -0.13534,0.12896 -0.263706,0.12896 -0.232578,0 -0.393798,0.11538 -0.509978,0.364936 -0.1412,0.30339 -0.122,0.43738 0.06294,0.438432 0.284632,0.0013 0.320134,0.06502 0.215768,0.385334 -0.05112,0.15674 -0.16742,0.404824 -0.258516,0.55126 -0.15644,0.251466 -0.17952,0.266258 -0.415328,0.266258 -0.368232,0 -0.414916,0.0346 -0.62727,0.46439 -0.279738,0.566242 -0.254602,0.682018 0.14806,0.682018 0.206584,0 0.20639,0.0672 -0.0013,0.332951 -0.09082,0.11638 -0.322538,0.52113 -0.514976,0.89944 -0.41593,0.8177 -0.697716,1.2366 -1.349466,2.00615 -1.101474,1.30055 -2.599282,2.60272 -4.465888,3.88259 -0.432636,0.29664 -0.99264,0.6856 -1.244466,0.86436 -0.89287,0.63381 -1.71763,0.91526 -1.196638,0.40835 0.408934,-0.39788 1.154956,-1.91437 1.415504,-2.88946 0.209456,-1.01482 0.15732,-1.3903 -0.158,-2.05363 -0.636578,-1.2288 -1.453496,-1.27361 -2.354264,-1.01582 -2.20819,0.63198 -4.067246,3.39988 -4.671632,6.37088 -0.20306,0.9982 -0.309042,1.98301 -0.353424,3.28416 -0.02374,0.69578 -0.06274,1.17692 -0.09616,1.18647 -0.03096,0.009 -0.164,-0.12118 -0.295724,-0.28902 z"
         id="path2-2" />
      <path
         style="fill:#e8f2fd;fill-opacity:1;stroke-width:2.15384"
         d="m 25.825379,111.71941 c -0.7823,-0.99654 -1.452756,-3.04337 -1.758854,-5.36954 -0.16836,-1.27955 -0.207644,-3.78992 -0.0867,-4.85135 0.11588,-1.898551 1.284888,-3.129233 2.284402,-4.681747 0.03096,-0.0013 0.18238,0.13088 0.33651,0.2937 0.15416,0.16286 0.394544,0.36998 0.534202,0.460312 0.785392,0.507988 2.550084,0.518164 3.376872,0.02426 0.447112,-0.26709 1.041482,-1.212146 1.251544,-1.989946 0.1517,-0.56172 0.13936,-1.093982 -0.02524,-1.682458 -0.352068,-1.258804 -1.34239,-2.599502 -2.329504,-3.272846 -0.606284,-0.413564 -1.683236,-0.574088 -2.866402,-0.729498 -0.32865,-0.0432 -0.339032,-0.04986 -0.407836,-0.264238 -0.15976,-0.497716 -0.205472,-1.539114 -0.13594,-3.096352 0.04206,-0.9421 0.06816,-3.89335 0.07024,-7.947175 0.0019,-3.546707 0.02226,-6.497682 0.0453,-6.557725 0.0352,-0.09147 0.07034,-0.05799 0.216754,0.206471 0.260952,0.471318 0.4349,0.919112 0.897392,2.31016 0.230604,0.693576 0.516044,1.472078 0.634322,1.730001 0.298842,0.651696 0.833482,1.430634 2.055556,2.994857 1.584206,2.027731 2.493576,3.481015 2.064458,3.299247 -0.833794,-0.353182 -1.806184,-0.202536 -2.252108,0.348928 -0.583478,0.721562 -0.757182,1.561784 -0.519082,2.510792 0.221886,0.88435 0.76048,1.727176 1.6764,2.62332 0.53878,0.527134 2.39503,1.425772 2.567516,1.42514 0.12354,-4.16e-4 0.705764,-0.507718 0.873764,-0.761258 0.461962,-0.697182 0.468126,-1.476833 0.0192,-3.105607 -0.0908,-0.32958 -0.15054,-0.62325 -0.13268,-0.6526 0.07062,-0.11644 0.308258,-0.03812 0.8986,0.296168 0.832864,0.471632 1.240226,0.776382 1.656196,1.239002 0.76038,0.845666 1.182216,1.947191 1.182216,3.627343 0,0.308206 -0.02074,0.560372 -0.04614,0.560372 -0.02536,0 -0.16034,-0.1115 -0.299896,-0.247812 -0.272478,-0.26614 -0.669346,-0.423086 -0.912532,-0.360866 -0.16646,0.04262 -0.46254,0.287636 -0.550878,0.455888 -0.361312,0.688186 0.595892,1.875249 1.429076,2.308539 0.521592,0.271248 1.22104,0.19434 2.019878,-0.222098 2.134236,-1.112592 2.293656,-3.281343 2.171132,-5.745593 -0.0186,-0.381442 -0.12574,-1.233898 -0.237284,-1.89435 -0.290678,-1.721124 -0.29669,-1.762738 -0.266168,-1.843822 0.0902,-0.23961 0.305534,0.04138 0.949748,1.23951 1.035536,1.925876 1.622488,3.877552 1.69099,5.622756 0.0519,1.322322 -0.11648,2.327508 -0.69573,4.152768 -0.200604,0.63216 -0.401064,1.207418 -0.445456,1.278348 -0.05658,0.0905 -0.13534,0.12896 -0.263706,0.12896 -0.232578,0 -0.393798,0.11538 -0.509978,0.364936 -0.1412,0.30339 -0.122,0.43738 0.06294,0.438432 0.284632,0.0013 0.320134,0.06502 0.215768,0.385334 -0.05112,0.15674 -0.16742,0.404824 -0.258516,0.55126 -0.15644,0.251466 -0.17952,0.266258 -0.415328,0.266258 -0.368232,0 -0.414916,0.0346 -0.62727,0.46439 -0.279738,0.566242 -0.254602,0.682018 0.14806,0.682018 0.206584,0 0.20639,0.0672 -0.0013,0.33295 -0.09082,0.11638 -0.322538,0.521126 -0.514976,0.899444 -0.41593,0.817697 -0.697716,1.236597 -1.349466,2.006147 -1.101474,1.30055 -2.599282,2.60272 -4.465888,3.88259 -0.432636,0.29664 -0.99264,0.6856 -1.244466,0.86436 -0.89287,0.63381 -1.71763,0.91526 -1.196638,0.40835 0.408934,-0.39788 1.154956,-1.91437 1.415504,-2.88946 0.209456,-1.01482 0.15732,-1.3903 -0.158,-2.05363 -0.636578,-1.2288 -1.453496,-1.27361 -2.354264,-1.01582 -2.20819,0.63198 -4.067246,3.39988 -4.671632,6.37088 -0.20306,0.9982 -0.309042,1.98301 -0.353424,3.28416 -0.02374,0.69578 -0.06274,1.17692 -0.09616,1.18647 -0.03096,0.009 -0.164,-0.12118 -0.295724,-0.28902 z"
         id="path3" />
    </g>
  </g>
</svg>
