<?xml version="1.0" encoding="UTF-8" standalone="no"?>
<svg
   width="47.285591"
   height="47.28569"
   version="1.1"
   viewBox="0 0 12.510734 12.51076"
   id="svg12"
   sodipodi:docname="mullvad-vpn.svg"
   inkscape:version="1.4.2 (unknown)"
   xmlns:inkscape="http://www.inkscape.org/namespaces/inkscape"
   xmlns:sodipodi="http://sodipodi.sourceforge.net/DTD/sodipodi-0.dtd"
   xmlns:xlink="http://www.w3.org/1999/xlink"
   xmlns="http://www.w3.org/2000/svg"
   xmlns:svg="http://www.w3.org/2000/svg"
   xmlns:rdf="http://www.w3.org/1999/02/22-rdf-syntax-ns#"
   xmlns:cc="http://creativecommons.org/ns#"
   xmlns:dc="http://purl.org/dc/elements/1.1/">
  <style
     id="style864" />
  <metadata
     id="metadata39">
    <rdf:RDF>
      <cc:Work
         rdf:about="">
        <dc:format>image/svg+xml</dc:format>
        <dc:type
           rdf:resource="http://purl.org/dc/dcmitype/StillImage" />
      </cc:Work>
    </rdf:RDF>
  </metadata>
  <defs
     id="defs16">
    <linearGradient
       id="linearGradient2"
       inkscape:collect="always">
      <stop
         style="stop-color:#525c6b;stop-opacity:1;"
         offset="0"
         id="stop1" />
      <stop
         style="stop-color:#4e5766;stop-opacity:1;"
         offset="1"
         id="stop2" />
    </linearGradient>
    <linearGradient
       id="c"
       y1="523.79999"
       x1="403.57001"
       y2="536.79999"
       x2="416.57001"
       gradientUnits="userSpaceOnUse"
       gradientTransform="matrix(0.34526714,0,0,0.34526706,-134.80427,-174.63325)">
      <stop
         stop-color="#292c2f"
         id="stop1568" />
      <stop
         offset="1"
         stop-opacity="0"
         id="stop1570" />
    </linearGradient>
    <linearGradient
       xlink:href="#b-2"
       id="linearGradient4189"
       x1="14.369"
       y1="22.521999"
       x2="26.521999"
       y2="22.521999"
       gradientUnits="userSpaceOnUse" />
    <linearGradient
       x1="36"
       gradientUnits="userSpaceOnUse"
       x2="14"
       y2="12"
       y1="44"
       id="b-2">
      <stop
         style="stop-color:#bfc9c9;stop-opacity:1"
         stop-color="#536161"
         id="stop1579" />
      <stop
         style="stop-color:#fbfbfb;stop-opacity:1"
         stop-color="#f4f5f5"
         offset="1"
         id="stop1581" />
    </linearGradient>
    <linearGradient
       xlink:href="#b-2"
       id="linearGradient4428"
       gradientUnits="userSpaceOnUse"
       x1="31.586"
       y1="36.345001"
       x2="1.2029999"
       y2="6.723" />
    <linearGradient
       xlink:href="#b-2"
       id="linearGradient4189-3"
       x1="14.369"
       y1="22.521999"
       x2="26.521999"
       y2="22.521999"
       gradientUnits="userSpaceOnUse"
       gradientTransform="translate(20.841982,61.553822)" />
    <linearGradient
       xlink:href="#b-2"
       id="linearGradient4428-5"
       gradientUnits="userSpaceOnUse"
       x1="31.586"
       y1="36.345001"
       x2="1.2029999"
       y2="6.723"
       gradientTransform="translate(20.841982,61.553822)" />
    <linearGradient
       xlink:href="#b-2"
       id="linearGradient4189-3-3"
       x1="14.369"
       y1="22.521999"
       x2="26.521999"
       y2="22.521999"
       gradientUnits="userSpaceOnUse"
       gradientTransform="translate(4.376802,4.4211693)" />
    <linearGradient
       xlink:href="#b-2"
       id="linearGradient4428-5-5"
       gradientUnits="userSpaceOnUse"
       x1="31.586"
       y1="36.345001"
       x2="1.2029999"
       y2="6.723"
       gradientTransform="translate(4.376802,4.4211693)" />
    <linearGradient
       inkscape:collect="always"
       xlink:href="#linearGradient2"
       id="linearGradient15"
       x1="-9.6850061"
       y1="45.161198"
       x2="11.98815"
       y2="21.735205"
       gradientUnits="userSpaceOnUse"
       gradientTransform="scale(0.26457813)" />
    <filter
       id="filter2917-3"
       x="-0.96181148"
       y="-0.66745996"
       width="2.9236228"
       height="2.3349199"
       color-interpolation-filters="sRGB">
      <feGaussianBlur
         stdDeviation="0.2871969"
         id="feGaussianBlur732-5" />
    </filter>
    <filter
       id="filter1"
       x="-0.96181148"
       y="-0.66745996"
       width="2.9236228"
       height="2.3349199"
       color-interpolation-filters="sRGB">
      <feGaussianBlur
         stdDeviation="0.2871969"
         id="feGaussianBlur1" />
    </filter>
    <filter
       id="filter2"
       x="-0.96181148"
       y="-0.66745996"
       width="2.9236228"
       height="2.3349199"
       color-interpolation-filters="sRGB">
      <feGaussianBlur
         stdDeviation="0.2871969"
         id="feGaussianBlur2" />
    </filter>
    <linearGradient
       inkscape:collect="always"
       xlink:href="#linearGradient2"
       id="linearGradient867"
       x1="-12.194976"
       y1="6.2880521"
       x2="-0.25434875"
       y2="6.2880521"
       gradientUnits="userSpaceOnUse" />
    <linearGradient
       inkscape:collect="always"
       xlink:href="#linearGradient4579"
       id="linearGradient4581"
       x1="26.147566"
       y1="38.259621"
       x2="30.738098"
       y2="21.127518"
       gradientUnits="userSpaceOnUse"
       gradientTransform="matrix(0.26457814,0,0,0.26457814,-3.1754545,13.758063)" />
    <linearGradient
       inkscape:collect="always"
       id="linearGradient4579">
      <stop
         style="stop-color:#bb802b;stop-opacity:1;"
         offset="0"
         id="stop4575" />
      <stop
         style="stop-color:#d9a559;stop-opacity:1"
         offset="1"
         id="stop4577" />
    </linearGradient>
    <linearGradient
       inkscape:collect="always"
       xlink:href="#linearGradient4571"
       id="linearGradient4573"
       x1="22.765213"
       y1="23.061289"
       x2="20.395203"
       y2="14.216289"
       gradientUnits="userSpaceOnUse"
       gradientTransform="matrix(0.26457814,0,0,0.26457814,-3.1754545,13.758063)" />
    <linearGradient
       inkscape:collect="always"
       id="linearGradient4571">
      <stop
         style="stop-color:#ffc548;stop-opacity:1;"
         offset="0"
         id="stop4567" />
      <stop
         style="stop-color:#ffd67b;stop-opacity:1"
         offset="1"
         id="stop4569" />
    </linearGradient>
    <linearGradient
       inkscape:collect="always"
       xlink:href="#linearGradient4587"
       id="linearGradient4589"
       x1="39.307697"
       y1="18.308992"
       x2="39.541363"
       y2="21.921598"
       gradientUnits="userSpaceOnUse"
       gradientTransform="matrix(0.26457814,0,0,0.26457814,-3.1754545,13.758063)" />
    <linearGradient
       inkscape:collect="always"
       id="linearGradient4587">
      <stop
         style="stop-color:#f5dab5;stop-opacity:1"
         offset="0"
         id="stop4583" />
      <stop
         style="stop-color:#debb8c;stop-opacity:1"
         offset="1"
         id="stop4585" />
    </linearGradient>
    <linearGradient
       inkscape:collect="always"
       xlink:href="#linearGradient4563"
       id="linearGradient4565"
       x1="27"
       y1="16"
       x2="42.248055"
       y2="7.1965327"
       gradientUnits="userSpaceOnUse"
       gradientTransform="matrix(0.26457814,0,0,0.26457814,-3.1754545,13.758063)" />
    <linearGradient
       inkscape:collect="always"
       id="linearGradient4563">
      <stop
         style="stop-color:#fcfcfc;stop-opacity:1;"
         offset="0"
         id="stop4559" />
      <stop
         style="stop-color:#fcfcfc;stop-opacity:0;"
         offset="1"
         id="stop4561" />
    </linearGradient>
  </defs>
  <sodipodi:namedview
     id="namedview14"
     pagecolor="#000000"
     bordercolor="#666666"
     borderopacity="1.0"
     inkscape:showpageshadow="2"
     inkscape:pageopacity="0.0"
     inkscape:pagecheckerboard="0"
     inkscape:deskcolor="#d1d1d1"
     showgrid="false"
     inkscape:zoom="12.763677"
     inkscape:cx="18.529143"
     inkscape:cy="29.341075"
     inkscape:window-width="1920"
     inkscape:window-height="996"
     inkscape:window-x="0"
     inkscape:window-y="0"
     inkscape:window-maximized="1"
     inkscape:current-layer="svg12"
     inkscape:document-rotation="0">
    <inkscape:grid
       type="xygrid"
       id="grid244"
       originx="9.9594769"
       originy="-31.57929"
       spacingy="1"
       spacingx="1"
       units="px"
       visible="false" />
  </sodipodi:namedview>
  <rect
     x="-12.194976"
     y="0.32004508"
     width="11.940627"
     height="11.936014"
     rx="1.6121091"
     shape-rendering="crispEdges"
     id="rect5-6-7-3"
     ry="1.7735944"
     transform="matrix(0.00523883,-0.99998628,0.999988,0.00489859,0,0)"
     style="fill:#373e48;fill-opacity:0.12;stroke:url(#linearGradient867);stroke-width:0.5291563;stroke-miterlimit:4;stroke-dasharray:none;stroke-opacity:1" />
  <rect
     x="-3.7202365"
     y="4.8851409"
     width="7.912631"
     height="7.912384"
     rx="1.612043"
     shape-rendering="crispEdges"
     id="rect5-6-6-6-6"
     style="fill:#4e5766;fill-opacity:0.41999999;stroke:url(#linearGradient15);stroke-width:0.39686725;stroke-opacity:1;stroke-miterlimit:4;stroke-dasharray:none"
     ry="1.7735215"
     transform="matrix(0.72612649,-0.68756114,0.6879775,0.72573202,0,0)" />
  <g
     id="g1"
     transform="matrix(0.90328273,0,0,0.88570097,2.9871275,-11.799988)">
    <path
       style="fill:url(#linearGradient4581);fill-opacity:1;stroke-width:0.264578"
       d="m 5.6274529,19.049626 c -0.2852489,0.0033 -0.4354295,0.0027 -0.6051191,0.0026 -0.012816,0.02435 -0.2154984,0.04671 -0.4655956,0.161227 -0.2978319,0.136376 -0.623426,0.338479 -0.8898506,0.55241 -0.7121507,0.571835 -1.0099993,0.746276 -1.6872024,0.988551 -0.3943455,0.14108 -0.5741621,0.163914 -0.653694,0.137457 -3.704e-4,0.06936 -0.0031,0.09793 -0.0031,0.17983 -0.1121091,0.695481 -0.023611,1.313636 -0.49763414,1.931627 -0.0576614,0.07596 -0.0438739,0.110899 0.10800159,0.274913 0.30041285,0.324424 0.93322425,0.639829 1.51098905,0.752394 0.391105,0.0762 1.2404559,0.05479 1.6076223,-0.04031 0.1910937,-0.0495 0.554483,-0.151333 0.7100206,-0.226347 0.3159105,-0.152359 0.7947679,-0.539456 0.7947679,-0.642325 -0.200826,-0.347802 -0.4946408,-0.711879 -0.7942512,-0.897086 0.2224049,-0.143447 0.2964844,-0.237981 0.2511426,-0.49505 0,0 -0.023098,-0.09325 0.1379733,-0.217553 0.6614231,-0.663717 1.6390941,-1.43518 1.9920874,-2.223077 0,-0.203238 -0.11554,-0.247612 -0.4201213,-0.239257 -0.1479539,0.0041 -0.6412064,-0.0053 -1.0960355,0 z m -2.6809206,2.120759 c 0.045997,-0.02194 0.1857079,0.04683 0.3705126,0.182931 0.3333182,0.245471 0.6488363,0.392887 0.8593622,0.401001 0.077804,0.003 0.1906431,0.02375 0.2511426,0.04599 0.1040813,0.03827 0.100386,0.04356 -0.066145,0.103351 -0.2168723,0.07787 -0.3384394,0.07576 -0.596851,-0.01085 -0.2258489,-0.0757 -0.5166714,-0.281373 -0.7415424,-0.524505 -0.1259347,-0.136162 -0.1382582,-0.168446 -0.07648,-0.197917 z"
       id="path10" />
    <path
       style="fill:url(#linearGradient4573);fill-opacity:1;stroke-width:0.264578"
       d="M 3.6632702,17.454922 3.2886236,17.650256 C 3.0557949,17.53114 2.7934781,17.462157 2.5134922,17.462157 c -0.9497961,0 -1.71975788,0.769962 -1.71975788,1.719758 0,0.40866 0.14329208,0.783394 0.38136448,1.078466 0.052461,0.134434 0.093461,0.245741 0.091983,0.27543 -0.00504,0.101284 0.07053,0.183716 0.7126039,-0.04599 0.6772031,-0.242275 0.9750517,-0.416716 1.6872024,-0.988551 0.2664246,-0.213931 0.5920187,-0.416034 0.8898506,-0.55241 0.2582603,-0.118256 0.4702464,-0.138437 0.4702464,-0.163811 0,-0.264578 -0.3404954,-0.240056 -0.5291563,-0.264578 h -0.401518 z"
       id="path16" />
    <circle
       style="fill:url(#linearGradient4589);fill-opacity:1;stroke-width:0.264578"
       cx="7.1435633"
       cy="19.049625"
       r="0.52915627"
       id="circle22" />
    <path
       style="opacity:0.9;vector-effect:none;fill:url(#linearGradient4565);fill-opacity:1;stroke:none;stroke-width:1.05831;stroke-linecap:round;stroke-linejoin:round;stroke-miterlimit:4;stroke-dasharray:none;stroke-dashoffset:0;stroke-opacity:1"
       d="m 3.7035412,17.616006 3.968708,-2.79963 1.3228907,2.645781 -4.9793711,0.870382 z"
       id="rect4552"
       inkscape:connector-curvature="0"
       sodipodi:nodetypes="ccccc" />
    <ellipse
       style="vector-effect:none;fill:#f6f9fc;fill-opacity:1;stroke:none;stroke-width:0.884897;stroke-linecap:round;stroke-linejoin:round;stroke-miterlimit:4;stroke-dasharray:none;stroke-dashoffset:0;stroke-opacity:1"
       id="path4546"
       cx="-4.8696671"
       cy="17.276499"
       rx="0.36332613"
       ry="0.55272424"
       transform="matrix(0.84017803,-0.54231068,0.4588461,0.88851576,0,0)" />
  </g>
</svg>
