<?xml version="1.0" encoding="UTF-8" standalone="no"?>
<svg
   width="47.285591"
   height="47.28569"
   version="1.1"
   viewBox="0 0 12.510734 12.51076"
   id="svg12"
   sodipodi:docname="openra-cnc.svg"
   inkscape:version="1.4.2 (unknown)"
   xmlns:inkscape="http://www.inkscape.org/namespaces/inkscape"
   xmlns:sodipodi="http://sodipodi.sourceforge.net/DTD/sodipodi-0.dtd"
   xmlns:xlink="http://www.w3.org/1999/xlink"
   xmlns="http://www.w3.org/2000/svg"
   xmlns:svg="http://www.w3.org/2000/svg"
   xmlns:rdf="http://www.w3.org/1999/02/22-rdf-syntax-ns#"
   xmlns:cc="http://creativecommons.org/ns#"
   xmlns:dc="http://purl.org/dc/elements/1.1/">
  <style
     id="style859" />
  <metadata
     id="metadata34">
    <rdf:RDF>
      <cc:Work
         rdf:about="">
        <dc:format>image/svg+xml</dc:format>
        <dc:type
           rdf:resource="http://purl.org/dc/dcmitype/StillImage" />
      </cc:Work>
    </rdf:RDF>
  </metadata>
  <defs
     id="defs16">
    <linearGradient
       id="c"
       y1="523.79999"
       x1="403.57001"
       y2="536.79999"
       x2="416.57001"
       gradientUnits="userSpaceOnUse"
       gradientTransform="matrix(0.34526714,0,0,0.34526706,-134.80427,-174.63325)">
      <stop
         stop-color="#292c2f"
         id="stop1568" />
      <stop
         offset="1"
         stop-opacity="0"
         id="stop1570" />
    </linearGradient>
    <linearGradient
       xlink:href="#b-2"
       id="linearGradient4189"
       x1="14.369"
       y1="22.521999"
       x2="26.521999"
       y2="22.521999"
       gradientUnits="userSpaceOnUse" />
    <linearGradient
       x1="36"
       gradientUnits="userSpaceOnUse"
       x2="14"
       y2="12"
       y1="44"
       id="b-2">
      <stop
         style="stop-color:#bfc9c9;stop-opacity:1"
         stop-color="#536161"
         id="stop1579" />
      <stop
         style="stop-color:#fbfbfb;stop-opacity:1"
         stop-color="#f4f5f5"
         offset="1"
         id="stop1581" />
    </linearGradient>
    <linearGradient
       xlink:href="#b-2"
       id="linearGradient4428"
       gradientUnits="userSpaceOnUse"
       x1="31.586"
       y1="36.345001"
       x2="1.2029999"
       y2="6.723" />
    <linearGradient
       xlink:href="#b-2"
       id="linearGradient4189-3"
       x1="14.369"
       y1="22.521999"
       x2="26.521999"
       y2="22.521999"
       gradientUnits="userSpaceOnUse"
       gradientTransform="translate(20.841982,61.553822)" />
    <linearGradient
       xlink:href="#b-2"
       id="linearGradient4428-5"
       gradientUnits="userSpaceOnUse"
       x1="31.586"
       y1="36.345001"
       x2="1.2029999"
       y2="6.723"
       gradientTransform="translate(20.841982,61.553822)" />
    <linearGradient
       xlink:href="#b-2"
       id="linearGradient4189-3-3"
       x1="14.369"
       y1="22.521999"
       x2="26.521999"
       y2="22.521999"
       gradientUnits="userSpaceOnUse"
       gradientTransform="translate(4.376802,4.4211693)" />
    <linearGradient
       xlink:href="#b-2"
       id="linearGradient4428-5-5"
       gradientUnits="userSpaceOnUse"
       x1="31.586"
       y1="36.345001"
       x2="1.2029999"
       y2="6.723"
       gradientTransform="translate(4.376802,4.4211693)" />
    <linearGradient
       inkscape:collect="always"
       xlink:href="#linearGradient14"
       id="linearGradient15"
       x1="-9.6850061"
       y1="45.161198"
       x2="11.98815"
       y2="21.735205"
       gradientUnits="userSpaceOnUse"
       gradientTransform="scale(0.26457813)" />
    <linearGradient
       id="linearGradient14"
       inkscape:collect="always">
      <stop
         style="stop-color:#9955ff;stop-opacity:0.45197046;"
         offset="0"
         id="stop12" />
      <stop
         style="stop-color:#00ccff;stop-opacity:1"
         offset="1"
         id="stop13" />
    </linearGradient>
    <linearGradient
       id="paint1_linear_12_87"
       x1="15.2741"
       y1="7.54773"
       x2="15.2741"
       y2="23"
       gradientUnits="userSpaceOnUse"
       gradientTransform="scale(0.26457811)">
      <stop
         stop-color="#DC18FC"
         id="stop4" />
      <stop
         offset="1"
         stop-color="#8E1EFF"
         id="stop5" />
    </linearGradient>
    <linearGradient
       inkscape:collect="always"
       xlink:href="#linearGradient14"
       id="linearGradient867"
       x1="-12.025727"
       y1="6.1170783"
       x2="-0.085100174"
       y2="6.1170783"
       gradientUnits="userSpaceOnUse" />
  </defs>
  <sodipodi:namedview
     id="namedview14"
     pagecolor="#000000"
     bordercolor="#666666"
     borderopacity="1.0"
     inkscape:showpageshadow="2"
     inkscape:pageopacity="0.0"
     inkscape:pagecheckerboard="0"
     inkscape:deskcolor="#d1d1d1"
     showgrid="false"
     inkscape:zoom="12.522228"
     inkscape:cx="19.844711"
     inkscape:cy="25.275054"
     inkscape:window-width="1920"
     inkscape:window-height="996"
     inkscape:window-x="0"
     inkscape:window-y="0"
     inkscape:window-maximized="1"
     inkscape:current-layer="svg12"
     inkscape:document-rotation="0">
    <inkscape:grid
       type="xygrid"
       id="grid244"
       originx="9.9594769"
       originy="-31.57929"
       spacingy="1"
       spacingx="1"
       units="px"
       visible="false" />
  </sodipodi:namedview>
  <rect
     x="-12.194976"
     y="0.32004508"
     width="11.940627"
     height="11.936014"
     rx="1.6121091"
     shape-rendering="crispEdges"
     id="rect5-6-7-3"
     ry="1.7735944"
     transform="matrix(0.00523883,-0.99998628,0.999988,0.00489859,0,0)"
     style="fill:#80b3ff;fill-opacity:0.15;stroke:url(#linearGradient867);stroke-width:0.5291563;stroke-miterlimit:4;stroke-dasharray:none;stroke-opacity:1" />
  <rect
     x="-3.7202365"
     y="4.8851409"
     width="7.912631"
     height="7.912384"
     rx="1.612043"
     shape-rendering="crispEdges"
     id="rect5-6-6-6-6"
     style="fill:#80b3ff;fill-opacity:0.122146;stroke:url(#linearGradient15);stroke-width:0.42332506;stroke-opacity:1;stroke-miterlimit:4;stroke-dasharray:none"
     ry="1.7735215"
     transform="matrix(0.72612649,-0.68756114,0.6879775,0.72573202,0,0)" />
  <g
     id="g2"
     transform="matrix(0.93985859,0,0,0.93956085,3.1114764,-13.263803)">
    <path
       style="opacity:0.2;stroke-width:0.194922"
       d="M 3.9674886,17.127952 A 3.7029124,3.704094 0 0 0 0.26457811,20.832046 3.7029124,3.704094 0 0 0 3.9674886,24.536138 3.7029124,3.704094 0 0 0 5.2780754,24.291714 L 5.0781559,23.519166 a 2.9094314,2.9103595 0 0 1 -1.1106673,0.223238 2.9094314,2.9103595 0 0 1 -2.9094295,-2.910358 2.9094314,2.9103595 0 0 1 2.9094295,-2.91036 2.9094314,2.9103595 0 0 1 1.1122169,0.222722 L 5.280659,17.37031 A 3.7029124,3.704094 0 0 0 3.9674886,17.127952 Z"
       id="path3" />
    <path
       style="fill:#8d5fd3;stroke-width:0.194922"
       d="M 3.9674886,16.933001 A 3.7029124,3.704094 0 0 0 0.26457811,20.637093 3.7029124,3.704094 0 0 0 3.9674886,24.341187 3.7029124,3.704094 0 0 0 5.2780754,24.096761 L 5.0781559,23.324215 a 2.9094314,2.9103595 0 0 1 -1.1106673,0.223238 2.9094314,2.9103595 0 0 1 -2.9094295,-2.91036 2.9094314,2.9103595 0 0 1 2.9094295,-2.910358 2.9094314,2.9103595 0 0 1 1.1122169,0.22272 L 5.280659,17.175358 A 3.7029124,3.704094 0 0 0 3.9674886,16.933001 Z"
       id="path4" />
    <path
       style="opacity:0.2;stroke-width:0.194922"
       d="m 3.9674886,18.297666 a 2.5335711,2.5343795 0 0 0 -2.5335712,2.53438 2.5335711,2.5343795 0 0 0 2.5335712,2.534379 2.5335711,2.5343795 0 0 0 1.0005628,-0.206414 L 4.7745702,22.411579 A 1.7734999,1.7740657 0 0 1 3.9674886,22.606111 1.7734999,1.7740657 0 0 1 2.1939891,20.832046 1.7734999,1.7740657 0 0 1 3.9674886,19.05798 1.7734999,1.7740657 0 0 1 4.7745702,19.254493 L 4.9680514,18.50705 A 2.5335711,2.5343795 0 0 0 3.9674886,18.297666 Z"
       id="path5" />
    <path
       style="fill:#8d5fd3;stroke-width:0.194922"
       d="m 3.9674886,18.102713 a 2.5335711,2.5343795 0 0 0 -2.5335712,2.53438 2.5335711,2.5343795 0 0 0 2.5335712,2.534379 2.5335711,2.5343795 0 0 0 1.0005628,-0.206412 L 4.7745702,22.216626 A 1.7734999,1.7740657 0 0 1 3.9674886,22.411158 1.7734999,1.7740657 0 0 1 2.1939891,20.637093 1.7734999,1.7740657 0 0 1 3.9674886,18.863027 1.7734999,1.7740657 0 0 1 4.7745702,19.059541 L 4.9680514,18.312097 A 2.5335711,2.5343795 0 0 0 3.9674886,18.102713 Z"
       id="path6" />
    <path
       style="opacity:0.2;stroke-width:0.194922"
       d="m 4.6364347,19.641778 a 1.3650497,1.3654852 0 0 0 -1.3372538,0.0013 L 3.4848766,20.34929 2.7776008,20.162908 a 1.3650497,1.3654852 0 0 0 0.00127,1.337681 l 0.706018,-0.185755 -0.1863236,0.7075 a 1.3650497,1.3654852 0 0 0 1.3372536,-0.0013 l -0.1856944,-0.706243 0.7072742,0.186383 a 1.3650497,1.3654852 0 0 0 -0.00127,-1.33768 l -0.706017,0.185753 z"
       id="path7" />
    <path
       style="fill:#c83771;stroke-width:0.194922"
       d="m 4.6364347,19.446825 a 1.3650497,1.3654852 0 0 0 -1.3372538,0.0013 l 0.1856957,0.706244 -0.7072758,-0.186384 a 1.3650497,1.3654852 0 0 0 0.00127,1.337681 l 0.706018,-0.185754 -0.1863236,0.7075 a 1.3650497,1.3654852 0 0 0 1.3372536,-0.0013 L 4.4501223,21.11987 5.1573965,21.306252 a 1.3650497,1.3654852 0 0 0 -0.00127,-1.33768 l -0.7060167,0.185755 z"
       id="path8" />
    <path
       style="opacity:0.2;fill:#ffffff;stroke-width:0.194922"
       d="m 3.9674886,16.933001 a 3.7029124,3.704094 0 0 0 -3.70291049,3.704092 3.7029124,3.704094 0 0 0 0.004183,0.07958 3.7029124,3.704094 0 0 1 3.69872409,-3.588721 3.7029124,3.704094 0 0 1 1.2664054,0.226937 l 0.04682,-0.179722 a 3.7029124,3.704094 0 0 0 -1.313222,-0.242166 z m -2.9050791,3.818322 a 2.9094314,2.9103595 0 0 0 -0.00418,0.08072 2.9094314,2.9103595 0 0 0 2.9092677,2.910195 2.9094314,2.9103595 0 0 0 1.110722,-0.223128 l 0.1534,0.593614 a 3.7029124,3.704094 0 0 0 0.046438,-0.016 L 5.078213,23.324157 A 2.9094314,2.9103595 0 0 1 3.967491,23.547286 2.9094314,2.9103595 0 0 1 1.0624106,20.75132 Z"
       id="path10" />
    <path
       style="opacity:0.2;fill:#ffffff;stroke-width:0.194922"
       d="m 3.9674886,18.102713 a 2.5335711,2.5343795 0 0 0 -2.5335712,2.53438 2.5335711,2.5343795 0 0 0 0.00418,0.08186 2.5335711,2.5343795 0 0 1 2.5293832,-2.421291 2.5335711,2.5343795 0 0 1 0.9546566,0.192286 l 0.04606,-0.177816 A 2.5335711,2.5343795 0 0 0 3.967487,18.102713 Z m -1.7696171,2.650895 a 1.7734999,1.7740657 0 0 0 -0.00381,0.07844 1.7734999,1.7740657 0 0 0 1.7734239,1.77399 1.7734999,1.7740657 0 0 0 0.8069673,-0.194572 l 0.1476894,0.571149 a 2.5335711,2.5343795 0 0 0 0.046059,-0.01751 l -0.193745,-0.74859 A 1.7734999,1.7740657 0 0 1 3.9674862,22.411086 1.7734999,1.7740657 0 0 1 2.1978691,20.753611 Z"
       id="path11" />
    <path
       style="opacity:0.2;fill:#ffffff;stroke-width:0.194922"
       d="M 3.983857,19.272427 A 1.3650497,1.3654852 0 0 0 3.2990767,19.44796 l 0.045296,0.171726 a 1.3650497,1.3654852 0 0 1 1.2466131,-3.97e-4 l 0.045297,-0.172486 A 1.3650497,1.3654852 0 0 0 3.983857,19.272421 Z m -1.2062628,0.69566 A 1.3650497,1.3654852 0 0 0 2.6078263,20.7399 1.3650497,1.3654852 0 0 1 2.7775942,20.163039 l 0.7072375,0.186196 -0.055194,-0.209423 z m 2.3786482,3.97e-4 -0.6509019,0.171345 -0.055195,0.209422 0.7060966,-0.185814 a 1.3650497,1.3654852 0 0 1 0.1709101,0.565819 1.3650497,1.3654852 0 0 0 -0.1709098,-0.760772 z m -1.6714107,1.34639 -0.055193,0.01447 -0.1309416,0.498042 a 1.3650497,1.3654852 0 0 0 0.045297,0.02247 z m 0.9653141,0 0.1404587,0.534595 a 1.3650497,1.3654852 0 0 0 0.045296,-0.02323 l -0.13056,-0.496899 z"
       id="path12" />
  </g>
</svg>
