<?xml version="1.0" encoding="UTF-8" standalone="no"?>
<svg
   width="47.285591"
   height="47.28569"
   version="1.1"
   viewBox="0 0 12.510734 12.51076"
   id="svg12"
   sodipodi:docname="system-file-manager_su.svg"
   inkscape:version="1.4 (e7c3feb100, 2024-10-09)"
   xmlns:inkscape="http://www.inkscape.org/namespaces/inkscape"
   xmlns:sodipodi="http://sodipodi.sourceforge.net/DTD/sodipodi-0.dtd"
   xmlns:xlink="http://www.w3.org/1999/xlink"
   xmlns="http://www.w3.org/2000/svg"
   xmlns:svg="http://www.w3.org/2000/svg"
   xmlns:rdf="http://www.w3.org/1999/02/22-rdf-syntax-ns#"
   xmlns:cc="http://creativecommons.org/ns#"
   xmlns:dc="http://purl.org/dc/elements/1.1/">
  <style
     id="style883" />
  <metadata
     id="metadata58">
    <rdf:RDF>
      <cc:Work
         rdf:about="">
        <dc:format>image/svg+xml</dc:format>
        <dc:type
           rdf:resource="http://purl.org/dc/dcmitype/StillImage" />
      </cc:Work>
    </rdf:RDF>
  </metadata>
  <defs
     id="defs16">
    <linearGradient
       id="c"
       y1="523.79999"
       x1="403.57001"
       y2="536.79999"
       x2="416.57001"
       gradientUnits="userSpaceOnUse"
       gradientTransform="matrix(0.34526714,0,0,0.34526706,-134.80427,-174.63325)">
      <stop
         stop-color="#292c2f"
         id="stop1568" />
      <stop
         offset="1"
         stop-opacity="0"
         id="stop1570" />
    </linearGradient>
    <linearGradient
       xlink:href="#b-2"
       id="linearGradient4189"
       x1="14.369"
       y1="22.521999"
       x2="26.521999"
       y2="22.521999"
       gradientUnits="userSpaceOnUse" />
    <linearGradient
       x1="36"
       gradientUnits="userSpaceOnUse"
       x2="14"
       y2="12"
       y1="44"
       id="b-2">
      <stop
         style="stop-color:#bfc9c9;stop-opacity:1"
         stop-color="#536161"
         id="stop1579" />
      <stop
         style="stop-color:#fbfbfb;stop-opacity:1"
         stop-color="#f4f5f5"
         offset="1"
         id="stop1581" />
    </linearGradient>
    <linearGradient
       xlink:href="#b-2"
       id="linearGradient4428"
       gradientUnits="userSpaceOnUse"
       x1="31.586"
       y1="36.345001"
       x2="1.2029999"
       y2="6.723" />
    <linearGradient
       xlink:href="#b-2"
       id="linearGradient4189-3"
       x1="14.369"
       y1="22.521999"
       x2="26.521999"
       y2="22.521999"
       gradientUnits="userSpaceOnUse"
       gradientTransform="translate(20.841982,61.553822)" />
    <linearGradient
       xlink:href="#b-2"
       id="linearGradient4428-5"
       gradientUnits="userSpaceOnUse"
       x1="31.586"
       y1="36.345001"
       x2="1.2029999"
       y2="6.723"
       gradientTransform="translate(20.841982,61.553822)" />
    <linearGradient
       xlink:href="#b-2"
       id="linearGradient4189-3-3"
       x1="14.369"
       y1="22.521999"
       x2="26.521999"
       y2="22.521999"
       gradientUnits="userSpaceOnUse"
       gradientTransform="translate(4.376802,4.4211693)" />
    <linearGradient
       xlink:href="#b-2"
       id="linearGradient4428-5-5"
       gradientUnits="userSpaceOnUse"
       x1="31.586"
       y1="36.345001"
       x2="1.2029999"
       y2="6.723"
       gradientTransform="translate(4.376802,4.4211693)" />
    <linearGradient
       inkscape:collect="always"
       xlink:href="#k"
       id="linearGradient15"
       x1="-9.6850061"
       y1="45.161198"
       x2="11.98815"
       y2="21.735205"
       gradientUnits="userSpaceOnUse"
       gradientTransform="scale(0.26457813)" />
    <filter
       id="filter2917-3"
       x="-0.96181148"
       y="-0.66745996"
       width="2.9236228"
       height="2.3349199"
       color-interpolation-filters="sRGB">
      <feGaussianBlur
         stdDeviation="0.2871969"
         id="feGaussianBlur732-5" />
    </filter>
    <filter
       id="filter1"
       x="-0.96181148"
       y="-0.66745996"
       width="2.9236228"
       height="2.3349199"
       color-interpolation-filters="sRGB">
      <feGaussianBlur
         stdDeviation="0.2871969"
         id="feGaussianBlur1" />
    </filter>
    <filter
       id="filter2"
       x="-0.96181148"
       y="-0.66745996"
       width="2.9236228"
       height="2.3349199"
       color-interpolation-filters="sRGB">
      <feGaussianBlur
         stdDeviation="0.2871969"
         id="feGaussianBlur2" />
    </filter>
    <linearGradient
       id="l"
       x1="27.447001"
       x2="25.966"
       y1="289.76001"
       y2="289.76001"
       gradientTransform="matrix(0.94283,0,0,0.9628,-16.618,11.67)"
       gradientUnits="userSpaceOnUse">
      <stop
         stop-color="#1881ce"
         offset="0"
         id="stop19" />
      <stop
         stop-color="#2980b9"
         offset="1"
         id="stop21" />
    </linearGradient>
    <linearGradient
       id="j"
       x1="10.692"
       x2="34.026001"
       y1="14.134"
       y2="29.068001"
       gradientTransform="matrix(0.24946,0,0,0.25474,0.77251,285.56)"
       gradientUnits="userSpaceOnUse">
      <stop
         stop-color="#349cd2"
         offset="0"
         id="stop7" />
      <stop
         stop-color="#2694d9"
         offset=".74017"
         id="stop9" />
      <stop
         stop-color="#0e6daa"
         offset="1"
         id="stop11-3" />
    </linearGradient>
    <linearGradient
       id="k"
       x1="21.274"
       x2="27.447001"
       y1="291.29999"
       y2="287.35001"
       gradientTransform="matrix(0.94283,0,0,0.9628,-16.618,11.67)"
       gradientUnits="userSpaceOnUse">
      <stop
         stop-color="#1d99f3"
         offset="0"
         id="stop14"
         style="stop-color:#c83771;stop-opacity:1;" />
      <stop
         stop-color="#3daee9"
         offset="1"
         id="stop16"
         style="stop-color:#a22d5c;stop-opacity:1;" />
    </linearGradient>
    <linearGradient
       inkscape:collect="always"
       xlink:href="#k"
       id="linearGradient891"
       x1="-12.025727"
       y1="6.1170783"
       x2="-0.085100174"
       y2="6.1170783"
       gradientUnits="userSpaceOnUse" />
  </defs>
  <sodipodi:namedview
     id="namedview14"
     pagecolor="#000000"
     bordercolor="#666666"
     borderopacity="1.0"
     inkscape:showpageshadow="2"
     inkscape:pageopacity="0.0"
     inkscape:pagecheckerboard="0"
     inkscape:deskcolor="#d1d1d1"
     showgrid="false"
     inkscape:zoom="8.8545525"
     inkscape:cx="30.210448"
     inkscape:cy="38.511263"
     inkscape:window-width="1920"
     inkscape:window-height="994"
     inkscape:window-x="0"
     inkscape:window-y="0"
     inkscape:window-maximized="1"
     inkscape:current-layer="svg12"
     inkscape:document-rotation="0">
    <inkscape:grid
       type="xygrid"
       id="grid244"
       originx="9.9594769"
       originy="-31.57929"
       spacingy="1"
       spacingx="1"
       units="px"
       visible="false" />
  </sodipodi:namedview>
  <rect
     x="-12.194976"
     y="0.32004508"
     width="11.940627"
     height="11.936014"
     rx="1.6121091"
     shape-rendering="crispEdges"
     id="rect5-6-7-3"
     ry="1.7735944"
     transform="matrix(0.00523883,-0.99998628,0.999988,0.00489859,0,0)"
     style="fill:#80b3ff;fill-opacity:0.15;stroke:url(#linearGradient891);stroke-width:0.5291563;stroke-miterlimit:4;stroke-dasharray:none;stroke-opacity:1" />
  <rect
     x="-3.7202365"
     y="4.8851409"
     width="7.912631"
     height="7.912384"
     rx="1.612043"
     shape-rendering="crispEdges"
     id="rect5-6-6-6-6"
     style="fill:#80b3ff;fill-opacity:0.122146;stroke:url(#linearGradient15);stroke-width:0.39686725;stroke-opacity:1;stroke-miterlimit:4;stroke-dasharray:none"
     ry="1.7735215"
     transform="matrix(0.72612649,-0.68756114,0.6879775,0.72573202,0,0)" />
  <path
     d="M 9.2697689,4.990639 C 9.2809023,4.728651 9.0350965,4.458354 8.9351064,4.360818 8.3824542,2.770395 6.3981745,3.32628 6.0107273,3.452617 5.0012091,2.723028 4.223611,3.500387 4.2166542,3.508067 c -0.037443,0.0374 -0.054102,0.09649 -0.043031,0.152863 0.01112,0.05485 0.048649,0.09942 0.097219,0.115295 0.3110709,0.101111 0.5457361,0.443925 0.6442882,0.609574 -0.7248308,0.964822 -0.7512085,2.33972 -0.744276,2.69344 -0.9039931,0.851 -0.6179254,1.727404 -0.6040689,1.765487 0.019417,0.05487 0.063899,0.09505 0.1166747,0.09925 0.00379,0 0.00841,0 0.012411,0 0.047247,0 0.093069,-0.0286 0.11806,-0.07543 0.165247,-0.303016 0.3721681,-0.485873 0.6137565,-0.544628 0.4318301,-0.103799 0.8511973,0.21366 0.8553589,0.216499 0.031905,0.02514 0.072199,0.03453 0.1110654,0.02099 0.037534,-0.0085 0.070802,-0.03948 0.088861,-0.0793 C 5.7009672,8.025904 5.3635409,7.444631 5.2385529,7.253944 5.3982115,6.482831 5.7898255,6.035979 6.0966737,5.79448 l -0.062443,0.118555 c -0.019412,0.03946 -0.025,0.08469 -0.012552,0.128009 0.011086,0.04429 0.038907,0.07889 0.075022,0.09774 0.1360463,0.06734 0.3262905,0.07414 0.5679442,0.01547 C 6.866022,6.104474 7.060407,5.98669 7.2270465,5.81148 7.4450308,5.584072 7.6880707,5.5667 7.6880707,5.5667 h 1.3803 c 0.031944,0 0.061097,-0.01052 0.086089,-0.03293 C 9.272516,5.427999 9.3058024,5.312923 9.3141133,5.233958 9.3253053,5.129219 9.2962173,5.040913 9.2698353,4.984261 Z M 8.2935962,4.819996 h -0.076391 c -0.07639,0 -0.1388969,-0.07053 -0.1388969,-0.157984 0,-0.08731 0.062488,-0.157783 0.1388969,-0.157783 h 0.076391 c 0.07776,0 0.1388797,0.07031 0.1388797,0.157783 0,0.08709 -0.061087,0.157984 -0.1388797,0.157984 z"
     id="path49-5-3-5-5-2-6-3-3-3-2"
     style="fill:#c83771;fill-opacity:1;stroke-width:0.0208847"
     class=" " />
</svg>
