<?xml version="1.0" encoding="UTF-8" standalone="no"?>
<svg
   width="47.285591"
   height="47.28569"
   version="1.1"
   viewBox="0 0 12.510734 12.51076"
   id="svg12"
   sodipodi:docname="org.nicotine_plus.Nicotine-msg.svg"
   inkscape:version="1.3.2 (091e20ef0f, 2023-11-25)"
   xmlns:inkscape="http://www.inkscape.org/namespaces/inkscape"
   xmlns:sodipodi="http://sodipodi.sourceforge.net/DTD/sodipodi-0.dtd"
   xmlns:xlink="http://www.w3.org/1999/xlink"
   xmlns="http://www.w3.org/2000/svg"
   xmlns:svg="http://www.w3.org/2000/svg"
   xmlns:rdf="http://www.w3.org/1999/02/22-rdf-syntax-ns#"
   xmlns:cc="http://creativecommons.org/ns#"
   xmlns:dc="http://purl.org/dc/elements/1.1/">
  <style
     id="style899" />
  <metadata
     id="metadata74">
    <rdf:RDF>
      <cc:Work
         rdf:about="">
        <dc:format>image/svg+xml</dc:format>
        <dc:type
           rdf:resource="http://purl.org/dc/dcmitype/StillImage" />
      </cc:Work>
    </rdf:RDF>
  </metadata>
  <defs
     id="defs16">
    <linearGradient
       id="c"
       y1="523.79999"
       x1="403.57001"
       y2="536.79999"
       x2="416.57001"
       gradientUnits="userSpaceOnUse"
       gradientTransform="matrix(0.34526714,0,0,0.34526706,-134.80427,-174.63325)">
      <stop
         stop-color="#292c2f"
         id="stop1568" />
      <stop
         offset="1"
         stop-opacity="0"
         id="stop1570" />
    </linearGradient>
    <linearGradient
       xlink:href="#b-2"
       id="linearGradient4189"
       x1="14.369"
       y1="22.521999"
       x2="26.521999"
       y2="22.521999"
       gradientUnits="userSpaceOnUse" />
    <linearGradient
       x1="36"
       gradientUnits="userSpaceOnUse"
       x2="14"
       y2="12"
       y1="44"
       id="b-2">
      <stop
         style="stop-color:#bfc9c9;stop-opacity:1"
         stop-color="#536161"
         id="stop1579" />
      <stop
         style="stop-color:#fbfbfb;stop-opacity:1"
         stop-color="#f4f5f5"
         offset="1"
         id="stop1581" />
    </linearGradient>
    <linearGradient
       xlink:href="#b-2"
       id="linearGradient4428"
       gradientUnits="userSpaceOnUse"
       x1="31.586"
       y1="36.345001"
       x2="1.2029999"
       y2="6.723" />
    <linearGradient
       xlink:href="#b-2"
       id="linearGradient4189-3"
       x1="14.369"
       y1="22.521999"
       x2="26.521999"
       y2="22.521999"
       gradientUnits="userSpaceOnUse"
       gradientTransform="translate(20.841982,61.553822)" />
    <linearGradient
       xlink:href="#b-2"
       id="linearGradient4428-5"
       gradientUnits="userSpaceOnUse"
       x1="31.586"
       y1="36.345001"
       x2="1.2029999"
       y2="6.723"
       gradientTransform="translate(20.841982,61.553822)" />
    <linearGradient
       xlink:href="#b-2"
       id="linearGradient4189-3-3"
       x1="14.369"
       y1="22.521999"
       x2="26.521999"
       y2="22.521999"
       gradientUnits="userSpaceOnUse"
       gradientTransform="translate(4.376802,4.4211693)" />
    <linearGradient
       xlink:href="#b-2"
       id="linearGradient4428-5-5"
       gradientUnits="userSpaceOnUse"
       x1="31.586"
       y1="36.345001"
       x2="1.2029999"
       y2="6.723"
       gradientTransform="translate(4.376802,4.4211693)" />
    <linearGradient
       inkscape:collect="always"
       xlink:href="#linearGradient14"
       id="linearGradient15"
       x1="-9.6850061"
       y1="45.161198"
       x2="11.98815"
       y2="21.735205"
       gradientUnits="userSpaceOnUse"
       gradientTransform="scale(0.26457813)" />
    <linearGradient
       id="linearGradient14"
       inkscape:collect="always">
      <stop
         style="stop-color:#ff9900;stop-opacity:0.34509805;"
         offset="0"
         id="stop12" />
      <stop
         style="stop-color:#ffb685;stop-opacity:0.81568629;"
         offset="1"
         id="stop13" />
    </linearGradient>
    <filter
       id="filter2917-3"
       x="-0.96181148"
       y="-0.66745996"
       width="2.9236228"
       height="2.3349199"
       color-interpolation-filters="sRGB">
      <feGaussianBlur
         stdDeviation="0.2871969"
         id="feGaussianBlur732-5" />
    </filter>
    <filter
       id="filter1"
       x="-0.96181148"
       y="-0.66745996"
       width="2.9236228"
       height="2.3349199"
       color-interpolation-filters="sRGB">
      <feGaussianBlur
         stdDeviation="0.2871969"
         id="feGaussianBlur1" />
    </filter>
    <filter
       id="filter2"
       x="-0.96181148"
       y="-0.66745996"
       width="2.9236228"
       height="2.3349199"
       color-interpolation-filters="sRGB">
      <feGaussianBlur
         stdDeviation="0.2871969"
         id="feGaussianBlur2" />
    </filter>
    <linearGradient
       id="_lgradient_20"
       x1="-0.29991642"
       y1="-0.26140401"
       x2="0.96725708"
       y2="0.86616999"
       gradientTransform="matrix(15.137397,0,0,16.82717,0.89780187,0.05291536)"
       gradientUnits="userSpaceOnUse">
      <stop
         offset="34.94098066785295%"
         stop-opacity="1"
         style="stop-color:rgb(178,229,107)"
         id="stop1" />
      <stop
         offset="53.84922244785295%"
         stop-opacity="1"
         style="stop-color:rgb(194,233,100)"
         id="stop2" />
      <stop
         offset="90.40515655585295%"
         stop-opacity="1"
         style="stop-color:rgb(236,244,81)"
         id="stop3" />
      <stop
         offset="100%"
         stop-opacity="1"
         style="stop-color:rgb(250,247,75)"
         id="stop4" />
    </linearGradient>
    <linearGradient
       id="b-2-5"
       y1="35.825909"
       y2="-4.1468086"
       gradientUnits="userSpaceOnUse"
       x2="1.525889"
       gradientTransform="matrix(0.18808708,0,0,0.18779368,2.9505234,2.8105876)"
       x1="0.19073613">
      <stop
         stop-color="#d35400"
         id="stop7-9-6"
         offset="0"
         style="stop-color:#ff9e5e;stop-opacity:1;" />
      <stop
         offset="1"
         stop-color="#f67400"
         stop-opacity=".941"
         id="stop9-1-2" />
    </linearGradient>
    <linearGradient
       id="linearGradient4308">
      <stop
         style="stop-color:#884d2c;stop-opacity:1"
         offset="0"
         id="stop363" />
      <stop
         style="stop-color:#ffc169;stop-opacity:1"
         offset="1"
         id="stop365" />
    </linearGradient>
    <linearGradient
       id="linearGradient4513">
      <stop
         style="stop-color:#000000;stop-opacity:1;"
         offset="0"
         id="stop353" />
      <stop
         style="stop-color:#000000;stop-opacity:0;"
         offset="1"
         id="stop355" />
    </linearGradient>
    <linearGradient
       id="linearGradient4325">
      <stop
         offset="0"
         style="stop-color:#2a2c2f;stop-opacity:1"
         id="stop358" />
      <stop
         offset="1"
         style="stop-color:#424649;stop-opacity:1"
         id="stop360" />
    </linearGradient>
    <linearGradient
       id="a"
       gradientUnits="userSpaceOnUse"
       x1="25"
       x2="25"
       y1="6"
       y2="26">
      <stop
         offset="0"
         id="stop1047" />
      <stop
         offset="1"
         stop-color="#292c2f"
         id="stop1049" />
    </linearGradient>
    <linearGradient
       inkscape:collect="always"
       xlink:href="#linearGradient4308"
       id="linearGradient907"
       x1="-12.025727"
       y1="6.1170783"
       x2="-0.085100174"
       y2="6.1170783"
       gradientUnits="userSpaceOnUse" />
    <linearGradient
       id="linearGradient4"
       inkscape:collect="always">
      <stop
         style="stop-color:#ffdd55;stop-opacity:1;"
         offset="0"
         id="stop4-3" />
      <stop
         style="stop-color:#ff5555;stop-opacity:1"
         offset="1"
         id="stop5" />
    </linearGradient>
    <linearGradient
       inkscape:collect="always"
       xlink:href="#linearGradient4"
       id="linearGradient3480"
       x1="10.2306"
       y1="512.00641"
       x2="1013.7506"
       y2="512.00641"
       gradientUnits="userSpaceOnUse" />
    <filter
       inkscape:collect="always"
       style="color-interpolation-filters:sRGB"
       id="filter3"
       x="-0.13912554"
       y="-0.15581932"
       width="1.2782511"
       height="1.3116386">
      <feGaussianBlur
         inkscape:collect="always"
         stdDeviation="8.430934"
         id="feGaussianBlur3" />
    </filter>
    <linearGradient
       inkscape:collect="always"
       xlink:href="#linearGradient5-3"
       id="linearGradient6"
       x1="-9.9871616"
       y1="-13.826643"
       x2="131.47385"
       y2="142.43074"
       gradientUnits="userSpaceOnUse"
       gradientTransform="matrix(1.2983276,0,0,1.3074445,10.769284,5.6836876)" />
    <linearGradient
       id="linearGradient5-3"
       inkscape:collect="always">
      <stop
         style="stop-color:#ffcba7;stop-opacity:1;"
         offset="0"
         id="stop5-3" />
      <stop
         style="stop-color:#ff8f44;stop-opacity:1;"
         offset="1"
         id="stop6-6" />
    </linearGradient>
  </defs>
  <sodipodi:namedview
     id="namedview14"
     pagecolor="#000000"
     bordercolor="#666666"
     borderopacity="1.0"
     inkscape:showpageshadow="2"
     inkscape:pageopacity="0.0"
     inkscape:pagecheckerboard="0"
     inkscape:deskcolor="#d1d1d1"
     showgrid="false"
     inkscape:zoom="11.044844"
     inkscape:cx="50.521311"
     inkscape:cy="22.816076"
     inkscape:window-width="1920"
     inkscape:window-height="1004"
     inkscape:window-x="0"
     inkscape:window-y="0"
     inkscape:window-maximized="1"
     inkscape:current-layer="svg12"
     inkscape:document-rotation="0">
    <inkscape:grid
       type="xygrid"
       id="grid244"
       originx="9.9594769"
       originy="-31.57929"
       spacingy="1"
       spacingx="1"
       units="px"
       visible="false" />
  </sodipodi:namedview>
  <rect
     x="-12.194976"
     y="0.32004508"
     width="11.940627"
     height="11.936014"
     rx="1.6121091"
     shape-rendering="crispEdges"
     id="rect5-6-7-3"
     ry="1.7735944"
     transform="matrix(0.00523883,-0.99998628,0.999988,0.00489859,0,0)"
     style="fill:#ffe0cc;fill-opacity:0.0980392;stroke:url(#linearGradient907);stroke-width:0.5291563;stroke-miterlimit:4;stroke-dasharray:none;stroke-opacity:1" />
  <rect
     x="-3.7202365"
     y="4.8851409"
     width="7.912631"
     height="7.912384"
     rx="1.612043"
     shape-rendering="crispEdges"
     id="rect5-6-6-6-6"
     style="fill:#ffc299;fill-opacity:0.101961;stroke:url(#linearGradient15);stroke-width:0.39686725;stroke-opacity:1;stroke-miterlimit:4;stroke-dasharray:none"
     ry="1.7735215"
     transform="matrix(0.72612649,-0.68756114,0.6879775,0.72573202,0,0)" />
  <g
     id="g3"
     transform="matrix(0.04055679,0,0,0.04038518,3.9090479,3.6605304)"
     style="stroke-width:1.84225">
    <path
       fill="#f9aa40"
       d="M -4.7229076,4.2663576 V 123.73389 a 5.1942403,5.1942403 0 0 0 5.19424028,5.19424 H 16.054053 a 5.1942403,5.1942403 0 0 0 5.194241,-5.19424 V 25.043319 h 5.19424 c 2.869818,0 7.557619,-0.105183 10.352121,0.516827 5.40201,1.202467 8.705546,4.506003 9.908013,9.908013 0.623309,2.794502 0.516827,7.482303 0.516827,10.352121 v 77.91361 a 5.1942403,5.1942403 0 0 0 5.19424,5.19424 h 15.582721 a 5.1942403,5.1942403 0 0 0 5.19424,-5.19424 v -15.58273 h 20.776961 v 15.58273 a 5.1942403,5.1942403 0 0 0 5.19424,5.19424 h 15.582723 a 5.1942403,5.1942403 0 0 0 5.19424,-5.19424 v -15.58273 h 15.58272 a 5.1942403,5.1942403 0 0 0 5.19424,-5.19424 V 92.568442 a 5.1942403,5.1942403 0 0 0 -5.19424,-5.19424 H 119.93886 V 66.597241 a 5.1942403,5.1942403 0 0 0 -5.19424,-5.19424 H 99.161897 a 5.1942403,5.1942403 0 0 0 -5.19424,5.19424 V 87.374202 H 73.190696 V 45.82028 c 0,-2.869818 0.02987,-7.53035 -0.318147,-10.375495 C 70.772777,18.281717 58.488399,2.3159204 42.000582,-0.49156637 c -2.824368,-0.4804673 -7.49399,-0.4363162 -10.363808,-0.4363162 H 0.47133268 A 5.1942403,5.1942403 0 0 0 -4.7229076,4.2663576 Z"
       id="path2"
       style="opacity:0.25;fill:#000000;fill-opacity:1;stroke-width:2.39214;filter:url(#filter3)" />
    <path
       fill="#f9aa40"
       d="M -4.7218437,4.2680101 V 123.73309 a 5.1941339,5.1941339 0 0 0 5.19413321,5.19414 H 16.054689 a 5.1941339,5.1941339 0 0 0 5.194137,-5.19414 V 25.044546 h 5.194133 c 2.869757,0 7.557463,-0.105184 10.35191,0.516815 5.401896,1.202444 8.705367,4.505912 9.907808,9.907812 0.623297,2.794443 0.516818,7.482149 0.516818,10.351906 v 77.912011 a 5.1941339,5.1941339 0 0 0 5.194133,5.19414 h 15.5824 a 5.1941339,5.1941339 0 0 0 5.194133,-5.19414 v -15.58241 h 20.776536 v 15.58241 a 5.1941339,5.1941339 0 0 0 5.194133,5.19414 h 15.5824 a 5.1941339,5.1941339 0 0 0 5.19414,-5.19414 v -15.58241 h 15.5824 a 5.1941339,5.1941339 0 0 0 5.19413,-5.19413 V 92.568285 a 5.1941339,5.1941339 0 0 0 -5.19413,-5.194134 h -15.5824 V 66.597615 a 5.1941339,5.1941339 0 0 0 -5.19414,-5.194133 h -15.5824 a 5.1941339,5.1941339 0 0 0 -5.194133,5.194133 V 87.374151 H 73.190161 V 45.821079 c 0,-2.869757 0.02981,-7.530195 -0.318143,-10.375282 C 70.77229,18.283082 58.488163,2.3176125 42.000684,-0.4898186 39.176375,-0.9702727 34.506849,-0.926123 31.637088,-0.926123 H 0.47228596 A 5.1941339,5.1941339 0 0 0 -4.7218437,4.2680101 Z"
       id="path2-7"
       style="fill:url(#linearGradient6);fill-opacity:1;stroke-width:2.39212" />
  </g>
  <ellipse
     style="fill:#66a3ff;fill-opacity:1;stroke:#66a3ff;stroke-width:0.813842;stroke-linejoin:round;stroke-dasharray:none;stroke-opacity:1;paint-order:stroke fill markers"
     id="path1"
     cx="8.2498112"
     cy="4.6813984"
     rx="0.65139133"
     ry="0.65139139" />
  <ellipse
     style="fill:#0066ff;fill-opacity:1;stroke:#66a3ff;stroke-width:0.813842;stroke-linejoin:round;stroke-opacity:1;paint-order:stroke fill markers"
     id="path3-3"
     cx="8.2498112"
     cy="4.6813984"
     rx="0.2531209"
     ry="0.25452426" />
</svg>
