<?xml version="1.0" encoding="UTF-8" standalone="no"?>
<svg
   width="47.285591"
   height="47.28569"
   version="1.1"
   viewBox="0 0 12.510734 12.51076"
   id="svg12"
   sodipodi:docname="portal-reloaded.svg"
   inkscape:version="1.4 (unknown)"
   xmlns:inkscape="http://www.inkscape.org/namespaces/inkscape"
   xmlns:sodipodi="http://sodipodi.sourceforge.net/DTD/sodipodi-0.dtd"
   xmlns:xlink="http://www.w3.org/1999/xlink"
   xmlns="http://www.w3.org/2000/svg"
   xmlns:svg="http://www.w3.org/2000/svg"
   xmlns:rdf="http://www.w3.org/1999/02/22-rdf-syntax-ns#"
   xmlns:cc="http://creativecommons.org/ns#"
   xmlns:dc="http://purl.org/dc/elements/1.1/">
  <style
     id="style864" />
  <metadata
     id="metadata39">
    <rdf:RDF>
      <cc:Work
         rdf:about="">
        <dc:format>image/svg+xml</dc:format>
        <dc:type
           rdf:resource="http://purl.org/dc/dcmitype/StillImage" />
      </cc:Work>
    </rdf:RDF>
  </metadata>
  <defs
     id="defs16">
    <linearGradient
       id="c"
       y1="523.79999"
       x1="403.57001"
       y2="536.79999"
       x2="416.57001"
       gradientUnits="userSpaceOnUse"
       gradientTransform="matrix(0.34526714,0,0,0.34526706,-134.80427,-174.63325)">
      <stop
         stop-color="#292c2f"
         id="stop1568" />
      <stop
         offset="1"
         stop-opacity="0"
         id="stop1570" />
    </linearGradient>
    <linearGradient
       xlink:href="#b-2"
       id="linearGradient4189"
       x1="14.369"
       y1="22.521999"
       x2="26.521999"
       y2="22.521999"
       gradientUnits="userSpaceOnUse" />
    <linearGradient
       x1="36"
       gradientUnits="userSpaceOnUse"
       x2="14"
       y2="12"
       y1="44"
       id="b-2">
      <stop
         style="stop-color:#bfc9c9;stop-opacity:1"
         stop-color="#536161"
         id="stop1579" />
      <stop
         style="stop-color:#fbfbfb;stop-opacity:1"
         stop-color="#f4f5f5"
         offset="1"
         id="stop1581" />
    </linearGradient>
    <linearGradient
       xlink:href="#b-2"
       id="linearGradient4428"
       gradientUnits="userSpaceOnUse"
       x1="31.586"
       y1="36.345001"
       x2="1.2029999"
       y2="6.723" />
    <linearGradient
       xlink:href="#b-2"
       id="linearGradient4189-3"
       x1="14.369"
       y1="22.521999"
       x2="26.521999"
       y2="22.521999"
       gradientUnits="userSpaceOnUse"
       gradientTransform="translate(20.841982,61.553822)" />
    <linearGradient
       xlink:href="#b-2"
       id="linearGradient4428-5"
       gradientUnits="userSpaceOnUse"
       x1="31.586"
       y1="36.345001"
       x2="1.2029999"
       y2="6.723"
       gradientTransform="translate(20.841982,61.553822)" />
    <linearGradient
       xlink:href="#b-2"
       id="linearGradient4189-3-3"
       x1="14.369"
       y1="22.521999"
       x2="26.521999"
       y2="22.521999"
       gradientUnits="userSpaceOnUse"
       gradientTransform="translate(4.376802,4.4211693)" />
    <linearGradient
       xlink:href="#b-2"
       id="linearGradient4428-5-5"
       gradientUnits="userSpaceOnUse"
       x1="31.586"
       y1="36.345001"
       x2="1.2029999"
       y2="6.723"
       gradientTransform="translate(4.376802,4.4211693)" />
    <linearGradient
       inkscape:collect="always"
       xlink:href="#linearGradient14"
       id="linearGradient15"
       x1="-9.6850061"
       y1="45.161198"
       x2="11.98815"
       y2="21.735205"
       gradientUnits="userSpaceOnUse"
       gradientTransform="scale(0.26457813)" />
    <linearGradient
       id="linearGradient14"
       inkscape:collect="always">
      <stop
         style="stop-color:#00a489;stop-opacity:0.83128077;"
         offset="0"
         id="stop12" />
      <stop
         style="stop-color:#00a489;stop-opacity:1;"
         offset="1"
         id="stop13" />
    </linearGradient>
    <filter
       id="filter2917-3"
       x="-0.96181148"
       y="-0.66745996"
       width="2.9236228"
       height="2.3349199"
       color-interpolation-filters="sRGB">
      <feGaussianBlur
         stdDeviation="0.2871969"
         id="feGaussianBlur732-5" />
    </filter>
    <filter
       id="filter1"
       x="-0.96181148"
       y="-0.66745996"
       width="2.9236228"
       height="2.3349199"
       color-interpolation-filters="sRGB">
      <feGaussianBlur
         stdDeviation="0.2871969"
         id="feGaussianBlur1" />
    </filter>
    <filter
       id="filter2"
       x="-0.96181148"
       y="-0.66745996"
       width="2.9236228"
       height="2.3349199"
       color-interpolation-filters="sRGB">
      <feGaussianBlur
         stdDeviation="0.2871969"
         id="feGaussianBlur2" />
    </filter>
    <linearGradient
       inkscape:collect="always"
       xlink:href="#linearGradient14"
       id="linearGradient867"
       x1="-12.194976"
       y1="6.2880521"
       x2="-0.25434875"
       y2="6.2880521"
       gradientUnits="userSpaceOnUse" />
    <linearGradient
       id="e"
       x1="24.705"
       x2="25.061001"
       y1="43.938999"
       y2="4.4050002"
       gradientTransform="matrix(0.99555544,0,0,1,14.796285,14.221987)"
       gradientUnits="userSpaceOnUse">
      <stop
         stop-color="#14cd46"
         offset="0"
         id="stop9-3" />
      <stop
         stop-color="#5adc19"
         offset="1"
         id="stop11-6"
         style="stop-color:#00d1a7;stop-opacity:1;" />
    </linearGradient>
    <linearGradient
       id="d"
       x1="31"
       x2="31"
       y1="34"
       y2="24"
       gradientTransform="matrix(0.99555544,0,0,1,14.796285,14.221987)"
       gradientUnits="userSpaceOnUse">
      <stop
         stop-color="#323232"
         offset="0"
         id="stop14" />
      <stop
         stop-color="#3c503c"
         offset="1"
         id="stop16" />
    </linearGradient>
    <linearGradient
       id="c-3"
       x1="18"
       x2="18"
       y1="34"
       y2="24"
       gradientTransform="matrix(0.99555544,0,0,1,14.796285,14.221987)"
       gradientUnits="userSpaceOnUse">
      <stop
         stop-color="#323232"
         offset="0"
         id="stop19" />
      <stop
         stop-color="#3c503c"
         offset="1"
         id="stop21" />
    </linearGradient>
  </defs>
  <sodipodi:namedview
     id="namedview14"
     pagecolor="#000000"
     bordercolor="#666666"
     borderopacity="1.0"
     inkscape:showpageshadow="2"
     inkscape:pageopacity="0.0"
     inkscape:pagecheckerboard="0"
     inkscape:deskcolor="#d1d1d1"
     showgrid="false"
     inkscape:zoom="10.83591"
     inkscape:cx="10.566718"
     inkscape:cy="44.712442"
     inkscape:window-width="1920"
     inkscape:window-height="998"
     inkscape:window-x="0"
     inkscape:window-y="0"
     inkscape:window-maximized="1"
     inkscape:current-layer="svg12"
     inkscape:document-rotation="0">
    <inkscape:grid
       type="xygrid"
       id="grid244"
       originx="9.9594769"
       originy="-31.57929"
       spacingy="1"
       spacingx="1"
       units="px"
       visible="false" />
  </sodipodi:namedview>
  <rect
     x="-12.194976"
     y="0.32004508"
     width="11.940627"
     height="11.936014"
     rx="1.6121091"
     shape-rendering="crispEdges"
     id="rect5-6-7-3"
     ry="1.7735944"
     transform="matrix(0.00523883,-0.99998628,0.999988,0.00489859,0,0)"
     style="fill:#00a489;fill-opacity:0.12;stroke:url(#linearGradient867);stroke-width:0.5291563;stroke-miterlimit:4;stroke-dasharray:none;stroke-opacity:1" />
  <rect
     x="-3.7202365"
     y="4.8851409"
     width="7.912631"
     height="7.912384"
     rx="1.612043"
     shape-rendering="crispEdges"
     id="rect5-6-6-6-6"
     style="fill:#00a489;fill-opacity:0.121569;stroke:url(#linearGradient15);stroke-width:0.39686725;stroke-opacity:1;stroke-miterlimit:4;stroke-dasharray:none"
     ry="1.7735215"
     transform="matrix(0.72612649,-0.68756114,0.6879775,0.72573202,0,0)" />
  <path
     d="m 5.9098347,9.6826797 c -0.31949,-0.03172 -0.6339053,-0.102136 -0.8418311,-0.189672 a 1.9017211,1.9030428 0 0 1 -0.094451,-0.04057 5.071258,5.0747838 0 0 1 -0.037396,-0.200451 l -0.064027,-0.357153 c -0.100156,-0.54111 -0.2079231,-1.186244 -0.200317,-1.193855 0.00382,-0.0047 0.6199612,0.408518 1.332475,0.891894 0.6522916,0.442773 0.7790725,0.52904 1.0763748,0.72823 0.2979353,0.200451 0.2801847,0.186502 0.2656054,0.194745 a 2.535632,2.5373916 0 0 1 -0.3068117,0.09959 3.8034438,3.8060848 0 0 1 -0.4538748,0.07165 5.7051649,5.7091329 0 0 1 -0.675747,-0.0047 M 7.4768552,9.3400767 A 13.312054,13.321302 0 0 1 6.8156883,8.8846767 12.044241,12.052608 0 0 0 6.3928705,8.5922377 1.2678147,1.2686961 0 0 1 6.1912874,8.4526817 c -0.043099,-0.03681 -0.062117,-0.06603 -0.043099,-0.06603 0.011393,0 0.583192,-0.106568 1.001575,-0.186499 0.4849344,-0.09257 1.3762108,-0.267693 1.9784216,-0.387585 0.110303,-0.02219 0.2028486,-0.038 0.2066546,-0.03428 0.0064,0.0067 -0.0431,0.103393 -0.1255149,0.241682 a 3.3597073,3.3620421 0 0 1 -0.8253495,0.940767 5.071258,5.0747838 0 0 1 -0.4310566,0.289894 3.8034438,3.8060848 0 0 1 -0.3397722,0.170006 c -0.00643,0 -0.067825,-0.03614 -0.136288,-0.07988 z M 4.5982787,9.2671467 A 2.9159753,2.9179991 0 0 1 3.8293502,8.7013047 3.5498818,3.5523489 0 0 1 3.2829214,7.9984437 4.4373509,4.4404343 0 0 1 3.1022579,7.6622427 c 0,-0.0098 0.2706804,-0.4155 0.499519,-0.74916 0.1895392,-0.277211 0.3790784,-0.560772 0.4792362,-0.718718 0.012027,-0.01773 0.023454,-0.0304 0.025989,-0.02787 0.012687,0.01269 0.174961,0.799284 0.3112462,1.509117 0.1204453,0.626733 0.1445316,0.751706 0.1914454,0.986409 0.053878,0.272138 0.1229746,0.609608 0.1331169,0.648938 q 0.00575,0.02348 -0.00382,0.02348 c -0.00508,0 -0.068464,-0.03039 -0.1407301,-0.06722 m 3.0713101,-1.392433 c -0.00318,-0.0092 0.00643,-0.02727 0.026632,-0.05016 0.017102,-0.02027 0.1179069,-0.166202 0.2231377,-0.325431 0.1698856,-0.256265 0.2909615,-0.431347 0.5514993,-0.801169 a 43.73958,43.769992 0 0 0 0.9648082,-1.40635 1.2678147,1.2686961 0 0 1 0.0748,-0.109739 c 0.01076,-0.0015 0.07036,0.171909 0.102692,0.29687 0.06212,0.241054 0.08114,0.42184 0.0805,0.749802 q -0.0025,0.707928 -0.211725,1.255377 l -0.02535,0.06604 -0.04437,0.0092 -0.1787647,0.03492 -0.7708312,0.147164 a 55.149944,55.188265 0 0 1 -0.7638595,0.142563 q -0.02472,0.0067 -0.02916,-0.0092 M 2.9710427,7.2778267 C 2.8613764,6.9993457 2.8151035,6.7037387 2.8144674,6.2799947 c 0,-0.342553 0.02155,-0.547444 0.090647,-0.857001 0.02726,-0.124336 0.1064976,-0.373631 0.1236116,-0.390763 0.00636,-0.0067 0.083678,-0.02348 0.1730608,-0.03867 0.1616444,-0.02786 0.4646513,-0.08377 0.805061,-0.148435 0.5692482,-0.107837 0.8202764,-0.15034 0.8399257,-0.142727 0.00641,0.0027 0.012703,0.01198 0.012703,0.02094 0,0.01839 0.00251,0.01338 -0.1603787,0.24295 l -0.1977812,0.279743 -0.276382,0.392037 a 70.363716,70.41262 0 0 0 -1.0605309,1.527507 3.8034438,3.8060848 0 0 1 -0.1477014,0.213138 0.63390714,0.63434766 0 0 1 -0.04564,-0.101497 z m 5.3977149,-0.909623 a 5.7051649,5.7091329 0 0 0 -0.031694,-0.18713 L 8.2768462,5.8404217 8.0486405,4.4879987 C 8.0118705,4.2628017 7.8920628,3.5827817 7.8502236,3.3639327 a 0.8874702,0.88808677 0 0 1 -0.022813,-0.165563 c 0.010134,-0.01011 0.1876365,0.08948 0.3467452,0.195373 a 3.3597073,3.3620421 0 0 1 0.9705104,0.986417 c 0.1014293,0.158587 0.2332804,0.402805 0.2789234,0.517628 l 0.01649,0.04309 -0.05325,0.08378 c -0.05768,0.09135 -0.1381885,0.204249 -0.3740025,0.528402 -0.084312,0.116727 -0.2060201,0.289264 -0.2700425,0.383776 -0.1616494,0.237256 -0.3429456,0.47704 -0.362595,0.47704 -0.00321,0 -0.00826,-0.02026 -0.011394,-0.04569 M 7.821088,4.8597247 A 6.9729801,6.9778258 0 0 0 7.4851178,4.6250167 98.889516,98.958284 0 0 1 5.3266632,3.1355647 1.9017211,1.9030428 0 0 1 5.1434637,2.9833237 c 0,-0.0064 0.1831995,-0.06343 0.2751122,-0.085 0.091921,-0.02156 0.2954018,-0.05709 0.4133086,-0.07105 0.059593,-0.0076 0.2003172,-0.01141 0.4133083,-0.01141 0.2833582,0 0.3397768,0.0032 0.4608526,0.01902 0.2155294,0.02981 0.367665,0.05964 0.5166336,0.102769 0.1331236,0.03806 0.348651,0.119886 0.348651,0.131939 l 0.034865,0.20299 c 0.019012,0.107845 0.063385,0.375537 0.099523,0.593757 0.063388,0.392025 0.1026924,0.621661 0.1470655,0.867782 0.020917,0.117359 0.022203,0.154143 0.00508,0.154143 a 0.12678147,0.12686961 0 0 1 -0.036788,-0.02853 m -4.6668361,-0.09708 a 3.3216742,3.3239852 0 0 1 1.3299378,-1.464066 c 0.1438988,-0.08629 0.3752759,-0.202989 0.4025355,-0.202989 0.020293,0 0.06909,0.03361 0.7036355,0.479571 0.3759083,0.263246 0.4855739,0.338739 0.6117197,0.419299 0.109033,0.06976 0.2155298,0.15351 0.2155298,0.17001 0,0.004 -0.010761,0.0098 -0.023457,0.01197 a 174.95837,175.07991 0 0 1 -1.9701872,0.370463 l -1.2633754,0.234705 c -0.013336,0.004 -0.013967,0.0015 -0.00636,-0.01907"
     style="fill:#00ff66;fill-opacity:1;stroke-width:0.0086146"
     id="path1" />
</svg>
