<?xml version="1.0" encoding="UTF-8" standalone="no"?>
<svg
   width="47.285591"
   height="47.28569"
   version="1.1"
   viewBox="0 0 12.510734 12.51076"
   id="svg12"
   sodipodi:docname="portal-revolution.svg"
   inkscape:version="1.4 (unknown)"
   xmlns:inkscape="http://www.inkscape.org/namespaces/inkscape"
   xmlns:sodipodi="http://sodipodi.sourceforge.net/DTD/sodipodi-0.dtd"
   xmlns:xlink="http://www.w3.org/1999/xlink"
   xmlns="http://www.w3.org/2000/svg"
   xmlns:svg="http://www.w3.org/2000/svg"
   xmlns:rdf="http://www.w3.org/1999/02/22-rdf-syntax-ns#"
   xmlns:cc="http://creativecommons.org/ns#"
   xmlns:dc="http://purl.org/dc/elements/1.1/">
  <style
     id="style853" />
  <metadata
     id="metadata29">
    <rdf:RDF>
      <cc:Work
         rdf:about="">
        <dc:format>image/svg+xml</dc:format>
        <dc:type
           rdf:resource="http://purl.org/dc/dcmitype/StillImage" />
      </cc:Work>
    </rdf:RDF>
  </metadata>
  <defs
     id="defs16">
    <linearGradient
       inkscape:collect="always"
       id="linearGradient858">
      <stop
         style="stop-color:#d35f8d;stop-opacity:0.54769737"
         offset="0"
         id="stop854" />
      <stop
         style="stop-color:#a02c5a;stop-opacity:1"
         offset="1"
         id="stop856" />
    </linearGradient>
    <linearGradient
       id="c"
       y1="523.79999"
       x1="403.57001"
       y2="536.79999"
       x2="416.57001"
       gradientUnits="userSpaceOnUse"
       gradientTransform="matrix(0.34526714,0,0,0.34526706,-134.80427,-174.63325)">
      <stop
         stop-color="#292c2f"
         id="stop1568" />
      <stop
         offset="1"
         stop-opacity="0"
         id="stop1570" />
    </linearGradient>
    <linearGradient
       xlink:href="#b-2"
       id="linearGradient4189"
       x1="14.369"
       y1="22.521999"
       x2="26.521999"
       y2="22.521999"
       gradientUnits="userSpaceOnUse" />
    <linearGradient
       x1="36"
       gradientUnits="userSpaceOnUse"
       x2="14"
       y2="12"
       y1="44"
       id="b-2">
      <stop
         style="stop-color:#bfc9c9;stop-opacity:1"
         stop-color="#536161"
         id="stop1579" />
      <stop
         style="stop-color:#fbfbfb;stop-opacity:1"
         stop-color="#f4f5f5"
         offset="1"
         id="stop1581" />
    </linearGradient>
    <linearGradient
       xlink:href="#b-2"
       id="linearGradient4428"
       gradientUnits="userSpaceOnUse"
       x1="31.586"
       y1="36.345001"
       x2="1.2029999"
       y2="6.723" />
    <linearGradient
       xlink:href="#b-2"
       id="linearGradient4189-3"
       x1="14.369"
       y1="22.521999"
       x2="26.521999"
       y2="22.521999"
       gradientUnits="userSpaceOnUse"
       gradientTransform="translate(20.841982,61.553822)" />
    <linearGradient
       xlink:href="#b-2"
       id="linearGradient4428-5"
       gradientUnits="userSpaceOnUse"
       x1="31.586"
       y1="36.345001"
       x2="1.2029999"
       y2="6.723"
       gradientTransform="translate(20.841982,61.553822)" />
    <linearGradient
       xlink:href="#b-2"
       id="linearGradient4189-3-3"
       x1="14.369"
       y1="22.521999"
       x2="26.521999"
       y2="22.521999"
       gradientUnits="userSpaceOnUse"
       gradientTransform="translate(4.376802,4.4211693)" />
    <linearGradient
       xlink:href="#b-2"
       id="linearGradient4428-5-5"
       gradientUnits="userSpaceOnUse"
       x1="31.586"
       y1="36.345001"
       x2="1.2029999"
       y2="6.723"
       gradientTransform="translate(4.376802,4.4211693)" />
    <linearGradient
       inkscape:collect="always"
       xlink:href="#linearGradient14"
       id="linearGradient15"
       x1="-9.6850061"
       y1="45.161198"
       x2="11.98815"
       y2="21.735205"
       gradientUnits="userSpaceOnUse"
       gradientTransform="scale(0.26457813)" />
    <linearGradient
       id="linearGradient14"
       inkscape:collect="always">
      <stop
         style="stop-color:#a02c5a;stop-opacity:1"
         offset="0"
         id="stop12" />
      <stop
         style="stop-color:#c83771;stop-opacity:1"
         offset="1"
         id="stop13" />
    </linearGradient>
    <linearGradient
       inkscape:collect="always"
       xlink:href="#linearGradient858"
       id="linearGradient860"
       x1="-12.025727"
       y1="6.1170783"
       x2="-0.085100174"
       y2="6.1170783"
       gradientUnits="userSpaceOnUse" />
  </defs>
  <sodipodi:namedview
     id="namedview14"
     pagecolor="#000000"
     bordercolor="#666666"
     borderopacity="1.0"
     inkscape:showpageshadow="2"
     inkscape:pageopacity="0.0"
     inkscape:pagecheckerboard="0"
     inkscape:deskcolor="#d1d1d1"
     showgrid="false"
     inkscape:zoom="6.2611141"
     inkscape:cx="-19.565208"
     inkscape:cy="39.050558"
     inkscape:window-width="1920"
     inkscape:window-height="998"
     inkscape:window-x="0"
     inkscape:window-y="0"
     inkscape:window-maximized="1"
     inkscape:current-layer="svg12"
     inkscape:document-rotation="0">
    <inkscape:grid
       type="xygrid"
       id="grid244"
       originx="9.9594769"
       originy="-31.57929"
       spacingy="1"
       spacingx="1"
       units="px"
       visible="false" />
  </sodipodi:namedview>
  <rect
     x="-12.194976"
     y="0.32004508"
     width="11.940627"
     height="11.936014"
     rx="1.6121091"
     shape-rendering="crispEdges"
     id="rect5-6-7-3"
     ry="1.7735944"
     transform="matrix(0.00523883,-0.99998628,0.999988,0.00489859,0,0)"
     style="fill:#de87aa;fill-opacity:0.1;stroke:url(#linearGradient860);stroke-width:0.529156;stroke-miterlimit:4;stroke-dasharray:none;stroke-opacity:1" />
  <rect
     x="-3.7202365"
     y="4.8851409"
     width="7.912631"
     height="7.912384"
     rx="1.612043"
     shape-rendering="crispEdges"
     id="rect5-6-6-6-6"
     style="fill:#de87aa;fill-opacity:0.1;stroke:url(#linearGradient15);stroke-width:0.423325;stroke-miterlimit:4;stroke-dasharray:none;stroke-opacity:1"
     ry="1.7735215"
     transform="matrix(0.72612649,-0.68756114,0.6879775,0.72573202,0,0)" />
  <path
     d="M 5.9111826,9.6825607 C 5.5916967,9.6508187 5.2772864,9.5804377 5.0693668,9.4928887 a 1.9016863,1.9030082 0 0 1 -0.09445,-0.04057 5.071166,5.0746905 0 0 1 -0.037397,-0.200447 L 4.8734958,8.8947377 C 4.7733407,8.3536467 4.6655765,7.7085267 4.673181,7.7009147 c 0.00383,-0.0045 0.6199503,0.408511 1.3324525,0.891878 0.6522788,0.442763 0.7790576,0.529029 1.0763536,0.728217 0.2979307,0.200447 0.280181,0.186498 0.2656015,0.194742 a 2.5355845,2.5373461 0 0 1 -0.3068059,0.09956 3.8033751,3.8060152 0 0 1 -0.4538664,0.07169 5.7050609,5.7090284 0 0 1 -0.6757335,-0.0045 M 7.478173,9.3399687 A 13.311812,13.321058 0 0 1 6.8170211,8.8845657 12.044019,12.052393 0 0 0 6.3942101,8.5921377 1.2677916,1.2686727 0 0 1 6.1926305,8.4525857 c -0.043102,-0.03679 -0.062121,-0.066 -0.043102,-0.066 0.011385,0 0.583183,-0.106569 1.001558,-0.186493 0.4849259,-0.09262 1.3761844,-0.267691 1.9783865,-0.38758 0.1102998,-0.02215 0.202844,-0.03804 0.2066495,-0.03426 0.00639,0.0064 -0.043103,0.103398 -0.1255131,0.241682 a 3.3596452,3.3619802 0 0 1 -0.8253314,0.940722 5.071166,5.0746905 0 0 1 -0.4310496,0.28989 3.8033751,3.8060152 0 0 1 -0.3397676,0.170004 c -0.00639,0 -0.067826,-0.03615 -0.1362854,-0.07991 z M 4.5996488,9.2670087 A 2.9159218,2.917946 0 0 1 3.8307343,8.7011517 3.5498175,3.5522844 0 0 1 3.2843154,7.9983077 4.4372699,4.4403532 0 0 1 3.103656,7.6621117 c 0,-0.0092 0.2706756,-0.41549 0.499509,-0.74915 0.1895363,-0.277206 0.379072,-0.5607527 0.4792279,-0.7187039 0.012038,-0.017737 0.023455,-0.030434 0.025987,-0.027898 0.012696,0.012715 0.174958,0.7992659 0.3112412,1.5090889 0.1204434,0.626726 0.144529,0.751691 0.1914399,0.986393 0.05388,0.272136 0.122973,0.609598 0.1331152,0.648927 q 0.00576,0.02348 -0.00382,0.02348 c -0.00509,0 -0.068462,-0.03042 -0.1407251,-0.06724 m 3.0712223,-1.392371 c -0.00317,-0.0088 0.00639,-0.02728 0.026624,-0.05013 0.0171,-0.02027 0.117905,-0.166198 0.2231321,-0.325419 0.1698843,-0.256271 0.2909591,-0.431344 0.5514914,-0.801162 A 43.73879,43.769198 0 0 0 9.436894,5.2916003 1.2677916,1.2686727 0 0 1 9.51169,5.181862 c 0.010751,-0.00155 0.070358,0.1719051 0.1026911,0.2968673 0.06212,0.2410499 0.081142,0.4218349 0.080502,0.7497889 q -0.0025,0.7079045 -0.2117251,1.2553345 l -0.025357,0.066 -0.044369,0.0088 -0.1787602,0.0349 -0.7708177,0.147164 A 55.148935,55.187255 0 0 1 7.700011,7.8834407 q -0.024719,0.0064 -0.029159,-0.0088 M 2.9724071,7.2777427 c -0.109664,-0.278473 -0.1559353,-0.574075 -0.1565718,-0.997807 0,-0.3425515 0.021567,-0.5474382 0.090643,-0.8569939 0.027259,-0.1243317 0.1064958,-0.3736258 0.1236088,-0.3907521 0.00639,-0.00639 0.083677,-0.023474 0.173059,-0.038697 C 3.3647872,4.9655817 3.6677888,4.9097617 4.0081917,4.8450592 4.5774301,4.737222 4.8284529,4.6947231 4.8481033,4.7023339 c 0.00639,0.0025 0.012696,0.012039 0.012696,0.020948 0,0.01838 0.0025,0.013357 -0.1603771,0.2429502 L 4.5026336,5.245952 4.2262571,5.6379757 a 70.362431,70.411335 0 0 0 -1.0605199,1.527483 3.8033751,3.8060152 0 0 1 -0.1476981,0.213132 0.63389549,0.634336 0 0 1 -0.045637,-0.10149 z M 8.3699972,6.3680811 A 5.7050609,5.7090284 0 0 0 8.338328,6.1809957 L 8.2781439,5.8403807 8.0499416,4.4879756 C 8.0131789,4.2627776 7.8933728,3.5827733 7.8515351,3.3639258 a 0.88745386,0.88807077 0 0 1 -0.02282,-0.16556 c 0.010126,-0.010136 0.1876327,0.089436 0.3467398,0.1953734 a 3.3596452,3.3619802 0 0 1 0.9704923,0.9863904 c 0.1014257,0.1585859 0.2332742,0.402805 0.2789184,0.5176212 l 0.016479,0.043134 -0.053245,0.083735 C 9.3304176,5.1159618 9.2499112,5.2288717 9.0141018,5.5530169 8.9297948,5.66974 8.8080862,5.8422742 8.7440651,5.9367893 8.5824182,6.1740369 8.4011257,6.4138179 8.3814761,6.4138179 c -0.00317,0 -0.00824,-0.020258 -0.011393,-0.045687 M 7.8223828,4.8596855 A 6.9728507,6.9776984 0 0 0 7.4864216,4.624985 98.88769,98.956461 0 0 1 5.3280054,3.1355665 1.9016863,1.9030082 0 0 1 5.1448112,2.9833254 c 0,-0.00639 0.1831942,-0.063432 0.2751079,-0.085007 0.091913,-0.02158 0.2953954,-0.057092 0.4133003,-0.071046 0.059581,-0.00761 0.2003033,-0.011411 0.4132932,-0.011411 0.2833517,0 0.3397697,0.00316 0.4608439,0.019013 0.2155243,0.029814 0.3676578,0.059635 0.5166247,0.1027654 0.1331197,0.038059 0.3486444,0.1198886 0.3486444,0.1319404 l 0.034862,0.2029879 c 0.018995,0.1078347 0.063387,0.3755269 0.099524,0.5937392 0.06339,0.3920189 0.1026901,0.6216489 0.1470621,0.8677707 0.020938,0.1173528 0.022198,0.1541426 0.0051,0.1541426 A 0.12677916,0.12686727 0 0 1 7.8223797,4.8596866 M 3.1556424,4.7626316 A 3.3216135,3.3239244 0 0 1 4.4855533,3.2985857 c 0.1438955,-0.086269 0.3752678,-0.2029888 0.4025269,-0.2029888 0.020293,0 0.069092,0.033622 0.7036226,0.4795563 0.3759017,0.263249 0.4855623,0.3387362 0.6117113,0.4192969 0.1090297,0.069782 0.2155239,0.1535084 0.2155239,0.1700046 0,0.00382 -0.010751,0.00953 -0.023455,0.01202 A 174.9552,175.07672 0 0 1 4.4253267,4.546932 L 3.1619754,4.7816381 c -0.013346,0.00393 -0.013972,0.00155 -0.00639,-0.019013"
     style="fill:#c83771;fill-opacity:1;stroke-width:0.00861449"
     id="path1" />
</svg>
