<?xml version="1.0" encoding="UTF-8" standalone="no"?>
<svg
   width="47.285591"
   height="47.28569"
   version="1.1"
   id="svg63"
   sodipodi:docname="portal-2.svg"
   inkscape:version="1.4 (unknown)"
   xmlns:inkscape="http://www.inkscape.org/namespaces/inkscape"
   xmlns:sodipodi="http://sodipodi.sourceforge.net/DTD/sodipodi-0.dtd"
   xmlns:xlink="http://www.w3.org/1999/xlink"
   xmlns="http://www.w3.org/2000/svg"
   xmlns:svg="http://www.w3.org/2000/svg"
   xmlns:rdf="http://www.w3.org/1999/02/22-rdf-syntax-ns#"
   xmlns:cc="http://creativecommons.org/ns#"
   xmlns:dc="http://purl.org/dc/elements/1.1/">
  <style
     id="style1006" />
  <metadata
     id="metadata181">
    <rdf:RDF>
      <cc:Work
         rdf:about="">
        <dc:format>image/svg+xml</dc:format>
        <dc:type
           rdf:resource="http://purl.org/dc/dcmitype/StillImage" />
      </cc:Work>
    </rdf:RDF>
  </metadata>
  <sodipodi:namedview
     id="namedview65"
     pagecolor="#000000"
     bordercolor="#666666"
     borderopacity="1.0"
     inkscape:showpageshadow="2"
     inkscape:pageopacity="0.0"
     inkscape:pagecheckerboard="0"
     inkscape:deskcolor="#d1d1d1"
     showgrid="false"
     inkscape:zoom="10.719145"
     inkscape:cx="17.118903"
     inkscape:cy="17.025612"
     inkscape:window-width="1920"
     inkscape:window-height="998"
     inkscape:window-x="0"
     inkscape:window-y="0"
     inkscape:window-maximized="1"
     inkscape:current-layer="svg63"
     inkscape:document-rotation="0">
    <inkscape:grid
       type="xygrid"
       id="grid468"
       originx="30.400758"
       originy="-11.147109"
       spacingy="1"
       spacingx="1"
       units="px"
       visible="false" />
  </sodipodi:namedview>
  <defs
     id="defs27">
    <linearGradient
       inkscape:collect="always"
       id="linearGradient1013">
      <stop
         style="stop-color:#ffb380;stop-opacity:0.42352942"
         offset="0"
         id="stop1009" />
      <stop
         style="stop-color:#ff9955;stop-opacity:1"
         offset="1"
         id="stop1011" />
    </linearGradient>
    <linearGradient
       id="a"
       y1="543.79999"
       y2="503.79999"
       x2="0"
       gradientUnits="userSpaceOnUse"
       gradientTransform="matrix(1.125,0,0,1,-51.07,0)">
      <stop
         stop-color="#c6cdd1"
         id="stop2" />
      <stop
         offset="1"
         stop-color="#e0e5e7"
         id="stop4" />
    </linearGradient>
    <linearGradient
       id="b"
       y1="543.79999"
       y2="503.79999"
       x2="0"
       gradientUnits="userSpaceOnUse"
       gradientTransform="matrix(1.0413094,0,0,1.0631247,-447.50457,-582.08122)">
      <stop
         stop-color="#1d1e1e"
         id="stop7" />
      <stop
         offset="1"
         stop-color="#44484c"
         id="stop9" />
    </linearGradient>
    <linearGradient
       xlink:href="#a"
       id="c"
       y1="506.79999"
       y2="504.79999"
       x2="0"
       gradientUnits="userSpaceOnUse"
       gradientTransform="matrix(1.0284537,0,0,1.0499997,-442.30191,-575.2578)" />
    <linearGradient
       xlink:href="#a"
       id="d"
       y1="508.79999"
       y2="506.79999"
       gradientUnits="userSpaceOnUse"
       x2="0"
       gradientTransform="matrix(1.0284537,0,0,1.0499997,-442.30191,-575.2578)" />
    <linearGradient
       xlink:href="#a"
       id="e"
       y1="510.79999"
       y2="508.79999"
       gradientUnits="userSpaceOnUse"
       x2="0"
       gradientTransform="matrix(1.0284537,0,0,1.0499997,-442.30191,-575.2578)" />
    <linearGradient
       xlink:href="#a"
       id="f"
       y1="512.79999"
       y2="510.79999"
       gradientUnits="userSpaceOnUse"
       x2="0"
       gradientTransform="matrix(1.0284537,0,0,1.0499997,-442.30191,-575.2578)" />
    <linearGradient
       xlink:href="#a"
       id="g"
       y1="514.79999"
       y2="512.79999"
       gradientUnits="userSpaceOnUse"
       x2="0"
       gradientTransform="matrix(1.0284537,0,0,1.0499997,-442.30191,-575.2578)" />
    <linearGradient
       xlink:href="#a"
       id="h"
       y1="516.79999"
       y2="514.79999"
       gradientUnits="userSpaceOnUse"
       x2="0"
       gradientTransform="matrix(1.0284537,0,0,1.0499997,-442.30191,-575.2578)" />
    <linearGradient
       xlink:href="#a"
       id="i"
       y1="518.79999"
       y2="516.79999"
       gradientUnits="userSpaceOnUse"
       x2="0"
       gradientTransform="matrix(1.0284537,0,0,1.0499997,-442.30191,-575.2578)" />
    <linearGradient
       xlink:href="#a"
       id="j"
       y1="520.79999"
       y2="518.79999"
       gradientUnits="userSpaceOnUse"
       x2="0"
       gradientTransform="matrix(1.0284537,0,0,1.0499997,-442.30191,-575.2578)" />
    <linearGradient
       xlink:href="#a"
       id="k"
       y1="523.79999"
       y2="520.79999"
       gradientUnits="userSpaceOnUse"
       x2="0"
       gradientTransform="matrix(1.0284537,0,0,1.0499997,-442.30191,-575.2578)" />
    <linearGradient
       xlink:href="#a"
       id="l"
       y1="33"
       y2="25"
       x2="0"
       gradientUnits="userSpaceOnUse"
       gradientTransform="matrix(1.0284537,0,0,1.0499997,-46.789476,-50.467946)" />
    <linearGradient
       id="m"
       y1="7"
       x1="10"
       y2="32"
       x2="35"
       gradientUnits="userSpaceOnUse"
       gradientTransform="matrix(1.0284537,0,0,1.0499997,-46.789476,-50.467946)">
      <stop
         stop-color="#383e51"
         id="stop22" />
      <stop
         offset="1"
         stop-color="#655c6f"
         stop-opacity="0"
         id="stop24" />
    </linearGradient>
    <linearGradient
       id="b-3"
       y1="543.79999"
       y2="503.79999"
       x2="0"
       gradientUnits="userSpaceOnUse"
       gradientTransform="matrix(1.0413094,0,0,1.0631247,-345.52626,-498.95277)">
      <stop
         stop-color="#1d1e1e"
         id="stop7-6" />
      <stop
         offset="1"
         stop-color="#44484c"
         id="stop9-7" />
    </linearGradient>
    <linearGradient
       xlink:href="#a-6"
       id="c-5"
       y1="506.79999"
       y2="504.79999"
       x2="0"
       gradientUnits="userSpaceOnUse"
       gradientTransform="matrix(1.0284537,0,0,1.0499997,-340.3236,-492.12935)" />
    <linearGradient
       id="a-6"
       y1="543.79999"
       y2="503.79999"
       x2="0"
       gradientUnits="userSpaceOnUse"
       gradientTransform="matrix(1.125,0,0,1,-51.07,0)">
      <stop
         stop-color="#c6cdd1"
         id="stop2-2" />
      <stop
         offset="1"
         stop-color="#e0e5e7"
         id="stop4-9" />
    </linearGradient>
    <linearGradient
       xlink:href="#a-6"
       id="d-1"
       y1="508.79999"
       y2="506.79999"
       gradientUnits="userSpaceOnUse"
       x2="0"
       gradientTransform="matrix(1.0284537,0,0,1.0499997,-340.3236,-492.12935)" />
    <linearGradient
       id="linearGradient991"
       y1="543.79999"
       y2="503.79999"
       x2="0"
       gradientUnits="userSpaceOnUse"
       gradientTransform="matrix(1.125,0,0,1,-51.07,0)">
      <stop
         stop-color="#c6cdd1"
         id="stop987" />
      <stop
         offset="1"
         stop-color="#e0e5e7"
         id="stop989" />
    </linearGradient>
    <linearGradient
       xlink:href="#a-6"
       id="e-2"
       y1="510.79999"
       y2="508.79999"
       gradientUnits="userSpaceOnUse"
       x2="0"
       gradientTransform="matrix(1.0284537,0,0,1.0499997,-340.3236,-492.12935)" />
    <linearGradient
       id="linearGradient998"
       y1="543.79999"
       y2="503.79999"
       x2="0"
       gradientUnits="userSpaceOnUse"
       gradientTransform="matrix(1.125,0,0,1,-51.07,0)">
      <stop
         stop-color="#c6cdd1"
         id="stop994" />
      <stop
         offset="1"
         stop-color="#e0e5e7"
         id="stop996" />
    </linearGradient>
    <linearGradient
       xlink:href="#a-6"
       id="f-7"
       y1="512.79999"
       y2="510.79999"
       gradientUnits="userSpaceOnUse"
       x2="0"
       gradientTransform="matrix(1.0284537,0,0,1.0499997,-340.3236,-492.12935)" />
    <linearGradient
       id="linearGradient1005"
       y1="543.79999"
       y2="503.79999"
       x2="0"
       gradientUnits="userSpaceOnUse"
       gradientTransform="matrix(1.125,0,0,1,-51.07,0)">
      <stop
         stop-color="#c6cdd1"
         id="stop1001" />
      <stop
         offset="1"
         stop-color="#e0e5e7"
         id="stop1003" />
    </linearGradient>
    <linearGradient
       xlink:href="#a-6"
       id="g-0"
       y1="514.79999"
       y2="512.79999"
       gradientUnits="userSpaceOnUse"
       x2="0"
       gradientTransform="matrix(1.0284537,0,0,1.0499997,-340.3236,-492.12935)" />
    <linearGradient
       id="linearGradient1012"
       y1="543.79999"
       y2="503.79999"
       x2="0"
       gradientUnits="userSpaceOnUse"
       gradientTransform="matrix(1.125,0,0,1,-51.07,0)">
      <stop
         stop-color="#c6cdd1"
         id="stop1008" />
      <stop
         offset="1"
         stop-color="#e0e5e7"
         id="stop1010" />
    </linearGradient>
    <linearGradient
       xlink:href="#a-6"
       id="h-9"
       y1="516.79999"
       y2="514.79999"
       gradientUnits="userSpaceOnUse"
       x2="0"
       gradientTransform="matrix(1.0284537,0,0,1.0499997,-340.3236,-492.12935)" />
    <linearGradient
       id="linearGradient1019"
       y1="543.79999"
       y2="503.79999"
       x2="0"
       gradientUnits="userSpaceOnUse"
       gradientTransform="matrix(1.125,0,0,1,-51.07,0)">
      <stop
         stop-color="#c6cdd1"
         id="stop1015" />
      <stop
         offset="1"
         stop-color="#e0e5e7"
         id="stop1017" />
    </linearGradient>
    <linearGradient
       xlink:href="#a-6"
       id="i-3"
       y1="518.79999"
       y2="516.79999"
       gradientUnits="userSpaceOnUse"
       x2="0"
       gradientTransform="matrix(1.0284537,0,0,1.0499997,-340.3236,-492.12935)" />
    <linearGradient
       id="linearGradient1026"
       y1="543.79999"
       y2="503.79999"
       x2="0"
       gradientUnits="userSpaceOnUse"
       gradientTransform="matrix(1.125,0,0,1,-51.07,0)">
      <stop
         stop-color="#c6cdd1"
         id="stop1022" />
      <stop
         offset="1"
         stop-color="#e0e5e7"
         id="stop1024" />
    </linearGradient>
    <linearGradient
       xlink:href="#a-6"
       id="j-6"
       y1="520.79999"
       y2="518.79999"
       gradientUnits="userSpaceOnUse"
       x2="0"
       gradientTransform="matrix(1.0284537,0,0,1.0499997,-340.3236,-492.12935)" />
    <linearGradient
       id="linearGradient1033"
       y1="543.79999"
       y2="503.79999"
       x2="0"
       gradientUnits="userSpaceOnUse"
       gradientTransform="matrix(1.125,0,0,1,-51.07,0)">
      <stop
         stop-color="#c6cdd1"
         id="stop1029" />
      <stop
         offset="1"
         stop-color="#e0e5e7"
         id="stop1031" />
    </linearGradient>
    <linearGradient
       xlink:href="#a-6"
       id="k-0"
       y1="523.79999"
       y2="520.79999"
       gradientUnits="userSpaceOnUse"
       x2="0"
       gradientTransform="matrix(1.0284537,0,0,1.0499997,-340.3236,-492.12935)" />
    <linearGradient
       id="linearGradient1040"
       y1="543.79999"
       y2="503.79999"
       x2="0"
       gradientUnits="userSpaceOnUse"
       gradientTransform="matrix(1.125,0,0,1,-51.07,0)">
      <stop
         stop-color="#c6cdd1"
         id="stop1036" />
      <stop
         offset="1"
         stop-color="#e0e5e7"
         id="stop1038" />
    </linearGradient>
    <linearGradient
       xlink:href="#a-6"
       id="l-6"
       y1="33"
       y2="25"
       x2="0"
       gradientUnits="userSpaceOnUse"
       gradientTransform="matrix(1.0284537,0,0,1.0499997,55.188836,32.660499)" />
    <linearGradient
       id="linearGradient1047"
       y1="543.79999"
       y2="503.79999"
       x2="0"
       gradientUnits="userSpaceOnUse"
       gradientTransform="matrix(1.125,0,0,1,-51.07,0)">
      <stop
         stop-color="#c6cdd1"
         id="stop1043" />
      <stop
         offset="1"
         stop-color="#e0e5e7"
         id="stop1045" />
    </linearGradient>
    <linearGradient
       xlink:href="#linearGradient4435"
       id="linearGradient4389-3-5"
       y1="524.79797"
       y2="515.79797"
       x2="0"
       gradientUnits="userSpaceOnUse"
       gradientTransform="matrix(1.3624978,0,0,1.3624978,-528.67725,-680.90488)" />
    <linearGradient
       id="linearGradient4435">
      <stop
         style="stop-color:#c61423"
         id="stop15" />
      <stop
         offset="1"
         style="stop-color:#dc2b41"
         id="stop17" />
    </linearGradient>
    <linearGradient
       id="b-3-7"
       y1="543.79999"
       y2="503.79999"
       x2="0"
       gradientUnits="userSpaceOnUse"
       gradientTransform="matrix(1.0413093,0,0,0.98916733,-397.39884,-489.9741)">
      <stop
         stop-color="#1d1e1e"
         id="stop7-6-5" />
      <stop
         offset="1"
         stop-color="#44484c"
         id="stop9-7-3" />
    </linearGradient>
    <linearGradient
       xlink:href="#a-6-9"
       id="c-5-2"
       y1="506.79999"
       y2="504.79999"
       x2="0"
       gradientUnits="userSpaceOnUse"
       gradientTransform="matrix(1.0284536,0,0,0.97695521,-392.19618,-483.62542)" />
    <linearGradient
       id="a-6-9"
       y1="543.79999"
       y2="503.79999"
       x2="0"
       gradientUnits="userSpaceOnUse"
       gradientTransform="matrix(1.125,0,0,1,-51.07,0)">
      <stop
         stop-color="#c6cdd1"
         id="stop2-2-1" />
      <stop
         offset="1"
         stop-color="#e0e5e7"
         id="stop4-9-2" />
    </linearGradient>
    <linearGradient
       xlink:href="#a-6-9"
       id="d-1-7"
       y1="508.79999"
       y2="506.79999"
       gradientUnits="userSpaceOnUse"
       x2="0"
       gradientTransform="matrix(1.0284536,0,0,0.97695521,-392.19618,-483.62542)" />
    <linearGradient
       id="linearGradient716"
       y1="543.79999"
       y2="503.79999"
       x2="0"
       gradientUnits="userSpaceOnUse"
       gradientTransform="matrix(1.125,0,0,1,-51.07,0)">
      <stop
         stop-color="#c6cdd1"
         id="stop712" />
      <stop
         offset="1"
         stop-color="#e0e5e7"
         id="stop714" />
    </linearGradient>
    <linearGradient
       xlink:href="#a-6-9"
       id="e-2-0"
       y1="510.79999"
       y2="508.79999"
       gradientUnits="userSpaceOnUse"
       x2="0"
       gradientTransform="matrix(1.0284536,0,0,0.97695521,-392.19618,-483.62542)" />
    <linearGradient
       id="linearGradient723"
       y1="543.79999"
       y2="503.79999"
       x2="0"
       gradientUnits="userSpaceOnUse"
       gradientTransform="matrix(1.125,0,0,1,-51.07,0)">
      <stop
         stop-color="#c6cdd1"
         id="stop719" />
      <stop
         offset="1"
         stop-color="#e0e5e7"
         id="stop721" />
    </linearGradient>
    <linearGradient
       xlink:href="#a-6-9"
       id="f-7-9"
       y1="512.79999"
       y2="510.79999"
       gradientUnits="userSpaceOnUse"
       x2="0"
       gradientTransform="matrix(1.0284536,0,0,0.97695521,-392.19618,-483.62542)" />
    <linearGradient
       id="linearGradient730"
       y1="543.79999"
       y2="503.79999"
       x2="0"
       gradientUnits="userSpaceOnUse"
       gradientTransform="matrix(1.125,0,0,1,-51.07,0)">
      <stop
         stop-color="#c6cdd1"
         id="stop726" />
      <stop
         offset="1"
         stop-color="#e0e5e7"
         id="stop728" />
    </linearGradient>
    <linearGradient
       xlink:href="#a-6-9"
       id="g-0-3"
       y1="514.79999"
       y2="512.79999"
       gradientUnits="userSpaceOnUse"
       x2="0"
       gradientTransform="matrix(1.0284536,0,0,0.97695521,-392.19618,-483.62542)" />
    <linearGradient
       id="linearGradient737"
       y1="543.79999"
       y2="503.79999"
       x2="0"
       gradientUnits="userSpaceOnUse"
       gradientTransform="matrix(1.125,0,0,1,-51.07,0)">
      <stop
         stop-color="#c6cdd1"
         id="stop733" />
      <stop
         offset="1"
         stop-color="#e0e5e7"
         id="stop735" />
    </linearGradient>
    <linearGradient
       xlink:href="#a-6-9"
       id="h-9-6"
       y1="516.79999"
       y2="514.79999"
       gradientUnits="userSpaceOnUse"
       x2="0"
       gradientTransform="matrix(1.0284536,0,0,0.97695521,-392.19618,-483.62542)" />
    <linearGradient
       id="linearGradient744"
       y1="543.79999"
       y2="503.79999"
       x2="0"
       gradientUnits="userSpaceOnUse"
       gradientTransform="matrix(1.125,0,0,1,-51.07,0)">
      <stop
         stop-color="#c6cdd1"
         id="stop740" />
      <stop
         offset="1"
         stop-color="#e0e5e7"
         id="stop742" />
    </linearGradient>
    <linearGradient
       xlink:href="#a-6-9"
       id="i-3-0"
       y1="518.79999"
       y2="516.79999"
       gradientUnits="userSpaceOnUse"
       x2="0"
       gradientTransform="matrix(1.0284536,0,0,0.97695521,-392.19618,-483.62542)" />
    <linearGradient
       id="linearGradient751"
       y1="543.79999"
       y2="503.79999"
       x2="0"
       gradientUnits="userSpaceOnUse"
       gradientTransform="matrix(1.125,0,0,1,-51.07,0)">
      <stop
         stop-color="#c6cdd1"
         id="stop747" />
      <stop
         offset="1"
         stop-color="#e0e5e7"
         id="stop749" />
    </linearGradient>
    <linearGradient
       xlink:href="#a-6-9"
       id="j-6-6"
       y1="520.79999"
       y2="518.79999"
       gradientUnits="userSpaceOnUse"
       x2="0"
       gradientTransform="matrix(1.0284536,0,0,0.97695521,-392.19618,-483.62542)" />
    <linearGradient
       id="linearGradient758"
       y1="543.79999"
       y2="503.79999"
       x2="0"
       gradientUnits="userSpaceOnUse"
       gradientTransform="matrix(1.125,0,0,1,-51.07,0)">
      <stop
         stop-color="#c6cdd1"
         id="stop754" />
      <stop
         offset="1"
         stop-color="#e0e5e7"
         id="stop756" />
    </linearGradient>
    <linearGradient
       xlink:href="#a-6-9"
       id="k-0-2"
       y1="523.79999"
       y2="520.79999"
       gradientUnits="userSpaceOnUse"
       x2="0"
       gradientTransform="matrix(1.0284536,0,0,0.97695521,-392.19618,-483.62542)" />
    <linearGradient
       id="linearGradient765"
       y1="543.79999"
       y2="503.79999"
       x2="0"
       gradientUnits="userSpaceOnUse"
       gradientTransform="matrix(1.125,0,0,1,-51.07,0)">
      <stop
         stop-color="#c6cdd1"
         id="stop761" />
      <stop
         offset="1"
         stop-color="#e0e5e7"
         id="stop763" />
    </linearGradient>
    <linearGradient
       xlink:href="#a-6-9"
       id="l-6-6"
       y1="33"
       y2="25"
       x2="0"
       gradientUnits="userSpaceOnUse"
       gradientTransform="matrix(1.0284536,0,0,0.97695521,3.3162253,4.6569547)" />
    <linearGradient
       id="linearGradient772"
       y1="543.79999"
       y2="503.79999"
       x2="0"
       gradientUnits="userSpaceOnUse"
       gradientTransform="matrix(1.125,0,0,1,-51.07,0)">
      <stop
         stop-color="#c6cdd1"
         id="stop768" />
      <stop
         offset="1"
         stop-color="#e0e5e7"
         id="stop770" />
    </linearGradient>
    <filter
       id="filter1305-3-7"
       x="-0.060002353"
       y="-0.060002353"
       width="1.1200047"
       height="1.1200047"
       color-interpolation-filters="sRGB">
      <feGaussianBlur
         stdDeviation="0.61852427"
         id="feGaussianBlur324-5" />
    </filter>
    <linearGradient
       id="b-3-7-6"
       y1="543.79999"
       y2="503.79999"
       x2="0"
       gradientUnits="userSpaceOnUse"
       gradientTransform="matrix(1.0413091,0,0,0.98916747,-397.39884,-489.97418)">
      <stop
         stop-color="#1d1e1e"
         id="stop7-6-5-7" />
      <stop
         offset="1"
         stop-color="#44484c"
         id="stop9-7-3-5" />
    </linearGradient>
    <linearGradient
       xlink:href="#a-6-9-5"
       id="c-5-2-3"
       y1="506.79999"
       y2="504.79999"
       x2="0"
       gradientUnits="userSpaceOnUse"
       gradientTransform="matrix(1.0284532,0,0,0.97695536,-392.19618,-483.62549)" />
    <linearGradient
       id="a-6-9-5"
       y1="543.79999"
       y2="503.79999"
       x2="0"
       gradientUnits="userSpaceOnUse"
       gradientTransform="matrix(1.125,0,0,1,-51.07,0)">
      <stop
         stop-color="#c6cdd1"
         id="stop2-2-1-6" />
      <stop
         offset="1"
         stop-color="#e0e5e7"
         id="stop4-9-2-2" />
    </linearGradient>
    <linearGradient
       xlink:href="#a-6-9-5"
       id="d-1-7-9"
       y1="508.79999"
       y2="506.79999"
       gradientUnits="userSpaceOnUse"
       x2="0"
       gradientTransform="matrix(1.0284532,0,0,0.97695536,-392.19618,-483.62549)" />
    <linearGradient
       id="linearGradient2"
       y1="543.79999"
       y2="503.79999"
       x2="0"
       gradientUnits="userSpaceOnUse"
       gradientTransform="matrix(1.125,0,0,1,-51.07,0)">
      <stop
         stop-color="#c6cdd1"
         id="stop1" />
      <stop
         offset="1"
         stop-color="#e0e5e7"
         id="stop2-1" />
    </linearGradient>
    <linearGradient
       xlink:href="#a-6-9-5"
       id="e-2-0-2"
       y1="510.79999"
       y2="508.79999"
       gradientUnits="userSpaceOnUse"
       x2="0"
       gradientTransform="matrix(1.0284532,0,0,0.97695536,-392.19618,-483.62549)" />
    <linearGradient
       id="linearGradient4"
       y1="543.79999"
       y2="503.79999"
       x2="0"
       gradientUnits="userSpaceOnUse"
       gradientTransform="matrix(1.125,0,0,1,-51.07,0)">
      <stop
         stop-color="#c6cdd1"
         id="stop3" />
      <stop
         offset="1"
         stop-color="#e0e5e7"
         id="stop4-7" />
    </linearGradient>
    <linearGradient
       xlink:href="#a-6-9-5"
       id="f-7-9-0"
       y1="512.79999"
       y2="510.79999"
       gradientUnits="userSpaceOnUse"
       x2="0"
       gradientTransform="matrix(1.0284532,0,0,0.97695536,-392.19618,-483.62549)" />
    <linearGradient
       id="linearGradient6"
       y1="543.79999"
       y2="503.79999"
       x2="0"
       gradientUnits="userSpaceOnUse"
       gradientTransform="matrix(1.125,0,0,1,-51.07,0)">
      <stop
         stop-color="#c6cdd1"
         id="stop5" />
      <stop
         offset="1"
         stop-color="#e0e5e7"
         id="stop6" />
    </linearGradient>
    <linearGradient
       xlink:href="#a-6-9-5"
       id="g-0-3-9"
       y1="514.79999"
       y2="512.79999"
       gradientUnits="userSpaceOnUse"
       x2="0"
       gradientTransform="matrix(1.0284532,0,0,0.97695536,-392.19618,-483.62549)" />
    <linearGradient
       id="linearGradient8"
       y1="543.79999"
       y2="503.79999"
       x2="0"
       gradientUnits="userSpaceOnUse"
       gradientTransform="matrix(1.125,0,0,1,-51.07,0)">
      <stop
         stop-color="#c6cdd1"
         id="stop7-3" />
      <stop
         offset="1"
         stop-color="#e0e5e7"
         id="stop8" />
    </linearGradient>
    <linearGradient
       xlink:href="#a-6-9-5"
       id="h-9-6-6"
       y1="516.79999"
       y2="514.79999"
       gradientUnits="userSpaceOnUse"
       x2="0"
       gradientTransform="matrix(1.0284532,0,0,0.97695536,-392.19618,-483.62549)" />
    <linearGradient
       id="linearGradient10"
       y1="543.79999"
       y2="503.79999"
       x2="0"
       gradientUnits="userSpaceOnUse"
       gradientTransform="matrix(1.125,0,0,1,-51.07,0)">
      <stop
         stop-color="#c6cdd1"
         id="stop9-0" />
      <stop
         offset="1"
         stop-color="#e0e5e7"
         id="stop10" />
    </linearGradient>
    <linearGradient
       xlink:href="#a-6-9-5"
       id="i-3-0-6"
       y1="518.79999"
       y2="516.79999"
       gradientUnits="userSpaceOnUse"
       x2="0"
       gradientTransform="matrix(1.0284532,0,0,0.97695536,-392.19618,-483.62549)" />
    <linearGradient
       id="linearGradient12"
       y1="543.79999"
       y2="503.79999"
       x2="0"
       gradientUnits="userSpaceOnUse"
       gradientTransform="matrix(1.125,0,0,1,-51.07,0)">
      <stop
         stop-color="#c6cdd1"
         id="stop11-2" />
      <stop
         offset="1"
         stop-color="#e0e5e7"
         id="stop12-6" />
    </linearGradient>
    <linearGradient
       xlink:href="#a-6-9-5"
       id="j-6-6-1"
       y1="520.79999"
       y2="518.79999"
       gradientUnits="userSpaceOnUse"
       x2="0"
       gradientTransform="matrix(1.0284532,0,0,0.97695536,-392.19618,-483.62549)" />
    <linearGradient
       id="linearGradient14-8"
       y1="543.79999"
       y2="503.79999"
       x2="0"
       gradientUnits="userSpaceOnUse"
       gradientTransform="matrix(1.125,0,0,1,-51.07,0)">
      <stop
         stop-color="#c6cdd1"
         id="stop13-7" />
      <stop
         offset="1"
         stop-color="#e0e5e7"
         id="stop14" />
    </linearGradient>
    <linearGradient
       xlink:href="#a-6-9-5"
       id="k-0-2-9"
       y1="523.79999"
       y2="520.79999"
       gradientUnits="userSpaceOnUse"
       x2="0"
       gradientTransform="matrix(1.0284532,0,0,0.97695536,-392.19618,-483.62549)" />
    <linearGradient
       id="linearGradient16"
       y1="543.79999"
       y2="503.79999"
       x2="0"
       gradientUnits="userSpaceOnUse"
       gradientTransform="matrix(1.125,0,0,1,-51.07,0)">
      <stop
         stop-color="#c6cdd1"
         id="stop15-2" />
      <stop
         offset="1"
         stop-color="#e0e5e7"
         id="stop16" />
    </linearGradient>
    <linearGradient
       xlink:href="#a-6-9-5"
       id="l-6-6-0"
       y1="33"
       y2="25"
       x2="0"
       gradientUnits="userSpaceOnUse"
       gradientTransform="matrix(1.0284532,0,0,0.97695536,3.3162253,4.6569548)" />
    <linearGradient
       id="linearGradient18"
       y1="543.79999"
       y2="503.79999"
       x2="0"
       gradientUnits="userSpaceOnUse"
       gradientTransform="matrix(1.125,0,0,1,-51.07,0)">
      <stop
         stop-color="#c6cdd1"
         id="stop17-2" />
      <stop
         offset="1"
         stop-color="#e0e5e7"
         id="stop18" />
    </linearGradient>
    <linearGradient
       inkscape:collect="always"
       xlink:href="#linearGradient1013"
       id="linearGradient1015"
       x1="-45.452461"
       y1="23.120121"
       x2="-0.32164383"
       y2="23.120121"
       gradientUnits="userSpaceOnUse" />
    <linearGradient
       inkscape:collect="always"
       xlink:href="#linearGradient1"
       id="linearGradient12-3"
       x1="12.202705"
       y1="20.794916"
       x2="-11.193524"
       y2="44.363842"
       gradientUnits="userSpaceOnUse" />
    <linearGradient
       id="linearGradient1"
       inkscape:collect="always">
      <stop
         style="stop-color:#ff9955;stop-opacity:1;"
         offset="0"
         id="stop11" />
      <stop
         style="stop-color:#ff9955;stop-opacity:0.2;"
         offset="1"
         id="stop12-67" />
    </linearGradient>
  </defs>
  <rect
     x="-46.092155"
     y="1.2096434"
     width="45.130817"
     height="45.11338"
     rx="6.0931306"
     shape-rendering="crispEdges"
     id="rect5-6-7"
     ry="6.7034807"
     transform="matrix(0.00523884,-0.99998628,0.999988,0.00489858,0,0)"
     style="fill:#ff9955;fill-opacity:0.10196079;stroke:url(#linearGradient1015);stroke-width:2;stroke-miterlimit:4;stroke-dasharray:none;stroke-opacity:1" />
  <rect
     x="-14.060373"
     y="18.58709"
     width="29.906599"
     height="29.905666"
     rx="6.0928807"
     shape-rendering="crispEdges"
     id="rect5-6-6-6-5"
     style="fill:#ff9955;fill-opacity:0.11764706;stroke:url(#linearGradient12-3);stroke-width:1.5;stroke-miterlimit:4;stroke-dasharray:none;stroke-opacity:1"
     ry="6.7032056"
     transform="matrix(0.72612648,-0.68756115,0.68797749,0.72573202,0,0)" />
  <path
     d="m 22.341776,36.596133 c -1.207518,-0.119878 -2.395864,-0.38601 -3.181715,-0.716867 a 7.1875987,7.1925938 0 0 1 -0.356986,-0.153443 19.166933,19.180254 0 0 1 -0.141351,-0.757617 l -0.24198,-1.349804 c -0.378539,-2.045108 -0.785849,-4.483395 -0.757099,-4.51216 0.01435,-0.01682 2.343156,1.544006 5.036115,3.370925 2.465346,1.673473 2.94452,1.999534 4.068181,2.752367 1.126057,0.757617 1.05897,0.704879 1.003867,0.736042 a 9.5834732,9.5901277 0 0 1 -1.159601,0.376408 14.375198,14.385185 0 0 1 -1.715435,0.270921 21.562797,21.577787 0 0 1 -2.553996,-0.0168 m 5.922582,-1.294676 a 50.313196,50.34816 0 0 1 -2.49889,-1.721438 45.521471,45.553101 0 0 0 -1.598046,-1.105267 4.7917333,4.7950636 0 0 1 -0.761888,-0.527453 c -0.162914,-0.139056 -0.234787,-0.249348 -0.162914,-0.249348 0.04308,0 2.204195,-0.402785 3.785472,-0.704872 1.83283,-0.350041 5.20142,-1.011762 7.477497,-1.464893 0.416883,-0.08393 0.766673,-0.143853 0.78105,-0.129466 0.02398,0.02399 -0.162907,0.3908 -0.474383,0.913458 a 12.69809,12.706915 0 0 1 -3.119415,3.555543 19.166933,19.180254 0 0 1 -1.629192,1.09566 14.375198,14.385185 0 0 1 -1.284179,0.642544 c -0.02397,0 -0.25636,-0.136652 -0.515112,-0.302085 z M 17.384725,35.025732 A 11.020988,11.028643 0 0 1 14.47854,32.887139 13.416853,13.426179 0 0 1 12.413301,30.230674 16.771065,16.782719 0 0 1 11.730482,28.959987 c 0,-0.03595 1.023036,-1.570394 1.88794,-2.831489 0.716366,-1.047713 1.432732,-2.119423 1.81128,-2.716395 0.04551,-0.06712 0.08865,-0.115093 0.09824,-0.105533 0.04791,0.048 0.661264,3.020888 1.176368,5.703729 0.455219,2.368762 0.546261,2.841082 0.723557,3.728167 0.203648,1.028538 0.464793,2.304024 0.503128,2.452661 q 0.02159,0.08872 -0.01432,0.08872 c -0.01922,0 -0.25876,-0.115077 -0.531893,-0.254137 m 11.607961,-5.262586 c -0.01195,-0.03354 0.02397,-0.103119 0.100645,-0.1894 0.06468,-0.07668 0.445634,-0.628154 0.843352,-1.229944 0.642089,-0.968598 1.099699,-1.63031 2.084405,-3.028074 a 165.31475,165.42966 0 0 0 3.646508,-5.315331 4.7917333,4.7950636 0 0 1 0.282707,-0.414771 c 0.0407,-0.0054 0.265937,0.649729 0.388134,1.122041 0.234787,0.911068 0.30667,1.594363 0.304272,2.833892 q -0.0092,2.67564 -0.800219,4.744712 l -0.09585,0.249339 -0.167716,0.03354 -0.675642,0.131869 -2.913371,0.556218 a 208.44038,208.58524 0 0 1 -2.887018,0.53945 q -0.09344,0.02399 -0.11021,-0.03354 M 11.234543,27.507061 c -0.414482,-1.052517 -0.589379,-2.169771 -0.591776,-3.771314 0,-1.294674 0.08147,-2.069076 0.342604,-3.239065 0.103056,-0.469923 0.402508,-1.412154 0.467194,-1.476883 0.02398,-0.024 0.316258,-0.08872 0.65408,-0.146254 0.610941,-0.105512 1.756166,-0.316468 3.042748,-0.561023 2.151488,-0.407577 3.100249,-0.56821 3.174523,-0.539443 0.02396,0.0092 0.04794,0.04555 0.04794,0.07915 0,0.06951 0.0092,0.0504 -0.606157,0.918252 l -0.747509,1.057304 -1.044595,1.481688 A 265.94119,266.12602 0 0 0 11.965297,27.082715 14.375198,14.385185 0 0 1 11.40706,27.88828 2.3958662,2.3975312 0 0 1 11.234557,27.504683 Z M 31.635335,24.068999 A 21.562797,21.577787 0 0 0 31.515544,23.36173 L 31.287948,22.074255 30.42543,16.962717 C 30.286467,16.111588 29.833649,13.541441 29.675522,12.71429 a 3.3542131,3.356544 0 0 1 -0.08626,-0.625752 c 0.0383,-0.03833 0.709176,0.338043 1.310537,0.738441 a 12.69809,12.706915 0 0 1 3.668071,3.728152 c 0.38334,0.599384 0.881679,1.522434 1.054184,1.956391 l 0.06228,0.163032 -0.20125,0.316478 c -0.218022,0.345242 -0.5223,0.771997 -1.413563,1.997136 -0.318645,0.441154 -0.778655,1.093277 -1.020634,1.450501 -0.610948,0.896686 -1.296166,1.802953 -1.370437,1.802953 -0.01199,0 -0.03114,-0.07672 -0.04318,-0.172623 M 29.565251,18.36767 A 26.354528,26.372845 0 0 0 28.295439,17.48058 373.75516,374.0149 0 0 1 20.13751,11.851182 7.1875987,7.1925938 0 0 1 19.445108,11.275773 c 0,-0.02399 0.692402,-0.239754 1.039797,-0.321274 0.347407,-0.08153 1.116481,-0.215777 1.562111,-0.268523 0.225286,-0.02877 0.757167,-0.04313 1.562178,-0.04313 1.070954,0 1.284188,0.01197 1.741797,0.07191 0.814593,0.112687 1.3896,0.225375 1.95263,0.388407 0.503136,0.143848 1.31773,0.453131 1.31773,0.498684 l 0.131768,0.767211 c 0.07186,0.407578 0.239584,1.419338 0.376154,2.244091 0.239589,1.481672 0.388127,2.349581 0.555839,3.27982 0.07908,0.443543 0.08387,0.582597 0.01921,0.582597 a 0.47917333,0.47950636 0 0 1 -0.138986,-0.107888 m -17.63838,-0.366839 a 12.554341,12.563071 0 0 1 5.026526,-5.533496 c 0.543865,-0.326067 1.418355,-0.767212 1.521381,-0.767212 0.07671,0 0.261149,0.127069 2.65941,1.812528 1.420747,0.994975 1.835231,1.280284 2.312011,1.584772 0.412086,0.263732 0.814592,0.580197 0.814592,0.64254 0,0.01432 -0.0407,0.03594 -0.08865,0.04548 a 661.25895,661.7185 0 0 1 -7.446358,1.400185 l -4.774957,0.887088 c -0.05036,0.01437 -0.05275,0.0054 -0.02397,-0.07191"
     style="fill:#ff9955;fill-opacity:1;stroke-width:0.0325587"
     id="path1" />
</svg>
