<?xml version="1.0" encoding="UTF-8" standalone="no"?>
<svg
   width="47.129753"
   height="47.135792"
   version="1.1"
   id="svg1708"
   sodipodi:docname="portal2.svg"
   inkscape:version="1.4 (unknown)"
   xmlns:inkscape="http://www.inkscape.org/namespaces/inkscape"
   xmlns:sodipodi="http://sodipodi.sourceforge.net/DTD/sodipodi-0.dtd"
   xmlns:xlink="http://www.w3.org/1999/xlink"
   xmlns="http://www.w3.org/2000/svg"
   xmlns:svg="http://www.w3.org/2000/svg"
   xmlns:rdf="http://www.w3.org/1999/02/22-rdf-syntax-ns#"
   xmlns:cc="http://creativecommons.org/ns#"
   xmlns:dc="http://purl.org/dc/elements/1.1/"
   xmlns:a="http://ns.adobe.com/AdobeSVGViewerExtensions/3.0/">
  <style
     id="style961" />
  <metadata
     id="metadata136">
    <rdf:RDF>
      <cc:Work
         rdf:about="">
        <dc:format>image/svg+xml</dc:format>
        <dc:type
           rdf:resource="http://purl.org/dc/dcmitype/StillImage" />
      </cc:Work>
    </rdf:RDF>
  </metadata>
  <sodipodi:namedview
     id="namedview1710"
     pagecolor="#000000"
     bordercolor="#666666"
     borderopacity="1.0"
     inkscape:showpageshadow="2"
     inkscape:pageopacity="0.0"
     inkscape:pagecheckerboard="0"
     inkscape:deskcolor="#d1d1d1"
     showgrid="false"
     inkscape:zoom="10.216193"
     inkscape:cx="11.990768"
     inkscape:cy="29.022553"
     inkscape:window-width="1920"
     inkscape:window-height="998"
     inkscape:window-x="0"
     inkscape:window-y="0"
     inkscape:window-maximized="1"
     inkscape:current-layer="svg1708"
     showguides="false"
     inkscape:document-rotation="0" />
  <defs
     id="defs1680">
    <linearGradient
       id="linearGradient3"
       gradientUnits="userSpaceOnUse"
       x1="66.381798"
       y1="34.545399"
       x2="66.381798"
       y2="97.043503"
       gradientTransform="matrix(0.38079283,0,0,0.38079283,-107.24801,-44.630221)">
      <stop
         offset="0"
         style="stop-color:#2a7fff;stop-opacity:0.6997717"
         id="stop1" />
      <stop
         offset="1"
         style="stop-color:#428AFF"
         id="stop3" />
      <a:midPointStop
         offset="0"
         style="stop-color:#57ADFF" />
      <a:midPointStop
         offset="0.5"
         style="stop-color:#57ADFF" />
      <a:midPointStop
         offset="1"
         style="stop-color:#428AFF" />
    </linearGradient>
    <linearGradient
       id="a"
       y1="538.79999"
       x1="406.57001"
       y2="507.51999"
       x2="429.12"
       gradientUnits="userSpaceOnUse"
       gradientTransform="matrix(-1.81818,0,0,1.2469,1167.79,-128.03)">
      <stop
         stop-color="#f3ac12"
         id="stop1645" />
      <stop
         offset="1"
         stop-color="#f5cb39"
         id="stop1647" />
    </linearGradient>
    <linearGradient
       id="b"
       y1="31"
       x1="53"
       y2="18"
       x2="40"
       gradientUnits="userSpaceOnUse"
       gradientTransform="rotate(180,228.285,280.4)">
      <stop
         stop-color="#383e51"
         id="stop1650" />
      <stop
         offset="1"
         stop-color="#655c6f"
         stop-opacity="0"
         id="stop1652" />
    </linearGradient>
    <linearGradient
       id="c"
       y1="61"
       y2="47"
       x2="0"
       gradientUnits="userSpaceOnUse"
       gradientTransform="matrix(-1,0,0,1,442.57,482.8)">
      <stop
         stop-color="#fddda3"
         id="stop1655" />
      <stop
         offset="1"
         stop-color="#fde3a7"
         id="stop1657" />
    </linearGradient>
    <linearGradient
       id="d"
       y1="522.46002"
       y2="541.20001"
       gradientUnits="userSpaceOnUse"
       x2="0"
       gradientTransform="matrix(-1.81818,0,0,1.2469,1167.79,-128.03)">
      <stop
         stop-color="#daae00"
         id="stop1660" />
      <stop
         offset="1"
         stop-color="#eca01c"
         id="stop1662" />
    </linearGradient>
    <linearGradient
       id="e"
       y1="-512.79999"
       x1="403.57001"
       y2="-501.79999"
       x2="390.57001"
       gradientUnits="userSpaceOnUse">
      <stop
         stop-color="#f5cd52"
         id="stop1665" />
      <stop
         offset="1"
         stop-color="#f8d474"
         id="stop1667" />
    </linearGradient>
    <linearGradient
       id="f"
       x1="394.57001"
       x2="435.57001"
       gradientUnits="userSpaceOnUse">
      <stop
         stop-color="#e88f21"
         id="stop1670" />
      <stop
         offset="1"
         stop-color="#e88f21"
         stop-opacity="0"
         id="stop1672" />
    </linearGradient>
    <linearGradient
       id="g"
       x1="393.57001"
       x2="439.57001"
       gradientUnits="userSpaceOnUse">
      <stop
         stop-color="#ffffff"
         id="stop1675" />
      <stop
         offset="1"
         stop-color="#ffffff"
         stop-opacity="0"
         id="stop1677" />
    </linearGradient>
    <linearGradient
       id="a-3"
       y1="543.79999"
       y2="503.79999"
       x2="0"
       gradientUnits="userSpaceOnUse"
       gradientTransform="matrix(1.0499472,0,0,1.0499996,-452.97695,-525.98986)">
      <stop
         stop-color="#c6cdd1"
         id="stop2" />
      <stop
         offset="1"
         stop-color="#e0e5e7"
         id="stop4" />
    </linearGradient>
    <linearGradient
       id="XMLID_4_"
       gradientUnits="userSpaceOnUse"
       x1="76.171898"
       y1="76.330101"
       x2="76.171898"
       y2="113.3281"
       gradientTransform="matrix(0.38079283,0,0,0.38079283,-107.24801,-44.630221)">
      <stop
         offset="0"
         style="stop-color:#FF0000"
         id="stop26" />
      <stop
         offset="1"
         style="stop-color:#7C0000"
         id="stop28" />
      <a:midPointStop
         offset="0"
         style="stop-color:#FF0000" />
      <a:midPointStop
         offset="0.5"
         style="stop-color:#FF0000" />
      <a:midPointStop
         offset="1"
         style="stop-color:#7C0000" />
    </linearGradient>
    <linearGradient
       id="XMLID_5_"
       gradientUnits="userSpaceOnUse"
       x1="66.381798"
       y1="34.545399"
       x2="66.381798"
       y2="97.043503"
       gradientTransform="matrix(0.38079283,0,0,0.38079283,-107.24801,-44.630221)">
      <stop
         offset="0"
         style="stop-color:#57ADFF"
         id="stop33" />
      <stop
         offset="1"
         style="stop-color:#428AFF"
         id="stop35" />
      <a:midPointStop
         offset="0"
         style="stop-color:#57ADFF" />
      <a:midPointStop
         offset="0.5"
         style="stop-color:#57ADFF" />
      <a:midPointStop
         offset="1"
         style="stop-color:#428AFF" />
    </linearGradient>
    <linearGradient
       id="linearGradient2257">
      <stop
         id="stop2259"
         offset="0"
         style="stop-color:#b4942a;stop-opacity:1;" />
      <stop
         id="stop2261"
         offset="1"
         style="stop-color:#e4dcc9;stop-opacity:1" />
    </linearGradient>
    <linearGradient
       id="linearGradient2598">
      <stop
         style="stop-color:#252525;stop-opacity:1;"
         offset="0"
         id="stop2600" />
      <stop
         id="stop2606"
         offset="0.5"
         style="stop-color:#252525;stop-opacity:1;" />
      <stop
         style="stop-color:#252525;stop-opacity:1;"
         offset="0.75"
         id="stop2608" />
      <stop
         style="stop-color:#000000;stop-opacity:1;"
         offset="1"
         id="stop2602" />
    </linearGradient>
    <linearGradient
       id="linearGradient3311">
      <stop
         id="stop3313"
         offset="0"
         style="stop-color:#2d2d2d;stop-opacity:1;" />
      <stop
         style="stop-color:#000000;stop-opacity:1;"
         offset="0.5"
         id="stop3319" />
      <stop
         id="stop3315"
         offset="1"
         style="stop-color:#000000;stop-opacity:1;" />
    </linearGradient>
    <linearGradient
       id="linearGradient3303">
      <stop
         id="stop3305"
         offset="0"
         style="stop-color:#ffffff;stop-opacity:0.68345326;" />
      <stop
         id="stop3307"
         offset="1"
         style="stop-color:#ffffff;stop-opacity:0;" />
    </linearGradient>
    <linearGradient
       id="linearGradient3225">
      <stop
         id="stop3227"
         offset="0"
         style="stop-color:#ffffff;stop-opacity:1;" />
      <stop
         id="stop3229"
         offset="1"
         style="stop-color:#aeaeae;stop-opacity:1;" />
    </linearGradient>
    <linearGradient
       id="linearGradient3207">
      <stop
         id="stop3209"
         offset="0"
         style="stop-color:#ffffff;stop-opacity:1;" />
      <stop
         id="stop3211"
         offset="1"
         style="stop-color:#252525;stop-opacity:0;" />
    </linearGradient>
    <linearGradient
       id="linearGradient3251">
      <stop
         style="stop-color:#000000;stop-opacity:1;"
         offset="0"
         id="stop3253" />
      <stop
         id="stop14161"
         offset="0.7087912"
         style="stop-color:#090909;stop-opacity:0.67870039;" />
      <stop
         style="stop-color:#131313;stop-opacity:0;"
         offset="1"
         id="stop3255" />
    </linearGradient>
    <linearGradient
       id="linearGradient3273">
      <stop
         id="stop3275"
         offset="0"
         style="stop-color:#ffffff;stop-opacity:0.55035973;" />
      <stop
         id="stop3277"
         offset="1"
         style="stop-color:#ffffff;stop-opacity:0;" />
    </linearGradient>
    <linearGradient
       id="linearGradient3259">
      <stop
         style="stop-color:#ffffff;stop-opacity:0.55035973;"
         offset="0"
         id="stop3261" />
      <stop
         style="stop-color:#000000;stop-opacity:0;"
         offset="1"
         id="stop3263" />
    </linearGradient>
    <filter
       id="filter1272"
       x="-0.094272248"
       y="-0.09046597"
       width="1.1885445"
       height="1.1809319"
       color-interpolation-filters="sRGB">
      <feGaussianBlur
         stdDeviation="0.39771105"
         id="feGaussianBlur15" />
    </filter>
    <filter
       id="filter1066"
       x="-0.063922502"
       y="-0.056531057"
       width="1.127845"
       height="1.1130621"
       color-interpolation-filters="sRGB">
      <feGaussianBlur
         stdDeviation="0.22705935"
         id="feGaussianBlur2" />
    </filter>
    <filter
       id="filter3507"
       x="-0.063922502"
       y="-0.056531057"
       width="1.127845"
       height="1.1130621"
       color-interpolation-filters="sRGB">
      <feGaussianBlur
         stdDeviation="0.22705935"
         id="feGaussianBlur3505" />
    </filter>
    <linearGradient
       id="linearGradient1040"
       x1="80.367996"
       x2="82.140999"
       y1="13.177"
       y2="14.704"
       gradientTransform="matrix(2.6633938,0,0,2.6862432,-277.95481,-4.4791221)"
       gradientUnits="userSpaceOnUse">
      <stop
         stop-color="#fafafa"
         offset="0"
         id="stop5" />
      <stop
         stop-color="#90a0b3"
         offset="1"
         id="stop7" />
    </linearGradient>
    <linearGradient
       id="linearGradient1166"
       x1="54.456001"
       x2="54.456001"
       y1="6.4548001"
       y2="11.072"
       gradientTransform="matrix(3.2820152,0,0,3.3101718,-156.14915,-21.072866)"
       gradientUnits="userSpaceOnUse">
      <stop
         stop-color="#ffd700"
         offset="0"
         id="stop10" />
      <stop
         stop-color="#ffb300"
         offset="1"
         id="stop12" />
    </linearGradient>
    <filter
       id="filter1272-3"
       x="-0.094272248"
       y="-0.09046597"
       width="1.1885445"
       height="1.1809319"
       color-interpolation-filters="sRGB">
      <feGaussianBlur
         stdDeviation="0.39771105"
         id="feGaussianBlur15-6" />
    </filter>
    <filter
       id="filter1066-7"
       x="-0.063922502"
       y="-0.056531057"
       width="1.127845"
       height="1.1130621"
       color-interpolation-filters="sRGB">
      <feGaussianBlur
         stdDeviation="0.22705935"
         id="feGaussianBlur2-5" />
    </filter>
    <filter
       id="filter1986"
       x="-0.063922502"
       y="-0.056531057"
       width="1.127845"
       height="1.1130621"
       color-interpolation-filters="sRGB">
      <feGaussianBlur
         stdDeviation="0.22705935"
         id="feGaussianBlur1984" />
    </filter>
    <linearGradient
       id="linearGradient10"
       x1="5.7714014"
       y1="46.610188"
       x2="7.0511508"
       y2="-11.516281"
       gradientUnits="userSpaceOnUse"
       gradientTransform="matrix(0.00349878,0.71427599,-0.7142775,0.00374182,-11.045453,19.915241)"
       spreadMethod="pad">
      <stop
         stop-color="#E4F9FF"
         stop-opacity="0.1"
         id="stop9"
         offset="0"
         style="stop-color:#b380ff;stop-opacity:1" />
      <stop
         offset="1"
         stop-color="#E4F9FF"
         stop-opacity="0.8"
         id="stop10-3"
         style="stop-color:#7f2aff;stop-opacity:1" />
    </linearGradient>
    <linearGradient
       inkscape:collect="always"
       xlink:href="#XMLID_5_"
       id="linearGradient12"
       x1="12.202705"
       y1="20.794916"
       x2="-11.193524"
       y2="44.363842"
       gradientUnits="userSpaceOnUse" />
    <linearGradient
       inkscape:collect="always"
       xlink:href="#XMLID_5_"
       id="linearGradient969"
       x1="-45.561798"
       y1="23.011372"
       x2="-0.43097687"
       y2="23.011372"
       gradientUnits="userSpaceOnUse" />
  </defs>
  <rect
     x="-46.129608"
     y="1.0199095"
     width="45.130821"
     height="45.113369"
     rx="6.0931311"
     shape-rendering="crispEdges"
     id="rect5-6-7"
     ry="6.7034788"
     transform="matrix(4.9726365e-4,-0.99999988,0.99999999,1.5699932e-4,0,0)"
     style="fill:#2a7fff;fill-opacity:0.1;stroke:url(#linearGradient969);stroke-width:2;stroke-miterlimit:4;stroke-dasharray:none;stroke-opacity:1" />
  <rect
     x="-14.065985"
     y="18.355886"
     width="29.906599"
     height="29.905666"
     rx="6.0928807"
     shape-rendering="crispEdges"
     id="rect5-6-6-6"
     style="fill:#80b3ff;fill-opacity:0.118721;stroke:url(#linearGradient12);stroke-width:1.5;stroke-miterlimit:4;stroke-dasharray:none;stroke-opacity:1"
     ry="6.7032056"
     transform="matrix(0.72612648,-0.68756115,0.68797749,0.72573202,0,0)" />
  <g
     id="g1"
     transform="matrix(0.86666922,0,0,0.86666922,25.298181,-60.503755)">
    <path
       d="m -3.5011127,111.94614 c -1.3932936,-0.1383 -2.764469,-0.44535 -3.6712158,-0.82715 a 8.2934,8.299163 0 0 1 -0.4119069,-0.17705 22.115737,22.13111 0 0 1 -0.163103,-0.87415 l -0.2792084,-1.55749 c -0.4367862,-2.35976 -0.906748,-5.17318 -0.8735715,-5.20636 0.016564,-0.0198 2.7036465,1.78158 5.8109112,3.88958 2.84463652,1.93087 3.39753015,2.30717 4.6940645,3.17579 1.2993004,0.87422 1.2218933,0.81342 1.1583107,0.84938 a 11.057872,11.065555 0 0 1 -1.3380028,0.43419 16.586798,16.598336 0 0 1 -1.97935562,0.31267 24.880208,24.897504 0 0 1 -2.94692238,-0.0198 m 6.8337637,-1.494 a 58.053818,58.094164 0 0 1 -2.88334246,-1.98629 52.524882,52.561387 0 0 0 -1.84389904,-1.27531 5.5289352,5.5327779 0 0 1 -0.8791012,-0.60859 c -0.1879852,-0.16057 -0.2709161,-0.28771 -0.1879852,-0.28771 0.049735,0 2.54331347,-0.46476 4.3678626,-0.81332 2.1148116,-0.40392 6.0016557,-1.16741 8.6278983,-1.69024 0.481025,-0.0964 0.884632,-0.16603 0.901216,-0.1494 0.02765,0.0279 -0.187978,0.45091 -0.547359,1.05399 a 14.651679,14.66186 0 0 1 -3.5993398,4.10257 22.115737,22.13111 0 0 1 -1.87984,1.26422 16.586798,16.598336 0 0 1 -1.4817507,0.74137 c -0.027664,0 -0.2957943,-0.15766 -0.5943595,-0.34856 z M -9.2207997,110.1336 a 12.716551,12.725389 0 0 1 -3.3532963,-2.46763 15.481015,15.491774 0 0 1 -2.382971,-3.0651 19.351269,19.364719 0 0 1 -0.787868,-1.46621 c 0,-0.0413 1.180415,-1.81198 2.178392,-3.26713 0.826577,-1.20889 1.653151,-2.445485 2.089938,-3.134287 0.05251,-0.07754 0.102277,-0.132818 0.113344,-0.121767 0.05521,0.05524 0.762989,3.485624 1.357358,6.581244 0.5252442,2.73318 0.6302963,3.2782 0.8348638,4.30174 0.2349838,1.1868 0.5363058,2.65849 0.5805388,2.83004 q 0.0249,0.10194 -0.016564,0.10194 c -0.02214,0 -0.2985631,-0.13284 -0.6137131,-0.29327 m 13.3938448,-6.07189 c -0.013786,-0.0386 0.027662,-0.119 0.1161075,-0.21858 0.074634,-0.0886 0.5141937,-0.72481 0.9730942,-1.41913 0.7408744,-1.11767 1.2688914,-1.88116 2.4050909,-3.493938 a 190.74828,190.88081 0 0 0 4.2075141,-6.133116 5.5289352,5.5327779 0 0 1 0.326206,-0.478594 c 0.04702,-0.006 0.306857,0.749688 0.447844,1.294669 0.270918,1.051233 0.353849,1.839652 0.351087,3.26988 q -0.01109,3.087303 -0.923335,5.474699 l -0.110574,0.28771 -0.193517,0.0386 -0.77958,0.15209 -3.3615865,0.6418 a 240.50871,240.6758 0 0 1 -3.3311798,0.6225 q -0.1078143,0.0279 -0.1271681,-0.0386 M -16.317182,101.4587 C -16.795428,100.24431 -16.997236,98.955161 -17,97.107185 c 0,-1.493833 0.09394,-2.387377 0.395318,-3.737368 0.118872,-0.542211 0.464432,-1.629405 0.539071,-1.704094 0.02765,-0.02765 0.364909,-0.102347 0.754697,-0.16875 0.704943,-0.121718 2.026363,-0.365165 3.510877,-0.647336 2.4824918,-0.470288 3.5772194,-0.655636 3.6629206,-0.622437 0.02765,0.01109 0.055281,0.05253 0.055281,0.09124 0,0.08026 0.01104,0.05809 -0.6994106,1.059532 l -0.862514,1.219972 -1.205302,1.709629 a 306.85588,307.06917 0 0 0 -4.624958,6.661517 16.586798,16.598336 0 0 1 -0.644117,0.92952 2.7644676,2.7663888 0 0 1 -0.199051,-0.44265 z M 7.2222558,97.491723 A 24.880208,24.897504 0 0 0 7.0840275,96.675652 L 6.8214052,95.190109 5.826197,89.292167 C 5.6658602,88.31011 5.1433758,85.344536 4.9609175,84.390134 a 3.8702546,3.872944 0 0 1 -0.099522,-0.722029 c 0.04419,-0.04427 0.8182834,0.390065 1.5121643,0.852056 a 14.651679,14.66186 0 0 1 4.2323982,4.301733 c 0.442313,0.691591 1.01733,1.756649 1.216372,2.257368 l 0.07187,0.188114 -0.23221,0.365173 c -0.25157,0.398352 -0.602662,0.890775 -1.631045,2.304394 -0.3676715,0.509022 -0.8984519,1.261476 -1.1776557,1.673665 -0.7049447,1.034608 -1.4955834,2.080344 -1.5812794,2.080344 -0.013773,0 -0.035933,-0.08852 -0.04974,-0.199214 M 4.8337645,90.913283 A 30.409144,30.430274 0 0 0 3.368594,89.889714 431.25694,431.55665 0 0 1 -6.0444204,83.394231 8.2934,8.299163 0 0 1 -6.8433507,82.7303 c 0,-0.02764 0.7989303,-0.276636 1.1997789,-0.370691 0.4008482,-0.09401 1.2882428,-0.248975 1.8024338,-0.309839 C -3.5812753,82.016564 -2.9675621,82 -2.0387044,82 c 1.23572077,0 1.48175725,0.01385 2.0097721,0.08305 0.93991489,0.13002 1.6033877,0.260051 2.2530377,0.448167 0.5805397,0.165974 1.5204615,0.522836 1.5204615,0.575404 l 0.1520408,0.885237 c 0.082936,0.470284 0.276448,1.637703 0.4340239,2.589348 0.2764503,1.709616 0.447844,2.711053 0.6413528,3.784406 0.091226,0.511787 0.096764,0.672236 0.022178,0.672236 A 0.55289352,0.55327779 0 0 1 4.8337821,90.913299 M -15.518237,90.490024 a 14.485809,14.495882 0 0 1 5.7998562,-6.38482 c 0.6275344,-0.376228 1.6365644,-0.885237 1.7554382,-0.885237 0.088466,0 0.3013282,0.14661 3.0685578,2.091382 1.6393294,1.148052 2.1175839,1.477249 2.6677117,1.82858 0.4754862,0.304301 0.9399174,0.669467 0.9399174,0.741394 0,0.01662 -0.046985,0.04151 -0.1022835,0.05258 a 762.99277,763.52292 0 0 1 -8.5919631,1.615599 l -5.5095947,1.023569 c -0.05804,0.01664 -0.06082,0.006 -0.02762,-0.08305"
       style="fill:#3499cb;fill-opacity:1;stroke-width:0.0375673"
       id="path1-3" />
    <text
       xml:space="preserve"
       style="font-size:15.9996px;font-family:'Blush Asliring';-inkscape-font-specification:'Blush Asliring';text-align:start;writing-mode:lr-tb;direction:ltr;text-anchor:start;fill:#f2f2f2;fill-opacity:1;stroke:#f2f2f2;stroke-width:0.162;stroke-linecap:round;stroke-linejoin:round;stroke-opacity:1;paint-order:fill markers stroke"
       x="-6.6399636"
       y="102.77641"
       id="text1"><tspan
         sodipodi:role="line"
         id="tspan1"
         x="-6.6399636"
         y="102.77641"
         style="stroke-width:0.162">2</tspan></text>
  </g>
</svg>
