<?xml version="1.0" encoding="UTF-8" standalone="no"?>
<svg
   width="47.285591"
   height="47.28569"
   version="1.1"
   viewBox="0 0 12.510734 12.51076"
   id="svg12"
   sodipodi:docname="qreator.svg"
   inkscape:version="1.4 (unknown)"
   xmlns:inkscape="http://www.inkscape.org/namespaces/inkscape"
   xmlns:sodipodi="http://sodipodi.sourceforge.net/DTD/sodipodi-0.dtd"
   xmlns:xlink="http://www.w3.org/1999/xlink"
   xmlns="http://www.w3.org/2000/svg"
   xmlns:svg="http://www.w3.org/2000/svg"
   xmlns:rdf="http://www.w3.org/1999/02/22-rdf-syntax-ns#"
   xmlns:cc="http://creativecommons.org/ns#"
   xmlns:dc="http://purl.org/dc/elements/1.1/">
  <style
     id="style853" />
  <metadata
     id="metadata29">
    <rdf:RDF>
      <cc:Work
         rdf:about="">
        <dc:format>image/svg+xml</dc:format>
        <dc:type
           rdf:resource="http://purl.org/dc/dcmitype/StillImage" />
      </cc:Work>
    </rdf:RDF>
  </metadata>
  <defs
     id="defs16">
    <linearGradient
       inkscape:collect="always"
       id="linearGradient858">
      <stop
         style="stop-color:#d35f8d;stop-opacity:0.54769737"
         offset="0"
         id="stop854" />
      <stop
         style="stop-color:#a02c5a;stop-opacity:1"
         offset="1"
         id="stop856" />
    </linearGradient>
    <linearGradient
       id="c"
       y1="523.79999"
       x1="403.57001"
       y2="536.79999"
       x2="416.57001"
       gradientUnits="userSpaceOnUse"
       gradientTransform="matrix(0.34526714,0,0,0.34526706,-134.80427,-174.63325)">
      <stop
         stop-color="#292c2f"
         id="stop1568" />
      <stop
         offset="1"
         stop-opacity="0"
         id="stop1570" />
    </linearGradient>
    <linearGradient
       xlink:href="#b-2"
       id="linearGradient4189"
       x1="14.369"
       y1="22.521999"
       x2="26.521999"
       y2="22.521999"
       gradientUnits="userSpaceOnUse" />
    <linearGradient
       x1="36"
       gradientUnits="userSpaceOnUse"
       x2="14"
       y2="12"
       y1="44"
       id="b-2">
      <stop
         style="stop-color:#bfc9c9;stop-opacity:1"
         stop-color="#536161"
         id="stop1579" />
      <stop
         style="stop-color:#fbfbfb;stop-opacity:1"
         stop-color="#f4f5f5"
         offset="1"
         id="stop1581" />
    </linearGradient>
    <linearGradient
       xlink:href="#b-2"
       id="linearGradient4428"
       gradientUnits="userSpaceOnUse"
       x1="31.586"
       y1="36.345001"
       x2="1.2029999"
       y2="6.723" />
    <linearGradient
       xlink:href="#b-2"
       id="linearGradient4189-3"
       x1="14.369"
       y1="22.521999"
       x2="26.521999"
       y2="22.521999"
       gradientUnits="userSpaceOnUse"
       gradientTransform="translate(20.841982,61.553822)" />
    <linearGradient
       xlink:href="#b-2"
       id="linearGradient4428-5"
       gradientUnits="userSpaceOnUse"
       x1="31.586"
       y1="36.345001"
       x2="1.2029999"
       y2="6.723"
       gradientTransform="translate(20.841982,61.553822)" />
    <linearGradient
       xlink:href="#b-2"
       id="linearGradient4189-3-3"
       x1="14.369"
       y1="22.521999"
       x2="26.521999"
       y2="22.521999"
       gradientUnits="userSpaceOnUse"
       gradientTransform="translate(4.376802,4.4211693)" />
    <linearGradient
       xlink:href="#b-2"
       id="linearGradient4428-5-5"
       gradientUnits="userSpaceOnUse"
       x1="31.586"
       y1="36.345001"
       x2="1.2029999"
       y2="6.723"
       gradientTransform="translate(4.376802,4.4211693)" />
    <linearGradient
       inkscape:collect="always"
       xlink:href="#linearGradient14"
       id="linearGradient15"
       x1="-9.6850061"
       y1="45.161198"
       x2="11.98815"
       y2="21.735205"
       gradientUnits="userSpaceOnUse"
       gradientTransform="scale(0.26457813)" />
    <linearGradient
       id="linearGradient14"
       inkscape:collect="always">
      <stop
         style="stop-color:#a02c5a;stop-opacity:1"
         offset="0"
         id="stop12" />
      <stop
         style="stop-color:#c83771;stop-opacity:1"
         offset="1"
         id="stop13" />
    </linearGradient>
    <linearGradient
       inkscape:collect="always"
       xlink:href="#linearGradient858"
       id="linearGradient860"
       x1="-12.025727"
       y1="6.1170783"
       x2="-0.085100174"
       y2="6.1170783"
       gradientUnits="userSpaceOnUse" />
  </defs>
  <sodipodi:namedview
     id="namedview14"
     pagecolor="#000000"
     bordercolor="#666666"
     borderopacity="1.0"
     inkscape:showpageshadow="2"
     inkscape:pageopacity="0.0"
     inkscape:pagecheckerboard="0"
     inkscape:deskcolor="#d1d1d1"
     showgrid="false"
     inkscape:zoom="12.522228"
     inkscape:cx="13.615788"
     inkscape:cy="28.948522"
     inkscape:window-width="1920"
     inkscape:window-height="998"
     inkscape:window-x="0"
     inkscape:window-y="0"
     inkscape:window-maximized="1"
     inkscape:current-layer="svg12"
     inkscape:document-rotation="0">
    <inkscape:grid
       type="xygrid"
       id="grid244"
       originx="9.9594769"
       originy="-31.57929"
       spacingy="1"
       spacingx="1"
       units="px"
       visible="false" />
  </sodipodi:namedview>
  <rect
     x="-12.194976"
     y="0.32004508"
     width="11.940627"
     height="11.936014"
     rx="1.6121091"
     shape-rendering="crispEdges"
     id="rect5-6-7-3"
     ry="1.7735944"
     transform="matrix(0.00523883,-0.99998628,0.999988,0.00489859,0,0)"
     style="fill:#de87aa;fill-opacity:0.1;stroke:url(#linearGradient860);stroke-width:0.529156;stroke-miterlimit:4;stroke-dasharray:none;stroke-opacity:1" />
  <rect
     x="-3.7202365"
     y="4.8851409"
     width="7.912631"
     height="7.912384"
     rx="1.612043"
     shape-rendering="crispEdges"
     id="rect5-6-6-6-6"
     style="fill:#de87aa;fill-opacity:0.1;stroke:url(#linearGradient15);stroke-width:0.423325;stroke-miterlimit:4;stroke-dasharray:none;stroke-opacity:1"
     ry="1.7735215"
     transform="matrix(0.72612649,-0.68756114,0.6879775,0.72573202,0,0)" />
  <g
     id="g1"
     transform="matrix(0.110241,0,0,0.10799108,9.7399465,4.3926945)"
     style="fill:#eef2f6;fill-opacity:1">
    <path
       style="opacity:0.2;fill:#eef2f6;fill-opacity:1"
       d="m -55.608745,-3.763158 v 13.5 h 16 v -16 H -53.32303 Z m 20,-2.5 v 8 h 4 v -4 h 4 v -4 h -4 z m 4,8 v 8 h 4 v -8 z m 0,8 h -4 v 4 h 4 z m 0,4 v 4 h 4 v -4 z m 4,4 v 4 h 8 v -8 h -4 v 4 z m 8,4 v 4 h 4 v 4 h 4 v -8 z m 8,0 h 4.0000004 v -4 -4 h -8.0000004 v 4 h 4 z m -8,4 h -4 v 4 h 4 z m -4,4 h -4 v 4 h 4 z m 0,4 v 4 h 4 v -4 z m 4,4 v 4 h 4 v -4 z m 4,0 h 8.0000004 v -4 h -8.0000004 z m -12,-4 h -8 v 4 h 4 v 4 h 4 v -4 z m 0,-4 v -8 h -8 v 4 h 4 v 4 z m -8,-8 v -8 h -4 v 4 h -4 v 4 z m -8,-4 v -4 h -4 -8 v 8 h 8 v -4 z m 20,-24 v 16 h 16.0000004 l 5e-7,-13.5 -3.4285719,-2.5 z m -28,4 h 8 v 8 h -8 z m 32,0 h 8 v 8 h -8 z m -30,2 v 4 h 4 v -4 z m 32,0 v 4 h 4 v -4 z m -38,26 v 12.5 c 0,2.333333 1.142858,3.5 3.428572,3.5 h 12.571428 v -16 z m 4,4 h 8 v 8 h -8 z m 2,2 v 4 h 4 v -4 z"
       id="path3-3"
       sodipodi:nodetypes="cccccccccccccccccccccccccccccccccccccccccccccccccccccccccccccccccccccccccccccccccccccccccccccccccccccccccccccccccccccccccccccccccccccccccccccccccccc" />
    <path
       style="fill:#eef2f6;fill-opacity:1"
       d="m -55.608745,-3.763158 v 12.5 h 16 v -16 h -12.571428 c -2.285714,0 -3.428572,1.1666667 -3.428572,3.5 z m 20,-3.5 v 8 h 4 v -4 h 4 v -4 h -4 z m 4,8 v 8 h 4 v -8 z m 0,8 h -4 v 4 h 4 z m 0,4 v 4 h 4 v -4 z m 4,4 v 4 h 8 v -8 h -4 v 4 z m 8,4 v 4 h 4 v 4 h 4 v -8 z m 8,0 h 4.0000004 v -8 h -8.0000004 v 4 h 4 z m -8,4 h -4 v 4 h 4 z m -4,4 h -4 v 4 h 4 z m 0,4 v 4 h 4 v -4 z m 4,4 v 4 h 4 v -4 z m 4,0 h 8.0000004 v -4 h -8.0000004 z m -12,-4 h -8 v 4 h 4 v 4 h 4 v -4 z m 0,-4 v -8 h -8 v 4 h 4 v 4 z m -8,-8 v -8 h -4 v 4 h -4 v 4 z m -8,-4 v -4 h -12 v 8 h 8 v -4 z m 20,-24 v 16 h 16.0000004 v -12.5 c 5e-7,-2.3333333 -1.1428566,-3.5 -3.4285714,-3.5 z m -28,4 h 8 v 8 h -8 z m 32,0 h 8 v 8 h -8 z m -30,2 v 4 h 4 v -4 z m 32,0 v 4 h 4 v -4 z m -38,26 v 12.333333 c 0,2.333334 1.142858,3.5 3.428572,3.666667 h 12.571428 v -16 z m 4,4 h 8 v 8 h -8 z m 2,2 v 4 h 4 v -4 z"
       id="path4-6"
       sodipodi:nodetypes="cccccccccccccccccccccccccccccccccccccccccccccccccccccccccccccccccccccccccccccccccccccccccccccccccccccccccccccccccccccccccccccccccccccccccccccccccc" />
  </g>
</svg>
