<?xml version="1.0" encoding="UTF-8" standalone="no"?>
<svg
   width="47.285591"
   height="47.28569"
   version="1.1"
   viewBox="0 0 12.510734 12.51076"
   id="svg12"
   sodipodi:docname="rocketchat.svg"
   inkscape:version="1.4 (e7c3feb100, 2024-10-09)"
   xmlns:inkscape="http://www.inkscape.org/namespaces/inkscape"
   xmlns:sodipodi="http://sodipodi.sourceforge.net/DTD/sodipodi-0.dtd"
   xmlns:xlink="http://www.w3.org/1999/xlink"
   xmlns="http://www.w3.org/2000/svg"
   xmlns:svg="http://www.w3.org/2000/svg"
   xmlns:rdf="http://www.w3.org/1999/02/22-rdf-syntax-ns#"
   xmlns:cc="http://creativecommons.org/ns#"
   xmlns:dc="http://purl.org/dc/elements/1.1/">
  <style
     id="style883" />
  <metadata
     id="metadata58">
    <rdf:RDF>
      <cc:Work
         rdf:about="">
        <dc:format>image/svg+xml</dc:format>
        <dc:type
           rdf:resource="http://purl.org/dc/dcmitype/StillImage" />
      </cc:Work>
    </rdf:RDF>
  </metadata>
  <defs
     id="defs16">
    <linearGradient
       id="c"
       y1="523.79999"
       x1="403.57001"
       y2="536.79999"
       x2="416.57001"
       gradientUnits="userSpaceOnUse"
       gradientTransform="matrix(0.34526714,0,0,0.34526706,-134.80427,-174.63325)">
      <stop
         stop-color="#292c2f"
         id="stop1568" />
      <stop
         offset="1"
         stop-opacity="0"
         id="stop1570" />
    </linearGradient>
    <linearGradient
       xlink:href="#b-2"
       id="linearGradient4189"
       x1="14.369"
       y1="22.521999"
       x2="26.521999"
       y2="22.521999"
       gradientUnits="userSpaceOnUse" />
    <linearGradient
       x1="36"
       gradientUnits="userSpaceOnUse"
       x2="14"
       y2="12"
       y1="44"
       id="b-2">
      <stop
         style="stop-color:#bfc9c9;stop-opacity:1"
         stop-color="#536161"
         id="stop1579" />
      <stop
         style="stop-color:#fbfbfb;stop-opacity:1"
         stop-color="#f4f5f5"
         offset="1"
         id="stop1581" />
    </linearGradient>
    <linearGradient
       xlink:href="#b-2"
       id="linearGradient4428"
       gradientUnits="userSpaceOnUse"
       x1="31.586"
       y1="36.345001"
       x2="1.2029999"
       y2="6.723" />
    <linearGradient
       xlink:href="#b-2"
       id="linearGradient4189-3"
       x1="14.369"
       y1="22.521999"
       x2="26.521999"
       y2="22.521999"
       gradientUnits="userSpaceOnUse"
       gradientTransform="translate(20.841982,61.553822)" />
    <linearGradient
       xlink:href="#b-2"
       id="linearGradient4428-5"
       gradientUnits="userSpaceOnUse"
       x1="31.586"
       y1="36.345001"
       x2="1.2029999"
       y2="6.723"
       gradientTransform="translate(20.841982,61.553822)" />
    <linearGradient
       xlink:href="#b-2"
       id="linearGradient4189-3-3"
       x1="14.369"
       y1="22.521999"
       x2="26.521999"
       y2="22.521999"
       gradientUnits="userSpaceOnUse"
       gradientTransform="translate(4.376802,4.4211693)" />
    <linearGradient
       xlink:href="#b-2"
       id="linearGradient4428-5-5"
       gradientUnits="userSpaceOnUse"
       x1="31.586"
       y1="36.345001"
       x2="1.2029999"
       y2="6.723"
       gradientTransform="translate(4.376802,4.4211693)" />
    <linearGradient
       inkscape:collect="always"
       xlink:href="#k"
       id="linearGradient15"
       x1="-9.6850061"
       y1="45.161198"
       x2="11.98815"
       y2="21.735205"
       gradientUnits="userSpaceOnUse"
       gradientTransform="scale(0.26457813)" />
    <filter
       id="filter2917-3"
       x="-0.96181148"
       y="-0.66745996"
       width="2.9236228"
       height="2.3349199"
       color-interpolation-filters="sRGB">
      <feGaussianBlur
         stdDeviation="0.2871969"
         id="feGaussianBlur732-5" />
    </filter>
    <filter
       id="filter1"
       x="-0.96181148"
       y="-0.66745996"
       width="2.9236228"
       height="2.3349199"
       color-interpolation-filters="sRGB">
      <feGaussianBlur
         stdDeviation="0.2871969"
         id="feGaussianBlur1" />
    </filter>
    <filter
       id="filter2"
       x="-0.96181148"
       y="-0.66745996"
       width="2.9236228"
       height="2.3349199"
       color-interpolation-filters="sRGB">
      <feGaussianBlur
         stdDeviation="0.2871969"
         id="feGaussianBlur2" />
    </filter>
    <linearGradient
       id="l"
       x1="27.447001"
       x2="25.966"
       y1="289.76001"
       y2="289.76001"
       gradientTransform="matrix(0.94283,0,0,0.9628,-16.618,11.67)"
       gradientUnits="userSpaceOnUse">
      <stop
         stop-color="#1881ce"
         offset="0"
         id="stop19" />
      <stop
         stop-color="#2980b9"
         offset="1"
         id="stop21" />
    </linearGradient>
    <linearGradient
       id="j"
       x1="10.692"
       x2="34.026001"
       y1="14.134"
       y2="29.068001"
       gradientTransform="matrix(0.24946,0,0,0.25474,0.77251,285.56)"
       gradientUnits="userSpaceOnUse">
      <stop
         stop-color="#349cd2"
         offset="0"
         id="stop7" />
      <stop
         stop-color="#2694d9"
         offset=".74017"
         id="stop9" />
      <stop
         stop-color="#0e6daa"
         offset="1"
         id="stop11-3" />
    </linearGradient>
    <linearGradient
       id="k"
       x1="21.274"
       x2="27.447001"
       y1="291.29999"
       y2="287.35001"
       gradientTransform="matrix(0.94283,0,0,0.9628,-16.618,11.67)"
       gradientUnits="userSpaceOnUse">
      <stop
         stop-color="#1d99f3"
         offset="0"
         id="stop14"
         style="stop-color:#c83771;stop-opacity:1;" />
      <stop
         stop-color="#3daee9"
         offset="1"
         id="stop16"
         style="stop-color:#a22d5c;stop-opacity:1;" />
    </linearGradient>
    <linearGradient
       inkscape:collect="always"
       xlink:href="#k"
       id="linearGradient891"
       x1="-12.025727"
       y1="6.1170783"
       x2="-0.085100174"
       y2="6.1170783"
       gradientUnits="userSpaceOnUse" />
  </defs>
  <sodipodi:namedview
     id="namedview14"
     pagecolor="#000000"
     bordercolor="#666666"
     borderopacity="1.0"
     inkscape:showpageshadow="2"
     inkscape:pageopacity="0.0"
     inkscape:pagecheckerboard="0"
     inkscape:deskcolor="#d1d1d1"
     showgrid="false"
     inkscape:zoom="6.2611141"
     inkscape:cx="23.717824"
     inkscape:cy="54.463151"
     inkscape:window-width="1920"
     inkscape:window-height="994"
     inkscape:window-x="0"
     inkscape:window-y="0"
     inkscape:window-maximized="1"
     inkscape:current-layer="svg12"
     inkscape:document-rotation="0">
    <inkscape:grid
       type="xygrid"
       id="grid244"
       originx="9.9594769"
       originy="-31.57929"
       spacingy="1"
       spacingx="1"
       units="px"
       visible="false" />
  </sodipodi:namedview>
  <rect
     x="-12.194976"
     y="0.32004508"
     width="11.940627"
     height="11.936014"
     rx="1.6121091"
     shape-rendering="crispEdges"
     id="rect5-6-7-3"
     ry="1.7735944"
     transform="matrix(0.00523883,-0.99998628,0.999988,0.00489859,0,0)"
     style="fill:#80b3ff;fill-opacity:0.15;stroke:url(#linearGradient891);stroke-width:0.5291563;stroke-miterlimit:4;stroke-dasharray:none;stroke-opacity:1" />
  <rect
     x="-3.7202365"
     y="4.8851409"
     width="7.912631"
     height="7.912384"
     rx="1.612043"
     shape-rendering="crispEdges"
     id="rect5-6-6-6-6"
     style="fill:#80b3ff;fill-opacity:0.122146;stroke:url(#linearGradient15);stroke-width:0.39686725;stroke-opacity:1;stroke-miterlimit:4;stroke-dasharray:none"
     ry="1.7735215"
     transform="matrix(0.72612649,-0.68756114,0.6879775,0.72573202,0,0)" />
  <path
     style="opacity:0.2;stroke-width:0.122075"
     d="m 2.6457833,3.0707319 c 0.2915179,0.3989217 0.5016044,1.165827 0.6158998,2.0488115 A 3.7040699,2.4136949 0 0 0 2.6457833,6.4499062 3.7040699,2.4136949 0 0 0 3.296406,7.8113802 C 3.200387,8.6812787 2.991517,9.4348178 2.6457833,9.829078 c 1.0048058,0 1.9066932,-0.4214017 2.5383481,-1.0904057 A 3.7040699,2.4136949 0 0 0 6.3498532,8.8636005 3.7040699,2.4136949 0 0 0 10.053922,6.4499062 3.7040699,2.4136949 0 0 0 6.3498532,4.0362099 3.7040699,2.4136949 0 0 0 5.1851,4.1620803 C 4.5533966,3.4925049 3.6510798,3.0707319 2.6457833,3.0707319 Z"
     id="path1" />
  <path
     style="fill:#c1272d;stroke-width:0.122075"
     d="m 6.1029162,6.3292196 c 0,1.8662643 -1.547812,3.3791707 -3.4571329,3.3791707 1.03714,-1.1827088 0.8642829,-5.5756334 0,-6.758344 1.9093209,0 3.4571329,1.512907 3.4571329,3.3791733 z"
     id="path2" />
  <ellipse
     style="fill:#c1272d;stroke-width:0.122075"
     cx="6.349853"
     cy="6.3292222"
     rx="3.7040718"
     ry="2.4136953"
     id="ellipse2" />
  <path
     style="opacity:0.2;stroke-width:0.122075"
     d="m 6.3498532,4.5188447 c -0.9338799,0 -1.7715944,0.2521184 -2.3454271,0.6260523 C 3.43077,5.5187096 3.1398423,5.9786272 3.139658,6.449326 3.140948,6.7894079 3.2943324,7.1367873 3.6398062,7.4647787 A 0.49392584,0.4827876 0 0 1 3.786909,7.8631319 C 3.7335359,8.3464389 3.6536868,8.7977246 3.5226059,9.2010367 4.0234498,9.0475765 4.4720346,8.7809555 4.8209629,8.4113996 A 0.49392584,0.4827876 0 0 1 5.2916861,8.2676141 C 5.6310818,8.3416793 5.9897211,8.3800802 6.3508209,8.3807552 7.2842931,8.380576 8.1216596,8.128497 8.6952845,7.7547034 9.2691181,7.3807745 9.5600482,6.9206559 9.5600482,6.4497976 9.5600482,5.9789438 9.2691181,5.5188254 8.6952845,5.144897 8.1214516,4.7709641 7.2837366,4.5188447 6.3498532,4.5188447 Z"
     id="path3" />
  <path
     style="fill:#ffffff;stroke-width:0.122075"
     d="m 6.3498532,4.3982608 c -0.9338799,0 -1.7715944,0.2521229 -2.3454271,0.6260543 C 3.43077,5.398127 3.1398423,5.8580493 3.139658,6.3287489 3.140958,6.6688308 3.2943324,7.0162077 3.6398062,7.3441996 A 0.49392584,0.4827876 0 0 1 3.786909,7.7425538 C 3.7335359,8.2258607 3.6536868,8.6771457 3.5226059,9.0804585 4.0234498,8.9269967 4.4720346,8.6603729 4.8209629,8.2908212 A 0.49392584,0.4827876 0 0 1 5.2916861,8.147036 C 5.6310818,8.2211014 5.9897211,8.2595012 6.3508209,8.2601772 7.2842931,8.2599987 8.1216596,8.0079179 8.6952845,7.6341249 9.2691181,7.2601963 9.5600482,6.8000733 9.5600482,6.3292196 9.5600482,5.8583656 9.2691181,5.3982463 8.6952845,5.0243151 8.1214516,4.6503846 7.2837366,4.3982615 6.3498532,4.3982608 Z"
     id="path4" />
  <path
     style="opacity:0.2;stroke-width:0.122075"
     d="M 4.8682258,5.967164 A 0.4938764,0.48273935 0 0 0 4.3743508,6.4499062 0.4938764,0.48273935 0 0 0 4.8682258,6.9326419 0.4938764,0.48273935 0 0 0 5.3621034,6.4499062 0.4938764,0.48273935 0 0 0 4.8682258,5.967164 Z m 1.4816274,0 A 0.4938764,0.48273935 0 0 0 5.8559783,6.4499062 0.4938764,0.48273935 0 0 0 6.3498532,6.9326419 0.4938764,0.48273935 0 0 0 6.8437313,6.4499062 0.4938764,0.48273935 0 0 0 6.3498532,5.967164 Z m 1.4816308,0 A 0.4938764,0.48273935 0 0 0 7.3376055,6.4499062 0.4938764,0.48273935 0 0 0 7.831484,6.9326419 0.4938764,0.48273935 0 0 0 8.3253589,6.4499062 0.4938764,0.48273935 0 0 0 7.831484,5.967164 Z"
     id="path5" />
  <path
     style="fill:#c1272d;stroke-width:0.122075"
     d="M 4.8682258,5.8464829 A 0.4938764,0.48273935 0 0 0 4.3743508,6.3292196 0.4938764,0.48273935 0 0 0 4.8682258,6.8119608 0.4938764,0.48273935 0 0 0 5.3621034,6.3292196 0.4938764,0.48273935 0 0 0 4.8682258,5.8464829 Z m 1.4816274,0 A 0.4938764,0.48273935 0 0 0 5.8559783,6.3292196 0.4938764,0.48273935 0 0 0 6.3498532,6.8119608 0.4938764,0.48273935 0 0 0 6.8437313,6.3292196 0.4938764,0.48273935 0 0 0 6.3498532,5.8464829 Z m 1.4816308,0 A 0.4938764,0.48273935 0 0 0 7.3376055,6.3292196 0.4938764,0.48273935 0 0 0 7.831484,6.8119608 0.4938764,0.48273935 0 0 0 8.3253589,6.3292196 0.4938764,0.48273935 0 0 0 7.831484,5.8464829 Z"
     id="path6" />
  <path
     style="opacity:0.2;fill:#ffffff;stroke-width:0.122075"
     d="m 2.6457833,2.9500463 c 0.026888,0.03678 0.052157,0.079954 0.077649,0.1228072 0.9745583,0.021078 1.8496591,0.435475 2.4650403,1.0882813 A 3.7040699,2.4136949 0 0 1 6.3498536,4.0362099 3.7040699,2.4136949 0 0 1 10.050066,6.400404 3.7040699,2.4136949 0 0 0 10.053966,6.329216 3.7040699,2.4136949 0 0 0 6.3498429,3.9155248 3.7040699,2.4136949 0 0 0 5.1884654,4.0404528 C 4.5567309,3.3702862 3.6515856,2.9500463 2.6457844,2.9500463 Z m 0.600947,2.0655473 a 3.7040699,2.4136949 0 0 0 -0.600947,1.313626 3.7040699,2.4136949 0 0 0 0.0043,0.054924 3.7040699,2.4136949 0 0 1 0.611799,-1.2643604 c -0.00453,-0.035351 -0.010295,-0.069224 -0.015175,-0.1041875 z m 0.037625,2.7835281 C 3.1831514,8.6229758 2.9771255,9.3305488 2.6457841,9.7083903 c 0.031775,0 0.063195,-0.00192 0.094769,-0.00269 0.2895765,-0.4162418 0.4706636,-1.1054247 0.55754,-1.8922271 a 3.7040699,2.4136949 0 0 1 -0.013743,-0.014381 z"
     id="path7" />
</svg>
