<?xml version="1.0" encoding="UTF-8" standalone="no"?>
<svg
   width="45.999886"
   height="45.999989"
   version="1.1"
   viewBox="0 0 12.170564 12.170591"
   id="svg12"
   sodipodi:docname="gedit.svg"
   inkscape:version="1.3.2 (091e20ef0f, 2023-11-25)"
   xmlns:inkscape="http://www.inkscape.org/namespaces/inkscape"
   xmlns:sodipodi="http://sodipodi.sourceforge.net/DTD/sodipodi-0.dtd"
   xmlns:xlink="http://www.w3.org/1999/xlink"
   xmlns="http://www.w3.org/2000/svg"
   xmlns:svg="http://www.w3.org/2000/svg">
  <defs
     id="defs16">
    <linearGradient
       id="c"
       y1="523.79999"
       x1="403.57001"
       y2="536.79999"
       x2="416.57001"
       gradientUnits="userSpaceOnUse"
       gradientTransform="matrix(0.34526714,0,0,0.34526706,-134.80427,-174.63325)">
      <stop
         stop-color="#292c2f"
         id="stop1568" />
      <stop
         offset="1"
         stop-opacity="0"
         id="stop1570" />
    </linearGradient>
    <linearGradient
       xlink:href="#b-2"
       id="linearGradient4189"
       x1="14.369"
       y1="22.521999"
       x2="26.521999"
       y2="22.521999"
       gradientUnits="userSpaceOnUse" />
    <linearGradient
       x1="36"
       gradientUnits="userSpaceOnUse"
       x2="14"
       y2="12"
       y1="44"
       id="b-2">
      <stop
         style="stop-color:#bfc9c9;stop-opacity:1"
         stop-color="#536161"
         id="stop1579" />
      <stop
         style="stop-color:#fbfbfb;stop-opacity:1"
         stop-color="#f4f5f5"
         offset="1"
         id="stop1581" />
    </linearGradient>
    <linearGradient
       xlink:href="#b-2"
       id="linearGradient4428"
       gradientUnits="userSpaceOnUse"
       x1="31.586"
       y1="36.345001"
       x2="1.2029999"
       y2="6.723" />
    <linearGradient
       xlink:href="#b-2"
       id="linearGradient4189-3"
       x1="14.369"
       y1="22.521999"
       x2="26.521999"
       y2="22.521999"
       gradientUnits="userSpaceOnUse"
       gradientTransform="translate(20.841982,61.553822)" />
    <linearGradient
       xlink:href="#b-2"
       id="linearGradient4428-5"
       gradientUnits="userSpaceOnUse"
       x1="31.586"
       y1="36.345001"
       x2="1.2029999"
       y2="6.723"
       gradientTransform="translate(20.841982,61.553822)" />
    <linearGradient
       xlink:href="#b-2"
       id="linearGradient4189-3-3"
       x1="14.369"
       y1="22.521999"
       x2="26.521999"
       y2="22.521999"
       gradientUnits="userSpaceOnUse"
       gradientTransform="translate(4.376802,4.4211693)" />
    <linearGradient
       xlink:href="#b-2"
       id="linearGradient4428-5-5"
       gradientUnits="userSpaceOnUse"
       x1="31.586"
       y1="36.345001"
       x2="1.2029999"
       y2="6.723"
       gradientTransform="translate(4.376802,4.4211693)" />
    <linearGradient
       inkscape:collect="always"
       xlink:href="#linearGradient11"
       id="linearGradient13"
       x1="-43.819283"
       y1="23.120178"
       x2="-1.9547797"
       y2="23.120178"
       gradientUnits="userSpaceOnUse"
       gradientTransform="scale(0.26457813)" />
    <linearGradient
       id="linearGradient11"
       inkscape:collect="always">
      <stop
         style="stop-color:#9955ff;stop-opacity:0.65640396;"
         offset="0"
         id="stop4-3" />
      <stop
         style="stop-color:#00ccff;stop-opacity:1"
         offset="1"
         id="stop11" />
    </linearGradient>
    <linearGradient
       inkscape:collect="always"
       xlink:href="#linearGradient14"
       id="linearGradient15"
       x1="-9.6850061"
       y1="45.161198"
       x2="11.98815"
       y2="21.735205"
       gradientUnits="userSpaceOnUse"
       gradientTransform="scale(0.26457813)" />
    <linearGradient
       id="linearGradient14"
       inkscape:collect="always">
      <stop
         style="stop-color:#9955ff;stop-opacity:0.45197046;"
         offset="0"
         id="stop12" />
      <stop
         style="stop-color:#00ccff;stop-opacity:1"
         offset="1"
         id="stop13" />
    </linearGradient>
    <filter
       id="filter2917-3"
       x="-0.96181147"
       y="-0.66745996"
       width="2.9236229"
       height="2.3349199"
       color-interpolation-filters="sRGB">
      <feGaussianBlur
         stdDeviation="0.2871969"
         id="feGaussianBlur732-5" />
    </filter>
    <filter
       id="filter1"
       x="-0.96181148"
       y="-0.66745996"
       width="2.9236228"
       height="2.3349199"
       color-interpolation-filters="sRGB">
      <feGaussianBlur
         stdDeviation="0.2871969"
         id="feGaussianBlur1" />
    </filter>
    <filter
       id="filter2"
       x="-0.96181148"
       y="-0.66745996"
       width="2.9236228"
       height="2.3349199"
       color-interpolation-filters="sRGB">
      <feGaussianBlur
         stdDeviation="0.2871969"
         id="feGaussianBlur2" />
    </filter>
    <filter
       inkscape:collect="always"
       style="color-interpolation-filters:sRGB"
       id="filter1015-9-1"
       x="-0.03599975"
       width="1.0719995"
       y="-0.036000252"
       height="1.0720005">
      <feGaussianBlur
         inkscape:collect="always"
         stdDeviation="7.2782306"
         id="feGaussianBlur1017-1-9" />
    </filter>
    <linearGradient
       inkscape:collect="always"
       xlink:href="#linearGradient911"
       id="linearGradient645-4"
       gradientUnits="userSpaceOnUse"
       gradientTransform="matrix(1.1230224,0,0,1.1244647,117.17692,57.14706)"
       x1="218.7718"
       y1="-271.72171"
       x2="218.7718"
       y2="766.82446" />
    <linearGradient
       inkscape:collect="always"
       id="linearGradient911">
      <stop
         style="stop-color:#ffffff;stop-opacity:1;"
         offset="0"
         id="stop907" />
      <stop
         style="stop-color:#d7d7d7;stop-opacity:1"
         offset="1"
         id="stop909" />
    </linearGradient>
  </defs>
  <sodipodi:namedview
     id="namedview14"
     pagecolor="#000000"
     bordercolor="#666666"
     borderopacity="1.0"
     inkscape:showpageshadow="2"
     inkscape:pageopacity="0.0"
     inkscape:pagecheckerboard="0"
     inkscape:deskcolor="#d1d1d1"
     showgrid="false"
     inkscape:zoom="5.2149125"
     inkscape:cx="23.20269"
     inkscape:cy="53.692176"
     inkscape:window-width="1920"
     inkscape:window-height="996"
     inkscape:window-x="0"
     inkscape:window-y="0"
     inkscape:window-maximized="1"
     inkscape:current-layer="svg12">
    <inkscape:grid
       type="xygrid"
       id="grid244"
       originx="9.7893915"
       originy="-31.749373"
       spacingy="1"
       spacingx="1"
       units="px"
       visible="false" />
  </sodipodi:namedview>
  <rect
     x="-12.025727"
     y="0.1490714"
     width="11.940627"
     height="11.936014"
     rx="1.6121091"
     stroke="url(#paint4_linear_77:23)"
     shape-rendering="crispEdges"
     id="rect5-6-7-3"
     ry="1.7735944"
     transform="matrix(0.00523883,-0.99998628,0.999988,0.00489859,0,0)"
     style="fill:#80b3ff;fill-opacity:0.15;stroke:url(#linearGradient13);stroke-width:0.188987;stroke-opacity:1" />
  <rect
     x="-3.7266586"
     y="4.6446943"
     width="7.912631"
     height="7.912384"
     rx="1.612043"
     shape-rendering="crispEdges"
     id="rect5-6-6-6-6"
     style="fill:#80b3ff;fill-opacity:0.122146;stroke:url(#linearGradient15);stroke-width:0.188987;stroke-opacity:1"
     ry="1.7735215"
     transform="matrix(0.72612649,-0.68756114,0.6879775,0.72573202,0,0)" />
  <g
     id="g987-6-3"
     transform="matrix(0.01119009,0,0,0.01117579,3.1307452,3.5347965)"
     style="stroke-width:1.12371">
    <g
       id="g931-0-6"
       style="stroke-width:1.12371">
      <path
         style="opacity:0.2;fill:#000000;fill-opacity:1;stroke-width:1.12371;filter:url(#filter1015-9-1)"
         inkscape:connector-curvature="0"
         d="m 488.893,132.38031 -21.445,21.455 L 338.767,25.172331 360.212,3.7153308 c 23.689,-23.6920008 62.104,-23.6920008 85.795,0 l 42.886,42.8970002 c 23.657,23.679 23.657,62.077979 0,85.767979 z m -300.243,257.31 c -5.922,5.922 -5.922,15.513 0,21.436 5.925,5.955 15.521,5.955 21.443,0 l 235.914,-235.849 -21.469,-21.457 z M 81.417001,282.48231 c -5.925,5.927 -5.925,15.514 0,21.44 5.922,5.923 15.518,5.923 21.442999,0 L 338.767,68.055331 317.331,46.612331 Z M 360.184,89.482319 124.298,325.36331 c -11.845,11.822 -11.815,31.041 0,42.886 11.85,11.846 31.038,11.901 42.914,-0.032 l 235.886,-235.837 z M 167.151,432.51431 c -7.253,-7.262 -10.749,-16.465 -12.05,-25.948 -3.083,0.476 -6.188,0.919 -9.36,0.919 -16.202,0 -31.419,-6.333 -42.881,-17.795 -11.461999,-11.491 -17.769999,-26.687 -17.769999,-42.887 0,-2.954 0.443,-5.833 0.859,-8.703 -9.803,-1.335 -18.864,-5.629 -25.972,-12.737 -0.682,-0.677 -0.917,-1.596 -1.538,-2.338 l -37.022,148.133 147.747999,-36.986 c -0.651,-0.593 -1.388,-1.037 -2.014,-1.658 z"
         id="path997-6-1" />
      <path
         id="path929-2-0"
         d="m 488.893,114.23413 -21.445,21.455 L 338.767,7.0261398 360.212,-14.430861 c 23.689,-23.691999 62.104,-23.691999 85.795,0 l 42.886,42.897001 c 23.657,23.679 23.657,62.077999 0,85.76799 z m -300.243,257.31 c -5.922,5.922 -5.922,15.513 0,21.436 5.925,5.955 15.521,5.955 21.443,0 l 235.914,-235.849 -21.469,-21.457 z M 81.417001,264.33613 c -5.925,5.927 -5.925,15.514 0,21.44 5.922,5.923 15.518,5.923 21.442999,0 L 338.767,49.90914 317.331,28.46614 Z M 360.184,71.33614 124.298,307.21713 c -11.845,11.822 -11.815,31.041 0,42.886 11.85,11.846 31.038,11.901 42.914,-0.032 l 235.886,-235.837 z M 167.151,414.36813 c -7.253,-7.262 -10.749,-16.465 -12.05,-25.948 -3.083,0.476 -6.188,0.919 -9.36,0.919 -16.202,0 -31.419,-6.333 -42.881,-17.795 -11.461999,-11.491 -17.769999,-26.687 -17.769999,-42.887 0,-2.954 0.443,-5.833 0.859,-8.703 -9.803,-1.335 -18.864,-5.629 -25.972,-12.737 -0.682,-0.677 -0.917,-1.596 -1.538,-2.338 l -37.022,148.133 147.747999,-36.986 c -0.651,-0.593 -1.388,-1.037 -2.014,-1.658 z"
         inkscape:connector-curvature="0"
         style="fill:url(#linearGradient645-4);fill-opacity:1;stroke-width:1.12371" />
    </g>
    <g
       id="g933-6-6"
       style="stroke-width:1.12371" />
    <g
       id="g935-1-3"
       style="stroke-width:1.12371" />
    <g
       id="g937-8-2"
       style="stroke-width:1.12371" />
    <g
       id="g939-7-0"
       style="stroke-width:1.12371" />
    <g
       id="g941-9-6"
       style="stroke-width:1.12371" />
    <g
       id="g943-2-1"
       style="stroke-width:1.12371" />
    <g
       id="g945-0-5"
       style="stroke-width:1.12371" />
    <g
       id="g947-2-5"
       style="stroke-width:1.12371" />
    <g
       id="g949-3-4"
       style="stroke-width:1.12371" />
    <g
       id="g951-7-7"
       style="stroke-width:1.12371" />
    <g
       id="g953-5-6"
       style="stroke-width:1.12371" />
    <g
       id="g955-9-5"
       style="stroke-width:1.12371" />
    <g
       id="g957-2-6"
       style="stroke-width:1.12371" />
    <g
       id="g959-2-9"
       style="stroke-width:1.12371" />
    <g
       id="g961-8-3"
       style="stroke-width:1.12371" />
  </g>
</svg>
