<?xml version="1.0" encoding="UTF-8" standalone="no"?>
<svg
   width="47.285591"
   height="47.28569"
   version="1.1"
   viewBox="0 0 12.510734 12.51076"
   id="svg12"
   sodipodi:docname="org.xfce.volman.svg"
   inkscape:version="1.3.2 (091e20ef0f, 2023-11-25)"
   xmlns:inkscape="http://www.inkscape.org/namespaces/inkscape"
   xmlns:sodipodi="http://sodipodi.sourceforge.net/DTD/sodipodi-0.dtd"
   xmlns:xlink="http://www.w3.org/1999/xlink"
   xmlns="http://www.w3.org/2000/svg"
   xmlns:svg="http://www.w3.org/2000/svg"
   xmlns:rdf="http://www.w3.org/1999/02/22-rdf-syntax-ns#"
   xmlns:cc="http://creativecommons.org/ns#"
   xmlns:dc="http://purl.org/dc/elements/1.1/">
  <style
     id="style884" />
  <metadata
     id="metadata59">
    <rdf:RDF>
      <cc:Work
         rdf:about="">
        <dc:format>image/svg+xml</dc:format>
        <dc:type
           rdf:resource="http://purl.org/dc/dcmitype/StillImage" />
      </cc:Work>
    </rdf:RDF>
  </metadata>
  <defs
     id="defs16">
    <linearGradient
       id="c"
       y1="523.79999"
       x1="403.57001"
       y2="536.79999"
       x2="416.57001"
       gradientUnits="userSpaceOnUse"
       gradientTransform="matrix(0.34526714,0,0,0.34526706,-134.80427,-174.63325)">
      <stop
         stop-color="#292c2f"
         id="stop1568" />
      <stop
         offset="1"
         stop-opacity="0"
         id="stop1570" />
    </linearGradient>
    <linearGradient
       xlink:href="#b-2"
       id="linearGradient4189"
       x1="14.369"
       y1="22.521999"
       x2="26.521999"
       y2="22.521999"
       gradientUnits="userSpaceOnUse" />
    <linearGradient
       x1="36"
       gradientUnits="userSpaceOnUse"
       x2="14"
       y2="12"
       y1="44"
       id="b-2">
      <stop
         style="stop-color:#bfc9c9;stop-opacity:1"
         stop-color="#536161"
         id="stop1579" />
      <stop
         style="stop-color:#fbfbfb;stop-opacity:1"
         stop-color="#f4f5f5"
         offset="1"
         id="stop1581" />
    </linearGradient>
    <linearGradient
       xlink:href="#b-2"
       id="linearGradient4428"
       gradientUnits="userSpaceOnUse"
       x1="31.586"
       y1="36.345001"
       x2="1.2029999"
       y2="6.723" />
    <linearGradient
       xlink:href="#b-2"
       id="linearGradient4189-3"
       x1="14.369"
       y1="22.521999"
       x2="26.521999"
       y2="22.521999"
       gradientUnits="userSpaceOnUse"
       gradientTransform="translate(20.841982,61.553822)" />
    <linearGradient
       xlink:href="#b-2"
       id="linearGradient4428-5"
       gradientUnits="userSpaceOnUse"
       x1="31.586"
       y1="36.345001"
       x2="1.2029999"
       y2="6.723"
       gradientTransform="translate(20.841982,61.553822)" />
    <linearGradient
       xlink:href="#b-2"
       id="linearGradient4189-3-3"
       x1="14.369"
       y1="22.521999"
       x2="26.521999"
       y2="22.521999"
       gradientUnits="userSpaceOnUse"
       gradientTransform="translate(4.376802,4.4211693)" />
    <linearGradient
       xlink:href="#b-2"
       id="linearGradient4428-5-5"
       gradientUnits="userSpaceOnUse"
       x1="31.586"
       y1="36.345001"
       x2="1.2029999"
       y2="6.723"
       gradientTransform="translate(4.376802,4.4211693)" />
    <linearGradient
       inkscape:collect="always"
       xlink:href="#linearGradient14"
       id="linearGradient15"
       x1="-9.6850061"
       y1="45.161198"
       x2="11.98815"
       y2="21.735205"
       gradientUnits="userSpaceOnUse"
       gradientTransform="matrix(0.26456987,0.0019446,-0.0019446,0.2645721,0,0)" />
    <linearGradient
       id="linearGradient14"
       inkscape:collect="always">
      <stop
         style="stop-color:#80b3ff;stop-opacity:1"
         offset="0"
         id="stop12" />
      <stop
         style="stop-color:#00ccff;stop-opacity:1"
         offset="1"
         id="stop13" />
    </linearGradient>
    <filter
       id="filter2917-3"
       x="-0.96181148"
       y="-0.66745996"
       width="2.9236228"
       height="2.3349199"
       color-interpolation-filters="sRGB">
      <feGaussianBlur
         stdDeviation="0.2871969"
         id="feGaussianBlur732-5" />
    </filter>
    <filter
       id="filter1"
       x="-0.96181148"
       y="-0.66745996"
       width="2.9236228"
       height="2.3349199"
       color-interpolation-filters="sRGB">
      <feGaussianBlur
         stdDeviation="0.2871969"
         id="feGaussianBlur1" />
    </filter>
    <filter
       id="filter2"
       x="-0.96181148"
       y="-0.66745996"
       width="2.9236228"
       height="2.3349199"
       color-interpolation-filters="sRGB">
      <feGaussianBlur
         stdDeviation="0.2871969"
         id="feGaussianBlur2" />
    </filter>
    <linearGradient
       id="l"
       x1="27.447001"
       x2="25.966"
       y1="289.76001"
       y2="289.76001"
       gradientTransform="matrix(0.94283,0,0,0.9628,-16.618,11.67)"
       gradientUnits="userSpaceOnUse">
      <stop
         stop-color="#1881ce"
         offset="0"
         id="stop19" />
      <stop
         stop-color="#2980b9"
         offset="1"
         id="stop21" />
    </linearGradient>
    <linearGradient
       id="j"
       x1="10.692"
       x2="34.026001"
       y1="14.134"
       y2="29.068001"
       gradientTransform="matrix(0.24946,0,0,0.25474,0.77251,285.56)"
       gradientUnits="userSpaceOnUse">
      <stop
         stop-color="#349cd2"
         offset="0"
         id="stop7" />
      <stop
         stop-color="#2694d9"
         offset=".74017"
         id="stop9" />
      <stop
         stop-color="#0e6daa"
         offset="1"
         id="stop11-3" />
    </linearGradient>
    <linearGradient
       id="k"
       x1="21.274"
       x2="27.447001"
       y1="291.29999"
       y2="287.35001"
       gradientTransform="matrix(0.94283,0,0,0.9628,-16.618,11.67)"
       gradientUnits="userSpaceOnUse">
      <stop
         stop-color="#1d99f3"
         offset="0"
         id="stop14" />
      <stop
         stop-color="#3daee9"
         offset="1"
         id="stop16" />
    </linearGradient>
    <linearGradient
       id="a">
      <stop
         offset="0"
         stop-color="#292c2f"
         id="stop2" />
      <stop
         offset="1"
         stop-opacity="0"
         id="stop4" />
    </linearGradient>
    <linearGradient
       id="h"
       gradientUnits="userSpaceOnUse"
       x1="4"
       x2="4"
       y1="26"
       y2="6"
       gradientTransform="translate(50.19662,-25.416805)">
      <stop
         offset="0"
         stop-color="#eff0f1"
         id="stop19-3" />
      <stop
         offset="1"
         stop-color="#fcfcfc"
         id="stop21-6" />
    </linearGradient>
    <linearGradient
       id="b"
       gradientTransform="matrix(0.98049,0,0,0.98049,32.031,-0.14)"
       gradientUnits="userSpaceOnUse"
       x1="-17.370001"
       x2="-17.370001"
       y1="24.620001"
       y2="20.540001">
      <stop
         offset="0"
         stop-color="#172525"
         id="stop24" />
      <stop
         offset="1"
         stop-color="#292c2f"
         id="stop26" />
    </linearGradient>
    <linearGradient
       inkscape:collect="always"
       xlink:href="#l"
       id="linearGradient892"
       x1="-11.975242"
       y1="6.0660787"
       x2="-0.034614563"
       y2="6.0660787"
       gradientUnits="userSpaceOnUse" />
    <linearGradient
       id="c-3"
       gradientTransform="matrix(-1.4488887,-0.38822857,0.38822857,-1.4488887,89.575874,88.15407)"
       gradientUnits="userSpaceOnUse"
       x1="-27.382999"
       x2="-20.311001"
       y1="21.552999"
       y2="47.945999">
      <stop
         offset="0"
         stop-color="#afb4b9"
         id="stop2121" />
      <stop
         offset="1"
         stop-color="#cfd2d5"
         id="stop2123" />
    </linearGradient>
    <linearGradient
       id="b-3">
      <stop
         offset="0"
         stop-color="#eff0f1"
         id="stop2099" />
      <stop
         offset="1"
         stop-color="#fcfcfc"
         id="stop2101" />
    </linearGradient>
  </defs>
  <sodipodi:namedview
     id="namedview14"
     pagecolor="#000000"
     bordercolor="#666666"
     borderopacity="1.0"
     inkscape:showpageshadow="2"
     inkscape:pageopacity="0.0"
     inkscape:pagecheckerboard="0"
     inkscape:deskcolor="#d1d1d1"
     showgrid="false"
     inkscape:zoom="10.83591"
     inkscape:cx="10.243717"
     inkscape:cy="27.96258"
     inkscape:window-width="1920"
     inkscape:window-height="996"
     inkscape:window-x="0"
     inkscape:window-y="0"
     inkscape:window-maximized="1"
     inkscape:current-layer="svg12"
     inkscape:document-rotation="0">
    <inkscape:grid
       type="xygrid"
       id="grid244"
       originx="10.010212"
       originy="-31.528555"
       spacingy="1"
       spacingx="1"
       units="px"
       visible="false" />
  </sodipodi:namedview>
  <rect
     x="-12.194976"
     y="0.32004508"
     width="11.940627"
     height="11.936014"
     rx="1.6121091"
     shape-rendering="crispEdges"
     id="rect5-6-7-3"
     ry="1.7735944"
     transform="matrix(0.00523883,-0.99998628,0.999988,0.00489859,0,0)"
     style="fill:#80b3ff;fill-opacity:0.15;stroke:url(#linearGradient892);stroke-width:0.529156;stroke-miterlimit:4;stroke-dasharray:none;stroke-opacity:1" />
  <rect
     x="-3.7838378"
     y="4.9584098"
     width="7.912631"
     height="7.912384"
     rx="1.612043"
     shape-rendering="crispEdges"
     id="rect5-6-6-6-6"
     style="fill:#80b3ff;fill-opacity:0.122146;stroke:url(#linearGradient15);stroke-width:0.396867;stroke-miterlimit:4;stroke-dasharray:none;stroke-opacity:1"
     ry="1.7735215"
     transform="matrix(0.72105342,-0.69287947,0.69329292,0.7206559,0,0)" />
  <path
     style="opacity:0.2;stroke-width:0.264578"
     d="M 6.2284804,2.8027364 5.1226997,4.5605199 H 5.7545744 V 6.7578993 H 4.4593557 V 6.1775923 A 0.94781263,0.94173446 0 0 0 4.9647317,5.3452974 0.94781263,0.94173446 0 0 0 4.0169208,4.4035617 0.94781263,0.94173446 0 0 0 3.0691065,5.3452974 0.94781263,0.94173446 0 0 0 3.5744843,6.1775923 v 0.580307 c 0,0.8789521 0.8848714,0.9417342 0.8848714,0.9417342 H 5.7545744 V 8.2980271 A 0.94781263,0.94173446 0 0 0 5.2806686,9.1122362 0.94781263,0.94173446 0 0 0 6.2284804,10.053969 0.94781263,0.94173446 0 0 0 7.176292,9.1122362 0.94781263,0.94173446 0 0 0 6.7023865,8.2977207 V 7.6996335 h 1.2952216 c 0,0 0.8848722,-0.062783 0.8848722,-0.9417342 V 6.2870321 h 0.110454 c 0.2187831,0 0.3949202,-0.1750058 0.3949202,-0.3923895 V 4.7959524 c 0,-0.2173844 -0.1761371,-0.3923907 -0.3949202,-0.3923907 H 7.8871519 c -0.2187851,0 -0.3949205,0.1750063 -0.3949205,0.3923907 v 1.0986902 c 0,0.2173837 0.1761354,0.3923895 0.3949205,0.3923895 H 7.9976081 V 6.7578993 H 6.7023865 V 4.5605199 h 0.6318764 z"
     id="path2" />
  <path
     style="fill:#ffffff;stroke-width:0.264578"
     d="M 6.3078538,2.6457814 5.2020731,4.4035617 H 5.8339478 V 6.6009434 H 4.5387291 V 6.0206363 A 0.94781263,0.94173446 0 0 0 5.0441051,5.1883417 0.94781263,0.94173446 0 0 0 4.0962942,4.2466062 0.94781263,0.94173446 0 0 0 3.1484799,5.1883417 0.94781263,0.94173446 0 0 0 3.6538577,6.0206363 v 0.5803071 c 0,0.8789516 0.8848714,0.941735 0.8848714,0.941735 H 5.8339478 V 8.1410717 A 0.94781263,0.94173446 0 0 0 5.360042,8.9552792 0.94781263,0.94173446 0 0 0 6.3078538,9.897013 0.94781263,0.94173446 0 0 0 7.2556654,8.9552792 0.94781263,0.94173446 0 0 0 6.7817599,8.1407659 V 7.5426784 h 1.2952216 c 0,0 0.8848722,-0.062786 0.8848722,-0.941735 V 6.1300767 h 0.110454 c 0.2187831,0 0.3949202,-0.1750066 0.3949202,-0.3923899 v -1.098691 c 0,-0.2173825 -0.1761371,-0.3923896 -0.3949202,-0.3923896 H 7.9665253 c -0.2187851,0 -0.3949205,0.1750071 -0.3949205,0.3923896 v 1.098691 c 0,0.2173833 0.1761354,0.3923899 0.3949205,0.3923899 H 8.0769815 V 6.6009434 H 6.7817599 V 4.4035617 h 0.6318764 z"
     id="path3" />
</svg>
