<?xml version="1.0" encoding="UTF-8" standalone="no"?>
<svg
   width="47.285591"
   height="47.28569"
   version="1.1"
   viewBox="0 0 12.510734 12.51076"
   id="svg12"
   sodipodi:docname="tokodon.svg"
   inkscape:version="1.3.2 (091e20ef0f, 2023-11-25)"
   xmlns:inkscape="http://www.inkscape.org/namespaces/inkscape"
   xmlns:sodipodi="http://sodipodi.sourceforge.net/DTD/sodipodi-0.dtd"
   xmlns:xlink="http://www.w3.org/1999/xlink"
   xmlns="http://www.w3.org/2000/svg"
   xmlns:svg="http://www.w3.org/2000/svg"
   xmlns:rdf="http://www.w3.org/1999/02/22-rdf-syntax-ns#"
   xmlns:cc="http://creativecommons.org/ns#"
   xmlns:dc="http://purl.org/dc/elements/1.1/">
  <style
     id="style864" />
  <metadata
     id="metadata39">
    <rdf:RDF>
      <cc:Work
         rdf:about="">
        <dc:format>image/svg+xml</dc:format>
        <dc:type
           rdf:resource="http://purl.org/dc/dcmitype/StillImage" />
      </cc:Work>
    </rdf:RDF>
  </metadata>
  <defs
     id="defs16">
    <linearGradient
       id="linearGradient5"
       inkscape:collect="always">
      <stop
         style="stop-color:#9954ff;stop-opacity:1;"
         offset="0"
         id="stop4" />
      <stop
         style="stop-color:#0095ba;stop-opacity:1;"
         offset="1"
         id="stop5" />
    </linearGradient>
    <linearGradient
       id="linearGradient3"
       inkscape:collect="always">
      <stop
         style="stop-color:#c299ff;stop-opacity:1;"
         offset="0"
         id="stop2" />
      <stop
         style="stop-color:#00ccff;stop-opacity:1"
         offset="1"
         id="stop3" />
    </linearGradient>
    <linearGradient
       id="c"
       y1="523.79999"
       x1="403.57001"
       y2="536.79999"
       x2="416.57001"
       gradientUnits="userSpaceOnUse"
       gradientTransform="matrix(0.34526714,0,0,0.34526706,-134.80427,-174.63325)">
      <stop
         stop-color="#292c2f"
         id="stop1568" />
      <stop
         offset="1"
         stop-opacity="0"
         id="stop1570" />
    </linearGradient>
    <linearGradient
       xlink:href="#b-2"
       id="linearGradient4189"
       x1="14.369"
       y1="22.521999"
       x2="26.521999"
       y2="22.521999"
       gradientUnits="userSpaceOnUse" />
    <linearGradient
       x1="36"
       gradientUnits="userSpaceOnUse"
       x2="14"
       y2="12"
       y1="44"
       id="b-2">
      <stop
         style="stop-color:#bfc9c9;stop-opacity:1"
         stop-color="#536161"
         id="stop1579" />
      <stop
         style="stop-color:#fbfbfb;stop-opacity:1"
         stop-color="#f4f5f5"
         offset="1"
         id="stop1581" />
    </linearGradient>
    <linearGradient
       xlink:href="#b-2"
       id="linearGradient4428"
       gradientUnits="userSpaceOnUse"
       x1="31.586"
       y1="36.345001"
       x2="1.2029999"
       y2="6.723" />
    <linearGradient
       xlink:href="#b-2"
       id="linearGradient4189-3"
       x1="14.369"
       y1="22.521999"
       x2="26.521999"
       y2="22.521999"
       gradientUnits="userSpaceOnUse"
       gradientTransform="translate(20.841982,61.553822)" />
    <linearGradient
       xlink:href="#b-2"
       id="linearGradient4428-5"
       gradientUnits="userSpaceOnUse"
       x1="31.586"
       y1="36.345001"
       x2="1.2029999"
       y2="6.723"
       gradientTransform="translate(20.841982,61.553822)" />
    <linearGradient
       xlink:href="#b-2"
       id="linearGradient4189-3-3"
       x1="14.369"
       y1="22.521999"
       x2="26.521999"
       y2="22.521999"
       gradientUnits="userSpaceOnUse"
       gradientTransform="translate(4.376802,4.4211693)" />
    <linearGradient
       xlink:href="#b-2"
       id="linearGradient4428-5-5"
       gradientUnits="userSpaceOnUse"
       x1="31.586"
       y1="36.345001"
       x2="1.2029999"
       y2="6.723"
       gradientTransform="translate(4.376802,4.4211693)" />
    <linearGradient
       inkscape:collect="always"
       xlink:href="#linearGradient3"
       id="linearGradient15"
       x1="-9.6850061"
       y1="45.161198"
       x2="11.98815"
       y2="21.735205"
       gradientUnits="userSpaceOnUse"
       gradientTransform="scale(0.26457813)" />
    <filter
       id="filter2917-3"
       x="-0.96181148"
       y="-0.66745996"
       width="2.9236228"
       height="2.3349199"
       color-interpolation-filters="sRGB">
      <feGaussianBlur
         stdDeviation="0.2871969"
         id="feGaussianBlur732-5" />
    </filter>
    <filter
       id="filter1"
       x="-0.96181148"
       y="-0.66745996"
       width="2.9236228"
       height="2.3349199"
       color-interpolation-filters="sRGB">
      <feGaussianBlur
         stdDeviation="0.2871969"
         id="feGaussianBlur1" />
    </filter>
    <filter
       id="filter2"
       x="-0.96181148"
       y="-0.66745996"
       width="2.9236228"
       height="2.3349199"
       color-interpolation-filters="sRGB">
      <feGaussianBlur
         stdDeviation="0.2871969"
         id="feGaussianBlur2" />
    </filter>
    <linearGradient
       inkscape:collect="always"
       xlink:href="#linearGradient3"
       id="linearGradient872"
       x1="-12.025727"
       y1="6.1170783"
       x2="-0.085100174"
       y2="6.1170783"
       gradientUnits="userSpaceOnUse" />
    <linearGradient
       inkscape:collect="always"
       xlink:href="#linearGradient5"
       id="linearGradient4"
       x1="3.4489479"
       y1="6.3060327"
       x2="9.0050888"
       y2="6.3060327"
       gradientUnits="userSpaceOnUse" />
  </defs>
  <sodipodi:namedview
     id="namedview14"
     pagecolor="#000000"
     bordercolor="#666666"
     borderopacity="1.0"
     inkscape:showpageshadow="2"
     inkscape:pageopacity="0.0"
     inkscape:pagecheckerboard="0"
     inkscape:deskcolor="#d1d1d1"
     showgrid="false"
     inkscape:zoom="6.2611141"
     inkscape:cx="23.797682"
     inkscape:cy="54.303435"
     inkscape:window-width="1920"
     inkscape:window-height="994"
     inkscape:window-x="0"
     inkscape:window-y="0"
     inkscape:window-maximized="1"
     inkscape:current-layer="svg12"
     inkscape:document-rotation="0">
    <inkscape:grid
       type="xygrid"
       id="grid244"
       originx="9.9594769"
       originy="-31.57929"
       spacingy="1"
       spacingx="1"
       units="px"
       visible="false" />
  </sodipodi:namedview>
  <rect
     x="-12.194976"
     y="0.32004508"
     width="11.940627"
     height="11.936014"
     rx="1.6121091"
     shape-rendering="crispEdges"
     id="rect5-6-7-3"
     ry="1.7735944"
     transform="matrix(0.00523883,-0.99998628,0.999988,0.00489859,0,0)"
     style="fill:#80b3ff;fill-opacity:0.15;stroke:url(#linearGradient872);stroke-width:0.5291563;stroke-miterlimit:4;stroke-dasharray:none;stroke-opacity:1" />
  <rect
     x="-3.7202365"
     y="4.8851409"
     width="7.912631"
     height="7.912384"
     rx="1.612043"
     shape-rendering="crispEdges"
     id="rect5-6-6-6-6"
     style="fill:#80b3ff;fill-opacity:0.122146;stroke:url(#linearGradient15);stroke-width:0.39686725;stroke-opacity:1;stroke-miterlimit:4;stroke-dasharray:none"
     ry="1.7735215"
     transform="matrix(0.72612649,-0.68756114,0.6879775,0.72573202,0,0)" />
  <path
     style="opacity:0.2;stroke-width:0.464339"
     d="M 7.3845477,5.8403697 C 7.6725408,7.081812 8.0461918,7.5623714 8.3105711,7.703 c 0.098621,0.05216 0.2315063,0.079624 0.2315063,0.1164145 0,0.054475 -0.1222355,0.1140855 -0.2315063,0.1164137 -0.2625275,0.00552 -1.0315908,-0.6477297 -1.6205408,-1.3969732 -0.2398398,-0.3050053 0,-0.6984853 0,-0.6984853 z m -2.315059,0 C 4.7735316,7.1153396 4.4379879,7.5712192 4.1434659,7.703 4.0443346,7.747237 3.9119594,7.7840247 3.9119594,7.8194145 c 0,0.057745 0.1209848,0.1136204 0.2315065,0.1164137 0.2698887,0.00701 1.0287652,-0.6444697 1.6205411,-1.3969732 0.3097548,-0.3944114 0,-0.6984853 0,-0.6984853 z"
     id="path2-3" />
  <path
     style="fill:#e4e4e4;stroke-width:0.464339"
     d="m 7.3845477,5.6075405 c 0.2879931,1.2414432 0.6616441,1.722002 0.9260234,1.8626302 0.098621,0.05216 0.2315063,0.079624 0.2315063,0.1164148 0,0.054477 -0.1222355,0.1140861 -0.2315063,0.1164145 C 8.0480436,7.70851 7.2789803,7.0552704 6.6900303,6.3060263 c -0.2398398,-0.3050054 0,-0.6984858 0,-0.6984858 z m -2.315059,0 C 4.7735316,6.8825113 4.4379879,7.3383902 4.1434659,7.4701707 4.044335,7.5144067 3.9119594,7.5511947 3.9119594,7.5865855 c 0,0.057745 0.1209848,0.1136205 0.2315065,0.1164145 0.2698887,0.00701 1.0287652,-0.6444705 1.6205411,-1.3969737 0.3097548,-0.3944117 0,-0.6984858 0,-0.6984858 z"
     id="path3" />
  <path
     style="opacity:0.2;stroke-width:0.464339"
     d="m 7.8475598,3.7449098 c 0.6945176,0 1.157529,0.4656577 1.157529,1.1641443 v 1.1641433 c 0,0.2472645 -0.2023362,0.4656576 -0.4630114,0.4656576 H 7.153042 V 7.703 c 0,0.2090799 0.092604,0.4656572 0.092604,0.4656572 0.1078814,0.2412098 0.315774,0.6300358 0.6412712,0.665892 0.163906,0.017698 0.3088286,-0.020036 0.3542043,-0.069386 0.025946,-0.02794 0.069446,-0.084747 0.069446,-0.1308502 0,-0.082885 0.066213,-0.2328287 0.2315064,-0.2328287 0.1472375,-0.00183 0.2315046,0.06054 0.2315046,0.1536695 0,0.1350378 -0.1972427,0.2612343 -0.2315046,0.3119926 0,0 0.1828891,0.06518 0.2315046,0.084277 0.060652,0.023247 0.1157537,0.09872 0.1157537,0.1485448 0,0.094063 -0.1157537,0.2328289 -0.2315061,0.2328289 -0.1416822,0 -0.224097,-0.1559934 -0.3472586,-0.1164156 -0.325497,0.1043097 -0.6945171,0.1164182 -1.3890353,0.1164182 -0.8181415,0 -1.3728291,-0.6328283 -1.521456,-1.1310816 C 5.3009946,7.8692397 5.3009946,7.4995075 5.3009946,7.0045125 V 6.538855 H 4.6064767 c -0.6945173,0 -1.1575289,-0.6984853 -1.1575289,-1.3969729 V 4.2105675 c 0,-0.2328288 0.2315066,-0.4656577 0.4630116,-0.4656577 z"
     id="path4" />
  <path
     style="fill:url(#linearGradient4);fill-opacity:1;stroke-width:0.464339"
     d="m 7.8475598,3.5120809 c 0.6945176,0 1.157529,0.4656578 1.157529,1.1641436 v 1.1641452 c 0,0.2472635 -0.2023362,0.4656566 -0.4630114,0.4656566 H 7.153042 v 1.1641444 c 0,0.2090807 0.092604,0.4656575 0.092604,0.4656575 0.1078814,0.241211 0.315774,0.6300348 0.6412712,0.6658901 0.163906,0.017687 0.3088286,-0.020024 0.3542043,-0.069368 0.025946,-0.02792 0.069446,-0.084752 0.069446,-0.1308529 0,-0.082885 0.066213,-0.2328276 0.2315064,-0.2328276 0.1472375,-0.00179 0.2315046,0.060542 0.2315046,0.1536671 0,0.1350387 -0.1972427,0.2612358 -0.2315046,0.3119893 0,0 0.1828891,0.065176 0.2315046,0.084289 0.060652,0.023259 0.1157537,0.098714 0.1157537,0.1485446 0,0.094059 -0.1157537,0.2328238 -0.2315061,0.2328238 -0.1416822,0 -0.224097,-0.1559902 -0.3472586,-0.116408 C 7.9850707,9.0878798 7.6160504,9.0999842 6.9215323,9.0999842 6.1033908,9.0999842 5.5487032,8.4671595 5.4000762,7.9689063 5.3009946,7.6364101 5.3009946,7.266678 5.3009946,6.7716847 V 6.3060263 H 4.6064767 c -0.6945173,0 -1.1575289,-0.6984858 -1.1575289,-1.3969722 V 3.9777387 c 0,-0.2328289 0.2315066,-0.4656578 0.4630116,-0.4656578 z"
     id="path5" />
  <ellipse
     style="opacity:0.1;stroke-width:0.464177"
     cx="-1.4343848"
     cy="8.8796701"
     rx="0.5173586"
     ry="0.40466115"
     transform="matrix(0.55717936,-0.83039217,0.89557859,0.44490335,0,0)"
     id="ellipse5" />
  <ellipse
     style="fill:#e4e4e4;stroke-width:0.464177"
     cx="-1.224283"
     cy="8.7489338"
     rx="0.5173586"
     ry="0.40466115"
     transform="matrix(0.55717936,-0.83039217,0.89557859,0.44490335,0,0)"
     id="ellipse6" />
  <ellipse
     style="opacity:0.1;stroke-width:0.464177"
     cx="-7.0226741"
     cy="-1.5498121"
     rx="0.5173586"
     ry="0.40466115"
     transform="matrix(-0.55717936,-0.83039217,-0.89557859,0.44490335,0,0)"
     id="ellipse7" />
  <ellipse
     style="fill:#e4e4e4;stroke-width:0.464177"
     cx="-6.8120885"
     cy="-1.6809913"
     rx="0.5173586"
     ry="0.40466115"
     transform="matrix(-0.55717936,-0.83039217,-0.89557859,0.44490335,0,0)"
     id="ellipse8" />
  <path
     style="opacity:0.1;fill:#ffffff;stroke-width:0.464339"
     d="m 3.9119594,3.5120809 c -0.231505,0 -0.4630116,0.2328289 -0.4630116,0.4656578 v 0.2328288 c 0,-0.2328288 0.2315066,-0.4656577 0.4630116,-0.4656577 h 3.9356004 c 0.6945176,0 1.157529,0.4656577 1.157529,1.1641443 V 4.6762245 c 0,-0.6984858 -0.4630114,-1.1641436 -1.157529,-1.1641436 z M 7.153042,7.4701707 V 7.703 c 0,0.2090799 0.09214,0.4656572 0.09214,0.4656572 0.1078822,0.2412098 0.3167003,0.6300358 0.6421968,0.665892 0.1639066,0.017698 0.3083663,-0.020036 0.3537419,-0.069386 0.025946,-0.02794 0.069446,-0.084747 0.069446,-0.1308502 0,-0.082885 0.066213,-0.2328287 0.2315064,-0.2328287 0.07917,-8.856e-4 0.1398286,0.017227 0.1791852,0.048434 0.029633,-0.040531 0.052323,-0.08335 0.052323,-0.1275895 0,-0.093135 -0.084266,-0.1555302 -0.2315049,-0.1536672 -0.165295,0 -0.2315062,0.1499415 -0.2315062,0.2328271 0,0.046095 -0.043517,0.1029118 -0.069446,0.1308512 -0.04538,0.049372 -0.1898351,0.08708 -0.3537413,0.069378 C 7.5618843,8.565829 7.353066,8.1770298 7.2451838,7.9358187 c 0,0 -0.09214,-0.2565764 -0.09214,-0.4656574 z m 1.5589602,1.2260778 c -0.060653,0.07591 -0.1481642,0.1387673 -0.1699248,0.170899 0,0 0.1828889,0.065641 0.231505,0.084744 0.022682,0.00833 0.043041,0.025133 0.06158,0.044267 0.03287,-0.041923 0.054169,-0.088941 0.054169,-0.1289834 0,-0.049814 -0.055099,-0.1247971 -0.1157537,-0.1480778 -0.012951,-0.00549 -0.03566,-0.013521 -0.06158,-0.022819 z"
     id="path9" />
</svg>
