<?xml version="1.0" encoding="UTF-8" standalone="no"?>
<svg
   width="45.999886"
   height="45.999989"
   version="1.1"
   viewBox="0 0 12.170564 12.170591"
   id="svg12"
   sodipodi:docname="altus.svg"
   inkscape:version="1.3.2 (091e20ef0f, 2023-11-25)"
   xmlns:inkscape="http://www.inkscape.org/namespaces/inkscape"
   xmlns:sodipodi="http://sodipodi.sourceforge.net/DTD/sodipodi-0.dtd"
   xmlns:xlink="http://www.w3.org/1999/xlink"
   xmlns="http://www.w3.org/2000/svg"
   xmlns:svg="http://www.w3.org/2000/svg">
  <defs
     id="defs16">
    <linearGradient
       id="c"
       y1="523.79999"
       x1="403.57001"
       y2="536.79999"
       x2="416.57001"
       gradientUnits="userSpaceOnUse"
       gradientTransform="matrix(0.34526714,0,0,0.34526706,-134.80427,-174.63325)">
      <stop
         stop-color="#292c2f"
         id="stop1568" />
      <stop
         offset="1"
         stop-opacity="0"
         id="stop1570" />
    </linearGradient>
    <linearGradient
       xlink:href="#b-2"
       id="linearGradient4189"
       x1="14.369"
       y1="22.521999"
       x2="26.521999"
       y2="22.521999"
       gradientUnits="userSpaceOnUse" />
    <linearGradient
       x1="36"
       gradientUnits="userSpaceOnUse"
       x2="14"
       y2="12"
       y1="44"
       id="b-2">
      <stop
         style="stop-color:#bfc9c9;stop-opacity:1"
         stop-color="#536161"
         id="stop1579" />
      <stop
         style="stop-color:#fbfbfb;stop-opacity:1"
         stop-color="#f4f5f5"
         offset="1"
         id="stop1581" />
    </linearGradient>
    <linearGradient
       xlink:href="#b-2"
       id="linearGradient4428"
       gradientUnits="userSpaceOnUse"
       x1="31.586"
       y1="36.345001"
       x2="1.2029999"
       y2="6.723" />
    <linearGradient
       xlink:href="#b-2"
       id="linearGradient4189-3"
       x1="14.369"
       y1="22.521999"
       x2="26.521999"
       y2="22.521999"
       gradientUnits="userSpaceOnUse"
       gradientTransform="translate(20.841982,61.553822)" />
    <linearGradient
       xlink:href="#b-2"
       id="linearGradient4428-5"
       gradientUnits="userSpaceOnUse"
       x1="31.586"
       y1="36.345001"
       x2="1.2029999"
       y2="6.723"
       gradientTransform="translate(20.841982,61.553822)" />
    <linearGradient
       xlink:href="#b-2"
       id="linearGradient4189-3-3"
       x1="14.369"
       y1="22.521999"
       x2="26.521999"
       y2="22.521999"
       gradientUnits="userSpaceOnUse"
       gradientTransform="translate(4.376802,4.4211693)" />
    <linearGradient
       xlink:href="#b-2"
       id="linearGradient4428-5-5"
       gradientUnits="userSpaceOnUse"
       x1="31.586"
       y1="36.345001"
       x2="1.2029999"
       y2="6.723"
       gradientTransform="translate(4.376802,4.4211693)" />
    <linearGradient
       inkscape:collect="always"
       xlink:href="#linearGradient11"
       id="linearGradient13"
       x1="-43.819283"
       y1="23.120178"
       x2="-1.9547797"
       y2="23.120178"
       gradientUnits="userSpaceOnUse"
       gradientTransform="scale(0.26457813)" />
    <linearGradient
       id="linearGradient11"
       inkscape:collect="always">
      <stop
         style="stop-color:#9955ff;stop-opacity:0.65640396;"
         offset="0"
         id="stop4-3" />
      <stop
         style="stop-color:#00ccff;stop-opacity:1"
         offset="1"
         id="stop11" />
    </linearGradient>
    <linearGradient
       inkscape:collect="always"
       xlink:href="#linearGradient14"
       id="linearGradient15"
       x1="-9.6850061"
       y1="45.161198"
       x2="11.98815"
       y2="21.735205"
       gradientUnits="userSpaceOnUse"
       gradientTransform="scale(0.26457813)" />
    <linearGradient
       id="linearGradient14"
       inkscape:collect="always">
      <stop
         style="stop-color:#9955ff;stop-opacity:0.45197046;"
         offset="0"
         id="stop12" />
      <stop
         style="stop-color:#00ccff;stop-opacity:1"
         offset="1"
         id="stop13" />
    </linearGradient>
    <filter
       id="filter2917-3"
       x="-0.96181147"
       y="-0.66745996"
       width="2.9236229"
       height="2.3349199"
       color-interpolation-filters="sRGB">
      <feGaussianBlur
         stdDeviation="0.2871969"
         id="feGaussianBlur732-5" />
    </filter>
    <filter
       id="filter1"
       x="-0.96181148"
       y="-0.66745996"
       width="2.9236228"
       height="2.3349199"
       color-interpolation-filters="sRGB">
      <feGaussianBlur
         stdDeviation="0.2871969"
         id="feGaussianBlur1" />
    </filter>
    <filter
       id="filter2"
       x="-0.96181148"
       y="-0.66745996"
       width="2.9236228"
       height="2.3349199"
       color-interpolation-filters="sRGB">
      <feGaussianBlur
         stdDeviation="0.2871969"
         id="feGaussianBlur2" />
    </filter>
  </defs>
  <sodipodi:namedview
     id="namedview14"
     pagecolor="#000000"
     bordercolor="#666666"
     borderopacity="1.0"
     inkscape:showpageshadow="2"
     inkscape:pageopacity="0.0"
     inkscape:pagecheckerboard="0"
     inkscape:deskcolor="#d1d1d1"
     showgrid="false"
     inkscape:zoom="5.2149125"
     inkscape:cx="23.20269"
     inkscape:cy="69.032798"
     inkscape:window-width="1920"
     inkscape:window-height="992"
     inkscape:window-x="0"
     inkscape:window-y="0"
     inkscape:window-maximized="1"
     inkscape:current-layer="svg12">
    <inkscape:grid
       type="xygrid"
       id="grid244"
       originx="9.7893915"
       originy="-31.749373"
       spacingy="1"
       spacingx="1"
       units="px"
       visible="false" />
  </sodipodi:namedview>
  <rect
     x="-12.025727"
     y="0.1490714"
     width="11.940627"
     height="11.936014"
     rx="1.6121091"
     stroke="url(#paint4_linear_77:23)"
     shape-rendering="crispEdges"
     id="rect5-6-7-3"
     ry="1.7735944"
     transform="matrix(0.00523883,-0.99998628,0.999988,0.00489859,0,0)"
     style="fill:#80b3ff;fill-opacity:0.15;stroke:url(#linearGradient13);stroke-width:0.188987;stroke-opacity:1" />
  <rect
     x="-3.7266586"
     y="4.6446943"
     width="7.912631"
     height="7.912384"
     rx="1.612043"
     shape-rendering="crispEdges"
     id="rect5-6-6-6-6"
     style="fill:#80b3ff;fill-opacity:0.122146;stroke:url(#linearGradient15);stroke-width:0.188987;stroke-opacity:1"
     ry="1.7735215"
     transform="matrix(0.72612649,-0.68756114,0.6879775,0.72573202,0,0)" />
  <path
     d="m 2.5134923,5.1886758 0.3251123,0.485059 c 0,0 0.1625601,-0.323371 0.6502282,-0.323371 0.3251154,0.646748 0.8127853,4.04216 1.9506833,4.04216 2.2757934,0 3.4136916,-3.880476 3.4136916,-4.850606 0,-0.161685 0.1625566,-0.808432 -0.8127824,-0.808432 -1.300455,0 -1.7881266,1.616878 -1.7881266,1.616878 0,0 0.4876716,-0.161688 0.9753418,-0.161688 0.1625574,0.485059 -0.3251143,1.616859 -1.137897,2.263603 -0.6502274,-0.808432 -0.6502274,-3.557107 -1.4630111,-3.557107 -0.6502289,0 -2.1132401,1.293504 -2.1132401,1.293504 z"
     style="opacity:0.2;stroke-width:0.264569;fill:#2ad4ff"
     id="path2-3" />
  <path
     d="m 2.5134923,5.0269888 0.3251123,0.485059 c 0,0 0.1625601,-0.323372 0.6502282,-0.323372 0.3251154,0.646746 0.8127853,4.04216 1.9506833,4.04216 2.2757934,0 3.4136916,-3.880472 3.4136916,-4.850603 0,-0.161684 0.1625566,-0.808428 -0.8127824,-0.808428 -1.300455,0 -1.7881266,1.616871 -1.7881266,1.616871 0,0 0.4876716,-0.161687 0.9753418,-0.161687 0.1625574,0.485059 -0.3251143,1.616858 -1.137897,2.263602 -0.6502274,-0.808431 -0.6502274,-3.557105 -1.4630111,-3.557105 -0.6502289,0 -2.1132401,1.293503 -2.1132401,1.293503 z"
     style="fill:#2ad4ff;stroke-width:0.264569"
     id="path3" />
</svg>
