<?xml version="1.0" encoding="UTF-8" standalone="no"?>
<svg
   height="47.285686"
   width="47.285591"
   version="1.1"
   id="svg10"
   sodipodi:docname="about_kde.svg"
   inkscape:version="1.4 (e7c3feb100, 2024-10-09)"
   xmlns:inkscape="http://www.inkscape.org/namespaces/inkscape"
   xmlns:sodipodi="http://sodipodi.sourceforge.net/DTD/sodipodi-0.dtd"
   xmlns:xlink="http://www.w3.org/1999/xlink"
   xmlns="http://www.w3.org/2000/svg"
   xmlns:svg="http://www.w3.org/2000/svg"
   xmlns:rdf="http://www.w3.org/1999/02/22-rdf-syntax-ns#"
   xmlns:cc="http://creativecommons.org/ns#"
   xmlns:dc="http://purl.org/dc/elements/1.1/">
  <style
     id="style942" />
  <metadata
     id="metadata16">
    <rdf:RDF>
      <cc:Work
         rdf:about="">
        <dc:format>image/svg+xml</dc:format>
        <dc:type
           rdf:resource="http://purl.org/dc/dcmitype/StillImage" />
      </cc:Work>
    </rdf:RDF>
  </metadata>
  <defs
     id="defs14">
    <linearGradient
       id="c"
       x1="31.458"
       x2="31.458"
       y1="51.726002"
       y2="62.897999"
       gradientTransform="matrix(0.36079,0,0,0.36079,-2.8832,-9.4399)"
       gradientUnits="userSpaceOnUse">
      <stop
         stop-color="#1776ff"
         offset="0"
         id="stop292" />
      <stop
         stop-color="#2fceff"
         offset="1"
         id="stop294" />
    </linearGradient>
    <linearGradient
       id="d"
       x1="31.458"
       x2="31.458"
       y1="36.897999"
       y2="59.897999"
       gradientTransform="matrix(0.36079,0,0,0.36079,-2.8832,-9.4399)"
       gradientUnits="userSpaceOnUse">
      <stop
         stop-color="#ff5514"
         offset="0"
         id="stop297" />
      <stop
         stop-color="#ff9014"
         offset="1"
         id="stop299" />
    </linearGradient>
    <linearGradient
       id="a"
       x1="31.458"
       x2="31.458"
       y1="46.897999"
       y2="56.897999"
       gradientTransform="matrix(0.36079,0,0,0.36079,-2.8832,-9.4399)"
       gradientUnits="userSpaceOnUse">
      <stop
         stop-color="#c0e5fb"
         offset="0"
         id="stop302" />
      <stop
         stop-color="#c3faff"
         offset="1"
         id="stop304" />
    </linearGradient>
    <linearGradient
       gradientTransform="matrix(1.0394952,0,0,1.0394363,-448.49881,-520.66414)"
       gradientUnits="userSpaceOnUse"
       x2="426.69501"
       y2="499.92099"
       y1="547.67499"
       id="a-6"
       x1="389.32001">
      <stop
         stop-color="#18222a"
         style="stop-color:#436077;stop-opacity:1;"
         id="stop216"
         offset="0" />
      <stop
         stop-color="#566069"
         offset="1"
         style="stop-color:#6d7983;stop-opacity:1"
         id="stop218" />
    </linearGradient>
    <linearGradient
       id="e"
       x1="8.4461002"
       x2="24.603001"
       y1="6.2688999"
       y2="24.570999"
       gradientUnits="userSpaceOnUse"
       gradientTransform="translate(0.254427,-38.49298)">
      <stop
         stop-opacity=".2088"
         offset="0"
         id="stop4" />
      <stop
         stop-opacity="0"
         offset="1"
         id="stop6" />
    </linearGradient>
    <linearGradient
       id="d-3"
       x1="7.8488002"
       x2="14.108"
       y1="3.5121"
       y2="14.183"
       gradientUnits="userSpaceOnUse"
       gradientTransform="translate(0.254427,-38.49298)">
      <stop
         stop-opacity=".2088"
         offset="0"
         id="stop14" />
      <stop
         stop-opacity="0"
         offset="1"
         id="stop16" />
    </linearGradient>
    <linearGradient
       id="c-6"
       x1="31.458"
       x2="31.458"
       y1="51.726002"
       y2="62.897999"
       gradientTransform="matrix(0.36079,0,0,0.36079,-2.8832,-9.4399)"
       gradientUnits="userSpaceOnUse">
      <stop
         stop-color="#1776ff"
         offset="0"
         id="stop292-7"
         style="stop-color:#55ddff;stop-opacity:1" />
      <stop
         stop-color="#2fceff"
         offset="1"
         id="stop294-5"
         style="stop-color:#00ccff;stop-opacity:1" />
    </linearGradient>
    <linearGradient
       id="d-35"
       x1="31.458"
       x2="31.458"
       y1="36.897999"
       y2="59.897999"
       gradientTransform="matrix(0.36079,0,0,0.36079,-2.8832,-9.4399)"
       gradientUnits="userSpaceOnUse">
      <stop
         stop-color="#ff5514"
         offset="0"
         id="stop297-6"
         style="stop-color:#ffccaa;stop-opacity:1" />
      <stop
         stop-color="#ff9014"
         offset="1"
         id="stop299-2"
         style="stop-color:#ff9955;stop-opacity:1" />
    </linearGradient>
    <linearGradient
       id="a-9"
       x1="31.458"
       x2="31.458"
       y1="46.897999"
       y2="56.897999"
       gradientTransform="matrix(0.36079,0,0,0.36079,-2.8832,-9.4399)"
       gradientUnits="userSpaceOnUse">
      <stop
         stop-color="#c0e5fb"
         offset="0"
         id="stop302-1"
         style="stop-color:#e3d7f4;stop-opacity:1" />
      <stop
         stop-color="#c3faff"
         offset="1"
         id="stop304-2"
         style="stop-color:#aa87de;stop-opacity:1" />
    </linearGradient>
    <filter
       id="filter5877"
       x="-2.357507"
       y="-2.3296077"
       width="5.715014"
       height="5.6592155"
       color-interpolation-filters="sRGB">
      <feGaussianBlur
         stdDeviation="0.28543518"
         id="feGaussianBlur1374" />
    </filter>
    <filter
       id="filter2488"
       x="-2.357507"
       y="-2.3296077"
       width="5.715014"
       height="5.6592155"
       color-interpolation-filters="sRGB">
      <feGaussianBlur
         stdDeviation="0.28543518"
         id="feGaussianBlur2486" />
    </filter>
    <filter
       id="filter2492"
       x="-2.357507"
       y="-2.3296077"
       width="5.715014"
       height="5.6592155"
       color-interpolation-filters="sRGB">
      <feGaussianBlur
         stdDeviation="0.28543518"
         id="feGaussianBlur2490" />
    </filter>
    <filter
       id="filter2496"
       x="-2.357507"
       y="-2.3296077"
       width="5.715014"
       height="5.6592155"
       color-interpolation-filters="sRGB">
      <feGaussianBlur
         stdDeviation="0.28543518"
         id="feGaussianBlur2494" />
    </filter>
    <filter
       id="filter2500"
       x="-2.357507"
       y="-2.3296077"
       width="5.715014"
       height="5.6592155"
       color-interpolation-filters="sRGB">
      <feGaussianBlur
         stdDeviation="0.28543518"
         id="feGaussianBlur2498" />
    </filter>
    <filter
       id="filter2504"
       x="-2.357507"
       y="-2.3296077"
       width="5.715014"
       height="5.6592155"
       color-interpolation-filters="sRGB">
      <feGaussianBlur
         stdDeviation="0.28543518"
         id="feGaussianBlur2502" />
    </filter>
    <filter
       id="filter2508"
       x="-2.357507"
       y="-2.3296077"
       width="5.715014"
       height="5.6592155"
       color-interpolation-filters="sRGB">
      <feGaussianBlur
         stdDeviation="0.28543518"
         id="feGaussianBlur2506" />
    </filter>
    <filter
       id="filter2512"
       x="-2.357507"
       y="-2.3296077"
       width="5.715014"
       height="5.6592155"
       color-interpolation-filters="sRGB">
      <feGaussianBlur
         stdDeviation="0.28543518"
         id="feGaussianBlur2510" />
    </filter>
    <filter
       id="filter2516"
       x="-2.357507"
       y="-2.3296077"
       width="5.715014"
       height="5.6592155"
       color-interpolation-filters="sRGB">
      <feGaussianBlur
         stdDeviation="0.28543518"
         id="feGaussianBlur2514" />
    </filter>
    <filter
       id="filter2520"
       x="-2.357507"
       y="-2.3296077"
       width="5.715014"
       height="5.6592155"
       color-interpolation-filters="sRGB">
      <feGaussianBlur
         stdDeviation="0.28543518"
         id="feGaussianBlur2518" />
    </filter>
    <filter
       id="filter2524"
       x="-2.357507"
       y="-2.3296077"
       width="5.715014"
       height="5.6592155"
       color-interpolation-filters="sRGB">
      <feGaussianBlur
         stdDeviation="0.28543518"
         id="feGaussianBlur2522" />
    </filter>
    <filter
       id="filter2528"
       x="-2.357507"
       y="-2.3296077"
       width="5.715014"
       height="5.6592155"
       color-interpolation-filters="sRGB">
      <feGaussianBlur
         stdDeviation="0.28543518"
         id="feGaussianBlur2526" />
    </filter>
    <filter
       id="filter2532"
       x="-2.357507"
       y="-2.3296077"
       width="5.715014"
       height="5.6592155"
       color-interpolation-filters="sRGB">
      <feGaussianBlur
         stdDeviation="0.28543518"
         id="feGaussianBlur2530" />
    </filter>
    <filter
       id="filter2536"
       x="-2.357507"
       y="-2.3296077"
       width="5.715014"
       height="5.6592155"
       color-interpolation-filters="sRGB">
      <feGaussianBlur
         stdDeviation="0.28543518"
         id="feGaussianBlur2534" />
    </filter>
    <filter
       id="filter2540"
       x="-2.357507"
       y="-2.3296077"
       width="5.715014"
       height="5.6592155"
       color-interpolation-filters="sRGB">
      <feGaussianBlur
         stdDeviation="0.28543518"
         id="feGaussianBlur2538" />
    </filter>
    <linearGradient
       id="linearGradient1566"
       x1="8.3549995"
       x2="8.3996"
       y1="16.007"
       y2="0.79374999"
       gradientTransform="matrix(2.7849621,0,0,2.7849621,0.42101663,0.42102106)"
       gradientUnits="userSpaceOnUse">
      <stop
         stop-color="#2e3440"
         stop-opacity=".2"
         offset="0"
         id="stop1366"
         style="stop-color:#4f5a6f;stop-opacity:0.54245424;" />
      <stop
         stop-color="#d8dee9"
         offset="1"
         id="stop1368" />
    </linearGradient>
    <filter
       id="filter5815"
       x="-0.05500596"
       y="-0.11783287"
       width="1.1100119"
       height="1.2356657"
       color-interpolation-filters="sRGB">
      <feGaussianBlur
         stdDeviation="0.19020097"
         id="feGaussianBlur1371" />
    </filter>
    <filter
       id="filter5877-3"
       x="-2.357507"
       y="-2.3296077"
       width="5.715014"
       height="5.6592155"
       color-interpolation-filters="sRGB">
      <feGaussianBlur
         stdDeviation="0.28543518"
         id="feGaussianBlur1374-6" />
    </filter>
    <filter
       id="filter919"
       x="-2.357507"
       y="-2.3296077"
       width="5.715014"
       height="5.6592155"
       color-interpolation-filters="sRGB">
      <feGaussianBlur
         stdDeviation="0.28543518"
         id="feGaussianBlur917" />
    </filter>
    <filter
       id="filter923"
       x="-2.357507"
       y="-2.3296077"
       width="5.715014"
       height="5.6592155"
       color-interpolation-filters="sRGB">
      <feGaussianBlur
         stdDeviation="0.28543518"
         id="feGaussianBlur921" />
    </filter>
    <filter
       id="filter927"
       x="-2.357507"
       y="-2.3296077"
       width="5.715014"
       height="5.6592155"
       color-interpolation-filters="sRGB">
      <feGaussianBlur
         stdDeviation="0.28543518"
         id="feGaussianBlur925" />
    </filter>
    <filter
       id="filter931"
       x="-2.357507"
       y="-2.3296077"
       width="5.715014"
       height="5.6592155"
       color-interpolation-filters="sRGB">
      <feGaussianBlur
         stdDeviation="0.28543518"
         id="feGaussianBlur929" />
    </filter>
    <filter
       id="filter935"
       x="-2.357507"
       y="-2.3296077"
       width="5.715014"
       height="5.6592155"
       color-interpolation-filters="sRGB">
      <feGaussianBlur
         stdDeviation="0.28543518"
         id="feGaussianBlur933" />
    </filter>
    <filter
       id="filter939"
       x="-2.357507"
       y="-2.3296077"
       width="5.715014"
       height="5.6592155"
       color-interpolation-filters="sRGB">
      <feGaussianBlur
         stdDeviation="0.28543518"
         id="feGaussianBlur937" />
    </filter>
    <filter
       id="filter943"
       x="-2.357507"
       y="-2.3296077"
       width="5.715014"
       height="5.6592155"
       color-interpolation-filters="sRGB">
      <feGaussianBlur
         stdDeviation="0.28543518"
         id="feGaussianBlur941" />
    </filter>
    <filter
       id="filter947"
       x="-2.357507"
       y="-2.3296077"
       width="5.715014"
       height="5.6592155"
       color-interpolation-filters="sRGB">
      <feGaussianBlur
         stdDeviation="0.28543518"
         id="feGaussianBlur945" />
    </filter>
    <filter
       id="filter951"
       x="-2.357507"
       y="-2.3296077"
       width="5.715014"
       height="5.6592155"
       color-interpolation-filters="sRGB">
      <feGaussianBlur
         stdDeviation="0.28543518"
         id="feGaussianBlur949" />
    </filter>
    <filter
       id="filter955"
       x="-2.357507"
       y="-2.3296077"
       width="5.715014"
       height="5.6592155"
       color-interpolation-filters="sRGB">
      <feGaussianBlur
         stdDeviation="0.28543518"
         id="feGaussianBlur953" />
    </filter>
    <filter
       id="filter959"
       x="-2.357507"
       y="-2.3296077"
       width="5.715014"
       height="5.6592155"
       color-interpolation-filters="sRGB">
      <feGaussianBlur
         stdDeviation="0.28543518"
         id="feGaussianBlur957" />
    </filter>
    <filter
       id="filter963"
       x="-2.357507"
       y="-2.3296077"
       width="5.715014"
       height="5.6592155"
       color-interpolation-filters="sRGB">
      <feGaussianBlur
         stdDeviation="0.28543518"
         id="feGaussianBlur961" />
    </filter>
    <filter
       id="filter967"
       x="-2.357507"
       y="-2.3296077"
       width="5.715014"
       height="5.6592155"
       color-interpolation-filters="sRGB">
      <feGaussianBlur
         stdDeviation="0.28543518"
         id="feGaussianBlur965" />
    </filter>
    <filter
       id="filter971"
       x="-2.357507"
       y="-2.3296077"
       width="5.715014"
       height="5.6592155"
       color-interpolation-filters="sRGB">
      <feGaussianBlur
         stdDeviation="0.28543518"
         id="feGaussianBlur969" />
    </filter>
    <filter
       id="filter5815-3"
       x="-0.05500596"
       y="-0.11783287"
       width="1.1100119"
       height="1.2356657"
       color-interpolation-filters="sRGB">
      <feGaussianBlur
         stdDeviation="0.19020097"
         id="feGaussianBlur1371-5" />
    </filter>
    <linearGradient
       id="paint4_linear_77:23-3-9"
       x1="5.7714014"
       y1="46.610188"
       x2="7.0511508"
       y2="-11.516281"
       gradientUnits="userSpaceOnUse"
       gradientTransform="matrix(0.00349877,0.71427605,-0.71427754,0.00374183,-11.045455,19.915239)">
      <stop
         stop-color="#E4F9FF"
         stop-opacity="0.1"
         id="stop43-6-1"
         offset="0"
         style="stop-color:#26cfff;stop-opacity:0.7758621;" />
      <stop
         offset="1"
         stop-color="#E4F9FF"
         stop-opacity="0.8"
         id="stop44-7-2"
         style="stop-color:#05c7ff;stop-opacity:0.80000001;" />
    </linearGradient>
    <linearGradient
       id="paint4_linear_77:23-3-0-0"
       x1="5.762825"
       y1="44.747261"
       x2="6.5105295"
       y2="-8.739049"
       gradientUnits="userSpaceOnUse"
       gradientTransform="matrix(0.51837914,0.49111439,-0.49141329,0.51866228,6.7448933,21.744117)">
      <stop
         stop-color="#E4F9FF"
         stop-opacity="0.1"
         id="stop43-6-9-6"
         offset="0"
         style="stop-color:#26cfff;stop-opacity:0.82635468;" />
      <stop
         offset="1"
         stop-color="#E4F9FF"
         stop-opacity="0.8"
         id="stop44-7-3-2"
         style="stop-color:#05c7ff;stop-opacity:0.80000001;" />
    </linearGradient>
    <linearGradient
       inkscape:collect="always"
       xlink:href="#linearGradient14"
       id="linearGradient15"
       x1="-9.6850061"
       y1="45.161198"
       x2="11.98815"
       y2="21.735205"
       gradientUnits="userSpaceOnUse"
       gradientTransform="translate(0.0242723,0.90879209)" />
    <linearGradient
       id="linearGradient14"
       inkscape:collect="always">
      <stop
         style="stop-color:#9955ff;stop-opacity:0.45197046;"
         offset="0"
         id="stop12" />
      <stop
         style="stop-color:#5599ff;stop-opacity:1"
         offset="1"
         id="stop13" />
    </linearGradient>
    <linearGradient
       inkscape:collect="always"
       xlink:href="#linearGradient14"
       id="linearGradient951"
       x1="-45.452457"
       y1="23.120121"
       x2="-0.32164383"
       y2="23.120121"
       gradientUnits="userSpaceOnUse"
       gradientTransform="translate(-0.63969406,0.64621228)" />
    <linearGradient
       inkscape:collect="always"
       xlink:href="#linearGradient7"
       id="linearGradient8"
       x1="32.616634"
       y1="49.714283"
       x2="32.42321"
       y2="14.279902"
       gradientUnits="userSpaceOnUse"
       gradientTransform="matrix(0.57954546,0,0,0.5777777,-49.285468,6.8510751)" />
    <linearGradient
       id="linearGradient7"
       inkscape:collect="always">
      <stop
         style="stop-color:#a8cbfe;stop-opacity:1"
         offset="0"
         id="stop7" />
      <stop
         style="stop-color:#cbbbe9;stop-opacity:1"
         offset="1"
         id="stop8" />
    </linearGradient>
  </defs>
  <sodipodi:namedview
     pagecolor="#000000"
     bordercolor="#666666"
     borderopacity="1"
     objecttolerance="10"
     gridtolerance="10"
     guidetolerance="10"
     inkscape:pageopacity="0"
     inkscape:pageshadow="2"
     inkscape:window-width="1920"
     inkscape:window-height="998"
     id="namedview12"
     showgrid="false"
     inkscape:zoom="6.8094036"
     inkscape:cx="1.101418"
     inkscape:cy="58.668868"
     inkscape:window-x="0"
     inkscape:window-y="0"
     inkscape:window-maximized="1"
     inkscape:current-layer="svg10"
     inkscape:document-rotation="0"
     inkscape:showpageshadow="2"
     inkscape:pagecheckerboard="0"
     inkscape:deskcolor="#d1d1d1">
    <inkscape:grid
       type="xygrid"
       id="grid3007"
       originx="18.976607"
       originy="-56.92774"
       spacingy="1"
       spacingx="1"
       units="px"
       visible="false" />
  </sodipodi:namedview>
  <rect
     x="-46.092152"
     y="1.209643"
     width="45.130814"
     height="45.11338"
     rx="6.0931301"
     shape-rendering="crispEdges"
     id="rect5-6-7-3"
     ry="6.7034802"
     transform="matrix(0.00523883,-0.99998628,0.999988,0.00489859,0,0)"
     style="fill:#80b3ff;fill-opacity:0.15;stroke:url(#linearGradient951);stroke-width:2;stroke-miterlimit:4;stroke-dasharray:none;stroke-opacity:1" />
  <rect
     x="-14.061338"
     y="18.464235"
     width="29.906595"
     height="29.905661"
     rx="6.0928807"
     shape-rendering="crispEdges"
     id="rect5-6-6-6-6"
     style="fill:#5599ff;fill-opacity:0.122146;stroke:url(#linearGradient15);stroke-width:1.5;stroke-miterlimit:4;stroke-dasharray:none;stroke-opacity:1"
     ry="6.7032051"
     transform="matrix(0.72612649,-0.68756114,0.68797751,0.72573201,0,0)" />
  <g
     id="g1"
     transform="translate(54.382809,-1.9860094)">
    <path
       style="opacity:0.2;stroke-width:0.578661"
       d="m -30.73775,13.206532 c -1.124653,0 -1.629194,0.04287 -2.45854,0.212153 -0.685512,0.139963 -1.795996,0.455045 -1.949174,0.552951 -0.03884,0.0248 0.407757,0.487253 2.155184,2.236632 1.211823,1.213171 2.225497,2.207291 2.25253,2.207291 0.02705,0 1.040715,-0.99412 2.25253,-2.207291 1.747428,-1.749379 2.194021,-2.211813 2.155186,-2.236632 -0.153176,-0.09791 -1.263656,-0.412988 -1.949175,-0.552951 -0.829339,-0.169313 -1.333887,-0.212153 -2.458541,-0.212153 z m 7.611061,2.473611 c -0.05281,-0.02148 -5.195534,5.109982 -5.195532,5.1842 0,0.0538 2.574878,2.647397 2.628329,2.647397 0.01824,0 0.260734,-0.230354 0.538795,-0.510071 0.278069,-0.279716 0.839542,-0.832187 1.247381,-1.227777 l 0.740279,-0.717708 0.135832,0.205381 c 0.331359,0.509807 0.75647,1.485179 0.957607,2.191494 0.247523,0.869195 0.328259,1.482943 0.328259,2.491666 0,0.859025 -0.02434,1.147203 -0.165261,1.82361 -0.152304,0.730994 -0.37334,1.385228 -0.683683,2.038021 -0.221451,0.46581 -0.527863,0.988541 -0.579545,0.988541 -0.02181,0 -1.731817,-1.693928 -3.801004,-3.764582 l -3.762518,-3.764583 -3.762518,3.764583 c -2.069178,2.070654 -3.779178,3.764582 -3.801002,3.764582 -0.05167,0 -0.358094,-0.522731 -0.579547,-0.988541 -0.397212,-0.83555 -0.668804,-1.756786 -0.805929,-2.735416 -0.05797,-0.413791 -0.05797,-1.838631 0,-2.25243 0.09734,-0.694697 0.263946,-1.372819 0.50031,-2.024479 0.153104,-0.42213 0.540348,-1.221378 0.742543,-1.532466 l 0.13583,-0.205381 0.708585,0.686111 c 0.389882,0.377615 0.951356,0.930102 1.247381,1.227778 0.296034,0.297675 0.552421,0.541667 0.570492,0.541667 0.05345,0 2.628329,-2.593593 2.628329,-2.647397 0,-0.02706 -1.160267,-1.210122 -2.578525,-2.629339 -2.49298,-2.494673 -2.58209,-2.578843 -2.653232,-2.534548 -0.144423,0.08993 -0.702137,0.556311 -1.03458,0.864409 -3.001568,2.781781 -4.494655,6.919735 -3.963999,10.982289 0.270802,2.073118 1.047428,4.05316 2.261586,5.764237 0.432343,0.609298 0.752255,0.983919 1.38774,1.618229 0.559302,0.558262 1.321208,1.221349 1.405849,1.223263 0.01777,3.96e-4 1.722463,-1.68936 3.787421,-3.755555 2.064946,-2.066194 3.77641,-3.757812 3.803266,-3.757812 0.02689,0 1.724889,1.676904 3.771573,3.726215 2.046683,2.049318 3.745762,3.741922 3.778366,3.760069 0.146917,0.08176 1.725731,-1.388276 2.399681,-2.234375 1.158572,-1.454525 1.994355,-3.159498 2.433638,-4.958506 0.434706,-1.780321 0.481725,-3.728656 0.131302,-5.486631 -0.528242,-2.650051 -1.869029,-5.051497 -3.848543,-6.892707 -0.331982,-0.308784 -0.974746,-0.8408 -1.054956,-0.873438 z m -7.611061,17.811804 c -0.02697,0 -1.023464,0.978122 -2.214044,2.175693 l -2.16424,2.177951 0.190163,0.07223 c 0.893795,0.336697 2.344945,0.622431 3.475009,0.683853 0.681595,0.037 0.706158,0.03547 1.349253,0 0.706248,-0.03886 1.200861,-0.10021 1.876732,-0.232464 0.499336,-0.09771 1.317526,-0.318013 1.679777,-0.453647 l 0.185635,-0.06997 -2.164241,-2.177952 c -1.19057,-1.197568 -2.187116,-2.17569 -2.214044,-2.17569 z"
       id="path2" />
    <path
       style="fill:#3485fd;stroke-width:0.578661"
       d="m -30.101012,38.024741 c 0.706246,-0.03886 1.201103,-0.100106 1.876973,-0.23236 0.499335,-0.09771 1.31648,-0.319029 1.678732,-0.454661 l 0.186087,-0.06965 -2.164682,-2.177398 c -1.19057,-1.197571 -2.186714,-2.177406 -2.213642,-2.177406 -0.02697,0 -1.023073,0.979835 -2.213652,2.177406 l -2.16468,2.177398 0.189785,0.07151 c 0.893796,0.336698 2.344655,0.622085 3.474719,0.683508 0.681595,0.037 0.707264,0.03709 1.35036,0.0016 z"
       id="path3" />
    <path
       style="fill:url(#linearGradient8);stroke-width:0.578661"
       d="m -34.540585,31.818894 c 2.064947,-2.066194 3.776427,-3.756721 3.803282,-3.756721 0.0269,0 1.723383,1.67672 3.770068,3.726031 2.046683,2.049318 3.747919,3.740878 3.780523,3.759024 0.146918,0.08176 1.724327,-1.38705 2.398275,-2.233149 1.158575,-1.454525 1.995607,-3.158898 2.434888,-4.957906 0.434709,-1.78032 0.481152,-3.730093 0.130729,-5.488068 -0.528241,-2.65005 -1.868517,-5.05042 -3.848032,-6.891631 -0.33198,-0.308785 -0.975838,-0.842084 -1.056046,-0.874722 -0.05281,-0.02149 -5.195074,5.111206 -5.195074,5.185423 0,0.05381 2.574545,2.646271 2.627997,2.646271 0.01824,0 0.260701,-0.22887 0.538762,-0.508588 0.278069,-0.279717 0.839262,-0.832235 1.2471,-1.227826 l 0.741522,-0.719246 0.134525,0.206976 c 0.331359,0.509807 0.757606,1.483284 0.958744,2.189597 0.247523,0.869196 0.328573,1.484058 0.328573,2.492782 0,0.859025 -0.02641,1.146684 -0.167339,1.823091 -0.152304,0.730993 -0.371553,1.386766 -0.681893,2.039558 -0.221454,0.46581 -0.527895,0.988413 -0.579577,0.988413 -0.02181,0 -1.732654,-1.694178 -3.801841,-3.764831 l -3.762145,-3.764833 -3.762155,3.764833 c -2.069178,2.070653 -3.780006,3.764831 -3.801831,3.764831 -0.05167,0 -0.358133,-0.522603 -0.579585,-0.988413 -0.397212,-0.83555 -0.66862,-1.757007 -0.805744,-2.735637 -0.05797,-0.413791 -0.05797,-1.840233 0,-2.254032 0.09734,-0.694698 0.265181,-1.371895 0.501547,-2.023555 0.153105,-0.422129 0.540087,-1.220709 0.742282,-1.531796 l 0.134525,-0.206968 0.708887,0.686585 c 0.389881,0.377614 0.951089,0.930142 1.247115,1.227818 0.296033,0.297676 0.553029,0.541241 0.571099,0.541241 0.05346,0 2.628281,-2.592167 2.628281,-2.645971 0,-0.02706 -1.16039,-1.21041 -2.578649,-2.629628 -2.492979,-2.494673 -2.581093,-2.578885 -2.652235,-2.534589 -0.144425,0.08993 -0.703251,0.556371 -1.035693,0.86447 -3.001569,2.781782 -4.495457,6.919818 -3.964802,10.982373 0.270802,2.073118 1.04748,4.052387 2.261637,5.763464 0.432344,0.609298 0.753958,0.98385 1.389441,1.618159 0.559302,0.558263 1.321423,1.221241 1.406065,1.223155 0.01776,3.96e-4 1.721815,-1.689791 3.786774,-3.755985 z"
       id="path4" />
    <path
       style="fill:#984ee5;stroke-width:0.578661"
       d="m -28.485096,15.631602 c 1.747428,-1.74938 2.193183,-2.212249 2.154345,-2.237067 -0.153176,-0.0979 -1.263223,-0.412725 -1.948742,-0.552688 -0.829339,-0.169314 -1.333397,-0.212995 -2.458051,-0.212995 -1.124654,0 -1.628712,0.04371 -2.458059,0.212995 -0.685512,0.139963 -1.795559,0.454783 -1.948736,0.552688 -0.03884,0.0248 0.406911,0.487687 2.154339,2.237067 1.211823,1.213172 2.225421,2.20577 2.252456,2.20577 0.02707,0 1.040634,-0.992598 2.252448,-2.20577 z"
       id="path5" />
    <path
       style="opacity:0.2;fill:#ffffff;stroke-width:0.578661"
       d="m -30.73775,12.628852 c -1.124653,0 -1.629193,0.04287 -2.458539,0.212153 -0.685512,0.139963 -1.795997,0.455046 -1.949175,0.552952 -0.01559,0.01 0.147947,0.188564 0.383722,0.435589 0.42297,-0.134741 1.089166,-0.313518 1.565453,-0.410763 0.829346,-0.169288 1.333886,-0.212153 2.458539,-0.212153 1.124654,0 1.629202,0.04284 2.458541,0.212153 0.47629,0.09725 1.142483,0.276022 1.565452,0.410763 0.235774,-0.247022 0.399314,-0.425625 0.383722,-0.435589 -0.153176,-0.09791 -1.263655,-0.412989 -1.949174,-0.552952 -0.829339,-0.169314 -1.333887,-0.212153 -2.458541,-0.212153 z m 7.611062,2.473611 c -0.05281,-0.02149 -5.195536,5.109983 -5.195534,5.184201 0,0.0058 0.164572,0.168269 0.280717,0.283246 0.747782,-0.802074 4.866615,-4.909282 4.914817,-4.889669 0.08021,0.03263 0.722972,0.564654 1.054954,0.873437 1.979514,1.841211 3.320302,4.242658 3.848544,6.892708 0.132572,0.665105 0.197441,1.358276 0.212801,2.058333 0.01749,-0.896053 -0.04382,-1.788314 -0.212801,-2.636111 -0.528242,-2.65005 -1.86903,-5.051497 -3.848544,-6.892707 -0.331982,-0.308784 -0.974745,-0.8408 -1.054954,-0.873438 z m -15.226651,0.01467 c -0.01411,-0.003 -0.0228,1.05e-4 -0.03169,0.0056 -0.144424,0.08993 -0.702138,0.556311 -1.03458,0.86441 -2.666691,2.471426 -4.118119,6.014019 -4.040971,9.622482 0.0814,-3.405956 1.516989,-6.705538 4.040971,-9.044705 0.332442,-0.308097 0.890156,-0.774476 1.03458,-0.864409 0.07114,-0.0443 0.160253,0.03987 2.653231,2.534549 1.261288,1.262141 2.074703,2.096582 2.29328,2.338194 0.118859,-0.117096 0.285244,-0.280801 0.285244,-0.286632 0,-0.02706 -1.160266,-1.210122 -2.578524,-2.62934 -2.181357,-2.182839 -2.522738,-2.519647 -2.621537,-2.540191 z m 7.615589,7.570919 -3.762518,3.764583 c -2.069178,2.070654 -3.779178,3.764583 -3.801002,3.764583 -0.05167,0 -0.358094,-0.522731 -0.579547,-0.988541 -0.397212,-0.83555 -0.668804,-1.756786 -0.805929,-2.735417 -0.01411,-0.100752 -0.01313,-0.357003 -0.02038,-0.548437 -0.01339,0.354106 -0.01471,0.747862 -0.0079,1.10026 0.0024,-0.178251 0.0018,-0.36029 0.0079,-0.522482 0.0072,0.191433 0.0063,0.447684 0.02038,0.548437 0.137125,0.978631 0.408717,1.899866 0.805929,2.735416 0.221453,0.465811 0.527869,0.988542 0.579547,0.988542 0.02183,0 1.731824,-1.69393 3.801002,-3.764583 l 3.762518,-3.764583 3.762518,3.764583 c 2.069187,2.070653 3.7792,3.764583 3.801004,3.764583 0.05168,0 0.358093,-0.522731 0.579545,-0.988542 0.310342,-0.652792 0.531378,-1.307026 0.683683,-2.03802 0.08751,-0.420023 0.122941,-0.73081 0.142622,-1.081076 0.0023,0.07235 0.0061,0.142709 0.01131,0.208767 0.0024,-0.128816 0.01131,-0.209923 0.01131,-0.373524 0,-0.160525 -0.01821,-0.26988 -0.02264,-0.413021 -0.01969,0.350266 -0.05511,0.661053 -0.142621,1.081076 -0.152305,0.730994 -0.373341,1.385228 -0.683683,2.038021 -0.221452,0.46581 -0.527864,0.988541 -0.579545,0.988541 -0.02181,0 -1.731817,-1.693929 -3.801004,-3.764583 z m 0,10.226215 c -0.02697,0 -1.023464,0.978122 -2.214044,2.175694 l -2.16424,2.177951 0.190163,0.07222 c 0.0698,0.02629 0.160318,0.04927 0.237705,0.07448 l 1.736372,-1.746874 c 1.19058,-1.197572 2.187072,-2.175694 2.214044,-2.175694 0.02692,0 1.023474,0.978122 2.214045,2.175694 l 1.727317,1.737846 c 0.08271,-0.0217 0.197105,-0.04742 0.251288,-0.06771 l 0.185635,-0.06997 -2.16424,-2.17795 c -1.190571,-1.197572 -2.187117,-2.175695 -2.214045,-2.175695 z"
       id="path6" />
  </g>
</svg>
