<?xml version="1.0" encoding="UTF-8" standalone="no"?>
<svg
   width="45.999886"
   height="45.999989"
   version="1.1"
   viewBox="0 0 12.170564 12.170591"
   id="svg12"
   sodipodi:docname="preferences-desktop-touchpad.svg"
   inkscape:version="1.3.2 (091e20ef0f, 2023-11-25)"
   xmlns:inkscape="http://www.inkscape.org/namespaces/inkscape"
   xmlns:sodipodi="http://sodipodi.sourceforge.net/DTD/sodipodi-0.dtd"
   xmlns:xlink="http://www.w3.org/1999/xlink"
   xmlns="http://www.w3.org/2000/svg"
   xmlns:svg="http://www.w3.org/2000/svg">
  <defs
     id="defs16">
    <linearGradient
       id="c"
       y1="523.79999"
       x1="403.57001"
       y2="536.79999"
       x2="416.57001"
       gradientUnits="userSpaceOnUse"
       gradientTransform="matrix(0.34526714,0,0,0.34526706,-134.80427,-174.63325)">
      <stop
         stop-color="#292c2f"
         id="stop1568" />
      <stop
         offset="1"
         stop-opacity="0"
         id="stop1570" />
    </linearGradient>
    <linearGradient
       xlink:href="#b-2"
       id="linearGradient4189"
       x1="14.369"
       y1="22.521999"
       x2="26.521999"
       y2="22.521999"
       gradientUnits="userSpaceOnUse" />
    <linearGradient
       x1="36"
       gradientUnits="userSpaceOnUse"
       x2="14"
       y2="12"
       y1="44"
       id="b-2">
      <stop
         style="stop-color:#bfc9c9;stop-opacity:1"
         stop-color="#536161"
         id="stop1579" />
      <stop
         style="stop-color:#fbfbfb;stop-opacity:1"
         stop-color="#f4f5f5"
         offset="1"
         id="stop1581" />
    </linearGradient>
    <linearGradient
       xlink:href="#b-2"
       id="linearGradient4428"
       gradientUnits="userSpaceOnUse"
       x1="31.586"
       y1="36.345001"
       x2="1.2029999"
       y2="6.723" />
    <linearGradient
       xlink:href="#b-2"
       id="linearGradient4189-3"
       x1="14.369"
       y1="22.521999"
       x2="26.521999"
       y2="22.521999"
       gradientUnits="userSpaceOnUse"
       gradientTransform="translate(20.841982,61.553822)" />
    <linearGradient
       xlink:href="#b-2"
       id="linearGradient4428-5"
       gradientUnits="userSpaceOnUse"
       x1="31.586"
       y1="36.345001"
       x2="1.2029999"
       y2="6.723"
       gradientTransform="translate(20.841982,61.553822)" />
    <linearGradient
       xlink:href="#b-2"
       id="linearGradient4189-3-3"
       x1="14.369"
       y1="22.521999"
       x2="26.521999"
       y2="22.521999"
       gradientUnits="userSpaceOnUse"
       gradientTransform="translate(4.376802,4.4211693)" />
    <linearGradient
       xlink:href="#b-2"
       id="linearGradient4428-5-5"
       gradientUnits="userSpaceOnUse"
       x1="31.586"
       y1="36.345001"
       x2="1.2029999"
       y2="6.723"
       gradientTransform="translate(4.376802,4.4211693)" />
    <linearGradient
       inkscape:collect="always"
       xlink:href="#linearGradient11"
       id="linearGradient13"
       x1="-43.819283"
       y1="23.120178"
       x2="-1.9547797"
       y2="23.120178"
       gradientUnits="userSpaceOnUse"
       gradientTransform="scale(0.26457813)" />
    <linearGradient
       id="linearGradient11"
       inkscape:collect="always">
      <stop
         style="stop-color:#9955ff;stop-opacity:0.65640396;"
         offset="0"
         id="stop4-3" />
      <stop
         style="stop-color:#00ccff;stop-opacity:1"
         offset="1"
         id="stop11" />
    </linearGradient>
    <linearGradient
       inkscape:collect="always"
       xlink:href="#linearGradient14"
       id="linearGradient15"
       x1="-9.6850061"
       y1="45.161198"
       x2="11.98815"
       y2="21.735205"
       gradientUnits="userSpaceOnUse"
       gradientTransform="scale(0.26457813)" />
    <linearGradient
       id="linearGradient14"
       inkscape:collect="always">
      <stop
         style="stop-color:#9955ff;stop-opacity:0.45197046;"
         offset="0"
         id="stop12" />
      <stop
         style="stop-color:#00ccff;stop-opacity:1"
         offset="1"
         id="stop13" />
    </linearGradient>
    <linearGradient
       id="paint3_linear"
       x1="69.25"
       y1="28.75"
       x2="75.501099"
       y2="35.5"
       gradientUnits="userSpaceOnUse"
       gradientTransform="matrix(0.642,0,0,0.642,-67.471,-33.235)">
      <stop
         id="stop67"
         offset="0"
         style="stop-color:#4c4c4c;stop-opacity:1;" />
      <stop
         offset="1"
         stop-opacity="0"
         id="stop69"
         style="stop-color:#151515;stop-opacity:0;" />
    </linearGradient>
    <linearGradient
       id="linearGradient1846"
       x1="6.3793998"
       x2="3.302"
       y1="5.6676998"
       y2="8.5085001"
       gradientUnits="userSpaceOnUse"
       gradientTransform="matrix(2.1267812,0,0,2.1267812,-107.5877,-15.225293)">
      <stop
         stop-color="#ebcb8b"
         offset="0"
         id="stop900" />
      <stop
         stop-color="#eac57b"
         offset="1"
         id="stop902" />
    </linearGradient>
    <linearGradient
       id="linearGradient1988"
       x1="13.211"
       x2="8.7244997"
       y1="8.5588999"
       y2="14.014"
       gradientUnits="userSpaceOnUse"
       gradientTransform="matrix(2.1267812,0,0,2.1267812,-107.5877,-15.225293)">
      <stop
         stop-color="#eceff4"
         offset="0"
         id="stop905" />
      <stop
         stop-color="#d8dee9"
         offset="1"
         id="stop907" />
    </linearGradient>
    <linearGradient
       id="c-3"
       gradientUnits="userSpaceOnUse"
       x1="11"
       x2="11"
       y1="19"
       y2="16"
       gradientTransform="scale(0.26457814)">
      <stop
         offset="0"
         stop-color="#253440"
         id="stop5" />
      <stop
         offset="1"
         stop-color="#566069"
         stop-opacity=".463277"
         id="stop6" />
    </linearGradient>
    <linearGradient
       id="d"
       gradientUnits="userSpaceOnUse"
       x1="26.505466"
       x2="18.505466"
       y1="28.039528"
       y2="18.039528"
       gradientTransform="matrix(0.26457813,0,0,0.26457813,1.0434238,1.5727823)">
      <stop
         offset="0"
         stop-color="#197cf1"
         id="stop7" />
      <stop
         offset="1"
         stop-color="#21c9fb"
         id="stop8" />
    </linearGradient>
  </defs>
  <sodipodi:namedview
     id="namedview14"
     pagecolor="#000000"
     bordercolor="#666666"
     borderopacity="1.0"
     inkscape:showpageshadow="2"
     inkscape:pageopacity="0.0"
     inkscape:pagecheckerboard="0"
     inkscape:deskcolor="#d1d1d1"
     showgrid="false"
     inkscape:zoom="3.6875"
     inkscape:cx="6.779661"
     inkscape:cy="29.016949"
     inkscape:window-width="1920"
     inkscape:window-height="996"
     inkscape:window-x="0"
     inkscape:window-y="0"
     inkscape:window-maximized="1"
     inkscape:current-layer="svg12">
    <inkscape:grid
       type="xygrid"
       id="grid244"
       originx="9.7893915"
       originy="-31.749373"
       spacingy="1"
       spacingx="1"
       units="px"
       visible="false" />
  </sodipodi:namedview>
  <rect
     x="-12.025727"
     y="0.1490714"
     width="11.940627"
     height="11.936014"
     rx="1.6121091"
     stroke="url(#paint4_linear_77:23)"
     shape-rendering="crispEdges"
     id="rect5-6-7-3"
     ry="1.7735944"
     transform="matrix(0.00523883,-0.99998628,0.999988,0.00489859,0,0)"
     style="fill:#80b3ff;fill-opacity:0.15;stroke:url(#linearGradient13);stroke-width:0.188987;stroke-opacity:1" />
  <rect
     x="-3.7266586"
     y="4.6446943"
     width="7.912631"
     height="7.912384"
     rx="1.612043"
     shape-rendering="crispEdges"
     id="rect5-6-6-6-6"
     style="fill:#80b3ff;fill-opacity:0.122146;stroke:url(#linearGradient15);stroke-width:0.188987;stroke-opacity:1"
     ry="1.7735215"
     transform="matrix(0.72612649,-0.68756114,0.6879775,0.72573202,0,0)" />
  <g
     id="g1"
     transform="translate(-1.0434238,-1.5727823)">
    <path
       d="m 6.4300498,4.745273 c -0.8589497,0 -1.55527,0.6963201 -1.55527,1.5552692 0.00114,0.4204005 0.1710821,0.8110332 0.4556454,1.0955743 l 0.3402153,0.3402146 0.026325,0.026335 c 0.1605246,0.160556 0.3576104,0.2874822 0.5812012,0.3665414 V 7.5652118 L 5.9116265,7.1986703 c -0.0028,-0.00161 -0.00533,-0.00333 -0.00811,-0.00509 C 5.8110214,7.0366251 5.7596979,6.8555381 5.7597332,6.6670524 c 0,-0.5726348 0.4642169,-1.0368462 1.0368465,-1.0368462 0.192295,0 0.3721612,0.052572 0.5265238,0.1437833 0.091223,0.1543642 0.1437833,0.3342363 0.1437833,0.5265253 -8.814e-4,0.051592 -0.00568,0.103027 -0.014167,0.1539135 l 0.3665418,0.3665415 0.4434948,0.354391 c 0.057803,-0.1632992 0.087912,-0.3350886 0.089103,-0.5082986 0,-0.4294766 -0.1741936,-0.8181773 -0.4556453,-1.0996245 L 7.8698902,5.5411323 7.5296749,5.2009178 C 7.2482224,4.9194706 6.8595117,4.745273 6.4300498,4.745273 Z m 0,1.5552692 v 3.369752 L 6.7965911,10.036836 7.5742261,9.1295943 7.7038321,8.740776 H 9.3887079 L 9.0221666,8.3742365 Z"
       opacity="0.2"
       id="path14"
       style="stroke-width:0.264578" />
    <path
       d="m 6.4300498,4.745273 c -0.8589519,0 -1.55527,0.6963181 -1.55527,1.5552692 0.00178,0.6575527 0.4168972,1.2429336 1.0368467,1.4621158 V 7.1986703 C 5.5907655,7.0134254 5.3931345,6.6710398 5.3932031,6.3005422 c 0,-0.5726347 0.4642122,-1.0368461 1.0368467,-1.0368461 0.5726344,0 1.0368468,0.4642114 1.0368468,1.0368461 -8.814e-4,0.051592 -0.00562,0.1030271 -0.014167,0.1539136 l 0.443488,0.3543851 c 0.057796,-0.1632796 0.087914,-0.3350867 0.089101,-0.5082987 0,-0.8589511 -0.6963183,-1.5552692 -1.5552688,-1.5552692 z m 0,1.5552692 v 3.369752 L 7.2076848,8.7630528 7.3372916,8.3742365 h 1.684876 z"
       fill="url(#d)"
       id="path15"
       style="fill:url(#d);stroke-width:0.264578" />
  </g>
  <path
     d="m 0.3823154,11.044931 0.0529156,0.114336 c -0.02096,0.07926 0.53046185,0.787679 1.4385113,0.787187 l 3.6546178,0.0045 v -0.906067 z m 6.1178402,0 0,0.932521 h 3.9049084 c 0.712584,-0.02064 1.434801,-0.737767 1.413587,-0.92697 l 0.0085,-0.0056 z"
     style="opacity:0.656733;fill:#ffffff;fill-rule:evenodd;stroke-width:0.264579;stroke-linecap:round;stroke-linejoin:round;paint-order:stroke fill markers"
     id="path6"
     sodipodi:nodetypes="cccccccccccc" />
</svg>
