<?xml version="1.0" encoding="UTF-8" standalone="no"?>
<svg
   width="45.999886"
   height="45.999989"
   version="1.1"
   viewBox="0 0 12.170564 12.170591"
   id="svg12"
   sodipodi:docname="network-rj11-female.svg"
   inkscape:version="1.3.2 (091e20ef0f, 2023-11-25)"
   xmlns:inkscape="http://www.inkscape.org/namespaces/inkscape"
   xmlns:sodipodi="http://sodipodi.sourceforge.net/DTD/sodipodi-0.dtd"
   xmlns:xlink="http://www.w3.org/1999/xlink"
   xmlns="http://www.w3.org/2000/svg"
   xmlns:svg="http://www.w3.org/2000/svg">
  <defs
     id="defs16">
    <linearGradient
       id="c"
       y1="523.79999"
       x1="403.57001"
       y2="536.79999"
       x2="416.57001"
       gradientUnits="userSpaceOnUse"
       gradientTransform="matrix(0.34526714,0,0,0.34526706,-134.80427,-174.63325)">
      <stop
         stop-color="#292c2f"
         id="stop1568" />
      <stop
         offset="1"
         stop-opacity="0"
         id="stop1570" />
    </linearGradient>
    <linearGradient
       xlink:href="#b-2"
       id="linearGradient4189"
       x1="14.369"
       y1="22.521999"
       x2="26.521999"
       y2="22.521999"
       gradientUnits="userSpaceOnUse" />
    <linearGradient
       x1="36"
       gradientUnits="userSpaceOnUse"
       x2="14"
       y2="12"
       y1="44"
       id="b-2">
      <stop
         style="stop-color:#bfc9c9;stop-opacity:1"
         stop-color="#536161"
         id="stop1579" />
      <stop
         style="stop-color:#fbfbfb;stop-opacity:1"
         stop-color="#f4f5f5"
         offset="1"
         id="stop1581" />
    </linearGradient>
    <linearGradient
       xlink:href="#b-2"
       id="linearGradient4428"
       gradientUnits="userSpaceOnUse"
       x1="31.586"
       y1="36.345001"
       x2="1.2029999"
       y2="6.723" />
    <linearGradient
       xlink:href="#b-2"
       id="linearGradient4189-3"
       x1="14.369"
       y1="22.521999"
       x2="26.521999"
       y2="22.521999"
       gradientUnits="userSpaceOnUse"
       gradientTransform="translate(20.841982,61.553822)" />
    <linearGradient
       xlink:href="#b-2"
       id="linearGradient4428-5"
       gradientUnits="userSpaceOnUse"
       x1="31.586"
       y1="36.345001"
       x2="1.2029999"
       y2="6.723"
       gradientTransform="translate(20.841982,61.553822)" />
    <linearGradient
       xlink:href="#b-2"
       id="linearGradient4189-3-3"
       x1="14.369"
       y1="22.521999"
       x2="26.521999"
       y2="22.521999"
       gradientUnits="userSpaceOnUse"
       gradientTransform="translate(4.376802,4.4211693)" />
    <linearGradient
       xlink:href="#b-2"
       id="linearGradient4428-5-5"
       gradientUnits="userSpaceOnUse"
       x1="31.586"
       y1="36.345001"
       x2="1.2029999"
       y2="6.723"
       gradientTransform="translate(4.376802,4.4211693)" />
    <linearGradient
       inkscape:collect="always"
       xlink:href="#linearGradient11"
       id="linearGradient13"
       x1="-43.819283"
       y1="23.120178"
       x2="-1.9547797"
       y2="23.120178"
       gradientUnits="userSpaceOnUse"
       gradientTransform="scale(0.26457813)" />
    <linearGradient
       id="linearGradient11"
       inkscape:collect="always">
      <stop
         style="stop-color:#9955ff;stop-opacity:0.65640396;"
         offset="0"
         id="stop4-3" />
      <stop
         style="stop-color:#00ccff;stop-opacity:1"
         offset="1"
         id="stop11" />
    </linearGradient>
    <linearGradient
       inkscape:collect="always"
       xlink:href="#linearGradient14"
       id="linearGradient15"
       x1="-9.6850061"
       y1="45.161198"
       x2="11.98815"
       y2="21.735205"
       gradientUnits="userSpaceOnUse"
       gradientTransform="scale(0.26457813)" />
    <linearGradient
       id="linearGradient14"
       inkscape:collect="always">
      <stop
         style="stop-color:#9955ff;stop-opacity:0.45197046;"
         offset="0"
         id="stop12" />
      <stop
         style="stop-color:#00ccff;stop-opacity:1"
         offset="1"
         id="stop13" />
    </linearGradient>
  </defs>
  <sodipodi:namedview
     id="namedview14"
     pagecolor="#000000"
     bordercolor="#666666"
     borderopacity="1.0"
     inkscape:showpageshadow="2"
     inkscape:pageopacity="0.0"
     inkscape:pagecheckerboard="0"
     inkscape:deskcolor="#d1d1d1"
     showgrid="false"
     inkscape:zoom="5.2149125"
     inkscape:cx="23.20269"
     inkscape:cy="53.692176"
     inkscape:window-width="1920"
     inkscape:window-height="996"
     inkscape:window-x="0"
     inkscape:window-y="0"
     inkscape:window-maximized="1"
     inkscape:current-layer="svg12">
    <inkscape:grid
       type="xygrid"
       id="grid244"
       originx="9.7893915"
       originy="-31.749373"
       spacingy="1"
       spacingx="1"
       units="px"
       visible="false" />
  </sodipodi:namedview>
  <rect
     x="-12.025727"
     y="0.1490714"
     width="11.940627"
     height="11.936014"
     rx="1.6121091"
     stroke="url(#paint4_linear_77:23)"
     shape-rendering="crispEdges"
     id="rect5-6-7-3"
     ry="1.7735944"
     transform="matrix(0.00523883,-0.99998628,0.999988,0.00489859,0,0)"
     style="fill:#80b3ff;fill-opacity:0.15;stroke:url(#linearGradient13);stroke-width:0.188987;stroke-opacity:1" />
  <rect
     x="-3.7266586"
     y="4.6446943"
     width="7.912631"
     height="7.912384"
     rx="1.612043"
     shape-rendering="crispEdges"
     id="rect5-6-6-6-6"
     style="fill:#80b3ff;fill-opacity:0.122146;stroke:url(#linearGradient15);stroke-width:0.188987;stroke-opacity:1"
     ry="1.7735215"
     transform="matrix(0.72612649,-0.68756114,0.6879775,0.72573202,0,0)" />
  <path
     id="rect6007-7-5"
     d="m 3.7279058,8.5987897 c -0.1465762,0 -0.2645781,-0.118002 -0.2645781,-0.264578 v -0.529157 c -0.1465763,0 -0.2645781,-0.118001 -0.2645781,-0.264578 v -0.264578 c 0,-0.146576 0.1180018,-0.264578 0.2645781,-0.264578 v -0.793734 c -0.1465763,0 -0.2645781,-0.118002 -0.2645781,-0.264578 v -0.264579 c 0,-0.146576 0.1180018,-0.264578 0.2645781,-0.264578 v -1.058312 c 0,-0.146577 0.1180019,-0.264578 0.2645781,-0.264578 h 1.0583126 v -0.264578 c 0,-0.146577 0.1180023,-0.264579 0.2645781,-0.264579 h 0.5291562 c 0,-0.146576 0.1180019,-0.264578 0.2645782,-0.264578 h 0.5291562 c 0.1465763,0 0.2645782,0.118002 0.2645782,0.264578 h 0.5291562 c 0.1465758,0 0.2645782,0.118002 0.2645782,0.264579 v 0.264578 h 1.0583125 c 0.1465763,0 0.2645781,0.118001 0.2645781,0.264578 v 1.058312 c 0.1465763,0 0.2645781,0.118002 0.2645781,0.264578 v 0.264579 c 0,0.146576 -0.1180018,0.264578 -0.2645781,0.264578 v 0.793734 c 0.1465763,0 0.2645781,0.118002 0.2645781,0.264578 v 0.264578 c 0,0.146577 -0.1180018,0.264578 -0.2645781,0.264578 v 0.529157 c 0,0.146576 -0.1180018,0.264578 -0.2645781,0.264578 z"
     style="fill:#878fab;fill-opacity:1;stroke:none;stroke-width:0.264578;stroke-linecap:round;stroke-linejoin:bevel;stroke-miterlimit:4;stroke-dasharray:none;stroke-opacity:1"
     inkscape:connector-curvature="0" />
  <path
     style="fill:#ffd84d;fill-opacity:1;stroke:none;stroke-width:0.529156;stroke-linecap:round;stroke-linejoin:round;stroke-miterlimit:4;stroke-dasharray:none;stroke-opacity:1"
     d="m 4.5216402,6.7467427 c -0.1465763,0 -0.2645781,0.118002 -0.2645781,0.264578 v 1.322891 h 0.5291563 v -1.322891 c 0,-0.146576 -0.1180019,-0.264578 -0.2645782,-0.264578 z m 1.0583125,0 c -0.1465762,0 -0.2645781,0.118002 -0.2645781,0.264578 v 1.322891 h 0.5291563 v -1.322891 c 0,-0.146576 -0.1180019,-0.264578 -0.2645782,-0.264578 z m 1.0583126,0 c -0.1465763,0 -0.2645782,0.118002 -0.2645782,0.264578 v 1.322891 h 0.5291563 v -1.322891 c 0,-0.146576 -0.1180018,-0.264578 -0.2645781,-0.264578 z m 1.0583125,0 c -0.1465763,0 -0.2645781,0.118002 -0.2645781,0.264578 v 1.322891 h 0.5291562 v -1.322891 c 0,-0.146576 -0.1180018,-0.264578 -0.2645781,-0.264578 z"
     id="path837"
     inkscape:connector-curvature="0" />
</svg>
