<?xml version="1.0" encoding="UTF-8" standalone="no"?>
<svg
   width="45.999886"
   height="45.999989"
   version="1.1"
   viewBox="0 0 12.170564 12.170591"
   id="svg12"
   sodipodi:docname="preferences-system-windows-effect-startupfeedback.svg"
   inkscape:version="1.3.2 (091e20ef0f, 2023-11-25)"
   xmlns:inkscape="http://www.inkscape.org/namespaces/inkscape"
   xmlns:sodipodi="http://sodipodi.sourceforge.net/DTD/sodipodi-0.dtd"
   xmlns:xlink="http://www.w3.org/1999/xlink"
   xmlns="http://www.w3.org/2000/svg"
   xmlns:svg="http://www.w3.org/2000/svg">
  <defs
     id="defs16">
    <linearGradient
       id="c"
       y1="523.79999"
       x1="403.57001"
       y2="536.79999"
       x2="416.57001"
       gradientUnits="userSpaceOnUse"
       gradientTransform="matrix(0.34526714,0,0,0.34526706,-134.80427,-174.63325)">
      <stop
         stop-color="#292c2f"
         id="stop1568" />
      <stop
         offset="1"
         stop-opacity="0"
         id="stop1570" />
    </linearGradient>
    <linearGradient
       xlink:href="#b-2"
       id="linearGradient4189"
       x1="14.369"
       y1="22.521999"
       x2="26.521999"
       y2="22.521999"
       gradientUnits="userSpaceOnUse" />
    <linearGradient
       x1="36"
       gradientUnits="userSpaceOnUse"
       x2="14"
       y2="12"
       y1="44"
       id="b-2">
      <stop
         style="stop-color:#bfc9c9;stop-opacity:1"
         stop-color="#536161"
         id="stop1579" />
      <stop
         style="stop-color:#fbfbfb;stop-opacity:1"
         stop-color="#f4f5f5"
         offset="1"
         id="stop1581" />
    </linearGradient>
    <linearGradient
       xlink:href="#b-2"
       id="linearGradient4428"
       gradientUnits="userSpaceOnUse"
       x1="31.586"
       y1="36.345001"
       x2="1.2029999"
       y2="6.723" />
    <linearGradient
       xlink:href="#b-2"
       id="linearGradient4189-3"
       x1="14.369"
       y1="22.521999"
       x2="26.521999"
       y2="22.521999"
       gradientUnits="userSpaceOnUse"
       gradientTransform="translate(20.841982,61.553822)" />
    <linearGradient
       xlink:href="#b-2"
       id="linearGradient4428-5"
       gradientUnits="userSpaceOnUse"
       x1="31.586"
       y1="36.345001"
       x2="1.2029999"
       y2="6.723"
       gradientTransform="translate(20.841982,61.553822)" />
    <linearGradient
       xlink:href="#b-2"
       id="linearGradient4189-3-3"
       x1="14.369"
       y1="22.521999"
       x2="26.521999"
       y2="22.521999"
       gradientUnits="userSpaceOnUse"
       gradientTransform="translate(4.376802,4.4211693)" />
    <linearGradient
       xlink:href="#b-2"
       id="linearGradient4428-5-5"
       gradientUnits="userSpaceOnUse"
       x1="31.586"
       y1="36.345001"
       x2="1.2029999"
       y2="6.723"
       gradientTransform="translate(4.376802,4.4211693)" />
    <linearGradient
       inkscape:collect="always"
       xlink:href="#linearGradient11"
       id="linearGradient13"
       x1="-43.819283"
       y1="23.120178"
       x2="-1.9547797"
       y2="23.120178"
       gradientUnits="userSpaceOnUse"
       gradientTransform="scale(0.26457813)" />
    <linearGradient
       id="linearGradient11"
       inkscape:collect="always">
      <stop
         style="stop-color:#5599ff;stop-opacity:1"
         offset="0"
         id="stop4-3" />
      <stop
         style="stop-color:#00ccff;stop-opacity:1"
         offset="1"
         id="stop11" />
    </linearGradient>
    <linearGradient
       inkscape:collect="always"
       xlink:href="#linearGradient14"
       id="linearGradient15"
       x1="-9.6850061"
       y1="45.161198"
       x2="11.98815"
       y2="21.735205"
       gradientUnits="userSpaceOnUse"
       gradientTransform="scale(0.26457813)" />
    <linearGradient
       id="linearGradient14"
       inkscape:collect="always">
      <stop
         style="stop-color:#80b3ff;stop-opacity:1"
         offset="0"
         id="stop12" />
      <stop
         style="stop-color:#00ccff;stop-opacity:1"
         offset="1"
         id="stop13" />
    </linearGradient>
    <filter
       id="filter2917-3"
       x="-0.96181147"
       y="-0.66745996"
       width="2.9236229"
       height="2.3349199"
       color-interpolation-filters="sRGB">
      <feGaussianBlur
         stdDeviation="0.2871969"
         id="feGaussianBlur732-5" />
    </filter>
    <filter
       id="filter1"
       x="-0.96181148"
       y="-0.66745996"
       width="2.9236228"
       height="2.3349199"
       color-interpolation-filters="sRGB">
      <feGaussianBlur
         stdDeviation="0.2871969"
         id="feGaussianBlur1" />
    </filter>
    <filter
       id="filter2"
       x="-0.96181148"
       y="-0.66745996"
       width="2.9236228"
       height="2.3349199"
       color-interpolation-filters="sRGB">
      <feGaussianBlur
         stdDeviation="0.2871969"
         id="feGaussianBlur2" />
    </filter>
    <linearGradient
       id="l"
       x1="27.447001"
       x2="25.966"
       y1="289.76001"
       y2="289.76001"
       gradientTransform="matrix(0.94283,0,0,0.9628,-16.618,11.67)"
       gradientUnits="userSpaceOnUse">
      <stop
         stop-color="#1881ce"
         offset="0"
         id="stop19" />
      <stop
         stop-color="#2980b9"
         offset="1"
         id="stop21" />
    </linearGradient>
    <linearGradient
       id="j"
       x1="10.692"
       x2="34.026001"
       y1="14.134"
       y2="29.068001"
       gradientTransform="matrix(0.24946,0,0,0.25474,0.77251,285.56)"
       gradientUnits="userSpaceOnUse">
      <stop
         stop-color="#349cd2"
         offset="0"
         id="stop7" />
      <stop
         stop-color="#2694d9"
         offset=".74017"
         id="stop9" />
      <stop
         stop-color="#0e6daa"
         offset="1"
         id="stop11-3" />
    </linearGradient>
    <linearGradient
       id="k"
       x1="21.274"
       x2="27.447001"
       y1="291.29999"
       y2="287.35001"
       gradientTransform="matrix(0.94283,0,0,0.9628,-16.618,11.67)"
       gradientUnits="userSpaceOnUse">
      <stop
         stop-color="#1d99f3"
         offset="0"
         id="stop14" />
      <stop
         stop-color="#3daee9"
         offset="1"
         id="stop16" />
    </linearGradient>
    <linearGradient
       id="a"
       y1="61.200001"
       x1="-162.28999"
       y2="505.06"
       gradientUnits="userSpaceOnUse"
       x2="737.63"
       gradientTransform="matrix(0.06535,0.02041,-0.01819,0.05824,8.418,-1.328)">
      <stop
         stop-color="#fafafa"
         id="stop2-3" />
      <stop
         offset="1"
         stop-color="#939393"
         id="stop4" />
    </linearGradient>
    <linearGradient
       id="k-6"
       x1="12.950614"
       x2="7.7056513"
       y1="8.3288479"
       y2="8.2809086"
       gradientTransform="matrix(0.940734,0,0,2.116625,-5.1725024,-11.641438)"
       gradientUnits="userSpaceOnUse">
      <stop
         stop-color="#a1daff"
         offset="0"
         id="stop1" />
      <stop
         stop-color="#abebf9"
         stop-opacity="0"
         offset="1"
         id="stop2" />
    </linearGradient>
    <linearGradient
       id="linearGradient740"
       gradientUnits="userSpaceOnUse"
       x1="13.820312"
       x2="11"
       y1="14.820312"
       y2="12">
      <stop
         offset="0"
         stop-color="#197cf1"
         id="stop222-7" />
      <stop
         offset="1"
         stop-color="#20bcfa"
         stop-opacity="0"
         id="stop224-5" />
    </linearGradient>
    <linearGradient
       id="linearGradient744"
       gradientUnits="userSpaceOnUse"
       x1="7"
       x2="9"
       y1="16"
       y2="8">
      <stop
         offset="0"
         stop-color="#197cf1"
         id="stop217-3" />
      <stop
         offset="1"
         stop-color="#20bcfa"
         id="stop219-5" />
    </linearGradient>
    <linearGradient
       id="e"
       gradientUnits="userSpaceOnUse"
       x1="5.3750029"
       x2="14.75002"
       y1="7.0000119"
       y2="16.37501">
      <stop
         offset="0"
         id="stop233" />
      <stop
         offset="1"
         stop-opacity="0"
         id="stop235" />
    </linearGradient>
    <linearGradient
       inkscape:collect="always"
       xlink:href="#linearGradient4458"
       id="linearGradient1"
       gradientUnits="userSpaceOnUse"
       gradientTransform="matrix(-1.2333324,0,0,-1.2333324,73.879133,66.918216)"
       x1="6"
       y1="3"
       x2="40"
       y2="37" />
    <linearGradient
       id="linearGradient4458"
       inkscape:collect="always">
      <stop
         id="stop10698"
         stop-color="#95a5a6" />
      <stop
         id="stop10700"
         stop-color="#eff0f1"
         offset="1" />
    </linearGradient>
    <linearGradient
       gradientTransform="matrix(1.2333324,0,0,1.2333324,88.681471,45.516705)"
       gradientUnits="userSpaceOnUse"
       x2="-14.393877"
       x1="-44.393879"
       id="linearGradient4464-4-2"
       xlink:href="#linearGradient4458"
       inkscape:collect="always" />
    <linearGradient
       gradientUnits="userSpaceOnUse"
       y2="28.908207"
       x2="22.76796"
       y1="1.8987901"
       x1="-3.5440512"
       id="linearGradient4604-6-3"
       xlink:href="#linearGradient4227-9"
       inkscape:collect="always"
       gradientTransform="matrix(1.2333324,0,0,1.2333324,14.679187,7.7182619)" />
    <linearGradient
       inkscape:collect="always"
       id="linearGradient4227-9">
      <stop
         id="stop6540"
         stop-color="#292c2f" />
      <stop
         id="stop6542"
         stop-opacity="0"
         offset="1" />
    </linearGradient>
    <linearGradient
       gradientTransform="matrix(1.1452363,0,0,1.1452363,-414.46979,-571.71607)"
       inkscape:collect="always"
       xlink:href="#linearGradient4143"
       id="linearGradient4149-8-6"
       y1="545.79797"
       x2="0"
       y2="517.79797"
       gradientUnits="userSpaceOnUse" />
    <linearGradient
       inkscape:collect="always"
       id="linearGradient4143">
      <stop
         id="stop10732"
         stop-color="#197cf1" />
      <stop
         id="stop10734"
         stop-color="#20bcfa"
         offset="1" />
    </linearGradient>
    <linearGradient
       gradientUnits="userSpaceOnUse"
       y2="543.79797"
       x2="0"
       y1="503.798"
       id="linearGradient4305-6-1"
       xlink:href="#linearGradient4299"
       inkscape:collect="always"
       gradientTransform="matrix(0.80166614,0,0,0.80166614,-283.25873,-382.59291)" />
    <linearGradient
       id="linearGradient4299"
       inkscape:collect="always">
      <stop
         id="stop10726"
         stop-color="#abf9c7" />
      <stop
         id="stop10728"
         stop-color="#54d883"
         offset="1" />
    </linearGradient>
    <linearGradient
       inkscape:collect="always"
       xlink:href="#linearGradient4458"
       id="linearGradient2"
       gradientUnits="userSpaceOnUse"
       gradientTransform="matrix(-1.2333324,0,0,-1.2333324,73.879133,74.453862)"
       x1="24.829988"
       y1="25.084555"
       x2="55.110485"
       y2="55.365051" />
    <linearGradient
       inkscape:collect="always"
       xlink:href="#linearGradient4458"
       id="linearGradient3"
       gradientUnits="userSpaceOnUse"
       gradientTransform="matrix(-1.2333324,0,0,-1.2333324,73.879133,71.104682)"
       x1="24.829988"
       y1="23.224802"
       x2="56.505299"
       y2="53.970234" />
  </defs>
  <sodipodi:namedview
     id="namedview14"
     pagecolor="#000000"
     bordercolor="#666666"
     borderopacity="1.0"
     inkscape:showpageshadow="2"
     inkscape:pageopacity="0.0"
     inkscape:pagecheckerboard="0"
     inkscape:deskcolor="#d1d1d1"
     showgrid="false"
     inkscape:zoom="10.429825"
     inkscape:cx="25.216147"
     inkscape:cy="30.96888"
     inkscape:window-width="1920"
     inkscape:window-height="996"
     inkscape:window-x="0"
     inkscape:window-y="0"
     inkscape:window-maximized="1"
     inkscape:current-layer="svg12">
    <inkscape:grid
       type="xygrid"
       id="grid244"
       originx="9.7893915"
       originy="-31.749373"
       spacingy="1"
       spacingx="1"
       units="px"
       visible="false" />
  </sodipodi:namedview>
  <rect
     x="-12.025727"
     y="0.1490714"
     width="11.940627"
     height="11.936014"
     rx="1.6121091"
     stroke="url(#paint4_linear_77:23)"
     shape-rendering="crispEdges"
     id="rect5-6-7-3"
     ry="1.7735944"
     transform="matrix(0.00523883,-0.99998628,0.999988,0.00489859,0,0)"
     style="fill:#80b3ff;fill-opacity:0.15;stroke:url(#linearGradient13);stroke-width:0.188987;stroke-opacity:1" />
  <rect
     x="-3.7266586"
     y="4.6446943"
     width="7.912631"
     height="7.912384"
     rx="1.612043"
     shape-rendering="crispEdges"
     id="rect5-6-6-6-6"
     style="fill:#80b3ff;fill-opacity:0.122146;stroke:url(#linearGradient15);stroke-width:0.188987;stroke-opacity:1"
     ry="1.7735215"
     transform="matrix(0.72612649,-0.68756114,0.6879775,0.72573202,0,0)" />
  <g
     id="g10738-8-8-3-8-0-3-9"
     inkscape:label="Layer 1"
     transform="matrix(0.08847728,0,0,0.08847728,5.2926666,5.391892)"
     style="stroke-width:1.23335">
    <path
       id="path10742-8-3-6-3-0-80-2"
       inkscape:connector-curvature="0"
       d="m 27.167969,43.736328 c 1.352286,-0.215111 2.678906,-0.568528 3.958984,-1.054688 l -0.34375,-3.117187 c 1.170276,-0.509278 2.279478,-1.148724 3.306641,-1.90625 l 2.521484,1.851562 c 1.06238,-0.865659 2.032974,-1.838216 2.896484,-2.902343 l -1.849609,-2.517578 c 0.762159,-1.025893 1.406202,-2.13446 1.919922,-3.304688 L 42.664062,31.125 c 0.488416,-1.28112 0.8438,-2.609067 1.060547,-3.962891 L 40.882812,25.914062 C 40.957857,25.278754 40.996982,24.639717 41,24 40.9929,23.362017 40.94984,22.724942 40.871094,22.091797 l 2.865234,-1.259766 C 43.521217,19.479745 43.1678,18.153125 42.68164,16.873047 l -3.117187,0.34375 c -0.509278,-1.170276 -1.148724,-2.279478 -1.90625,-3.306641 l 1.851562,-2.521484 C 38.644106,10.326292 37.671549,9.355698 36.607422,8.4921879 L 34.089844,10.341797 C 33.063951,9.5796379 31.955384,8.9355948 30.785156,8.4218749 L 31.125,5.3359379 C 29.84388,4.8475223 28.515933,4.4921376 27.162109,4.2753909 l -1.248047,2.841797 C 25.278754,7.0421425 24.639717,7.0030176 24,6.9999999 c -0.637983,0.00713 -1.275058,0.050163 -1.908203,0.128906 l -1.259766,-2.865234 c -1.352286,0.2151106 -2.678906,0.5685269 -3.958984,1.054687 l 0.34375,3.117188 C 16.046521,8.9448248 14.937319,9.5842706 13.910156,10.341797 L 11.388672,8.4902339 c -1.06238,0.865659 -2.0329741,1.8382171 -2.8964841,2.9023441 l 1.8496091,2.517578 c -0.7621591,1.025893 -1.4062022,2.13446 -1.9199221,3.304688 L 5.3359379,16.875 c -0.4884156,1.28112 -0.8438003,2.609067 -1.060547,3.962891 l 2.841797,1.248047 C 7.0421425,22.721246 7.0030176,23.360283 6.9999999,24 c 0.00713,0.637983 0.050163,1.275058 0.128906,1.908203 l -2.865234,1.259766 c 0.2151106,1.352286 0.5685269,2.678906 1.054687,3.958984 l 3.117188,-0.34375 c 0.5092779,1.170276 1.1487237,2.279478 1.9062501,3.306641 l -1.8515631,2.521484 c 0.865659,1.06238 1.8382171,2.032974 2.9023441,2.896484 l 2.517578,-1.849609 c 1.025893,0.762159 2.13446,1.406202 3.304688,1.919922 L 16.875,42.664062 c 1.28112,0.488416 2.609067,0.8438 3.962891,1.060547 l 1.248047,-2.841797 C 22.721246,40.957857 23.360283,40.996982 24,41 c 0.637983,-0.0071 1.275058,-0.05016 1.908203,-0.128906 z"
       style="color:#000000;fill:url(#linearGradient2);stroke-width:3.70003;stroke-linecap:round;stroke-linejoin:round"
       sodipodi:nodetypes="ccccccccccccccccccccccccccccccccccccccccccccccccccccc" />
    <path
       id="path10744-3-8-4-8-2-1-0"
       inkscape:connector-curvature="0"
       d="m 16.978516,5.2792969 c -0.03519,0.012922 -0.07035,0.025943 -0.105469,0.039063 l 0.238281,2.1699218 c 0.03509,-0.0177 0.07025,-0.035278 0.105469,-0.052734 z m 14.041015,0.021484 -0.234375,2.1210938 c 0.03521,0.015506 0.07037,0.031131 0.105469,0.046875 L 31.125,5.3359375 c -0.03512,-0.011817 -0.07028,-0.023535 -0.105469,-0.035157 z m 8.085938,5.6386721 -1.447266,1.970703 c 0.121646,0.169678 0.240156,0.341582 0.355469,0.515625 l 1.496094,-2.037109 C 39.377271,11.236905 39.24249,11.087148 39.105469,10.939453 Z m -30.2109378,0.002 c -0.1363799,0.148355 -0.2705098,0.298763 -0.4023437,0.451172 l 1.5,2.041016 C 10.105484,13.256972 10.22204,13.082463 10.341797,12.910156 Z m 34.6484378,8.97461 -2.671875,1.175781 c 0.03331,0.322162 0.05741,0.645211 0.07227,0.96875 l 2.792969,-1.228516 c -0.0573,-0.306805 -0.121767,-0.612227 -0.193359,-0.916015 z m -39.074219,0.0078 c -0.071562,0.30314 -0.1360327,0.607911 -0.1933594,0.914063 l 2.7753906,1.21875 c 0.012869,-0.324135 0.035014,-0.647835 0.066406,-0.970703 z m 2.5566406,3.501953 C 7.0136917,23.617031 7.0052269,23.808464 7,24 c 0.010206,0.313614 0.029094,0.626885 0.056641,0.939453 l 0.072266,-0.03125 C 7.0728099,24.415807 7.0382717,23.921194 7.0253906,23.425781 Z m 33.9492184,0.148438 c -0.01294,0.447649 -0.04356,0.894612 -0.0918,1.339843 l 0.06641,0.0293 C 40.974882,24.629437 40.991815,24.314863 41,24 40.9933,23.857972 40.98485,23.716034 40.97461,23.574219 Z m 2.556641,3.501953 c -0.207947,1.037583 -0.49792,2.05706 -0.867188,3.048793 l -3.085937,-0.339844 c -0.51372,1.170228 -1.157763,2.278795 -1.919922,3.304688 l 0.349609,0.476562 c 0.60956,-0.875749 1.135318,-1.806941 1.570313,-2.78125 L 42.664062,31.125 c 0.488416,-1.28112 0.8438,-2.609067 1.060547,-3.962891 z m -39.0742188,0.0078 -0.1933593,0.08398 c 0.2151108,1.352286 0.5685272,2.678906 1.0546875,3.958984 l 3.1171875,-0.34375 c 0.4282215,0.97693 0.947438,1.911389 1.5507812,2.791016 L 10.341797,33.089844 C 9.5842706,32.062681 8.9448248,30.953479 8.4355469,29.783203 l -3.1171875,0.34375 C 4.9513789,29.136955 4.6633693,28.119452 4.4570312,27.083984 Z m 34.6484378,8.97461 c -0.758217,0.888313 -1.592787,1.708505 -2.494141,2.451172 l -2.521484,-1.851563 c -1.027163,0.757526 -2.136365,1.396972 -3.306641,1.90625 l 0.105469,0.947266 c 1.131299,-0.499563 2.204709,-1.12108 3.201172,-1.853516 l 2.521484,1.851563 c 1.06238,-0.865659 2.032974,-1.838217 2.896484,-2.902344 z m -30.2109378,0.002 -0.4042968,0.550781 c 0.8656588,1.06238 1.8382166,2.032974 2.9023436,2.896484 l 2.517578,-1.849609 c 0.994938,0.739106 2.067722,1.367188 3.199219,1.873047 l 0.105469,-0.953125 c -1.170228,-0.51372 -2.278795,-1.157763 -3.304688,-1.919922 l -2.517578,1.849609 C 10.490038,37.76656 9.6541611,36.947675 8.8945312,36.060547 Z M 25.908203,39.871094 C 25.275058,39.949837 24.637983,39.992874 24,40 23.360283,39.997 22.721246,39.95786 22.085938,39.882812 l -1.248047,2.841797 c -1.316782,-0.212317 -2.609023,-0.555824 -3.857422,-1.02539 L 16.875,42.664062 c 1.28112,0.488416 2.609067,0.8438 3.962891,1.060547 l 1.248047,-2.841797 C 22.721246,40.957857 23.360283,40.996982 24,41 c 0.637983,-0.0071 1.275058,-0.05016 1.908203,-0.128906 l 1.259766,2.865234 c 1.352286,-0.215111 2.678906,-0.568527 3.958984,-1.054687 l -0.105469,-0.960938 c -1.247489,0.465989 -2.538401,0.806219 -3.853515,1.015625 z"
       style="color:#000000;fill:#95a5a6;stroke-width:3.70003;stroke-linecap:round;stroke-linejoin:round" />
  </g>
  <path
     d="m 2.8124602,3.864232 0.0018,3.095524 L 3.7648818,5.68978 H 5.1936391 L 2.8124456,3.864232 Z"
     id="path3478-1-6-1-5-2-2"
     inkscape:connector-curvature="0"
     sodipodi:nodetypes="cccccc"
     style="fill:#c83771;stroke-width:0.264579" />
  <g
     id="g10738-8-8-3-8-6-3"
     inkscape:label="Layer 1"
     transform="matrix(0.08847728,0,0,0.08847728,5.2926666,4.12191)"
     style="stroke-width:1.23335">
    <path
       id="path10742-8-3-6-3-2-7"
       inkscape:connector-curvature="0"
       d="m 27.167969,43.736328 c 1.352286,-0.215111 2.678906,-0.568528 3.958984,-1.054688 l -0.34375,-3.117187 c 1.170276,-0.509278 2.279478,-1.148724 3.306641,-1.90625 l 2.521484,1.851562 c 1.06238,-0.865659 2.032974,-1.838216 2.896484,-2.902343 l -1.849609,-2.517578 c 0.762159,-1.025893 1.406202,-2.13446 1.919922,-3.304688 L 42.664062,31.125 c 0.488416,-1.28112 0.8438,-2.609067 1.060547,-3.962891 L 40.882812,25.914062 C 40.957857,25.278754 40.996982,24.639717 41,24 40.9929,23.362017 40.94984,22.724942 40.871094,22.091797 l 2.865234,-1.259766 C 43.521217,19.479745 43.1678,18.153125 42.68164,16.873047 l -3.117187,0.34375 c -0.509278,-1.170276 -1.148724,-2.279478 -1.90625,-3.306641 l 1.851562,-2.521484 C 38.644106,10.326292 37.671549,9.355698 36.607422,8.4921879 L 34.089844,10.341797 C 33.063951,9.5796379 31.955384,8.9355948 30.785156,8.4218749 L 31.125,5.3359379 C 29.84388,4.8475223 28.515933,4.4921376 27.162109,4.2753909 l -1.248047,2.841797 C 25.278754,7.0421425 24.639717,7.0030176 24,6.9999999 c -0.637983,0.00713 -1.275058,0.050163 -1.908203,0.128906 l -1.259766,-2.865234 c -1.352286,0.2151106 -2.678906,0.5685269 -3.958984,1.054687 l 0.34375,3.117188 C 16.046521,8.9448248 14.937319,9.5842706 13.910156,10.341797 L 11.388672,8.4902339 c -1.06238,0.865659 -2.0329741,1.8382171 -2.8964841,2.9023441 l 1.8496091,2.517578 c -0.7621591,1.025893 -1.4062022,2.13446 -1.9199221,3.304688 L 5.3359379,16.875 c -0.4884156,1.28112 -0.8438003,2.609067 -1.060547,3.962891 l 2.841797,1.248047 C 7.0421425,22.721246 7.0030176,23.360283 6.9999999,24 c 0.00713,0.637983 0.050163,1.275058 0.128906,1.908203 l -2.865234,1.259766 c 0.2151106,1.352286 0.5685269,2.678906 1.054687,3.958984 l 3.117188,-0.34375 c 0.5092779,1.170276 1.1487237,2.279478 1.9062501,3.306641 l -1.8515631,2.521484 c 0.865659,1.06238 1.8382171,2.032974 2.9023441,2.896484 l 2.517578,-1.849609 c 1.025893,0.762159 2.13446,1.406202 3.304688,1.919922 L 16.875,42.664062 c 1.28112,0.488416 2.609067,0.8438 3.962891,1.060547 l 1.248047,-2.841797 C 22.721246,40.957857 23.360283,40.996982 24,41 c 0.637983,-0.0071 1.275058,-0.05016 1.908203,-0.128906 z"
       style="color:#000000;fill:url(#linearGradient3);stroke-width:3.70003;stroke-linecap:round;stroke-linejoin:round"
       sodipodi:nodetypes="ccccccccccccccccccccccccccccccccccccccccccccccccccccc" />
    <path
       id="path10744-3-8-4-8-0-5"
       inkscape:connector-curvature="0"
       d="m 16.978516,5.2792969 c -0.03519,0.012922 -0.07035,0.025943 -0.105469,0.039063 l 0.238281,2.1699218 c 0.03509,-0.0177 0.07025,-0.035278 0.105469,-0.052734 z m 14.041015,0.021484 -0.234375,2.1210938 c 0.03521,0.015506 0.07037,0.031131 0.105469,0.046875 L 31.125,5.3359375 c -0.03512,-0.011817 -0.07028,-0.023535 -0.105469,-0.035157 z m 8.085938,5.6386721 -1.447266,1.970703 c 0.121646,0.169678 0.240156,0.341582 0.355469,0.515625 l 1.496094,-2.037109 C 39.377271,11.236905 39.24249,11.087148 39.105469,10.939453 Z m -30.2109378,0.002 c -0.1363799,0.148355 -0.2705098,0.298763 -0.4023437,0.451172 l 1.5,2.041016 C 10.105484,13.256972 10.22204,13.082463 10.341797,12.910156 Z m 34.6484378,8.97461 -2.671875,1.175781 c 0.03331,0.322162 0.05741,0.645211 0.07227,0.96875 l 2.792969,-1.228516 c -0.0573,-0.306805 -0.121767,-0.612227 -0.193359,-0.916015 z m -39.074219,0.0078 c -0.071562,0.30314 -0.1360327,0.607911 -0.1933594,0.914063 l 2.7753906,1.21875 c 0.012869,-0.324135 0.035014,-0.647835 0.066406,-0.970703 z m 2.5566406,3.501953 C 7.0136917,23.617031 7.0052269,23.808464 7,24 c 0.010206,0.313614 0.029094,0.626885 0.056641,0.939453 l 0.072266,-0.03125 C 7.0728099,24.415807 7.0382717,23.921194 7.0253906,23.425781 Z m 33.9492184,0.148438 c -0.01294,0.447649 -0.04356,0.894612 -0.0918,1.339843 l 0.06641,0.0293 C 40.974882,24.629437 40.991815,24.314863 41,24 40.9933,23.857972 40.98485,23.716034 40.97461,23.574219 Z m 2.556641,3.501953 c -0.207947,1.037583 -0.49792,2.05706 -0.867188,3.048793 l -3.085937,-0.339844 c -0.51372,1.170228 -1.157763,2.278795 -1.919922,3.304688 l 0.349609,0.476562 c 0.60956,-0.875749 1.135318,-1.806941 1.570313,-2.78125 L 42.664062,31.125 c 0.488416,-1.28112 0.8438,-2.609067 1.060547,-3.962891 z m -39.0742188,0.0078 -0.1933593,0.08398 c 0.2151108,1.352286 0.5685272,2.678906 1.0546875,3.958984 l 3.1171875,-0.34375 c 0.4282215,0.97693 0.947438,1.911389 1.5507812,2.791016 L 10.341797,33.089844 C 9.5842706,32.062681 8.9448248,30.953479 8.4355469,29.783203 l -3.1171875,0.34375 C 4.9513789,29.136955 4.6633693,28.119452 4.4570312,27.083984 Z m 34.6484378,8.97461 c -0.758217,0.888313 -1.592787,1.708505 -2.494141,2.451172 l -2.521484,-1.851563 c -1.027163,0.757526 -2.136365,1.396972 -3.306641,1.90625 l 0.105469,0.947266 c 1.131299,-0.499563 2.204709,-1.12108 3.201172,-1.853516 l 2.521484,1.851563 c 1.06238,-0.865659 2.032974,-1.838217 2.896484,-2.902344 z m -30.2109378,0.002 -0.4042968,0.550781 c 0.8656588,1.06238 1.8382166,2.032974 2.9023436,2.896484 l 2.517578,-1.849609 c 0.994938,0.739106 2.067722,1.367188 3.199219,1.873047 l 0.105469,-0.953125 c -1.170228,-0.51372 -2.278795,-1.157763 -3.304688,-1.919922 l -2.517578,1.849609 C 10.490038,37.76656 9.6541611,36.947675 8.8945312,36.060547 Z M 25.908203,39.871094 C 25.275058,39.949837 24.637983,39.992874 24,40 23.360283,39.997 22.721246,39.95786 22.085938,39.882812 l -1.248047,2.841797 c -1.316782,-0.212317 -2.609023,-0.555824 -3.857422,-1.02539 L 16.875,42.664062 c 1.28112,0.488416 2.609067,0.8438 3.962891,1.060547 l 1.248047,-2.841797 C 22.721246,40.957857 23.360283,40.996982 24,41 c 0.637983,-0.0071 1.275058,-0.05016 1.908203,-0.128906 l 1.259766,2.865234 c 1.352286,-0.215111 2.678906,-0.568527 3.958984,-1.054687 l -0.105469,-0.960938 c -1.247489,0.465989 -2.538401,0.806219 -3.853515,1.015625 z"
       style="color:#000000;fill:#95a5a6;stroke-width:3.70003;stroke-linecap:round;stroke-linejoin:round" />
  </g>
  <g
     id="g10738-8-9"
     inkscape:label="Layer 1"
     transform="matrix(0.08847728,0,0,0.08847728,5.2926666,2.53445)"
     style="stroke-width:1.23335">
    <circle
       id="circle10740-2-2"
       transform="rotate(15)"
       r="15"
       cy="16.970562"
       cx="29.393879"
       style="color:#000000;fill:url(#linearGradient4464-4-2);stroke-width:3.70003;stroke-linecap:round;stroke-linejoin:round" />
    <path
       id="path10742-8-2"
       inkscape:connector-curvature="0"
       d="m 27.167969,43.736328 a 20,20 0 0 0 3.958984,-1.054688 l -0.34375,-3.117187 a 17,17 0 0 0 3.306641,-1.90625 l 2.521484,1.851562 a 20,20 0 0 0 2.896484,-2.902343 l -1.849609,-2.517578 a 17,17 0 0 0 1.919922,-3.304688 L 42.664062,31.125 a 20,20 0 0 0 1.060547,-3.962891 L 40.882812,25.914062 A 17,17 0 0 0 41,24 17,17 0 0 0 40.871094,22.091797 l 2.865234,-1.259766 A 20,20 0 0 0 42.68164,16.873047 l -3.117187,0.34375 a 17,17 0 0 0 -1.90625,-3.306641 l 1.851562,-2.521484 A 20,20 0 0 0 36.607422,8.4921879 L 34.089844,10.341797 A 17,17 0 0 0 30.785156,8.4218749 L 31.125,5.3359379 a 20,20 0 0 0 -3.962891,-1.060547 l -1.248047,2.841797 A 17,17 0 0 0 24,6.9999999 17,17 0 0 0 22.091797,7.1289059 l -1.259766,-2.865234 a 20,20 0 0 0 -3.958984,1.054687 l 0.34375,3.117188 A 17,17 0 0 0 13.910156,10.341797 L 11.388672,8.4902339 A 20,20 0 0 0 8.4921879,11.392578 l 1.8496091,2.517578 A 17,17 0 0 0 8.4218749,17.214844 L 5.3359379,16.875 a 20,20 0 0 0 -1.060547,3.962891 l 2.841797,1.248047 A 17,17 0 0 0 6.9999999,24 a 17,17 0 0 0 0.128906,1.908203 l -2.865234,1.259766 a 20,20 0 0 0 1.054687,3.958984 l 3.117188,-0.34375 a 17,17 0 0 0 1.9062501,3.306641 l -1.8515631,2.521484 a 20,20 0 0 0 2.9023441,2.896484 l 2.517578,-1.849609 a 17,17 0 0 0 3.304688,1.919922 L 16.875,42.664062 a 20,20 0 0 0 3.962891,1.060547 l 1.248047,-2.841797 A 17,17 0 0 0 24,41 17,17 0 0 0 25.908203,40.871094 Z M 24,38 A 14,14 0 0 1 9.9999999,24 14,14 0 0 1 24,9.9999999 14,14 0 0 1 38,24 14,14 0 0 1 24,38 Z"
       style="color:#000000;fill:url(#linearGradient1);stroke-width:3.70003;stroke-linecap:round;stroke-linejoin:round" />
    <path
       id="path10744-2-8"
       inkscape:connector-curvature="0"
       d="m 16.978516,5.2792969 c -0.03519,0.012922 -0.07035,0.025943 -0.105469,0.039063 l 0.238281,2.1699218 c 0.03509,-0.0177 0.07025,-0.035278 0.105469,-0.052734 z m 14.041015,0.021484 -0.234375,2.1210938 c 0.03521,0.015506 0.07037,0.031131 0.105469,0.046875 L 31.125,5.3359375 c -0.03512,-0.011817 -0.07028,-0.023535 -0.105469,-0.035157 z m 8.085938,5.6386721 -1.447266,1.970703 c 0.121646,0.169678 0.240156,0.341582 0.355469,0.515625 l 1.496094,-2.037109 C 39.377271,11.236905 39.24249,11.087148 39.105469,10.939453 Z m -30.2109378,0.002 c -0.1363799,0.148355 -0.2705098,0.298763 -0.4023437,0.451172 l 1.5,2.041016 C 10.105484,13.256972 10.22204,13.082463 10.341797,12.910156 Z m 34.6484378,8.97461 -2.671875,1.175781 c 0.03331,0.322162 0.05741,0.645211 0.07227,0.96875 l 2.792969,-1.228516 c -0.0573,-0.306805 -0.121767,-0.612227 -0.193359,-0.916015 z m -39.074219,0.0078 c -0.071562,0.30314 -0.1360327,0.607911 -0.1933594,0.914063 l 2.7753906,1.21875 c 0.012869,-0.324135 0.035014,-0.647835 0.066406,-0.970703 z m 2.5566406,3.501953 C 7.0136917,23.617031 7.0052269,23.808464 7,24 c 0.010206,0.313614 0.029094,0.626885 0.056641,0.939453 l 0.072266,-0.03125 C 7.0728099,24.415807 7.0382717,23.921194 7.0253906,23.425781 Z m 33.9492184,0.148438 c -0.01294,0.447649 -0.04356,0.894612 -0.0918,1.339843 l 0.06641,0.0293 C 40.974882,24.629437 40.991815,24.314863 41,24 40.9933,23.857972 40.98485,23.716034 40.97461,23.574219 Z m 2.556641,3.501953 c -0.207947,1.037583 -0.49792,2.05706 -0.867188,3.048793 l -3.085937,-0.339844 c -0.51372,1.170228 -1.157763,2.278795 -1.919922,3.304688 l 0.349609,0.476562 c 0.60956,-0.875749 1.135318,-1.806941 1.570313,-2.78125 L 42.664062,31.125 c 0.488416,-1.28112 0.8438,-2.609067 1.060547,-3.962891 z m -39.0742188,0.0078 -0.1933593,0.08398 c 0.2151108,1.352286 0.5685272,2.678906 1.0546875,3.958984 l 3.1171875,-0.34375 c 0.4282215,0.97693 0.947438,1.911389 1.5507812,2.791016 L 10.341797,33.089844 C 9.5842706,32.062681 8.9448248,30.953479 8.4355469,29.783203 l -3.1171875,0.34375 C 4.9513789,29.136955 4.6633693,28.119452 4.4570312,27.083984 Z m 34.6484378,8.97461 c -0.758217,0.888313 -1.592787,1.708505 -2.494141,2.451172 l -2.521484,-1.851563 c -1.027163,0.757526 -2.136365,1.396972 -3.306641,1.90625 l 0.105469,0.947266 c 1.131299,-0.499563 2.204709,-1.12108 3.201172,-1.853516 l 2.521484,1.851563 c 1.06238,-0.865659 2.032974,-1.838217 2.896484,-2.902344 z m -30.2109378,0.002 -0.4042968,0.550781 c 0.8656588,1.06238 1.8382166,2.032974 2.9023436,2.896484 l 2.517578,-1.849609 c 0.994938,0.739106 2.067722,1.367188 3.199219,1.873047 l 0.105469,-0.953125 c -1.170228,-0.51372 -2.278795,-1.157763 -3.304688,-1.919922 l -2.517578,1.849609 C 10.490038,37.76656 9.6541611,36.947675 8.8945312,36.060547 Z M 25.908203,39.871094 C 25.275058,39.949837 24.637983,39.992874 24,40 23.360283,39.997 22.721246,39.95786 22.085938,39.882812 l -1.248047,2.841797 c -1.316782,-0.212317 -2.609023,-0.555824 -3.857422,-1.02539 L 16.875,42.664062 c 1.28112,0.488416 2.609067,0.8438 3.962891,1.060547 l 1.248047,-2.841797 C 22.721246,40.957857 23.360283,40.996982 24,41 c 0.637983,-0.0071 1.275058,-0.05016 1.908203,-0.128906 l 1.259766,2.865234 c 1.352286,-0.215111 2.678906,-0.568527 3.958984,-1.054687 l -0.105469,-0.960938 c -1.247489,0.465989 -2.538401,0.806219 -3.853515,1.015625 z"
       style="color:#000000;fill:#95a5a6;stroke-width:3.70003;stroke-linecap:round;stroke-linejoin:round" />
    <path
       id="path10746-1-9"
       d="m 33,15 -18,18 7.960938,7.960938 C 23.306748,40.983753 23.653305,40.998364 24,41 c 0.637983,-0.0071 1.275058,-0.05016 1.908203,-0.128906 l 1.259766,2.865234 c 1.352286,-0.215111 2.678906,-0.568527 3.958984,-1.054687 l -0.238281,-2.169922 -0.105469,-0.947266 c 1.170276,-0.509278 2.279478,-1.148724 3.306641,-1.90625 l 2.521484,1.851563 c 1.06238,-0.865659 2.032975,-1.838217 2.896484,-2.902344 l -1.5,-2.041016 -0.349609,-0.476562 c 0.762159,-1.025893 1.406202,-2.13446 1.919922,-3.304688 L 42.664062,31.125 c 0.488417,-1.28112 0.8438,-2.609067 1.060547,-3.962891 l -2.77539,-1.21875 -0.06641,-0.0293 C 40.957857,25.278754 40.996982,24.639717 41,24 40.98979,23.686386 40.97091,23.373115 40.94336,23.060547 l 0.01953,-0.0078 c -0.0022,-0.03256 -0.0054,-0.06511 -0.0078,-0.09766 z"
       inkscape:connector-curvature="0"
       style="opacity:0.2;fill:url(#linearGradient4604-6-3);fill-rule:evenodd;stroke-width:1.23335" />
    <rect
       id="rect10748-9-7"
       rx="16.033312"
       y="10.999994"
       x="10.999981"
       height="26"
       width="25.99999"
       style="fill:url(#linearGradient4149-8-6);stroke-width:1.23335"
       ry="16.033312" />
    <path
       id="path10750-6-3"
       inkscape:connector-curvature="0"
       d="m 23.999997,10.99999 c -0.94371,0 -1.861653,0.104048 -2.747265,0.29326 l -1.152737,2.306741 -1.741799,-1.306351 c -3.123984,1.502287 -5.543941,4.206749 -6.665036,7.529596 l 2.556835,-1.023244 1.95,1.300001 0.649999,-1.950001 8.450003,-4.550001 -0.51543,-2.574612 c -0.259884,-0.01534 -0.520703,-0.02542 -0.78457,-0.02542 z m 9.626859,4.269435 -0.526857,1.580567 0.65,0.65 -2.600001,3.900001 1.300001,4.550001 4.311327,0.539552 C 36.916384,25.684014 37,24.852111 37,23.999993 37,21.773885 36.443262,19.683531 35.465135,17.855458 l -1.065136,-0.355466 0.387205,-0.775684 c -0.347971,-0.516152 -0.743678,-0.995424 -1.160348,-1.454883 z m -22.36915,6.130568 c -0.143462,0.712238 -0.224887,1.447504 -0.247553,2.197559 l 4.539842,1.702442 -0.65,-1.950001 -1.300001,-1.95 z m 4.292289,3.900001 3.25,7.800002 v 2.819628 c 1.591708,0.692199 3.347846,1.080372 5.200002,1.080372 0.129148,0 0.256444,-0.0052 0.38467,-0.0089 l 4.165331,-7.141116 -10.400003,-5.850001 -2.6,1.3 z"
       style="fill:url(#linearGradient4305-6-1);fill-rule:evenodd;stroke-width:1.23335" />
    <path
       id="path10752-6-6"
       d="M 11.025391,23.5 C 11.019064,23.667367 11,23.83103 11,24 c 0,7.201997 5.798003,13 13,13 7.201997,0 13,-5.798003 13,-13 0,-0.16897 -0.01906,-0.332633 -0.02539,-0.5 C 36.711295,30.466332 31.033028,36 24,36 16.966972,36 11.288705,30.466332 11.025391,23.5 Z"
       inkscape:connector-curvature="0"
       style="opacity:0.2;fill:#172525;stroke-width:1.23335" />
  </g>
</svg>
