<?xml version="1.0" encoding="UTF-8" standalone="no"?>
<svg
   width="45.999886"
   height="45.999989"
   version="1.1"
   viewBox="0 0 12.170564 12.170591"
   id="svg12"
   sodipodi:docname="preferences-system-windows-effect-trackmouse.svg"
   inkscape:version="1.3.2 (091e20ef0f, 2023-11-25)"
   xmlns:inkscape="http://www.inkscape.org/namespaces/inkscape"
   xmlns:sodipodi="http://sodipodi.sourceforge.net/DTD/sodipodi-0.dtd"
   xmlns:xlink="http://www.w3.org/1999/xlink"
   xmlns="http://www.w3.org/2000/svg"
   xmlns:svg="http://www.w3.org/2000/svg">
  <defs
     id="defs16">
    <linearGradient
       id="c"
       y1="523.79999"
       x1="403.57001"
       y2="536.79999"
       x2="416.57001"
       gradientUnits="userSpaceOnUse"
       gradientTransform="matrix(0.34526714,0,0,0.34526706,-134.80427,-174.63325)">
      <stop
         stop-color="#292c2f"
         id="stop1568" />
      <stop
         offset="1"
         stop-opacity="0"
         id="stop1570" />
    </linearGradient>
    <linearGradient
       xlink:href="#b-2"
       id="linearGradient4189"
       x1="14.369"
       y1="22.521999"
       x2="26.521999"
       y2="22.521999"
       gradientUnits="userSpaceOnUse" />
    <linearGradient
       x1="36"
       gradientUnits="userSpaceOnUse"
       x2="14"
       y2="12"
       y1="44"
       id="b-2">
      <stop
         style="stop-color:#bfc9c9;stop-opacity:1"
         stop-color="#536161"
         id="stop1579" />
      <stop
         style="stop-color:#fbfbfb;stop-opacity:1"
         stop-color="#f4f5f5"
         offset="1"
         id="stop1581" />
    </linearGradient>
    <linearGradient
       xlink:href="#b-2"
       id="linearGradient4428"
       gradientUnits="userSpaceOnUse"
       x1="31.586"
       y1="36.345001"
       x2="1.2029999"
       y2="6.723" />
    <linearGradient
       xlink:href="#b-2"
       id="linearGradient4189-3"
       x1="14.369"
       y1="22.521999"
       x2="26.521999"
       y2="22.521999"
       gradientUnits="userSpaceOnUse"
       gradientTransform="translate(20.841982,61.553822)" />
    <linearGradient
       xlink:href="#b-2"
       id="linearGradient4428-5"
       gradientUnits="userSpaceOnUse"
       x1="31.586"
       y1="36.345001"
       x2="1.2029999"
       y2="6.723"
       gradientTransform="translate(20.841982,61.553822)" />
    <linearGradient
       xlink:href="#b-2"
       id="linearGradient4189-3-3"
       x1="14.369"
       y1="22.521999"
       x2="26.521999"
       y2="22.521999"
       gradientUnits="userSpaceOnUse"
       gradientTransform="translate(4.376802,4.4211693)" />
    <linearGradient
       xlink:href="#b-2"
       id="linearGradient4428-5-5"
       gradientUnits="userSpaceOnUse"
       x1="31.586"
       y1="36.345001"
       x2="1.2029999"
       y2="6.723"
       gradientTransform="translate(4.376802,4.4211693)" />
    <linearGradient
       inkscape:collect="always"
       xlink:href="#linearGradient11"
       id="linearGradient13"
       x1="-43.819283"
       y1="23.120178"
       x2="-1.9547797"
       y2="23.120178"
       gradientUnits="userSpaceOnUse"
       gradientTransform="scale(0.26457813)" />
    <linearGradient
       id="linearGradient11"
       inkscape:collect="always">
      <stop
         style="stop-color:#5599ff;stop-opacity:1"
         offset="0"
         id="stop4-3" />
      <stop
         style="stop-color:#00ccff;stop-opacity:1"
         offset="1"
         id="stop11" />
    </linearGradient>
    <linearGradient
       inkscape:collect="always"
       xlink:href="#linearGradient14"
       id="linearGradient15"
       x1="-9.6850061"
       y1="45.161198"
       x2="11.98815"
       y2="21.735205"
       gradientUnits="userSpaceOnUse"
       gradientTransform="scale(0.26457813)" />
    <linearGradient
       id="linearGradient14"
       inkscape:collect="always">
      <stop
         style="stop-color:#80b3ff;stop-opacity:1"
         offset="0"
         id="stop12" />
      <stop
         style="stop-color:#00ccff;stop-opacity:1"
         offset="1"
         id="stop13" />
    </linearGradient>
    <filter
       id="filter2917-3"
       x="-0.96181147"
       y="-0.66745996"
       width="2.9236229"
       height="2.3349199"
       color-interpolation-filters="sRGB">
      <feGaussianBlur
         stdDeviation="0.2871969"
         id="feGaussianBlur732-5" />
    </filter>
    <filter
       id="filter1"
       x="-0.96181148"
       y="-0.66745996"
       width="2.9236228"
       height="2.3349199"
       color-interpolation-filters="sRGB">
      <feGaussianBlur
         stdDeviation="0.2871969"
         id="feGaussianBlur1" />
    </filter>
    <filter
       id="filter2"
       x="-0.96181148"
       y="-0.66745996"
       width="2.9236228"
       height="2.3349199"
       color-interpolation-filters="sRGB">
      <feGaussianBlur
         stdDeviation="0.2871969"
         id="feGaussianBlur2" />
    </filter>
    <linearGradient
       id="l"
       x1="27.447001"
       x2="25.966"
       y1="289.76001"
       y2="289.76001"
       gradientTransform="matrix(0.94283,0,0,0.9628,-16.618,11.67)"
       gradientUnits="userSpaceOnUse">
      <stop
         stop-color="#1881ce"
         offset="0"
         id="stop19" />
      <stop
         stop-color="#2980b9"
         offset="1"
         id="stop21" />
    </linearGradient>
    <linearGradient
       id="j"
       x1="10.692"
       x2="34.026001"
       y1="14.134"
       y2="29.068001"
       gradientTransform="matrix(0.24946,0,0,0.25474,0.77251,285.56)"
       gradientUnits="userSpaceOnUse">
      <stop
         stop-color="#349cd2"
         offset="0"
         id="stop7" />
      <stop
         stop-color="#2694d9"
         offset=".74017"
         id="stop9" />
      <stop
         stop-color="#0e6daa"
         offset="1"
         id="stop11-3" />
    </linearGradient>
    <linearGradient
       id="k"
       x1="21.274"
       x2="27.447001"
       y1="291.29999"
       y2="287.35001"
       gradientTransform="matrix(0.94283,0,0,0.9628,-16.618,11.67)"
       gradientUnits="userSpaceOnUse">
      <stop
         stop-color="#1d99f3"
         offset="0"
         id="stop14" />
      <stop
         stop-color="#3daee9"
         offset="1"
         id="stop16" />
    </linearGradient>
    <linearGradient
       id="a"
       y1="61.200001"
       x1="-162.28999"
       y2="505.06"
       gradientUnits="userSpaceOnUse"
       x2="737.63"
       gradientTransform="matrix(0.06535,0.02041,-0.01819,0.05824,8.418,-1.328)">
      <stop
         stop-color="#fafafa"
         id="stop2-3" />
      <stop
         offset="1"
         stop-color="#939393"
         id="stop4" />
    </linearGradient>
    <linearGradient
       id="k-6"
       x1="12.950614"
       x2="7.7056513"
       y1="8.3288479"
       y2="8.2809086"
       gradientTransform="matrix(0.940734,0,0,2.116625,-5.1725024,-11.641438)"
       gradientUnits="userSpaceOnUse">
      <stop
         stop-color="#a1daff"
         offset="0"
         id="stop1" />
      <stop
         stop-color="#abebf9"
         stop-opacity="0"
         offset="1"
         id="stop2" />
    </linearGradient>
    <linearGradient
       id="linearGradient740"
       gradientUnits="userSpaceOnUse"
       x1="13.820312"
       x2="11"
       y1="14.820312"
       y2="12">
      <stop
         offset="0"
         stop-color="#197cf1"
         id="stop222-7" />
      <stop
         offset="1"
         stop-color="#20bcfa"
         stop-opacity="0"
         id="stop224-5" />
    </linearGradient>
    <linearGradient
       id="linearGradient744"
       gradientUnits="userSpaceOnUse"
       x1="7"
       x2="9"
       y1="16"
       y2="8">
      <stop
         offset="0"
         stop-color="#197cf1"
         id="stop217-3" />
      <stop
         offset="1"
         stop-color="#20bcfa"
         id="stop219-5" />
    </linearGradient>
    <linearGradient
       id="e"
       gradientUnits="userSpaceOnUse"
       x1="5.3750029"
       x2="14.75002"
       y1="7.0000119"
       y2="16.37501">
      <stop
         offset="0"
         id="stop233" />
      <stop
         offset="1"
         stop-opacity="0"
         id="stop235" />
    </linearGradient>
    <linearGradient
       gradientUnits="userSpaceOnUse"
       y2="4"
       x2="0"
       y1="37"
       id="linearGradient4503-3"
       xlink:href="#linearGradient4816"
       inkscape:collect="always"
       gradientTransform="matrix(0.17091785,0,0,0.17091785,5.7925724,3.1524993)" />
    <linearGradient
       inkscape:collect="always"
       id="linearGradient4816">
      <stop
         id="stop10565"
         stop-color="#da4453" />
      <stop
         id="stop10567"
         stop-color="#ff7336"
         offset="1" />
    </linearGradient>
    <linearGradient
       inkscape:collect="always"
       xlink:href="#linearGradient4293"
       id="linearGradient2"
       gradientUnits="userSpaceOnUse"
       gradientTransform="matrix(0.17091785,0,0,0.17091785,5.7925724,3.1524993)"
       x1="20.4375"
       y1="22.3125"
       x2="23.53125"
       y2="25.40625" />
    <linearGradient
       inkscape:collect="always"
       id="linearGradient4293">
      <stop
         id="stop7-3" />
      <stop
         offset="1"
         stop-opacity="0"
         id="stop9-6" />
    </linearGradient>
  </defs>
  <sodipodi:namedview
     id="namedview14"
     pagecolor="#000000"
     bordercolor="#666666"
     borderopacity="1.0"
     inkscape:showpageshadow="2"
     inkscape:pageopacity="0.0"
     inkscape:pagecheckerboard="0"
     inkscape:deskcolor="#d1d1d1"
     showgrid="true"
     inkscape:zoom="10.429825"
     inkscape:cx="19.846929"
     inkscape:cy="37.584523"
     inkscape:window-width="1920"
     inkscape:window-height="996"
     inkscape:window-x="0"
     inkscape:window-y="0"
     inkscape:window-maximized="1"
     inkscape:current-layer="svg12">
    <inkscape:grid
       type="xygrid"
       id="grid244"
       originx="9.7893915"
       originy="-31.749373"
       spacingy="1"
       spacingx="1"
       units="px"
       visible="true" />
  </sodipodi:namedview>
  <rect
     x="-12.025727"
     y="0.1490714"
     width="11.940627"
     height="11.936014"
     rx="1.6121091"
     stroke="url(#paint4_linear_77:23)"
     shape-rendering="crispEdges"
     id="rect5-6-7-3"
     ry="1.7735944"
     transform="matrix(0.00523883,-0.99998628,0.999988,0.00489859,0,0)"
     style="fill:#80b3ff;fill-opacity:0.15;stroke:url(#linearGradient13);stroke-width:0.188987;stroke-opacity:1" />
  <rect
     x="-3.7266586"
     y="4.6446943"
     width="7.912631"
     height="7.912384"
     rx="1.612043"
     shape-rendering="crispEdges"
     id="rect5-6-6-6-6"
     style="fill:#80b3ff;fill-opacity:0.122146;stroke:url(#linearGradient15);stroke-width:0.188987;stroke-opacity:1"
     ry="1.7735215"
     transform="matrix(0.72612649,-0.68756114,0.6879775,0.72573202,0,0)" />
  <path
     d="M 5.6693803,1.3493485 C 5.394576,1.4191395 2.8591526,3.8454518 1.561011,5.0824918 l 7.2211094,1e-4 c 0.0073,10e-8 0.013414,0.0038 0.020637,0.0041 L 10.410743,5.0644543 C 8.7809308,3.3431748 6.9846558,1.4719167 6.6186866,1.3493485 c -0.2882491,-0.096539 -0.5905494,-0.091112 -0.9493063,0 z"
     stroke-width="0.369034"
     id="path32-3-1"
     style="fill:#1f293d;fill-opacity:1"
     sodipodi:nodetypes="scsccss" />
  <rect
     width="0.79373437"
     height="0.79373437"
     x="3.212512"
     y="3.9910939"
     rx="0.39686719"
     ry="0.39686719"
     style="fill:#fdfdfd;fill-opacity:1;fill-rule:evenodd;stroke-width:0.264578;stroke-linecap:round;stroke-linejoin:round;paint-order:stroke fill markers"
     id="rect3-3-3" />
  <rect
     width="9.2073193"
     x="1.3927393"
     y="5.0456629"
     rx="0"
     height="0.25329304"
     id="rect27-9-9"
     style="fill:#3daee9;fill-opacity:1;stroke-width:0.0241136" />
  <path
     sodipodi:nodetypes="sccccscccsssscccccccsccsssscss"
     inkscape:connector-curvature="0"
     id="path10677-1"
     d="m 5.8739137,6.1403796 c -1.0383528,0 -1.8800975,0.8418876 -1.8800975,1.8803566 7.937e-4,0.971399 0.7416813,1.782225 1.7091721,1.870568 v -0.170204 c -0.8733169,-0.08773 -1.5382017,-0.822917 -1.5382467,-1.700364 0,-0.944226 0.7652155,-1.7094655 1.7091721,-1.7094655 0.9439565,0 1.7091747,0.7652395 1.7091747,1.7094655 h -0.00275 c 0.00275,0.683617 -0.7257669,1.195629 -1.4287616,1.196158 -0.7033704,-1.85e-4 -1.4741685,-0.512541 -1.4741685,-1.196158 0,-0.660916 0.5356675,-1.196634 1.1964276,-1.196634 0.6607627,0 1.1964302,0.535718 1.1964302,1.196634 0,0.377262 -0.4208697,0.683617 -0.9400566,0.683617 -0.5191685,0 -0.9400408,-0.306355 -0.9400408,-0.683617 5.291e-4,-0.35345 0.3418349,-0.683908 0.8545873,-0.680601 0.1709175,-0.005 0.3371863,0.233279 0.3418429,0.423934 0,0.236136 -0.1530532,0.427399 -0.3418429,0.427399 -0.162279,0 -0.3418482,-0.140332 -0.3344876,-0.341755 H 5.5380106 c -0.00601,0.341755 0.2521456,0.512276 0.5067465,0.512646 0.2831859,0 0.5127497,-0.267832 0.5127497,-0.59829 0,-0.330352 -0.2295638,-0.598185 -0.5127497,-0.598185 -0.6836805,0 -1.0120722,0.414568 -1.0255155,0.854852 0,0.471743 0.497399,0.854455 1.1109663,0.854455 0.6135699,0 1.1109688,-0.382712 1.1109688,-0.854455 0,-0.755344 -0.6121835,-1.367445 -1.3673398,-1.367445 -0.7551615,0 -1.3673397,0.612101 -1.3673397,1.367445 0,0.854455 0.8480549,1.366149 1.645078,1.367155 0.7974094,0 1.6023592,-0.5127 1.6023592,-1.367155 0,-1.038469 -0.8417447,-1.8803566 -1.8800975,-1.8803566 z"
     style="stroke-opacity:1;stroke-dasharray:none;stroke-miterlimit:4;stroke-width:1;stroke:none;fill-opacity:1;fill:#ffe6d5;" />
  <path
     id="path10600-2"
     d="M 10.146268,3.0122724 9.7480333,3.2077692 C 9.3495099,3.4032131 8.9285687,3.8486039 8.9285687,3.8486039 l 0.06262,0.5031747 c -0.02368,0.034263 -0.048407,0.071119 -0.073381,0.1077097 L 8.7407024,4.1420475 8.452545,4.5007625 8.6560824,4.8497411 c -0.00106,0.00291 -0.0028,0.00582 -0.00392,0.00714 L 8.39728,4.5672775 c 0,0 -0.1659196,0.1954967 -0.6751479,0.9233247 C 7.2129065,6.2185096 6.792103,7.0659532 6.792103,7.0659532 l 0.019552,0.57551 c -0.0274,0.04077 -0.056387,0.08469 -0.08317,0.123849 l -0.080244,-0.471266 -0.1770981,0.293338 -0.044531,0.282887 -0.099302,0.119457 c 0,0 -0.1644485,0.614932 -0.1329373,0.726346 0.031511,0.111149 0.4484864,-0.107498 0.4484864,-0.107498 l 0.022039,-0.146338 0.3375699,-0.108504 -0.3757194,-0.07498 c 0.0091,-0.01614 0.020161,-0.03371 0.029347,-0.04889 0.044957,0.01482 0.097891,0.02918 0.1971557,0.04757 0.2380065,0.04328 0.398235,-0.04334 0.398235,-0.04334 l 0.1717271,-0.217404 c 0,0 -0.1328394,0.09231 -0.2822916,0.119537 -0.1472245,0.02654 -0.3975445,-0.03529 -0.4050797,-0.03696 0.013123,-0.02223 0.027225,-0.04527 0.040602,-0.06742 0.06321,-0.0172 0.6328312,-0.164699 0.9676998,-0.400703 0.354241,-0.249974 1.0572278,-1.021536 1.0572278,-1.021536 0,0 -0.1695602,-0.0026 -0.5348738,-0.0071 -0.3442294,-0.0069 -0.6484757,-0.0042 -0.6836673,0 0.015954,-0.02619 0,-0.170944 0,-0.170944 L 9.0503964,6.201603 c 0,0 0.094346,-0.1791723 0.2382605,-0.4670598 0.143912,-0.287861 0.5161046,-1.0122494 0.5161046,-1.0122494 0,0 -0.2499628,-0.00741 -0.4730604,-0.037835 -0.2129245,-0.029289 -0.4145013,-0.080538 -0.433461,-0.085485 0.00265,-0.00529 0.00524,-0.0082 0.00786,-0.011906 0.030995,-0.014552 0.2300295,-0.10599 0.3786722,-0.1522647 0.160456,-0.049926 0.6496954,-0.1190337 0.6496954,-0.1190337 0,0 0.00386,-0.069055 0.039134,-0.2112657 0.035234,-0.142052 0.1056853,-0.4686472 0.1056853,-0.4686472 L 9.228013,4.1156426 c 0.035834,-0.049344 0.069698,-0.093211 0.1046988,-0.1397502 L 10.110587,3.5207122 c 0,0 0.0079,-0.099852 0.02355,-0.2304211 0.01572,-0.1305958 0.01217,-0.2770662 0.01217,-0.2770662 z"
     inkscape:connector-curvature="0"
     style="fill:url(#linearGradient4503-3);fill-rule:evenodd;stroke-width:0.170917" />
  <path
     id="path10602-7"
     d="m 10.146594,3.0122724 c 0,0 -0.7897447,0.8443747 -1.5762244,1.9269225 C 7.78389,6.0218222 6.9863589,7.2463952 6.1888384,8.6447172 c -0.6925386,1.214282 -0.4419249,1.204201 -0.4419249,1.204201 0,0 0.078524,-0.202111 0.6285212,-1.155598 C 6.9011462,7.7821932 7.5661951,6.6055342 8.6783889,4.9836176 9.2084818,4.2107055 10.146594,3.0122724 10.146594,3.0122724 Z"
     inkscape:connector-curvature="0"
     style="fill:#31363b;fill-rule:evenodd;stroke-width:0.170917" />
  <path
     id="path10604-0"
     d="M 10.146252,3.0122724 10.025412,3.1631349 9.5850135,3.7267656 8.9061007,4.5861419 C 8.9370961,4.5713255 9.1360138,4.48039 9.2846591,4.4340094 9.4451178,4.3841894 9.9342699,4.3149228 9.9342699,4.3149228 c 0,0 0.00413,-0.06924 0.039396,-0.2114508 C 10.008897,3.96142 10.079161,3.6348512 10.079161,3.6348512 L 9.3441575,4.0466141 c 0.035832,-0.049317 0.069822,-0.093079 0.1048258,-0.1395649 L 10.110534,3.5196539 c 0,0 0.0077,-0.099667 0.02344,-0.2302624 0.01572,-0.1305957 0.0123,-0.2771191 0.0123,-0.2771191 z M 8.9061007,4.5861419 7.5828265,6.4305422 9.0503091,6.2008093 c 0,0 0.094441,-0.1791459 0.2383557,-0.4672979 0.1439147,-0.287861 0.5160941,-1.0119849 0.5160941,-1.0119849 0,0 -0.2499417,-0.00714 -0.4730366,-0.037835 -0.2129245,-0.029421 -0.4146839,-0.080564 -0.4336303,-0.085565 0.00265,-0.00529 0.00542,-0.009 0.00802,-0.011906 z M 7.5828265,6.4305422 6.2214953,8.7413412 c 0.099188,0.03487 0.4212771,-0.134114 0.4212771,-0.134114 l 0.022066,-0.14618 0.3378319,-0.108583 -0.3758888,-0.07503 c 0.0091,-0.01614 0.020187,-0.03363 0.029387,-0.04876 0.044946,0.01455 0.098005,0.02908 0.197288,0.04739 0.2380039,0.04342 0.3979202,-0.04318 0.3979202,-0.04318 l 0.1719229,-0.21751 c 0,0 -0.132977,0.09221 -0.2824266,0.119351 -0.1472245,0.02672 -0.3973858,-0.03527 -0.4049183,-0.03696 0.013123,-0.02223 0.027016,-0.04501 0.040385,-0.0672 0.063205,-0.01693 0.6328841,-0.164673 0.9677501,-0.400783 0.3542436,-0.249947 1.0572171,-1.021298 1.0572171,-1.021298 2.7e-6,0 -0.1694596,-0.0026 -0.5347732,-0.0071 -0.3442294,-0.0066 -0.6484889,-0.0042 -0.6836699,0 0.015954,-0.02619 0,-0.170943 0,-0.170943 z"
     inkscape:connector-curvature="0"
     style="opacity:0.2;fill:url(#linearGradient2);fill-rule:evenodd;stroke-width:0.170917" />
</svg>
