<?xml version="1.0" encoding="UTF-8" standalone="no"?>
<svg
   width="45.999886"
   height="45.999989"
   version="1.1"
   viewBox="0 0 12.170564 12.170591"
   id="svg12"
   sodipodi:docname="preferences-system-windows-effect-glide.svg"
   inkscape:version="1.3.2 (091e20ef0f, 2023-11-25)"
   xmlns:inkscape="http://www.inkscape.org/namespaces/inkscape"
   xmlns:sodipodi="http://sodipodi.sourceforge.net/DTD/sodipodi-0.dtd"
   xmlns:xlink="http://www.w3.org/1999/xlink"
   xmlns="http://www.w3.org/2000/svg"
   xmlns:svg="http://www.w3.org/2000/svg">
  <defs
     id="defs16">
    <linearGradient
       id="c"
       y1="523.79999"
       x1="403.57001"
       y2="536.79999"
       x2="416.57001"
       gradientUnits="userSpaceOnUse"
       gradientTransform="matrix(0.34526714,0,0,0.34526706,-134.80427,-174.63325)">
      <stop
         stop-color="#292c2f"
         id="stop1568" />
      <stop
         offset="1"
         stop-opacity="0"
         id="stop1570" />
    </linearGradient>
    <linearGradient
       xlink:href="#b-2"
       id="linearGradient4189"
       x1="14.369"
       y1="22.521999"
       x2="26.521999"
       y2="22.521999"
       gradientUnits="userSpaceOnUse" />
    <linearGradient
       x1="36"
       gradientUnits="userSpaceOnUse"
       x2="14"
       y2="12"
       y1="44"
       id="b-2">
      <stop
         style="stop-color:#bfc9c9;stop-opacity:1"
         stop-color="#536161"
         id="stop1579" />
      <stop
         style="stop-color:#fbfbfb;stop-opacity:1"
         stop-color="#f4f5f5"
         offset="1"
         id="stop1581" />
    </linearGradient>
    <linearGradient
       xlink:href="#b-2"
       id="linearGradient4428"
       gradientUnits="userSpaceOnUse"
       x1="31.586"
       y1="36.345001"
       x2="1.2029999"
       y2="6.723" />
    <linearGradient
       xlink:href="#b-2"
       id="linearGradient4189-3"
       x1="14.369"
       y1="22.521999"
       x2="26.521999"
       y2="22.521999"
       gradientUnits="userSpaceOnUse"
       gradientTransform="translate(20.841982,61.553822)" />
    <linearGradient
       xlink:href="#b-2"
       id="linearGradient4428-5"
       gradientUnits="userSpaceOnUse"
       x1="31.586"
       y1="36.345001"
       x2="1.2029999"
       y2="6.723"
       gradientTransform="translate(20.841982,61.553822)" />
    <linearGradient
       xlink:href="#b-2"
       id="linearGradient4189-3-3"
       x1="14.369"
       y1="22.521999"
       x2="26.521999"
       y2="22.521999"
       gradientUnits="userSpaceOnUse"
       gradientTransform="translate(4.376802,4.4211693)" />
    <linearGradient
       xlink:href="#b-2"
       id="linearGradient4428-5-5"
       gradientUnits="userSpaceOnUse"
       x1="31.586"
       y1="36.345001"
       x2="1.2029999"
       y2="6.723"
       gradientTransform="translate(4.376802,4.4211693)" />
    <linearGradient
       inkscape:collect="always"
       xlink:href="#linearGradient11"
       id="linearGradient13"
       x1="-43.819283"
       y1="23.120178"
       x2="-1.9547797"
       y2="23.120178"
       gradientUnits="userSpaceOnUse"
       gradientTransform="scale(0.26457813)" />
    <linearGradient
       id="linearGradient11"
       inkscape:collect="always">
      <stop
         style="stop-color:#5599ff;stop-opacity:1"
         offset="0"
         id="stop4-3" />
      <stop
         style="stop-color:#00ccff;stop-opacity:1"
         offset="1"
         id="stop11" />
    </linearGradient>
    <linearGradient
       inkscape:collect="always"
       xlink:href="#linearGradient14"
       id="linearGradient15"
       x1="-9.6850061"
       y1="45.161198"
       x2="11.98815"
       y2="21.735205"
       gradientUnits="userSpaceOnUse"
       gradientTransform="scale(0.26457813)" />
    <linearGradient
       id="linearGradient14"
       inkscape:collect="always">
      <stop
         style="stop-color:#80b3ff;stop-opacity:1"
         offset="0"
         id="stop12" />
      <stop
         style="stop-color:#00ccff;stop-opacity:1"
         offset="1"
         id="stop13" />
    </linearGradient>
    <filter
       id="filter2917-3"
       x="-0.96181147"
       y="-0.66745996"
       width="2.9236229"
       height="2.3349199"
       color-interpolation-filters="sRGB">
      <feGaussianBlur
         stdDeviation="0.2871969"
         id="feGaussianBlur732-5" />
    </filter>
    <filter
       id="filter1"
       x="-0.96181148"
       y="-0.66745996"
       width="2.9236228"
       height="2.3349199"
       color-interpolation-filters="sRGB">
      <feGaussianBlur
         stdDeviation="0.2871969"
         id="feGaussianBlur1" />
    </filter>
    <filter
       id="filter2"
       x="-0.96181148"
       y="-0.66745996"
       width="2.9236228"
       height="2.3349199"
       color-interpolation-filters="sRGB">
      <feGaussianBlur
         stdDeviation="0.2871969"
         id="feGaussianBlur2" />
    </filter>
    <linearGradient
       id="l"
       x1="27.447001"
       x2="25.966"
       y1="289.76001"
       y2="289.76001"
       gradientTransform="matrix(0.94283,0,0,0.9628,-16.618,11.67)"
       gradientUnits="userSpaceOnUse">
      <stop
         stop-color="#1881ce"
         offset="0"
         id="stop19" />
      <stop
         stop-color="#2980b9"
         offset="1"
         id="stop21" />
    </linearGradient>
    <linearGradient
       id="j"
       x1="10.692"
       x2="34.026001"
       y1="14.134"
       y2="29.068001"
       gradientTransform="matrix(0.24946,0,0,0.25474,0.77251,285.56)"
       gradientUnits="userSpaceOnUse">
      <stop
         stop-color="#349cd2"
         offset="0"
         id="stop7" />
      <stop
         stop-color="#2694d9"
         offset=".74017"
         id="stop9" />
      <stop
         stop-color="#0e6daa"
         offset="1"
         id="stop11-3" />
    </linearGradient>
    <linearGradient
       id="k"
       x1="21.274"
       x2="27.447001"
       y1="291.29999"
       y2="287.35001"
       gradientTransform="matrix(0.94283,0,0,0.9628,-16.618,11.67)"
       gradientUnits="userSpaceOnUse">
      <stop
         stop-color="#1d99f3"
         offset="0"
         id="stop14" />
      <stop
         stop-color="#3daee9"
         offset="1"
         id="stop16" />
    </linearGradient>
    <linearGradient
       id="a"
       y1="61.200001"
       x1="-162.28999"
       y2="505.06"
       gradientUnits="userSpaceOnUse"
       x2="737.63"
       gradientTransform="matrix(0.06535,0.02041,-0.01819,0.05824,8.418,-1.328)">
      <stop
         stop-color="#fafafa"
         id="stop2-3" />
      <stop
         offset="1"
         stop-color="#939393"
         id="stop4" />
    </linearGradient>
    <linearGradient
       id="k-6"
       x1="12.950614"
       x2="7.7056513"
       y1="8.3288479"
       y2="8.2809086"
       gradientTransform="matrix(0.940734,0,0,2.116625,-5.1725024,-11.641438)"
       gradientUnits="userSpaceOnUse">
      <stop
         stop-color="#a1daff"
         offset="0"
         id="stop1" />
      <stop
         stop-color="#abebf9"
         stop-opacity="0"
         offset="1"
         id="stop2" />
    </linearGradient>
    <linearGradient
       id="linearGradient740"
       gradientUnits="userSpaceOnUse"
       x1="13.820312"
       x2="11"
       y1="14.820312"
       y2="12">
      <stop
         offset="0"
         stop-color="#197cf1"
         id="stop222-7" />
      <stop
         offset="1"
         stop-color="#20bcfa"
         stop-opacity="0"
         id="stop224-5" />
    </linearGradient>
    <linearGradient
       id="linearGradient744"
       gradientUnits="userSpaceOnUse"
       x1="7"
       x2="9"
       y1="16"
       y2="8">
      <stop
         offset="0"
         stop-color="#197cf1"
         id="stop217-3" />
      <stop
         offset="1"
         stop-color="#20bcfa"
         id="stop219-5" />
    </linearGradient>
    <linearGradient
       id="e"
       gradientUnits="userSpaceOnUse"
       x1="5.3750029"
       x2="14.75002"
       y1="7.0000119"
       y2="16.37501">
      <stop
         offset="0"
         id="stop233" />
      <stop
         offset="1"
         stop-opacity="0"
         id="stop235" />
    </linearGradient>
    <linearGradient
       inkscape:collect="always"
       xlink:href="#linearGradient4303"
       id="linearGradient1"
       gradientUnits="userSpaceOnUse"
       gradientTransform="matrix(0.26457811,0,0,0.26457811,-1.1659958,0.16509317)"
       x1="45"
       y1="42"
       x2="19"
       y2="22" />
    <linearGradient
       inkscape:collect="always"
       id="linearGradient4303">
      <stop
         id="stop3582"
         stop-color="#197cf1" />
      <stop
         id="stop3584"
         stop-color="#21c9fb"
         offset="1" />
    </linearGradient>
  </defs>
  <sodipodi:namedview
     id="namedview14"
     pagecolor="#000000"
     bordercolor="#666666"
     borderopacity="1.0"
     inkscape:showpageshadow="2"
     inkscape:pageopacity="0.0"
     inkscape:pagecheckerboard="0"
     inkscape:deskcolor="#d1d1d1"
     showgrid="true"
     inkscape:zoom="10.429825"
     inkscape:cx="19.846929"
     inkscape:cy="37.584523"
     inkscape:window-width="1920"
     inkscape:window-height="996"
     inkscape:window-x="0"
     inkscape:window-y="0"
     inkscape:window-maximized="1"
     inkscape:current-layer="svg12">
    <inkscape:grid
       type="xygrid"
       id="grid244"
       originx="9.7893915"
       originy="-31.749373"
       spacingy="1"
       spacingx="1"
       units="px"
       visible="true" />
  </sodipodi:namedview>
  <rect
     x="-12.025727"
     y="0.1490714"
     width="11.940627"
     height="11.936014"
     rx="1.6121091"
     stroke="url(#paint4_linear_77:23)"
     shape-rendering="crispEdges"
     id="rect5-6-7-3"
     ry="1.7735944"
     transform="matrix(0.00523883,-0.99998628,0.999988,0.00489859,0,0)"
     style="fill:#80b3ff;fill-opacity:0.15;stroke:url(#linearGradient13);stroke-width:0.188987;stroke-opacity:1" />
  <rect
     x="-3.7266586"
     y="4.6446943"
     width="7.912631"
     height="7.912384"
     rx="1.612043"
     shape-rendering="crispEdges"
     id="rect5-6-6-6-6"
     style="fill:#80b3ff;fill-opacity:0.122146;stroke:url(#linearGradient15);stroke-width:0.188987;stroke-opacity:1"
     ry="1.7735215"
     transform="matrix(0.72612649,-0.68756114,0.6879775,0.72573202,0,0)" />
  <path
     d="M 5.6693803,1.3493485 C 5.394576,1.4191395 2.8591526,3.8454518 1.561011,5.0824918 l 7.2211094,1e-4 c 0.0073,10e-8 0.013414,0.0038 0.020637,0.0041 L 10.410743,5.0644543 C 8.7809308,3.3431748 6.9846558,1.4719167 6.6186866,1.3493485 c -0.2882491,-0.096539 -0.5905494,-0.091112 -0.9493063,0 z"
     stroke-width="0.369034"
     id="path32-3-1"
     style="fill:#1f293d;fill-opacity:1"
     sodipodi:nodetypes="scsccss" />
  <rect
     width="0.79373437"
     height="0.79373437"
     x="8.3454218"
     y="3.9910939"
     rx="0.39686719"
     ry="0.39686719"
     style="fill:#fdfdfd;fill-opacity:1;fill-rule:evenodd;stroke-width:0.264578;stroke-linecap:round;stroke-linejoin:round;paint-order:stroke fill markers"
     id="rect3-3-3" />
  <path
     inkscape:connector-curvature="0"
     id="rect4144-7"
     d="M 5.2006797,6.1398112 V 7.1954828 H 7.136078 V 6.1398112 Z M 5.376625,6.3157562 H 6.9601327 V 7.0195378 H 5.376625 Z M 4.254974,6.5796747 c -0.060924,0 -0.1099658,0.049035 -0.1099658,0.1099659 0,0.060911 0.049044,0.1099658 0.1099658,0.1099658 0.060924,0 0.1099657,-0.049054 0.1099657,-0.1099658 0,-0.060932 -0.049044,-0.1099659 -0.1099657,-0.1099659 z m 3.6508645,0 c -0.060924,0 -0.1099657,0.049035 -0.1099657,0.1099659 0,0.060911 0.049044,0.1099658 0.1099657,0.1099658 0.060924,0 0.109966,-0.049054 0.109966,-0.1099658 0,-0.060932 -0.049046,-0.1099659 -0.109966,-0.1099659 z M 3.5951789,7.0195378 c -0.060924,0 -0.109966,0.049035 -0.109966,0.1099658 0,0.060911 0.049044,0.1099659 0.109966,0.1099659 0.060924,0 0.1099659,-0.049054 0.1099659,-0.1099659 0,-0.060932 -0.049042,-0.1099658 -0.1099659,-0.1099658 z m 4.9704545,0 c -0.060924,0 -0.1099659,0.049035 -0.1099659,0.1099658 0,0.060911 0.049045,0.1099659 0.1099659,0.1099659 0.060924,0 0.1099657,-0.049054 0.1099657,-0.1099659 0,-0.060932 -0.049045,-0.1099658 -0.1099657,-0.1099658 z M 3.3752471,7.6793324 c -0.060924,0 -0.1099657,0.049035 -0.1099657,0.109966 0,0.060911 0.049041,0.1099653 0.1099657,0.1099653 0.060924,0 0.1099658,-0.049053 0.1099658,-0.1099653 0,-0.060932 -0.049043,-0.109966 -0.1099658,-0.109966 z m 5.4103178,0 c -0.060924,0 -0.1099658,0.049035 -0.1099658,0.109966 0,0.060911 0.049045,0.1099653 0.1099658,0.1099653 0.060924,0 0.1099658,-0.049053 0.1099658,-0.1099653 0,-0.060932 -0.049044,-0.109966 -0.1099658,-0.109966 z M 4.9367618,8.1191971 4.7810906,8.2748525 5.2855593,8.7789932 H 4.7828097 4.5848715 v 0.219927 h 0.1979382 0.5027496 l -0.5044687,0.50447 0.1556712,0.155325 0.7240551,-0.724069 0.045703,-0.04571 -0.045703,-0.04539 z m 2.2872887,0 -0.7240553,0.7244021 -0.045702,0.04539 0.045702,0.04571 0.7240553,0.724066 0.1556713,-0.155342 -0.5044684,-0.504475 H 7.3780028 7.575941 v -0.21995 H 7.3780028 6.8752534 L 7.3797218,8.2748623 Z M 3.5951789,8.3391278 c -0.060924,0 -0.109966,0.049008 -0.109966,0.1099641 0,0.060914 0.049044,0.1099645 0.109966,0.1099645 0.060924,0 0.1099659,-0.049019 0.1099659,-0.1099645 0,-0.060922 -0.049042,-0.1099641 -0.1099659,-0.1099641 z m 4.9704545,0 c -0.060924,0 -0.1099659,0.049008 -0.1099659,0.1099641 0,0.060914 0.049045,0.1099645 0.1099659,0.1099645 0.060924,0 0.1099657,-0.049019 0.1099657,-0.1099645 0,-0.060922 -0.049045,-0.1099641 -0.1099657,-0.1099641 z M 4.254974,8.7789932 c -0.060924,0 -0.1099658,0.04902 -0.1099658,0.109964 0,0.06091 0.049044,0.109963 0.1099658,0.109963 0.060924,0 0.1099657,-0.04904 0.1099657,-0.109963 0,-0.06093 -0.049044,-0.109964 -0.1099657,-0.109964 z m 3.6508645,0 c -0.060924,0 -0.1099657,0.04902 -0.1099657,0.109964 0,0.06091 0.049044,0.109963 0.1099657,0.109963 0.060924,0 0.109966,-0.04904 0.109966,-0.109963 0,-0.06093 -0.049046,-0.109964 -0.109966,-0.109964 z"
     style="color:#4d4d4d;text-decoration:none;text-decoration-line:none;text-decoration-style:solid;text-decoration-color:#000000;clip-rule:nonzero;display:inline;overflow:visible;visibility:visible;isolation:auto;mix-blend-mode:normal;color-interpolation:sRGB;color-interpolation-filters:linearRGB;solid-color:#000000;solid-opacity:1;fill:url(#linearGradient1);fill-opacity:1;fill-rule:nonzero;stroke:none;stroke-width:0.264578;stroke-linecap:butt;stroke-linejoin:miter;stroke-miterlimit:4;stroke-dasharray:none;stroke-dashoffset:0;stroke-opacity:1;color-rendering:auto;image-rendering:auto;shape-rendering:auto;text-rendering:auto;enable-background:accumulate" />
  <rect
     width="9.2073193"
     x="1.3927393"
     y="5.0269847"
     rx="0"
     height="0.25329304"
     id="rect27-9-9"
     style="fill:#3daee9;fill-opacity:1;stroke-width:0.0241136" />
</svg>
