<?xml version="1.0" encoding="UTF-8" standalone="no"?>
<svg
   width="45.999886"
   height="45.999989"
   version="1.1"
   viewBox="0 0 12.170564 12.170591"
   id="svg12"
   sodipodi:docname="preferences-system-windows-effect-magnifier.svg"
   inkscape:version="1.3.2 (091e20ef0f, 2023-11-25)"
   xmlns:inkscape="http://www.inkscape.org/namespaces/inkscape"
   xmlns:sodipodi="http://sodipodi.sourceforge.net/DTD/sodipodi-0.dtd"
   xmlns:xlink="http://www.w3.org/1999/xlink"
   xmlns="http://www.w3.org/2000/svg"
   xmlns:svg="http://www.w3.org/2000/svg">
  <defs
     id="defs16">
    <linearGradient
       id="c"
       y1="523.79999"
       x1="403.57001"
       y2="536.79999"
       x2="416.57001"
       gradientUnits="userSpaceOnUse"
       gradientTransform="matrix(0.34526714,0,0,0.34526706,-134.80427,-174.63325)">
      <stop
         stop-color="#292c2f"
         id="stop1568" />
      <stop
         offset="1"
         stop-opacity="0"
         id="stop1570" />
    </linearGradient>
    <linearGradient
       xlink:href="#b-2"
       id="linearGradient4189"
       x1="14.369"
       y1="22.521999"
       x2="26.521999"
       y2="22.521999"
       gradientUnits="userSpaceOnUse" />
    <linearGradient
       x1="36"
       gradientUnits="userSpaceOnUse"
       x2="14"
       y2="12"
       y1="44"
       id="b-2">
      <stop
         style="stop-color:#bfc9c9;stop-opacity:1"
         stop-color="#536161"
         id="stop1579" />
      <stop
         style="stop-color:#fbfbfb;stop-opacity:1"
         stop-color="#f4f5f5"
         offset="1"
         id="stop1581" />
    </linearGradient>
    <linearGradient
       xlink:href="#b-2"
       id="linearGradient4428"
       gradientUnits="userSpaceOnUse"
       x1="31.586"
       y1="36.345001"
       x2="1.2029999"
       y2="6.723" />
    <linearGradient
       xlink:href="#b-2"
       id="linearGradient4189-3"
       x1="14.369"
       y1="22.521999"
       x2="26.521999"
       y2="22.521999"
       gradientUnits="userSpaceOnUse"
       gradientTransform="translate(20.841982,61.553822)" />
    <linearGradient
       xlink:href="#b-2"
       id="linearGradient4428-5"
       gradientUnits="userSpaceOnUse"
       x1="31.586"
       y1="36.345001"
       x2="1.2029999"
       y2="6.723"
       gradientTransform="translate(20.841982,61.553822)" />
    <linearGradient
       xlink:href="#b-2"
       id="linearGradient4189-3-3"
       x1="14.369"
       y1="22.521999"
       x2="26.521999"
       y2="22.521999"
       gradientUnits="userSpaceOnUse"
       gradientTransform="translate(4.376802,4.4211693)" />
    <linearGradient
       xlink:href="#b-2"
       id="linearGradient4428-5-5"
       gradientUnits="userSpaceOnUse"
       x1="31.586"
       y1="36.345001"
       x2="1.2029999"
       y2="6.723"
       gradientTransform="translate(4.376802,4.4211693)" />
    <linearGradient
       inkscape:collect="always"
       xlink:href="#linearGradient11"
       id="linearGradient13"
       x1="-43.819283"
       y1="23.120178"
       x2="-1.9547797"
       y2="23.120178"
       gradientUnits="userSpaceOnUse"
       gradientTransform="scale(0.26457813)" />
    <linearGradient
       id="linearGradient11"
       inkscape:collect="always">
      <stop
         style="stop-color:#5599ff;stop-opacity:1"
         offset="0"
         id="stop4-3" />
      <stop
         style="stop-color:#00ccff;stop-opacity:1"
         offset="1"
         id="stop11" />
    </linearGradient>
    <linearGradient
       inkscape:collect="always"
       xlink:href="#linearGradient14"
       id="linearGradient15"
       x1="-9.6850061"
       y1="45.161198"
       x2="11.98815"
       y2="21.735205"
       gradientUnits="userSpaceOnUse"
       gradientTransform="scale(0.26457813)" />
    <linearGradient
       id="linearGradient14"
       inkscape:collect="always">
      <stop
         style="stop-color:#80b3ff;stop-opacity:1"
         offset="0"
         id="stop12" />
      <stop
         style="stop-color:#00ccff;stop-opacity:1"
         offset="1"
         id="stop13" />
    </linearGradient>
    <filter
       id="filter2917-3"
       x="-0.96181147"
       y="-0.66745996"
       width="2.9236229"
       height="2.3349199"
       color-interpolation-filters="sRGB">
      <feGaussianBlur
         stdDeviation="0.2871969"
         id="feGaussianBlur732-5" />
    </filter>
    <filter
       id="filter1"
       x="-0.96181148"
       y="-0.66745996"
       width="2.9236228"
       height="2.3349199"
       color-interpolation-filters="sRGB">
      <feGaussianBlur
         stdDeviation="0.2871969"
         id="feGaussianBlur1" />
    </filter>
    <filter
       id="filter2"
       x="-0.96181148"
       y="-0.66745996"
       width="2.9236228"
       height="2.3349199"
       color-interpolation-filters="sRGB">
      <feGaussianBlur
         stdDeviation="0.2871969"
         id="feGaussianBlur2" />
    </filter>
    <linearGradient
       id="l"
       x1="27.447001"
       x2="25.966"
       y1="289.76001"
       y2="289.76001"
       gradientTransform="matrix(0.94283,0,0,0.9628,-16.618,11.67)"
       gradientUnits="userSpaceOnUse">
      <stop
         stop-color="#1881ce"
         offset="0"
         id="stop19" />
      <stop
         stop-color="#2980b9"
         offset="1"
         id="stop21" />
    </linearGradient>
    <linearGradient
       id="j"
       x1="10.692"
       x2="34.026001"
       y1="14.134"
       y2="29.068001"
       gradientTransform="matrix(0.24946,0,0,0.25474,0.77251,285.56)"
       gradientUnits="userSpaceOnUse">
      <stop
         stop-color="#349cd2"
         offset="0"
         id="stop7" />
      <stop
         stop-color="#2694d9"
         offset=".74017"
         id="stop9" />
      <stop
         stop-color="#0e6daa"
         offset="1"
         id="stop11-3" />
    </linearGradient>
    <linearGradient
       id="k"
       x1="21.274"
       x2="27.447001"
       y1="291.29999"
       y2="287.35001"
       gradientTransform="matrix(0.94283,0,0,0.9628,-16.618,11.67)"
       gradientUnits="userSpaceOnUse">
      <stop
         stop-color="#1d99f3"
         offset="0"
         id="stop14" />
      <stop
         stop-color="#3daee9"
         offset="1"
         id="stop16" />
    </linearGradient>
    <linearGradient
       id="a"
       y1="61.200001"
       x1="-162.28999"
       y2="505.06"
       gradientUnits="userSpaceOnUse"
       x2="737.63"
       gradientTransform="matrix(0.06535,0.02041,-0.01819,0.05824,8.418,-1.328)">
      <stop
         stop-color="#fafafa"
         id="stop2-3" />
      <stop
         offset="1"
         stop-color="#939393"
         id="stop4" />
    </linearGradient>
    <linearGradient
       id="k-6"
       x1="12.950614"
       x2="7.7056513"
       y1="8.3288479"
       y2="8.2809086"
       gradientTransform="matrix(0.940734,0,0,2.116625,-5.1725024,-11.641438)"
       gradientUnits="userSpaceOnUse">
      <stop
         stop-color="#a1daff"
         offset="0"
         id="stop1" />
      <stop
         stop-color="#abebf9"
         stop-opacity="0"
         offset="1"
         id="stop2" />
    </linearGradient>
    <linearGradient
       id="linearGradient740"
       gradientUnits="userSpaceOnUse"
       x1="13.820312"
       x2="11"
       y1="14.820312"
       y2="12">
      <stop
         offset="0"
         stop-color="#197cf1"
         id="stop222-7" />
      <stop
         offset="1"
         stop-color="#20bcfa"
         stop-opacity="0"
         id="stop224-5" />
    </linearGradient>
    <linearGradient
       id="linearGradient744"
       gradientUnits="userSpaceOnUse"
       x1="7"
       x2="9"
       y1="16"
       y2="8">
      <stop
         offset="0"
         stop-color="#197cf1"
         id="stop217-3" />
      <stop
         offset="1"
         stop-color="#20bcfa"
         id="stop219-5" />
    </linearGradient>
    <linearGradient
       id="e"
       gradientUnits="userSpaceOnUse"
       x1="5.3750029"
       x2="14.75002"
       y1="7.0000119"
       y2="16.37501">
      <stop
         offset="0"
         id="stop233" />
      <stop
         offset="1"
         stop-opacity="0"
         id="stop235" />
    </linearGradient>
    <linearGradient
       y2="502.65509"
       x2="0"
       y1="543.79797"
       gradientTransform="matrix(1.1171604,0,0,1.0644025,-461.35623,523.83336)"
       gradientUnits="userSpaceOnUse"
       id="linearGradient4643-8-2-8-02-9-9"
       xlink:href="#linearGradient4303-6"
       inkscape:collect="always" />
    <linearGradient
       inkscape:collect="always"
       id="linearGradient4303-6">
      <stop
         stop-color="#c6cdd1"
         id="stop12-3" />
      <stop
         offset="1"
         stop-color="#e0e5e7"
         id="stop14-6" />
    </linearGradient>
    <linearGradient
       inkscape:collect="always"
       xlink:href="#linearGradient4303"
       id="linearGradient5"
       gradientUnits="userSpaceOnUse"
       gradientTransform="matrix(-0.83787002,0,0,0.83787002,751.71018,876.98001)"
       x1="759.85718"
       y1="179.93361"
       x2="779.85718"
       y2="199.93361" />
    <linearGradient
       inkscape:collect="always"
       id="linearGradient4303">
      <stop
         id="stop3582"
         stop-color="#197cf1" />
      <stop
         id="stop3584"
         stop-color="#21c9fb"
         offset="1" />
    </linearGradient>
    <linearGradient
       inkscape:collect="always"
       xlink:href="#linearGradient4303"
       id="linearGradient6"
       gradientUnits="userSpaceOnUse"
       gradientTransform="matrix(0.83787002,0,0,0.83787002,-537.53256,675.89127)"
       x1="800.85718"
       y1="412.93362"
       x2="790.85718"
       y2="402.93362" />
    <linearGradient
       inkscape:collect="always"
       xlink:href="#linearGradient9932"
       id="linearGradient8"
       gradientUnits="userSpaceOnUse"
       gradientTransform="matrix(0.83787002,0,0,0.83787002,79.858023,808.21908)"
       x1="26"
       y1="262.30957"
       x2="62"
       y2="262.30957" />
    <linearGradient
       inkscape:collect="always"
       id="linearGradient9932">
      <stop
         style="stop-color:#ffa92d;stop-opacity:1;"
         offset="0"
         id="stop9934" />
      <stop
         style="stop-color:#ffa92d;stop-opacity:0;"
         offset="1"
         id="stop9936" />
    </linearGradient>
    <linearGradient
       inkscape:collect="always"
       xlink:href="#linearGradient4303"
       id="linearGradient1"
       gradientUnits="userSpaceOnUse"
       gradientTransform="matrix(-0.83787002,0,0,0.83787002,751.71018,876.98001)"
       x1="759.85718"
       y1="179.93361"
       x2="779.85718"
       y2="199.93361" />
  </defs>
  <sodipodi:namedview
     id="namedview14"
     pagecolor="#000000"
     bordercolor="#666666"
     borderopacity="1.0"
     inkscape:showpageshadow="2"
     inkscape:pageopacity="0.0"
     inkscape:pagecheckerboard="0"
     inkscape:deskcolor="#d1d1d1"
     showgrid="true"
     inkscape:zoom="10.429825"
     inkscape:cx="19.846929"
     inkscape:cy="45.254834"
     inkscape:window-width="1920"
     inkscape:window-height="996"
     inkscape:window-x="0"
     inkscape:window-y="0"
     inkscape:window-maximized="1"
     inkscape:current-layer="svg12">
    <inkscape:grid
       type="xygrid"
       id="grid244"
       originx="9.7893915"
       originy="-31.749373"
       spacingy="1"
       spacingx="1"
       units="px"
       visible="true" />
  </sodipodi:namedview>
  <rect
     x="-12.025727"
     y="0.1490714"
     width="11.940627"
     height="11.936014"
     rx="1.6121091"
     stroke="url(#paint4_linear_77:23)"
     shape-rendering="crispEdges"
     id="rect5-6-7-3"
     ry="1.7735944"
     transform="matrix(0.00523883,-0.99998628,0.999988,0.00489859,0,0)"
     style="fill:#80b3ff;fill-opacity:0.15;stroke:url(#linearGradient13);stroke-width:0.188987;stroke-opacity:1" />
  <rect
     x="-3.7266586"
     y="4.6446943"
     width="7.912631"
     height="7.912384"
     rx="1.612043"
     shape-rendering="crispEdges"
     id="rect5-6-6-6-6"
     style="fill:#80b3ff;fill-opacity:0.122146;stroke:url(#linearGradient15);stroke-width:0.188987;stroke-opacity:1"
     ry="1.7735215"
     transform="matrix(0.72612649,-0.68756114,0.6879775,0.72573202,0,0)" />
  <path
     d="M 5.6693803,1.3493485 C 5.394576,1.4191395 2.8591526,3.8454518 1.561011,5.0824918 l 7.2211094,1e-4 c 0.0073,10e-8 0.013414,0.0038 0.020637,0.0041 L 10.410743,5.0644543 C 8.7809308,3.3431748 6.9846558,1.4719167 6.6186866,1.3493485 c -0.2882491,-0.096539 -0.5905494,-0.091112 -0.9493063,0 z"
     stroke-width="0.369034"
     id="path32-3-1"
     style="fill:#1f293d;fill-opacity:1"
     sodipodi:nodetypes="scsccss" />
  <rect
     width="0.79373437"
     height="0.79373437"
     x="8.3454218"
     y="3.9910939"
     rx="0.39686719"
     ry="0.39686719"
     style="fill:#fdfdfd;fill-opacity:1;fill-rule:evenodd;stroke-width:0.264578;stroke-linecap:round;stroke-linejoin:round;paint-order:stroke fill markers"
     id="rect3-3-3" />
  <rect
     width="9.2073193"
     x="1.3927393"
     y="5.0456629"
     rx="0"
     height="0.25329304"
     id="rect27-9-9"
     style="fill:#3daee9;fill-opacity:1;stroke-width:0.0241136" />
  <g
     id="g4"
     transform="matrix(0.18228809,0,0,0.18228809,-13.286718,-179.36448)"
     style="stroke-width:1.45141">
    <rect
       style="fill:#eff0f1;stroke-width:0.837869"
       id="rect43-4-4-9-8"
       rx="1.675741"
       y="1014.759"
       x="112.30674"
       height="2.3090925"
       width="2.3090925"
       ry="1.675741" />
    <path
       inkscape:connector-curvature="0"
       id="rect29-9-0-6-2-4"
       d="m 94.919769,1024.5722 a 5.195455,5.195455 0 0 0 -2.817584,4.6182 5.195455,5.195455 0 0 0 5.195452,5.1957 5.195455,5.195455 0 0 0 5.195463,-5.1957 5.195455,5.195455 0 0 0 -2.826607,-4.6182 z"
       style="fill:url(#linearGradient4643-8-2-8-02-9-9);stroke-width:0.837869" />
    <path
       sodipodi:nodetypes="cccccccc"
       inkscape:connector-curvature="0"
       id="rect35-3-2-6-2-5"
       d="m 94.549845,1024.5722 c -1.729788,0.8908 -2.645658,2.6734 -2.646093,4.6182 5.73e-4,0.8015 0.385085,1.5917 0.741883,2.3088 h 9.299505 c 0.35836,-0.7168 0.74433,-1.4888 0.7464,-2.2905 -0.002,-1.9477 -0.77424,-3.7486 -2.50753,-4.6365 -0.325464,-0.5807 -1.951373,-0.8308 -2.886373,-1.1543 z"
       style="fill:#566069;stroke-width:0.837869" />
    <path
       inkscape:connector-curvature="0"
       id="rect37-7-4-1-8-0"
       d="m 92.645635,1031.4992 a 5.195455,5.195455 0 0 0 0.788107,1.155 h 7.728918 a 5.195455,5.195455 0 0 0 0.78248,-1.155 z"
       style="fill:#3daee9;stroke-width:0.837869" />
    <rect
       style="fill:#eff0f1;stroke-width:0.837869"
       id="rect43-4-8-5-9-3"
       rx="3.3514769"
       y="1025.7267"
       x="96.143089"
       height="4.6181774"
       width="4.6181774"
       ry="3.3514769" />
    <path
       inkscape:connector-curvature="0"
       id="path5346-7-4-5-7-6"
       d="m 97.297637,1023.4179 a 5.7727274,5.7727274 0 0 0 -5.772726,5.7725 5.7727274,5.7727274 0 0 0 5.772726,5.773 5.7727274,5.7727274 0 0 0 3.868413,-1.4962 l 5.53708,5.5369 0.40815,-0.4082 -5.53709,-5.5372 a 5.7727274,5.7727274 0 0 0 1.49618,-3.8683 5.7727274,5.7727274 0 0 0 -5.772733,-5.7725 z m 0,0.5769 a 5.195455,5.195455 0 0 1 5.195463,5.1956 5.195455,5.195455 0 0 1 -5.195463,5.1957 5.195455,5.195455 0 0 1 -5.195452,-5.1957 5.195455,5.195455 0 0 1 5.195452,-5.1956 z"
       style="fill:url(#linearGradient1);fill-opacity:1;stroke:none;stroke-width:1.67569;stroke-miterlimit:4;stroke-dasharray:none;stroke-opacity:1" />
    <path
       inkscape:connector-curvature="0"
       id="path5635-7-3-1"
       d="m 112.88401,1013.6041 a 2.8863638,2.8863638 0 0 0 -2.88637,2.8862 2.8863638,2.8863638 0 0 0 2.88637,2.8865 2.8863638,2.8863638 0 0 0 2.88636,-2.8865 2.8863638,2.8863638 0 0 0 -2.88636,-2.8862 z m 0,0.5774 a 2.3090907,2.3090907 0 0 1 2.30909,2.3088 2.3090907,2.3090907 0 0 1 -2.30909,2.3089 2.3090907,2.3090907 0 0 1 -2.30909,-2.3089 2.3090907,2.3090907 0 0 1 2.30909,-2.3088 z"
       style="fill:url(#linearGradient6);fill-opacity:1;stroke:none;stroke-width:1.67569;stroke-miterlimit:4;stroke-dasharray:none;stroke-opacity:1" />
    <path
       inkscape:connector-curvature="0"
       id="path5346-7-4-5-9-6-0"
       d="m 97.297637,1023.4179 a 5.7727274,5.7727274 0 0 0 -5.772726,5.7725 5.7727274,5.7727274 0 0 0 5.772726,5.773 5.7727274,5.7727274 0 0 0 3.868413,-1.4962 l 5.53708,5.5369 0.40815,-0.4082 -5.53709,-5.5372 a 5.7727274,5.7727274 0 0 0 1.49618,-3.8683 5.7727274,5.7727274 0 0 0 -5.772733,-5.7725 z m 0,0.5769 a 5.195455,5.195455 0 0 1 5.195463,5.1956 5.195455,5.195455 0 0 1 -5.195463,5.1957 5.195455,5.195455 0 0 1 -5.195452,-5.1957 5.195455,5.195455 0 0 1 5.195452,-5.1956 z"
       style="fill:url(#linearGradient5);fill-opacity:1;stroke:none;stroke-width:1.67569;stroke-miterlimit:4;stroke-dasharray:none;stroke-opacity:1" />
    <path
       inkscape:connector-curvature="0"
       id="path9924-1-6"
       d="m 110.57492,1014.7591 -15.67319,9.1876 a 5.7727274,5.7727274 0 0 1 2.395907,-0.5288 5.7727274,5.7727274 0 0 1 5.772733,5.7725 5.7727274,5.7727274 0 0 1 -0.99783,3.2441 l 12.54328,-13.6353 h -0.002 a 2.8863638,2.8863638 0 0 1 -1.72956,0.5801 2.8863638,2.8863638 0 0 1 -2.88636,-2.8865 2.8863638,2.8863638 0 0 1 0.57953,-1.7297 h -0.002 z m -16.687929,9.7816 -0.053,0.029 0.0034,0.01 a 5.7727274,5.7727274 0 0 1 0.04955,-0.036 z"
       style="fill:url(#linearGradient8);fill-opacity:1;fill-rule:evenodd;stroke:none;stroke-width:0.837869px;stroke-linecap:butt;stroke-linejoin:miter;stroke-opacity:1" />
  </g>
</svg>
