<?xml version="1.0" encoding="UTF-8" standalone="no"?>
<svg
   width="45.999886"
   height="45.999989"
   version="1.1"
   viewBox="0 0 12.170564 12.170591"
   id="svg12"
   sodipodi:docname="financial-forecast.svg"
   inkscape:version="1.3.2 (091e20ef0f, 2023-11-25)"
   xmlns:inkscape="http://www.inkscape.org/namespaces/inkscape"
   xmlns:sodipodi="http://sodipodi.sourceforge.net/DTD/sodipodi-0.dtd"
   xmlns:xlink="http://www.w3.org/1999/xlink"
   xmlns="http://www.w3.org/2000/svg"
   xmlns:svg="http://www.w3.org/2000/svg">
  <defs
     id="defs16">
    <linearGradient
       id="c"
       y1="523.79999"
       x1="403.57001"
       y2="536.79999"
       x2="416.57001"
       gradientUnits="userSpaceOnUse"
       gradientTransform="matrix(0.34526714,0,0,0.34526706,-134.80427,-174.63325)">
      <stop
         stop-color="#292c2f"
         id="stop1568" />
      <stop
         offset="1"
         stop-opacity="0"
         id="stop1570" />
    </linearGradient>
    <linearGradient
       xlink:href="#b-2"
       id="linearGradient4189"
       x1="14.369"
       y1="22.521999"
       x2="26.521999"
       y2="22.521999"
       gradientUnits="userSpaceOnUse" />
    <linearGradient
       x1="36"
       gradientUnits="userSpaceOnUse"
       x2="14"
       y2="12"
       y1="44"
       id="b-2">
      <stop
         style="stop-color:#bfc9c9;stop-opacity:1"
         stop-color="#536161"
         id="stop1579" />
      <stop
         style="stop-color:#fbfbfb;stop-opacity:1"
         stop-color="#f4f5f5"
         offset="1"
         id="stop1581" />
    </linearGradient>
    <linearGradient
       xlink:href="#b-2"
       id="linearGradient4428"
       gradientUnits="userSpaceOnUse"
       x1="31.586"
       y1="36.345001"
       x2="1.2029999"
       y2="6.723" />
    <linearGradient
       xlink:href="#b-2"
       id="linearGradient4189-3"
       x1="14.369"
       y1="22.521999"
       x2="26.521999"
       y2="22.521999"
       gradientUnits="userSpaceOnUse"
       gradientTransform="translate(20.841982,61.553822)" />
    <linearGradient
       xlink:href="#b-2"
       id="linearGradient4428-5"
       gradientUnits="userSpaceOnUse"
       x1="31.586"
       y1="36.345001"
       x2="1.2029999"
       y2="6.723"
       gradientTransform="translate(20.841982,61.553822)" />
    <linearGradient
       xlink:href="#b-2"
       id="linearGradient4189-3-3"
       x1="14.369"
       y1="22.521999"
       x2="26.521999"
       y2="22.521999"
       gradientUnits="userSpaceOnUse"
       gradientTransform="translate(4.376802,4.4211693)" />
    <linearGradient
       xlink:href="#b-2"
       id="linearGradient4428-5-5"
       gradientUnits="userSpaceOnUse"
       x1="31.586"
       y1="36.345001"
       x2="1.2029999"
       y2="6.723"
       gradientTransform="translate(4.376802,4.4211693)" />
    <linearGradient
       inkscape:collect="always"
       xlink:href="#linearGradient11"
       id="linearGradient13"
       x1="-43.819283"
       y1="23.120178"
       x2="-1.9547797"
       y2="23.120178"
       gradientUnits="userSpaceOnUse"
       gradientTransform="scale(0.26457813)" />
    <linearGradient
       id="linearGradient11"
       inkscape:collect="always">
      <stop
         style="stop-color:#9955ff;stop-opacity:0.65640396;"
         offset="0"
         id="stop4-3" />
      <stop
         style="stop-color:#00ccff;stop-opacity:1"
         offset="1"
         id="stop11" />
    </linearGradient>
    <linearGradient
       inkscape:collect="always"
       xlink:href="#linearGradient14"
       id="linearGradient15"
       x1="-9.6850061"
       y1="45.161198"
       x2="11.98815"
       y2="21.735205"
       gradientUnits="userSpaceOnUse"
       gradientTransform="scale(0.26457813)" />
    <linearGradient
       id="linearGradient14"
       inkscape:collect="always">
      <stop
         style="stop-color:#9955ff;stop-opacity:0.45197046;"
         offset="0"
         id="stop12" />
      <stop
         style="stop-color:#00ccff;stop-opacity:1"
         offset="1"
         id="stop13" />
    </linearGradient>
  </defs>
  <sodipodi:namedview
     id="namedview14"
     pagecolor="#000000"
     bordercolor="#666666"
     borderopacity="1.0"
     inkscape:showpageshadow="2"
     inkscape:pageopacity="0.0"
     inkscape:pagecheckerboard="0"
     inkscape:deskcolor="#d1d1d1"
     showgrid="false"
     inkscape:zoom="10.429825"
     inkscape:cx="22.627417"
     inkscape:cy="15.100924"
     inkscape:window-width="1920"
     inkscape:window-height="996"
     inkscape:window-x="0"
     inkscape:window-y="0"
     inkscape:window-maximized="1"
     inkscape:current-layer="svg12">
    <inkscape:grid
       type="xygrid"
       id="grid244"
       originx="9.7893915"
       originy="-31.749373"
       spacingy="1"
       spacingx="1"
       units="px"
       visible="false" />
  </sodipodi:namedview>
  <rect
     x="-12.025727"
     y="0.1490714"
     width="11.940627"
     height="11.936014"
     rx="1.6121091"
     stroke="url(#paint4_linear_77:23)"
     shape-rendering="crispEdges"
     id="rect5-6-7-3"
     ry="1.7735944"
     transform="matrix(0.00523883,-0.99998628,0.999988,0.00489859,0,0)"
     style="fill:#80b3ff;fill-opacity:0.15;stroke:url(#linearGradient13);stroke-width:0.188987;stroke-opacity:1" />
  <rect
     x="-3.7266586"
     y="4.6446943"
     width="7.912631"
     height="7.912384"
     rx="1.612043"
     shape-rendering="crispEdges"
     id="rect5-6-6-6-6"
     style="fill:#80b3ff;fill-opacity:0.122146;stroke:url(#linearGradient15);stroke-width:0.188987;stroke-opacity:1"
     ry="1.7735215"
     transform="matrix(0.72612649,-0.68756114,0.6879775,0.72573202,0,0)" />
  <path
     id="path5"
     class="ColorScheme-Text"
     d="M 4.3141996,6.2887354 A 1.4691347,1.4603375 0 0 1 6.4689297,4.3416207"
     stroke="currentColor"
     stroke-width="0.3"
     fill="none"
     style="color:#fcfcfc;stroke-linejoin:bevel;stroke:#ffd42a;stroke-opacity:1" />
  <path
     d="m 2.9103595,5.4612156 h 0.816185"
     fill="none"
     stroke="currentColor"
     stroke-width="0.529156"
     id="suncl"
     style="color:#fcfcfc;stroke-linejoin:bevel;stroke:#ffd42a;stroke-opacity:1" />
  <use
     transform="matrix(0.80901699,0.58426538,-0.59132632,0.80901699,4.2839953,-2.1834051)"
     href="#suncl"
     id="use1"
     style="color:#fcfcfc;stroke-width:1.62567;stroke-linejoin:bevel"
     x="0"
     y="0" />
  <use
     transform="matrix(0.30901699,0.94536125,-0.9567861,0.30901699,9.0409261,-1.4468277)"
     href="#suncl"
     id="use2"
     style="color:#fcfcfc;stroke-width:1.62567;stroke-linejoin:bevel;stroke:#ffd42a;stroke-opacity:1"
     x="0"
     y="0" />
  <use
     transform="matrix(-0.30901699,0.94536125,-0.9567861,-0.30901699,12.453806,1.9283859)"
     href="#suncl"
     id="use3"
     style="color:#fcfcfc;stroke-width:1.62567;stroke-linejoin:bevel;stroke:none;stroke-opacity:1"
     x="0"
     y="0" />
  <use
     transform="matrix(-0.80901699,0.58426538,-0.59132632,-0.80901699,13.219035,6.6530182)"
     href="#suncl"
     id="use4"
     style="color:#fcfcfc;stroke-width:1.62567;stroke-linejoin:bevel"
     x="0"
     y="0" />
  <path
     class="ColorScheme-Text"
     id="cloud"
     d="M 7.8074741,7.8951104 H 8.1339477 A 1.14266,1.1358169 0 0 0 8.2890235,5.6364457 H 7.7993121 A 1.4691347,1.4603375 0 0 0 6.3383398,4.3253985 1.4691347,1.4603375 0 0 0 4.9736773,6.3228111 0.8161855,0.81129866 0 1 0 4.7076007,7.8951104 h 0.163237"
     fill="none"
     stroke="currentColor"
     stroke-width="0.4"
     style="color:#fcfcfc;stroke-linejoin:bevel;stroke:#55ddff;stroke-opacity:1" />
  <path
     id="wind1"
     class="ColorScheme-Text"
     d="M 5.1956798,6.759292 H 6.9912889 A 0.48971144,0.48677899 0 1 0 6.501577,6.2725043"
     stroke="currentColor"
     stroke-width="0.3"
     fill="none"
     style="color:#fcfcfc;stroke-linejoin:bevel" />
  <path
     id="wind2"
     class="ColorScheme-Text"
     d="M 4.705968,7.2460657 H 8.297186 A 0.48971144,0.48677899 0 1 0 7.8074741,6.759292"
     stroke="currentColor"
     stroke-width="0.3"
     fill="none"
     style="color:#fcfcfc;stroke-linejoin:bevel" />
  <path
     id="wind3"
     class="ColorScheme-Text"
     d="M 5.0324425,7.7328542 H 6.9912889 A 0.48971144,0.48677899 0 1 1 6.501577,8.2196212"
     stroke="currentColor"
     stroke-width="0.3"
     fill="none"
     style="color:#fcfcfc;stroke-linejoin:bevel" />
  <path
     d="m 11.410301,10.243411 c -0.02114,-0.06444 -0.05339,-0.124962 -0.09689,-0.181451 -0.04349,-0.05642 -0.09752,-0.1065485 -0.16211,-0.1503436 -0.06466,-0.043759 -0.140387,-0.0783 -0.227312,-0.1036822 -0.03489,-0.00918 -0.09613,-0.02361 -0.176845,-0.043206 -0.05771,-0.013966 -0.111787,-0.028284 -0.172752,-0.042864 V 9.0100799 c 0.06099,0.016135 0.10332,0.041751 0.148539,0.070217 0.09674,0.060855 0.15739,0.1649801 0.175154,0.306363 h 0.468634 C 11.361612,9.2654761 11.3352,9.1661043 11.28546,9.0768307 11.23084,8.9789207 11.156902,8.8948921 11.063726,8.8280229 10.970576,8.7612245 10.85896,8.7102719 10.735988,8.6768448 10.682644,8.662344 10.635383,8.6501507 10.574413,8.6419427 v -0.224771 h -0.43358 v 0.2232977 c -0.04748,0.00704 -0.102626,0.016465 -0.1519272,0.028614 -0.116815,0.028832 -0.2194162,0.073169 -0.3112991,0.1330614 -0.091949,0.059946 -0.164979,0.1354063 -0.2208892,0.2263958 -0.05589,0.091043 -0.083387,0.1987443 -0.083387,0.3231605 0,0.064536 0.00955,0.1278712 0.028129,0.1900934 0.018671,0.062215 0.050384,0.1209637 0.095135,0.1762656 0.044731,0.055308 0.1049751,0.1054175 0.1807948,0.1503519 0.075764,0.044935 0.1673678,0.08122 0.2816556,0.1088708 0.062878,0.015773 0.1275641,0.030506 0.1817661,0.044254 v 0.805124 c -0.0745,-0.01964 -0.1482773,-0.04979 -0.2078184,-0.09074 -0.062148,-0.0426 -0.108845,-0.09394 -0.1436117,-0.1608 -0.032386,-0.06213 -0.047923,-0.138193 -0.050145,-0.218983 H 9.2736888 c 0.00546,0.141378 0.035571,0.265897 0.092631,0.372789 0.05959,0.111785 0.1391012,0.201706 0.238487,0.273085 0.099336,0.07145 0.2126765,0.12358 0.3468527,0.158154 0.06017,0.01549 0.1282075,0.02667 0.1891885,0.03519 v 0.23797 h 0.433575 v -0.232538 c 0.06779,-0.0071 0.128419,-0.01808 0.193255,-0.03285 0.126695,-0.02875 0.24148,-0.07429 0.340879,-0.136507 0.09933,-0.06221 0.180342,-0.142247 0.241254,-0.240225 0.06086,-0.0979 0.09176,-0.21601 0.09176,-0.354259 10e-6,-0.06445 -0.01009,-0.129023 -0.03129,-0.193556 z M 10.140821,9.6135371 C 10.059535,9.588334 9.9788263,9.5523538 9.9236859,9.5054945 9.8653237,9.455976 9.8378362,9.3874446 9.8378362,9.2998479 c 0,-0.062213 0.016393,-0.1140492 0.047517,-0.1555345 0.031062,-0.041473 0.067129,-0.07431 0.1143511,-0.098503 0.041862,-0.021476 0.09377,-0.037462 0.1411827,-0.048053 z m 0.805513,1.0083459 c -0.01994,0.04496 -0.0522,0.08466 -0.0969,0.11924 -0.04471,0.03457 -0.106659,0.06283 -0.178686,0.08467 -0.03045,0.0094 -0.05566,0.01645 -0.09636,0.02181 v -0.721129 c 0.06779,0.01766 0.123157,0.03592 0.17834,0.05474 0.05455,0.01847 0.106689,0.05009 0.152685,0.09503 0.04602,0.04498 0.06979,0.114662 0.06979,0.209115 6e-6,0.04614 -0.0091,0.0916 -0.029,0.136526 z"
     id="path25907-1-5-7"
     style="fill:#2ca05a;fill-opacity:1;stroke-width:0.00947838" />
</svg>
