<?xml version="1.0" encoding="UTF-8" standalone="no"?>
<svg
   width="45.999886"
   height="45.999989"
   version="1.1"
   viewBox="0 0 12.170564 12.170591"
   id="svg12"
   sodipodi:docname="kdiff3.svg"
   inkscape:version="1.3.2 (091e20ef0f, 2023-11-25)"
   xmlns:inkscape="http://www.inkscape.org/namespaces/inkscape"
   xmlns:sodipodi="http://sodipodi.sourceforge.net/DTD/sodipodi-0.dtd"
   xmlns:xlink="http://www.w3.org/1999/xlink"
   xmlns="http://www.w3.org/2000/svg"
   xmlns:svg="http://www.w3.org/2000/svg">
  <defs
     id="defs16">
    <linearGradient
       id="c"
       y1="523.79999"
       x1="403.57001"
       y2="536.79999"
       x2="416.57001"
       gradientUnits="userSpaceOnUse"
       gradientTransform="matrix(0.34526714,0,0,0.34526706,-134.80427,-174.63325)">
      <stop
         stop-color="#292c2f"
         id="stop1568" />
      <stop
         offset="1"
         stop-opacity="0"
         id="stop1570" />
    </linearGradient>
    <linearGradient
       xlink:href="#b-2"
       id="linearGradient4189"
       x1="14.369"
       y1="22.521999"
       x2="26.521999"
       y2="22.521999"
       gradientUnits="userSpaceOnUse" />
    <linearGradient
       x1="36"
       gradientUnits="userSpaceOnUse"
       x2="14"
       y2="12"
       y1="44"
       id="b-2">
      <stop
         style="stop-color:#bfc9c9;stop-opacity:1"
         stop-color="#536161"
         id="stop1579" />
      <stop
         style="stop-color:#fbfbfb;stop-opacity:1"
         stop-color="#f4f5f5"
         offset="1"
         id="stop1581" />
    </linearGradient>
    <linearGradient
       xlink:href="#b-2"
       id="linearGradient4428"
       gradientUnits="userSpaceOnUse"
       x1="31.586"
       y1="36.345001"
       x2="1.2029999"
       y2="6.723" />
    <linearGradient
       xlink:href="#b-2"
       id="linearGradient4189-3"
       x1="14.369"
       y1="22.521999"
       x2="26.521999"
       y2="22.521999"
       gradientUnits="userSpaceOnUse"
       gradientTransform="translate(20.841982,61.553822)" />
    <linearGradient
       xlink:href="#b-2"
       id="linearGradient4428-5"
       gradientUnits="userSpaceOnUse"
       x1="31.586"
       y1="36.345001"
       x2="1.2029999"
       y2="6.723"
       gradientTransform="translate(20.841982,61.553822)" />
    <linearGradient
       xlink:href="#b-2"
       id="linearGradient4189-3-3"
       x1="14.369"
       y1="22.521999"
       x2="26.521999"
       y2="22.521999"
       gradientUnits="userSpaceOnUse"
       gradientTransform="translate(4.376802,4.4211693)" />
    <linearGradient
       xlink:href="#b-2"
       id="linearGradient4428-5-5"
       gradientUnits="userSpaceOnUse"
       x1="31.586"
       y1="36.345001"
       x2="1.2029999"
       y2="6.723"
       gradientTransform="translate(4.376802,4.4211693)" />
    <linearGradient
       inkscape:collect="always"
       xlink:href="#linearGradient11"
       id="linearGradient13"
       x1="-43.819283"
       y1="23.120178"
       x2="-1.9547797"
       y2="23.120178"
       gradientUnits="userSpaceOnUse"
       gradientTransform="scale(0.26457813)" />
    <linearGradient
       id="linearGradient11"
       inkscape:collect="always">
      <stop
         style="stop-color:#9955ff;stop-opacity:0.65640396;"
         offset="0"
         id="stop4-3" />
      <stop
         style="stop-color:#00ccff;stop-opacity:1"
         offset="1"
         id="stop11" />
    </linearGradient>
    <linearGradient
       inkscape:collect="always"
       xlink:href="#linearGradient14"
       id="linearGradient15"
       x1="-9.6850061"
       y1="45.161198"
       x2="11.98815"
       y2="21.735205"
       gradientUnits="userSpaceOnUse"
       gradientTransform="scale(0.26457813)" />
    <linearGradient
       id="linearGradient14"
       inkscape:collect="always">
      <stop
         style="stop-color:#9955ff;stop-opacity:0.45197046;"
         offset="0"
         id="stop12" />
      <stop
         style="stop-color:#00ccff;stop-opacity:1"
         offset="1"
         id="stop13" />
    </linearGradient>
    <filter
       id="filter2917-3"
       x="-0.96181147"
       y="-0.66745996"
       width="2.9236229"
       height="2.3349199"
       color-interpolation-filters="sRGB">
      <feGaussianBlur
         stdDeviation="0.2871969"
         id="feGaussianBlur732-5" />
    </filter>
    <filter
       id="filter1"
       x="-0.96181148"
       y="-0.66745996"
       width="2.9236228"
       height="2.3349199"
       color-interpolation-filters="sRGB">
      <feGaussianBlur
         stdDeviation="0.2871969"
         id="feGaussianBlur1" />
    </filter>
    <filter
       id="filter2"
       x="-0.96181148"
       y="-0.66745996"
       width="2.9236228"
       height="2.3349199"
       color-interpolation-filters="sRGB">
      <feGaussianBlur
         stdDeviation="0.2871969"
         id="feGaussianBlur2" />
    </filter>
    <linearGradient
       id="paint0_linear_54_483"
       x1="32.07"
       y1="52.060001"
       x2="32.07"
       y2="2.5"
       gradientUnits="userSpaceOnUse"
       gradientTransform="scale(0.26457815)">
      <stop
         stop-color="#5570FF"
         id="stop3"
         offset="0"
         style="stop-color:#8ea0ff;stop-opacity:1;" />
      <stop
         offset="1"
         stop-color="#4DD3FF"
         id="stop4" />
    </linearGradient>
  </defs>
  <sodipodi:namedview
     id="namedview14"
     pagecolor="#000000"
     bordercolor="#666666"
     borderopacity="1.0"
     inkscape:showpageshadow="2"
     inkscape:pageopacity="0.0"
     inkscape:pagecheckerboard="0"
     inkscape:deskcolor="#d1d1d1"
     showgrid="false"
     inkscape:zoom="5.6568543"
     inkscape:cx="21.38998"
     inkscape:cy="34.825009"
     inkscape:window-width="1920"
     inkscape:window-height="996"
     inkscape:window-x="0"
     inkscape:window-y="0"
     inkscape:window-maximized="1"
     inkscape:current-layer="svg12">
    <inkscape:grid
       type="xygrid"
       id="grid244"
       originx="9.7893915"
       originy="-31.749373"
       spacingy="1"
       spacingx="1"
       units="px"
       visible="false" />
  </sodipodi:namedview>
  <rect
     x="-12.025727"
     y="0.1490714"
     width="11.940627"
     height="11.936014"
     rx="1.6121091"
     stroke="url(#paint4_linear_77:23)"
     shape-rendering="crispEdges"
     id="rect5-6-7-3"
     ry="1.7735944"
     transform="matrix(0.00523883,-0.99998628,0.999988,0.00489859,0,0)"
     style="fill:#80b3ff;fill-opacity:0.15;stroke:url(#linearGradient13);stroke-width:0.188987;stroke-opacity:1" />
  <rect
     x="-3.7266586"
     y="4.6446943"
     width="7.912631"
     height="7.912384"
     rx="1.612043"
     shape-rendering="crispEdges"
     id="rect5-6-6-6-6"
     style="fill:#80b3ff;fill-opacity:0.122146;stroke:url(#linearGradient15);stroke-width:0.188987;stroke-opacity:1"
     ry="1.7735215"
     transform="matrix(0.72612649,-0.68756114,0.6879775,0.72573202,0,0)" />
  <path
     opacity="0.4"
     fill-rule="evenodd"
     clip-rule="evenodd"
     d="m 3.9883753,3.1749376 c -0.3031276,0 -0.5488596,0.2481945 -0.5488596,0.5543519 v 2.0788328 c 0,0.1530913 0.122866,0.2771734 0.2744307,0.2771734 0.1515641,0 0.2744289,-0.1240821 0.2744289,-0.2771734 V 4.0064681 c 0,-0.1530792 0.122865,-0.2771786 0.2744287,-0.2771786 h 3.5126959 c 0.1515762,0 0.2744298,0.1240994 0.2744298,0.2771786 V 8.164129 c 0,0.1530934 -0.1228536,0.2771791 -0.2744298,0.2771791 h -1.481918 c -0.1515756,0 -0.2744291,0.1240846 -0.2744291,0.2771707 0,0.1530937 0.1228535,0.2771777 0.2744291,0.2771777 h 1.7563478 c 0.3031513,0 0.5488596,-0.2481657 0.5488596,-0.5543484 V 3.7292895 c 0,-0.3061574 -0.2457083,-0.5543519 -0.5488596,-0.5543519 z m 1.1878839,0.7760835 h 1.4113807 c 0.06497,0 0.1175858,0.086774 0.1175858,0.1940237 0,0.1072677 -0.052615,0.1940268 -0.1175858,0.1940268 H 5.1762592 c -0.065007,0 -0.1176103,-0.086763 -0.1176103,-0.1940268 0,-0.1072501 0.052608,-0.1940237 0.1176103,-0.1940237 z m 0.039188,0.8315359 h 1.8818177 c 0.086664,0 0.1568087,0.086771 0.1568087,0.1940227 0,0.1072631 -0.070144,0.1940245 -0.1568087,0.1940245 H 5.2154566 c -0.086664,0 -0.1568084,-0.086766 -0.1568084,-0.1940245 0,-0.1072566 0.070145,-0.1940227 0.156799,-0.1940227 z m 2.391472,0.8315319 H 5.2546795 c -0.1083648,0 -0.1960315,0.086773 -0.1960315,0.194017 0,0.1072812 0.087669,0.1940356 0.1960315,0.1940356 h 2.3522436 c 0.1083414,0 0.1960188,-0.086757 0.1960188,-0.1940356 0,-0.1072477 -0.087677,-0.194017 -0.1960227,-0.194017 z M 4.3600986,4.6994033 h 0.2993845 c 0.068889,0 0.1247359,0.051704 0.1247359,0.1154989 v 0.3233705 c 0,0.063778 -0.055856,0.1154837 -0.1247359,0.1154837 H 4.3600988 c -0.06889,0 -0.1247361,-0.051694 -0.1247361,-0.1154837 V 4.8149022 c 0,-0.063782 0.055857,-0.1154989 0.1247359,-0.1154989 z M 4.6594832,3.9510211 H 4.3600988 c -0.06889,0 -0.1247361,0.051704 -0.1247361,0.1154958 v 0.3233748 c 0,0.06378 0.055857,0.1154873 0.1247361,0.1154873 h 0.2993844 c 0.06889,0 0.1247363,-0.051704 0.1247363,-0.1154873 V 4.0665169 c 0,-0.063778 -0.055857,-0.1154958 -0.1247363,-0.1154958 z"
     fill="url(#paint0_linear_54_483)"
     id="path1"
     style="fill:#00aad4;stroke-width:0.264578;opacity:1;fill-opacity:1" />
  <path
     d="m 4.3390942,8.2682965 c 0,0.05255 0.042602,0.09507 0.095085,0.09507 h 1.2360872 v 0.570406 c 0,0.08434 0.1024143,0.127126 0.162299,0.06724 l 1.0460188,-1.045922 c 0.017787,-0.01777 0.027726,-0.04194 0.027726,-0.06723 0,-0.0253 -0.00998,-0.04934 -0.027842,-0.06723 L 5.8324481,6.7747165 c -0.059506,-0.05961 -0.1621949,-0.01777 -0.1621949,0.06723 v 0.570595 H 4.4341654 c -0.052584,0 -0.095084,0.04267 -0.095084,0.09508 z m 1.5249056,-0.737335 -0.00357,-0.02333 v -0.436148 l -0.024514,1.0975188 0.00217,4.989e-4 -8.27e-5,-1.203e-4 -0.0012,8.118e-4 4.405e-4,-0.0011 0.019376,-0.6560535 z"
     id="path4-0-7"
     style="fill:#c83771;fill-opacity:1;stroke-width:0.0937764"
     sodipodi:nodetypes="cscsccsccscscccccccccccc" />
  <path
     d="m 4.6045018,6.0522463 c 0,-0.05257 -0.042586,-0.09508 -0.095072,-0.09508 H 3.2733456 v -0.570407 c 0,-0.08436 -0.1023984,-0.127129 -0.1623155,-0.06723 l -1.0460185,1.045916 c -0.01768,0.01776 -0.02776,0.04193 -0.02776,0.06723 0,0.0253 0.010084,0.04937 0.027863,0.06723 l 1.0460179,1.045918 c 0.059522,0.05963 0.1622111,0.01777 0.1622111,-0.06723 v -0.570595 h 1.2360847 c 0.052574,0 0.095071,-0.04269 0.095071,-0.09508 z M 4.398005,6.1348585 3.1728555,6.140251 3.083168,7.2490543 3.1815091,6.1456623 3.0831671,5.6162833 v 0.435958 c 0,0.05257 0.042512,0.09507 0.095087,0.09507 h 1.2181417 l 0.017938,0.570502 z"
     id="path4-0-5"
     style="fill:#37c871;fill-opacity:1;stroke-width:0.0937773"
     sodipodi:nodetypes="cscsccsccscscccccccssccc" />
</svg>
