<?xml version="1.0" encoding="UTF-8" standalone="no"?>
<svg
   width="45.999886"
   height="45.999989"
   version="1.1"
   viewBox="0 0 12.170564 12.170591"
   id="svg12"
   sodipodi:docname="input-tablet.svg"
   inkscape:version="1.3.2 (091e20ef0f, 2023-11-25)"
   xmlns:inkscape="http://www.inkscape.org/namespaces/inkscape"
   xmlns:sodipodi="http://sodipodi.sourceforge.net/DTD/sodipodi-0.dtd"
   xmlns:xlink="http://www.w3.org/1999/xlink"
   xmlns="http://www.w3.org/2000/svg"
   xmlns:svg="http://www.w3.org/2000/svg">
  <defs
     id="defs16">
    <linearGradient
       id="c"
       y1="523.79999"
       x1="403.57001"
       y2="536.79999"
       x2="416.57001"
       gradientUnits="userSpaceOnUse"
       gradientTransform="matrix(0.34526714,0,0,0.34526706,-134.80427,-174.63325)">
      <stop
         stop-color="#292c2f"
         id="stop1568" />
      <stop
         offset="1"
         stop-opacity="0"
         id="stop1570" />
    </linearGradient>
    <linearGradient
       xlink:href="#b-2"
       id="linearGradient4189"
       x1="14.369"
       y1="22.521999"
       x2="26.521999"
       y2="22.521999"
       gradientUnits="userSpaceOnUse" />
    <linearGradient
       x1="36"
       gradientUnits="userSpaceOnUse"
       x2="14"
       y2="12"
       y1="44"
       id="b-2">
      <stop
         style="stop-color:#bfc9c9;stop-opacity:1"
         stop-color="#536161"
         id="stop1579" />
      <stop
         style="stop-color:#fbfbfb;stop-opacity:1"
         stop-color="#f4f5f5"
         offset="1"
         id="stop1581" />
    </linearGradient>
    <linearGradient
       xlink:href="#b-2"
       id="linearGradient4428"
       gradientUnits="userSpaceOnUse"
       x1="31.586"
       y1="36.345001"
       x2="1.2029999"
       y2="6.723" />
    <linearGradient
       xlink:href="#b-2"
       id="linearGradient4189-3"
       x1="14.369"
       y1="22.521999"
       x2="26.521999"
       y2="22.521999"
       gradientUnits="userSpaceOnUse"
       gradientTransform="translate(20.841982,61.553822)" />
    <linearGradient
       xlink:href="#b-2"
       id="linearGradient4428-5"
       gradientUnits="userSpaceOnUse"
       x1="31.586"
       y1="36.345001"
       x2="1.2029999"
       y2="6.723"
       gradientTransform="translate(20.841982,61.553822)" />
    <linearGradient
       xlink:href="#b-2"
       id="linearGradient4189-3-3"
       x1="14.369"
       y1="22.521999"
       x2="26.521999"
       y2="22.521999"
       gradientUnits="userSpaceOnUse"
       gradientTransform="translate(4.376802,4.4211693)" />
    <linearGradient
       xlink:href="#b-2"
       id="linearGradient4428-5-5"
       gradientUnits="userSpaceOnUse"
       x1="31.586"
       y1="36.345001"
       x2="1.2029999"
       y2="6.723"
       gradientTransform="translate(4.376802,4.4211693)" />
    <linearGradient
       inkscape:collect="always"
       xlink:href="#linearGradient11"
       id="linearGradient13"
       x1="-43.819283"
       y1="23.120178"
       x2="-1.9547797"
       y2="23.120178"
       gradientUnits="userSpaceOnUse"
       gradientTransform="scale(0.26457813)" />
    <linearGradient
       id="linearGradient11"
       inkscape:collect="always">
      <stop
         style="stop-color:#9955ff;stop-opacity:0.65640396;"
         offset="0"
         id="stop4-3" />
      <stop
         style="stop-color:#00ccff;stop-opacity:1"
         offset="1"
         id="stop11" />
    </linearGradient>
    <linearGradient
       inkscape:collect="always"
       xlink:href="#linearGradient14"
       id="linearGradient15"
       x1="-9.6850061"
       y1="45.161198"
       x2="11.98815"
       y2="21.735205"
       gradientUnits="userSpaceOnUse"
       gradientTransform="scale(0.26457813)" />
    <linearGradient
       id="linearGradient14"
       inkscape:collect="always">
      <stop
         style="stop-color:#9955ff;stop-opacity:0.45197046;"
         offset="0"
         id="stop12" />
      <stop
         style="stop-color:#00ccff;stop-opacity:1"
         offset="1"
         id="stop13" />
    </linearGradient>
    <filter
       id="filter2917-3"
       x="-0.96181147"
       y="-0.66745996"
       width="2.9236229"
       height="2.3349199"
       color-interpolation-filters="sRGB">
      <feGaussianBlur
         stdDeviation="0.2871969"
         id="feGaussianBlur732-5" />
    </filter>
    <filter
       id="filter1"
       x="-0.96181148"
       y="-0.66745996"
       width="2.9236228"
       height="2.3349199"
       color-interpolation-filters="sRGB">
      <feGaussianBlur
         stdDeviation="0.2871969"
         id="feGaussianBlur1" />
    </filter>
    <filter
       id="filter2"
       x="-0.96181148"
       y="-0.66745996"
       width="2.9236228"
       height="2.3349199"
       color-interpolation-filters="sRGB">
      <feGaussianBlur
         stdDeviation="0.2871969"
         id="feGaussianBlur2" />
    </filter>
    <linearGradient
       id="linearGradient2257">
      <stop
         id="stop2259"
         offset="0"
         style="stop-color:#b4942a;stop-opacity:1;" />
      <stop
         id="stop2261"
         offset="1"
         style="stop-color:#e4dcc9;stop-opacity:1" />
    </linearGradient>
    <linearGradient
       id="linearGradient2598">
      <stop
         style="stop-color:#252525;stop-opacity:1;"
         offset="0"
         id="stop2600" />
      <stop
         id="stop2606"
         offset="0.5"
         style="stop-color:#252525;stop-opacity:1;" />
      <stop
         style="stop-color:#252525;stop-opacity:1;"
         offset="0.75"
         id="stop2608" />
      <stop
         style="stop-color:#000000;stop-opacity:1;"
         offset="1"
         id="stop2602" />
    </linearGradient>
    <linearGradient
       id="linearGradient3311">
      <stop
         id="stop3313"
         offset="0"
         style="stop-color:#2d2d2d;stop-opacity:1;" />
      <stop
         style="stop-color:#000000;stop-opacity:1;"
         offset="0.5"
         id="stop3319" />
      <stop
         id="stop3315"
         offset="1"
         style="stop-color:#000000;stop-opacity:1;" />
    </linearGradient>
    <linearGradient
       id="linearGradient3303">
      <stop
         id="stop3305"
         offset="0"
         style="stop-color:#ffffff;stop-opacity:0.68345326;" />
      <stop
         id="stop3307"
         offset="1"
         style="stop-color:#ffffff;stop-opacity:0;" />
    </linearGradient>
    <linearGradient
       id="linearGradient3225">
      <stop
         id="stop3227"
         offset="0"
         style="stop-color:#ffffff;stop-opacity:1;" />
      <stop
         id="stop3229"
         offset="1"
         style="stop-color:#aeaeae;stop-opacity:1;" />
    </linearGradient>
    <linearGradient
       id="linearGradient3207">
      <stop
         id="stop3209"
         offset="0"
         style="stop-color:#ffffff;stop-opacity:1;" />
      <stop
         id="stop3211"
         offset="1"
         style="stop-color:#252525;stop-opacity:0;" />
    </linearGradient>
    <linearGradient
       id="linearGradient3251">
      <stop
         style="stop-color:#000000;stop-opacity:1;"
         offset="0"
         id="stop3253" />
      <stop
         id="stop14161"
         offset="0.7087912"
         style="stop-color:#090909;stop-opacity:0.67870039;" />
      <stop
         style="stop-color:#131313;stop-opacity:0;"
         offset="1"
         id="stop3255" />
    </linearGradient>
    <linearGradient
       id="linearGradient3273">
      <stop
         id="stop3275"
         offset="0"
         style="stop-color:#ffffff;stop-opacity:0.55035973;" />
      <stop
         id="stop3277"
         offset="1"
         style="stop-color:#ffffff;stop-opacity:0;" />
    </linearGradient>
    <linearGradient
       id="linearGradient3259">
      <stop
         style="stop-color:#ffffff;stop-opacity:0.55035973;"
         offset="0"
         id="stop3261" />
      <stop
         style="stop-color:#000000;stop-opacity:0;"
         offset="1"
         id="stop3263" />
    </linearGradient>
  </defs>
  <sodipodi:namedview
     id="namedview14"
     pagecolor="#000000"
     bordercolor="#666666"
     borderopacity="1.0"
     inkscape:showpageshadow="2"
     inkscape:pageopacity="0.0"
     inkscape:pagecheckerboard="0"
     inkscape:deskcolor="#d1d1d1"
     showgrid="false"
     inkscape:zoom="5.2149125"
     inkscape:cx="23.20269"
     inkscape:cy="69.032798"
     inkscape:window-width="1920"
     inkscape:window-height="996"
     inkscape:window-x="0"
     inkscape:window-y="0"
     inkscape:window-maximized="1"
     inkscape:current-layer="svg12">
    <inkscape:grid
       type="xygrid"
       id="grid244"
       originx="9.7893915"
       originy="-31.749373"
       spacingy="1"
       spacingx="1"
       units="px"
       visible="false" />
  </sodipodi:namedview>
  <rect
     x="-12.025727"
     y="0.1490714"
     width="11.940627"
     height="11.936014"
     rx="1.6121091"
     stroke="url(#paint4_linear_77:23)"
     shape-rendering="crispEdges"
     id="rect5-6-7-3"
     ry="1.7735944"
     transform="matrix(0.00523883,-0.99998628,0.999988,0.00489859,0,0)"
     style="fill:#80b3ff;fill-opacity:0.15;stroke:url(#linearGradient13);stroke-width:0.188987;stroke-opacity:1" />
  <rect
     x="-3.7266586"
     y="4.6446943"
     width="7.912631"
     height="7.912384"
     rx="1.612043"
     shape-rendering="crispEdges"
     id="rect5-6-6-6-6"
     style="fill:#80b3ff;fill-opacity:0.122146;stroke:url(#linearGradient15);stroke-width:0.188987;stroke-opacity:1"
     ry="1.7735215"
     transform="matrix(0.72612649,-0.68756114,0.6879775,0.72573202,0,0)" />
  <ellipse
     cx="3.8396099"
     cy="7.8842673"
     id="circle22-6-3-0-1-3"
     style="fill:#ffffff;fill-opacity:1;stroke-width:0.208916"
     rx="0.68647969"
     ry="0.6691643" />
  <ellipse
     cx="3.8396099"
     cy="6.100162"
     id="circle24-7-6-2-9-9"
     style="fill:#ffffff;fill-opacity:1;stroke-width:0.208916"
     rx="0.68647969"
     ry="0.6691643" />
  <ellipse
     cx="3.8396099"
     cy="4.3167377"
     id="circle26-5-7-8-4-4"
     style="fill:#ffffff;fill-opacity:1;stroke-width:0.208916"
     rx="0.68647969"
     ry="0.6691643" />
  <path
     sodipodi:nodetypes="czccccc"
     id="path3180-6-1-9-3-7-8"
     d="m 9.0847441,4.6174727 c 0.025982,-0.022592 0.1868788,0.021842 0.3510251,0.2095171 0.165793,0.1896061 0.193053,0.3471902 0.160509,0.3755196 -0.02134,0.018472 -0.04229,0.036903 -0.06355,0.055325 C 9.3622322,5.0628299 9.1917148,4.8678125 9.0211948,4.6727966 c 0.021306,-0.018481 0.042358,-0.036899 0.06354,-0.055307 0,0 0,0 0,0"
     style="overflow:visible;fill:#b5b9c1;fill-opacity:1;fill-rule:evenodd;stroke:none;stroke-width:0.0379331px;stroke-linecap:butt;stroke-linejoin:miter;stroke-opacity:1" />
  <path
     id="path3299-3-9-3-8-8-1"
     d="m 6.0408752,7.2721464 -0.011836,0.010257 -0.7372385,1.0353484 0.1298478,0.1352495 1.1129614,-0.580393 0.00922,-0.00708 z"
     style="overflow:visible;fill:#b5b9c1;fill-opacity:1;fill-rule:evenodd;stroke:#000000;stroke-width:0;stroke-linecap:butt;stroke-linejoin:miter;stroke-miterlimit:4;stroke-dasharray:none;stroke-opacity:1" />
  <path
     sodipodi:nodetypes="cccccc"
     id="path2247-2-4-1-0-4-2"
     d="m 5.1462599,8.5736056 1.3754238,-0.7170147 0.00844,-0.00747 -0.4756742,-0.5601222 -0.011408,0.01005 z"
     style="overflow:visible;fill:#b5b9c1;fill-opacity:1;fill-rule:evenodd;stroke:#000000;stroke-width:0;stroke-linecap:butt;stroke-linejoin:miter;stroke-miterlimit:4;stroke-dasharray:none;stroke-opacity:1" />
  <path
     sodipodi:nodetypes="csccccsz"
     id="rect2192-0-7-9-4-5-9"
     d="m 6.2434791,7.6116935 c 0.063082,0.072191 0.130512,0.061287 0.1530631,0.087081 0.00363,0.00414 0.00615,0.00946 0.00748,0.01479 L 9.4350512,5.0693903 9.1871051,4.7857912 6.1484449,7.4366295 c 0.011611,0.00159 0.021939,0.00402 0.029083,0.011858 0.020587,0.023566 0.00247,0.090733 0.065774,0.1632057 z"
     style="overflow:visible;fill:#b5b9c1;fill-opacity:1;fill-rule:nonzero;stroke:none;stroke-width:0.0189715;stroke-linecap:round;stroke-linejoin:round;stroke-miterlimit:4;stroke-dasharray:none;stroke-dashoffset:4;stroke-opacity:1" />
  <path
     id="rect2190-6-8-4-0-0-3"
     d="M 9.4260822,5.0590488 6.3981207,7.700573 c 0.019711,0.026093 -0.0029,0.076542 0.035088,0.1200724 0.041071,0.046903 0.080962,0.017561 0.1077851,0.047151 L 9.5708432,5.2246141 Z"
     style="overflow:visible;fill:#b5b9c1;fill-opacity:1;fill-rule:nonzero;stroke:none;stroke-width:0.0189715;stroke-linecap:round;stroke-linejoin:round;stroke-miterlimit:4;stroke-dasharray:none;stroke-dashoffset:4;stroke-opacity:1"
     sodipodi:nodetypes="ccsccc" />
  <path
     sodipodi:nodetypes="cccccsz"
     id="rect1315-4-0-4-9-1-8"
     d="m 6.0657446,7.4061273 c 0.039723,0.044512 0.090972,0.018164 0.1119527,0.042418 L 9.2056511,4.8070042 9.0593365,4.6396435 6.0294594,7.2828402 c 1.911e-4,3.438e-4 8.035e-4,0.00122 0.00252,0.00254 0.016392,0.018833 -0.00613,0.075721 0.033878,0.1205909 z"
     style="overflow:visible;fill:#b5b9c1;fill-opacity:1;fill-rule:nonzero;stroke:none;stroke-width:0.0189715;stroke-linecap:round;stroke-linejoin:round;stroke-miterlimit:4;stroke-dasharray:none;stroke-dashoffset:4;stroke-opacity:1" />
  <ellipse
     transform="matrix(0.75471461,-0.65605324,-0.65985556,-0.75139247,0,0)"
     id="path3301-7-3-5-6-0-8"
     style="overflow:visible;fill:#b5b9c1;fill-opacity:1;fill-rule:nonzero;stroke:none;stroke-width:0.0120734;stroke-linecap:round;stroke-linejoin:round;stroke-miterlimit:4;stroke-dasharray:none;stroke-dashoffset:4;stroke-opacity:1"
     cx="2.0361781"
     cy="-9.5517225"
     rx="1.7176518"
     ry="0.097877994" />
  <path
     sodipodi:open="true"
     sodipodi:end="6.2517655"
     sodipodi:start="0"
     sodipodi:type="arc"
     style="overflow:visible;fill:#b5b9c1;fill-opacity:1;fill-rule:nonzero;stroke:none;stroke-width:0.0091652;stroke-linecap:round;stroke-linejoin:round;stroke-miterlimit:4;stroke-dasharray:none;stroke-dashoffset:4;stroke-opacity:1"
     id="path3321-6-6-0-2-6-5"
     sodipodi:cx="1.6997136"
     sodipodi:cy="-9.6602507"
     sodipodi:rx="2.0646014"
     sodipodi:ry="0.030932492"
     d="m 3.764315,-9.6602507 a 2.0646014,0.03093249 0 0 1 -2.0483842,0.030932 2.0646014,0.03093249 0 0 1 -2.08056387,-0.030446 2.0646014,0.03093249 0 0 1 2.01569917,-0.03141 2.0646014,0.03093249 0 0 1 2.1122299,0.029952"
     transform="matrix(0.75306327,-0.65794811,-0.65894928,-0.75218737,0,0)"
     sodipodi:arc-type="arc" />
  <rect
     transform="matrix(0.65822944,0.75281738,-0.7540306,0.65683929,0,0)"
     y="-3.8212891"
     x="9.6711721"
     height="0.063597023"
     width="0.3350668"
     id="rect3205-3-6-1-4-0-6"
     style="overflow:visible;fill:#b5b9c1;fill-opacity:1;fill-rule:nonzero;stroke:none;stroke-width:0;stroke-linecap:round;stroke-linejoin:round;stroke-miterlimit:4;stroke-dasharray:none;stroke-dashoffset:4;stroke-opacity:1" />
  <path
     sodipodi:nodetypes="cszsss"
     id="path3233-7-3-0-9-6-3"
     d="m 9.3840472,4.782313 c 0.106698,0.106975 0.180072,0.2402885 0.183853,0.2524478 0.004,0.012156 -0.09745,-0.1406765 -0.186152,-0.2189121 -0.08798,-0.077591 -0.2151332,-0.1037936 -0.2241417,-0.1129642 -0.00901,-0.009 -0.069223,-0.088454 -0.01179,-0.074832 0.06019,0.014312 0.1556705,0.071598 0.2381055,0.154205 z"
     style="overflow:visible;fill:#b5b9c1;fill-opacity:1;fill-rule:evenodd;stroke:none;stroke-width:0.0379331px;stroke-linecap:butt;stroke-linejoin:miter;stroke-opacity:1" />
  <rect
     transform="matrix(0.65822944,0.75281738,-0.7540306,0.65683929,0,0)"
     y="-3.7985668"
     x="9.4489527"
     height="0.040866386"
     width="0.22220422"
     id="rect3243-4-2-6-9-1-8"
     style="overflow:visible;fill:#b5b9c1;fill-opacity:1;fill-rule:nonzero;stroke:none;stroke-width:0;stroke-linecap:round;stroke-linejoin:round;stroke-miterlimit:4;stroke-dasharray:none;stroke-dashoffset:4;stroke-opacity:1" />
  <rect
     transform="matrix(0.65822944,0.75281738,-0.7540306,0.65683929,0,0)"
     style="overflow:visible;fill:#b5b9c1;fill-opacity:1;fill-rule:nonzero;stroke:none;stroke-width:0;stroke-linecap:round;stroke-linejoin:round;stroke-miterlimit:4;stroke-dasharray:none;stroke-dashoffset:4;stroke-opacity:1"
     id="rect3245-5-0-3-3-5-5"
     width="0.22220422"
     height="0.063597023"
     x="9.4489527"
     y="-3.8212891" />
  <path
     id="path2265-6-5-1-0-6-5"
     d="m 5.4524187,8.0798519 -0.3347102,0.4664457 -0.033973,0.047608 c -5.49e-5,1.042e-4 1.669e-4,4.469e-4 1.669e-4,4.469e-4 l -2.834e-4,4.96e-5 c -1.96e-5,1.515e-4 1.669e-4,4.47e-4 1.669e-4,4.47e-4 1.4e-6,1.502e-4 1.669e-4,4.469e-4 1.669e-4,4.469e-4 5.94e-5,2.851e-4 4.486e-4,4.042e-4 6.82e-4,5.678e-4 5.28e-5,1.572e-4 8.29e-5,4.273e-4 1.669e-4,4.47e-4 1.973e-4,3.174e-4 2.638e-4,0.00119 6.893e-4,0.0017 5.214e-4,0.00125 0.00319,0.00517 0.0044,0.00648 0.00264,0.00206 0.00676,0.006 0.00949,0.00726 2.357e-4,1.539e-4 0.00136,6.73e-4 0.00288,0.00103 1.609e-4,4.39e-5 2.832e-4,-4.86e-5 2.834e-4,-4.96e-5 1.519e-4,1.41e-5 2.775e-4,-2.42e-5 2.834e-4,-4.95e-5 1.44e-4,-1.45e-5 2.72e-4,-9e-7 2.835e-4,-4.96e-5 1.383e-4,-2.1e-5 -1.731e-4,-4.207e-4 -1.731e-4,-4.207e-4 1.238e-4,-6.44e-5 2.651e-4,2.84e-5 2.839e-4,-5.15e-5 l 0.06142,-0.030854 0.5087741,-0.2657981 C 5.5791738,8.2876382 5.5020078,8.1289596 5.4505055,8.075131 Z"
     style="overflow:visible;fill:#00ffff;fill-opacity:1;fill-rule:evenodd;stroke:none;stroke-width:0;stroke-linecap:butt;stroke-linejoin:miter;stroke-miterlimit:4;stroke-dasharray:none;stroke-opacity:1" />
</svg>
