<?xml version="1.0" encoding="UTF-8" standalone="no"?>
<svg
   width="45.999886"
   height="45.999989"
   version="1.1"
   viewBox="0 0 12.170564 12.170591"
   id="svg12"
   sodipodi:docname="filelight.svg"
   inkscape:version="1.3.2 (091e20ef0f, 2023-11-25)"
   xmlns:inkscape="http://www.inkscape.org/namespaces/inkscape"
   xmlns:sodipodi="http://sodipodi.sourceforge.net/DTD/sodipodi-0.dtd"
   xmlns:xlink="http://www.w3.org/1999/xlink"
   xmlns="http://www.w3.org/2000/svg"
   xmlns:svg="http://www.w3.org/2000/svg">
  <defs
     id="defs16">
    <linearGradient
       id="c"
       y1="523.79999"
       x1="403.57001"
       y2="536.79999"
       x2="416.57001"
       gradientUnits="userSpaceOnUse"
       gradientTransform="matrix(0.34526714,0,0,0.34526706,-134.80427,-174.63325)">
      <stop
         stop-color="#292c2f"
         id="stop1568" />
      <stop
         offset="1"
         stop-opacity="0"
         id="stop1570" />
    </linearGradient>
    <linearGradient
       xlink:href="#b-2"
       id="linearGradient4189"
       x1="14.369"
       y1="22.521999"
       x2="26.521999"
       y2="22.521999"
       gradientUnits="userSpaceOnUse" />
    <linearGradient
       x1="36"
       gradientUnits="userSpaceOnUse"
       x2="14"
       y2="12"
       y1="44"
       id="b-2">
      <stop
         style="stop-color:#bfc9c9;stop-opacity:1"
         stop-color="#536161"
         id="stop1579" />
      <stop
         style="stop-color:#fbfbfb;stop-opacity:1"
         stop-color="#f4f5f5"
         offset="1"
         id="stop1581" />
    </linearGradient>
    <linearGradient
       xlink:href="#b-2"
       id="linearGradient4428"
       gradientUnits="userSpaceOnUse"
       x1="31.586"
       y1="36.345001"
       x2="1.2029999"
       y2="6.723" />
    <linearGradient
       xlink:href="#b-2"
       id="linearGradient4189-3"
       x1="14.369"
       y1="22.521999"
       x2="26.521999"
       y2="22.521999"
       gradientUnits="userSpaceOnUse"
       gradientTransform="translate(20.841982,61.553822)" />
    <linearGradient
       xlink:href="#b-2"
       id="linearGradient4428-5"
       gradientUnits="userSpaceOnUse"
       x1="31.586"
       y1="36.345001"
       x2="1.2029999"
       y2="6.723"
       gradientTransform="translate(20.841982,61.553822)" />
    <linearGradient
       xlink:href="#b-2"
       id="linearGradient4189-3-3"
       x1="14.369"
       y1="22.521999"
       x2="26.521999"
       y2="22.521999"
       gradientUnits="userSpaceOnUse"
       gradientTransform="translate(4.376802,4.4211693)" />
    <linearGradient
       xlink:href="#b-2"
       id="linearGradient4428-5-5"
       gradientUnits="userSpaceOnUse"
       x1="31.586"
       y1="36.345001"
       x2="1.2029999"
       y2="6.723"
       gradientTransform="translate(4.376802,4.4211693)" />
    <linearGradient
       inkscape:collect="always"
       xlink:href="#linearGradient11"
       id="linearGradient13"
       x1="-43.819283"
       y1="23.120178"
       x2="-1.9547797"
       y2="23.120178"
       gradientUnits="userSpaceOnUse"
       gradientTransform="scale(0.26457813)" />
    <linearGradient
       id="linearGradient11"
       inkscape:collect="always">
      <stop
         style="stop-color:#00dbb7;stop-opacity:0.65490198;"
         offset="0"
         id="stop4-3" />
      <stop
         style="stop-color:#00a489;stop-opacity:1;"
         offset="1"
         id="stop11" />
    </linearGradient>
    <linearGradient
       inkscape:collect="always"
       xlink:href="#linearGradient14"
       id="linearGradient15"
       x1="-9.6850061"
       y1="45.161198"
       x2="11.98815"
       y2="21.735205"
       gradientUnits="userSpaceOnUse"
       gradientTransform="scale(0.26457813)" />
    <linearGradient
       id="linearGradient14"
       inkscape:collect="always">
      <stop
         style="stop-color:#00a489;stop-opacity:0.83128077;"
         offset="0"
         id="stop12" />
      <stop
         style="stop-color:#00a489;stop-opacity:1;"
         offset="1"
         id="stop13" />
    </linearGradient>
    <filter
       id="filter2917-3"
       x="-0.96181147"
       y="-0.66745996"
       width="2.9236229"
       height="2.3349199"
       color-interpolation-filters="sRGB">
      <feGaussianBlur
         stdDeviation="0.2871969"
         id="feGaussianBlur732-5" />
    </filter>
    <filter
       id="filter1"
       x="-0.96181148"
       y="-0.66745996"
       width="2.9236228"
       height="2.3349199"
       color-interpolation-filters="sRGB">
      <feGaussianBlur
         stdDeviation="0.2871969"
         id="feGaussianBlur1" />
    </filter>
    <filter
       id="filter2"
       x="-0.96181148"
       y="-0.66745996"
       width="2.9236228"
       height="2.3349199"
       color-interpolation-filters="sRGB">
      <feGaussianBlur
         stdDeviation="0.2871969"
         id="feGaussianBlur2" />
    </filter>
    <linearGradient
       id="paint0_linear_304_124"
       x1="15.5541"
       y1="1"
       x2="15.5541"
       y2="10.9449"
       gradientUnits="userSpaceOnUse"
       gradientTransform="matrix(0,0.26457816,-0.26457816,0,12.380005,0.23474289)">
      <stop
         stop-color="#0EEBB6"
         id="stop3" />
      <stop
         offset="1"
         stop-color="#04B6CE"
         id="stop4" />
    </linearGradient>
    <linearGradient
       id="paint1_linear_304_124"
       x1="10.574"
       y1="2.2890601"
       x2="10.574"
       y2="23"
       gradientUnits="userSpaceOnUse"
       gradientTransform="matrix(0,0.26457816,-0.26457816,0,12.380005,0.23474289)">
      <stop
         stop-color="#0EEBB6"
         id="stop5" />
      <stop
         offset="1"
         stop-color="#04B6CE"
         id="stop6" />
    </linearGradient>
    <linearGradient
       id="paint2_linear_304_124"
       x1="18.590099"
       y1="10.7617"
       x2="18.590099"
       y2="17.9118"
       gradientUnits="userSpaceOnUse"
       gradientTransform="matrix(0,0.26457816,-0.26457816,0,12.380005,0.23474289)">
      <stop
         stop-color="#0EEBB6"
         id="stop7" />
      <stop
         offset="1"
         stop-color="#04B6CE"
         id="stop8" />
    </linearGradient>
  </defs>
  <sodipodi:namedview
     id="namedview14"
     pagecolor="#000000"
     bordercolor="#666666"
     borderopacity="1.0"
     inkscape:showpageshadow="2"
     inkscape:pageopacity="0.0"
     inkscape:pagecheckerboard="0"
     inkscape:deskcolor="#d1d1d1"
     showgrid="false"
     inkscape:zoom="5.2149125"
     inkscape:cx="23.20269"
     inkscape:cy="53.692176"
     inkscape:window-width="1920"
     inkscape:window-height="996"
     inkscape:window-x="0"
     inkscape:window-y="0"
     inkscape:window-maximized="1"
     inkscape:current-layer="svg12">
    <inkscape:grid
       type="xygrid"
       id="grid244"
       originx="9.7893915"
       originy="-31.749373"
       spacingy="1"
       spacingx="1"
       units="px"
       visible="false" />
  </sodipodi:namedview>
  <rect
     x="-12.025727"
     y="0.1490714"
     width="11.940627"
     height="11.936014"
     rx="1.6121091"
     stroke="url(#paint4_linear_77:23)"
     shape-rendering="crispEdges"
     id="rect5-6-7-3"
     ry="1.7735944"
     transform="matrix(0.00523883,-0.99998628,0.999988,0.00489859,0,0)"
     style="fill:#00a489;fill-opacity:0.12;stroke:url(#linearGradient13);stroke-width:0.188987;stroke-opacity:1" />
  <rect
     x="-3.7266586"
     y="4.6446943"
     width="7.912631"
     height="7.912384"
     rx="1.612043"
     shape-rendering="crispEdges"
     id="rect5-6-6-6-6"
     style="fill:#00a489;fill-opacity:0.12156863;stroke:url(#linearGradient15);stroke-width:0.188987;stroke-opacity:1"
     ry="1.7735215"
     transform="matrix(0.72612649,-0.68756114,0.6879775,0.72573202,0,0)" />
  <g
     id="g1"
     transform="rotate(-90,6.0726316,6.3073741)">
    <path
       opacity="0.7"
       d="m 6.3821053,5.7999398 c 7.501e-4,0.00178 0.00158,0.00342 0.00232,0.0052 0.048721,0.1080108 0.1700901,0.1571588 0.2862931,0.1340401 L 9.0450739,5.4667825 C 9.2104302,5.4338867 9.3135579,5.2662325 9.251618,5.1094214 9.1332503,4.8097384 8.9695964,4.5293049 8.7658516,4.2781291 8.4962415,3.9457623 8.1620068,3.6715337 7.7833801,3.4720204 7.404754,3.272507 6.989616,3.1518566 6.5630193,3.1173651 6.2405892,3.0912934 5.9166872,3.114856 5.6025155,3.1866913 5.4382295,3.2242536 5.3582293,3.4039866 5.4244564,3.5589592 Z"
       fill="url(#paint0_linear_304_124)"
       id="path1"
       style="fill:#5599ff;stroke-width:0.264578;fill-opacity:1;opacity:1" />
    <path
       d="M 6.4695893,6.7429837 C 6.219,6.5512464 6.0214606,6.2987235 5.8957326,6.0093127 L 4.9380317,3.7673539 C 4.8717394,3.6121566 4.6861806,3.545806 4.5454618,3.6389678 4.2474326,3.8362699 3.9842417,4.0829486 3.7675603,4.3690862 3.4876663,4.7387006 3.2921822,5.1651735 3.19487,5.618481 3.0975612,6.071801 3.100785,6.5409139 3.2043188,6.9928527 3.3078523,7.4447625 3.5091822,7.8685018 3.7941363,8.2342544 4.079087,8.599979 4.4407356,8.898799 4.8536253,9.1097017 5.2665219,9.3206042 5.7206196,9.438453 6.1839621,9.4549334 6.6472999,9.47144 7.1086191,9.3861512 7.5354756,9.2051519 7.865926,9.0649928 8.1694794,8.8701094 8.4336925,8.6293618 8.5584099,8.5156987 8.5394463,8.3195735 8.4052341,8.2173411 Z"
       fill="url(#paint1_linear_304_124)"
       id="path2"
       style="fill:#37c871;stroke-width:0.264578;fill-opacity:1" />
    <path
       opacity="0.4"
       d="M 7.555968,6.3025048 C 7.3121612,6.3509951 7.2395994,6.6644765 7.4373117,6.8151424 L 8.7279544,7.7988549 C 8.8619368,7.9009764 9.055695,7.8674949 9.1323556,7.7174627 9.3587868,7.2743842 9.4777892,6.782585 9.4776738,6.2820413 9.4776159,6.2668889 9.477443,6.2517035 9.477183,6.236551 9.4741516,6.0680477 9.3147706,5.9527392 9.1494713,5.9856141 Z"
       fill="url(#paint2_linear_304_124)"
       id="path3"
       style="fill:#c83771;stroke-width:0.264578;fill-opacity:1;opacity:1" />
  </g>
</svg>
