<?xml version="1.0" encoding="UTF-8" standalone="no"?>
<svg
   xmlns:dc="http://purl.org/dc/elements/1.1/"
   xmlns:cc="http://creativecommons.org/ns#"
   xmlns:rdf="http://www.w3.org/1999/02/22-rdf-syntax-ns#"
   xmlns:svg="http://www.w3.org/2000/svg"
   xmlns="http://www.w3.org/2000/svg"
   xmlns:xlink="http://www.w3.org/1999/xlink"
   xmlns:sodipodi="http://sodipodi.sourceforge.net/DTD/sodipodi-0.dtd"
   xmlns:inkscape="http://www.inkscape.org/namespaces/inkscape"
   width="47.285591"
   height="47.28569"
   version="1.1"
   viewBox="0 0 12.510734 12.51076"
   id="svg12"
   sodipodi:docname="plan.svg"
   inkscape:version="1.0.1 (3bc2e813f5, 2020-09-07)">
  <style
     id="style877"></style>
  <metadata
     id="metadata52">
    <rdf:RDF>
      <cc:Work
         rdf:about="">
        <dc:format>image/svg+xml</dc:format>
        <dc:type
           rdf:resource="http://purl.org/dc/dcmitype/StillImage" />
      </cc:Work>
    </rdf:RDF>
  </metadata>
  <defs
     id="defs16">
    <linearGradient
       id="linearGradient923"
       inkscape:collect="always">
      <stop
         style="stop-color:#bc5fd3;stop-opacity:1"
         offset="0"
         id="stop919" />
      <stop
         style="stop-color:#00bebe;stop-opacity:1"
         offset="1"
         id="stop921" />
    </linearGradient>
    <linearGradient
       id="linearGradient910"
       inkscape:collect="always">
      <stop
         style="stop-color:#bc5fd3;stop-opacity:1"
         offset="0"
         id="stop906" />
      <stop
         style="stop-color:#00aeae;stop-opacity:1"
         offset="1"
         id="stop908" />
    </linearGradient>
    <linearGradient
       id="c"
       y1="523.79999"
       x1="403.57001"
       y2="536.79999"
       x2="416.57001"
       gradientUnits="userSpaceOnUse"
       gradientTransform="matrix(0.34526714,0,0,0.34526706,-134.80427,-174.63325)">
      <stop
         stop-color="#292c2f"
         id="stop1568" />
      <stop
         offset="1"
         stop-opacity="0"
         id="stop1570" />
    </linearGradient>
    <linearGradient
       xlink:href="#b-2"
       id="linearGradient4189"
       x1="14.369"
       y1="22.521999"
       x2="26.521999"
       y2="22.521999"
       gradientUnits="userSpaceOnUse" />
    <linearGradient
       x1="36"
       gradientUnits="userSpaceOnUse"
       x2="14"
       y2="12"
       y1="44"
       id="b-2">
      <stop
         style="stop-color:#bfc9c9;stop-opacity:1"
         stop-color="#536161"
         id="stop1579" />
      <stop
         style="stop-color:#fbfbfb;stop-opacity:1"
         stop-color="#f4f5f5"
         offset="1"
         id="stop1581" />
    </linearGradient>
    <linearGradient
       xlink:href="#b-2"
       id="linearGradient4428"
       gradientUnits="userSpaceOnUse"
       x1="31.586"
       y1="36.345001"
       x2="1.2029999"
       y2="6.723" />
    <linearGradient
       xlink:href="#b-2"
       id="linearGradient4189-3"
       x1="14.369"
       y1="22.521999"
       x2="26.521999"
       y2="22.521999"
       gradientUnits="userSpaceOnUse"
       gradientTransform="translate(20.841982,61.553822)" />
    <linearGradient
       xlink:href="#b-2"
       id="linearGradient4428-5"
       gradientUnits="userSpaceOnUse"
       x1="31.586"
       y1="36.345001"
       x2="1.2029999"
       y2="6.723"
       gradientTransform="translate(20.841982,61.553822)" />
    <linearGradient
       xlink:href="#b-2"
       id="linearGradient4189-3-3"
       x1="14.369"
       y1="22.521999"
       x2="26.521999"
       y2="22.521999"
       gradientUnits="userSpaceOnUse"
       gradientTransform="translate(4.376802,4.4211693)" />
    <linearGradient
       xlink:href="#b-2"
       id="linearGradient4428-5-5"
       gradientUnits="userSpaceOnUse"
       x1="31.586"
       y1="36.345001"
       x2="1.2029999"
       y2="6.723"
       gradientTransform="translate(4.376802,4.4211693)" />
    <filter
       id="filter2917-3"
       x="-0.96181148"
       y="-0.66745996"
       width="2.9236228"
       height="2.3349199"
       color-interpolation-filters="sRGB">
      <feGaussianBlur
         stdDeviation="0.2871969"
         id="feGaussianBlur732-5" />
    </filter>
    <filter
       id="filter1"
       x="-0.96181148"
       y="-0.66745996"
       width="2.9236228"
       height="2.3349199"
       color-interpolation-filters="sRGB">
      <feGaussianBlur
         stdDeviation="0.2871969"
         id="feGaussianBlur1" />
    </filter>
    <filter
       id="filter2"
       x="-0.96181148"
       y="-0.66745996"
       width="2.9236228"
       height="2.3349199"
       color-interpolation-filters="sRGB">
      <feGaussianBlur
         stdDeviation="0.2871969"
         id="feGaussianBlur2" />
    </filter>
    <linearGradient
       id="paint0_linear_19_69"
       x1="13.5381"
       y1="7.6556602"
       x2="19.187599"
       y2="7.6556602"
       gradientUnits="userSpaceOnUse"
       gradientTransform="scale(0.26457813)">
      <stop
         stop-color="#02AA93"
         id="stop3" />
      <stop
         offset="1"
         stop-color="#67FF80"
         id="stop4" />
    </linearGradient>
    <linearGradient
       id="paint1_linear_19_69"
       x1="13.5426"
       y1="5.74156"
       x2="23"
       y2="5.74156"
       gradientUnits="userSpaceOnUse"
       gradientTransform="scale(0.26457813)">
      <stop
         stop-color="#02AA93"
         id="stop5" />
      <stop
         offset="1"
         stop-color="#67FF80"
         id="stop6" />
    </linearGradient>
    <linearGradient
       id="paint2_linear_19_69"
       x1="1"
       y1="12.425"
       x2="22.2339"
       y2="12.425"
       gradientUnits="userSpaceOnUse"
       gradientTransform="scale(0.26457813)">
      <stop
         stop-color="#02AA93"
         id="stop7" />
      <stop
         offset="1"
         stop-color="#67FF80"
         id="stop8" />
    </linearGradient>
    <linearGradient
       id="c-6">
      <stop
         offset="0"
         stop-color="#c6cdd1"
         id="stop226" />
      <stop
         offset="1"
         stop-color="#e0e5e7"
         id="stop228" />
    </linearGradient>
    <linearGradient
       id="e-3">
      <stop
         offset="0"
         id="stop232" />
      <stop
         offset="1"
         stop-opacity="0"
         id="stop234" />
    </linearGradient>
    <linearGradient
       inkscape:collect="always"
       xlink:href="#linearGradient923"
       id="linearGradient885"
       x1="-12.025727"
       y1="6.1170783"
       x2="-0.085100174"
       y2="6.1170783"
       gradientUnits="userSpaceOnUse" />
    <linearGradient
       inkscape:collect="always"
       xlink:href="#linearGradient910"
       id="linearGradient912"
       gradientUnits="userSpaceOnUse"
       gradientTransform="scale(0.26457813)"
       x1="-9.6850061"
       y1="45.161198"
       x2="11.98815"
       y2="21.735205" />
    <linearGradient
       id="c-0-6-3-7"
       y1="31.780764"
       y2="-4.1188111"
       x2="20.297028"
       gradientUnits="userSpaceOnUse"
       gradientTransform="matrix(0.22489931,0,0,0.22489931,1.9584292,1.5939315)"
       x1="20.297028">
      <stop
         stop-color="#da4453"
         id="stop12-9-0-6-5" />
      <stop
         offset="1"
         stop-color="#ff7336"
         id="stop14-3-6-0-3" />
    </linearGradient>
    <linearGradient
       xlink:href="#b"
       id="d-6-5"
       y1="22.313"
       x1="20.438"
       y2="25.406"
       x2="23.531"
       gradientUnits="userSpaceOnUse"
       gradientTransform="matrix(0.22489931,0,0,0.22489931,1.9584292,1.5939315)" />
    <linearGradient
       id="b"
       y1="30"
       x1="24"
       y2="44"
       x2="38"
       gradientUnits="userSpaceOnUse">
      <stop
         id="stop7-3" />
      <stop
         offset="1"
         stop-opacity="0"
         id="stop9" />
    </linearGradient>
  </defs>
  <sodipodi:namedview
     id="namedview14"
     pagecolor="#000000"
     bordercolor="#666666"
     borderopacity="1.0"
     inkscape:showpageshadow="2"
     inkscape:pageopacity="0.0"
     inkscape:pagecheckerboard="0"
     inkscape:deskcolor="#d1d1d1"
     showgrid="false"
     inkscape:zoom="9.1993044"
     inkscape:cx="2.7096339"
     inkscape:cy="17.426688"
     inkscape:window-width="1920"
     inkscape:window-height="988"
     inkscape:window-x="0"
     inkscape:window-y="0"
     inkscape:window-maximized="1"
     inkscape:current-layer="svg12"
     inkscape:document-rotation="0">
    <inkscape:grid
       type="xygrid"
       id="grid244"
       originx="9.9594769"
       originy="-31.57929"
       spacingy="1"
       spacingx="1"
       units="px"
       visible="false" />
  </sodipodi:namedview>
  <rect
     x="-12.194976"
     y="0.32004508"
     width="11.940627"
     height="11.936014"
     rx="1.6121091"
     shape-rendering="crispEdges"
     id="rect5-6-7-3"
     ry="1.7735944"
     transform="matrix(0.00523883,-0.99998628,0.999988,0.00489859,0,0)"
     style="fill:#80b3ff;fill-opacity:0.15;stroke:url(#linearGradient885);stroke-width:0.5291563;stroke-miterlimit:4;stroke-dasharray:none;stroke-opacity:1" />
  <rect
     x="-3.7202365"
     y="4.8851409"
     width="7.912631"
     height="7.912384"
     rx="1.612043"
     shape-rendering="crispEdges"
     id="rect5-6-6-6-6"
     style="fill:#80b3ff;fill-opacity:0.122146;stroke:url(#linearGradient912);stroke-width:0.39686725;stroke-opacity:1;stroke-miterlimit:4;stroke-dasharray:none"
     ry="1.7735215"
     transform="matrix(0.72612649,-0.68756114,0.6879775,0.72573202,0,0)" />
  <circle
     cx="4.9667115"
     cy="3.8001201"
     r="0.9267382"
     fill="#0079fd"
     id="circle1"
     style="stroke-width:0.264578" />
  <path
     fill="#ffffff"
     d="M 4.9667132,3.0793231 A 0.7207968,0.7207968 0 0 0 4.2459162,3.8001211 0.7207968,0.7207968 0 0 0 4.9667132,4.5209172 0.7207968,0.7207968 0 0 0 5.68751,3.8001211 0.7207968,0.7207968 0 0 0 4.9667132,3.0793231 Z m 0,0.2059427 a 0.51485483,0.51485483 0 0 1 0.514855,0.5148553 0.51485483,0.51485483 0 0 1 -0.514855,0.5148535 0.51485483,0.51485483 0 0 1 -0.514855,-0.5148535 0.51485483,0.51485483 0 0 1 0.514855,-0.5148553 z"
     id="path1"
     style="stroke-width:0.264578" />
  <circle
     cx="4.9667115"
     cy="6.2682991"
     r="0.9267382"
     fill="#fb3027"
     id="circle2-3"
     style="stroke-width:0.264578" />
  <path
     fill="#ffffff"
     d="M 4.9667132,5.5475089 A 0.7207968,0.7207968 0 0 0 4.2459162,6.2683052 0.7207968,0.7207968 0 0 0 4.9667132,6.9891026 0.7207968,0.7207968 0 0 0 5.6875097,6.2683052 0.7207968,0.7207968 0 0 0 4.9667132,5.5475089 Z m 0,0.2059415 A 0.51485483,0.51485483 0 0 1 5.4815679,6.2683052 0.51485483,0.51485483 0 0 1 4.9667132,6.78316 0.51485483,0.51485483 0 0 1 4.4518582,6.2683052 0.51485483,0.51485483 0 0 1 4.9667132,5.7534504 Z"
     id="path2-3"
     style="stroke-width:0.264578" />
  <circle
     cx="4.9667115"
     cy="8.6820097"
     r="0.9267382"
     fill="#f79500"
     id="circle3"
     style="stroke-width:0.264578" />
  <path
     fill="#ffffff"
     d="M 4.9667132,7.9614053 A 0.7207968,0.7207968 0 0 0 4.2459162,8.6822014 0.7207968,0.7207968 0 0 0 4.9667132,9.4029982 0.7207968,0.7207968 0 0 0 5.6875095,8.6822014 0.7207968,0.7207968 0 0 0 4.9667132,7.9614053 Z m 0,0.2059408 A 0.51485483,0.51485483 0 0 1 5.4815676,8.6822014 0.51485483,0.51485483 0 0 1 4.9667132,9.1970556 0.51485483,0.51485483 0 0 1 4.4518582,8.6822014 0.51485483,0.51485483 0 0 1 4.9667132,8.1673461 Z"
     id="path3"
     style="stroke-width:0.264578" />
  <rect
     width="2.2700803"
     height="0.26457813"
     x="6.7915854"
     y="3.5493038"
     fill="#cccccc"
     ry="0.13228907"
     id="rect3"
     rx="0.13228907"
     style="stroke-width:0.264577" />
  <rect
     width="3.8363831"
     height="0.26457813"
     x="6.7915854"
     y="6.1006141"
     fill="#cccccc"
     ry="0.13228907"
     id="rect4"
     rx="0.13228907"
     style="stroke-width:0.26457" />
  <rect
     width="2.2753718"
     height="0.26457813"
     x="6.7915854"
     y="8.5602322"
     fill="#cccccc"
     ry="0.13228907"
     id="rect5"
     rx="0.13228905"
     style="stroke-width:0.264581" />
</svg>
