<?xml version="1.0" encoding="UTF-8" standalone="no"?>
<svg
   height="45.999989"
   width="45.999886"
   version="1.1"
   id="svg10"
   sodipodi:docname="kdeconnect.svg"
   inkscape:version="1.3.2 (091e20ef0f, 2023-11-25)"
   xmlns:inkscape="http://www.inkscape.org/namespaces/inkscape"
   xmlns:sodipodi="http://sodipodi.sourceforge.net/DTD/sodipodi-0.dtd"
   xmlns:xlink="http://www.w3.org/1999/xlink"
   xmlns="http://www.w3.org/2000/svg"
   xmlns:svg="http://www.w3.org/2000/svg"
   xmlns:rdf="http://www.w3.org/1999/02/22-rdf-syntax-ns#"
   xmlns:cc="http://creativecommons.org/ns#"
   xmlns:dc="http://purl.org/dc/elements/1.1/">
  <metadata
     id="metadata16">
    <rdf:RDF>
      <cc:Work
         rdf:about="">
        <dc:format>image/svg+xml</dc:format>
        <dc:type
           rdf:resource="http://purl.org/dc/dcmitype/StillImage" />
      </cc:Work>
    </rdf:RDF>
  </metadata>
  <defs
     id="defs14">
    <linearGradient
       id="c"
       x1="31.458"
       x2="31.458"
       y1="51.726002"
       y2="62.897999"
       gradientTransform="matrix(0.36079,0,0,0.36079,-2.8832,-9.4399)"
       gradientUnits="userSpaceOnUse">
      <stop
         stop-color="#1776ff"
         offset="0"
         id="stop292" />
      <stop
         stop-color="#2fceff"
         offset="1"
         id="stop294" />
    </linearGradient>
    <linearGradient
       id="d"
       x1="31.458"
       x2="31.458"
       y1="36.897999"
       y2="59.897999"
       gradientTransform="matrix(0.36079,0,0,0.36079,-2.8832,-9.4399)"
       gradientUnits="userSpaceOnUse">
      <stop
         stop-color="#ff5514"
         offset="0"
         id="stop297" />
      <stop
         stop-color="#ff9014"
         offset="1"
         id="stop299" />
    </linearGradient>
    <linearGradient
       id="a"
       x1="31.458"
       x2="31.458"
       y1="46.897999"
       y2="56.897999"
       gradientTransform="matrix(0.36079,0,0,0.36079,-2.8832,-9.4399)"
       gradientUnits="userSpaceOnUse">
      <stop
         stop-color="#c0e5fb"
         offset="0"
         id="stop302" />
      <stop
         stop-color="#c3faff"
         offset="1"
         id="stop304" />
    </linearGradient>
    <linearGradient
       gradientTransform="matrix(1.0394952,0,0,1.0394363,-448.49881,-520.66414)"
       gradientUnits="userSpaceOnUse"
       x2="426.69501"
       y2="499.92099"
       y1="547.67499"
       id="a-6"
       x1="389.32001">
      <stop
         stop-color="#18222a"
         style="stop-color:#436077;stop-opacity:1;"
         id="stop216"
         offset="0" />
      <stop
         stop-color="#566069"
         offset="1"
         style="stop-color:#6d7983;stop-opacity:1"
         id="stop218" />
    </linearGradient>
    <linearGradient
       id="e"
       x1="8.4461002"
       x2="24.603001"
       y1="6.2688999"
       y2="24.570999"
       gradientUnits="userSpaceOnUse"
       gradientTransform="translate(0.254427,-38.49298)">
      <stop
         stop-opacity=".2088"
         offset="0"
         id="stop4" />
      <stop
         stop-opacity="0"
         offset="1"
         id="stop6" />
    </linearGradient>
    <linearGradient
       id="d-3"
       x1="7.8488002"
       x2="14.108"
       y1="3.5121"
       y2="14.183"
       gradientUnits="userSpaceOnUse"
       gradientTransform="translate(0.254427,-38.49298)">
      <stop
         stop-opacity=".2088"
         offset="0"
         id="stop14" />
      <stop
         stop-opacity="0"
         offset="1"
         id="stop16" />
    </linearGradient>
    <linearGradient
       id="c-6"
       x1="31.458"
       x2="31.458"
       y1="51.726002"
       y2="62.897999"
       gradientTransform="matrix(0.36079,0,0,0.36079,-2.8832,-9.4399)"
       gradientUnits="userSpaceOnUse">
      <stop
         stop-color="#1776ff"
         offset="0"
         id="stop292-7"
         style="stop-color:#55ddff;stop-opacity:1" />
      <stop
         stop-color="#2fceff"
         offset="1"
         id="stop294-5"
         style="stop-color:#00ccff;stop-opacity:1" />
    </linearGradient>
    <linearGradient
       id="d-35"
       x1="31.458"
       x2="31.458"
       y1="36.897999"
       y2="59.897999"
       gradientTransform="matrix(0.36079,0,0,0.36079,-2.8832,-9.4399)"
       gradientUnits="userSpaceOnUse">
      <stop
         stop-color="#ff5514"
         offset="0"
         id="stop297-6"
         style="stop-color:#ffccaa;stop-opacity:1" />
      <stop
         stop-color="#ff9014"
         offset="1"
         id="stop299-2"
         style="stop-color:#ff9955;stop-opacity:1" />
    </linearGradient>
    <linearGradient
       id="a-9"
       x1="31.458"
       x2="31.458"
       y1="46.897999"
       y2="56.897999"
       gradientTransform="matrix(0.36079,0,0,0.36079,-2.8832,-9.4399)"
       gradientUnits="userSpaceOnUse">
      <stop
         stop-color="#c0e5fb"
         offset="0"
         id="stop302-1"
         style="stop-color:#e3d7f4;stop-opacity:1" />
      <stop
         stop-color="#c3faff"
         offset="1"
         id="stop304-2"
         style="stop-color:#aa87de;stop-opacity:1" />
    </linearGradient>
    <filter
       id="filter5877"
       x="-2.357507"
       y="-2.3296077"
       width="5.715014"
       height="5.6592155"
       color-interpolation-filters="sRGB">
      <feGaussianBlur
         stdDeviation="0.28543518"
         id="feGaussianBlur1374" />
    </filter>
    <filter
       id="filter2488"
       x="-2.357507"
       y="-2.3296077"
       width="5.715014"
       height="5.6592155"
       color-interpolation-filters="sRGB">
      <feGaussianBlur
         stdDeviation="0.28543518"
         id="feGaussianBlur2486" />
    </filter>
    <filter
       id="filter2492"
       x="-2.357507"
       y="-2.3296077"
       width="5.715014"
       height="5.6592155"
       color-interpolation-filters="sRGB">
      <feGaussianBlur
         stdDeviation="0.28543518"
         id="feGaussianBlur2490" />
    </filter>
    <filter
       id="filter2496"
       x="-2.357507"
       y="-2.3296077"
       width="5.715014"
       height="5.6592155"
       color-interpolation-filters="sRGB">
      <feGaussianBlur
         stdDeviation="0.28543518"
         id="feGaussianBlur2494" />
    </filter>
    <filter
       id="filter2500"
       x="-2.357507"
       y="-2.3296077"
       width="5.715014"
       height="5.6592155"
       color-interpolation-filters="sRGB">
      <feGaussianBlur
         stdDeviation="0.28543518"
         id="feGaussianBlur2498" />
    </filter>
    <filter
       id="filter2504"
       x="-2.357507"
       y="-2.3296077"
       width="5.715014"
       height="5.6592155"
       color-interpolation-filters="sRGB">
      <feGaussianBlur
         stdDeviation="0.28543518"
         id="feGaussianBlur2502" />
    </filter>
    <filter
       id="filter2508"
       x="-2.357507"
       y="-2.3296077"
       width="5.715014"
       height="5.6592155"
       color-interpolation-filters="sRGB">
      <feGaussianBlur
         stdDeviation="0.28543518"
         id="feGaussianBlur2506" />
    </filter>
    <filter
       id="filter2512"
       x="-2.357507"
       y="-2.3296077"
       width="5.715014"
       height="5.6592155"
       color-interpolation-filters="sRGB">
      <feGaussianBlur
         stdDeviation="0.28543518"
         id="feGaussianBlur2510" />
    </filter>
    <filter
       id="filter2516"
       x="-2.357507"
       y="-2.3296077"
       width="5.715014"
       height="5.6592155"
       color-interpolation-filters="sRGB">
      <feGaussianBlur
         stdDeviation="0.28543518"
         id="feGaussianBlur2514" />
    </filter>
    <filter
       id="filter2520"
       x="-2.357507"
       y="-2.3296077"
       width="5.715014"
       height="5.6592155"
       color-interpolation-filters="sRGB">
      <feGaussianBlur
         stdDeviation="0.28543518"
         id="feGaussianBlur2518" />
    </filter>
    <filter
       id="filter2524"
       x="-2.357507"
       y="-2.3296077"
       width="5.715014"
       height="5.6592155"
       color-interpolation-filters="sRGB">
      <feGaussianBlur
         stdDeviation="0.28543518"
         id="feGaussianBlur2522" />
    </filter>
    <filter
       id="filter2528"
       x="-2.357507"
       y="-2.3296077"
       width="5.715014"
       height="5.6592155"
       color-interpolation-filters="sRGB">
      <feGaussianBlur
         stdDeviation="0.28543518"
         id="feGaussianBlur2526" />
    </filter>
    <filter
       id="filter2532"
       x="-2.357507"
       y="-2.3296077"
       width="5.715014"
       height="5.6592155"
       color-interpolation-filters="sRGB">
      <feGaussianBlur
         stdDeviation="0.28543518"
         id="feGaussianBlur2530" />
    </filter>
    <filter
       id="filter2536"
       x="-2.357507"
       y="-2.3296077"
       width="5.715014"
       height="5.6592155"
       color-interpolation-filters="sRGB">
      <feGaussianBlur
         stdDeviation="0.28543518"
         id="feGaussianBlur2534" />
    </filter>
    <filter
       id="filter2540"
       x="-2.357507"
       y="-2.3296077"
       width="5.715014"
       height="5.6592155"
       color-interpolation-filters="sRGB">
      <feGaussianBlur
         stdDeviation="0.28543518"
         id="feGaussianBlur2538" />
    </filter>
    <linearGradient
       id="linearGradient1566"
       x1="8.3549995"
       x2="8.3996"
       y1="16.007"
       y2="0.79374999"
       gradientTransform="matrix(2.7849621,0,0,2.7849621,0.42101663,0.42102106)"
       gradientUnits="userSpaceOnUse">
      <stop
         stop-color="#2e3440"
         stop-opacity=".2"
         offset="0"
         id="stop1366"
         style="stop-color:#4f5a6f;stop-opacity:0.54245424;" />
      <stop
         stop-color="#d8dee9"
         offset="1"
         id="stop1368" />
    </linearGradient>
    <filter
       id="filter5815"
       x="-0.05500596"
       y="-0.11783287"
       width="1.1100119"
       height="1.2356657"
       color-interpolation-filters="sRGB">
      <feGaussianBlur
         stdDeviation="0.19020097"
         id="feGaussianBlur1371" />
    </filter>
    <filter
       id="filter5877-3"
       x="-2.357507"
       y="-2.3296077"
       width="5.715014"
       height="5.6592155"
       color-interpolation-filters="sRGB">
      <feGaussianBlur
         stdDeviation="0.28543518"
         id="feGaussianBlur1374-6" />
    </filter>
    <filter
       id="filter919"
       x="-2.357507"
       y="-2.3296077"
       width="5.715014"
       height="5.6592155"
       color-interpolation-filters="sRGB">
      <feGaussianBlur
         stdDeviation="0.28543518"
         id="feGaussianBlur917" />
    </filter>
    <filter
       id="filter923"
       x="-2.357507"
       y="-2.3296077"
       width="5.715014"
       height="5.6592155"
       color-interpolation-filters="sRGB">
      <feGaussianBlur
         stdDeviation="0.28543518"
         id="feGaussianBlur921" />
    </filter>
    <filter
       id="filter927"
       x="-2.357507"
       y="-2.3296077"
       width="5.715014"
       height="5.6592155"
       color-interpolation-filters="sRGB">
      <feGaussianBlur
         stdDeviation="0.28543518"
         id="feGaussianBlur925" />
    </filter>
    <filter
       id="filter931"
       x="-2.357507"
       y="-2.3296077"
       width="5.715014"
       height="5.6592155"
       color-interpolation-filters="sRGB">
      <feGaussianBlur
         stdDeviation="0.28543518"
         id="feGaussianBlur929" />
    </filter>
    <filter
       id="filter935"
       x="-2.357507"
       y="-2.3296077"
       width="5.715014"
       height="5.6592155"
       color-interpolation-filters="sRGB">
      <feGaussianBlur
         stdDeviation="0.28543518"
         id="feGaussianBlur933" />
    </filter>
    <filter
       id="filter939"
       x="-2.357507"
       y="-2.3296077"
       width="5.715014"
       height="5.6592155"
       color-interpolation-filters="sRGB">
      <feGaussianBlur
         stdDeviation="0.28543518"
         id="feGaussianBlur937" />
    </filter>
    <filter
       id="filter943"
       x="-2.357507"
       y="-2.3296077"
       width="5.715014"
       height="5.6592155"
       color-interpolation-filters="sRGB">
      <feGaussianBlur
         stdDeviation="0.28543518"
         id="feGaussianBlur941" />
    </filter>
    <filter
       id="filter947"
       x="-2.357507"
       y="-2.3296077"
       width="5.715014"
       height="5.6592155"
       color-interpolation-filters="sRGB">
      <feGaussianBlur
         stdDeviation="0.28543518"
         id="feGaussianBlur945" />
    </filter>
    <filter
       id="filter951"
       x="-2.357507"
       y="-2.3296077"
       width="5.715014"
       height="5.6592155"
       color-interpolation-filters="sRGB">
      <feGaussianBlur
         stdDeviation="0.28543518"
         id="feGaussianBlur949" />
    </filter>
    <filter
       id="filter955"
       x="-2.357507"
       y="-2.3296077"
       width="5.715014"
       height="5.6592155"
       color-interpolation-filters="sRGB">
      <feGaussianBlur
         stdDeviation="0.28543518"
         id="feGaussianBlur953" />
    </filter>
    <filter
       id="filter959"
       x="-2.357507"
       y="-2.3296077"
       width="5.715014"
       height="5.6592155"
       color-interpolation-filters="sRGB">
      <feGaussianBlur
         stdDeviation="0.28543518"
         id="feGaussianBlur957" />
    </filter>
    <filter
       id="filter963"
       x="-2.357507"
       y="-2.3296077"
       width="5.715014"
       height="5.6592155"
       color-interpolation-filters="sRGB">
      <feGaussianBlur
         stdDeviation="0.28543518"
         id="feGaussianBlur961" />
    </filter>
    <filter
       id="filter967"
       x="-2.357507"
       y="-2.3296077"
       width="5.715014"
       height="5.6592155"
       color-interpolation-filters="sRGB">
      <feGaussianBlur
         stdDeviation="0.28543518"
         id="feGaussianBlur965" />
    </filter>
    <filter
       id="filter971"
       x="-2.357507"
       y="-2.3296077"
       width="5.715014"
       height="5.6592155"
       color-interpolation-filters="sRGB">
      <feGaussianBlur
         stdDeviation="0.28543518"
         id="feGaussianBlur969" />
    </filter>
    <filter
       id="filter5815-3"
       x="-0.05500596"
       y="-0.11783287"
       width="1.1100119"
       height="1.2356657"
       color-interpolation-filters="sRGB">
      <feGaussianBlur
         stdDeviation="0.19020097"
         id="feGaussianBlur1371-5" />
    </filter>
    <linearGradient
       inkscape:collect="always"
       id="linearGradient1389">
      <stop
         style="stop-color:#0066ff;stop-opacity:1;"
         offset="0"
         id="stop1385" />
      <stop
         style="stop-color:#5bbfff;stop-opacity:1"
         offset="1"
         id="stop1387" />
    </linearGradient>
    <linearGradient
       id="paint4_linear_77:23-3-9"
       x1="5.7714014"
       y1="46.610188"
       x2="7.0511508"
       y2="-11.516281"
       gradientUnits="userSpaceOnUse"
       gradientTransform="matrix(0.00349877,0.71427605,-0.71427754,0.00374183,-11.045455,19.915239)">
      <stop
         stop-color="#E4F9FF"
         stop-opacity="0.1"
         id="stop43-6-1"
         offset="0"
         style="stop-color:#26cfff;stop-opacity:0.7758621;" />
      <stop
         offset="1"
         stop-color="#E4F9FF"
         stop-opacity="0.8"
         id="stop44-7-2"
         style="stop-color:#05c7ff;stop-opacity:0.80000001;" />
    </linearGradient>
    <linearGradient
       id="paint4_linear_77:23-3-0-0"
       x1="5.762825"
       y1="44.747261"
       x2="6.5105295"
       y2="-8.739049"
       gradientUnits="userSpaceOnUse"
       gradientTransform="matrix(0.51837914,0.49111439,-0.49141329,0.51866228,6.7448933,21.744117)">
      <stop
         stop-color="#E4F9FF"
         stop-opacity="0.1"
         id="stop43-6-9-6"
         offset="0"
         style="stop-color:#26cfff;stop-opacity:0.82635468;" />
      <stop
         offset="1"
         stop-color="#E4F9FF"
         stop-opacity="0.8"
         id="stop44-7-3-2"
         style="stop-color:#05c7ff;stop-opacity:0.80000001;" />
    </linearGradient>
    <linearGradient
       inkscape:collect="always"
       xlink:href="#linearGradient11"
       id="linearGradient13"
       x1="-43.819283"
       y1="23.120178"
       x2="-1.9547797"
       y2="23.120178"
       gradientUnits="userSpaceOnUse" />
    <linearGradient
       id="linearGradient11"
       inkscape:collect="always">
      <stop
         style="stop-color:#9955ff;stop-opacity:0.65640396;"
         offset="0"
         id="stop4-3" />
      <stop
         style="stop-color:#2a7fff;stop-opacity:1"
         offset="1"
         id="stop11" />
    </linearGradient>
    <linearGradient
       inkscape:collect="always"
       xlink:href="#linearGradient14"
       id="linearGradient15"
       x1="-9.6850061"
       y1="45.161198"
       x2="11.98815"
       y2="21.735205"
       gradientUnits="userSpaceOnUse" />
    <linearGradient
       id="linearGradient14"
       inkscape:collect="always">
      <stop
         style="stop-color:#9955ff;stop-opacity:0.45197046;"
         offset="0"
         id="stop12" />
      <stop
         style="stop-color:#5599ff;stop-opacity:1"
         offset="1"
         id="stop13" />
    </linearGradient>
    <linearGradient
       inkscape:collect="always"
       xlink:href="#linearGradient1389"
       id="linearGradient1391-3-3-3"
       x1="17.058088"
       y1="24.10211"
       x2="17.058088"
       y2="9.6445208"
       gradientUnits="userSpaceOnUse"
       gradientTransform="matrix(2.1853569,0,0,2.1848709,-8.969848,-9.228962)" />
  </defs>
  <sodipodi:namedview
     pagecolor="#000000"
     bordercolor="#666666"
     borderopacity="1"
     objecttolerance="10"
     gridtolerance="10"
     guidetolerance="10"
     inkscape:pageopacity="0"
     inkscape:pageshadow="2"
     inkscape:window-width="1920"
     inkscape:window-height="996"
     id="namedview12"
     showgrid="false"
     inkscape:zoom="5.6715855"
     inkscape:cx="22.568645"
     inkscape:cy="22.744963"
     inkscape:window-x="0"
     inkscape:window-y="0"
     inkscape:window-maximized="1"
     inkscape:current-layer="svg10"
     inkscape:document-rotation="0"
     inkscape:showpageshadow="2"
     inkscape:pagecheckerboard="0"
     inkscape:deskcolor="#d1d1d1">
    <inkscape:grid
       type="xygrid"
       id="grid3007"
       originx="18.333754"
       originy="-57.570592"
       spacingy="1"
       spacingx="1"
       units="px"
       visible="false" />
  </sodipodi:namedview>
  <rect
     x="-45.452457"
     y="0.56343073"
     width="45.130814"
     height="45.11338"
     rx="6.0931301"
     stroke="url(#paint4_linear_77:23)"
     shape-rendering="crispEdges"
     id="rect5-6-7-3"
     ry="6.7034802"
     transform="matrix(0.00523883,-0.99998628,0.999988,0.00489859,0,0)"
     style="fill:#80b3ff;fill-opacity:0.15;stroke:url(#linearGradient13);stroke-width:0.714296;stroke-opacity:1" />
  <rect
     x="-14.08561"
     y="17.555443"
     width="29.906595"
     height="29.905661"
     rx="6.0928807"
     shape-rendering="crispEdges"
     id="rect5-6-6-6-6"
     style="fill:#5599ff;fill-opacity:0.122146;stroke:url(#linearGradient15);stroke-width:0.714296;stroke-opacity:1"
     ry="6.7032051"
     transform="matrix(0.72612649,-0.68756114,0.68797751,0.72573201,0,0)" />
  <path
     inkscape:connector-curvature="0"
     d="m 24.912051,11 -4.169564,0.297549 v 16.606458 l 4.169564,-0.507272 v -7.249012 c 1.808392,2.729015 3.259668,5.268144 5.683158,7.906493 l 4.319774,-1.241234 A 56.417771,56.405238 0 0 1 29.299841,19.20404 c 1.638347,-2.417279 3.693357,-4.845905 5.700166,-7.016662 l -4.475641,-1.099546 a 71.372513,71.356679 0 0 0 -5.612315,7.232033 m -9.501221,-3.91074 a 0.34013936,0.34006398 0 0 0 -0.18428,0.09641 c -0.49034,0.464732 -0.955197,0.929527 -1.445561,1.394252 -0.212607,0.206873 0.0062,0.453424 0.09918,0.623459 l 0.992098,1.371585 0.742613,1.000355 c 0.104884,0.141694 0.136055,0.158692 0.08225,0.260712 -0.06821,0.104839 -0.121884,0.189887 -0.18427,0.297571 -0.963731,1.620946 -0.289134,1.745662 -2.352654,2.269919 l -1.584477,0.263524 c -0.232394,0.07649 -0.538553,0.07096 -0.555531,0.396747 0,0.651796 -0.01992,1.303603 -0.01992,1.955407 -0.01132,0.303199 0.325972,0.331519 0.524376,0.382572 l 1.683684,0.291873 1.26134,0.22953 c 0.17006,0.02276 0.209775,-0.01715 0.249456,0.113381 0.515842,2.17353 1.19046,1.671931 0.06528,3.576311 l -0.907048,1.261079 c -0.119036,0.218209 -0.340119,0.433563 -0.113354,0.654599 0.476199,0.473258 0.932536,0.949373 1.411573,1.422622 0.21258,0.206885 0.484702,-0.0064 0.657605,-0.09918 l 1.394556,-0.969191 1.043099,-0.699933 c 0.141748,-0.119047 0.161569,-0.14737 0.269289,-0.08511 2.089011,1.278094 2.162724,0.357071 2.772136,2.505134 l 0.300464,1.538809 c 0.07941,0.226715 0.08508,0.52424 0.405319,0.538432 H 24.0504 c 0.303284,0 0.331638,-0.348575 0.368475,-0.538432 l 0.283438,-1.637983 0.204083,-1.210058 c 0.01398,-0.116181 0.0091,-0.175695 0.03113,-0.215354 2.449011,-0.50444 1.842442,-1.212904 3.832252,-0.08217 l 1.292533,0.884156 c 0.238119,0.116193 0.464862,0.320232 0.691618,0.102033 0.479028,-0.453437 0.955234,-0.909698 1.437091,-1.360271 0.215436,-0.218193 0.0025,-0.467582 -0.09918,-0.634784 h -0.01992 l -0.941058,-1.292228 -0.620761,0.209672 c -0.15873,0.104872 -0.368491,0.06528 -0.558384,-0.17851 l -1.360542,-1.751359 a 7.006869,7.0053086 0 0 1 -5.649128,2.81687 c -3.829416,0 -6.958724,-3.043552 -6.958724,-6.772912 0,-2.652506 1.578825,-4.947964 3.866277,-6.058817 v -1.558595 c -0.07652,0.03956 -0.170067,0.05941 -0.232444,0.08508 -0.895693,0.359881 -0.95237,0.524257 -2.417801,-0.294716 l -1.292522,-0.89835 c -0.181395,-0.0794 -0.340147,-0.226704 -0.504542,-0.187051 m 4.43883,3.482841 a 6.2443903,6.243003 0 0 0 -3.265325,5.449541 c 0,3.437457 2.882689,6.251496 6.428647,6.251496 2.191043,0 4.112825,-1.082533 5.272144,-2.726201 l -0.06239,-0.133212 c -1.360558,1.467982 -2.894014,2.420138 -5.229631,2.471163 -2.908199,0.05113 -5.853236,-2.47116 -5.867402,-5.795267 -0.02538,-2.142404 0.992063,-3.581993 2.721095,-4.610684 v -0.901176"
     id="path28-3-2-5-5-5"
     style="fill:url(#linearGradient1391-3-3-3);fill-opacity:1;fill-rule:evenodd;stroke-width:4.49909" />
  <path
     style="color:#dedede;fill:#80b3ff;fill-opacity:1;stroke:none;stroke-width:1"
     class="ColorScheme-Text"
     d="m 38.235175,33.750166 c -2.384459,0 -4.636677,1.052338 -6.179298,2.887504 -0.204902,0.243718 -0.172626,0.607227 0.07152,0.812102 0.108001,0.09069 0.239237,0.134773 0.370312,0.134773 0.164521,0 0.327646,-0.0694 0.441796,-0.205085 1.322364,-1.573365 3.252584,-2.47617 5.295704,-2.47617 2.04312,0 3.973362,0.903177 5.295705,2.47617 0.114169,0.135703 0.277252,0.205085 0.441796,0.205085 0.131092,0 0.263481,-0.0437 0.371483,-0.134773 0.243718,-0.204524 0.275216,-0.568781 0.07034,-0.812102 -1.54223,-1.835166 -3.794843,-2.887504 -6.1793,-2.887504 z m 0,2.442189 c -1.7033,0 -3.311582,0.752041 -4.413278,2.062501 -0.204887,0.243718 -0.1738,0.607226 0.07034,0.812104 0.108003,0.0907 0.239219,0.134767 0.370312,0.134767 0.164523,0 0.328013,-0.06941 0.441796,-0.205072 0.881436,-1.049035 2.168897,-1.651178 3.530857,-1.651178 1.361963,0 2.649034,0.602143 3.530864,1.651178 0.114172,0.136086 0.277663,0.205072 0.441798,0.205072 0.13109,0 0.262284,-0.04368 0.37031,-0.134767 0.24409,-0.204878 0.275175,-0.568761 0.07034,-0.812104 -1.102113,-1.310442 -2.70998,-2.062501 -4.413284,-2.062501 z m 0,2.537105 c -1.022511,0 -1.988034,0.450228 -2.648435,1.236329 -0.204906,0.24372 -0.172624,0.607228 0.0715,0.81211 0.108002,0.0907 0.23922,0.135942 0.370315,0.135942 0.164521,0 0.328017,-0.07059 0.441798,-0.206256 0.440923,-0.52472 1.084057,-0.824995 1.764837,-0.824995 0.680788,0 1.323946,0.300275 1.764849,0.824995 0.114169,0.136087 0.277646,0.206256 0.441796,0.206256 0.131093,0 0.262311,-0.04478 0.370312,-0.135942 0.244109,-0.204898 0.276371,-0.568406 0.07153,-0.81211 -0.660418,-0.786101 -1.625942,-1.236329 -2.64844,-1.236329 z m -0.04918,2.189067 c -0.450981,0.04293 -0.884724,0.380306 -0.9,0.882425 0,0.524247 0.424987,0.949214 0.949216,0.949214 0.52423,0 0.949218,-0.424967 0.949218,-0.949214 -0.08025,-0.673996 -0.547456,-0.925395 -0.998434,-0.882425 z"
     id="path1" />
</svg>
