<?xml version="1.0" encoding="UTF-8" standalone="no"?>
<svg
   width="45.999886"
   height="45.999989"
   version="1.1"
   viewBox="0 0 12.170564 12.170591"
   id="svg12"
   sodipodi:docname="preferences-desktop-effects.svg"
   inkscape:version="1.3.2 (091e20ef0f, 2023-11-25)"
   xmlns:inkscape="http://www.inkscape.org/namespaces/inkscape"
   xmlns:sodipodi="http://sodipodi.sourceforge.net/DTD/sodipodi-0.dtd"
   xmlns:xlink="http://www.w3.org/1999/xlink"
   xmlns="http://www.w3.org/2000/svg"
   xmlns:svg="http://www.w3.org/2000/svg">
  <defs
     id="defs16">
    <linearGradient
       id="c"
       y1="523.79999"
       x1="403.57001"
       y2="536.79999"
       x2="416.57001"
       gradientUnits="userSpaceOnUse"
       gradientTransform="matrix(0.34526714,0,0,0.34526706,-134.80427,-174.63325)">
      <stop
         stop-color="#292c2f"
         id="stop1568" />
      <stop
         offset="1"
         stop-opacity="0"
         id="stop1570" />
    </linearGradient>
    <linearGradient
       xlink:href="#b-2"
       id="linearGradient4189"
       x1="14.369"
       y1="22.521999"
       x2="26.521999"
       y2="22.521999"
       gradientUnits="userSpaceOnUse" />
    <linearGradient
       x1="36"
       gradientUnits="userSpaceOnUse"
       x2="14"
       y2="12"
       y1="44"
       id="b-2">
      <stop
         style="stop-color:#bfc9c9;stop-opacity:1"
         stop-color="#536161"
         id="stop1579" />
      <stop
         style="stop-color:#fbfbfb;stop-opacity:1"
         stop-color="#f4f5f5"
         offset="1"
         id="stop1581" />
    </linearGradient>
    <linearGradient
       xlink:href="#b-2"
       id="linearGradient4428"
       gradientUnits="userSpaceOnUse"
       x1="31.586"
       y1="36.345001"
       x2="1.2029999"
       y2="6.723" />
    <linearGradient
       xlink:href="#b-2"
       id="linearGradient4189-3"
       x1="14.369"
       y1="22.521999"
       x2="26.521999"
       y2="22.521999"
       gradientUnits="userSpaceOnUse"
       gradientTransform="translate(20.841982,61.553822)" />
    <linearGradient
       xlink:href="#b-2"
       id="linearGradient4428-5"
       gradientUnits="userSpaceOnUse"
       x1="31.586"
       y1="36.345001"
       x2="1.2029999"
       y2="6.723"
       gradientTransform="translate(20.841982,61.553822)" />
    <linearGradient
       xlink:href="#b-2"
       id="linearGradient4189-3-3"
       x1="14.369"
       y1="22.521999"
       x2="26.521999"
       y2="22.521999"
       gradientUnits="userSpaceOnUse"
       gradientTransform="translate(4.376802,4.4211693)" />
    <linearGradient
       xlink:href="#b-2"
       id="linearGradient4428-5-5"
       gradientUnits="userSpaceOnUse"
       x1="31.586"
       y1="36.345001"
       x2="1.2029999"
       y2="6.723"
       gradientTransform="translate(4.376802,4.4211693)" />
    <linearGradient
       inkscape:collect="always"
       xlink:href="#linearGradient11"
       id="linearGradient13"
       x1="-43.819283"
       y1="23.120178"
       x2="-1.9547797"
       y2="23.120178"
       gradientUnits="userSpaceOnUse"
       gradientTransform="scale(0.26457813)" />
    <linearGradient
       id="linearGradient11"
       inkscape:collect="always">
      <stop
         style="stop-color:#9955ff;stop-opacity:0.65640396;"
         offset="0"
         id="stop4-3" />
      <stop
         style="stop-color:#00ccff;stop-opacity:1"
         offset="1"
         id="stop11" />
    </linearGradient>
    <linearGradient
       inkscape:collect="always"
       xlink:href="#linearGradient14"
       id="linearGradient15"
       x1="-9.6850061"
       y1="45.161198"
       x2="11.98815"
       y2="21.735205"
       gradientUnits="userSpaceOnUse"
       gradientTransform="scale(0.26457813)" />
    <linearGradient
       id="linearGradient14"
       inkscape:collect="always">
      <stop
         style="stop-color:#9955ff;stop-opacity:0.45197046;"
         offset="0"
         id="stop12" />
      <stop
         style="stop-color:#00ccff;stop-opacity:1"
         offset="1"
         id="stop13" />
    </linearGradient>
    <filter
       id="filter2917-3"
       x="-0.96181147"
       y="-0.66745996"
       width="2.9236229"
       height="2.3349199"
       color-interpolation-filters="sRGB">
      <feGaussianBlur
         stdDeviation="0.2871969"
         id="feGaussianBlur732-5" />
    </filter>
    <filter
       id="filter1"
       x="-0.96181148"
       y="-0.66745996"
       width="2.9236228"
       height="2.3349199"
       color-interpolation-filters="sRGB">
      <feGaussianBlur
         stdDeviation="0.2871969"
         id="feGaussianBlur1" />
    </filter>
    <filter
       id="filter2"
       x="-0.96181148"
       y="-0.66745996"
       width="2.9236228"
       height="2.3349199"
       color-interpolation-filters="sRGB">
      <feGaussianBlur
         stdDeviation="0.2871969"
         id="feGaussianBlur2" />
    </filter>
    <linearGradient
       id="paint0_linear_8_574"
       x1="5.0527601"
       y1="19.735399"
       x2="5.0527601"
       y2="2.15942"
       gradientUnits="userSpaceOnUse"
       gradientTransform="scale(0.26457813)">
      <stop
         stop-color="#FD5900"
         id="stop4" />
      <stop
         offset="1"
         stop-color="#FFDE00"
         id="stop5" />
    </linearGradient>
    <linearGradient
       id="paint1_linear_8_574"
       x1="21.1682"
       y1="12.5813"
       x2="21.1682"
       y2="8.9010601"
       gradientUnits="userSpaceOnUse"
       gradientTransform="scale(0.26457813)">
      <stop
         stop-color="#FD5900"
         id="stop6" />
      <stop
         offset="1"
         stop-color="#FFDE00"
         id="stop7" />
    </linearGradient>
    <linearGradient
       id="paint2_linear_8_574"
       x1="16.6901"
       y1="6.9267302"
       x2="16.6901"
       y2="1"
       gradientUnits="userSpaceOnUse"
       gradientTransform="scale(0.26457813)">
      <stop
         stop-color="#FD5900"
         id="stop8" />
      <stop
         offset="1"
         stop-color="#FFDE00"
         id="stop9" />
    </linearGradient>
    <linearGradient
       id="paint3_linear_8_574"
       x1="13.1583"
       y1="23.002399"
       x2="13.1583"
       y2="5.63239"
       gradientUnits="userSpaceOnUse"
       gradientTransform="scale(0.26457813)">
      <stop
         stop-color="#FD5900"
         id="stop10" />
      <stop
         offset="1"
         stop-color="#FFDE00"
         id="stop11-6" />
    </linearGradient>
  </defs>
  <sodipodi:namedview
     id="namedview14"
     pagecolor="#000000"
     bordercolor="#666666"
     borderopacity="1.0"
     inkscape:showpageshadow="2"
     inkscape:pageopacity="0.0"
     inkscape:pagecheckerboard="0"
     inkscape:deskcolor="#d1d1d1"
     showgrid="false"
     inkscape:zoom="5.2149125"
     inkscape:cx="23.20269"
     inkscape:cy="53.692176"
     inkscape:window-width="1920"
     inkscape:window-height="996"
     inkscape:window-x="0"
     inkscape:window-y="0"
     inkscape:window-maximized="1"
     inkscape:current-layer="svg12">
    <inkscape:grid
       type="xygrid"
       id="grid244"
       originx="9.7893915"
       originy="-31.749373"
       spacingy="1"
       spacingx="1"
       units="px"
       visible="false" />
  </sodipodi:namedview>
  <rect
     x="-12.025727"
     y="0.1490714"
     width="11.940627"
     height="11.936014"
     rx="1.6121091"
     stroke="url(#paint4_linear_77:23)"
     shape-rendering="crispEdges"
     id="rect5-6-7-3"
     ry="1.7735944"
     transform="matrix(0.00523883,-0.99998628,0.999988,0.00489859,0,0)"
     style="fill:#80b3ff;fill-opacity:0.15;stroke:url(#linearGradient13);stroke-width:0.188987;stroke-opacity:1" />
  <rect
     x="-3.7266586"
     y="4.6446943"
     width="7.912631"
     height="7.912384"
     rx="1.612043"
     shape-rendering="crispEdges"
     id="rect5-6-6-6-6"
     style="fill:#80b3ff;fill-opacity:0.122146;stroke:url(#linearGradient15);stroke-width:0.188987;stroke-opacity:1"
     ry="1.7735215"
     transform="matrix(0.72612649,-0.68756114,0.6879775,0.72573202,0,0)" />
  <path
     opacity="0.5"
     d="m 3.4336236,3.6725121 c -0.1656338,0.16565 -0.258686,0.390309 -0.258686,0.624561 0,0.234252 0.093052,0.458911 0.258686,0.62456 l 0.4862285,0.486536 c 0.00367,-0.0043 0.1700417,0.154106 0.1740236,0.150137 l 1.2255285,-1.225539 c 0.00398,-0.004 -0.1544157,-0.170349 -0.1501269,-0.174026 L 4.6827419,3.6725121 c -0.165647,-0.165634 -0.3903056,-0.258686 -0.6245578,-0.258686 -0.2342522,0 -0.4589134,0.09305 -0.6245605,0.258686 z m 0.3946209,3.511759 c 0.010824,-0.02775 0.029776,-0.05162 0.054374,-0.06842 0.024601,-0.0168 0.053701,-0.0258 0.083498,-0.0258 0.029794,0 0.058895,0.009 0.083496,0.0258 0.0246,0.0168 0.043552,0.04067 0.054376,0.06842 l 0.0481,0.122553 c 0.00736,0.01894 0.018563,0.03614 0.032906,0.05053 0.014346,0.01442 0.031517,0.02566 0.050431,0.0331 l 0.1219414,0.0481 c 0.02768,0.01103 0.051416,0.03011 0.068139,0.05477 0.016721,0.02466 0.025662,0.05376 0.025662,0.08358 0,0.02979 -0.00894,0.05889 -0.025662,0.08355 -0.016724,0.02466 -0.040459,0.04374 -0.068139,0.05477 l -0.1219414,0.04842 c -0.018878,0.0075 -0.036017,0.01876 -0.050352,0.03315 -0.014335,0.01439 -0.025561,0.03156 -0.032985,0.05048 l -0.0481,0.122553 c -0.010824,0.02775 -0.029776,0.05159 -0.054376,0.06842 -0.024601,0.0168 -0.053702,0.0258 -0.083496,0.0258 -0.029797,0 -0.058898,-0.009 -0.083498,-0.0258 -0.024598,-0.01683 -0.04355,-0.04067 -0.054374,-0.06842 l -0.048103,-0.122553 c -0.00742,-0.01892 -0.01865,-0.03609 -0.032985,-0.05048 -0.014335,-0.01439 -0.031474,-0.02566 -0.050352,-0.03315 L 3.574866,7.7152261 c -0.027683,-0.01103 -0.051418,-0.03011 -0.06814,-0.05477 -0.016724,-0.02466 -0.025661,-0.05376 -0.025661,-0.08355 0,-0.02982 0.00894,-0.05892 0.025661,-0.08358 0.016721,-0.02466 0.040457,-0.04373 0.06814,-0.05477 l 0.1219388,-0.0481 c 0.018909,-0.0075 0.036065,-0.01886 0.050402,-0.03331 0.014337,-0.01445 0.025548,-0.03167 0.032935,-0.05064 z"
     fill="url(#paint0_linear_8_574)"
     id="path1"
     style="fill:#ffd42a;stroke-width:0.264578;fill-opacity:1;opacity:1" />
  <path
     opacity="0.2"
     d="m 8.3731306,5.2917411 c 0.010821,-0.02776 0.029765,-0.05161 0.054371,-0.06842 0.024579,-0.01681 0.053683,-0.02581 0.083501,-0.02581 0.029791,0 0.058895,0.009 0.083474,0.02581 0.024606,0.01681 0.04355,0.04066 0.054397,0.06842 l 0.047783,0.122246 c 0.015319,0.0383 0.045349,0.06863 0.083633,0.08365 l 0.1219441,0.04839 c 0.027596,0.01109 0.051222,0.03016 0.067891,0.05479 0.016642,0.02463 0.025532,0.05366 0.025532,0.08339 0,0.02971 -0.00889,0.05876 -0.025532,0.08339 -0.016668,0.02463 -0.040295,0.04371 -0.067891,0.05477 l -0.1219441,0.04842 c -0.018917,0.0075 -0.036115,0.01876 -0.050482,0.03315 -0.014393,0.01437 -0.025691,0.03156 -0.033152,0.05048 l -0.047783,0.122552 c -0.010848,0.02778 -0.029791,0.05162 -0.054397,0.06842 -0.024579,0.01683 -0.053683,0.02582 -0.083474,0.02582 -0.029818,0 -0.058922,-0.009 -0.083501,-0.02582 -0.024606,-0.0168 -0.04355,-0.04064 -0.054371,-0.06842 l -0.048127,-0.122552 c -0.00743,-0.01889 -0.018653,-0.03606 -0.032993,-0.05043 -0.01434,-0.01439 -0.031458,-0.02569 -0.050323,-0.03321 l -0.1219441,-0.04842 c -0.027596,-0.01106 -0.051222,-0.03014 -0.067864,-0.05477 -0.016668,-0.02463 -0.025558,-0.05368 -0.025558,-0.08339 0,-0.02974 0.00889,-0.05876 0.025558,-0.08339 0.016642,-0.02463 0.040269,-0.04371 0.067864,-0.05479 l 0.1219441,-0.04839 c 0.018864,-0.0075 0.035983,-0.01881 0.050323,-0.0332 0.01434,-0.01439 0.025558,-0.03156 0.032993,-0.05045 l 0.048127,-0.122553 z"
     fill="url(#paint1_linear_8_574)"
     id="path2"
     style="fill:#ffd42a;stroke-width:0.264578;fill-opacity:1;opacity:1" />
  <path
     opacity="0.7"
     d="m 7.1883233,3.2012911 c 0.010848,-0.02776 0.029791,-0.0516 0.054397,-0.06841 0.024579,-0.01681 0.053683,-0.02581 0.083474,-0.02581 0.029818,0 0.058922,0.009 0.083501,0.02581 0.024606,0.01681 0.04355,0.04066 0.054397,0.06841 l 0.1317334,0.33549 c 0.00736,0.01898 0.018547,0.03623 0.032887,0.05068 0.01434,0.01445 0.031511,0.02577 0.050455,0.03327 l 0.3342416,0.132358 c 0.027701,0.01103 0.051434,0.0301 0.068155,0.05476 0.016721,0.02466 0.025664,0.05377 0.025664,0.08357 0,0.0298 -0.00894,0.05891 -0.025664,0.08357 -0.016721,0.02466 -0.040454,0.04374 -0.068155,0.05476 l -0.3339505,0.132358 c -0.018917,0.0075 -0.036115,0.01875 -0.050508,0.03314 -0.014367,0.01439 -0.025664,0.03158 -0.033125,0.0505 l -0.1317334,0.335184 c -0.010848,0.02776 -0.029791,0.05161 -0.054397,0.06842 -0.024579,0.01681 -0.053683,0.0258 -0.083501,0.0258 -0.029791,0 -0.058895,-0.009 -0.083474,-0.0258 -0.024606,-0.01681 -0.04355,-0.04066 -0.054397,-0.06842 L 7.0565898,4.2454431 c -0.00746,-0.01892 -0.018759,-0.03611 -0.033125,-0.0505 -0.014393,-0.01439 -0.031591,-0.02567 -0.050508,-0.03314 l -0.333977,-0.132358 c -0.027675,-0.01103 -0.051407,-0.0301 -0.068129,-0.05476 -0.016721,-0.02466 -0.025664,-0.05377 -0.025664,-0.08357 0,-0.0298 0.00894,-0.05891 0.025664,-0.08357 0.016721,-0.02466 0.040454,-0.04374 0.068129,-0.05476 l 0.333977,-0.132358 c 0.018944,-0.0075 0.036168,-0.01883 0.050534,-0.03328 0.014393,-0.01444 0.025664,-0.03169 0.033099,-0.05067 z"
     fill="url(#paint2_linear_8_574)"
     id="path3"
     style="fill:#ffd42a;stroke-width:0.264578;fill-opacity:1;opacity:1" />
  <path
     d="m 5.4934358,4.4828991 c -0.00368,0.0043 -0.1700417,-0.154111 -0.1740263,-0.150129 L 4.093881,5.5583061 c -0.00398,0.004 0.1544157,0.170336 0.1501269,0.174013 l 2.9375951,2.937294 c 0.082019,0.08205 0.179384,0.147105 0.2865646,0.191528 0.1071541,0.0444 0.2220339,0.06726 0.338025,0.06728 0.1160175,0 0.2308973,-0.02283 0.3380779,-0.0672 0.1071806,-0.04437 0.2045718,-0.109429 0.2865911,-0.191449 0.082046,-0.08202 0.1471319,-0.17941 0.1915281,-0.286564 0.044423,-0.107181 0.067282,-0.222034 0.067282,-0.338052 2.64e-5,-0.115991 -0.022807,-0.230871 -0.067176,-0.338051 -0.044396,-0.107181 -0.109456,-0.204572 -0.1914752,-0.286618 z"
     fill="url(#paint3_linear_8_574)"
     id="path4"
     style="fill:#8d5fd3;stroke-width:0.264578;fill-opacity:1" />
</svg>
