<?xml version="1.0" encoding="UTF-8" standalone="no"?>
<svg
   xmlns:dc="http://purl.org/dc/elements/1.1/"
   xmlns:cc="http://creativecommons.org/ns#"
   xmlns:rdf="http://www.w3.org/1999/02/22-rdf-syntax-ns#"
   xmlns:svg="http://www.w3.org/2000/svg"
   xmlns="http://www.w3.org/2000/svg"
   xmlns:xlink="http://www.w3.org/1999/xlink"
   xmlns:sodipodi="http://sodipodi.sourceforge.net/DTD/sodipodi-0.dtd"
   xmlns:inkscape="http://www.inkscape.org/namespaces/inkscape"
   width="47.285591"
   height="47.28569"
   version="1.1"
   viewBox="0 0 12.510734 12.51076"
   id="svg12"
   sodipodi:docname="preferences-other.svg"
   inkscape:version="1.0.1 (3bc2e813f5, 2020-09-07)">
  <style
     id="style858"></style>
  <metadata
     id="metadata33">
    <rdf:RDF>
      <cc:Work
         rdf:about="">
        <dc:format>image/svg+xml</dc:format>
        <dc:type
           rdf:resource="http://purl.org/dc/dcmitype/StillImage" />
      </cc:Work>
    </rdf:RDF>
  </metadata>
  <defs
     id="defs16">
    <linearGradient
       id="c"
       y1="523.79999"
       x1="403.57001"
       y2="536.79999"
       x2="416.57001"
       gradientUnits="userSpaceOnUse"
       gradientTransform="matrix(0.34526714,0,0,0.34526706,-134.80427,-174.63325)">
      <stop
         stop-color="#292c2f"
         id="stop1568" />
      <stop
         offset="1"
         stop-opacity="0"
         id="stop1570" />
    </linearGradient>
    <linearGradient
       xlink:href="#b-2"
       id="linearGradient4189"
       x1="14.369"
       y1="22.521999"
       x2="26.521999"
       y2="22.521999"
       gradientUnits="userSpaceOnUse" />
    <linearGradient
       x1="36"
       gradientUnits="userSpaceOnUse"
       x2="14"
       y2="12"
       y1="44"
       id="b-2">
      <stop
         style="stop-color:#bfc9c9;stop-opacity:1"
         stop-color="#536161"
         id="stop1579" />
      <stop
         style="stop-color:#fbfbfb;stop-opacity:1"
         stop-color="#f4f5f5"
         offset="1"
         id="stop1581" />
    </linearGradient>
    <linearGradient
       xlink:href="#b-2"
       id="linearGradient4428"
       gradientUnits="userSpaceOnUse"
       x1="31.586"
       y1="36.345001"
       x2="1.2029999"
       y2="6.723" />
    <linearGradient
       xlink:href="#b-2"
       id="linearGradient4189-3"
       x1="14.369"
       y1="22.521999"
       x2="26.521999"
       y2="22.521999"
       gradientUnits="userSpaceOnUse"
       gradientTransform="translate(20.841982,61.553822)" />
    <linearGradient
       xlink:href="#b-2"
       id="linearGradient4428-5"
       gradientUnits="userSpaceOnUse"
       x1="31.586"
       y1="36.345001"
       x2="1.2029999"
       y2="6.723"
       gradientTransform="translate(20.841982,61.553822)" />
    <linearGradient
       xlink:href="#b-2"
       id="linearGradient4189-3-3"
       x1="14.369"
       y1="22.521999"
       x2="26.521999"
       y2="22.521999"
       gradientUnits="userSpaceOnUse"
       gradientTransform="translate(4.376802,4.4211693)" />
    <linearGradient
       xlink:href="#b-2"
       id="linearGradient4428-5-5"
       gradientUnits="userSpaceOnUse"
       x1="31.586"
       y1="36.345001"
       x2="1.2029999"
       y2="6.723"
       gradientTransform="translate(4.376802,4.4211693)" />
    <linearGradient
       inkscape:collect="always"
       xlink:href="#linearGradient14"
       id="linearGradient15"
       x1="-9.6850061"
       y1="45.161198"
       x2="11.98815"
       y2="21.735205"
       gradientUnits="userSpaceOnUse"
       gradientTransform="scale(0.26457813)" />
    <linearGradient
       id="linearGradient14"
       inkscape:collect="always">
      <stop
         style="stop-color:#9955ff;stop-opacity:0.45197046;"
         offset="0"
         id="stop12" />
      <stop
         style="stop-color:#00ccff;stop-opacity:1"
         offset="1"
         id="stop13" />
    </linearGradient>
    <linearGradient
       id="paint3_linear"
       x1="69.25"
       y1="28.75"
       x2="75.501099"
       y2="35.5"
       gradientUnits="userSpaceOnUse"
       gradientTransform="matrix(0.642,0,0,0.642,-67.471,-33.235)">
      <stop
         id="stop67"
         offset="0"
         style="stop-color:#4c4c4c;stop-opacity:1;" />
      <stop
         offset="1"
         stop-opacity="0"
         id="stop69"
         style="stop-color:#151515;stop-opacity:0;" />
    </linearGradient>
    <linearGradient
       inkscape:collect="always"
       xlink:href="#linearGradient14"
       id="linearGradient866"
       x1="-12.025727"
       y1="6.1170783"
       x2="-0.085100174"
       y2="6.1170783"
       gradientUnits="userSpaceOnUse" />
  </defs>
  <sodipodi:namedview
     id="namedview14"
     pagecolor="#000000"
     bordercolor="#666666"
     borderopacity="1.0"
     inkscape:showpageshadow="2"
     inkscape:pageopacity="0.0"
     inkscape:pagecheckerboard="0"
     inkscape:deskcolor="#d1d1d1"
     showgrid="false"
     inkscape:zoom="9.0252824"
     inkscape:cx="-12.973918"
     inkscape:cy="20.004474"
     inkscape:window-width="1920"
     inkscape:window-height="988"
     inkscape:window-x="0"
     inkscape:window-y="0"
     inkscape:window-maximized="1"
     inkscape:current-layer="svg12"
     inkscape:document-rotation="0">
    <inkscape:grid
       type="xygrid"
       id="grid244"
       originx="9.9594769"
       originy="-31.57929"
       spacingy="1"
       spacingx="1"
       units="px"
       visible="false" />
  </sodipodi:namedview>
  <rect
     x="-12.194976"
     y="0.32004508"
     width="11.940627"
     height="11.936014"
     rx="1.6121091"
     shape-rendering="crispEdges"
     id="rect5-6-7-3"
     ry="1.7735944"
     transform="matrix(0.00523883,-0.99998628,0.999988,0.00489859,0,0)"
     style="fill:#80b3ff;fill-opacity:0.15;stroke:url(#linearGradient866);stroke-width:0.529156;stroke-miterlimit:4;stroke-dasharray:none;stroke-opacity:1" />
  <rect
     x="-3.7202365"
     y="4.8851409"
     width="7.912631"
     height="7.912384"
     rx="1.612043"
     shape-rendering="crispEdges"
     id="rect5-6-6-6-6"
     style="fill:#80b3ff;fill-opacity:0.122146;stroke:url(#linearGradient15);stroke-width:0.396867;stroke-miterlimit:4;stroke-dasharray:none;stroke-opacity:1"
     ry="1.7735215"
     transform="matrix(0.72612649,-0.68756114,0.6879775,0.72573202,0,0)" />
  <path
     d="m 5.1042826,2.8952388 c -0.1082581,0 -0.195448,0.087201 -0.195448,0.1954455 V 3.3568295 A 1.5610882,1.5783656 0 0 0 4.5239501,3.5213746 L 4.3323141,3.3297141 c -0.038296,-0.038293 -0.088223,-0.057652 -0.1381988,-0.057652 -0.049975,0 -0.099918,0.01925 -0.1382161,0.057652 l -0.2764006,0.276401 c -0.076575,0.076575 -0.076575,0.1998219 0,0.2764149 L 3.9726727,4.075723 A 1.5610882,1.5783656 0 0 0 3.8104186,4.4590524 H 3.5404713 c -0.1082505,0 -0.1954487,0.087188 -0.1954487,0.195446 V 5.045454 c 0,0.1083053 0.087202,0.1955053 0.1954487,0.1955053 H 3.79551 A 1.5610882,1.5783656 0 0 0 3.9501517,5.6467912 L 3.7794986,5.8174408 c -0.076575,0.076574 -0.076575,0.1998447 0,0.2763848 L 4.0558992,6.370232 c 0.076572,0.076594 0.1998243,0.076594 0.2764149,0 L 4.4857838,6.2167871 a 1.5610882,1.5783656 0 0 0 0.4230524,0.1863117 v 0.2061569 c 0,0.1082929 0.087191,0.1955013 0.1954464,0.1955013 h 0.3909557 c 0.1083053,0 0.1955048,-0.087212 0.1955048,-0.1955013 V 6.4107236 A 1.5610882,1.5783656 0 0 0 6.1248251,6.2278555 L 6.2672255,6.370232 c 0.076572,0.076594 0.1998442,0.076594 0.2763841,0 L 6.8200162,6.0938256 c 0.076594,-0.07654 0.076594,-0.1998142 0,-0.2763848 L 6.6669348,5.6643195 A 1.5610882,1.5783656 0 0 0 6.8315028,5.2409593 H 7.05904 c 0.1082931,0 0.1955012,-0.087204 0.1955012,-0.1955053 V 4.6544984 c 0,-0.1082598 -0.087209,-0.195446 -0.1955012,-0.195446 H 6.8173756 A 1.5610882,1.5783656 0 0 0 6.6440174,4.058541 L 6.8200162,3.8825301 c 0.076594,-0.076598 0.076594,-0.1998445 0,-0.2764149 L 6.5436096,3.3297141 c -0.076542,-0.076574 -0.1998165,-0.076574 -0.2763841,0 L 6.0862742,3.5106939 A 1.5610882,1.5783656 0 0 0 5.6907431,3.3510885 V 3.0906843 c 0,-0.1082478 -0.087204,-0.1954455 -0.1955048,-0.1954455 z M 5.2997905,3.7382254 A 1.1117629,1.1117629 0 0 1 6.4115544,4.8500081 1.1117629,1.1117629 0 0 1 5.2997905,5.9617725 1.1117629,1.1117629 0 0 1 4.1880113,4.8500081 1.1117629,1.1117629 0 0 1 5.2997905,3.7382254 Z"
     id="path4-3-7-3-6"
     style="fill:#ffffff;stroke-width:0.254218" />
  <path
     d="m 6.9277355,6.786654 c -0.1082786,0 -0.1954766,0.087223 -0.1954766,0.1955175 V 7.1776052 A 1.2099349,1.2099349 0 0 0 6.4035448,7.3139394 L 6.2653192,7.1757404 c -0.076542,-0.0766 -0.1998162,-0.0766 -0.2763842,0 l -0.1382013,0.138199 c -0.0766,0.076574 -0.0766,0.1998484 0,0.2763841 L 5.9892948,7.728948 A 1.2099349,1.2099349 0 0 0 5.8530222,8.0572624 h -0.195857 c -0.108291,0 -0.1955175,0.087205 -0.1955175,0.195504 v 0.1954517 c 0,0.1082914 0.087204,0.1954774 0.1955175,0.1954774 h 0.195436 A 1.2099349,1.2099349 0 0 0 5.988935,8.972428 L 5.8507337,9.1106186 c -0.0766,0.076591 -0.0766,0.1998165 0,0.2764025 L 5.988935,9.5252349 c 0.076574,0.076558 0.1998443,0.076558 0.2763842,0 L 6.4039414,9.3866464 a 1.2099349,1.2099349 0 0 0 0.3283175,0.1362872 v 0.1959013 c 0,0.108249 0.087202,0.1954422 0.1954766,0.1954422 h 0.1954728 c 0.1082704,0 0.1954826,-0.087197 0.1954826,-0.1954422 V 9.5233265 a 1.2099349,1.2099349 0 0 0 0.328732,-0.1363054 l 0.1381887,0.1382138 c 0.076574,0.076558 0.1998145,0.076558 0.2764037,0 l 0.138211,-0.1382138 c 0.07653,-0.076587 0.07653,-0.1998163 0,-0.2764025 L 8.0616385,8.9720249 A 1.2099349,1.2099349 0 0 0 8.1979259,8.6436955 h 0.1958423 c 0.1083071,0 0.1955092,-0.087188 0.1955092,-0.1954774 V 8.2527664 c 0,-0.1083032 -0.087205,-0.195504 -0.1955092,-0.195504 H 8.1983208 A 1.2099349,1.2099349 0 0 0 8.0620153,7.7285512 l 0.138211,-0.1382277 c 0.07653,-0.076534 0.07653,-0.1998167 0,-0.2763841 l -0.138211,-0.138199 c -0.076564,-0.0766 -0.199819,-0.0766 -0.2764037,0 L 7.6470171,7.314303 A 1.2099349,1.2099349 0 0 0 7.3186909,7.1780248 V 6.9821715 c 0,-0.1082935 -0.087213,-0.1955175 -0.1954826,-0.1955175 z m 0.097726,0.861358 A 0.70248745,0.70248746 0 0 1 7.7279427,8.3504656 0.70248745,0.70248746 0 0 1 7.0254616,9.052963 0.70248745,0.70248746 0 0 1 6.3229809,8.3504656 0.70248745,0.70248746 0 0 1 7.0254615,7.648012 Z"
     fill-opacity="1.0"
     id="path6-6-5-6-7"
     style="fill:#80b3ff;fill-opacity:1;stroke-width:0.254218" />
</svg>
