<?xml version="1.0" encoding="UTF-8" standalone="no"?>
<svg
   xmlns:dc="http://purl.org/dc/elements/1.1/"
   xmlns:cc="http://creativecommons.org/ns#"
   xmlns:rdf="http://www.w3.org/1999/02/22-rdf-syntax-ns#"
   xmlns:svg="http://www.w3.org/2000/svg"
   xmlns="http://www.w3.org/2000/svg"
   xmlns:xlink="http://www.w3.org/1999/xlink"
   xmlns:sodipodi="http://sodipodi.sourceforge.net/DTD/sodipodi-0.dtd"
   xmlns:inkscape="http://www.inkscape.org/namespaces/inkscape"
   width="47.285591"
   height="47.28569"
   version="1.1"
   viewBox="0 0 12.510734 12.51076"
   id="svg12"
   sodipodi:docname="preferences-kde-connect.svg"
   inkscape:version="1.0.1 (3bc2e813f5, 2020-09-07)">
  <style
     id="style887"></style>
  <metadata
     id="metadata62">
    <rdf:RDF>
      <cc:Work
         rdf:about="">
        <dc:format>image/svg+xml</dc:format>
        <dc:type
           rdf:resource="http://purl.org/dc/dcmitype/StillImage" />
      </cc:Work>
    </rdf:RDF>
  </metadata>
  <defs
     id="defs16">
    <linearGradient
       id="c"
       y1="523.79999"
       x1="403.57001"
       y2="536.79999"
       x2="416.57001"
       gradientUnits="userSpaceOnUse"
       gradientTransform="matrix(0.34526714,0,0,0.34526706,-134.80427,-174.63325)">
      <stop
         stop-color="#292c2f"
         id="stop1568" />
      <stop
         offset="1"
         stop-opacity="0"
         id="stop1570" />
    </linearGradient>
    <linearGradient
       xlink:href="#b-2"
       id="linearGradient4189"
       x1="14.369"
       y1="22.521999"
       x2="26.521999"
       y2="22.521999"
       gradientUnits="userSpaceOnUse" />
    <linearGradient
       x1="36"
       gradientUnits="userSpaceOnUse"
       x2="14"
       y2="12"
       y1="44"
       id="b-2">
      <stop
         style="stop-color:#bfc9c9;stop-opacity:1"
         stop-color="#536161"
         id="stop1579" />
      <stop
         style="stop-color:#fbfbfb;stop-opacity:1"
         stop-color="#f4f5f5"
         offset="1"
         id="stop1581" />
    </linearGradient>
    <linearGradient
       xlink:href="#b-2"
       id="linearGradient4428"
       gradientUnits="userSpaceOnUse"
       x1="31.586"
       y1="36.345001"
       x2="1.2029999"
       y2="6.723" />
    <linearGradient
       xlink:href="#b-2"
       id="linearGradient4189-3"
       x1="14.369"
       y1="22.521999"
       x2="26.521999"
       y2="22.521999"
       gradientUnits="userSpaceOnUse"
       gradientTransform="translate(20.841982,61.553822)" />
    <linearGradient
       xlink:href="#b-2"
       id="linearGradient4428-5"
       gradientUnits="userSpaceOnUse"
       x1="31.586"
       y1="36.345001"
       x2="1.2029999"
       y2="6.723"
       gradientTransform="translate(20.841982,61.553822)" />
    <linearGradient
       xlink:href="#b-2"
       id="linearGradient4189-3-3"
       x1="14.369"
       y1="22.521999"
       x2="26.521999"
       y2="22.521999"
       gradientUnits="userSpaceOnUse"
       gradientTransform="translate(4.376802,4.4211693)" />
    <linearGradient
       xlink:href="#b-2"
       id="linearGradient4428-5-5"
       gradientUnits="userSpaceOnUse"
       x1="31.586"
       y1="36.345001"
       x2="1.2029999"
       y2="6.723"
       gradientTransform="translate(4.376802,4.4211693)" />
    <linearGradient
       inkscape:collect="always"
       xlink:href="#linearGradient14"
       id="linearGradient15"
       x1="-9.6850061"
       y1="45.161198"
       x2="11.98815"
       y2="21.735205"
       gradientUnits="userSpaceOnUse"
       gradientTransform="scale(0.26457813)" />
    <linearGradient
       id="linearGradient14"
       inkscape:collect="always">
      <stop
         style="stop-color:#2a7fff;stop-opacity:0.70197046;"
         offset="0"
         id="stop12" />
      <stop
         style="stop-color:#00aad4;stop-opacity:1"
         offset="1"
         id="stop13" />
    </linearGradient>
    <filter
       id="filter2917-3"
       x="-0.96181148"
       y="-0.66745996"
       width="2.9236228"
       height="2.3349199"
       color-interpolation-filters="sRGB">
      <feGaussianBlur
         stdDeviation="0.2871969"
         id="feGaussianBlur732-5" />
    </filter>
    <filter
       id="filter1"
       x="-0.96181148"
       y="-0.66745996"
       width="2.9236228"
       height="2.3349199"
       color-interpolation-filters="sRGB">
      <feGaussianBlur
         stdDeviation="0.2871969"
         id="feGaussianBlur1" />
    </filter>
    <filter
       id="filter2"
       x="-0.96181148"
       y="-0.66745996"
       width="2.9236228"
       height="2.3349199"
       color-interpolation-filters="sRGB">
      <feGaussianBlur
         stdDeviation="0.2871969"
         id="feGaussianBlur2" />
    </filter>
    <linearGradient
       id="_lgradient_20"
       x1="-0.29991642"
       y1="-0.26140401"
       x2="0.96725708"
       y2="0.86616999"
       gradientTransform="matrix(15.137397,0,0,16.82717,0.89780187,0.05291536)"
       gradientUnits="userSpaceOnUse">
      <stop
         offset="34.94098066785295%"
         stop-opacity="1"
         style="stop-color:rgb(178,229,107)"
         id="stop1" />
      <stop
         offset="53.84922244785295%"
         stop-opacity="1"
         style="stop-color:rgb(194,233,100)"
         id="stop2" />
      <stop
         offset="90.40515655585295%"
         stop-opacity="1"
         style="stop-color:rgb(236,244,81)"
         id="stop3" />
      <stop
         offset="100%"
         stop-opacity="1"
         style="stop-color:rgb(250,247,75)"
         id="stop4" />
    </linearGradient>
    <linearGradient
       id="b-2-5"
       y1="35.825909"
       y2="-4.1468086"
       gradientUnits="userSpaceOnUse"
       x2="1.525889"
       gradientTransform="matrix(0.18808708,0,0,0.18779368,2.9505234,2.8105876)"
       x1="0.19073613">
      <stop
         stop-color="#d35400"
         id="stop7-9-6"
         offset="0"
         style="stop-color:#ff9e5e;stop-opacity:1;" />
      <stop
         offset="1"
         stop-color="#f67400"
         stop-opacity=".941"
         id="stop9-1-2" />
    </linearGradient>
    <linearGradient
       id="linearGradient4308">
      <stop
         style="stop-color:#884d2c;stop-opacity:1"
         offset="0"
         id="stop363" />
      <stop
         style="stop-color:#ffc169;stop-opacity:1"
         offset="1"
         id="stop365" />
    </linearGradient>
    <linearGradient
       id="linearGradient4513">
      <stop
         style="stop-color:#000000;stop-opacity:1;"
         offset="0"
         id="stop353" />
      <stop
         style="stop-color:#000000;stop-opacity:0;"
         offset="1"
         id="stop355" />
    </linearGradient>
    <linearGradient
       id="linearGradient4325">
      <stop
         offset="0"
         style="stop-color:#2a2c2f;stop-opacity:1"
         id="stop358" />
      <stop
         offset="1"
         style="stop-color:#424649;stop-opacity:1"
         id="stop360" />
    </linearGradient>
    <linearGradient
       id="a"
       gradientUnits="userSpaceOnUse"
       x1="25"
       x2="25"
       y1="6"
       y2="26">
      <stop
         offset="0"
         id="stop1047" />
      <stop
         offset="1"
         stop-color="#292c2f"
         id="stop1049" />
    </linearGradient>
    <linearGradient
       inkscape:collect="always"
       xlink:href="#linearGradient4325"
       id="linearGradient1"
       y1="20"
       y2="11"
       x2="0"
       gradientUnits="userSpaceOnUse"
       gradientTransform="translate(384.57143,516.798)" />
    <linearGradient
       inkscape:collect="always"
       xlink:href="#linearGradient4325"
       id="linearGradient3"
       y1="20"
       y2="11"
       x2="0"
       gradientUnits="userSpaceOnUse"
       gradientTransform="translate(384.57143,516.798)" />
    <linearGradient
       inkscape:collect="always"
       xlink:href="#linearGradient4325"
       id="linearGradient5"
       y1="20"
       y2="11"
       x2="0"
       gradientUnits="userSpaceOnUse"
       gradientTransform="translate(384.57143,516.798)" />
    <linearGradient
       inkscape:collect="always"
       xlink:href="#linearGradient14"
       id="linearGradient895"
       x1="-12.025727"
       y1="6.1170783"
       x2="-0.085100174"
       y2="6.1170783"
       gradientUnits="userSpaceOnUse" />
  </defs>
  <sodipodi:namedview
     id="namedview14"
     pagecolor="#000000"
     bordercolor="#666666"
     borderopacity="1.0"
     inkscape:showpageshadow="2"
     inkscape:pageopacity="0.0"
     inkscape:pagecheckerboard="0"
     inkscape:deskcolor="#d1d1d1"
     showgrid="false"
     inkscape:zoom="10.630929"
     inkscape:cx="7.3388579"
     inkscape:cy="24.073866"
     inkscape:window-width="1920"
     inkscape:window-height="988"
     inkscape:window-x="0"
     inkscape:window-y="0"
     inkscape:window-maximized="1"
     inkscape:current-layer="svg12"
     inkscape:document-rotation="0">
    <inkscape:grid
       type="xygrid"
       id="grid244"
       originx="9.9594769"
       originy="-31.57929"
       spacingy="1"
       spacingx="1"
       units="px"
       visible="false" />
  </sodipodi:namedview>
  <rect
     x="-12.194976"
     y="0.32004508"
     width="11.940627"
     height="11.936014"
     rx="1.6121091"
     shape-rendering="crispEdges"
     id="rect5-6-7-3"
     ry="1.7735944"
     transform="matrix(0.00523883,-0.99998628,0.999988,0.00489859,0,0)"
     style="fill:#80b3ff;fill-opacity:0.0980392;stroke:url(#linearGradient895);stroke-width:0.529156;stroke-miterlimit:4;stroke-dasharray:none;stroke-opacity:1" />
  <rect
     x="-3.7202365"
     y="4.8851409"
     width="7.912631"
     height="7.912384"
     rx="1.612043"
     shape-rendering="crispEdges"
     id="rect5-6-6-6-6"
     style="fill:#80b3ff;fill-opacity:0.101961;stroke:url(#linearGradient15);stroke-width:0.396867;stroke-miterlimit:4;stroke-dasharray:none;stroke-opacity:1"
     ry="1.7735215"
     transform="matrix(0.72612649,-0.68756114,0.6879775,0.72573202,0,0)" />
  <path
     style="color:#fcfcfc;fill:#80b3ff;fill-opacity:1;stroke:none;stroke-width:0.264575"
     d="m 10.62283,9.0850249 -0.421579,0.03941 v 1.6281571 l 0.416944,-0.0569 V 9.9997739 l 0.555933,0.7703311 0.435479,-0.131325 -0.569829,-0.7396731 0.574461,-0.700293 -0.444742,-0.09629 -0.5513,0.700294 0.0046,-0.717796 z m -0.9497122,0.398277 c -0.00471,0 -0.010353,0.0025 -0.013912,0.0045 l -0.1621456,0.157564 c -0.00691,0.0068 -0.00971,0.01829 -0.00464,0.02627 l 0.1899435,0.297639 c -0.034099,0.05416 -0.059227,0.1134671 -0.078759,0.1750231 L 9.25152,10.214368 c -0.00982,0.0025 -0.018512,0.008 -0.018512,0.01758 v 0.21885 c 0,0.0092 0.00908,0.01956 0.018515,0.0218 l 0.3428239,0.07879 c 0.01824,0.07136 0.045975,0.139184 0.083389,0.201304 l -0.1992067,0.284543 c -0.00553,0.008 -0.00266,0.01956 0.00466,0.02627 l 0.1621467,0.153158 c 0.00691,0.0063 0.01938,0.0095 0.027795,0.0045 l 0.3103883,-0.179516 c 0.061031,0.03326 0.1250078,0.06102 0.1945758,0.07876 l 0.07412,0.32827 c 0.0021,0.0095 0.0085,0.01754 0.01852,0.01754 h 0.231636 c 0.0098,0 0.02083,-0.0085 0.02317,-0.01754 l 0.08339,-0.32827 c 0.07171,-0.01829 0.141325,-0.04834 0.203842,-0.08314 l 0.305761,0.192581 c 0.0084,0.0051 0.02063,0.0025 0.0278,-0.0045 l 0.162146,-0.153203 c 0.0069,-0.0068 0.0097,-0.01829 0.0046,-0.02624 l -0.111186,-0.175037 -0.03706,0.0131 c -0.0053,0.0025 -0.01081,0 -0.01391,-0.0045 0,0 -0.07007,-0.100281 -0.162145,-0.227618 -0.110072,0.203537 -0.334387,0.341425 -0.592991,0.341425 -0.367415,0 -0.6671165,-0.278753 -0.6671165,-0.625893 0,-0.255345 0.1623422,-0.4749843 0.3937835,-0.5733583 v -0.161867 c -0.04213,0.01398 -0.08178,0.02822 -0.120453,0.04817 -2.9e-5,0 -0.00454,0 -0.00465,0 l -0.3103586,-0.19261 c -0.00421,-0.0025 -0.00918,-0.0048 -0.013914,-0.0043 z"
     class="ColorScheme-Text"
     id="path1-3" />
  <path
     style="fill:#99c2ff;fill-opacity:1;stroke-width:0.264579"
     id="path4353"
     d="m 4.8442988,3.2127325 c -0.1948371,0 -0.3527699,0.1580747 -0.3527699,0.352774 0,0.194714 0.1579321,0.352772 0.3527699,0.352772 0.194839,0 0.3527708,-0.1580561 0.3527708,-0.352772 0,-0.194718 -0.1579342,-0.352774 -0.3527708,-0.352774 z" />
  <path
     style="fill:#99c2ff;fill-opacity:1;stroke-width:0.264579"
     id="path4351"
     d="M 7.3136952,3.2127325 6.6081532,3.9182785 8.0192373,5.3293623 6.6081532,6.7404462 7.3136952,7.4459859 8.7247784,6.034906 9.4303192,5.3293623 8.7247784,4.6238228 Z" />
  <path
     style="fill:#99c2ff;fill-opacity:1;stroke-width:0.264579"
     id="path4349"
     d="m 3.7859868,5.3293623 c -0.3896569,0 -0.7055423,0.3158834 -0.7055423,0.7055437 0,0.3896522 0.3158854,0.7055402 0.7055423,0.7055402 0.3896567,0 0.7055421,-0.315888 0.7055421,-0.7055402 0,-0.3896603 -0.3158854,-0.7055437 -0.7055421,-0.7055437 z" />
  <path
     style="fill:#99c2ff;fill-opacity:1;stroke-width:0.264579"
     id="path4327"
     d="m 5.5498405,7.4459859 c -0.5844924,0 -1.0583116,0.4738191 -1.0583116,1.0583168 0,0.5844889 0.4738192,1.058305 1.0583116,1.058305 0.5844922,0 1.0583127,-0.4738161 1.0583127,-1.058305 0,-0.5844977 -0.4738205,-1.0583168 -1.0583127,-1.0583168 z" />
</svg>
