<?xml version="1.0" encoding="UTF-8" standalone="no"?>
<svg
   xmlns:dc="http://purl.org/dc/elements/1.1/"
   xmlns:cc="http://creativecommons.org/ns#"
   xmlns:rdf="http://www.w3.org/1999/02/22-rdf-syntax-ns#"
   xmlns:svg="http://www.w3.org/2000/svg"
   xmlns="http://www.w3.org/2000/svg"
   xmlns:xlink="http://www.w3.org/1999/xlink"
   xmlns:sodipodi="http://sodipodi.sourceforge.net/DTD/sodipodi-0.dtd"
   xmlns:inkscape="http://www.inkscape.org/namespaces/inkscape"
   width="47.285591"
   height="47.28569"
   version="1.1"
   viewBox="0 0 12.510734 12.51076"
   id="svg12"
   sodipodi:docname="preferences-security-kerberos.svg"
   inkscape:version="1.0.1 (3bc2e813f5, 2020-09-07)">
  <style
     id="style860"></style>
  <metadata
     id="metadata35">
    <rdf:RDF>
      <cc:Work
         rdf:about="">
        <dc:format>image/svg+xml</dc:format>
        <dc:type
           rdf:resource="http://purl.org/dc/dcmitype/StillImage" />
      </cc:Work>
    </rdf:RDF>
  </metadata>
  <defs
     id="defs16">
    <linearGradient
       id="c"
       y1="523.79999"
       x1="403.57001"
       y2="536.79999"
       x2="416.57001"
       gradientUnits="userSpaceOnUse"
       gradientTransform="matrix(0.34526714,0,0,0.34526706,-134.80427,-174.63325)">
      <stop
         stop-color="#292c2f"
         id="stop1568" />
      <stop
         offset="1"
         stop-opacity="0"
         id="stop1570" />
    </linearGradient>
    <linearGradient
       xlink:href="#b-2"
       id="linearGradient4189"
       x1="14.369"
       y1="22.521999"
       x2="26.521999"
       y2="22.521999"
       gradientUnits="userSpaceOnUse" />
    <linearGradient
       x1="36"
       gradientUnits="userSpaceOnUse"
       x2="14"
       y2="12"
       y1="44"
       id="b-2">
      <stop
         style="stop-color:#bfc9c9;stop-opacity:1"
         stop-color="#536161"
         id="stop1579" />
      <stop
         style="stop-color:#fbfbfb;stop-opacity:1"
         stop-color="#f4f5f5"
         offset="1"
         id="stop1581" />
    </linearGradient>
    <linearGradient
       xlink:href="#b-2"
       id="linearGradient4428"
       gradientUnits="userSpaceOnUse"
       x1="31.586"
       y1="36.345001"
       x2="1.2029999"
       y2="6.723" />
    <linearGradient
       xlink:href="#b-2"
       id="linearGradient4189-3"
       x1="14.369"
       y1="22.521999"
       x2="26.521999"
       y2="22.521999"
       gradientUnits="userSpaceOnUse"
       gradientTransform="translate(20.841982,61.553822)" />
    <linearGradient
       xlink:href="#b-2"
       id="linearGradient4428-5"
       gradientUnits="userSpaceOnUse"
       x1="31.586"
       y1="36.345001"
       x2="1.2029999"
       y2="6.723"
       gradientTransform="translate(20.841982,61.553822)" />
    <linearGradient
       xlink:href="#b-2"
       id="linearGradient4189-3-3"
       x1="14.369"
       y1="22.521999"
       x2="26.521999"
       y2="22.521999"
       gradientUnits="userSpaceOnUse"
       gradientTransform="translate(4.376802,4.4211693)" />
    <linearGradient
       xlink:href="#b-2"
       id="linearGradient4428-5-5"
       gradientUnits="userSpaceOnUse"
       x1="31.586"
       y1="36.345001"
       x2="1.2029999"
       y2="6.723"
       gradientTransform="translate(4.376802,4.4211693)" />
    <linearGradient
       inkscape:collect="always"
       xlink:href="#linearGradient14"
       id="linearGradient15"
       x1="-9.6850061"
       y1="45.161198"
       x2="11.98815"
       y2="21.735205"
       gradientUnits="userSpaceOnUse"
       gradientTransform="scale(0.26457813)" />
    <linearGradient
       id="linearGradient14"
       inkscape:collect="always">
      <stop
         style="stop-color:#a02c5a;stop-opacity:1"
         offset="0"
         id="stop12" />
      <stop
         style="stop-color:#c83771;stop-opacity:1"
         offset="1"
         id="stop13" />
    </linearGradient>
    <linearGradient
       id="linearGradient4220">
      <stop
         offset="0"
         style="stop-color:#ffd5d3;stop-opacity:1"
         id="stop2" />
      <stop
         offset="1"
         style="stop-color:#ffffff;stop-opacity:1"
         id="stop4" />
    </linearGradient>
    <linearGradient
       inkscape:collect="always"
       xlink:href="#linearGradient14"
       id="linearGradient868"
       x1="-12.025727"
       y1="6.1170783"
       x2="-0.085100174"
       y2="6.1170783"
       gradientUnits="userSpaceOnUse" />
  </defs>
  <sodipodi:namedview
     id="namedview14"
     pagecolor="#000000"
     bordercolor="#666666"
     borderopacity="1.0"
     inkscape:showpageshadow="2"
     inkscape:pageopacity="0.0"
     inkscape:pagecheckerboard="0"
     inkscape:deskcolor="#d1d1d1"
     showgrid="false"
     inkscape:zoom="7.5172018"
     inkscape:cx="-0.031996193"
     inkscape:cy="38.994404"
     inkscape:window-width="1920"
     inkscape:window-height="988"
     inkscape:window-x="0"
     inkscape:window-y="0"
     inkscape:window-maximized="1"
     inkscape:current-layer="svg12"
     inkscape:document-rotation="0">
    <inkscape:grid
       type="xygrid"
       id="grid244"
       originx="9.9594769"
       originy="-31.57929"
       spacingy="1"
       spacingx="1"
       units="px"
       visible="false" />
  </sodipodi:namedview>
  <rect
     x="-12.194976"
     y="0.32004508"
     width="11.940627"
     height="11.936014"
     rx="1.6121091"
     shape-rendering="crispEdges"
     id="rect5-6-7-3"
     ry="1.7735944"
     transform="matrix(0.00523883,-0.99998628,0.999988,0.00489859,0,0)"
     style="fill:#de87aa;fill-opacity:0.15;stroke:url(#linearGradient868);stroke-width:0.529156;stroke-miterlimit:4;stroke-dasharray:none;stroke-opacity:1" />
  <rect
     x="-3.7202365"
     y="4.8851409"
     width="7.912631"
     height="7.912384"
     rx="1.612043"
     shape-rendering="crispEdges"
     id="rect5-6-6-6-6"
     style="fill:#de87aa;fill-opacity:0.122146;stroke:url(#linearGradient15);stroke-width:0.396867;stroke-miterlimit:4;stroke-dasharray:none;stroke-opacity:1"
     ry="1.7735215"
     transform="matrix(0.72612649,-0.68756114,0.6879775,0.72573202,0,0)" />
  <path
     d="m 8.4337825,6.4999889 v 0 C 8.4904456,6.3566527 8.5827136,6.235505 8.8457367,6.3264527 v 0 c 0.1708069,0.047555 0.2634513,0.2023665 0.2067821,0.345703 v 0 L 8.9515687,6.9276771 v 0.00146 C 8.8392246,7.2078818 8.694302,7.4756997 8.5184491,7.7284885 8.3425941,7.9867407 8.1390631,8.2327007 7.9127345,8.4608887 c -0.2149343,0.218626 -0.4542907,0.420861 -0.7164379,0.59986 -0.1204971,0.08335 -0.2474994,0.159869 -0.3810182,0.229559 -0.1237498,0.06559 -0.2556404,0.121612 -0.3924144,0.168069 -0.074901,0.02596 -0.1595716,0.02732 -0.2360989,0.0028 l -0.1660837,-0.05206 h -0.00381 C 5.6395239,9.2862187 5.2878144,9.1113187 4.9768155,8.8926907 4.6577091,8.6698807 4.3776463,8.4116277 4.1431766,8.1260437 3.9054973,7.8404333 3.7166157,7.5288894 3.5798434,7.2009464 3.4447453,6.8797586 3.3731034,6.5422555 3.3698467,6.2020171 v -0.00283 -1.6478694 c 0,-0.3017056 0.2276335,-0.5411028 0.508018,-0.5342696 v 0 C 4.2507424,4.0141881 4.618732,3.9514551 4.9639271,3.8325774 5.1576917,3.7656224 5.3449426,3.6863715 5.5240525,3.5948193 5.7894598,3.459545 6.0385857,3.3024038 6.2697987,3.1288712 c 0.2979764,0.1598695 0.6073468,0.3060783 0.9232327,0.4386203 0.2133037,0.090183 0.4298681,0.1708008 0.6529357,0.2418546 0.1888781,0.060124 0.3810174,0.1093144 0.5780366,0.1462085 0.1628299,0.03278 0.328911,0.051924 0.4966221,0.057389 0.083043,0.00402 0.1628285,0.034141 0.2214458,0.084719 0.056985,0.050559 0.089556,0.1188797 0.089556,0.1885645 v 0.9564947 0 c 0,0.1508532 -0.1458916,0.2732828 -0.3256579,0.2732828 v 0 c -0.1797543,0 -0.3256479,-0.1224296 -0.3256479,-0.2732828 v 0 -0.5599904 C 8.4777406,4.6704207 8.3767903,4.6539595 8.2774589,4.6348548 8.0511316,4.5911301 7.8313137,4.535139 7.6147576,4.4668181 7.3721445,4.3889307 7.1327819,4.3014215 6.9015735,4.2030373 6.706178,4.1210552 6.5156696,4.0352032 6.3267891,3.9436521 6.1769889,4.0379361 6.023932,4.1254485 5.8643632,4.2074317 5.6559415,4.315378 5.4377527,4.4083727 5.2097953,4.4848916 4.8320362,4.616069 4.4298542,4.740091 4.021156,4.7564872 v 1.441359 c 0.00381,0.2801169 0.061874,0.5574982 0.172597,0.8212183 0.1172359,0.2828489 0.2800635,0.5506673 0.4835984,0.7952574 0.201903,0.2459548 0.4428882,0.4673148 0.7180664,0.6586118 0.2540119,0.180369 0.543843,0.323841 0.8548447,0.42496 l 0.040674,0.01215 c 0.061874,-0.02459 0.1221188,-0.05312 0.1791121,-0.08318 0.1090901,-0.05739 0.2149311,-0.120243 0.3142532,-0.188566 C 7.0122595,8.4811597 7.222312,8.3048917 7.4095566,8.1122287 7.6130908,7.9072632 7.7954645,7.6872705 7.9550334,7.4549809 8.1097214,7.233619 8.2367192,6.998594 8.3327901,6.755372 Z"
     id="path2"
     style="isolation:isolate;fill:#e5a1bc;fill-opacity:1;stroke:#e5a1bc;stroke-width:0.0807908;stroke-opacity:1"
     sodipodi:nodetypes="cscssccccccccccccccccsssccccccccscssssccccccccccccccccccccc" />
  <path
     id="path29"
     d="m 4.9096251,4.9820983 h 0.3356988 c 0.00367,-4.24e-5 0.00698,-1.532e-4 0.010504,0 0.085586,0.00388 0.1711651,0.043177 0.2307965,0.1049457 L 6.2524328,5.8531358 7.0287382,5.087044 C 7.1179072,5.009638 7.1786865,4.9844496 7.2595305,4.9820983 H 7.5952309 V 5.317921 c 0,0.096207 -0.011517,0.1849213 -0.083925,0.2518659 L 6.7454925,6.3358806 7.5008128,7.0914759 c 0.063178,0.063195 0.094414,0.152279 0.094418,0.2413725 V 7.6686703 H 7.2595352 C 7.1704732,7.6686615 7.0814175,7.6374093 7.0182514,7.5742193 L 6.2524342,6.8081283 5.4866221,7.5742193 c -0.06317,0.063197 -0.1522274,0.094451 -0.2412863,0.094451 H 4.9096372 V 7.3328484 c -2.1e-6,-0.089089 0.031232,-0.1781775 0.094416,-0.2413725 L 5.7698641,6.3358806 5.004053,5.5697869 C 4.933303,5.5044279 4.9022791,5.4122013 4.909634,5.317921 Z"
     style="fill:#e49cb9;fill-opacity:1;stroke-width:0.22733" />
</svg>
