<?xml version="1.0" encoding="UTF-8" standalone="no"?>
<svg
   xmlns:dc="http://purl.org/dc/elements/1.1/"
   xmlns:cc="http://creativecommons.org/ns#"
   xmlns:rdf="http://www.w3.org/1999/02/22-rdf-syntax-ns#"
   xmlns:svg="http://www.w3.org/2000/svg"
   xmlns="http://www.w3.org/2000/svg"
   xmlns:xlink="http://www.w3.org/1999/xlink"
   xmlns:sodipodi="http://sodipodi.sourceforge.net/DTD/sodipodi-0.dtd"
   xmlns:inkscape="http://www.inkscape.org/namespaces/inkscape"
   width="47.285591"
   height="47.28569"
   version="1.1"
   viewBox="0 0 12.510734 12.51076"
   id="svg12"
   sodipodi:docname="preferences-desktop.svg"
   inkscape:version="1.0.1 (3bc2e813f5, 2020-09-07)">
  <style
     id="style860"></style>
  <metadata
     id="metadata35">
    <rdf:RDF>
      <cc:Work
         rdf:about="">
        <dc:format>image/svg+xml</dc:format>
        <dc:type
           rdf:resource="http://purl.org/dc/dcmitype/StillImage" />
      </cc:Work>
    </rdf:RDF>
  </metadata>
  <defs
     id="defs16">
    <linearGradient
       id="linearGradient906"
       inkscape:collect="always">
      <stop
         style="stop-color:#00ccff;stop-opacity:0.64069265"
         offset="0"
         id="stop902" />
      <stop
         style="stop-color:#b17dff;stop-opacity:1"
         offset="1"
         id="stop904" />
    </linearGradient>
    <linearGradient
       id="c"
       y1="523.79999"
       x1="403.57001"
       y2="536.79999"
       x2="416.57001"
       gradientUnits="userSpaceOnUse"
       gradientTransform="matrix(0.34526714,0,0,0.34526706,-134.80427,-174.63325)">
      <stop
         stop-color="#292c2f"
         id="stop1568" />
      <stop
         offset="1"
         stop-opacity="0"
         id="stop1570" />
    </linearGradient>
    <linearGradient
       xlink:href="#b-2"
       id="linearGradient4189"
       x1="14.369"
       y1="22.521999"
       x2="26.521999"
       y2="22.521999"
       gradientUnits="userSpaceOnUse" />
    <linearGradient
       x1="36"
       gradientUnits="userSpaceOnUse"
       x2="14"
       y2="12"
       y1="44"
       id="b-2">
      <stop
         style="stop-color:#bfc9c9;stop-opacity:1"
         stop-color="#536161"
         id="stop1579" />
      <stop
         style="stop-color:#fbfbfb;stop-opacity:1"
         stop-color="#f4f5f5"
         offset="1"
         id="stop1581" />
    </linearGradient>
    <linearGradient
       xlink:href="#b-2"
       id="linearGradient4428"
       gradientUnits="userSpaceOnUse"
       x1="31.586"
       y1="36.345001"
       x2="1.2029999"
       y2="6.723" />
    <linearGradient
       xlink:href="#b-2"
       id="linearGradient4189-3"
       x1="14.369"
       y1="22.521999"
       x2="26.521999"
       y2="22.521999"
       gradientUnits="userSpaceOnUse"
       gradientTransform="translate(20.841982,61.553822)" />
    <linearGradient
       xlink:href="#b-2"
       id="linearGradient4428-5"
       gradientUnits="userSpaceOnUse"
       x1="31.586"
       y1="36.345001"
       x2="1.2029999"
       y2="6.723"
       gradientTransform="translate(20.841982,61.553822)" />
    <linearGradient
       xlink:href="#b-2"
       id="linearGradient4189-3-3"
       x1="14.369"
       y1="22.521999"
       x2="26.521999"
       y2="22.521999"
       gradientUnits="userSpaceOnUse"
       gradientTransform="translate(4.376802,4.4211693)" />
    <linearGradient
       xlink:href="#b-2"
       id="linearGradient4428-5-5"
       gradientUnits="userSpaceOnUse"
       x1="31.586"
       y1="36.345001"
       x2="1.2029999"
       y2="6.723"
       gradientTransform="translate(4.376802,4.4211693)" />
    <linearGradient
       id="linearGradient4220">
      <stop
         offset="0"
         style="stop-color:#ffd5d3;stop-opacity:1"
         id="stop2" />
      <stop
         offset="1"
         style="stop-color:#ffffff;stop-opacity:1"
         id="stop4" />
    </linearGradient>
    <linearGradient
       inkscape:collect="always"
       xlink:href="#linearGradient906"
       id="linearGradient868"
       x1="-12.025727"
       y1="6.1170783"
       x2="-0.085100174"
       y2="6.1170783"
       gradientUnits="userSpaceOnUse" />
    <linearGradient
       inkscape:collect="always"
       xlink:href="#linearGradient2-3"
       id="linearGradient15-3"
       x1="-13.123444"
       y1="32.508564"
       x2="14.859644"
       y2="32.508564"
       gradientUnits="userSpaceOnUse"
       gradientTransform="scale(0.26457814)" />
    <linearGradient
       id="linearGradient2-3"
       inkscape:collect="always">
      <stop
         style="stop-color:#9955ff;stop-opacity:1"
         offset="0"
         id="stop2-6" />
      <stop
         style="stop-color:#b17dff;stop-opacity:1"
         offset="1"
         id="stop3" />
    </linearGradient>
    <filter
       id="filter1305-3-7"
       x="-0.060002353"
       y="-0.060002353"
       width="1.1200047"
       height="1.1200047"
       color-interpolation-filters="sRGB">
      <feGaussianBlur
         stdDeviation="0.61852427"
         id="feGaussianBlur324-5" />
    </filter>
    <linearGradient
       id="linear2"
       gradientUnits="userSpaceOnUse"
       x1="2.0002"
       y1="17.0902"
       x2="29.999901"
       y2="17.0902"
       gradientTransform="matrix(1.5838651,0,0,1.5838651,303.03286,496.71121)">
      <stop
         offset="0"
         style="stop-color:rgb(90.980392%,93.72549%,97.254902%);stop-opacity:1;"
         id="stop12-7" />
      <stop
         offset="1"
         style="stop-color:rgb(96.078431%,98.039216%,100%);stop-opacity:1;"
         id="stop14-5" />
    </linearGradient>
  </defs>
  <sodipodi:namedview
     id="namedview14"
     pagecolor="#000000"
     bordercolor="#666666"
     borderopacity="1.0"
     inkscape:showpageshadow="2"
     inkscape:pageopacity="0.0"
     inkscape:pagecheckerboard="0"
     inkscape:deskcolor="#d1d1d1"
     showgrid="false"
     inkscape:zoom="10.83591"
     inkscape:cx="-0.031996193"
     inkscape:cy="31.611545"
     inkscape:window-width="1920"
     inkscape:window-height="988"
     inkscape:window-x="0"
     inkscape:window-y="0"
     inkscape:window-maximized="1"
     inkscape:current-layer="svg12"
     inkscape:document-rotation="0">
    <inkscape:grid
       type="xygrid"
       id="grid244"
       originx="9.9594769"
       originy="-31.57929"
       spacingy="1"
       spacingx="1"
       units="px"
       visible="false" />
  </sodipodi:namedview>
  <rect
     x="-12.194976"
     y="0.32004508"
     width="11.940627"
     height="11.936014"
     rx="1.6121091"
     shape-rendering="crispEdges"
     id="rect5-6-7-3"
     ry="1.7735944"
     transform="matrix(0.00523883,-0.99998628,0.999988,0.00489859,0,0)"
     style="fill:#80b3ff;fill-opacity:0.12156863;stroke:url(#linearGradient868);stroke-width:0.529156;stroke-miterlimit:4;stroke-dasharray:none;stroke-opacity:1" />
  <rect
     x="-3.7077141"
     y="4.887754"
     width="7.9126315"
     height="7.9123845"
     rx="1.612043"
     shape-rendering="crispEdges"
     id="rect5-6-6-6"
     style="fill:#80b3ff;fill-opacity:0.1;stroke:url(#linearGradient15-3);stroke-width:0.39686725;stroke-opacity:1;stroke-miterlimit:4;stroke-dasharray:none"
     ry="1.7735217"
     transform="matrix(0.72612648,-0.68756115,0.68797749,0.72573202,0,0)" />
  <path
     d="m 6.2304471,3.4980883 a 0.34382934,0.34382936 0 0 0 -0.3438269,0.343826 c 0,0.5817573 -0.7034765,0.8733236 -1.11504,0.4617663 A 0.34382934,0.34382936 0 1 0 4.2854053,4.7898573 C 4.6969735,5.2014215 4.4057409,5.9048942 3.8236405,5.9048942 a 0.34382934,0.34382936 0 1 0 0,0.6876559 c 0.5817565,0 0.8733257,0.7034774 0.4617648,1.1150373 a 0.34382934,0.34382936 0 0 0 0.4861749,0.4861751 c 0.4115699,-0.4115637 1.11504,-0.1203443 1.11504,0.4617645 a 0.34382934,0.34382936 0 1 0 0.6876529,0 c 0,-0.5817532 0.7034765,-0.8733205 1.1150377,-0.4617645 A 0.34382934,0.34382936 0 1 0 8.1754899,7.7075874 C 7.7639287,7.296028 8.0551506,6.5925539 8.6372536,6.5925539 a 0.34382934,0.34382936 0 1 0 0,-0.6876564 c -0.5817573,0 -0.8733225,-0.7034773 -0.4617644,-1.1150375 A 0.34382934,0.34382936 0 0 0 7.6893136,4.3036806 C 7.2777496,4.7152439 6.5742744,4.42402 6.5742744,3.8419173 A 0.34382934,0.34382936 0 0 0 6.2304471,3.4980883 Z M 5.2017074,3.7652415 a 1.0314883,1.0314884 0 0 1 2.0574762,0 1.0314883,1.0314884 0 0 1 1.4543993,1.4547439 1.0314883,1.0314884 0 0 1 3.441e-4,2.0574738 1.0314883,1.0314884 0 0 1 -1.4547454,1.4544005 1.0314883,1.0314884 0 0 1 -2.0574737,0 1.0314883,1.0314884 0 0 1 -1.4547402,-1.4544005 1.0314883,1.0314884 0 0 1 0,-2.0574738 1.0314883,1.0314884 0 0 1 1.4547397,-1.4547439 z"
     id="path1-6"
     style="fill:#e0ccff;fill-opacity:1;stroke-width:0.171913" />
  <path
     d="m 6.2304471,5.5610657 a 0.68765918,0.68765922 0 1 0 0,1.3753157 0.68765918,0.68765922 0 0 0 0,-1.3753157 z M 5.2580969,5.2763737 A 1.3753173,1.3753174 0 1 1 7.2027976,7.2210712 1.3753173,1.3753174 0 0 1 5.2580969,5.2763737 Z"
     id="path2"
     style="fill:#e0ccff;fill-opacity:1;stroke-width:0.171913" />
</svg>
