<?xml version="1.0" encoding="UTF-8" standalone="no"?>
<svg
   xmlns:dc="http://purl.org/dc/elements/1.1/"
   xmlns:cc="http://creativecommons.org/ns#"
   xmlns:rdf="http://www.w3.org/1999/02/22-rdf-syntax-ns#"
   xmlns:svg="http://www.w3.org/2000/svg"
   xmlns="http://www.w3.org/2000/svg"
   xmlns:xlink="http://www.w3.org/1999/xlink"
   xmlns:sodipodi="http://sodipodi.sourceforge.net/DTD/sodipodi-0.dtd"
   xmlns:inkscape="http://www.inkscape.org/namespaces/inkscape"
   width="47.285591"
   height="47.28569"
   version="1.1"
   viewBox="0 0 12.510734 12.51076"
   id="svg12"
   sodipodi:docname="preferences-document.svg"
   inkscape:version="1.0.1 (3bc2e813f5, 2020-09-07)">
  <style
     id="style876"></style>
  <metadata
     id="metadata51">
    <rdf:RDF>
      <cc:Work
         rdf:about="">
        <dc:format>image/svg+xml</dc:format>
        <dc:type
           rdf:resource="http://purl.org/dc/dcmitype/StillImage" />
      </cc:Work>
    </rdf:RDF>
  </metadata>
  <defs
     id="defs16">
    <linearGradient
       id="c"
       y1="523.79999"
       x1="403.57001"
       y2="536.79999"
       x2="416.57001"
       gradientUnits="userSpaceOnUse"
       gradientTransform="matrix(0.34526714,0,0,0.34526706,-134.80427,-174.63325)">
      <stop
         stop-color="#292c2f"
         id="stop1568" />
      <stop
         offset="1"
         stop-opacity="0"
         id="stop1570" />
    </linearGradient>
    <linearGradient
       xlink:href="#b-2"
       id="linearGradient4189"
       x1="14.369"
       y1="22.521999"
       x2="26.521999"
       y2="22.521999"
       gradientUnits="userSpaceOnUse" />
    <linearGradient
       x1="36"
       gradientUnits="userSpaceOnUse"
       x2="14"
       y2="12"
       y1="44"
       id="b-2">
      <stop
         style="stop-color:#bfc9c9;stop-opacity:1"
         stop-color="#536161"
         id="stop1579" />
      <stop
         style="stop-color:#fbfbfb;stop-opacity:1"
         stop-color="#f4f5f5"
         offset="1"
         id="stop1581" />
    </linearGradient>
    <linearGradient
       xlink:href="#b-2"
       id="linearGradient4428"
       gradientUnits="userSpaceOnUse"
       x1="31.586"
       y1="36.345001"
       x2="1.2029999"
       y2="6.723" />
    <linearGradient
       xlink:href="#b-2"
       id="linearGradient4189-3"
       x1="14.369"
       y1="22.521999"
       x2="26.521999"
       y2="22.521999"
       gradientUnits="userSpaceOnUse"
       gradientTransform="translate(20.841982,61.553822)" />
    <linearGradient
       xlink:href="#b-2"
       id="linearGradient4428-5"
       gradientUnits="userSpaceOnUse"
       x1="31.586"
       y1="36.345001"
       x2="1.2029999"
       y2="6.723"
       gradientTransform="translate(20.841982,61.553822)" />
    <linearGradient
       xlink:href="#b-2"
       id="linearGradient4189-3-3"
       x1="14.369"
       y1="22.521999"
       x2="26.521999"
       y2="22.521999"
       gradientUnits="userSpaceOnUse"
       gradientTransform="translate(4.376802,4.4211693)" />
    <linearGradient
       xlink:href="#b-2"
       id="linearGradient4428-5-5"
       gradientUnits="userSpaceOnUse"
       x1="31.586"
       y1="36.345001"
       x2="1.2029999"
       y2="6.723"
       gradientTransform="translate(4.376802,4.4211693)" />
    <linearGradient
       inkscape:collect="always"
       xlink:href="#linearGradient14"
       id="linearGradient15"
       x1="-9.6850061"
       y1="45.161198"
       x2="11.98815"
       y2="21.735205"
       gradientUnits="userSpaceOnUse"
       gradientTransform="scale(0.26457813)" />
    <linearGradient
       id="linearGradient14"
       inkscape:collect="always">
      <stop
         style="stop-color:#9955ff;stop-opacity:0.45197046;"
         offset="0"
         id="stop12" />
      <stop
         style="stop-color:#00ccff;stop-opacity:1"
         offset="1"
         id="stop13" />
    </linearGradient>
    <linearGradient
       inkscape:collect="always"
       xlink:href="#linearGradient6022"
       id="linearGradient1014"
       gradientUnits="userSpaceOnUse"
       gradientTransform="matrix(-0.00179372,-0.25648356,0.2564691,-0.00385782,2.3268218,13.633189)"
       x1="24"
       y1="29"
       x2="24"
       y2="-19.999998" />
    <linearGradient
       id="linearGradient6022"
       x1="24"
       x2="24"
       y1="29"
       y2="-19.999998"
       gradientUnits="userSpaceOnUse"
       gradientTransform="matrix(-0.00468342,-0.66968017,0.66964241,-0.01007284,60.3552,-12.966609)">
      <stop
         stop-color="#da4453"
         offset="0"
         id="stop2671" />
      <stop
         stop-color="#edeff0"
         offset="1"
         id="stop2673" />
    </linearGradient>
    <linearGradient
       inkscape:collect="always"
       xlink:href="#linearGradient6095"
       id="linearGradient1016"
       gradientUnits="userSpaceOnUse"
       gradientTransform="matrix(-0.00407936,-0.96940201,0.96940194,-0.00407936,2.3327084,13.579538)"
       x1="6.3499999"
       y1="6.8791666"
       x2="6.3499999"
       y2="7.6729169" />
    <linearGradient
       id="linearGradient6095"
       x1="6.3499999"
       x2="6.3499999"
       y1="6.8791666"
       y2="7.6729169"
       gradientUnits="userSpaceOnUse"
       gradientTransform="matrix(-0.01065122,-2.5311145,2.5311143,-0.01065122,60.370572,-13.106694)">
      <stop
         stop-color="#c0392b"
         offset="0"
         id="stop2686" />
      <stop
         stop-color="#c0392b"
         offset="1"
         id="stop2688" />
    </linearGradient>
    <linearGradient
       inkscape:collect="always"
       xlink:href="#linearGradient6051"
       id="linearGradient1018"
       gradientUnits="userSpaceOnUse"
       gradientTransform="matrix(-0.00107932,-0.25648757,0.25648756,-0.00107931,2.3327084,13.579538)"
       x1="24"
       y1="20.000002"
       x2="24"
       y2="-19.999998" />
    <linearGradient
       id="linearGradient6051"
       x1="24"
       x2="24"
       y1="20.000002"
       y2="-19.999998"
       gradientUnits="userSpaceOnUse"
       gradientTransform="matrix(-0.00281815,-0.66969062,0.66969056,-0.00281813,60.370572,-13.106694)">
      <stop
         stop-color="#1d99f3"
         offset="0"
         id="stop2676" />
      <stop
         stop-color="#edeff0"
         offset="1"
         id="stop2678" />
    </linearGradient>
    <linearGradient
       id="h-5-9"
       gradientUnits="userSpaceOnUse"
       x1="11"
       x2="11"
       y1="22.001953"
       y2="11"
       gradientTransform="matrix(1.3830607,0,0,1.3830607,-2.5882961,-2.8653496)">
      <stop
         offset="0"
         stop-color="#7cbaf8"
         id="stop21-3-3" />
      <stop
         offset="1"
         stop-color="#f4fcff"
         id="stop23-5-6" />
    </linearGradient>
    <linearGradient
       inkscape:collect="always"
       xlink:href="#linearGradient14"
       id="linearGradient884"
       x1="-12.025727"
       y1="6.1170783"
       x2="-0.085100174"
       y2="6.1170783"
       gradientUnits="userSpaceOnUse" />
  </defs>
  <sodipodi:namedview
     id="namedview14"
     pagecolor="#000000"
     bordercolor="#666666"
     borderopacity="1.0"
     inkscape:showpageshadow="2"
     inkscape:pageopacity="0.0"
     inkscape:pagecheckerboard="0"
     inkscape:deskcolor="#d1d1d1"
     showgrid="false"
     inkscape:zoom="6.2611141"
     inkscape:cx="-0.75071812"
     inkscape:cy="54.335026"
     inkscape:window-width="1920"
     inkscape:window-height="988"
     inkscape:window-x="0"
     inkscape:window-y="0"
     inkscape:window-maximized="1"
     inkscape:current-layer="svg12"
     inkscape:document-rotation="0">
    <inkscape:grid
       type="xygrid"
       id="grid244"
       originx="9.9594769"
       originy="-31.57929"
       spacingy="1"
       spacingx="1"
       units="px"
       visible="false" />
  </sodipodi:namedview>
  <rect
     x="-12.194976"
     y="0.32004508"
     width="11.940627"
     height="11.936014"
     rx="1.6121091"
     shape-rendering="crispEdges"
     id="rect5-6-7-3"
     ry="1.7735944"
     transform="matrix(0.00523883,-0.99998628,0.999988,0.00489859,0,0)"
     style="fill:#80b3ff;fill-opacity:0.15;stroke:url(#linearGradient884);stroke-width:0.529156;stroke-miterlimit:4;stroke-dasharray:none;stroke-opacity:1" />
  <rect
     x="-3.7202365"
     y="4.8851409"
     width="7.912631"
     height="7.912384"
     rx="1.612043"
     shape-rendering="crispEdges"
     id="rect5-6-6-6-6"
     style="fill:#80b3ff;fill-opacity:0.122146;stroke:url(#linearGradient15);stroke-width:0.396867;stroke-miterlimit:4;stroke-dasharray:none;stroke-opacity:1"
     ry="1.7735215"
     transform="matrix(0.72612649,-0.68756114,0.6879775,0.72573202,0,0)" />
  <path
     d="m 3.9285324,8.8106289 c 0.00215,0.308213 0.252003,0.552607 0.5601999,0.547973 l 3.7087186,-0.05579 c 0.3081926,-0.0046 0.5545716,-0.256496 0.5524141,-0.564708 L 8.7187374,4.2873919 7.411608,3.008792 4.4446334,3.0534203 C 4.1364394,3.0580603 3.8900613,3.3099139 3.892217,3.6181319 Z"
     style="fill:url(#linearGradient1014);stroke-width:0.25648;paint-order:normal"
     id="path2716-2" />
  <path
     d="m 4.123496,8.7850899 c 0.00116,0.30822 1.3631701,0.550623 1.6713861,0.549327 l 1.2981447,-0.0054 c 0.3082142,-0.0012 0.5553024,-0.250472 0.5540065,-0.55869 L 7.6282995,4.3195229 6.3246909,3.0268384 5.7683423,3.029181 C 5.460127,3.030311 4.1003433,3.2842979 4.1016401,3.5925189 Z"
     fill="url(#linearGradient6095)"
     opacity="0.6"
     style="fill:url(#linearGradient1016);stroke-width:0.969437;paint-order:normal"
     id="path2718-6" />
  <path
     d="m 3.9380471,8.7858709 c 0.00116,0.308218 0.2504728,0.555305 0.558689,0.554008 l 2.4108408,-0.01014 c 0.3082189,-0.0012 0.5553028,-0.250474 0.5540058,-0.55869 l -0.018724,-4.450782 c 0.067909,0.06734 -0.8069966,-0.800231 -1.3036071,-1.2926853 l -1.6690448,0.00703 C 4.1619899,3.0357728 3.914903,3.2850749 3.9162021,3.5932959 Z"
     style="fill:url(#linearGradient1018);stroke-width:0.25648;paint-order:normal"
     id="path2720-1" />
  <path
     d="M 7.4491806,4.3285859 6.1392484,3.0275763 6.1360633,3.7649169 c -0.00121,0.30822 0.2505956,0.562836 0.5586897,0.554008 0.3111901,0.0015 0.7544471,0.0097 0.7544471,0.0097 z"
     fill="#2980b9"
     style="stroke-width:0.969437;paint-order:normal"
     id="path2722-8" />
  <path
     d="m 8.7187391,4.2873919 -1.30713,-1.2786001 -0.00752,0.7252731 c -0.00318,0.308247 0.2520315,0.545783 0.5601993,0.547971 z"
     fill="#c0392b"
     style="stroke-width:0.969437;paint-order:normal"
     id="path2724-7" />
  <path
     d="m 3.9380471,8.7858709 c 0.00116,0.308218 0.2504728,0.555305 0.558689,0.554008 L 4.4702019,3.0346003 C 4.1619853,3.0357673 3.9148982,3.2850709 3.9161956,3.5932929 Z"
     fill="#3498db"
     opacity="0.6"
     style="stroke-width:0.25648;paint-order:normal"
     id="path2726-9" />
  <g
     stroke-width="0.69153"
     transform="matrix(0.5230669,0,0,0.5230669,-0.06427351,-0.92539978)"
     id="g40-6-2">
    <path
       d="m 9.5,11.001953 a 0.5,0.5 0 0 0 -0.5,0.5 0.5,0.5 0 0 0 0.5,0.5 0.5,0.5 0 0 0 0.5,-0.5 0.5,0.5 0 0 0 -0.5,-0.5 z m 2.5,0 -0.75,0.75 1.25,1.25 -1.25,1.25 0.75,0.75 2,-2 z m -3.375,2.25 a 0.625,0.625 0 0 0 -0.625,0.625 0.625,0.625 0 0 0 0.625,0.625 0.625,0.625 0 0 0 0.625,-0.625 0.625,0.625 0 0 0 -0.625,-0.625 z m 1.625,2.25 a 0.75,0.75 0 0 0 -0.75,0.75 0.75,0.75 0 0 0 0.75,0.75 0.75,0.75 0 0 0 0.75,-0.75 0.75,0.75 0 0 0 -0.75,-0.75 z"
       id="path38-9-2"
       style="fill:url(#h-5-9);stroke-width:0.69153" />
  </g>
</svg>
