<?xml version="1.0" encoding="UTF-8" standalone="no"?>
<svg
   xmlns:dc="http://purl.org/dc/elements/1.1/"
   xmlns:cc="http://creativecommons.org/ns#"
   xmlns:rdf="http://www.w3.org/1999/02/22-rdf-syntax-ns#"
   xmlns:svg="http://www.w3.org/2000/svg"
   xmlns="http://www.w3.org/2000/svg"
   xmlns:xlink="http://www.w3.org/1999/xlink"
   xmlns:sodipodi="http://sodipodi.sourceforge.net/DTD/sodipodi-0.dtd"
   xmlns:inkscape="http://www.inkscape.org/namespaces/inkscape"
   width="47.285591"
   height="47.28569"
   version="1.1"
   viewBox="0 0 12.510734 12.51076"
   id="svg12"
   sodipodi:docname="applications-games.svg"
   inkscape:version="1.0.1 (3bc2e813f5, 2020-09-07)">
  <style
     id="style860"></style>
  <metadata
     id="metadata35">
    <rdf:RDF>
      <cc:Work
         rdf:about="">
        <dc:format>image/svg+xml</dc:format>
        <dc:type
           rdf:resource="http://purl.org/dc/dcmitype/StillImage" />
      </cc:Work>
    </rdf:RDF>
  </metadata>
  <defs
     id="defs16">
    <linearGradient
       id="linearGradient906"
       inkscape:collect="always">
      <stop
         style="stop-color:#9955ff;stop-opacity:1"
         offset="0"
         id="stop902" />
      <stop
         style="stop-color:#b17dff;stop-opacity:1"
         offset="1"
         id="stop904" />
    </linearGradient>
    <linearGradient
       id="c"
       y1="523.79999"
       x1="403.57001"
       y2="536.79999"
       x2="416.57001"
       gradientUnits="userSpaceOnUse"
       gradientTransform="matrix(0.34526714,0,0,0.34526706,-134.80427,-174.63325)">
      <stop
         stop-color="#292c2f"
         id="stop1568" />
      <stop
         offset="1"
         stop-opacity="0"
         id="stop1570" />
    </linearGradient>
    <linearGradient
       xlink:href="#b-2"
       id="linearGradient4189"
       x1="14.369"
       y1="22.521999"
       x2="26.521999"
       y2="22.521999"
       gradientUnits="userSpaceOnUse" />
    <linearGradient
       x1="36"
       gradientUnits="userSpaceOnUse"
       x2="14"
       y2="12"
       y1="44"
       id="b-2">
      <stop
         style="stop-color:#bfc9c9;stop-opacity:1"
         stop-color="#536161"
         id="stop1579" />
      <stop
         style="stop-color:#fbfbfb;stop-opacity:1"
         stop-color="#f4f5f5"
         offset="1"
         id="stop1581" />
    </linearGradient>
    <linearGradient
       xlink:href="#b-2"
       id="linearGradient4428"
       gradientUnits="userSpaceOnUse"
       x1="31.586"
       y1="36.345001"
       x2="1.2029999"
       y2="6.723" />
    <linearGradient
       xlink:href="#b-2"
       id="linearGradient4189-3"
       x1="14.369"
       y1="22.521999"
       x2="26.521999"
       y2="22.521999"
       gradientUnits="userSpaceOnUse"
       gradientTransform="translate(20.841982,61.553822)" />
    <linearGradient
       xlink:href="#b-2"
       id="linearGradient4428-5"
       gradientUnits="userSpaceOnUse"
       x1="31.586"
       y1="36.345001"
       x2="1.2029999"
       y2="6.723"
       gradientTransform="translate(20.841982,61.553822)" />
    <linearGradient
       xlink:href="#b-2"
       id="linearGradient4189-3-3"
       x1="14.369"
       y1="22.521999"
       x2="26.521999"
       y2="22.521999"
       gradientUnits="userSpaceOnUse"
       gradientTransform="translate(4.376802,4.4211693)" />
    <linearGradient
       xlink:href="#b-2"
       id="linearGradient4428-5-5"
       gradientUnits="userSpaceOnUse"
       x1="31.586"
       y1="36.345001"
       x2="1.2029999"
       y2="6.723"
       gradientTransform="translate(4.376802,4.4211693)" />
    <linearGradient
       id="linearGradient4220">
      <stop
         offset="0"
         style="stop-color:#ffd5d3;stop-opacity:1"
         id="stop2" />
      <stop
         offset="1"
         style="stop-color:#ffffff;stop-opacity:1"
         id="stop4" />
    </linearGradient>
    <linearGradient
       inkscape:collect="always"
       xlink:href="#linearGradient906"
       id="linearGradient868"
       x1="-12.025727"
       y1="6.1170783"
       x2="-0.085100174"
       y2="6.1170783"
       gradientUnits="userSpaceOnUse" />
    <linearGradient
       inkscape:collect="always"
       xlink:href="#linearGradient2-3"
       id="linearGradient15-3"
       x1="-13.123444"
       y1="32.508564"
       x2="14.859644"
       y2="32.508564"
       gradientUnits="userSpaceOnUse"
       gradientTransform="scale(0.26457814)" />
    <linearGradient
       id="linearGradient2-3"
       inkscape:collect="always">
      <stop
         style="stop-color:#9955ff;stop-opacity:1"
         offset="0"
         id="stop2-6" />
      <stop
         style="stop-color:#b17dff;stop-opacity:1"
         offset="1"
         id="stop3" />
    </linearGradient>
    <filter
       id="filter1305-3-7"
       x="-0.060002353"
       y="-0.060002353"
       width="1.1200047"
       height="1.1200047"
       color-interpolation-filters="sRGB">
      <feGaussianBlur
         stdDeviation="0.61852427"
         id="feGaussianBlur324-5" />
    </filter>
    <linearGradient
       inkscape:collect="always"
       xlink:href="#linear2"
       id="linearGradient1125"
       gradientUnits="userSpaceOnUse"
       gradientTransform="matrix(0.32496622,0,0,0.32496622,2.190781,2.1831189)"
       x1="2.0002"
       y1="17.0902"
       x2="29.999901"
       y2="17.0902" />
    <linearGradient
       id="linear2"
       gradientUnits="userSpaceOnUse"
       x1="2.0002"
       y1="17.0902"
       x2="29.999901"
       y2="17.0902"
       gradientTransform="matrix(1.5838651,0,0,1.5838651,303.03286,496.71121)">
      <stop
         offset="0"
         style="stop-color:rgb(90.980392%,93.72549%,97.254902%);stop-opacity:1;"
         id="stop12-7" />
      <stop
         offset="1"
         style="stop-color:rgb(96.078431%,98.039216%,100%);stop-opacity:1;"
         id="stop14-5" />
    </linearGradient>
  </defs>
  <sodipodi:namedview
     id="namedview14"
     pagecolor="#000000"
     bordercolor="#666666"
     borderopacity="1.0"
     inkscape:showpageshadow="2"
     inkscape:pageopacity="0.0"
     inkscape:pagecheckerboard="0"
     inkscape:deskcolor="#d1d1d1"
     showgrid="false"
     inkscape:zoom="9.0252824"
     inkscape:cx="-0.031996193"
     inkscape:cy="38.994404"
     inkscape:window-width="1920"
     inkscape:window-height="988"
     inkscape:window-x="0"
     inkscape:window-y="0"
     inkscape:window-maximized="1"
     inkscape:current-layer="svg12"
     inkscape:document-rotation="0">
    <inkscape:grid
       type="xygrid"
       id="grid244"
       originx="9.9594769"
       originy="-31.57929"
       spacingy="1"
       spacingx="1"
       units="px"
       visible="false" />
  </sodipodi:namedview>
  <rect
     x="-12.194976"
     y="0.32004508"
     width="11.940627"
     height="11.936014"
     rx="1.6121091"
     shape-rendering="crispEdges"
     id="rect5-6-7-3"
     ry="1.7735944"
     transform="matrix(0.00523883,-0.99998628,0.999988,0.00489859,0,0)"
     style="fill:#80b3ff;fill-opacity:0.12156863;stroke:url(#linearGradient868);stroke-width:0.529156;stroke-miterlimit:4;stroke-dasharray:none;stroke-opacity:1" />
  <rect
     x="-3.7077141"
     y="4.887754"
     width="7.9126315"
     height="7.9123845"
     rx="1.612043"
     shape-rendering="crispEdges"
     id="rect5-6-6-6"
     style="fill:#80b3ff;fill-opacity:0.1;stroke:url(#linearGradient15-3);stroke-width:0.39686725;stroke-opacity:1;stroke-miterlimit:4;stroke-dasharray:none"
     ry="1.7735217"
     transform="matrix(0.72612648,-0.68756115,0.68797749,0.72573202,0,0)" />
  <path
     style="fill:#b380ff;fill-rule:nonzero;stroke:none;stroke-width:0.324971"
     d="m 9.0634772,4.1093217 c -0.013644,-0.024997 -0.033606,-0.045862 -0.058801,-0.058374 l -0.1113221,-0.046903 -0.0357,-0.1281982 c 0,-0.012462 -0.00629,-0.017756 -0.012583,-0.029188 C 8.7799731,3.7341041 8.6749622,3.6496735 8.5510515,3.6069449 8.2402209,3.4776998 7.9104983,3.396404 7.575504,3.3620059 7.492561,3.3558059 7.4106432,3.3767239 7.3402917,3.4203649 7.227938,3.5110559 7.0935141,3.5715199 6.9517634,3.5954778 H 5.5404466 c -0.141744,-0.024034 -0.276183,-0.084422 -0.387478,-0.1751129 -0.07141,-0.04273 -0.153325,-0.063569 -0.235228,-0.058359 -0.336029,0.034398 -0.665752,0.1156939 -0.97659,0.244939 -0.123903,0.042729 -0.227868,0.1271592 -0.294026,0.2397137 -0.0062,0.00622 -0.0062,0.016721 -0.01255,0.029188 l -0.03466,0.1334156 -0.08296,0.047927 c -0.02307,0.010345 -0.04095,0.02918 -0.05248,0.052132 -0.0062,0.016719 -0.07036,0.1333998 -0.153319,0.3272785 L 3.8592976,4.161424 c 0.774958,-0.3668762 1.052188,-0.1573798 1.075282,-0.139657 0.115511,0.1459254 0.241526,0.2814121 0.375953,0.4085737 0.241501,0.2397211 0.353863,0.2741194 0.401131,0.2741194 h 1.0343427 c 0.053554,0 0.1648478,-0.040642 0.3937661,-0.2741194 C 7.2742001,4.3042187 7.3980933,4.1676924 7.5104504,4.021767 7.5398394,3.99877 7.8286585,3.7820406 8.6456163,4.1906075 8.6341203,4.1791935 8.9921507,4.3594626 9.2336581,4.4824531 9.1391491,4.2667033 9.0751031,4.1259996 9.0635592,4.1093212 Z m 0,0"
     id="path21-9" />
  <path
     style="fill:url(#linearGradient1125);fill-rule:nonzero;stroke:none;stroke-width:0.324971"
     d="M 10.004349,7.0048041 C 9.8709935,6.1313621 9.6116188,5.2829342 9.2335978,4.4824533 8.9920723,4.3594631 8.6339949,4.1791454 8.6455257,4.190608 7.8285629,3.7820411 7.5408361,3.998832 7.5114324,4.0217675 7.3980284,4.1676926 7.2741143,4.3042192 7.139706,4.4303412 6.9107858,4.6638185 6.7994654,4.7044606 6.7469656,4.7044606 h -1.035389 c -0.04725,0 -0.159606,-0.034398 -0.400092,-0.2741194 -0.135451,-0.1271616 -0.261466,-0.2626486 -0.376973,-0.4085737 -0.02307,-0.017849 -0.29928,-0.2272192 -1.075295,0.139657 l -0.546049,0.2730844 c -0.376976,0.8181899 -0.642652,1.6822522 -0.789658,2.5702952 -0.06511,0.507593 0.0062,0.88178 0.218401,1.120465 0.150175,0.163632 0.363345,0.259527 0.588055,0.262651 h 0.08821 c 0.152265,0 0.369633,-0.116735 1.087899,-0.880735 0.06931,-0.07713 0.122863,-0.117774 0.157512,-0.152178 0.140716,-0.1011 0.310836,-0.150085 0.483046,-0.140705 h 2.246153 c 0.1732598,-0.01141 0.3433785,0.03855 0.48199,0.140705 0.035699,0.0344 0.088201,0.07505 0.1596089,0.152178 0.7172044,0.764 0.9345733,0.880735 1.0878916,0.880735 h 0.088211 c 0.2247154,-0.001 0.4379001,-0.09694 0.5880468,-0.262651 0.2205161,-0.330418 0.2940371,-0.734817 0.2058181,-1.120465 z m 0,0"
     id="path23-1" />
  <path
     style="fill:#aa87de;fill-opacity:1;fill-rule:nonzero;stroke:none;stroke-width:0.324971"
     d="m 8.0574812,5.3465248 c -0.1134132,0 -0.2058164,0.091715 -0.2058164,0.2042734 0,0.1136096 0.092403,0.2042949 0.2058164,0.2042949 0.1134115,0 0.2058225,-0.090686 0.2058225,-0.2042949 C 8.2622737,5.4392772 8.1708927,5.347563 8.0574812,5.3465248 Z M 8.527925,4.8795682 c -0.1134122,0 -0.2058278,0.091721 -0.2058278,0.2042887 0,0.1136091 0.092416,0.2042943 0.2058278,0.2042943 0.1134064,0 0.2058108,-0.090685 0.2058108,-0.2042943 C 8.7327058,4.972337 8.6413318,4.8806051 8.527925,4.8795682 Z m -0.9408645,0 c -0.1134175,0 -0.2058349,0.091721 -0.2058349,0.2042887 0,0.1136091 0.092417,0.2042943 0.2058349,0.2042943 0.1133895,0 0.205791,-0.090685 0.205791,-0.2042943 C 7.7918215,4.972337 7.7004505,4.8806051 7.5870605,4.8795682 Z M 8.0574812,4.4126105 c -0.1134132,0 -0.2058164,0.091731 -0.2058164,0.2043065 0,0.1136082 0.092403,0.20429 0.2058164,0.20429 0.1134115,0 0.2058225,-0.090682 0.2058225,-0.20429 C 8.2622737,4.5053867 8.1708927,4.4136508 8.0574812,4.4126105 Z m 0,0"
     id="path25-2" />
  <path
     style="fill:#fcfdfd;fill-opacity:1;fill-rule:nonzero;stroke:none;stroke-width:0.324971"
     d="m 6.2639269,3.9456711 c 0.1302069,0 0.2352113,0.1052762 0.2352113,0.2334743 0,0.1292536 -0.1050044,0.2334651 -0.2352113,0.2334651 -0.1302095,0 -0.2352133,-0.1042115 -0.2352133,-0.2334651 0,-0.1281981 0.1050038,-0.2324213 0.2352133,-0.2334743 z m 0,0"
     id="path27-7" />
  <path
     style="fill:#b380ff;fill-opacity:1;fill-rule:nonzero;stroke:none;stroke-width:0.324971"
     d="m 5.8291956,6.2804121 h -0.212134 v 0.215751 c 0,0.02302 -0.0084,0.04378 -0.0232,0.05838 -0.0168,0.01669 -0.0378,0.02498 -0.0588,0.02402 h -0.189012 c -0.0209,10e-4 -0.04305,-0.0072 -0.0588,-0.02402 -0.01483,-0.01473 -0.02317,-0.03545 -0.02317,-0.05838 v -0.215751 h -0.2121 c -0.02087,10e-4 -0.04305,-0.0073 -0.05881,-0.02392 -0.01484,-0.01473 -0.02316,-0.03545 -0.02316,-0.05836 v -0.185542 c 0,-0.02303 0.0084,-0.04378 0.02316,-0.05836 0.01568,-0.01672 0.0378,-0.02499 0.05881,-0.02397 h 0.212111 v -0.209517 c 0,-0.023013 0.0084,-0.043761 0.02316,-0.058363 0.01577,-0.016721 0.03781,-0.024979 0.0588,-0.024053 h 0.189014 c 0.02086,-0.00103 0.04199,0.00729 0.0588,0.024053 0.01483,0.014721 0.02319,0.035444 0.02319,0.058363 v 0.20951 h 0.212135 c 0.02086,-10e-4 0.042,0.0073 0.0588,0.02397 0.01484,0.01473 0.0232,0.03543 0.0232,0.05836 v 0.186571 c 0,0.02189 -0.0083,0.04273 -0.0232,0.05732 -0.01684,0.01672 -0.0378,0.02498 -0.0588,0.02392 z m 0,0"
     id="path29-0" />
  <path
     style="fill:#171717;fill-opacity:1;fill-rule:nonzero;stroke:none;stroke-width:0.324971"
     d="m 6.9695965,5.5216049 c 0.3255211,0 0.5880397,0.2616312 0.5880397,0.5836932 0,0.322072 -0.2625186,0.584728 -0.5880397,0.584728 -0.3255314,0 -0.5880561,-0.262656 -0.5880561,-0.584728 0.00103,-0.322062 0.2635788,-0.5826362 0.5880561,-0.5836932 z m 0,0"
     id="path31-9" />
  <path
     style="fill:#aa87de;fill-opacity:1;fill-rule:nonzero;stroke:none;stroke-width:0.324971"
     d="m 6.9695965,5.6967278 c 0.2268091,0 0.4116291,0.1823983 0.4116291,0.4085703 0,0.22618 -0.18482,0.409623 -0.4116291,0.409623 -0.2268085,0 -0.4116341,-0.183443 -0.4116341,-0.409623 0,-0.108394 0.042008,-0.212618 0.1196989,-0.28871 0.077707,-0.07713 0.1827203,-0.1209053 0.2919352,-0.1198603 z m 0,0"
     id="path33-3" />
  <path
     style="fill:#171717;fill-opacity:1;fill-rule:nonzero;stroke:none;stroke-width:0.324971"
     d="m 4.3821676,4.4709868 c 0.32447,0 0.588051,0.261618 0.588051,0.5836903 0,0.3220636 -0.263581,0.5847153 -0.588051,0.5847153 -0.325534,0 -0.58806,-0.2626517 -0.58806,-0.5847153 0,-0.3220723 0.263567,-0.5826341 0.58806,-0.5836903 z m 0,0"
     id="path35-6" />
  <path
     style="fill:#aa87de;fill-opacity:1;fill-rule:nonzero;stroke:none;stroke-width:0.324971"
     d="m 4.3821676,4.6460973 c 0.226818,0 0.411633,0.1823975 0.411633,0.4085798 0,0.2261688 -0.184815,0.4085658 -0.411633,0.4085658 -0.226814,0 -0.411641,-0.182397 -0.411641,-0.4085658 -7.67e-4,-0.1084074 0.04201,-0.2126285 0.11971,-0.289753 0.07772,-0.076095 0.182709,-0.1198764 0.291931,-0.1188268 z m 0,0"
     id="path37-0" />
  <path
     style="fill:#8c5cd2;fill-opacity:1;fill-rule:nonzero;stroke:none;stroke-width:0.324971"
     d="m 6.9695965,5.8718261 c 0.1301992,0 0.2352118,0.105273 0.2352118,0.233472 0,0.12925 -0.1050126,0.233476 -0.2352118,0.233476 -0.1302195,0 -0.2352245,-0.104226 -0.2352245,-0.233476 0,-0.128199 0.105005,-0.232421 0.2352245,-0.233472 z M 4.3821676,4.821207 c 0.130208,0 0.235216,0.1052627 0.235216,0.2334701 0,0.1292359 -0.105008,0.2334741 -0.235216,0.2334741 -0.13022,0 -0.235223,-0.1042382 -0.235223,-0.2334741 0,-0.1282074 0.105003,-0.2324306 0.235223,-0.2334701 z m 0,0"
     id="path39-6" />
</svg>
