<?xml version="1.0" encoding="UTF-8" standalone="no"?>
<svg
   xmlns:dc="http://purl.org/dc/elements/1.1/"
   xmlns:cc="http://creativecommons.org/ns#"
   xmlns:rdf="http://www.w3.org/1999/02/22-rdf-syntax-ns#"
   xmlns:svg="http://www.w3.org/2000/svg"
   xmlns="http://www.w3.org/2000/svg"
   xmlns:xlink="http://www.w3.org/1999/xlink"
   xmlns:sodipodi="http://sodipodi.sourceforge.net/DTD/sodipodi-0.dtd"
   xmlns:inkscape="http://www.inkscape.org/namespaces/inkscape"
   width="47.285591"
   height="47.28569"
   version="1.1"
   viewBox="0 0 12.510734 12.51076"
   id="svg12"
   sodipodi:docname="preferences-desktop-notification-bell.svg"
   inkscape:version="1.0.1 (3bc2e813f5, 2020-09-07)">
  <style
     id="style877"></style>
  <metadata
     id="metadata52">
    <rdf:RDF>
      <cc:Work
         rdf:about="">
        <dc:format>image/svg+xml</dc:format>
        <dc:type
           rdf:resource="http://purl.org/dc/dcmitype/StillImage" />
      </cc:Work>
    </rdf:RDF>
  </metadata>
  <defs
     id="defs16">
    <linearGradient
       id="linearGradient910"
       inkscape:collect="always">
      <stop
         style="stop-color:#bc5fd3;stop-opacity:1"
         offset="0"
         id="stop906" />
      <stop
         style="stop-color:#00ccff;stop-opacity:1"
         offset="1"
         id="stop908" />
    </linearGradient>
    <linearGradient
       id="c"
       y1="523.79999"
       x1="403.57001"
       y2="536.79999"
       x2="416.57001"
       gradientUnits="userSpaceOnUse"
       gradientTransform="matrix(0.34526714,0,0,0.34526706,-134.80427,-174.63325)">
      <stop
         stop-color="#292c2f"
         id="stop1568" />
      <stop
         offset="1"
         stop-opacity="0"
         id="stop1570" />
    </linearGradient>
    <linearGradient
       xlink:href="#b-2"
       id="linearGradient4189"
       x1="14.369"
       y1="22.521999"
       x2="26.521999"
       y2="22.521999"
       gradientUnits="userSpaceOnUse" />
    <linearGradient
       x1="36"
       gradientUnits="userSpaceOnUse"
       x2="14"
       y2="12"
       y1="44"
       id="b-2">
      <stop
         style="stop-color:#bfc9c9;stop-opacity:1"
         stop-color="#536161"
         id="stop1579" />
      <stop
         style="stop-color:#fbfbfb;stop-opacity:1"
         stop-color="#f4f5f5"
         offset="1"
         id="stop1581" />
    </linearGradient>
    <linearGradient
       xlink:href="#b-2"
       id="linearGradient4428"
       gradientUnits="userSpaceOnUse"
       x1="31.586"
       y1="36.345001"
       x2="1.2029999"
       y2="6.723" />
    <linearGradient
       xlink:href="#b-2"
       id="linearGradient4189-3"
       x1="14.369"
       y1="22.521999"
       x2="26.521999"
       y2="22.521999"
       gradientUnits="userSpaceOnUse"
       gradientTransform="translate(20.841982,61.553822)" />
    <linearGradient
       xlink:href="#b-2"
       id="linearGradient4428-5"
       gradientUnits="userSpaceOnUse"
       x1="31.586"
       y1="36.345001"
       x2="1.2029999"
       y2="6.723"
       gradientTransform="translate(20.841982,61.553822)" />
    <linearGradient
       xlink:href="#b-2"
       id="linearGradient4189-3-3"
       x1="14.369"
       y1="22.521999"
       x2="26.521999"
       y2="22.521999"
       gradientUnits="userSpaceOnUse"
       gradientTransform="translate(4.376802,4.4211693)" />
    <linearGradient
       xlink:href="#b-2"
       id="linearGradient4428-5-5"
       gradientUnits="userSpaceOnUse"
       x1="31.586"
       y1="36.345001"
       x2="1.2029999"
       y2="6.723"
       gradientTransform="translate(4.376802,4.4211693)" />
    <filter
       id="filter2917-3"
       x="-0.96181148"
       y="-0.66745996"
       width="2.9236228"
       height="2.3349199"
       color-interpolation-filters="sRGB">
      <feGaussianBlur
         stdDeviation="0.2871969"
         id="feGaussianBlur732-5" />
    </filter>
    <filter
       id="filter1"
       x="-0.96181148"
       y="-0.66745996"
       width="2.9236228"
       height="2.3349199"
       color-interpolation-filters="sRGB">
      <feGaussianBlur
         stdDeviation="0.2871969"
         id="feGaussianBlur1" />
    </filter>
    <filter
       id="filter2"
       x="-0.96181148"
       y="-0.66745996"
       width="2.9236228"
       height="2.3349199"
       color-interpolation-filters="sRGB">
      <feGaussianBlur
         stdDeviation="0.2871969"
         id="feGaussianBlur2" />
    </filter>
    <linearGradient
       id="paint0_linear_19_69"
       x1="13.5381"
       y1="7.6556602"
       x2="19.187599"
       y2="7.6556602"
       gradientUnits="userSpaceOnUse"
       gradientTransform="scale(0.26457813)">
      <stop
         stop-color="#02AA93"
         id="stop3" />
      <stop
         offset="1"
         stop-color="#67FF80"
         id="stop4" />
    </linearGradient>
    <linearGradient
       id="paint1_linear_19_69"
       x1="13.5426"
       y1="5.74156"
       x2="23"
       y2="5.74156"
       gradientUnits="userSpaceOnUse"
       gradientTransform="scale(0.26457813)">
      <stop
         stop-color="#02AA93"
         id="stop5" />
      <stop
         offset="1"
         stop-color="#67FF80"
         id="stop6" />
    </linearGradient>
    <linearGradient
       id="paint2_linear_19_69"
       x1="1"
       y1="12.425"
       x2="22.2339"
       y2="12.425"
       gradientUnits="userSpaceOnUse"
       gradientTransform="scale(0.26457813)">
      <stop
         stop-color="#02AA93"
         id="stop7" />
      <stop
         offset="1"
         stop-color="#67FF80"
         id="stop8" />
    </linearGradient>
    <linearGradient
       id="c-6">
      <stop
         offset="0"
         stop-color="#c6cdd1"
         id="stop226" />
      <stop
         offset="1"
         stop-color="#e0e5e7"
         id="stop228" />
    </linearGradient>
    <linearGradient
       id="e-3">
      <stop
         offset="0"
         id="stop232" />
      <stop
         offset="1"
         stop-opacity="0"
         id="stop234" />
    </linearGradient>
    <linearGradient
       inkscape:collect="always"
       xlink:href="#linearGradient910"
       id="linearGradient885"
       x1="-12.025727"
       y1="6.1170783"
       x2="-0.085100174"
       y2="6.1170783"
       gradientUnits="userSpaceOnUse" />
    <linearGradient
       inkscape:collect="always"
       xlink:href="#linearGradient25"
       id="linearGradient26-3"
       x1="327.15875"
       y1="664.04694"
       x2="338.00244"
       y2="653"
       gradientUnits="userSpaceOnUse"
       gradientTransform="matrix(0.49999982,0,0,0.49999982,156.97379,318.24492)" />
    <linearGradient
       id="linearGradient25"
       inkscape:collect="always">
      <stop
         style="stop-color:#5effff;stop-opacity:1;"
         offset="0"
         id="stop25" />
      <stop
         style="stop-color:#ffa0ec;stop-opacity:1;"
         offset="1"
         id="stop26-6" />
    </linearGradient>
    <linearGradient
       inkscape:collect="always"
       xlink:href="#linearGradient910"
       id="linearGradient912"
       gradientUnits="userSpaceOnUse"
       gradientTransform="scale(0.26457813)"
       x1="-9.6850061"
       y1="45.161198"
       x2="11.98815"
       y2="21.735205" />
  </defs>
  <sodipodi:namedview
     id="namedview14"
     pagecolor="#000000"
     bordercolor="#666666"
     borderopacity="1.0"
     inkscape:showpageshadow="2"
     inkscape:pageopacity="0.0"
     inkscape:pagecheckerboard="0"
     inkscape:deskcolor="#d1d1d1"
     showgrid="false"
     inkscape:zoom="7.5172018"
     inkscape:cx="23.845543"
     inkscape:cy="49.013897"
     inkscape:window-width="1920"
     inkscape:window-height="988"
     inkscape:window-x="0"
     inkscape:window-y="0"
     inkscape:window-maximized="1"
     inkscape:current-layer="svg12"
     inkscape:document-rotation="0">
    <inkscape:grid
       type="xygrid"
       id="grid244"
       originx="9.9594769"
       originy="-31.57929"
       spacingy="1"
       spacingx="1"
       units="px"
       visible="false" />
  </sodipodi:namedview>
  <rect
     x="-12.194976"
     y="0.32004508"
     width="11.940627"
     height="11.936014"
     rx="1.6121091"
     shape-rendering="crispEdges"
     id="rect5-6-7-3"
     ry="1.7735944"
     transform="matrix(0.00523883,-0.99998628,0.999988,0.00489859,0,0)"
     style="fill:#80b3ff;fill-opacity:0.15;stroke:url(#linearGradient885);stroke-width:0.5291563;stroke-miterlimit:4;stroke-dasharray:none;stroke-opacity:1" />
  <rect
     x="-3.7202365"
     y="4.8851409"
     width="7.912631"
     height="7.912384"
     rx="1.612043"
     shape-rendering="crispEdges"
     id="rect5-6-6-6-6"
     style="fill:#80b3ff;fill-opacity:0.122146;stroke:url(#linearGradient912);stroke-width:0.39686725;stroke-opacity:1;stroke-miterlimit:4;stroke-dasharray:none"
     ry="1.7735215"
     transform="matrix(0.72612649,-0.68756114,0.6879775,0.72573202,0,0)" />
  <g
     transform="matrix(0.4534831,0,0,0.45204655,-144.12009,-290.2475)"
     class="ColorScheme-Text"
     id="g23"
     style="color:#d5c289;stroke-width:0.500001">
    <path
       d="m 331.94,653 c 0.0187,0.16677 0.0625,0.32822 0.0625,0.5 0,2.4853 -2.0147,4.5 -4.5,4.5 -0.11769,0 -0.22834,-0.0224 -0.34375,-0.0312 v 2.2188 c 0,1.0041 0.80838,1.8125 1.8125,1.8125 l 1.5451,-5e-5 2,2.0469 2.0625,-2.0469 h 1.6111 c 1.0041,0 1.8125,-0.80838 1.8125,-1.8125 v -5.375 c 0,-1.0041 -0.80837,-1.8125 -1.8125,-1.8125 z"
       id="path22-5"
       style="fill:url(#linearGradient26-3);stroke-width:0.500001" />
    <path
       class="ColorScheme-Text"
       d="m 327.5,650 c -1.933,0 -3.5,1.567 -3.5,3.5 0,1.933 1.567,3.5 3.5,3.5 1.933,0 3.5,-1.567 3.5,-3.5 0,-1.933 -1.567,-3.5 -3.5,-3.5 z m -0.53125,1 h 1.0312 l -0.0625,1.375 a 0.19952,0.19952 0 0 0 0,0.0625 0.19952,0.19952 0 0 0 0,0.0312 0.19952,0.19952 0 0 0 0.125,0.125 0.19952,0.19952 0 0 0 0.0312,0 0.19952,0.19952 0 0 0 0.0625,0 0.19952,0.19952 0 0 0 0.0625,0 0.19952,0.19952 0 0 0 0.0312,-0.0312 l 1.1562,-0.75 0.5,0.90625 -1.2188,0.625 a 0.19952,0.19952 0 0 0 -0.0312,0 0.19952,0.19952 0 0 0 -0.0312,0.0312 0.19952,0.19952 0 0 0 -0.0312,0.0937 0.19952,0.19952 0 0 0 0,0.0625 0.19952,0.19952 0 0 0 0,0.0312 0.19952,0.19952 0 0 0 0.0312,0.0625 0.19952,0.19952 0 0 0 0.0312,0.0312 0.19952,0.19952 0 0 0 0.0312,0.0312 l 1.25,0.625 -0.53125,0.90625 -1.1562,-0.781 a 0.19952,0.19952 0 0 0 -0.0312,0 0.19952,0.19952 0 0 0 -0.0625,-0.0312 0.19952,0.19952 0 0 0 -0.0625,0 0.19952,0.19952 0 0 0 -0.125,0.0937 0.19952,0.19952 0 0 0 -0.0312,0.0312 0.19952,0.19952 0 0 0 0,0.0312 0.19952,0.19952 0 0 0 0,0.0625 L 327.9999,656 h -1.0312 l 0.0937,-1.375 a 0.19952,0.19952 0 0 0 -0.0312,-0.0937 0.19952,0.19952 0 0 0 -0.0312,-0.0625 0.19952,0.19952 0 0 0 -0.0625,-0.0312 0.19952,0.19952 0 0 0 -0.0625,-0.0312 0.19952,0.19952 0 0 0 -0.0312,0 0.19952,0.19952 0 0 0 -0.0937,0.0312 l -1.1875,0.78125 -0.5,-0.90625 1.25,-0.625 a 0.19952,0.19952 0 0 0 0.0312,-0.0312 0.19952,0.19952 0 0 0 0.0312,-0.0312 0.19952,0.19952 0 0 0 0.0312,-0.0625 0.19952,0.19952 0 0 0 0,-0.0312 0.19952,0.19952 0 0 0 0,-0.0625 0.19952,0.19952 0 0 0 0,-0.0312 0.19952,0.19952 0 0 0 -0.0312,-0.0625 0.19952,0.19952 0 0 0 -0.0312,-0.0312 0.19952,0.19952 0 0 0 -0.0312,0 l -1.25,-0.625 0.5,-0.90625 1.1875,0.75 a 0.19952,0.19952 0 0 0 0.0312,0.0312 0.19952,0.19952 0 0 0 0.0625,0 0.19952,0.19952 0 0 0 0.0625,0 0.19952,0.19952 0 0 0 0.0312,0 0.19952,0.19952 0 0 0 0.0312,-0.0312 0.19952,0.19952 0 0 0 0.0312,-0.0312 0.19952,0.19952 0 0 0 0.0312,-0.0312 0.19952,0.19952 0 0 0 0,-0.0312 0.19952,0.19952 0 0 0 0.0312,-0.0625 0.19952,0.19952 0 0 0 0,-0.0312 l -0.09,-1.38 z"
       id="path23-3"
       style="color:#d5c289;fill:#ffc2ff;fill-opacity:1;stroke-width:0.500001" />
  </g>
</svg>
