<?xml version="1.0" encoding="UTF-8" standalone="no"?>
<svg
   width="22"
   height="22"
   version="1.1"
   id="svg12"
   sodipodi:docname="akregator-symbolic.svg"
   inkscape:version="1.3.2 (091e20ef0f, 2023-11-25)"
   xmlns:inkscape="http://www.inkscape.org/namespaces/inkscape"
   xmlns:sodipodi="http://sodipodi.sourceforge.net/DTD/sodipodi-0.dtd"
   xmlns:xlink="http://www.w3.org/1999/xlink"
   xmlns="http://www.w3.org/2000/svg"
   xmlns:svg="http://www.w3.org/2000/svg"
   xmlns:rdf="http://www.w3.org/1999/02/22-rdf-syntax-ns#"
   xmlns:cc="http://creativecommons.org/ns#"
   xmlns:dc="http://purl.org/dc/elements/1.1/">
  <metadata
     id="metadata18">
    <rdf:RDF>
      <cc:Work
         rdf:about="">
        <dc:format>image/svg+xml</dc:format>
        <dc:type
           rdf:resource="http://purl.org/dc/dcmitype/StillImage" />
      </cc:Work>
    </rdf:RDF>
  </metadata>
  <defs
     id="defs16">
    <linearGradient
       inkscape:collect="always"
       xlink:href="#linearGradient855"
       id="linearGradient873"
       x1="3.0619521"
       y1="16.631489"
       x2="8.1415768"
       y2="16.631489"
       gradientUnits="userSpaceOnUse"
       gradientTransform="matrix(1.3750003,0,0,1.3750003,-31.210187,-9.3848437)" />
    <linearGradient
       inkscape:collect="always"
       id="linearGradient855">
      <stop
         style="stop-color:#00cccc;stop-opacity:1"
         offset="0"
         id="stop851" />
      <stop
         style="stop-color:#008080;stop-opacity:1"
         offset="1"
         id="stop853" />
    </linearGradient>
  </defs>
  <sodipodi:namedview
     pagecolor="#201933"
     bordercolor="#000000"
     borderopacity="1"
     objecttolerance="10"
     gridtolerance="10"
     guidetolerance="10"
     inkscape:pageopacity="0"
     inkscape:pageshadow="2"
     inkscape:window-width="1920"
     inkscape:window-height="994"
     id="namedview14"
     showgrid="true"
     inkscape:zoom="9.8125003"
     inkscape:cx="19.668789"
     inkscape:cy="24.254776"
     inkscape:window-x="0"
     inkscape:window-y="0"
     inkscape:window-maximized="1"
     inkscape:current-layer="svg12"
     inkscape:document-rotation="0"
     inkscape:lockguides="false"
     inkscape:showpageshadow="2"
     inkscape:pagecheckerboard="true"
     inkscape:deskcolor="#201933">
    <inkscape:grid
       type="xygrid"
       id="grid894"
       originx="-13"
       originy="11.999995"
       spacingy="1"
       spacingx="1"
       units="px"
       visible="true" />
  </sodipodi:namedview>
  <g
     id="22-22-akregator-3"
     style="fill:#d3dae3;fill-opacity:1">
    <rect
       style="opacity:0.00100002;fill:#d3dae3;fill-opacity:1"
       width="22"
       height="22"
       x="0"
       y="-2.7795411e-07"
       id="rect2-6" />
    <path
       inkscape:connector-curvature="0"
       style="fill:#d3dae3;fill-opacity:1;stroke:none;stroke-width:1"
       d="m 4,2.999994 c -0.55228,0 -1,0.44772 -1,1 0,0.55228 0.44772,1 1,1 7.179702,0 13,5.820302 13,13 0,0.552286 0.447719,1 1,1 0.552281,0 1,-0.447714 1,-1 0,-8.284274 -6.715728,-15 -15,-15 z m 0,4 c -0.55228,0 -1,0.44772 -1,1 0,0.55228 0.44772,1 1,1 4.970563,0 9,4.029437 9,9 0,0.552286 0.447719,1 1,1 0.552281,0 1,-0.447714 1,-1 0,-6.075134 -4.924871,-11 -11,-11 z m 0,4 c -0.55228,0 -1,0.447716 -1,1 0,0.552286 0.44772,1 1,1 2.761418,0 5,2.238572 5,5 0,0.552286 0.447719,1 1,1 0.552281,0 1,-0.447714 1,-1 0,-3.865989 -3.134,-7 -7,-7 z m 1,4 c -1.104562,0 -2,0.895428 -2,2 0,1.104572 0.895438,2 2,2 1.104562,0 2,-0.895428 2,-2 0,-1.104572 -0.895438,-2 -2,-2 z"
       id="path2997-3" />
  </g>
</svg>
