<?xml version="1.0" encoding="UTF-8" standalone="no"?>
<svg
   width="22"
   height="22"
   version="1.1"
   id="svg12"
   sodipodi:docname="audacious-symbolic.svg"
   inkscape:version="1.3.2 (091e20ef0f, 2023-11-25)"
   xmlns:inkscape="http://www.inkscape.org/namespaces/inkscape"
   xmlns:sodipodi="http://sodipodi.sourceforge.net/DTD/sodipodi-0.dtd"
   xmlns="http://www.w3.org/2000/svg"
   xmlns:svg="http://www.w3.org/2000/svg"
   xmlns:rdf="http://www.w3.org/1999/02/22-rdf-syntax-ns#"
   xmlns:cc="http://creativecommons.org/ns#"
   xmlns:dc="http://purl.org/dc/elements/1.1/">
  <style
     id="current-color-scheme"
     type="text/css">.ColorScheme-Text { color:#d6dbf1; }
</style>
  <metadata
     id="metadata18">
    <rdf:RDF>
      <cc:Work
         rdf:about="">
        <dc:format>image/svg+xml</dc:format>
        <dc:type
           rdf:resource="http://purl.org/dc/dcmitype/StillImage" />
      </cc:Work>
    </rdf:RDF>
  </metadata>
  <defs
     id="defs16" />
  <sodipodi:namedview
     pagecolor="#201933"
     bordercolor="#000000"
     borderopacity="1"
     objecttolerance="10"
     gridtolerance="10"
     guidetolerance="10"
     inkscape:pageopacity="0"
     inkscape:pageshadow="2"
     inkscape:window-width="1920"
     inkscape:window-height="994"
     id="namedview14"
     showgrid="true"
     inkscape:zoom="9.8125"
     inkscape:cx="11.006369"
     inkscape:cy="11.210191"
     inkscape:window-x="0"
     inkscape:window-y="0"
     inkscape:window-maximized="1"
     inkscape:current-layer="svg12"
     inkscape:lockguides="false"
     inkscape:document-rotation="0"
     inkscape:showpageshadow="true"
     inkscape:pagecheckerboard="true"
     inkscape:deskcolor="#201933">
    <inkscape:grid
       type="xygrid"
       id="grid845"
       originx="-14"
       originy="-4.0000009"
       spacingy="1"
       spacingx="1"
       units="px"
       visible="true" />
  </sodipodi:namedview>
  <g
     id="22-22-audacious-3"
     transform="translate(-32,-10.000001)">
    <rect
       style="opacity:0.00100002;fill:#d1d5e9;fill-opacity:1"
       width="22"
       height="22"
       x="32"
       y="10.000001"
       id="rect2-6" />
    <path
       d="m 42.999999,13.000001 c -2.1217,0 -4.1567,0.8429 -5.6568,2.34315 -1.5003,1.50038 -2.3432,3.53518 -2.3432,5.65685 0,2.12167 0.8429,4.15669 2.3432,5.65685 1.5003,1.50025 3.5351,2.34315 5.6568,2.34315 2.1217,0 4.1567,-0.8429 5.6568,-2.34315 1.5003,-1.50038 2.3432,-3.53518 2.3432,-5.65685 0,-2.12095 -0.8462,-4.1545 -2.346,-5.65404 -1.4997,-1.49976 -3.5333,-2.343399 -5.654,-2.34596 z m 0,14.746 c -1.736,0 -3.600499,-0.89002 -4.827999,-2.11754 -1.2275,-1.22753 -1.917,-2.89238 -1.917,-4.62827 0,-1.73589 0.6895,-3.40084 1.917,-4.62827 1.2276,-1.22753 3.092099,-2.11692 4.827999,-2.11692 1.7359,0 3.600501,0.88939 4.828001,2.11692 1.2275,1.22752 1.917,2.89238 1.917,4.62827 0,1.73536 -0.692,3.39897 -1.919,4.6264 -1.2271,1.22703 -3.090701,2.11748 -4.826201,2.11941 z"
       id="path2"
       style="fill:#d3dae3;fill-opacity:1;stroke-width:0.0311689"
       sodipodi:nodetypes="ccscscsccccssscsccc" />
    <path
       d="M 40.277211,24.300158 C 39.760775,23.832522 39.5,23.220808 39.5,22.462473 c 0,-0.503013 0.135505,-0.945364 0.403949,-1.329596 0.26845,-0.384209 0.636595,-0.679957 1.104453,-0.884706 0.467858,-0.20729 0.984289,-0.310922 1.551854,-0.310922 0.787444,0 1.457273,0.113753 2.014614,0.338723 v -0.323555 c 0,-0.412019 -0.155973,-0.748214 -0.470415,-1.003508 -0.314464,-0.255291 -0.733754,-0.384234 -1.26042,-0.384234 -0.357918,0 -0.703052,0.0809 -1.037966,0.242679 -0.334915,0.161796 -0.611042,0.37664 -0.828345,0.64206 L 39.72242,18.476209 c 0.368152,-0.472686 0.830907,-0.836691 1.388251,-1.091991 0.557333,-0.2553 1.165807,-0.384217 1.820307,-0.384217 1.165808,0 2.050392,0.265429 2.658867,0.796236 C 46.195752,18.327069 46.5,19.105626 46.5,20.129365 v 4.635899 h -1.92513 v -0.768439 h -0.120174 c -0.2301,0.295751 -0.529214,0.535885 -0.902479,0.722938 -0.373269,0.187062 -0.802776,0.280586 -1.291088,0.280586 -0.805327,0.0026 -1.464942,-0.23257 -1.983933,-0.700191 z m 3.799111,-1.342243 c 0.33237,-0.358934 0.501097,-0.778535 0.501097,-1.261337 -0.50875,-0.235111 -1.040536,-0.353887 -1.597871,-0.353887 -1.014974,0 -1.523746,0.374108 -1.523746,1.122322 0,0.305854 0.109945,0.553568 0.327248,0.745688 0.219889,0.192115 0.531772,0.288157 0.940824,0.288157 0.570133,-0.0026 1.020096,-0.182008 1.352448,-0.540943 z"
       id="path4-3"
       style="fill:#d3dae3;fill-opacity:1;stroke-width:0.25421" />
  </g>
</svg>
