<?xml version="1.0" encoding="UTF-8" standalone="no"?>
<svg
   width="22"
   height="22"
   version="1.1"
   id="svg12"
   sodipodi:docname="kget-symbolic.svg"
   inkscape:version="1.3.2 (091e20ef0f, 2023-11-25)"
   xmlns:inkscape="http://www.inkscape.org/namespaces/inkscape"
   xmlns:sodipodi="http://sodipodi.sourceforge.net/DTD/sodipodi-0.dtd"
   xmlns:xlink="http://www.w3.org/1999/xlink"
   xmlns="http://www.w3.org/2000/svg"
   xmlns:svg="http://www.w3.org/2000/svg"
   xmlns:rdf="http://www.w3.org/1999/02/22-rdf-syntax-ns#"
   xmlns:cc="http://creativecommons.org/ns#"
   xmlns:dc="http://purl.org/dc/elements/1.1/">
  <style
     id="current-color-scheme"
     type="text/css">.ColorScheme-Text { color:#d6dbf1; }
</style>
  <metadata
     id="metadata18">
    <rdf:RDF>
      <cc:Work
         rdf:about="">
        <dc:format>image/svg+xml</dc:format>
        <dc:type
           rdf:resource="http://purl.org/dc/dcmitype/StillImage" />
      </cc:Work>
    </rdf:RDF>
  </metadata>
  <defs
     id="defs16">
    <linearGradient
       id="c"
       y1="13"
       y2="33"
       x2="0"
       gradientUnits="userSpaceOnUse"
       gradientTransform="matrix(1,0,0,-1,384.57,547.8)">
      <stop
         stop-color="#197cf1"
         id="stop12" />
      <stop
         offset="1"
         stop-color="#20bcfa"
         id="stop14" />
    </linearGradient>
    <linearGradient
       xlink:href="#c"
       id="d"
       y1="14"
       y2="33"
       x2="0"
       gradientUnits="userSpaceOnUse"
       gradientTransform="matrix(1,0,0,-1,-8,37)" />
    <linearGradient
       id="linearGradient917"
       y1="13"
       y2="33"
       x2="0"
       gradientUnits="userSpaceOnUse"
       gradientTransform="matrix(1,0,0,-1,384.57,547.8)">
      <stop
         stop-color="#197cf1"
         id="stop913" />
      <stop
         offset="1"
         stop-color="#20bcfa"
         id="stop915" />
    </linearGradient>
  </defs>
  <sodipodi:namedview
     pagecolor="#201933"
     bordercolor="#000000"
     borderopacity="1"
     objecttolerance="10"
     gridtolerance="10"
     guidetolerance="10"
     inkscape:pageopacity="0"
     inkscape:pageshadow="2"
     inkscape:window-width="1920"
     inkscape:window-height="994"
     id="namedview14"
     showgrid="true"
     inkscape:zoom="9.8125"
     inkscape:cx="33.324841"
     inkscape:cy="18.140127"
     inkscape:window-x="0"
     inkscape:window-y="0"
     inkscape:window-maximized="1"
     inkscape:current-layer="svg12"
     inkscape:document-rotation="0"
     inkscape:pagecheckerboard="true"
     inkscape:lockguides="false"
     inkscape:showpageshadow="2"
     inkscape:deskcolor="#201933">
    <inkscape:grid
       type="xygrid"
       id="grid849"
       originx="-0.08917"
       originy="-8.4990034"
       spacingy="1"
       spacingx="1"
       units="px"
       visible="true" />
  </sodipodi:namedview>
  <g
     id="22-22-kget-3"
     transform="translate(-358,-544.36218)">
    <rect
       style="opacity:0.00100002;fill:#d1d5e9;fill-opacity:1"
       width="22"
       height="22"
       x="358"
       y="544.36218"
       id="rect2-6" />
    <path
       id="rect867-3"
       d="m 367.94959,547.36217 c -0.55398,0 -0.94634,0.44671 -0.94959,1.00155 v 8.59937 l -2.64606,-2.59972 c -0.19586,-0.19616 -0.51118,-0.19616 -0.70702,0 -0.19585,0.19614 -0.19585,0.51196 0,0.70809 l 4.9492,4.95698 c 0.11021,0.11034 0.25904,0.15854 0.40239,0.1447 0.11139,-0.0108 0.21897,-0.059 0.30465,-0.1447 l 4.94928,-4.95698 c 0.1958,-0.19613 0.1958,-0.51195 0,-0.70809 -0.19587,-0.19616 -0.51118,-0.19616 -0.70701,0 L 371,556.96309 v -8.59937 c 0,-0.55485 -0.49638,-1.00155 -1.05029,-1.00155 z m 1.00007,11.60401 v 0 l 1.00003,-1.00155 -1.00003,1.00155 -1.00007,-1.00155 z"
       style="color:#31363b;fill:#d3dae3;fill-opacity:1;stroke-width:1.00084"
       sodipodi:nodetypes="sscccccccccccssscccccc" />
    <path
       id="path292-6"
       d="m 362,559.35598 v 2.0031 c 0,1.10968 0.892,2.00309 1.99996,2.00309 h 10.0001 c 1.10792,0 1.99994,-0.89341 1.99994,-2.00309 v -2.0031 l -1,0.006 v 1.99968 c 0,0.66662 -0.446,1 -1,1 h -10 c -0.63637,0 -1,-0.33338 -1,-1 v -2 z"
       style="color:#31363b;fill:#d3dae3;fill-opacity:1;stroke-width:1.00084"
       sodipodi:nodetypes="cssssccsssscc" />
  </g>
</svg>
