<?xml version="1.0" encoding="UTF-8" standalone="no"?>
<svg
   width="22"
   height="22"
   version="1.1"
   id="svg12"
   sodipodi:docname="kteatime-symbolic.svg"
   inkscape:version="1.3.2 (091e20ef0f, 2023-11-25)"
   xmlns:inkscape="http://www.inkscape.org/namespaces/inkscape"
   xmlns:sodipodi="http://sodipodi.sourceforge.net/DTD/sodipodi-0.dtd"
   xmlns="http://www.w3.org/2000/svg"
   xmlns:svg="http://www.w3.org/2000/svg"
   xmlns:rdf="http://www.w3.org/1999/02/22-rdf-syntax-ns#"
   xmlns:cc="http://creativecommons.org/ns#"
   xmlns:dc="http://purl.org/dc/elements/1.1/">
  <metadata
     id="metadata18">
    <rdf:RDF>
      <cc:Work
         rdf:about="">
        <dc:format>image/svg+xml</dc:format>
        <dc:type
           rdf:resource="http://purl.org/dc/dcmitype/StillImage" />
      </cc:Work>
    </rdf:RDF>
  </metadata>
  <defs
     id="defs16" />
  <sodipodi:namedview
     pagecolor="#201933"
     bordercolor="#000000"
     borderopacity="1"
     objecttolerance="10"
     gridtolerance="10"
     guidetolerance="10"
     inkscape:pageopacity="0"
     inkscape:pageshadow="2"
     inkscape:window-width="1920"
     inkscape:window-height="994"
     id="namedview14"
     showgrid="true"
     inkscape:zoom="9.8125003"
     inkscape:cx="-7.1337577"
     inkscape:cy="13.961783"
     inkscape:window-x="0"
     inkscape:window-y="0"
     inkscape:window-maximized="1"
     inkscape:current-layer="svg12"
     inkscape:document-rotation="0"
     inkscape:lockguides="false"
     inkscape:pagecheckerboard="true"
     inkscape:showpageshadow="true"
     inkscape:deskcolor="#201933">
    <inkscape:grid
       id="grid1"
       units="px"
       originx="-32"
       originy="-10"
       spacingx="1"
       spacingy="1"
       empcolor="#0099e5"
       empopacity="0.30196078"
       color="#0099e5"
       opacity="0.14901961"
       empspacing="5"
       dotted="false"
       gridanglex="30"
       gridanglez="30"
       visible="true" />
  </sodipodi:namedview>
  <g
     id="22-22-kteatime"
     transform="translate(-32,-10)">
    <rect
       style="opacity:0.00100002;fill:#d3dae3;fill-opacity:1"
       width="22"
       height="22"
       x="32"
       y="10"
       id="rect2" />
    <path
       d="m 40.668388,17.319174 c 0,0 -0.9353,-0.247617 -0.275124,-0.907938 0.660301,-0.660318 1.223073,-1.395873 1.21004,-1.870899 -0.01291,-0.522237 -0.209674,-0.90338 -0.595242,-1.233675 -0.38453,-0.330024 -0.972078,-0.306287 -0.972078,-0.306287 0,0 0.907143,0.02754 1.017716,0.797485 0.109792,0.770509 -0.385177,0.990358 -0.797874,1.320509 -0.412296,0.330031 -0.880407,0.825012 -0.770089,1.348156 0.09101,0.434734 0.302246,0.550137 0.63292,0.742469 0.330154,0.192465 0.549731,0.11018 0.549731,0.11018 z"
       id="path2-2"
       style="fill:#d3dae3;fill-opacity:1;stroke-width:0.130393" />
    <path
       d="m 41.337839,18.3556 c 0,0 -0.230273,-0.273571 0.144735,-0.720957 0.37488,-0.447901 0.684687,-0.936753 0.651309,-1.232098 -0.03753,-0.324686 -0.192459,-0.537089 -0.439422,-0.735947 0,0 0.0862,0.08137 0.122304,0.387663 0.03597,0.302912 -0.252434,0.554175 -0.491572,0.782241 -0.238095,0.228577 -0.502401,0.56252 -0.404869,0.882385 0.08149,0.265998 0.417515,0.636713 0.417515,0.636713 z"
       id="path4-3-9"
       style="fill:#d3dae3;fill-opacity:1;stroke-width:0.130393" />
    <path
       id="kteatime-6-1"
       d="M 48.259873,20.089618 H 47.54457 C 47.382894,19.463175 46.825785,19 46.165032,19 H 38.427014 C 37.640138,19 37,19.656707 37,20.463966 v 2.760176 C 37,25.311695 38.24604,27.239893 40.015139,28 v 0 0 h 3.2e-4 4.560462 v 0 0 0 c 1.067978,-0.458676 1.945649,-1.427651 2.47351,-2.477225 h 1.210442 C 49.219362,25.522775 50,24.721928 50,23.737585 v -1.862781 c 0,-0.984338 -0.780638,-1.785186 -1.740127,-1.785186 z m -5.963851,5.821313 c 0,0 -2.512017,-1.395903 -2.512017,-3.173792 0,-0.793483 0.626973,-1.436695 1.400422,-1.436695 0.452958,0 0.85561,0.220669 1.111595,0.56288 0.255988,-0.342211 0.658636,-0.56288 1.111599,-0.56288 0.773443,0 1.400421,0.643212 1.400421,1.436695 0,1.794033 -2.51202,3.173792 -2.51202,3.173792 z m 6.944211,-2.007364 c -0.04485,0.638353 -0.929586,0.811023 -1.054673,0.806266 l -0.636527,-0.02424 c 0.03555,-0.243563 0.04309,-1.207888 0.04309,-1.461426 l -0.0079,-2.360065 0.705685,0.02307 c 0.718219,0.02337 0.935833,0.637297 0.936617,0.76571 z"
       sodipodi:nodetypes="scsssscccccccccssssccscssccscscssc"
       style="fill:#d3dae3;fill-opacity:1;stroke-width:0.0383156" />
    <path
       d="m 43.814851,18.3556 c 0,0 -0.935301,-0.247618 -0.275124,-0.90794 0.660301,-0.66032 1.223072,-1.395877 1.210039,-1.870904 -0.01291,-0.522232 -0.209673,-0.903379 -0.595241,-1.23366 -0.38453,-0.330038 -0.972078,-0.306305 -0.972078,-0.306305 0,0 0.907143,0.02754 1.017716,0.797503 0.109792,0.770495 -0.385177,0.990343 -0.797874,1.320506 -0.412296,0.330028 -0.880408,0.825005 -0.770089,1.348157 0.09101,0.434723 0.302245,0.550127 0.63292,0.742458 0.330154,0.192461 0.549731,0.110185 0.549731,0.110185 z"
       id="path2-3-2"
       style="fill:#d3dae3;fill-opacity:1;stroke-width:0.130393" />
    <path
       style="fill:#d3dae3;fill-opacity:1;stroke:none;stroke-width:0.522016"
       d="M 37.545,28 C 37.244004,28 37,28.223855 37,28.5 c 0,0.276145 0.244004,0.5 0.545,0.5 h 9.81 C 47.656004,29 47.9,28.776145 47.9,28.5 47.9,28.223855 47.656004,28 47.355,28 Z"
       id="rect3769-3" />
  </g>
</svg>
