<?xml version="1.0" encoding="UTF-8" standalone="no"?>
<svg
   width="22"
   height="22"
   version="1.1"
   id="svg6"
   sodipodi:docname="kdeconnect-symbolic.svg"
   inkscape:version="1.3.2 (091e20ef0f, 2023-11-25)"
   xmlns:inkscape="http://www.inkscape.org/namespaces/inkscape"
   xmlns:sodipodi="http://sodipodi.sourceforge.net/DTD/sodipodi-0.dtd"
   xmlns="http://www.w3.org/2000/svg"
   xmlns:svg="http://www.w3.org/2000/svg">
  <sodipodi:namedview
     id="namedview1"
     pagecolor="#ffffff"
     bordercolor="#999999"
     borderopacity="1"
     inkscape:showpageshadow="2"
     inkscape:pageopacity="0"
     inkscape:pagecheckerboard="0"
     inkscape:deskcolor="#d1d1d1"
     inkscape:zoom="16.83798"
     inkscape:cx="17.401137"
     inkscape:cy="10.749508"
     inkscape:window-width="1920"
     inkscape:window-height="994"
     inkscape:window-x="0"
     inkscape:window-y="0"
     inkscape:window-maximized="1"
     inkscape:current-layer="svg6"
     showgrid="false">
    <inkscape:grid
       id="grid1"
       units="px"
       originx="0"
       originy="0"
       spacingx="1"
       spacingy="1"
       empcolor="#0099e5"
       empopacity="0.30196078"
       color="#0099e5"
       opacity="0.14902"
       empspacing="5"
       dotted="false"
       gridanglex="30"
       gridanglez="30"
       visible="false" />
  </sodipodi:namedview>
  <defs
     id="defs10" />
  <namedview
     id="namedview8"
     pagecolor="#ffffff"
     bordercolor="#000000"
     borderopacity="0.25"
     inkscape:showpageshadow="2"
     inkscape:pageopacity="0.0"
     inkscape:pagecheckerboard="0"
     inkscape:deskcolor="#d1d1d1"
     showgrid="false"
     inkscape:zoom="48.3125"
     inkscape:cx="6.8926261"
     inkscape:cy="7.9896507"
     inkscape:window-width="1920"
     inkscape:window-height="1011"
     inkscape:window-x="0"
     inkscape:window-y="0"
     inkscape:window-maximized="1"
     inkscape:current-layer="svg6" />
  <style
     type="text/css"
     id="current-color-scheme">.ColorScheme-Text{color:#31363b;}.ColorScheme-Background{color:#eff0f1;}.ColorScheme-Highlight{color:#3daee9;}.ColorScheme-ViewText{color:#31363b;}.ColorScheme-ViewBackground{color:#fcfcfc;}.ColorScheme-ViewHover{color:#93cee9;}.ColorScheme-ViewFocus{color:#3daee9;}.ColorScheme-ButtonText{color:#31363b;}.ColorScheme-ButtonBackground{color:#eff0f1;}.ColorScheme-ButtonHover{color:#93cee9;}.ColorScheme-ButtonFocus { color: #3daee9; } </style>
  <g
     id="22-22-kdeconnect">
    <g
       id="g5438">
      <rect
         style="fill:#000000;fill-opacity:0;stroke:none"
         id="rect3841"
         width="22"
         height="22"
         x="-1.607666e-08"
         y="3.334961e-07"
         ry="0" />
      <rect
         x="8.6999998"
         y="3"
         width="4.6999998"
         height="1.6"
         id="rect14-0-8-3-3"
         style="fill:#d3dae3;fill-opacity:1;stroke-width:1.29089"
         ry="0.80000001"
         rx="0.93999916" />
      <path
         d="M 15.775515,2.9999998 H 6.2245031 c -0.673471,0 -1.224503,0.6 -1.224503,1.333333 V 17.666665 C 5.0000001,18.4 5.5510321,19 6.2245031,19 H 15.775515 C 16.448979,19 17,18.4 17,17.666665 V 4.3333328 c 0,-0.733333 -0.551021,-1.333333 -1.224485,-1.333333 z m 0.224487,14.9999992 v 0 H 6.0000021 v 0 -13.9999992 0 h 9.9999999 v 0 z"
         id="path2-7-6"
         style="fill:#d3dae3;fill-opacity:1;stroke-width:0.319438"
         sodipodi:nodetypes="sssssssssccccccccc" />
    </g>
  </g>
  <path
     d="m 5,15 h 12 v 0 -1 H 5 v 0 z"
     id="path2653-4"
     style="fill:#d3dae3;fill-opacity:1;stroke-width:0.237729"
     sodipodi:nodetypes="ccccccc" />
  <rect
     x="8.333334"
     y="17"
     width="5.3333321"
     height="1.8333333"
     id="rect14-0-8-3-36"
     style="fill:#d3dae3;fill-opacity:1;stroke-width:1.47196"
     ry="0.91666663"
     rx="1.0666654" />
  <g
     id="g1"
     transform="matrix(7.4999869,0,0,7.4999869,-14.081978,-8.6999738)">
    <path
       d="m 3.6735977,2.4581714 -0.015029,-0.00869 C 3.6406834,2.4391714 3.6299977,2.4206571 3.6299977,2.4 c 0,-0.020657 0.010686,-0.039171 0.028571,-0.049486 l 0.015029,-0.00869 C 3.7146267,2.31811 3.7286547,2.265767 3.7049687,2.2247383 l -0.028571,-0.049486 c -0.023629,-0.040943 -0.076171,-0.055 -0.1170857,-0.031371 l -0.015029,0.00866 c -0.017886,0.010343 -0.039286,0.010343 -0.057143,0 C 3.4692548,2.1422 3.4585691,2.1237143 3.4585691,2.1030571 V 2.0857143 C 3.4585691,2.0384571 3.420112,2 3.3728548,2 H 3.315712 C 3.268455,2 3.229998,2.038457 3.229998,2.085714 v 0.017371 c 0,0.020657 -0.010686,0.039143 -0.028571,0.049486 -0.017886,0.010314 -0.039257,0.010343 -0.057143,0 L 3.129255,2.143881 C 3.088341,2.120252 3.035798,2.134311 3.0121408,2.175252 l -0.028571,0.049486 c -0.023686,0.041029 -0.00966,0.0934 0.031372,0.1170857 l 0.015057,0.00869 c 0.017886,0.010314 0.028571,0.028829 0.028571,0.049486 0,0.020657 -0.010686,0.039171 -0.028571,0.049486 l -0.015029,0.00869 c -0.041028,0.023686 -0.055057,0.076057 -0.031371,0.1170857 l 0.028571,0.049486 c 0.023657,0.040943 0.0762,0.055 0.1170857,0.031371 l 0.015029,-0.00866 c 0.017886,-0.010371 0.039257,-0.010314 0.057143,0 0.017886,0.010343 0.028571,0.028829 0.028571,0.049486 v 0.017343 c 0,0.047257 0.038457,0.085714 0.085714,0.085714 h 0.057143 c 0.047257,0 0.085714,-0.038457 0.085714,-0.085714 v -0.017371 c 0,-0.020657 0.010686,-0.039143 0.028571,-0.049486 0.017857,-0.010314 0.039257,-0.010343 0.057143,0 l 0.015029,0.00869 c 0.040914,0.0236 0.093457,0.00954 0.1170857,-0.031371 l 0.028571,-0.049486 c 0.023686,-0.041028 0.00966,-0.0934 -0.031371,-0.1170857 z m -0.3293143,0.084686 c -0.078771,0 -0.1428571,-0.064086 -0.1428571,-0.1428571 0,-0.078771 0.064086,-0.1428571 0.1428571,-0.1428571 0.078771,0 0.1428572,0.064086 0.1428572,0.1428571 0,0.078771 -0.064086,0.1428571 -0.1428572,0.1428571 z"
       style="stroke-width:0.0285714;fill:#d3dae3;fill-opacity:1"
       id="path1" />
  </g>
</svg>
